M48
; DRILL file KiCad 10.0.3 date 2026-05-19T15:58:13
; FORMAT={-:-/ absolute / inch / decimal}
; #@! TF.CreationDate,2026-05-19T15:58:13-04:00
; #@! TF.GenerationSoftware,Kicad,Pcbnew,10.0.3
; #@! TF.FileFunction,NonPlated,1,6,NPTH
FMAT,2
INCH
; #@! TA.AperFunction,NonPlated,NPTH,ComponentDrill
T1C0.0256
; #@! TA.AperFunction,NonPlated,NPTH,ComponentDrill
T2C0.0354
; #@! TA.AperFunction,NonPlated,NPTH,ComponentDrill
T3C0.1457
%
G90
G05
T1
X7.2184Y-2.4787
X7.2184Y-2.7063
T2
X7.3908Y-3.7174
X7.3908Y-3.8356
T3
X4.34Y-2.745
X4.34Y-3.52
X4.34Y-4.295
X4.34Y-5.07
X4.5275Y-2.5575
X4.5275Y-3.7075
X4.5275Y-4.1075
X4.5275Y-5.2575
X5.3025Y-2.5575
X5.3025Y-3.7075
X5.3025Y-4.1075
X5.3025Y-5.2575
X5.49Y-2.745
X5.49Y-3.52
X5.49Y-4.295
X5.49Y-5.07
X5.89Y-4.1075
X5.89Y-5.2575
X6.0775Y-2.5575
X6.0775Y-3.7075
X6.0775Y-4.1075
X6.0775Y-5.2575
X6.8525Y-2.5575
X6.8525Y-3.7075
X6.8525Y-4.1075
X6.8525Y-5.2575
X7.04Y-4.1075
X7.04Y-5.2575
M30
