M48
; DRILL file KiCad 10.0.3 date 2026-05-19T15:58:13
; FORMAT={-:-/ absolute / inch / decimal}
; #@! TF.CreationDate,2026-05-19T15:58:13-04:00
; #@! TF.GenerationSoftware,Kicad,Pcbnew,10.0.3
; #@! TF.FileFunction,Plated,1,6,PTH
FMAT,2
INCH
; #@! TA.AperFunction,Plated,PTH,ViaDrill
T1C0.0100
; #@! TA.AperFunction,Plated,PTH,ViaDrill
T2C0.0120
; #@! TA.AperFunction,Plated,PTH,ViaDrill
T3C0.0150
; #@! TA.AperFunction,Plated,PTH,ComponentDrill
T4C0.0197
; #@! TA.AperFunction,Plated,PTH,ComponentDrill
T5C0.0236
; #@! TA.AperFunction,Plated,PTH,ComponentDrill
T6C0.0394
; #@! TA.AperFunction,Plated,PTH,ComponentDrill
T7C0.1260
%
G90
G05
T1
X4.77Y-2.525
X4.77Y-5.29
X4.828Y-2.525
X4.828Y-5.29
X4.886Y-2.525
X4.886Y-5.29
X4.944Y-5.29
X4.9445Y-2.525
X5.002Y-2.525
X5.002Y-5.29
X5.06Y-2.525
X5.06Y-5.29
X6.1959Y-5.3927
X6.196Y-3.9702
X6.2081Y-4.1385
X6.209Y-5.2256
X6.2287Y-5.2461
X6.2287Y-5.3597
X6.2287Y-4.0052
X6.2287Y-4.1205
X6.249Y-5.2256
X6.2494Y-4.1385
X6.259Y-4.2432
X6.2594Y-5.1204
X6.2614Y-5.3927
X6.2615Y-3.9702
X6.272Y-4.0755
X6.272Y-5.2887
X6.2917Y-4.2092
X6.2918Y-4.0935
X6.2921Y-5.1554
X6.2921Y-5.2707
X6.312Y-4.0755
X6.312Y-5.2887
X6.3217Y-3.9702
X6.3221Y-5.3921
X6.3245Y-4.2432
X6.3249Y-5.1214
X6.3338Y-4.1385
X6.335Y-5.2256
X6.3545Y-4.1205
X6.3547Y-4.0052
X6.3548Y-5.2461
X6.3548Y-5.3591
X6.375Y-5.2256
X6.3752Y-4.1385
X6.385Y-4.2432
X6.385Y-5.1204
X6.3872Y-3.9702
X6.3876Y-5.3921
X6.398Y-4.0755
X6.398Y-5.2887
X6.4177Y-4.0935
X6.4177Y-4.2092
X6.4177Y-5.1554
X6.4177Y-5.2707
X6.438Y-4.0755
X6.438Y-5.2887
X6.448Y-3.9702
X6.4482Y-5.3923
X6.4505Y-4.2432
X6.4505Y-5.1214
X6.46Y-4.1385
X6.461Y-5.2256
X6.4807Y-4.0052
X6.4807Y-4.1205
X6.481Y-5.2461
X6.481Y-5.3593
X6.501Y-5.2256
X6.5014Y-4.1375
X6.5109Y-5.1204
X6.5111Y-4.2433
X6.5135Y-3.9712
X6.5137Y-5.3923
X6.523Y-5.2887
X6.524Y-4.0756
X6.5436Y-5.1554
X6.5436Y-5.2707
X6.5438Y-4.0936
X6.5438Y-4.2093
X6.564Y-4.0756
X6.5643Y-5.2887
X6.5741Y-3.9694
X6.5764Y-5.1214
X6.5766Y-4.2433
X6.5862Y-4.1377
X6.5909Y-5.2695
X6.6053Y-5.3923
X6.6068Y-4.0044
X6.6068Y-4.1197
X6.6174Y-5.2256
X6.6275Y-4.1367
X6.6381Y-5.2461
X6.6381Y-5.3593
X6.6396Y-3.9704
X6.649Y-4.23
X6.65Y-4.0756
X6.6587Y-5.2256
X6.6698Y-4.0932
X6.6698Y-4.2089
X6.6708Y-5.3923
X6.6807Y-5.2887
X6.69Y-4.0752
X6.69Y-4.23
X6.7012Y-5.2707
X6.722Y-5.2887
T2
X4.2445Y-2.745
X4.2445Y-3.52
X4.2445Y-4.295
X4.2445Y-5.07
X4.3075Y-3.0455
X4.3075Y-3.2195
X4.3075Y-4.5955
X4.3075Y-4.7695
X4.3075Y-2.9875
X4.3075Y-3.1035
X4.3075Y-3.1615
X4.3075Y-3.2775
X4.3075Y-4.5375
X4.3075Y-4.6535
X4.3075Y-4.7115
X4.3075Y-4.8275
X4.34Y-2.6495
X4.34Y-2.8405
X4.34Y-3.4245
X4.34Y-3.6155
X4.34Y-4.1995
X4.34Y-4.3905
X4.34Y-4.9745
X4.34Y-5.1655
X4.3725Y-2.9875
X4.3725Y-3.2775
X4.3725Y-4.5375
X4.3725Y-4.8275
X4.432Y-2.5575
X4.432Y-3.7075
X4.432Y-4.1075
X4.432Y-5.2575
X4.4325Y-4.6305
X4.4325Y-4.6746
X4.4325Y-4.7175
X4.4331Y-3.0807
X4.4331Y-3.1246
X4.4331Y-3.1693
X4.4339Y-4.58
X4.4341Y-3.0303
X4.4355Y-2.745
X4.4355Y-3.52
X4.4355Y-4.295
X4.4355Y-5.07
X4.4993Y-3.1404
X4.4993Y-3.1843
X4.4997Y-3.0977
X4.4999Y-4.58
X4.5001Y-3.0303
X4.5018Y-4.6465
X4.5022Y-4.6904
X4.505Y-4.733
X4.5275Y-2.462
X4.5275Y-2.653
X4.5275Y-3.612
X4.5275Y-3.803
X4.5275Y-4.012
X4.5275Y-4.203
X4.5275Y-5.162
X4.5275Y-5.353
X4.546Y-3.0807
X4.5528Y-3.1246
X4.5532Y-3.1685
X4.5549Y-3.2354
X4.5551Y-4.7851
X4.5553Y-4.7173
X4.5557Y-4.6746
X4.5557Y-4.6307
X4.6209Y-3.2354
X4.6211Y-4.7851
X4.6225Y-3.0975
X4.6225Y-3.1404
X4.6225Y-3.1845
X4.623Y-2.5575
X4.623Y-3.7075
X4.623Y-4.1075
X4.623Y-5.2575
X4.624Y-4.659
X4.624Y-4.6904
X4.624Y-4.7331
X4.77Y-2.59
X4.77Y-3.7062
X4.77Y-3.74
X4.77Y-4.075
X4.77Y-4.14
X4.77Y-5.225
X4.8122Y-4.2013
X4.8122Y-4.2673
X4.8122Y-4.9765
X4.8122Y-5.0425
X4.8126Y-2.6513
X4.8126Y-2.7173
X4.8126Y-3.4265
X4.8126Y-3.4925
X4.828Y-3.7047
X4.828Y-3.74
X4.828Y-4.075
X4.863Y-4.2
X4.863Y-2.65
X4.8632Y-4.3232
X4.8632Y-2.7732
X4.864Y-3.5458
X4.8644Y-5.0953
X4.8644Y-3.4256
X4.8644Y-4.9756
X4.879Y-4.2693
X4.879Y-2.7193
X4.88Y-5.165
X4.8802Y-3.4922
X4.8802Y-5.0422
X4.885Y-3.5228
X4.886Y-3.74
X4.886Y-4.075
X4.891Y-4.3894
X4.8913Y-2.8394
X4.9071Y-3.4256
X4.9071Y-3.5453
X4.9071Y-4.9756
X4.9071Y-5.0953
X4.9071Y-2.65
X4.9071Y-2.7732
X4.9071Y-4.2
X4.9071Y-4.3232
X4.9229Y-4.2697
X4.9229Y-3.4918
X4.9229Y-3.615
X4.9229Y-4.3894
X4.9229Y-5.0418
X4.9229Y-5.165
X4.9229Y-2.7197
X4.9229Y-2.8394
X4.9386Y-3.426
X4.944Y-3.74
X4.944Y-4.075
X4.9472Y-4.2873
X4.9498Y-4.3228
X4.9498Y-2.7728
X4.95Y-2.65
X4.951Y-3.5457
X4.951Y-4.9756
X4.951Y-5.0957
X4.9656Y-4.3894
X4.9656Y-2.8394
X4.9658Y-2.7242
X4.9668Y-3.4918
X4.9668Y-5.049
X4.967Y-3.615
X4.967Y-5.165
X4.972Y-4.2697
X4.9732Y-4.0323
X5.002Y-3.74
X5.002Y-4.075
X5.0169Y-3.5474
X5.0169Y-3.6134
X5.0169Y-4.3226
X5.0169Y-4.3886
X5.0173Y-5.0978
X5.0173Y-5.1638
X5.0174Y-2.773
X5.0174Y-2.839
X5.031Y-4.032
X5.06Y-2.59
X5.06Y-3.675
X5.06Y-3.74
X5.06Y-4.075
X5.06Y-5.225
X5.207Y-2.5575
X5.207Y-3.7075
X5.207Y-4.1075
X5.207Y-5.2575
X5.208Y-4.706
X5.2081Y-3.1246
X5.2081Y-3.0819
X5.2081Y-3.1685
X5.2081Y-4.6319
X5.2081Y-4.6746
X5.2087Y-4.5799
X5.2089Y-3.0303
X5.2743Y-3.1404
X5.2743Y-4.6904
X5.2743Y-4.7335
X5.2747Y-3.0977
X5.2747Y-4.6477
X5.2747Y-4.5799
X5.2749Y-3.0303
X5.282Y-3.1843
X5.3025Y-2.462
X5.3025Y-2.653
X5.3025Y-3.612
X5.3025Y-3.803
X5.3025Y-4.012
X5.3025Y-4.203
X5.3025Y-5.162
X5.3025Y-5.353
X5.32Y-3.0817
X5.325Y-4.632
X5.3278Y-3.1246
X5.3278Y-4.6746
X5.3282Y-3.1685
X5.3282Y-4.7185
X5.3299Y-4.785
X5.33Y-3.2346
X5.3945Y-2.745
X5.3945Y-3.52
X5.3945Y-4.295
X5.3945Y-5.07
X5.3959Y-4.785
X5.396Y-3.2346
X5.3975Y-3.0975
X5.3975Y-3.1404
X5.3975Y-3.1845
X5.3975Y-4.6475
X5.3975Y-4.6904
X5.3975Y-4.7345
X5.398Y-2.5575
X5.398Y-3.7075
X5.398Y-4.1075
X5.398Y-5.2575
X5.405Y-2.153
X5.405Y-2.253
X5.405Y-5.6115
X5.4575Y-3.2775
X5.4575Y-4.8275
X5.47Y-2.153
X5.47Y-2.253
X5.488Y-2.9875
X5.488Y-3.045
X5.4887Y-4.5375
X5.4887Y-4.595
X5.49Y-2.6495
X5.49Y-2.8405
X5.49Y-3.4245
X5.49Y-3.6155
X5.49Y-4.1995
X5.49Y-4.3905
X5.49Y-4.9745
X5.49Y-5.1655
X5.5225Y-2.9875
X5.5225Y-3.0455
X5.5225Y-3.1035
X5.5225Y-3.1615
X5.5225Y-3.2195
X5.5225Y-3.2775
X5.5225Y-4.5375
X5.5225Y-4.5955
X5.5225Y-4.6535
X5.5225Y-4.7115
X5.5225Y-4.7695
X5.5225Y-4.8275
X5.5855Y-2.745
X5.5855Y-3.52
X5.5855Y-4.295
X5.5855Y-5.07
X5.8225Y-4.04
X5.8225Y-4.175
X5.8225Y-5.19
X5.8225Y-5.325
X5.8845Y-2.116
X5.8845Y-2.174
X5.8845Y-2.232
X5.8845Y-2.29
X5.9495Y-2.116
X5.9495Y-2.174
X5.9495Y-2.232
X5.9575Y-4.04
X5.9575Y-4.175
X5.9575Y-5.19
X5.9575Y-5.325
X5.975Y-5.5535
X5.975Y-5.6115
X5.975Y-5.6695
X5.982Y-2.5575
X5.982Y-3.7075
X5.9831Y-3.1559
X5.9831Y-3.1246
X5.9831Y-4.6746
X5.9831Y-3.0819
X5.9831Y-4.6319
X5.9831Y-4.706
X5.9839Y-4.5799
X5.9841Y-3.0303
X6.01Y-4.04
X6.01Y-4.175
X6.01Y-5.19
X6.01Y-5.325
X6.044Y-2.824
X6.044Y-2.856
X6.0493Y-4.7343
X6.0493Y-3.1404
X6.0493Y-4.6904
X6.0493Y-3.1843
X6.0497Y-3.0977
X6.0497Y-4.6477
X6.0499Y-4.5799
X6.0501Y-3.0303
X6.0735Y-3.462
X6.0735Y-3.494
X6.076Y-2.824
X6.076Y-2.856
X6.0775Y-2.462
X6.0775Y-2.653
X6.0775Y-3.803
X6.0988Y-4.632
X6.099Y-3.082
X6.1028Y-3.1246
X6.1028Y-4.6746
X6.1032Y-3.1685
X6.1032Y-4.7185
X6.1049Y-3.235
X6.1051Y-4.7846
X6.1055Y-3.462
X6.1055Y-3.494
X6.131Y-2.677
X6.131Y-3.533
X6.145Y-4.04
X6.145Y-4.175
X6.145Y-5.19
X6.145Y-5.325
X6.1709Y-3.235
X6.1711Y-4.7846
X6.1725Y-3.0975
X6.1725Y-3.1404
X6.1725Y-3.1845
X6.1725Y-4.6475
X6.1725Y-4.6904
X6.1725Y-4.7345
X6.173Y-2.5575
X6.173Y-3.7075
X6.1885Y-2.677
X6.1885Y-3.533
X6.2045Y-2.525
X6.206Y-2.79
X6.206Y-3.646
X6.2325Y-3.2775
X6.2325Y-4.8275
X6.2625Y-2.525
X6.263Y-4.5375
X6.263Y-4.5957
X6.2632Y-3.0455
X6.2637Y-2.9875
X6.2825Y-2.79
X6.2825Y-3.5635
X6.2825Y-3.646
X6.2825Y-2.7075
X6.2975Y-2.9875
X6.2975Y-3.0455
X6.2975Y-3.1035
X6.2975Y-3.1615
X6.2975Y-3.2195
X6.2975Y-3.2775
X6.2975Y-4.5375
X6.2975Y-4.5955
X6.2975Y-4.6535
X6.2975Y-4.7115
X6.2975Y-4.7695
X6.2975Y-4.8275
X6.3205Y-2.525
X6.321Y-2.6255
X6.3219Y-3.4815
X6.344Y-2.754
X6.3473Y-3.048
X6.359Y-2.79
X6.359Y-3.646
X6.3765Y-2.677
X6.3765Y-2.738
X6.3785Y-2.525
X6.397Y-3.413
X6.406Y-3.258
X6.407Y-3.02
X6.407Y-3.048
X6.438Y-3.258
X6.438Y-3.46
X6.438Y-3.492
X6.44Y-3.02
X6.4405Y-3.048
X6.47Y-3.46
X6.47Y-3.492
X6.496Y-2.677
X6.5483Y-3.048
X6.5535Y-2.677
X6.5535Y-3.533
X6.5695Y-2.525
X6.571Y-2.79
X6.571Y-3.646
X6.607Y-3.258
X6.608Y-3.02
X6.608Y-3.048
X6.6275Y-2.525
X6.639Y-3.258
X6.6415Y-3.048
X6.642Y-3.02
X6.6475Y-2.79
X6.6475Y-3.5635
X6.6475Y-3.646
X6.6475Y-2.7075
X6.6855Y-2.525
X6.6869Y-3.481
X6.7012Y-5.099
X6.7012Y-5.129
X6.7012Y-5.159
X6.709Y-2.754
X6.7101Y-2.621
X6.7105Y-2.651
X6.724Y-2.79
X6.724Y-3.646
X6.7415Y-2.677
X6.7415Y-2.738
X6.7415Y-3.533
X6.757Y-2.5575
X6.757Y-3.7075
X6.758Y-4.706
X6.7581Y-3.1246
X6.7581Y-3.0819
X6.7581Y-3.156
X6.7581Y-4.6319
X6.7581Y-4.6746
X6.7591Y-4.5799
X6.7591Y-3.0299
X6.785Y-4.04
X6.785Y-4.175
X6.785Y-5.19
X6.785Y-5.325
X6.8243Y-3.1404
X6.8243Y-4.7343
X6.8243Y-3.1843
X6.8243Y-4.6904
X6.8247Y-3.0977
X6.8247Y-4.6477
X6.8251Y-4.5799
X6.8251Y-3.0299
X6.8525Y-2.462
X6.8525Y-2.653
X6.8525Y-3.612
X6.8525Y-3.803
X6.868Y-3.3375
X6.874Y-3.082
X6.875Y-4.6319
X6.8778Y-3.1246
X6.8778Y-4.6746
X6.8782Y-3.1685
X6.8782Y-4.7185
X6.8801Y-3.2354
X6.8803Y-4.785
X6.92Y-4.04
X6.92Y-4.175
X6.92Y-5.19
X6.92Y-5.325
X6.9461Y-3.2354
X6.9463Y-4.785
X6.9475Y-3.0975
X6.9475Y-3.1404
X6.9475Y-3.1845
X6.9475Y-4.6475
X6.9475Y-4.6904
X6.9475Y-4.7345
X6.948Y-2.5575
X6.948Y-3.7075
X6.9725Y-4.04
X6.9725Y-4.175
X6.9725Y-5.19
X6.9725Y-5.325
X7.0075Y-2.9875
X7.0075Y-3.2775
X7.0075Y-4.5375
X7.0075Y-4.8275
X7.0115Y-2.733
X7.05Y-2.733
X7.0725Y-2.9875
X7.0725Y-3.0455
X7.0725Y-3.1035
X7.0725Y-3.1615
X7.0725Y-3.2195
X7.0725Y-3.2775
X7.0725Y-4.5388
X7.0725Y-4.5963
X7.0725Y-4.6535
X7.0725Y-4.7115
X7.0725Y-4.7695
X7.0725Y-4.8275
X7.1075Y-4.04
X7.1075Y-4.175
X7.1075Y-5.19
X7.1075Y-5.325
X7.136Y-2.498
X7.136Y-2.687
X7.1995Y-3.751
X7.2725Y-3.077
X7.2725Y-3.1094
X7.2725Y-3.142
X7.2725Y-3.194
X7.2725Y-3.2256
X7.2725Y-3.257
X7.2745Y-4.4575
X7.2745Y-4.6075
X7.2745Y-4.7575
X7.2745Y-4.9075
X7.2935Y-2.5551
X7.329Y-3.077
X7.329Y-3.1094
X7.329Y-3.142
X7.329Y-3.194
X7.329Y-3.2256
X7.329Y-3.257
X7.3395Y-4.4575
X7.3395Y-4.6075
X7.3395Y-4.7575
X7.3395Y-4.9075
X7.355Y-2.9075
X7.355Y-3.4825
X7.355Y-4.0575
X7.389Y-3.771
X7.42Y-4.1155
T3
X4.431Y-3.2165
X4.431Y-3.276
X4.431Y-4.763
X4.431Y-4.831
X4.502Y-3.2349
X4.5022Y-4.7849
X4.553Y-4.5801
X4.554Y-3.0301
X4.624Y-2.988
X4.624Y-4.537
X4.6402Y-3.0697
X4.6445Y-4.6186
X4.683Y-2.902
X4.683Y-3.363
X4.683Y-4.452
X4.683Y-4.913
X4.733Y-2.952
X4.733Y-3.313
X4.733Y-4.502
X4.733Y-4.863
X4.768Y-2.841
X4.768Y-3.617
X4.771Y-4.391
X4.771Y-5.167
X4.812Y-4.3232
X4.8126Y-2.7724
X4.8126Y-3.5453
X4.8126Y-5.0953
X4.832Y-5.167
X4.8505Y-4.411
X4.8511Y-3.6241
X4.8512Y-2.861
X4.9768Y-3.402
X4.9768Y-4.189
X4.9789Y-4.953
X4.9961Y-2.6433
X5.0174Y-4.2697
X5.0174Y-5.0426
X5.0174Y-2.7197
X5.018Y-3.4918
X5.06Y-2.648
X5.06Y-4.1983
X5.06Y-4.973
X5.0603Y-3.423
X5.096Y-2.952
X5.096Y-3.313
X5.096Y-4.502
X5.096Y-4.863
X5.146Y-2.902
X5.146Y-3.363
X5.146Y-4.452
X5.146Y-4.913
X5.186Y-3.1964
X5.186Y-4.746
X5.206Y-3.276
X5.206Y-4.828
X5.2743Y-3.2349
X5.2743Y-4.7849
X5.3278Y-3.0301
X5.3278Y-4.5801
X5.399Y-2.988
X5.399Y-4.537
X5.414Y-3.0686
X5.42Y-4.621
X5.959Y-3.1964
X5.961Y-4.746
X5.981Y-3.276
X5.981Y-4.828
X6.0493Y-4.7849
X6.0501Y-3.2349
X6.1028Y-3.0301
X6.1028Y-4.5801
X6.173Y-2.988
X6.173Y-4.537
X6.193Y-3.071
X6.195Y-4.621
X6.344Y-3.611
X6.3765Y-3.594
X6.709Y-3.611
X6.735Y-3.196
X6.735Y-4.745
X6.7415Y-3.594
X6.755Y-4.828
X6.756Y-3.276
X6.8243Y-3.2349
X6.8243Y-4.7849
X6.8778Y-3.0301
X6.8778Y-4.5801
X6.948Y-4.6116
X6.949Y-2.988
X6.949Y-4.534
X6.957Y-3.052
T4
X4.0205Y-5.595
X4.0482Y-5.5282
X4.0482Y-5.6618
X4.115Y-5.5005
X4.115Y-5.6895
X4.1705Y-2.22
X4.1818Y-5.5282
X4.1818Y-5.6618
X4.1982Y-2.1532
X4.1982Y-2.2868
X4.2095Y-5.595
X4.265Y-2.1255
X4.265Y-2.3145
X4.3318Y-2.1532
X4.3318Y-2.2868
X4.3595Y-2.22
X7.0705Y-2.22
X7.0982Y-2.1532
X7.0982Y-2.2868
X7.165Y-2.1255
X7.165Y-2.3145
X7.1705Y-5.595
X7.1982Y-5.5282
X7.1982Y-5.6618
X7.2318Y-2.1532
X7.2318Y-2.2868
X7.2595Y-2.22
X7.265Y-5.5005
X7.265Y-5.6895
X7.3318Y-5.5282
X7.3318Y-5.6618
X7.3595Y-5.595
T6
X4.715Y-2.153
X4.715Y-2.253
X4.715Y-5.562
X4.715Y-5.662
X4.815Y-2.153
X4.815Y-2.253
X4.815Y-5.562
X4.815Y-5.662
X4.915Y-2.153
X4.915Y-2.253
X4.915Y-5.562
X4.915Y-5.662
X5.015Y-2.153
X5.015Y-2.253
X5.015Y-5.562
X5.015Y-5.662
X5.115Y-2.153
X5.115Y-2.253
X5.115Y-5.562
X5.115Y-5.662
X6.265Y-2.153
X6.265Y-2.253
X6.265Y-5.562
X6.265Y-5.662
X6.365Y-2.153
X6.365Y-2.253
X6.365Y-5.562
X6.365Y-5.662
X6.465Y-2.153
X6.465Y-2.253
X6.465Y-5.562
X6.465Y-5.662
X6.565Y-2.153
X6.565Y-2.253
X6.565Y-5.562
X6.565Y-5.662
X6.665Y-2.153
X6.665Y-2.253
X6.665Y-5.562
X6.665Y-5.662
T7
X4.115Y-5.595
X4.265Y-2.22
X7.165Y-2.22
X7.265Y-5.595
T5
G00X7.177Y-2.4224
M15
G01X7.2203Y-2.4224
M16
G05
G00X7.177Y-2.7626
M15
G01X7.2203Y-2.7626
M16
G05
G00X7.3475Y-2.4224
M15
G01X7.379Y-2.4224
M16
G05
G00X7.3475Y-2.7626
M15
G01X7.379Y-2.7626
M16
G05
M30
