%TF.GenerationSoftware,KiCad,Pcbnew,10.0.3*%
%TF.CreationDate,2026-05-19T15:58:13-04:00*%
%TF.ProjectId,EfficientBoard,45666669-6369-4656-9e74-426f6172642e,rev?*%
%TF.SameCoordinates,Original*%
%TF.FileFunction,Soldermask,Bot*%
%TF.FilePolarity,Negative*%
%FSLAX46Y46*%
G04 Gerber Fmt 4.6, Leading zero omitted, Abs format (unit mm)*
G04 Created by KiCad (PCBNEW 10.0.3) date 2026-05-19 15:58:13*
%MOMM*%
%LPD*%
G01*
G04 APERTURE LIST*
G04 Aperture macros list*
%AMRoundRect*
0 Rectangle with rounded corners*
0 $1 Rounding radius*
0 $2 $3 $4 $5 $6 $7 $8 $9 X,Y pos of 4 corners*
0 Add a 4 corners polygon primitive as box body*
4,1,4,$2,$3,$4,$5,$6,$7,$8,$9,$2,$3,0*
0 Add four circle primitives for the rounded corners*
1,1,$1+$1,$2,$3*
1,1,$1+$1,$4,$5*
1,1,$1+$1,$6,$7*
1,1,$1+$1,$8,$9*
0 Add four rect primitives between the rounded corners*
20,1,$1+$1,$2,$3,$4,$5,0*
20,1,$1+$1,$4,$5,$6,$7,0*
20,1,$1+$1,$6,$7,$8,$9,0*
20,1,$1+$1,$8,$9,$2,$3,0*%
%AMFreePoly0*
4,1,108,-1.922481,2.957613,-1.594493,2.882752,-1.276950,2.771639,-0.973843,2.625670,-0.688986,2.446683,-0.425960,2.236926,-0.188074,1.999040,0.021683,1.736014,0.200670,1.451157,0.346639,1.148050,0.457752,0.830507,0.532613,0.502519,0.570280,0.168211,0.570280,-0.168211,0.532613,-0.502519,0.457752,-0.830507,0.346639,-1.148050,0.200670,-1.451157,0.021683,-1.736014,-0.188074,-1.999040,
-0.425960,-2.236926,-0.688986,-2.446683,-0.973843,-2.625670,-1.276950,-2.771639,-1.594493,-2.882752,-1.922481,-2.957613,-2.256789,-2.995280,-2.593211,-2.995280,-2.927519,-2.957613,-3.255507,-2.882752,-3.573050,-2.771639,-3.876157,-2.625670,-4.161014,-2.446683,-4.424040,-2.236926,-4.661926,-1.999040,-4.871683,-1.736014,-5.050670,-1.451157,-5.196639,-1.148050,-5.307752,-0.830507,-5.382613,-0.502519,
-5.420280,-0.168211,-5.420280,0.121255,-4.275000,0.121255,-4.275000,-0.121255,-4.243346,-0.361691,-4.180579,-0.595939,-4.087774,-0.819990,-3.966519,-1.030010,-3.818888,-1.222407,-3.647407,-1.393888,-3.455010,-1.541519,-3.244990,-1.662774,-3.020939,-1.755579,-2.786691,-1.818346,-2.546255,-1.850000,-2.303745,-1.850000,-2.063309,-1.818346,-1.829061,-1.755579,-1.605010,-1.662774,-1.394990,-1.541519,
-1.202593,-1.393888,-1.031112,-1.222407,-0.883481,-1.030010,-0.762226,-0.819990,-0.669421,-0.595939,-0.606654,-0.361691,-0.575000,-0.121255,-0.575000,0.121255,-0.606654,0.361691,-0.669421,0.595939,-0.762226,0.819990,-0.883481,1.030010,-1.031112,1.222407,-1.202593,1.393888,-1.394990,1.541519,-1.605010,1.662774,-1.829061,1.755579,-2.063309,1.818346,-2.303745,1.850000,-2.546255,1.850000,
-2.786691,1.818346,-3.020939,1.755579,-3.244990,1.662774,-3.455010,1.541519,-3.647407,1.393888,-3.818888,1.222407,-3.966519,1.030010,-4.087774,0.819990,-4.180579,0.595939,-4.243346,0.361691,-4.275000,0.121255,-5.420280,0.121255,-5.420280,0.168211,-5.382613,0.502519,-5.307752,0.830507,-5.196639,1.148050,-5.050670,1.451157,-4.871683,1.736014,-4.661926,1.999040,-4.424040,2.236926,
-4.161014,2.446683,-3.876157,2.625670,-3.573050,2.771639,-3.255507,2.882752,-2.927519,2.957613,-2.593211,2.995280,-2.256789,2.995280,-1.922481,2.957613,-1.922481,2.957613,$1*%
G04 Aperture macros list end*
%ADD10C,0.800000*%
%ADD11C,6.400000*%
%ADD12C,3.700000*%
%ADD13C,0.900000*%
%ADD14C,0.650000*%
%ADD15O,2.100000X1.000000*%
%ADD16O,1.800000X1.000000*%
%ADD17RoundRect,0.250000X-0.600000X0.600000X-0.600000X-0.600000X0.600000X-0.600000X0.600000X0.600000X0*%
%ADD18C,1.700000*%
%ADD19RoundRect,0.250000X0.600000X-0.600000X0.600000X0.600000X-0.600000X0.600000X-0.600000X-0.600000X0*%
%ADD20RoundRect,0.200000X0.200000X0.275000X-0.200000X0.275000X-0.200000X-0.275000X0.200000X-0.275000X0*%
%ADD21RoundRect,0.200000X-0.200000X-0.275000X0.200000X-0.275000X0.200000X0.275000X-0.200000X0.275000X0*%
%ADD22RoundRect,0.050000X0.300000X-0.050000X0.300000X0.050000X-0.300000X0.050000X-0.300000X-0.050000X0*%
%ADD23FreePoly0,90.000000*%
%ADD24FreePoly0,225.000000*%
%ADD25FreePoly0,270.000000*%
%ADD26RoundRect,0.250000X-0.650000X1.000000X-0.650000X-1.000000X0.650000X-1.000000X0.650000X1.000000X0*%
%ADD27RoundRect,0.250000X-0.475000X0.250000X-0.475000X-0.250000X0.475000X-0.250000X0.475000X0.250000X0*%
%ADD28RoundRect,0.250000X-0.650000X0.325000X-0.650000X-0.325000X0.650000X-0.325000X0.650000X0.325000X0*%
G04 APERTURE END LIST*
D10*
%TO.C,H2*%
X104521000Y-139713000D03*
X106218056Y-140415944D03*
X102823944Y-140415944D03*
X106921000Y-142113000D03*
D11*
X104521000Y-142113000D03*
D10*
X102121000Y-142113000D03*
X106218056Y-143810056D03*
X102823944Y-143810056D03*
X104521000Y-144513000D03*
%TD*%
D12*
%TO.C,H9*%
X110236000Y-109093000D03*
%TD*%
D10*
%TO.C,H4*%
X184531000Y-139713000D03*
X186228056Y-140415944D03*
X182833944Y-140415944D03*
X186931000Y-142113000D03*
D11*
X184531000Y-142113000D03*
D10*
X182131000Y-142113000D03*
X186228056Y-143810056D03*
X182833944Y-143810056D03*
X184531000Y-144513000D03*
%TD*%
D12*
%TO.C,H30*%
X149606000Y-133540500D03*
%TD*%
%TO.C,H12*%
X139446000Y-128778000D03*
%TD*%
%TO.C,H32*%
X178816000Y-133540500D03*
%TD*%
D13*
%TO.C,SW1*%
X187726100Y-97423100D03*
X187726100Y-94423100D03*
%TD*%
D14*
%TO.C,J4*%
X183346300Y-68739501D03*
X183346300Y-62959501D03*
D15*
X182846300Y-70169501D03*
D16*
X187026300Y-70169501D03*
D15*
X182846300Y-61529501D03*
D16*
X187026300Y-61529501D03*
%TD*%
D12*
%TO.C,H8*%
X139446000Y-89408000D03*
%TD*%
D10*
%TO.C,H3*%
X181991000Y-53988000D03*
X183688056Y-54690944D03*
X180293944Y-54690944D03*
X184391000Y-56388000D03*
D11*
X181991000Y-56388000D03*
D10*
X179591000Y-56388000D03*
X183688056Y-58085056D03*
X180293944Y-58085056D03*
X181991000Y-58788000D03*
%TD*%
D12*
%TO.C,H6*%
X139446000Y-69723000D03*
%TD*%
D17*
%TO.C,J8*%
X129921000Y-141274800D03*
D18*
X129921000Y-143814800D03*
X127381000Y-141274800D03*
X127381000Y-143814800D03*
X124841000Y-141274800D03*
X124841000Y-143814800D03*
X122301000Y-141274800D03*
X122301000Y-143814800D03*
X119761000Y-141274800D03*
X119761000Y-143814800D03*
%TD*%
D12*
%TO.C,H5*%
X110236000Y-69723000D03*
%TD*%
D17*
%TO.C,J7*%
X169291000Y-141274800D03*
D18*
X169291000Y-143814800D03*
X166751000Y-141274800D03*
X166751000Y-143814800D03*
X164211000Y-141274800D03*
X164211000Y-143814800D03*
X161671000Y-141274800D03*
X161671000Y-143814800D03*
X159131000Y-141274800D03*
X159131000Y-143814800D03*
%TD*%
D10*
%TO.C,H1*%
X108331000Y-53988000D03*
X110028056Y-54690944D03*
X106633944Y-54690944D03*
X110731000Y-56388000D03*
D11*
X108331000Y-56388000D03*
D10*
X105931000Y-56388000D03*
X110028056Y-58085056D03*
X106633944Y-58085056D03*
X108331000Y-58788000D03*
%TD*%
D12*
%TO.C,H29*%
X149606000Y-104330500D03*
%TD*%
%TO.C,H31*%
X178816000Y-104330500D03*
%TD*%
%TO.C,H10*%
X139446000Y-109093000D03*
%TD*%
D19*
%TO.C,J6*%
X119761000Y-57226200D03*
D18*
X119761000Y-54686200D03*
X122301000Y-57226200D03*
X122301000Y-54686200D03*
X124841000Y-57226200D03*
X124841000Y-54686200D03*
X127381000Y-57226200D03*
X127381000Y-54686200D03*
X129921000Y-57226200D03*
X129921000Y-54686200D03*
%TD*%
D19*
%TO.C,J5*%
X159131000Y-57226200D03*
D18*
X159131000Y-54686200D03*
X161671000Y-57226200D03*
X161671000Y-54686200D03*
X164211000Y-57226200D03*
X164211000Y-54686200D03*
X166751000Y-57226200D03*
X166751000Y-54686200D03*
X169291000Y-57226200D03*
X169291000Y-54686200D03*
%TD*%
D12*
%TO.C,H11*%
X110236000Y-128778000D03*
%TD*%
%TO.C,H7*%
X110236000Y-89408000D03*
%TD*%
D20*
%TO.C,R108*%
X159956000Y-121145300D03*
X158306000Y-121145300D03*
%TD*%
D21*
%TO.C,R118*%
X109411000Y-119672100D03*
X111061000Y-119672100D03*
%TD*%
D22*
%TO.C,J14*%
X152828500Y-83365500D03*
X155908500Y-83365500D03*
X152828501Y-82965500D03*
X155908499Y-82965500D03*
X152828500Y-82565500D03*
X155908500Y-82565500D03*
X152828500Y-82165500D03*
X155908500Y-82165500D03*
X152828500Y-81765499D03*
X155908500Y-81765499D03*
X152828500Y-81365500D03*
X155908500Y-81365500D03*
X152828500Y-80965500D03*
X155908500Y-80965500D03*
X152828500Y-80565500D03*
X155908500Y-80565500D03*
X152828500Y-80165501D03*
X155908500Y-80165501D03*
X152828500Y-79765500D03*
X155908500Y-79765500D03*
X152828500Y-79365500D03*
X155908500Y-79365500D03*
X152828500Y-78965499D03*
X155908500Y-78965499D03*
X152828500Y-78565500D03*
X155908500Y-78565500D03*
X152828500Y-78165500D03*
X155908500Y-78165500D03*
X152828500Y-77765500D03*
X155908500Y-77765500D03*
X152828500Y-77365501D03*
X155908500Y-77365501D03*
X152828500Y-76965500D03*
X155908500Y-76965500D03*
X152828500Y-76565500D03*
X155908500Y-76565500D03*
X152828501Y-76165500D03*
X155908499Y-76165500D03*
X152828500Y-75765500D03*
X155908500Y-75765500D03*
%TD*%
D20*
%TO.C,R107*%
X159956000Y-119672100D03*
X158306000Y-119672100D03*
%TD*%
D12*
%TO.C,H23*%
X134683500Y-104330500D03*
D23*
X134683500Y-101905500D03*
%TD*%
D12*
%TO.C,H27*%
X174053500Y-104330500D03*
D24*
X172338766Y-106045234D03*
%TD*%
D20*
%TO.C,R114*%
X140271000Y-121145300D03*
X138621000Y-121145300D03*
%TD*%
%TO.C,R102*%
X179641000Y-121145300D03*
X177991000Y-121145300D03*
%TD*%
%TO.C,R36*%
X138937500Y-57226200D03*
X137287500Y-57226200D03*
%TD*%
%TO.C,R77*%
X179641000Y-80302100D03*
X177991000Y-80302100D03*
%TD*%
D22*
%TO.C,J15*%
X133143500Y-83365500D03*
X136223500Y-83365500D03*
X133143501Y-82965500D03*
X136223499Y-82965500D03*
X133143500Y-82565500D03*
X136223500Y-82565500D03*
X133143500Y-82165500D03*
X136223500Y-82165500D03*
X133143500Y-81765499D03*
X136223500Y-81765499D03*
X133143500Y-81365500D03*
X136223500Y-81365500D03*
X133143500Y-80965500D03*
X136223500Y-80965500D03*
X133143500Y-80565500D03*
X136223500Y-80565500D03*
X133143500Y-80165501D03*
X136223500Y-80165501D03*
X133143500Y-79765500D03*
X136223500Y-79765500D03*
X133143500Y-79365500D03*
X136223500Y-79365500D03*
X133143500Y-78965499D03*
X136223500Y-78965499D03*
X133143500Y-78565500D03*
X136223500Y-78565500D03*
X133143500Y-78165500D03*
X136223500Y-78165500D03*
X133143500Y-77765500D03*
X136223500Y-77765500D03*
X133143500Y-77365501D03*
X136223500Y-77365501D03*
X133143500Y-76965500D03*
X136223500Y-76965500D03*
X133143500Y-76565500D03*
X136223500Y-76565500D03*
X133143501Y-76165500D03*
X136223499Y-76165500D03*
X133143500Y-75765500D03*
X136223500Y-75765500D03*
%TD*%
D20*
%TO.C,R87*%
X140271000Y-77355700D03*
X138621000Y-77355700D03*
%TD*%
%TO.C,R80*%
X159956000Y-75882500D03*
X158306000Y-75882500D03*
%TD*%
D12*
%TO.C,H19*%
X174053500Y-64960500D03*
D25*
X174053500Y-67385500D03*
%TD*%
D26*
%TO.C,D1*%
X187617100Y-78454501D03*
X187617100Y-82454501D03*
%TD*%
D20*
%TO.C,R106*%
X159956000Y-118198900D03*
X158306000Y-118198900D03*
%TD*%
D12*
%TO.C,H13*%
X114998500Y-64960500D03*
D25*
X114998500Y-67385500D03*
%TD*%
D27*
%TO.C,C2*%
X185254900Y-64899502D03*
X185254900Y-66799500D03*
%TD*%
D12*
%TO.C,H28*%
X174053500Y-133540500D03*
D24*
X172338766Y-135255234D03*
%TD*%
D20*
%TO.C,R74*%
X179641000Y-75882500D03*
X177991000Y-75882500D03*
%TD*%
%TO.C,R85*%
X159956000Y-83248500D03*
X158306000Y-83248500D03*
%TD*%
D21*
%TO.C,R39*%
X150114500Y-141058900D03*
X151764500Y-141058900D03*
%TD*%
D20*
%TO.C,R82*%
X159956000Y-78828900D03*
X158306000Y-78828900D03*
%TD*%
D12*
%TO.C,H24*%
X134683500Y-133540500D03*
D25*
X134683500Y-135965500D03*
%TD*%
D21*
%TO.C,R37*%
X137287500Y-54686201D03*
X138937500Y-54686201D03*
%TD*%
D22*
%TO.C,J18*%
X152828500Y-122735500D03*
X155908500Y-122735500D03*
X152828501Y-122335500D03*
X155908499Y-122335500D03*
X152828500Y-121935500D03*
X155908500Y-121935500D03*
X152828500Y-121535500D03*
X155908500Y-121535500D03*
X152828500Y-121135499D03*
X155908500Y-121135499D03*
X152828500Y-120735500D03*
X155908500Y-120735500D03*
X152828500Y-120335500D03*
X155908500Y-120335500D03*
X152828500Y-119935500D03*
X155908500Y-119935500D03*
X152828500Y-119535501D03*
X155908500Y-119535501D03*
X152828500Y-119135500D03*
X155908500Y-119135500D03*
X152828500Y-118735500D03*
X155908500Y-118735500D03*
X152828500Y-118335499D03*
X155908500Y-118335499D03*
X152828500Y-117935500D03*
X155908500Y-117935500D03*
X152828500Y-117535500D03*
X155908500Y-117535500D03*
X152828500Y-117135500D03*
X155908500Y-117135500D03*
X152828500Y-116735501D03*
X155908500Y-116735501D03*
X152828500Y-116335500D03*
X155908500Y-116335500D03*
X152828500Y-115935500D03*
X155908500Y-115935500D03*
X152828501Y-115535500D03*
X155908499Y-115535500D03*
X152828500Y-115135500D03*
X155908500Y-115135500D03*
%TD*%
D20*
%TO.C,R101*%
X179641000Y-119672100D03*
X177991000Y-119672100D03*
%TD*%
D22*
%TO.C,J20*%
X113458500Y-122735500D03*
X116538500Y-122735500D03*
X113458501Y-122335500D03*
X116538499Y-122335500D03*
X113458500Y-121935500D03*
X116538500Y-121935500D03*
X113458500Y-121535500D03*
X116538500Y-121535500D03*
X113458500Y-121135499D03*
X116538500Y-121135499D03*
X113458500Y-120735500D03*
X116538500Y-120735500D03*
X113458500Y-120335500D03*
X116538500Y-120335500D03*
X113458500Y-119935500D03*
X116538500Y-119935500D03*
X113458500Y-119535501D03*
X116538500Y-119535501D03*
X113458500Y-119135500D03*
X116538500Y-119135500D03*
X113458500Y-118735500D03*
X116538500Y-118735500D03*
X113458500Y-118335499D03*
X116538500Y-118335499D03*
X113458500Y-117935500D03*
X116538500Y-117935500D03*
X113458500Y-117535500D03*
X116538500Y-117535500D03*
X113458500Y-117135500D03*
X116538500Y-117135500D03*
X113458500Y-116735501D03*
X116538500Y-116735501D03*
X113458500Y-116335500D03*
X116538500Y-116335500D03*
X113458500Y-115935500D03*
X116538500Y-115935500D03*
X113458501Y-115535500D03*
X116538499Y-115535500D03*
X113458500Y-115135500D03*
X116538500Y-115135500D03*
%TD*%
D12*
%TO.C,H18*%
X154368500Y-94170500D03*
D25*
X154368500Y-96595500D03*
%TD*%
D12*
%TO.C,H22*%
X114998500Y-133540500D03*
D25*
X114998500Y-135965500D03*
%TD*%
D20*
%TO.C,R109*%
X159956000Y-122618500D03*
X158306000Y-122618500D03*
%TD*%
D21*
%TO.C,R119*%
X109411000Y-118198900D03*
X111061000Y-118198900D03*
%TD*%
D20*
%TO.C,R112*%
X140271000Y-118198900D03*
X138621000Y-118198900D03*
%TD*%
D21*
%TO.C,R120*%
X109411000Y-116725699D03*
X111061000Y-116725699D03*
%TD*%
D12*
%TO.C,H15*%
X134683500Y-64960500D03*
D25*
X134683500Y-67385500D03*
%TD*%
D21*
%TO.C,R92*%
X109411000Y-83248500D03*
X111061000Y-83248500D03*
%TD*%
D20*
%TO.C,R79*%
X179641000Y-83248500D03*
X177991000Y-83248500D03*
%TD*%
D21*
%TO.C,R94*%
X109411000Y-80302100D03*
X111061000Y-80302100D03*
%TD*%
D12*
%TO.C,H16*%
X134683500Y-94170500D03*
D25*
X134683500Y-96595500D03*
%TD*%
D21*
%TO.C,R121*%
X109411000Y-115252500D03*
X111061000Y-115252500D03*
%TD*%
D20*
%TO.C,R104*%
X159956000Y-115252500D03*
X158306000Y-115252500D03*
%TD*%
D22*
%TO.C,J16*%
X113458500Y-83365500D03*
X116538500Y-83365500D03*
X113458501Y-82965500D03*
X116538499Y-82965500D03*
X113458500Y-82565500D03*
X116538500Y-82565500D03*
X113458500Y-82165500D03*
X116538500Y-82165500D03*
X113458500Y-81765499D03*
X116538500Y-81765499D03*
X113458500Y-81365500D03*
X116538500Y-81365500D03*
X113458500Y-80965500D03*
X116538500Y-80965500D03*
X113458500Y-80565500D03*
X116538500Y-80565500D03*
X113458500Y-80165501D03*
X116538500Y-80165501D03*
X113458500Y-79765500D03*
X116538500Y-79765500D03*
X113458500Y-79365500D03*
X116538500Y-79365500D03*
X113458500Y-78965499D03*
X116538500Y-78965499D03*
X113458500Y-78565500D03*
X116538500Y-78565500D03*
X113458500Y-78165500D03*
X116538500Y-78165500D03*
X113458500Y-77765500D03*
X116538500Y-77765500D03*
X113458500Y-77365501D03*
X116538500Y-77365501D03*
X113458500Y-76965500D03*
X116538500Y-76965500D03*
X113458500Y-76565500D03*
X116538500Y-76565500D03*
X113458501Y-76165500D03*
X116538499Y-76165500D03*
X113458500Y-75765500D03*
X116538500Y-75765500D03*
%TD*%
D28*
%TO.C,C1*%
X184721500Y-78979499D03*
X184721500Y-81929501D03*
%TD*%
D20*
%TO.C,R88*%
X140271000Y-78828900D03*
X138621000Y-78828900D03*
%TD*%
D22*
%TO.C,J13*%
X172513500Y-83365500D03*
X175593500Y-83365500D03*
X172513501Y-82965500D03*
X175593499Y-82965500D03*
X172513500Y-82565500D03*
X175593500Y-82565500D03*
X172513500Y-82165500D03*
X175593500Y-82165500D03*
X172513500Y-81765499D03*
X175593500Y-81765499D03*
X172513500Y-81365500D03*
X175593500Y-81365500D03*
X172513500Y-80965500D03*
X175593500Y-80965500D03*
X172513500Y-80565500D03*
X175593500Y-80565500D03*
X172513500Y-80165501D03*
X175593500Y-80165501D03*
X172513500Y-79765500D03*
X175593500Y-79765500D03*
X172513500Y-79365500D03*
X175593500Y-79365500D03*
X172513500Y-78965499D03*
X175593500Y-78965499D03*
X172513500Y-78565500D03*
X175593500Y-78565500D03*
X172513500Y-78165500D03*
X175593500Y-78165500D03*
X172513500Y-77765500D03*
X175593500Y-77765500D03*
X172513500Y-77365501D03*
X175593500Y-77365501D03*
X172513500Y-76965500D03*
X175593500Y-76965500D03*
X172513500Y-76565500D03*
X175593500Y-76565500D03*
X172513501Y-76165500D03*
X175593499Y-76165500D03*
X172513500Y-75765500D03*
X175593500Y-75765500D03*
%TD*%
D20*
%TO.C,R99*%
X179641000Y-116745502D03*
X177991000Y-116745502D03*
%TD*%
%TO.C,R84*%
X159956000Y-81775300D03*
X158306000Y-81775300D03*
%TD*%
D22*
%TO.C,J19*%
X133143500Y-122735500D03*
X136223500Y-122735500D03*
X133143501Y-122335500D03*
X136223499Y-122335500D03*
X133143500Y-121935500D03*
X136223500Y-121935500D03*
X133143500Y-121535500D03*
X136223500Y-121535500D03*
X133143500Y-121135499D03*
X136223500Y-121135499D03*
X133143500Y-120735500D03*
X136223500Y-120735500D03*
X133143500Y-120335500D03*
X136223500Y-120335500D03*
X133143500Y-119935500D03*
X136223500Y-119935500D03*
X133143500Y-119535501D03*
X136223500Y-119535501D03*
X133143500Y-119135500D03*
X136223500Y-119135500D03*
X133143500Y-118735500D03*
X136223500Y-118735500D03*
X133143500Y-118335499D03*
X136223500Y-118335499D03*
X133143500Y-117935500D03*
X136223500Y-117935500D03*
X133143500Y-117535500D03*
X136223500Y-117535500D03*
X133143500Y-117135500D03*
X136223500Y-117135500D03*
X133143500Y-116735501D03*
X136223500Y-116735501D03*
X133143500Y-116335500D03*
X136223500Y-116335500D03*
X133143500Y-115935500D03*
X136223500Y-115935500D03*
X133143501Y-115535500D03*
X136223499Y-115535500D03*
X133143500Y-115135500D03*
X136223500Y-115135500D03*
%TD*%
D21*
%TO.C,R34*%
X149466800Y-55219600D03*
X151116800Y-55219600D03*
%TD*%
D20*
%TO.C,R76*%
X179641000Y-78828900D03*
X177991000Y-78828900D03*
%TD*%
%TO.C,R103*%
X179641000Y-122618500D03*
X177991000Y-122618500D03*
%TD*%
D12*
%TO.C,H20*%
X174053500Y-94170500D03*
D25*
X174053500Y-96595500D03*
%TD*%
D21*
%TO.C,R116*%
X109411000Y-122618500D03*
X111061000Y-122618500D03*
%TD*%
D20*
%TO.C,R86*%
X140271000Y-75882500D03*
X138621000Y-75882500D03*
%TD*%
%TO.C,R98*%
X179641000Y-115285502D03*
X177991000Y-115285502D03*
%TD*%
D21*
%TO.C,R38*%
X150114500Y-142532100D03*
X151764500Y-142532100D03*
%TD*%
D20*
%TO.C,R113*%
X140271000Y-119672100D03*
X138621000Y-119672100D03*
%TD*%
D21*
%TO.C,R96*%
X109411000Y-77355699D03*
X111061000Y-77355699D03*
%TD*%
D12*
%TO.C,H17*%
X154368500Y-64960500D03*
D25*
X154368500Y-67385500D03*
%TD*%
D20*
%TO.C,R105*%
X159956000Y-116725700D03*
X158306000Y-116725700D03*
%TD*%
%TO.C,R100*%
X179641000Y-118198900D03*
X177991000Y-118198900D03*
%TD*%
D12*
%TO.C,H21*%
X114998500Y-104330500D03*
D25*
X114998500Y-106755500D03*
%TD*%
D20*
%TO.C,R111*%
X140271000Y-116725700D03*
X138621000Y-116725700D03*
%TD*%
D12*
%TO.C,H26*%
X154368500Y-133540500D03*
D24*
X152653766Y-135255234D03*
%TD*%
D21*
%TO.C,R41*%
X137287500Y-142532100D03*
X138937500Y-142532100D03*
%TD*%
D22*
%TO.C,J17*%
X172513500Y-122735500D03*
X175593500Y-122735500D03*
X172513501Y-122335500D03*
X175593499Y-122335500D03*
X172513500Y-121935500D03*
X175593500Y-121935500D03*
X172513500Y-121535500D03*
X175593500Y-121535500D03*
X172513500Y-121135499D03*
X175593500Y-121135499D03*
X172513500Y-120735500D03*
X175593500Y-120735500D03*
X172513500Y-120335500D03*
X175593500Y-120335500D03*
X172513500Y-119935500D03*
X175593500Y-119935500D03*
X172513500Y-119535501D03*
X175593500Y-119535501D03*
X172513500Y-119135500D03*
X175593500Y-119135500D03*
X172513500Y-118735500D03*
X175593500Y-118735500D03*
X172513500Y-118335499D03*
X175593500Y-118335499D03*
X172513500Y-117935500D03*
X175593500Y-117935500D03*
X172513500Y-117535500D03*
X175593500Y-117535500D03*
X172513500Y-117135500D03*
X175593500Y-117135500D03*
X172513500Y-116735501D03*
X175593500Y-116735501D03*
X172513500Y-116335500D03*
X175593500Y-116335500D03*
X172513500Y-115935500D03*
X175593500Y-115935500D03*
X172513501Y-115535500D03*
X175593499Y-115535500D03*
X172513500Y-115135500D03*
X175593500Y-115135500D03*
%TD*%
D21*
%TO.C,R117*%
X109411000Y-121145301D03*
X111061000Y-121145301D03*
%TD*%
D20*
%TO.C,R83*%
X159956000Y-80302100D03*
X158306000Y-80302100D03*
%TD*%
%TO.C,R78*%
X179641000Y-81775300D03*
X177991000Y-81775300D03*
%TD*%
D21*
%TO.C,R97*%
X109411000Y-75882500D03*
X111061000Y-75882500D03*
%TD*%
%TO.C,R33*%
X149466800Y-53746400D03*
X151116800Y-53746400D03*
%TD*%
%TO.C,R95*%
X109411000Y-78828900D03*
X111061000Y-78828900D03*
%TD*%
D20*
%TO.C,R91*%
X140271000Y-83248500D03*
X138621000Y-83248500D03*
%TD*%
%TO.C,R81*%
X159956000Y-77355700D03*
X158306000Y-77355700D03*
%TD*%
D12*
%TO.C,H14*%
X114998500Y-94170500D03*
D25*
X114998500Y-96595500D03*
%TD*%
D20*
%TO.C,R90*%
X140271000Y-81775300D03*
X138621000Y-81775300D03*
%TD*%
%TO.C,R75*%
X179641000Y-77355700D03*
X177991000Y-77355700D03*
%TD*%
D12*
%TO.C,H25*%
X154368500Y-104330500D03*
D24*
X152653766Y-106045234D03*
%TD*%
D20*
%TO.C,R89*%
X140271000Y-80302100D03*
X138621000Y-80302100D03*
%TD*%
%TO.C,R115*%
X140271000Y-122618500D03*
X138621000Y-122618500D03*
%TD*%
D21*
%TO.C,R32*%
X149466800Y-58166000D03*
X151116800Y-58166000D03*
%TD*%
D20*
%TO.C,R40*%
X151764500Y-144005301D03*
X150114500Y-144005301D03*
%TD*%
%TO.C,R35*%
X151116800Y-56692800D03*
X149466800Y-56692800D03*
%TD*%
%TO.C,R110*%
X140271000Y-115252500D03*
X138621000Y-115252500D03*
%TD*%
D21*
%TO.C,R93*%
X109411000Y-81775301D03*
X111061000Y-81775301D03*
%TD*%
M02*
