%TF.GenerationSoftware,KiCad,Pcbnew,10.0.3*%
%TF.CreationDate,2026-05-19T15:58:13-04:00*%
%TF.ProjectId,EfficientBoard,45666669-6369-4656-9e74-426f6172642e,rev?*%
%TF.SameCoordinates,Original*%
%TF.FileFunction,Soldermask,Top*%
%TF.FilePolarity,Negative*%
%FSLAX46Y46*%
G04 Gerber Fmt 4.6, Leading zero omitted, Abs format (unit mm)*
G04 Created by KiCad (PCBNEW 10.0.3) date 2026-05-19 15:58:13*
%MOMM*%
%LPD*%
G01*
G04 APERTURE LIST*
G04 Aperture macros list*
%AMRoundRect*
0 Rectangle with rounded corners*
0 $1 Rounding radius*
0 $2 $3 $4 $5 $6 $7 $8 $9 X,Y pos of 4 corners*
0 Add a 4 corners polygon primitive as box body*
4,1,4,$2,$3,$4,$5,$6,$7,$8,$9,$2,$3,0*
0 Add four circle primitives for the rounded corners*
1,1,$1+$1,$2,$3*
1,1,$1+$1,$4,$5*
1,1,$1+$1,$6,$7*
1,1,$1+$1,$8,$9*
0 Add four rect primitives between the rounded corners*
20,1,$1+$1,$2,$3,$4,$5,0*
20,1,$1+$1,$4,$5,$6,$7,0*
20,1,$1+$1,$6,$7,$8,$9,0*
20,1,$1+$1,$8,$9,$2,$3,0*%
%AMFreePoly0*
4,1,108,-1.922481,2.957613,-1.594493,2.882752,-1.276950,2.771639,-0.973843,2.625670,-0.688986,2.446683,-0.425960,2.236926,-0.188074,1.999040,0.021683,1.736014,0.200670,1.451157,0.346639,1.148050,0.457752,0.830507,0.532613,0.502519,0.570280,0.168211,0.570280,-0.168211,0.532613,-0.502519,0.457752,-0.830507,0.346639,-1.148050,0.200670,-1.451157,0.021683,-1.736014,-0.188074,-1.999040,
-0.425960,-2.236926,-0.688986,-2.446683,-0.973843,-2.625670,-1.276950,-2.771639,-1.594493,-2.882752,-1.922481,-2.957613,-2.256789,-2.995280,-2.593211,-2.995280,-2.927519,-2.957613,-3.255507,-2.882752,-3.573050,-2.771639,-3.876157,-2.625670,-4.161014,-2.446683,-4.424040,-2.236926,-4.661926,-1.999040,-4.871683,-1.736014,-5.050670,-1.451157,-5.196639,-1.148050,-5.307752,-0.830507,-5.382613,-0.502519,
-5.420280,-0.168211,-5.420280,0.121255,-4.275000,0.121255,-4.275000,-0.121255,-4.243346,-0.361691,-4.180579,-0.595939,-4.087774,-0.819990,-3.966519,-1.030010,-3.818888,-1.222407,-3.647407,-1.393888,-3.455010,-1.541519,-3.244990,-1.662774,-3.020939,-1.755579,-2.786691,-1.818346,-2.546255,-1.850000,-2.303745,-1.850000,-2.063309,-1.818346,-1.829061,-1.755579,-1.605010,-1.662774,-1.394990,-1.541519,
-1.202593,-1.393888,-1.031112,-1.222407,-0.883481,-1.030010,-0.762226,-0.819990,-0.669421,-0.595939,-0.606654,-0.361691,-0.575000,-0.121255,-0.575000,0.121255,-0.606654,0.361691,-0.669421,0.595939,-0.762226,0.819990,-0.883481,1.030010,-1.031112,1.222407,-1.202593,1.393888,-1.394990,1.541519,-1.605010,1.662774,-1.829061,1.755579,-2.063309,1.818346,-2.303745,1.850000,-2.546255,1.850000,
-2.786691,1.818346,-3.020939,1.755579,-3.244990,1.662774,-3.455010,1.541519,-3.647407,1.393888,-3.818888,1.222407,-3.966519,1.030010,-4.087774,0.819990,-4.180579,0.595939,-4.243346,0.361691,-4.275000,0.121255,-5.420280,0.121255,-5.420280,0.168211,-5.382613,0.502519,-5.307752,0.830507,-5.196639,1.148050,-5.050670,1.451157,-4.871683,1.736014,-4.661926,1.999040,-4.424040,2.236926,
-4.161014,2.446683,-3.876157,2.625670,-3.573050,2.771639,-3.255507,2.882752,-2.927519,2.957613,-2.593211,2.995280,-2.256789,2.995280,-1.922481,2.957613,-1.922481,2.957613,$1*%
G04 Aperture macros list end*
%ADD10RoundRect,0.200000X0.275000X-0.200000X0.275000X0.200000X-0.275000X0.200000X-0.275000X-0.200000X0*%
%ADD11RoundRect,0.200000X-0.275000X0.200000X-0.275000X-0.200000X0.275000X-0.200000X0.275000X0.200000X0*%
%ADD12RoundRect,0.062500X-0.062500X0.350000X-0.062500X-0.350000X0.062500X-0.350000X0.062500X0.350000X0*%
%ADD13R,2.000000X1.200000*%
%ADD14C,0.800000*%
%ADD15C,6.400000*%
%ADD16FreePoly0,0.000000*%
%ADD17RoundRect,0.225000X0.250000X-0.225000X0.250000X0.225000X-0.250000X0.225000X-0.250000X-0.225000X0*%
%ADD18RoundRect,0.087500X0.425000X0.087500X-0.425000X0.087500X-0.425000X-0.087500X0.425000X-0.087500X0*%
%ADD19RoundRect,0.050000X-0.050000X-0.300000X0.050000X-0.300000X0.050000X0.300000X-0.050000X0.300000X0*%
%ADD20RoundRect,0.200000X0.200000X0.275000X-0.200000X0.275000X-0.200000X-0.275000X0.200000X-0.275000X0*%
%ADD21C,1.500000*%
%ADD22FreePoly0,45.000000*%
%ADD23RoundRect,0.250000X0.375000X0.850000X-0.375000X0.850000X-0.375000X-0.850000X0.375000X-0.850000X0*%
%ADD24R,0.800000X1.000000*%
%ADD25R,1.500000X0.700000*%
%ADD26RoundRect,0.218750X-0.218750X-0.256250X0.218750X-0.256250X0.218750X0.256250X-0.218750X0.256250X0*%
%ADD27RoundRect,0.150000X0.425000X-0.150000X0.425000X0.150000X-0.425000X0.150000X-0.425000X-0.150000X0*%
%ADD28RoundRect,0.075000X0.500000X-0.075000X0.500000X0.075000X-0.500000X0.075000X-0.500000X-0.075000X0*%
%ADD29O,2.100000X1.000000*%
%ADD30O,1.800000X1.000000*%
%ADD31RoundRect,0.225000X-0.250000X0.225000X-0.250000X-0.225000X0.250000X-0.225000X0.250000X0.225000X0*%
%ADD32RoundRect,0.225000X-0.225000X-0.250000X0.225000X-0.250000X0.225000X0.250000X-0.225000X0.250000X0*%
%ADD33RoundRect,0.250000X-0.600000X0.600000X-0.600000X-0.600000X0.600000X-0.600000X0.600000X0.600000X0*%
%ADD34C,1.700000*%
%ADD35RoundRect,0.200000X-0.200000X-0.275000X0.200000X-0.275000X0.200000X0.275000X-0.200000X0.275000X0*%
%ADD36RoundRect,0.112500X-0.112500X0.462500X-0.112500X-0.462500X0.112500X-0.462500X0.112500X0.462500X0*%
%ADD37RoundRect,0.250000X0.475000X-0.300000X0.475000X0.300000X-0.475000X0.300000X-0.475000X-0.300000X0*%
%ADD38RoundRect,0.250000X1.200000X-0.425000X1.200000X0.425000X-1.200000X0.425000X-1.200000X-0.425000X0*%
%ADD39RoundRect,0.250000X0.600000X-0.600000X0.600000X0.600000X-0.600000X0.600000X-0.600000X-0.600000X0*%
%ADD40RoundRect,0.050000X0.050000X0.300000X-0.050000X0.300000X-0.050000X-0.300000X0.050000X-0.300000X0*%
G04 APERTURE END LIST*
D10*
%TO.C,R61*%
X128524000Y-94995500D03*
X128524000Y-93345500D03*
%TD*%
%TO.C,R24*%
X168338500Y-87527900D03*
X168338500Y-85877900D03*
%TD*%
%TO.C,R70*%
X124104400Y-134365500D03*
X124104400Y-132715500D03*
%TD*%
D11*
%TO.C,R63*%
X127050800Y-103505500D03*
X127050800Y-105155500D03*
%TD*%
D10*
%TO.C,R26*%
X163537900Y-91337900D03*
X163537900Y-89687900D03*
%TD*%
D12*
%TO.C,U4*%
X160575500Y-67558000D03*
X160075499Y-67558000D03*
X159575500Y-67558000D03*
X159075501Y-67558000D03*
X158575500Y-67558000D03*
X158575500Y-69983000D03*
X159075501Y-69983000D03*
X159575500Y-69983000D03*
X160075499Y-69983000D03*
X160575500Y-69983000D03*
D13*
X159575500Y-68770500D03*
%TD*%
D14*
%TO.C,H2*%
X104521000Y-139713000D03*
X106218056Y-140415944D03*
X102823944Y-140415944D03*
X106921000Y-142113000D03*
D15*
X104521000Y-142113000D03*
D14*
X102121000Y-142113000D03*
X106218056Y-143810056D03*
X102823944Y-143810056D03*
X104521000Y-144513000D03*
%TD*%
D10*
%TO.C,R56*%
X121158000Y-94995500D03*
X121158000Y-93345500D03*
%TD*%
D16*
%TO.C,H9*%
X112661000Y-109093000D03*
%TD*%
D14*
%TO.C,H4*%
X184531000Y-139713000D03*
X186228056Y-140415944D03*
X182833944Y-140415944D03*
X186931000Y-142113000D03*
D15*
X184531000Y-142113000D03*
D14*
X182131000Y-142113000D03*
X186228056Y-143810056D03*
X182833944Y-143810056D03*
X184531000Y-144513000D03*
%TD*%
D17*
%TO.C,C3*%
X178092100Y-73838101D03*
X178092100Y-72288101D03*
%TD*%
D11*
%TO.C,R27*%
X162013900Y-85877900D03*
X162013900Y-87527900D03*
%TD*%
%TO.C,R55*%
X121158000Y-64135500D03*
X121158000Y-65785500D03*
%TD*%
D18*
%TO.C,U1*%
X176592800Y-73713100D03*
X176592800Y-73063100D03*
X176592800Y-72413100D03*
X174917800Y-72413100D03*
X174917800Y-73063100D03*
X174917800Y-73713100D03*
%TD*%
D19*
%TO.C,J12*%
X121041000Y-130318000D03*
X121041000Y-127238000D03*
X121441000Y-130317999D03*
X121441000Y-127238001D03*
X121841000Y-130318000D03*
X121841000Y-127238000D03*
X122241000Y-130318000D03*
X122241000Y-127238000D03*
X122641001Y-130318000D03*
X122641001Y-127238000D03*
X123041000Y-130318000D03*
X123041000Y-127238000D03*
X123441000Y-130318000D03*
X123441000Y-127238000D03*
X123841000Y-130318000D03*
X123841000Y-127238000D03*
X124240999Y-130318000D03*
X124240999Y-127238000D03*
X124641000Y-130318000D03*
X124641000Y-127238000D03*
X125041000Y-130318000D03*
X125041000Y-127238000D03*
X125441001Y-130318000D03*
X125441001Y-127238000D03*
X125841000Y-130318000D03*
X125841000Y-127238000D03*
X126241000Y-130318000D03*
X126241000Y-127238000D03*
X126641000Y-130318000D03*
X126641000Y-127238000D03*
X127040999Y-130318000D03*
X127040999Y-127238000D03*
X127441000Y-130318000D03*
X127441000Y-127238000D03*
X127841000Y-130318000D03*
X127841000Y-127238000D03*
X128241000Y-130317999D03*
X128241000Y-127238001D03*
X128641000Y-130318000D03*
X128641000Y-127238000D03*
%TD*%
D20*
%TO.C,R43*%
X188073300Y-113220500D03*
X186423300Y-113220500D03*
%TD*%
D21*
%TO.C,TP3*%
X164769800Y-86702900D03*
%TD*%
%TO.C,TP5*%
X155498800Y-75412600D03*
%TD*%
D22*
%TO.C,H30*%
X151320734Y-131825766D03*
%TD*%
D16*
%TO.C,H12*%
X141871000Y-128778000D03*
%TD*%
D10*
%TO.C,R12*%
X169811700Y-65785500D03*
X169811700Y-64135500D03*
%TD*%
D20*
%TO.C,R45*%
X188073300Y-117030500D03*
X186423300Y-117030500D03*
%TD*%
D23*
%TO.C,L1*%
X169921500Y-72428100D03*
X167771500Y-72428100D03*
%TD*%
D10*
%TO.C,R57*%
X122631200Y-94995500D03*
X122631200Y-93345500D03*
%TD*%
D17*
%TO.C,C17*%
X155727400Y-91287900D03*
X155727400Y-89737900D03*
%TD*%
D22*
%TO.C,H32*%
X180530734Y-131825766D03*
%TD*%
D19*
%TO.C,J11*%
X121041000Y-110633000D03*
X121041000Y-107553000D03*
X121441000Y-110632999D03*
X121441000Y-107553001D03*
X121841000Y-110633000D03*
X121841000Y-107553000D03*
X122241000Y-110633000D03*
X122241000Y-107553000D03*
X122641001Y-110633000D03*
X122641001Y-107553000D03*
X123041000Y-110633000D03*
X123041000Y-107553000D03*
X123441000Y-110633000D03*
X123441000Y-107553000D03*
X123841000Y-110633000D03*
X123841000Y-107553000D03*
X124240999Y-110633000D03*
X124240999Y-107553000D03*
X124641000Y-110633000D03*
X124641000Y-107553000D03*
X125041000Y-110633000D03*
X125041000Y-107553000D03*
X125441001Y-110633000D03*
X125441001Y-107553000D03*
X125841000Y-110633000D03*
X125841000Y-107553000D03*
X126241000Y-110633000D03*
X126241000Y-107553000D03*
X126641000Y-110633000D03*
X126641000Y-107553000D03*
X127040999Y-110633000D03*
X127040999Y-107553000D03*
X127441000Y-110633000D03*
X127441000Y-107553000D03*
X127841000Y-110633000D03*
X127841000Y-107553000D03*
X128241000Y-110632999D03*
X128241000Y-107553001D03*
X128641000Y-110633000D03*
X128641000Y-107553000D03*
%TD*%
D10*
%TO.C,R3*%
X180314600Y-64096900D03*
X180314600Y-62446900D03*
%TD*%
D24*
%TO.C,SW1*%
X186616100Y-99573100D03*
X188826100Y-99573100D03*
X186616100Y-92273100D03*
X188826100Y-92273100D03*
D25*
X185966100Y-98173100D03*
X185966100Y-95173100D03*
X185966100Y-93673100D03*
%TD*%
D10*
%TO.C,R73*%
X128524000Y-134365501D03*
X128524000Y-132715501D03*
%TD*%
D26*
%TO.C,D2*%
X186854999Y-86982301D03*
X188430001Y-86982301D03*
%TD*%
D27*
%TO.C,J4*%
X182271300Y-69049501D03*
X182271300Y-68249501D03*
D28*
X182271301Y-67099501D03*
X182271300Y-66099501D03*
X182271300Y-65599501D03*
X182271301Y-64599501D03*
D27*
X182271300Y-63449501D03*
X182271300Y-62649501D03*
X182271300Y-62649501D03*
X182271300Y-63449501D03*
D28*
X182271300Y-64099501D03*
X182271300Y-65099501D03*
X182271300Y-66599501D03*
X182271300Y-67599501D03*
D27*
X182271300Y-68249501D03*
X182271300Y-69049501D03*
D29*
X182846300Y-70169501D03*
D30*
X187026300Y-70169501D03*
D29*
X182846300Y-61529501D03*
D30*
X187026300Y-61529501D03*
%TD*%
D12*
%TO.C,U3*%
X169846500Y-67558000D03*
X169346499Y-67558000D03*
X168846500Y-67558000D03*
X168346501Y-67558000D03*
X167846500Y-67558000D03*
X167846500Y-69983000D03*
X168346501Y-69983000D03*
X168846500Y-69983000D03*
X169346499Y-69983000D03*
X169846500Y-69983000D03*
D13*
X168846500Y-68770500D03*
%TD*%
D11*
%TO.C,R54*%
X122631200Y-64135500D03*
X122631200Y-65785500D03*
%TD*%
D17*
%TO.C,C9*%
X161963100Y-69545500D03*
X161963100Y-67995500D03*
%TD*%
D10*
%TO.C,R13*%
X168338500Y-65785500D03*
X168338500Y-64135500D03*
%TD*%
D11*
%TO.C,R9*%
X184061100Y-96609400D03*
X184061100Y-98259400D03*
%TD*%
D31*
%TO.C,C18*%
X166325978Y-79536723D03*
X166325978Y-81086723D03*
%TD*%
D10*
%TO.C,R71*%
X125577600Y-134365500D03*
X125577600Y-132715500D03*
%TD*%
D20*
%TO.C,R44*%
X186422300Y-117030500D03*
X184772300Y-117030500D03*
%TD*%
D17*
%TO.C,C15*%
X161963100Y-91287900D03*
X161963100Y-89737900D03*
%TD*%
D18*
%TO.C,U2*%
X176592800Y-69293501D03*
X176592800Y-68643501D03*
X176592800Y-67993501D03*
X174917800Y-67993501D03*
X174917800Y-68643501D03*
X174917800Y-69293501D03*
%TD*%
D11*
%TO.C,R21*%
X155727400Y-70904600D03*
X155727400Y-72554600D03*
%TD*%
D16*
%TO.C,H8*%
X141871000Y-89408000D03*
%TD*%
D32*
%TO.C,C5*%
X173583600Y-70853301D03*
X175133600Y-70853301D03*
%TD*%
D20*
%TO.C,R10*%
X188467500Y-104533701D03*
X186817500Y-104533701D03*
%TD*%
D17*
%TO.C,C10*%
X157187900Y-69545501D03*
X157187900Y-67995501D03*
%TD*%
%TO.C,C12*%
X171234100Y-91287900D03*
X171234100Y-89737900D03*
%TD*%
D14*
%TO.C,H3*%
X181991000Y-53988000D03*
X183688056Y-54690944D03*
X180293944Y-54690944D03*
X184391000Y-56388000D03*
D15*
X181991000Y-56388000D03*
D14*
X179591000Y-56388000D03*
X183688056Y-58085056D03*
X180293944Y-58085056D03*
X181991000Y-58788000D03*
%TD*%
D17*
%TO.C,C4*%
X178092100Y-69418500D03*
X178092100Y-67868500D03*
%TD*%
D21*
%TO.C,TP4*%
X155498800Y-86702900D03*
%TD*%
D26*
%TO.C,D4*%
X186854999Y-101587300D03*
X188430001Y-101587300D03*
%TD*%
D20*
%TO.C,R42*%
X186422300Y-113220501D03*
X184772300Y-113220501D03*
%TD*%
D17*
%TO.C,C16*%
X157187900Y-91287900D03*
X157187900Y-89737900D03*
%TD*%
D20*
%TO.C,R6*%
X170344600Y-77419200D03*
X168694600Y-77419200D03*
%TD*%
D17*
%TO.C,C7*%
X166458900Y-69545501D03*
X166458900Y-67995501D03*
%TD*%
D16*
%TO.C,H6*%
X141871000Y-69723000D03*
%TD*%
D12*
%TO.C,U6*%
X160575500Y-89300400D03*
X160075499Y-89300400D03*
X159575500Y-89300400D03*
X159075501Y-89300400D03*
X158575500Y-89300400D03*
X158575500Y-91725400D03*
X159075501Y-91725400D03*
X159575500Y-91725400D03*
X160075499Y-91725400D03*
X160575500Y-91725400D03*
D13*
X159575500Y-90512900D03*
%TD*%
D11*
%TO.C,R7*%
X173583600Y-73470000D03*
X173583600Y-75120000D03*
%TD*%
D33*
%TO.C,J8*%
X129921000Y-141274800D03*
D34*
X129921000Y-143814800D03*
X127381000Y-141274800D03*
X127381000Y-143814800D03*
X124841000Y-141274800D03*
X124841000Y-143814800D03*
X122301000Y-141274800D03*
X122301000Y-143814800D03*
X119761000Y-141274800D03*
X119761000Y-143814800D03*
%TD*%
D26*
%TO.C,D3*%
X186854999Y-72377300D03*
X188430001Y-72377300D03*
%TD*%
D35*
%TO.C,R4*%
X186817500Y-73850501D03*
X188467500Y-73850501D03*
%TD*%
D31*
%TO.C,C19*%
X161220578Y-79536723D03*
X161220578Y-81086723D03*
%TD*%
D11*
%TO.C,R15*%
X164998400Y-70904600D03*
X164998400Y-72554600D03*
%TD*%
D16*
%TO.C,H5*%
X112661000Y-69723000D03*
%TD*%
D11*
%TO.C,R62*%
X128524000Y-103505500D03*
X128524000Y-105155500D03*
%TD*%
D20*
%TO.C,R47*%
X188073300Y-120840500D03*
X186423300Y-120840500D03*
%TD*%
D10*
%TO.C,R18*%
X160540700Y-65785500D03*
X160540700Y-64135500D03*
%TD*%
D35*
%TO.C,R11*%
X186817501Y-103060501D03*
X188467501Y-103060501D03*
%TD*%
D10*
%TO.C,R14*%
X166865300Y-65785501D03*
X166865300Y-64135501D03*
%TD*%
D33*
%TO.C,J7*%
X169291000Y-141274800D03*
D34*
X169291000Y-143814800D03*
X166751000Y-141274800D03*
X166751000Y-143814800D03*
X164211000Y-141274800D03*
X164211000Y-143814800D03*
X161671000Y-141274800D03*
X161671000Y-143814800D03*
X159131000Y-141274800D03*
X159131000Y-143814800D03*
%TD*%
D11*
%TO.C,R53*%
X124104400Y-64135500D03*
X124104400Y-65785500D03*
%TD*%
D36*
%TO.C,U7*%
X169840979Y-79061723D03*
X169190978Y-79061723D03*
X168540978Y-79061723D03*
X167890977Y-79061723D03*
X167890977Y-81561723D03*
X168540978Y-81561723D03*
X169190978Y-81561723D03*
X169840979Y-81561723D03*
%TD*%
D23*
%TO.C,L4*%
X160650500Y-94170501D03*
X158500500Y-94170501D03*
%TD*%
D20*
%TO.C,R5*%
X178168299Y-70853301D03*
X176518299Y-70853301D03*
%TD*%
D11*
%TO.C,R65*%
X124104400Y-103505500D03*
X124104400Y-105155500D03*
%TD*%
D10*
%TO.C,R60*%
X127050800Y-94995500D03*
X127050800Y-93345500D03*
%TD*%
D19*
%TO.C,J10*%
X121041000Y-90948000D03*
X121041000Y-87868000D03*
X121441000Y-90947999D03*
X121441000Y-87868001D03*
X121841000Y-90948000D03*
X121841000Y-87868000D03*
X122241000Y-90948000D03*
X122241000Y-87868000D03*
X122641001Y-90948000D03*
X122641001Y-87868000D03*
X123041000Y-90948000D03*
X123041000Y-87868000D03*
X123441000Y-90948000D03*
X123441000Y-87868000D03*
X123841000Y-90948000D03*
X123841000Y-87868000D03*
X124240999Y-90948000D03*
X124240999Y-87868000D03*
X124641000Y-90948000D03*
X124641000Y-87868000D03*
X125041000Y-90948000D03*
X125041000Y-87868000D03*
X125441001Y-90948000D03*
X125441001Y-87868000D03*
X125841000Y-90948000D03*
X125841000Y-87868000D03*
X126241000Y-90948000D03*
X126241000Y-87868000D03*
X126641000Y-90948000D03*
X126641000Y-87868000D03*
X127040999Y-90948000D03*
X127040999Y-87868000D03*
X127441000Y-90948000D03*
X127441000Y-87868000D03*
X127841000Y-90948000D03*
X127841000Y-87868000D03*
X128241000Y-90947999D03*
X128241000Y-87868001D03*
X128641000Y-90948000D03*
X128641000Y-87868000D03*
%TD*%
D21*
%TO.C,TP1*%
X167741600Y-75412600D03*
%TD*%
D20*
%TO.C,R46*%
X186422300Y-120840500D03*
X184772300Y-120840500D03*
%TD*%
D14*
%TO.C,H1*%
X108331000Y-53988000D03*
X110028056Y-54690944D03*
X106633944Y-54690944D03*
X110731000Y-56388000D03*
D15*
X108331000Y-56388000D03*
D14*
X105931000Y-56388000D03*
X110028056Y-58085056D03*
X106633944Y-58085056D03*
X108331000Y-58788000D03*
%TD*%
D10*
%TO.C,R23*%
X169811700Y-87527901D03*
X169811700Y-85877901D03*
%TD*%
D17*
%TO.C,C6*%
X171234100Y-69545500D03*
X171234100Y-67995500D03*
%TD*%
D21*
%TO.C,TP2*%
X161620200Y-75412600D03*
%TD*%
D37*
%TO.C,J3*%
X181767900Y-81454500D03*
X181767900Y-79454500D03*
D38*
X187762899Y-84349500D03*
X187762899Y-76559500D03*
%TD*%
D11*
%TO.C,R22*%
X171284900Y-85877900D03*
X171284900Y-87527900D03*
%TD*%
D23*
%TO.C,L3*%
X169921500Y-94170501D03*
X167771500Y-94170501D03*
%TD*%
D17*
%TO.C,C8*%
X164998400Y-69545500D03*
X164998400Y-67995500D03*
%TD*%
D35*
%TO.C,R1*%
X186817501Y-88455501D03*
X188467501Y-88455501D03*
%TD*%
D19*
%TO.C,J1*%
X157410999Y-105870500D03*
X157410999Y-102790500D03*
X157811000Y-105870500D03*
X157811000Y-102790500D03*
X158211000Y-105870500D03*
X158211000Y-102790500D03*
X158611000Y-105870499D03*
X158611000Y-102790501D03*
X159011000Y-105870500D03*
X159011000Y-102790500D03*
X159411000Y-105870500D03*
X159411000Y-102790500D03*
X159811000Y-105870500D03*
X159811000Y-102790500D03*
X160210999Y-105870500D03*
X160210999Y-102790500D03*
X160611000Y-105870500D03*
X160611000Y-102790500D03*
X161011000Y-105870500D03*
X161011000Y-102790500D03*
X161411000Y-105870499D03*
X161411000Y-102790501D03*
X161811000Y-105870500D03*
X161811000Y-102790500D03*
X162211000Y-105870500D03*
X162211000Y-102790500D03*
X162611000Y-105870500D03*
X162611000Y-102790500D03*
X163010999Y-105870500D03*
X163010999Y-102790500D03*
X163411000Y-105870500D03*
X163411000Y-102790500D03*
X163811000Y-105870500D03*
X163811000Y-102790500D03*
X164211000Y-105870499D03*
X164211000Y-102790501D03*
X164611000Y-105870500D03*
X164611000Y-102790500D03*
X165011000Y-105870500D03*
X165011000Y-102790500D03*
X165411001Y-105870500D03*
X165411001Y-102790500D03*
X165811000Y-105870500D03*
X165811000Y-102790500D03*
X166211000Y-105870500D03*
X166211000Y-102790500D03*
X166611000Y-105870500D03*
X166611000Y-102790500D03*
X167011000Y-105870499D03*
X167011000Y-102790501D03*
X167411000Y-105870500D03*
X167411000Y-102790500D03*
X167811000Y-105870500D03*
X167811000Y-102790500D03*
X168211001Y-105870500D03*
X168211001Y-102790500D03*
X168611000Y-105870500D03*
X168611000Y-102790500D03*
X169011000Y-105870500D03*
X169011000Y-102790500D03*
X169411000Y-105870500D03*
X169411000Y-102790500D03*
X169811000Y-105870499D03*
X169811000Y-102790501D03*
X170211000Y-105870500D03*
X170211000Y-102790500D03*
X170611000Y-105870500D03*
X170611000Y-102790500D03*
X171011001Y-105870500D03*
X171011001Y-102790500D03*
%TD*%
D22*
%TO.C,H29*%
X151320734Y-102615766D03*
%TD*%
D11*
%TO.C,R51*%
X127050800Y-64135500D03*
X127050800Y-65785500D03*
%TD*%
D10*
%TO.C,R19*%
X159067500Y-65785500D03*
X159067500Y-64135500D03*
%TD*%
D23*
%TO.C,L2*%
X160650500Y-72428100D03*
X158500500Y-72428100D03*
%TD*%
D22*
%TO.C,H31*%
X180530734Y-102615766D03*
%TD*%
D10*
%TO.C,R72*%
X127050800Y-134365501D03*
X127050800Y-132715501D03*
%TD*%
%TO.C,R30*%
X157594300Y-87527900D03*
X157594300Y-85877900D03*
%TD*%
%TO.C,R69*%
X122631200Y-134365502D03*
X122631200Y-132715502D03*
%TD*%
D19*
%TO.C,J9*%
X121041000Y-71263000D03*
X121041000Y-68183000D03*
X121441000Y-71262999D03*
X121441000Y-68183001D03*
X121841000Y-71263000D03*
X121841000Y-68183000D03*
X122241000Y-71263000D03*
X122241000Y-68183000D03*
X122641001Y-71263000D03*
X122641001Y-68183000D03*
X123041000Y-71263000D03*
X123041000Y-68183000D03*
X123441000Y-71263000D03*
X123441000Y-68183000D03*
X123841000Y-71263000D03*
X123841000Y-68183000D03*
X124240999Y-71263000D03*
X124240999Y-68183000D03*
X124641000Y-71263000D03*
X124641000Y-68183000D03*
X125041000Y-71263000D03*
X125041000Y-68183000D03*
X125441001Y-71263000D03*
X125441001Y-68183000D03*
X125841000Y-71263000D03*
X125841000Y-68183000D03*
X126241000Y-71263000D03*
X126241000Y-68183000D03*
X126641000Y-71263000D03*
X126641000Y-68183000D03*
X127040999Y-71263000D03*
X127040999Y-68183000D03*
X127441000Y-71263000D03*
X127441000Y-68183000D03*
X127841000Y-71263000D03*
X127841000Y-68183000D03*
X128241000Y-71262999D03*
X128241000Y-68183001D03*
X128641000Y-71263000D03*
X128641000Y-68183000D03*
%TD*%
D36*
%TO.C,U8*%
X164735579Y-79061723D03*
X164085578Y-79061723D03*
X163435578Y-79061723D03*
X162785577Y-79061723D03*
X162785577Y-81561723D03*
X163435578Y-81561723D03*
X164085578Y-81561723D03*
X164735579Y-81561723D03*
%TD*%
D10*
%TO.C,R25*%
X166865300Y-87527900D03*
X166865300Y-85877900D03*
%TD*%
%TO.C,R58*%
X124104400Y-94995500D03*
X124104400Y-93345500D03*
%TD*%
D11*
%TO.C,R8*%
X184061100Y-93612200D03*
X184061100Y-95262200D03*
%TD*%
D20*
%TO.C,R49*%
X188073300Y-124650501D03*
X186423300Y-124650501D03*
%TD*%
D16*
%TO.C,H10*%
X141871000Y-109093000D03*
%TD*%
D17*
%TO.C,C11*%
X155727400Y-69545500D03*
X155727400Y-67995500D03*
%TD*%
D39*
%TO.C,J6*%
X119761000Y-57226200D03*
D34*
X119761000Y-54686200D03*
X122301000Y-57226200D03*
X122301000Y-54686200D03*
X124841000Y-57226200D03*
X124841000Y-54686200D03*
X127381000Y-57226200D03*
X127381000Y-54686200D03*
X129921000Y-57226200D03*
X129921000Y-54686200D03*
%TD*%
D17*
%TO.C,C14*%
X166458900Y-91287900D03*
X166458900Y-89737900D03*
%TD*%
D10*
%TO.C,R28*%
X160540700Y-87527901D03*
X160540700Y-85877901D03*
%TD*%
%TO.C,R68*%
X121158000Y-134365502D03*
X121158000Y-132715502D03*
%TD*%
%TO.C,R59*%
X125577600Y-94995500D03*
X125577600Y-93345500D03*
%TD*%
D39*
%TO.C,J5*%
X159131000Y-57226200D03*
D34*
X159131000Y-54686200D03*
X161671000Y-57226200D03*
X161671000Y-54686200D03*
X164211000Y-57226200D03*
X164211000Y-54686200D03*
X166751000Y-57226200D03*
X166751000Y-54686200D03*
X169291000Y-57226200D03*
X169291000Y-54686200D03*
%TD*%
D11*
%TO.C,R50*%
X128524000Y-64135500D03*
X128524000Y-65785500D03*
%TD*%
%TO.C,R67*%
X121158000Y-103505500D03*
X121158000Y-105155500D03*
%TD*%
%TO.C,R64*%
X125577600Y-103505500D03*
X125577600Y-105155500D03*
%TD*%
D16*
%TO.C,H11*%
X112661000Y-128778000D03*
%TD*%
D20*
%TO.C,R16*%
X165239200Y-77419200D03*
X163589200Y-77419200D03*
%TD*%
D11*
%TO.C,R52*%
X125577600Y-64135500D03*
X125577600Y-65785500D03*
%TD*%
D10*
%TO.C,R31*%
X154266900Y-91337900D03*
X154266900Y-89687900D03*
%TD*%
D20*
%TO.C,R48*%
X186422300Y-124650501D03*
X184772300Y-124650501D03*
%TD*%
D12*
%TO.C,U5*%
X169846500Y-89300400D03*
X169346499Y-89300400D03*
X168846500Y-89300400D03*
X168346501Y-89300400D03*
X167846500Y-89300400D03*
X167846500Y-91725400D03*
X168346501Y-91725400D03*
X168846500Y-91725400D03*
X169346499Y-91725400D03*
X169846500Y-91725400D03*
D13*
X168846500Y-90512900D03*
%TD*%
D10*
%TO.C,R29*%
X159067500Y-87527900D03*
X159067500Y-85877900D03*
%TD*%
D40*
%TO.C,J2*%
X171011001Y-132000500D03*
X171011001Y-135080500D03*
X170611000Y-132000500D03*
X170611000Y-135080500D03*
X170211000Y-132000500D03*
X170211000Y-135080500D03*
X169811000Y-132000501D03*
X169811000Y-135080499D03*
X169411000Y-132000500D03*
X169411000Y-135080500D03*
X169011000Y-132000500D03*
X169011000Y-135080500D03*
X168611000Y-132000500D03*
X168611000Y-135080500D03*
X168211001Y-132000500D03*
X168211001Y-135080500D03*
X167811000Y-132000500D03*
X167811000Y-135080500D03*
X167411000Y-132000500D03*
X167411000Y-135080500D03*
X167011000Y-132000501D03*
X167011000Y-135080499D03*
X166611000Y-132000500D03*
X166611000Y-135080500D03*
X166211000Y-132000500D03*
X166211000Y-135080500D03*
X165811000Y-132000500D03*
X165811000Y-135080500D03*
X165411001Y-132000500D03*
X165411001Y-135080500D03*
X165011000Y-132000500D03*
X165011000Y-135080500D03*
X164611000Y-132000500D03*
X164611000Y-135080500D03*
X164211000Y-132000501D03*
X164211000Y-135080499D03*
X163811000Y-132000500D03*
X163811000Y-135080500D03*
X163411000Y-132000500D03*
X163411000Y-135080500D03*
X163010999Y-132000500D03*
X163010999Y-135080500D03*
X162611000Y-132000500D03*
X162611000Y-135080500D03*
X162211000Y-132000500D03*
X162211000Y-135080500D03*
X161811000Y-132000500D03*
X161811000Y-135080500D03*
X161411000Y-132000501D03*
X161411000Y-135080499D03*
X161011000Y-132000500D03*
X161011000Y-135080500D03*
X160611000Y-132000500D03*
X160611000Y-135080500D03*
X160210999Y-132000500D03*
X160210999Y-135080500D03*
X159811000Y-132000500D03*
X159811000Y-135080500D03*
X159411000Y-132000500D03*
X159411000Y-135080500D03*
X159011000Y-132000500D03*
X159011000Y-135080500D03*
X158611000Y-132000501D03*
X158611000Y-135080499D03*
X158211000Y-132000500D03*
X158211000Y-135080500D03*
X157811000Y-132000500D03*
X157811000Y-135080500D03*
X157410999Y-132000500D03*
X157410999Y-135080500D03*
%TD*%
D16*
%TO.C,H7*%
X112661000Y-89408000D03*
%TD*%
D11*
%TO.C,R2*%
X180314600Y-67106800D03*
X180314600Y-68756800D03*
%TD*%
%TO.C,R66*%
X122631200Y-103505500D03*
X122631200Y-105155500D03*
%TD*%
D17*
%TO.C,C13*%
X164998400Y-91287900D03*
X164998400Y-89737900D03*
%TD*%
D10*
%TO.C,R20*%
X157594300Y-65785501D03*
X157594300Y-64135501D03*
%TD*%
D11*
%TO.C,R17*%
X162013900Y-64135500D03*
X162013900Y-65785500D03*
%TD*%
M02*
