M48
; DRILL file KiCad 10.0.3 date 2026-05-19T16:16:39
; FORMAT={-:-/ absolute / inch / decimal}
; #@! TF.CreationDate,2026-05-19T16:16:39-04:00
; #@! TF.GenerationSoftware,Kicad,Pcbnew,10.0.3
; #@! TF.FileFunction,Plated,1,2,PTH
FMAT,2
INCH
; #@! TA.AperFunction,Plated,PTH,ViaDrill
T1C0.0120
; #@! TA.AperFunction,Plated,PTH,ComponentDrill
T2C0.0236
; #@! TA.AperFunction,Plated,PTH,ComponentDrill
T3C0.0394
; #@! TA.AperFunction,Plated,PTH,ComponentDrill
T4C0.1063
%
G90
G05
T1
X5.536Y-4.5425
X5.5675Y-3.65
X5.5683Y-4.213
X5.6195Y-4.932
X5.6709Y-5.0654
X5.7195Y-4.226
X5.7195Y-4.284
X5.7215Y-3.9295
X5.7215Y-4.027
X5.7215Y-4.168
X5.768Y-4.5425
X5.7825Y-4.027
X5.7825Y-4.168
X5.7855Y-3.65
X5.7862Y-3.775
X5.7862Y-3.825
X5.7862Y-3.875
X5.8314Y-4.2693
X5.8337Y-4.4245
X5.8515Y-4.932
X5.9024Y-4.1912
X5.9029Y-5.0654
X5.9055Y-3.4745
X5.9174Y-4.06
X5.9254Y-4.245
X5.9484Y-4.06
X5.951Y-3.9355
X5.972Y-4.117
X5.972Y-4.173
X5.9794Y-4.06
X5.98Y-3.5832
X5.981Y-4.3635
X6.0Y-4.145
X6.0Y-4.5425
X6.009Y-3.9355
X6.028Y-4.117
X6.028Y-4.173
X6.0835Y-4.932
X6.0945Y-3.4745
X6.1349Y-5.0654
X6.145Y-3.9355
X6.168Y-4.379
X6.168Y-4.348
X6.2115Y-4.341
X6.2135Y-4.028
X6.2135Y-4.199
X6.232Y-4.5425
X6.2745Y-4.028
X6.2745Y-4.199
X6.275Y-3.986
X6.2926Y-3.902
X6.3155Y-4.932
X6.327Y-4.424
X6.329Y-3.986
X6.329Y-4.028
X6.3294Y-3.4794
X6.3775Y-3.346
X6.435Y-5.0605
X6.4396Y-3.901
X6.443Y-4.05
X6.498Y-4.569
X6.533Y-4.569
X6.566Y-4.569
X6.5988Y-4.15
X6.5988Y-4.25
X6.626Y-4.62
X6.6883Y-4.087
X7.0709Y-4.0329
T3
X5.0Y-3.5
X5.0Y-3.6
X5.0Y-3.7
X5.0Y-3.8
X5.0Y-3.9
X5.0Y-4.4
X5.0Y-4.5
X5.0Y-4.6
X5.0Y-4.7
X5.0Y-4.8
X5.1Y-3.5
X5.1Y-3.6
X5.1Y-3.7
X5.1Y-3.8
X5.1Y-3.9
X5.1Y-4.4
X5.1Y-4.5
X5.1Y-4.6
X5.1Y-4.7
X5.1Y-4.8
X5.495Y-3.446
X5.495Y-3.546
X5.595Y-3.446
X5.595Y-3.546
X6.505Y-4.754
X6.505Y-4.854
X6.9Y-3.5
X6.9Y-3.6
X6.9Y-3.7
X6.9Y-3.8
X6.9Y-3.9
X6.9Y-4.4
X6.9Y-4.5
X6.9Y-4.6
X6.9Y-4.7
X6.9Y-4.8
X7.0Y-3.5
X7.0Y-3.6
X7.0Y-3.7
X7.0Y-3.8
X7.0Y-3.9
X7.0Y-4.4
X7.0Y-4.5
X7.0Y-4.6
X7.0Y-4.7
X7.0Y-4.8
T4
X5.375Y-3.275
X5.375Y-5.025
X6.625Y-3.275
X6.625Y-5.025
T2
G00X5.8299Y-3.217
M15
G01X5.8299Y-3.1855
M16
G05
G00X5.8299Y-3.3875
M15
G01X5.8299Y-3.3442
M16
G05
G00X6.1701Y-3.217
M15
G01X6.1701Y-3.1855
M16
G05
G00X6.1701Y-3.3875
M15
G01X6.1701Y-3.3442
M16
G05
M30
