%TF.GenerationSoftware,KiCad,Pcbnew,10.0.3*%
%TF.CreationDate,2026-05-19T16:16:39-04:00*%
%TF.ProjectId,EfficientProgrammer,45666669-6369-4656-9e74-50726f677261,v1.0*%
%TF.SameCoordinates,Original*%
%TF.FileFunction,Copper,L2,Bot*%
%TF.FilePolarity,Positive*%
%FSLAX46Y46*%
G04 Gerber Fmt 4.6, Leading zero omitted, Abs format (unit mm)*
G04 Created by KiCad (PCBNEW 10.0.3) date 2026-05-19 16:16:39*
%MOMM*%
%LPD*%
G01*
G04 APERTURE LIST*
G04 Aperture macros list*
%AMRoundRect*
0 Rectangle with rounded corners*
0 $1 Rounding radius*
0 $2 $3 $4 $5 $6 $7 $8 $9 X,Y pos of 4 corners*
0 Add a 4 corners polygon primitive as box body*
4,1,4,$2,$3,$4,$5,$6,$7,$8,$9,$2,$3,0*
0 Add four circle primitives for the rounded corners*
1,1,$1+$1,$2,$3*
1,1,$1+$1,$4,$5*
1,1,$1+$1,$6,$7*
1,1,$1+$1,$8,$9*
0 Add four rect primitives between the rounded corners*
20,1,$1+$1,$2,$3,$4,$5,0*
20,1,$1+$1,$4,$5,$6,$7,0*
20,1,$1+$1,$6,$7,$8,$9,0*
20,1,$1+$1,$8,$9,$2,$3,0*%
G04 Aperture macros list end*
%TA.AperFunction,ComponentPad*%
%ADD10O,1.000000X2.100000*%
%TD*%
%TA.AperFunction,ComponentPad*%
%ADD11O,1.000000X1.800000*%
%TD*%
%TA.AperFunction,ComponentPad*%
%ADD12C,4.700000*%
%TD*%
%TA.AperFunction,ComponentPad*%
%ADD13R,1.700000X1.700000*%
%TD*%
%TA.AperFunction,ComponentPad*%
%ADD14C,1.700000*%
%TD*%
%TA.AperFunction,ComponentPad*%
%ADD15RoundRect,0.250000X0.600000X0.600000X-0.600000X0.600000X-0.600000X-0.600000X0.600000X-0.600000X0*%
%TD*%
%TA.AperFunction,ConnectorPad*%
%ADD16C,0.787400*%
%TD*%
%TA.AperFunction,ComponentPad*%
%ADD17RoundRect,0.250000X-0.600000X-0.600000X0.600000X-0.600000X0.600000X0.600000X-0.600000X0.600000X0*%
%TD*%
%TA.AperFunction,ViaPad*%
%ADD18C,0.609600*%
%TD*%
%TA.AperFunction,Conductor*%
%ADD19C,0.609600*%
%TD*%
%TA.AperFunction,Conductor*%
%ADD20C,0.203200*%
%TD*%
G04 APERTURE END LIST*
D10*
%TO.P,J1,SH,SHIELD_SH*%
%TO.N,GND*%
X156720000Y-85492000D03*
D11*
X156720000Y-81312000D03*
D10*
X148080000Y-85492000D03*
D11*
X148080000Y-81312000D03*
%TD*%
D12*
%TO.P,H4,1,1_1*%
%TO.N,GND*%
X168275000Y-127635000D03*
%TD*%
D13*
%TO.P,J7,1,Pin_1_1*%
%TO.N,Net-(J4-Pin_10)*%
X139573000Y-90068400D03*
D14*
%TO.P,J7,2,Pin_2_2*%
%TO.N,GND*%
X139573000Y-87528400D03*
%TO.P,J7,3,Pin_3_3*%
%TO.N,Net-(J4-Pin_10)*%
X142113000Y-90068400D03*
%TO.P,J7,4,Pin_4_4*%
%TO.N,JTAG_CTRL*%
X142113000Y-87528400D03*
%TD*%
D12*
%TO.P,H3,1,1_1*%
%TO.N,GND*%
X136525000Y-127635000D03*
%TD*%
%TO.P,H2,1,1_1*%
%TO.N,GND*%
X136525000Y-83185000D03*
%TD*%
D13*
%TO.P,J8,1,Pin_1_1*%
%TO.N,+1V8_MSP*%
X165227000Y-120751600D03*
D14*
%TO.P,J8,2,Pin_2_2*%
%TO.N,+1V8*%
X165227000Y-123291600D03*
%TD*%
D12*
%TO.P,H1,1,1_1*%
%TO.N,GND*%
X168275000Y-83185000D03*
%TD*%
D15*
%TO.P,J2,1,Pin_1_1*%
%TO.N,M_TDO*%
X177800000Y-111760000D03*
D14*
%TO.P,J2,2,Pin_2_2*%
%TO.N,unconnected-(J2-Pin_2-Pad2)*%
X175260000Y-111760000D03*
%TO.P,J2,3,Pin_3_3*%
%TO.N,M_TDI*%
X177800000Y-114300000D03*
%TO.P,J2,4,Pin_4_4*%
%TO.N,+1V8_MSP*%
X175260000Y-114300000D03*
%TO.P,J2,5,Pin_5_5*%
%TO.N,M_TMS*%
X177800000Y-116839999D03*
%TO.P,J2,6,Pin_6_6*%
%TO.N,unconnected-(J2-Pin_6-Pad6)*%
X175260000Y-116840000D03*
%TO.P,J2,7,Pin_7_7*%
%TO.N,M_TCK*%
X177800000Y-119380000D03*
%TO.P,J2,8,Pin_8_8*%
%TO.N,M_TEST*%
X175260000Y-119380000D03*
%TO.P,J2,9,Pin_9_9*%
%TO.N,GND*%
X177800000Y-121920000D03*
%TO.P,J2,10,Pin_10_10*%
%TO.N,M_RST*%
X175260000Y-121920000D03*
%TD*%
D16*
%TO.P,J6,1*%
%TO.N,+1V8*%
X166624000Y-102870000D03*
%TO.P,J6,2*%
%TO.N,/RP2040/SWDIO*%
X166624000Y-104140000D03*
%TO.P,J6,3*%
%TO.N,GND*%
X166624000Y-105410000D03*
%TO.P,J6,4*%
%TO.N,/RP2040/SWCLK*%
X166624000Y-106680000D03*
%TO.P,J6,5*%
%TO.N,GND*%
X166624000Y-107950000D03*
%TO.P,J6,6*%
%TO.N,unconnected-(J6-Pad6)*%
X165354000Y-107950000D03*
%TO.P,J6,7*%
%TO.N,unconnected-(J6-Pad7)*%
X165354000Y-106680000D03*
%TO.P,J6,8*%
%TO.N,unconnected-(J6-Pad8)*%
X165354000Y-105410000D03*
%TO.P,J6,9*%
%TO.N,unconnected-(J6-Pad9)*%
X165354000Y-104140000D03*
%TO.P,J6,10*%
%TO.N,/RP2040/RUN*%
X165354000Y-102870000D03*
%TD*%
D15*
%TO.P,J3,1,Pin_1_1*%
%TO.N,+1V8_E1*%
X177800000Y-88900000D03*
D14*
%TO.P,J3,2,Pin_2_2*%
%TO.N,JTAG_TMS*%
X175260000Y-88900000D03*
%TO.P,J3,3,Pin_3_3*%
%TO.N,GND*%
X177800000Y-91440000D03*
%TO.P,J3,4,Pin_4_4*%
%TO.N,JTAG_TCK*%
X175260000Y-91440000D03*
%TO.P,J3,5,Pin_5_5*%
%TO.N,GND*%
X177800000Y-93979999D03*
%TO.P,J3,6,Pin_6_6*%
%TO.N,JTAG_TDO*%
X175260000Y-93980000D03*
%TO.P,J3,7,Pin_7_7*%
%TO.N,JTAG_CTRL*%
X177800000Y-96520000D03*
%TO.P,J3,8,Pin_8_8*%
%TO.N,JTAG_TDI*%
X175260000Y-96520000D03*
%TO.P,J3,9,Pin_9_9*%
%TO.N,JTAG_TRSTN*%
X177800000Y-99060000D03*
%TO.P,J3,10,Pin_10_10*%
%TO.N,~{E1_RST}*%
X175260000Y-99060000D03*
%TD*%
D17*
%TO.P,J5,1,Pin_1_1*%
%TO.N,E1_UART_RX*%
X127000000Y-121920000D03*
D14*
%TO.P,J5,2,Pin_2_2*%
%TO.N,E1_UART_TX*%
X129540000Y-121920000D03*
%TO.P,J5,3,Pin_3_3*%
%TO.N,INA_SDA*%
X127000000Y-119380000D03*
%TO.P,J5,4,Pin_4_4*%
%TO.N,INA_SCL*%
X129540000Y-119380000D03*
%TO.P,J5,5,Pin_5_5*%
%TO.N,GND*%
X127000000Y-116840001D03*
%TO.P,J5,6,Pin_6_6*%
X129540000Y-116840000D03*
%TO.P,J5,7,Pin_7_7*%
%TO.N,E1_AON5*%
X127000000Y-114300000D03*
%TO.P,J5,8,Pin_8_8*%
%TO.N,E1_AON4*%
X129540000Y-114300000D03*
%TO.P,J5,9,Pin_9_9*%
%TO.N,GND*%
X127000000Y-111760000D03*
%TO.P,J5,10,Pin_10_10*%
X129540000Y-111760000D03*
%TD*%
D17*
%TO.P,J4,1,Pin_1_1*%
%TO.N,PRG_SPI_MISO*%
X127000000Y-99060000D03*
D14*
%TO.P,J4,2,Pin_2_2*%
%TO.N,unconnected-(J4-Pin_2-Pad2)*%
X129540000Y-99060000D03*
%TO.P,J4,3,Pin_3_3*%
%TO.N,PRG_SPI_SCK*%
X127000000Y-96520000D03*
%TO.P,J4,4,Pin_4_4*%
%TO.N,PRG_SPI_MOSI*%
X129540000Y-96520000D03*
%TO.P,J4,5,Pin_5_5*%
%TO.N,~{E1_RST}*%
X127000000Y-93980001D03*
%TO.P,J4,6,Pin_6_6*%
%TO.N,PRG_SPI_CS*%
X129540000Y-93980000D03*
%TO.P,J4,7,Pin_7_7*%
%TO.N,BOOT_MODE0*%
X127000000Y-91440000D03*
%TO.P,J4,8,Pin_8_8*%
%TO.N,BOOT_MODE1*%
X129540000Y-91440000D03*
%TO.P,J4,9,Pin_9_9*%
%TO.N,BOOT_MODE2*%
X127000000Y-88900000D03*
%TO.P,J4,10,Pin_10_10*%
%TO.N,Net-(J4-Pin_10)*%
X129540000Y-88900000D03*
%TD*%
D18*
%TO.N,+1V8*%
X145275800Y-107340400D03*
X151917400Y-110832600D03*
X152400000Y-115380000D03*
X151155400Y-99962000D03*
X141414000Y-92710000D03*
X146507200Y-115380000D03*
X156083000Y-99962000D03*
X146875800Y-102285800D03*
X157822600Y-102311200D03*
X146952000Y-92710000D03*
X146875800Y-105867200D03*
X148175400Y-112382600D03*
X160705800Y-112369600D03*
X145275800Y-108813600D03*
X158292800Y-115380000D03*
X157822600Y-106654600D03*
X140614400Y-115380000D03*
X159831000Y-99110800D03*
%TO.N,GND*%
X159385000Y-101244400D03*
X160756600Y-101244400D03*
X145325800Y-102285800D03*
X151688800Y-104571800D03*
X145325800Y-105867200D03*
X152400000Y-105283000D03*
X145325800Y-99809600D03*
X159372600Y-102311200D03*
X151688800Y-105994200D03*
X153111200Y-104571800D03*
X153111200Y-105994200D03*
X160756600Y-102311200D03*
X141436000Y-107010000D03*
X167610000Y-107950000D03*
X159372600Y-106654600D03*
X167610000Y-105410000D03*
%TO.N,/RP2040/RUN*%
X157772600Y-110261400D03*
X163652200Y-102870000D03*
X169884000Y-103810000D03*
%TO.N,BOOT_MODE1*%
X165938200Y-116052600D03*
X149933900Y-128661200D03*
%TO.N,VBUS*%
X154800000Y-88252000D03*
X150000000Y-88252006D03*
X151892000Y-91013700D03*
%TO.N,M_RST*%
X168300400Y-117348000D03*
X149920451Y-106457058D03*
%TO.N,/RP2040/PROG_LED*%
X148117315Y-108440047D03*
X160766800Y-88376800D03*
%TO.N,~{E1_RST}*%
X150504651Y-107823000D03*
%TO.N,/RP2040/SWCLK*%
X156667158Y-111226602D03*
%TO.N,/RP2040/SWDIO*%
X156667594Y-110439200D03*
%TO.N,BOOT_MODE2*%
X144041100Y-128661200D03*
X165049200Y-116052600D03*
%TO.N,BOOT_MODE0*%
X155826700Y-128661200D03*
X166776400Y-116052600D03*
%TO.N,JTAG_CTRL*%
X163449000Y-128536200D03*
X179601376Y-102436176D03*
%TO.N,+3V3*%
X163564800Y-99085400D03*
X148628600Y-125272800D03*
X161989000Y-84988400D03*
X154521400Y-125272800D03*
X152628600Y-99962000D03*
X142735800Y-125272800D03*
X160414200Y-125272800D03*
%TO.N,/RP2040/QSPI_SD3*%
X146970500Y-95885000D03*
X151876434Y-103124000D03*
%TO.N,/RP2040/QSPI_SCLK*%
X146970500Y-97155000D03*
X151089031Y-103124000D03*
%TO.N,/RP2040/QSPI_SD0*%
X150301628Y-103124000D03*
X146970500Y-98425000D03*
%TD*%
%TO.N,GND*%
D19*
X141436000Y-106304000D02*
X141872800Y-105867200D01*
X145325800Y-99809600D02*
X145325800Y-102285800D01*
D20*
X167610000Y-105410000D02*
X166674800Y-105410000D01*
D19*
X159372600Y-106654600D02*
X159372600Y-106159000D01*
D20*
X167610000Y-107950000D02*
X166674800Y-107950000D01*
D19*
X141872800Y-105867200D02*
X145325800Y-105867200D01*
X141436000Y-107010000D02*
X141436000Y-106304000D01*
%TO.N,/RP2040/RUN*%
D20*
X163652200Y-108127800D02*
X162941000Y-108839000D01*
X163652200Y-102133400D02*
X165633400Y-100152200D01*
X163652200Y-102870000D02*
X163652200Y-102133400D01*
X159766000Y-108839000D02*
X158343600Y-110261400D01*
X158343600Y-110261400D02*
X157772600Y-110261400D01*
X163652200Y-102870000D02*
X163652200Y-108127800D01*
X165633400Y-100152200D02*
X169037000Y-100152200D01*
X163652200Y-102870000D02*
X165404800Y-102870000D01*
X169037000Y-100152200D02*
X169884000Y-100999200D01*
X169884000Y-100999200D02*
X169884000Y-103810000D01*
X162941000Y-108839000D02*
X159766000Y-108839000D01*
%TO.N,BOOT_MODE1*%
X161594800Y-118541800D02*
X162229800Y-117906800D01*
X140614400Y-122021600D02*
X141833600Y-120802400D01*
X149174200Y-110464600D02*
X138734800Y-110464600D01*
X126161800Y-90170000D02*
X128270000Y-90170000D01*
X138734800Y-110464600D02*
X137566400Y-109296200D01*
X137566400Y-105003600D02*
X136728200Y-104165400D01*
X153949400Y-109702600D02*
X149936200Y-109702600D01*
X148780700Y-127508000D02*
X141706600Y-127508000D01*
X164769800Y-111836200D02*
X162687000Y-111836200D01*
X155829000Y-113055400D02*
X154686000Y-111912400D01*
X141706600Y-127508000D02*
X140614400Y-126415800D01*
X165557200Y-112623600D02*
X164769800Y-111836200D01*
X162687000Y-111836200D02*
X161747200Y-110896400D01*
X160909000Y-120802400D02*
X161594800Y-120116600D01*
X165938200Y-117246400D02*
X165938200Y-116052600D01*
X161594800Y-120116600D02*
X161594800Y-118541800D01*
X125323600Y-97104200D02*
X125323600Y-91008200D01*
X149936200Y-109702600D02*
X149174200Y-110464600D01*
X137566400Y-109296200D02*
X137566400Y-105003600D01*
X128270000Y-90170000D02*
X129540000Y-91440000D01*
X131953000Y-104165400D02*
X130733800Y-102946200D01*
X141833600Y-120802400D02*
X160909000Y-120802400D01*
X154686000Y-111912400D02*
X154686000Y-110439200D01*
X136728200Y-104165400D02*
X131953000Y-104165400D01*
X165557200Y-115671600D02*
X165557200Y-112623600D01*
X161747200Y-110896400D02*
X160655000Y-110896400D01*
X140614400Y-126415800D02*
X140614400Y-122021600D01*
X160655000Y-110896400D02*
X158496000Y-113055400D01*
X162229800Y-117906800D02*
X165277800Y-117906800D01*
X165938200Y-116052600D02*
X165557200Y-115671600D01*
X158496000Y-113055400D02*
X155829000Y-113055400D01*
X165277800Y-117906800D02*
X165938200Y-117246400D01*
X154686000Y-110439200D02*
X153949400Y-109702600D01*
X130733800Y-98399600D02*
X130124200Y-97790000D01*
X126009400Y-97790000D02*
X125323600Y-97104200D01*
X130733800Y-102946200D02*
X130733800Y-98399600D01*
X125323600Y-91008200D02*
X126161800Y-90170000D01*
X130124200Y-97790000D02*
X126009400Y-97790000D01*
X149933900Y-128661200D02*
X148780700Y-127508000D01*
%TO.N,VBUS*%
D19*
X151028400Y-88252006D02*
X151892000Y-89115606D01*
X151511000Y-88252000D02*
X151510994Y-88252006D01*
X150000006Y-88252000D02*
X151511000Y-88252000D01*
X151510994Y-88252006D02*
X150000000Y-88252006D01*
X150000000Y-88252006D02*
X150000006Y-88252000D01*
X151511000Y-88252000D02*
X154800000Y-88252000D01*
X151892000Y-89115606D02*
X151892000Y-91013700D01*
X150000000Y-88252006D02*
X151028400Y-88252006D01*
%TO.N,M_RST*%
D20*
X166928800Y-114681000D02*
X166446200Y-114198400D01*
X155498800Y-110134400D02*
X154254200Y-108889800D01*
X150736300Y-108889800D02*
X149920451Y-108073951D01*
X163017200Y-111023400D02*
X162077400Y-110083600D01*
X166446200Y-112268000D02*
X165201600Y-111023400D01*
X149920451Y-108073951D02*
X149920451Y-106457058D01*
X168300400Y-115125500D02*
X167855900Y-114681000D01*
X156133800Y-112242600D02*
X155498800Y-111607600D01*
X155498800Y-111607600D02*
X155498800Y-110134400D01*
X165201600Y-111023400D02*
X163017200Y-111023400D01*
X168300400Y-117348000D02*
X168300400Y-115125500D01*
X158191200Y-112242600D02*
X156133800Y-112242600D01*
X154254200Y-108889800D02*
X150736300Y-108889800D01*
X162077400Y-110083600D02*
X160350200Y-110083600D01*
X166446200Y-114198400D02*
X166446200Y-112268000D01*
X160350200Y-110083600D02*
X158191200Y-112242600D01*
X167855900Y-114681000D02*
X166928800Y-114681000D01*
%TO.N,/RP2040/PROG_LED*%
X145186400Y-93573600D02*
X143941800Y-94818200D01*
X144526000Y-103936800D02*
X147447000Y-103936800D01*
X159308800Y-93573600D02*
X145186400Y-93573600D01*
X147447000Y-103936800D02*
X148117315Y-104607115D01*
X159994600Y-92887800D02*
X159308800Y-93573600D01*
X148117315Y-104607115D02*
X148117315Y-108440047D01*
X160766800Y-88376800D02*
X159994600Y-89149000D01*
X143941800Y-103352600D02*
X144526000Y-103936800D01*
X159994600Y-89149000D02*
X159994600Y-92887800D01*
X143941800Y-94818200D02*
X143941800Y-103352600D01*
%TO.N,~{E1_RST}*%
X138379200Y-108991400D02*
X138379200Y-104648000D01*
X151114251Y-108432600D02*
X150504651Y-107823000D01*
X130810000Y-92710000D02*
X128270001Y-92710000D01*
X150545800Y-107823000D02*
X150520400Y-107797600D01*
X175260000Y-99060000D02*
X169621200Y-99060000D01*
X165430200Y-99669600D02*
X163068000Y-102031800D01*
X158292800Y-109651800D02*
X155676600Y-109651800D01*
X163068000Y-107924600D02*
X162610800Y-108381800D01*
X159562800Y-108381800D02*
X158292800Y-109651800D01*
X169621200Y-99060000D02*
X169011600Y-99669600D01*
X150504651Y-107823000D02*
X150545800Y-107823000D01*
X154457400Y-108432600D02*
X151114251Y-108432600D01*
X128270001Y-92710000D02*
X127000000Y-93980001D01*
X132384800Y-103352600D02*
X131597400Y-102565200D01*
X149326600Y-106070400D02*
X149326600Y-109194600D01*
X131597400Y-102565200D02*
X131597400Y-93497400D01*
X162610800Y-108381800D02*
X159562800Y-108381800D01*
X131597400Y-93497400D02*
X130810000Y-92710000D01*
X169011600Y-99669600D02*
X165430200Y-99669600D01*
X150520400Y-106095800D02*
X150266400Y-105841800D01*
X149555200Y-105841800D02*
X149326600Y-106070400D01*
X137083800Y-103352600D02*
X132384800Y-103352600D01*
X163068000Y-102031800D02*
X163068000Y-107924600D01*
X139039600Y-109651800D02*
X138379200Y-108991400D01*
X155676600Y-109651800D02*
X154457400Y-108432600D01*
X148869400Y-109651800D02*
X139039600Y-109651800D01*
X138379200Y-104648000D02*
X137083800Y-103352600D01*
X149326600Y-109194600D02*
X148869400Y-109651800D01*
X150266400Y-105841800D02*
X149555200Y-105841800D01*
X150520400Y-107797600D02*
X150520400Y-106095800D01*
%TO.N,/RP2040/SWCLK*%
X162407600Y-109270800D02*
X163347400Y-110210600D01*
X167817800Y-106680000D02*
X166674800Y-106680000D01*
X168402000Y-107264200D02*
X167817800Y-106680000D01*
X158013398Y-111226602D02*
X159969200Y-109270800D01*
X159969200Y-109270800D02*
X162407600Y-109270800D01*
X156667158Y-111226602D02*
X158013398Y-111226602D01*
X163347400Y-110210600D02*
X167589200Y-110210600D01*
X167589200Y-110210600D02*
X168402000Y-109397800D01*
X168402000Y-109397800D02*
X168402000Y-107264200D01*
%TO.N,/RP2040/SWDIO*%
X155930600Y-110718600D02*
X155930600Y-111429800D01*
X160147000Y-109677200D02*
X162229800Y-109677200D01*
X162229800Y-109677200D02*
X163169600Y-110617000D01*
X163169600Y-110617000D02*
X167779700Y-110617000D01*
X155930600Y-111429800D02*
X156311600Y-111810800D01*
X156311600Y-111810800D02*
X158013400Y-111810800D01*
X158013400Y-111810800D02*
X160147000Y-109677200D01*
X167779700Y-110617000D02*
X168808400Y-109588300D01*
X156667594Y-110439200D02*
X156210000Y-110439200D01*
X168808400Y-109588300D02*
X168808400Y-104775000D01*
X156210000Y-110439200D02*
X155930600Y-110718600D01*
X168173400Y-104140000D02*
X166674800Y-104140000D01*
X168808400Y-104775000D02*
X168173400Y-104140000D01*
%TO.N,BOOT_MODE2*%
X140182600Y-121818400D02*
X141630400Y-120370600D01*
X165049200Y-116052600D02*
X165074600Y-116027200D01*
X158648400Y-113461800D02*
X155676600Y-113461800D01*
X154279600Y-112064800D02*
X154279600Y-110591600D01*
X153797000Y-110109000D02*
X150088600Y-110109000D01*
X125857000Y-100507800D02*
X124891800Y-99542600D01*
X161163000Y-119938800D02*
X161163000Y-118364000D01*
X130302000Y-101168200D02*
X129641600Y-100507800D01*
X165125400Y-117475000D02*
X165531800Y-117068600D01*
X131724400Y-104571800D02*
X130302000Y-103149400D01*
X144041100Y-128661200D02*
X143319700Y-127939800D01*
X165074600Y-112763300D02*
X164553900Y-112242600D01*
X129641600Y-100507800D02*
X125857000Y-100507800D01*
X143319700Y-127939800D02*
X141528800Y-127939800D01*
X140182600Y-126593600D02*
X140182600Y-121818400D01*
X124891800Y-99542600D02*
X124891800Y-89636600D01*
X141528800Y-127939800D02*
X140182600Y-126593600D01*
X155676600Y-113461800D02*
X154279600Y-112064800D01*
X165531800Y-117068600D02*
X165531800Y-116535200D01*
X165531800Y-116535200D02*
X165049200Y-116052600D01*
X141630400Y-120370600D02*
X160731200Y-120370600D01*
X161594800Y-111302800D02*
X160807400Y-111302800D01*
X154279600Y-110591600D02*
X153797000Y-110109000D01*
X138582400Y-110871000D02*
X137160000Y-109448600D01*
X162052000Y-117475000D02*
X165125400Y-117475000D01*
X161163000Y-118364000D02*
X162052000Y-117475000D01*
X130302000Y-103149400D02*
X130302000Y-101168200D01*
X160731200Y-120370600D02*
X161163000Y-119938800D01*
X124891800Y-89636600D02*
X125628400Y-88900000D01*
X164553900Y-112242600D02*
X162534600Y-112242600D01*
X137160000Y-109448600D02*
X137160000Y-105168700D01*
X136563100Y-104571800D02*
X131724400Y-104571800D01*
X137160000Y-105168700D02*
X136563100Y-104571800D01*
X150088600Y-110109000D02*
X149326600Y-110871000D01*
X162534600Y-112242600D02*
X161594800Y-111302800D01*
X160807400Y-111302800D02*
X158648400Y-113461800D01*
X165074600Y-116027200D02*
X165074600Y-112763300D01*
X125628400Y-88900000D02*
X127000000Y-88900000D01*
X149326600Y-110871000D02*
X138582400Y-110871000D01*
%TO.N,BOOT_MODE0*%
X155092400Y-111760000D02*
X155092400Y-110286800D01*
X149021800Y-110058200D02*
X138887200Y-110058200D01*
X149783800Y-109296200D02*
X149021800Y-110058200D01*
X142036800Y-121259600D02*
X161112200Y-121259600D01*
X165481000Y-118364000D02*
X166395400Y-117449600D01*
X155826700Y-128661200D02*
X154216300Y-127050800D01*
X161112200Y-121259600D02*
X162052000Y-120319800D01*
X165989000Y-112445800D02*
X164973000Y-111429800D01*
X138887200Y-110058200D02*
X137972800Y-109143800D01*
X125730000Y-92710000D02*
X127000000Y-91440000D01*
X165989000Y-115265200D02*
X165989000Y-112445800D01*
X137972800Y-104825800D02*
X136906000Y-103759000D01*
X141884400Y-127050800D02*
X141071600Y-126238000D01*
X166395400Y-116433600D02*
X166776400Y-116052600D01*
X136906000Y-103759000D02*
X132181600Y-103759000D01*
X141071600Y-126238000D02*
X141071600Y-122224800D01*
X162052000Y-120319800D02*
X162052000Y-118745000D01*
X166395400Y-117449600D02*
X166395400Y-116433600D01*
X166776400Y-116052600D02*
X165989000Y-115265200D01*
X131165600Y-95910400D02*
X130505200Y-95250000D01*
X125730000Y-94665800D02*
X125730000Y-92710000D01*
X161899600Y-110490000D02*
X160502600Y-110490000D01*
X130505200Y-95250000D02*
X126314200Y-95250000D01*
X160502600Y-110490000D02*
X158343600Y-112649000D01*
X155981400Y-112649000D02*
X155092400Y-111760000D01*
X155092400Y-110286800D02*
X154101800Y-109296200D01*
X132181600Y-103759000D02*
X131165600Y-102743000D01*
X154101800Y-109296200D02*
X149783800Y-109296200D01*
X154216300Y-127050800D02*
X141884400Y-127050800D01*
X137972800Y-109143800D02*
X137972800Y-104825800D01*
X126314200Y-95250000D02*
X125730000Y-94665800D01*
X141071600Y-122224800D02*
X142036800Y-121259600D01*
X162839400Y-111429800D02*
X161899600Y-110490000D01*
X162433000Y-118364000D02*
X165481000Y-118364000D01*
X162052000Y-118745000D02*
X162433000Y-118364000D01*
X164973000Y-111429800D02*
X162839400Y-111429800D01*
X158343600Y-112649000D02*
X155981400Y-112649000D01*
X131165600Y-102743000D02*
X131165600Y-95910400D01*
%TO.N,JTAG_CTRL*%
X180009800Y-122961400D02*
X180009800Y-108585000D01*
X163449000Y-128536200D02*
X163449000Y-126847600D01*
X163449000Y-126847600D02*
X164388800Y-125907800D01*
X164312600Y-86055200D02*
X164312600Y-84048600D01*
X164388800Y-125907800D02*
X165557200Y-125907800D01*
X180009800Y-102027752D02*
X180009800Y-87731600D01*
X142113000Y-84302600D02*
X142113000Y-87528400D01*
X178689000Y-124282200D02*
X180009800Y-122961400D01*
X180009800Y-87731600D02*
X178816000Y-86537800D01*
X180009800Y-108585000D02*
X178663600Y-107238800D01*
X164795200Y-86537800D02*
X164312600Y-86055200D01*
X164312600Y-84048600D02*
X163601400Y-83337400D01*
X167182800Y-124282200D02*
X178689000Y-124282200D01*
X165557200Y-125907800D02*
X167182800Y-124282200D01*
X178663600Y-103373952D02*
X180009800Y-102027752D01*
X178663600Y-107238800D02*
X178663600Y-103373952D01*
X163601400Y-83337400D02*
X143078200Y-83337400D01*
X143078200Y-83337400D02*
X142113000Y-84302600D01*
X178816000Y-86537800D02*
X164795200Y-86537800D01*
%TO.N,+3V3*%
D19*
X178514400Y-87274400D02*
X163766800Y-87274400D01*
X152628600Y-99962000D02*
X152628600Y-96215200D01*
X178384200Y-123621800D02*
X179324000Y-122682000D01*
X142735800Y-125272800D02*
X160414200Y-125272800D01*
X163564800Y-96254800D02*
X163564800Y-96672400D01*
X179324000Y-88084000D02*
X178514400Y-87274400D01*
X179324000Y-108940600D02*
X177927000Y-107543600D01*
X152628600Y-96215200D02*
X153543000Y-95300800D01*
X163564800Y-85637600D02*
X163564800Y-88773000D01*
X153543000Y-95300800D02*
X162610800Y-95300800D01*
X163766800Y-87274400D02*
X163564800Y-87476400D01*
X162915600Y-84988400D02*
X163564800Y-85637600D01*
X179324000Y-122682000D02*
X179324000Y-108940600D01*
X177927000Y-102997000D02*
X179324000Y-101600000D01*
X179324000Y-101600000D02*
X179324000Y-88084000D01*
X163564800Y-99085400D02*
X163564800Y-88773000D01*
X163564800Y-87476400D02*
X163564800Y-88773000D01*
X165252400Y-125272800D02*
X166903400Y-123621800D01*
X177927000Y-107543600D02*
X177927000Y-102997000D01*
X161989000Y-84988400D02*
X162915600Y-84988400D01*
X160414200Y-125272800D02*
X165252400Y-125272800D01*
X162610800Y-95300800D02*
X163564800Y-96254800D01*
X166903400Y-123621800D02*
X178384200Y-123621800D01*
%TO.N,/RP2040/QSPI_SD3*%
D20*
X149580600Y-100914200D02*
X149580600Y-96469200D01*
X151876434Y-101813034D02*
X151282400Y-101219000D01*
X148996400Y-95885000D02*
X146970500Y-95885000D01*
X149885400Y-101219000D02*
X149580600Y-100914200D01*
X149580600Y-96469200D02*
X148996400Y-95885000D01*
X151282400Y-101219000D02*
X149885400Y-101219000D01*
X151876434Y-103124000D02*
X151876434Y-101813034D01*
%TO.N,/RP2040/QSPI_SCLK*%
X150672800Y-101854000D02*
X149504400Y-101854000D01*
X151089031Y-103124000D02*
X151089031Y-102270231D01*
X149504400Y-101854000D02*
X148945600Y-101295200D01*
X148945600Y-101295200D02*
X148945600Y-97688400D01*
X151089031Y-102270231D02*
X150672800Y-101854000D01*
X148412200Y-97155000D02*
X146970500Y-97155000D01*
X148945600Y-97688400D02*
X148412200Y-97155000D01*
%TO.N,/RP2040/QSPI_SD0*%
X149098000Y-102463600D02*
X148361400Y-101727000D01*
X150301628Y-102752828D02*
X150012400Y-102463600D01*
X148361400Y-98831400D02*
X147955000Y-98425000D01*
X150012400Y-102463600D02*
X149098000Y-102463600D01*
X147955000Y-98425000D02*
X146970500Y-98425000D01*
X148361400Y-101727000D02*
X148361400Y-98831400D01*
X150301628Y-103124000D02*
X150301628Y-102752828D01*
%TO.N,Net-(J4-Pin_10)*%
X138404600Y-88900000D02*
X139573000Y-90068400D01*
X139573000Y-90068400D02*
X142113000Y-90068400D01*
X129540000Y-88900000D02*
X138404600Y-88900000D01*
%TO.N,+1V8_MSP*%
D19*
X165227000Y-120751600D02*
X171678600Y-120751600D01*
X173710600Y-114300000D02*
X175260000Y-114300000D01*
X172720000Y-115290600D02*
X173710600Y-114300000D01*
X172720000Y-119710200D02*
X172720000Y-115290600D01*
X171678600Y-120751600D02*
X172720000Y-119710200D01*
%TD*%
%TA.AperFunction,Conductor*%
%TO.N,GND*%
G36*
X161443213Y-100552413D02*
G01*
X161479758Y-100602713D01*
X161484682Y-100633800D01*
X161484682Y-104267000D01*
X158385882Y-104267000D01*
X158385882Y-100633800D01*
X158405095Y-100574669D01*
X158455395Y-100538124D01*
X158486482Y-100533200D01*
X161384082Y-100533200D01*
X161443213Y-100552413D01*
G37*
%TD.AperFunction*%
%TD*%
%TA.AperFunction,Conductor*%
%TO.N,GND*%
G36*
X158385882Y-104267000D02*
G01*
X161484682Y-104267000D01*
X161484682Y-106223800D01*
X161465469Y-106282931D01*
X161415169Y-106319476D01*
X161384082Y-106324400D01*
X158325039Y-106324400D01*
X158265908Y-106305187D01*
X158253904Y-106294935D01*
X158166018Y-106207049D01*
X158166019Y-106207049D01*
X158038485Y-106133417D01*
X158038482Y-106133416D01*
X158000371Y-106123204D01*
X157896235Y-106095300D01*
X157896233Y-106095300D01*
X157748967Y-106095300D01*
X157748964Y-106095300D01*
X157606714Y-106133417D01*
X157479181Y-106207049D01*
X157391296Y-106294935D01*
X157335898Y-106323161D01*
X157320161Y-106324400D01*
X151476082Y-106324400D01*
X151416951Y-106305187D01*
X151380406Y-106254887D01*
X151375482Y-106223800D01*
X151375482Y-104342200D01*
X151394695Y-104283069D01*
X151444995Y-104246524D01*
X151476082Y-104241600D01*
X158385882Y-104241600D01*
X158385882Y-104267000D01*
G37*
%TD.AperFunction*%
%TD*%
%TA.AperFunction,Conductor*%
%TO.N,+1V8*%
G36*
X147408388Y-80396420D02*
G01*
X147419402Y-80399999D01*
X147469702Y-80436538D01*
X147488920Y-80495667D01*
X147488920Y-80499468D01*
X147471966Y-80555358D01*
X147456394Y-80578662D01*
X147456388Y-80578672D01*
X147456384Y-80578682D01*
X147403343Y-80706732D01*
X147376300Y-80842692D01*
X147376300Y-81781306D01*
X147403343Y-81917266D01*
X147452765Y-82036581D01*
X147452768Y-82036587D01*
X147456387Y-82045323D01*
X147456388Y-82045326D01*
X147456389Y-82045327D01*
X147533400Y-82160583D01*
X147631417Y-82258600D01*
X147746673Y-82335611D01*
X147810705Y-82362134D01*
X147871444Y-82387293D01*
X147874198Y-82388550D01*
X147966319Y-82406873D01*
X148010692Y-82415700D01*
X148010693Y-82415700D01*
X148149307Y-82415700D01*
X148149308Y-82415700D01*
X148285262Y-82388657D01*
X148413327Y-82335611D01*
X148528583Y-82258600D01*
X148626600Y-82160583D01*
X148703611Y-82045327D01*
X148756657Y-81917262D01*
X148783700Y-81781308D01*
X148783700Y-80842692D01*
X148756657Y-80706738D01*
X148738712Y-80663414D01*
X148703612Y-80578674D01*
X148703610Y-80578671D01*
X148703604Y-80578662D01*
X148691960Y-80561236D01*
X148678785Y-80532656D01*
X148675642Y-80521509D01*
X148678083Y-80459386D01*
X148716572Y-80410562D01*
X148719742Y-80408444D01*
X148775618Y-80391500D01*
X156017311Y-80391500D01*
X156048388Y-80396420D01*
X156059402Y-80399999D01*
X156059403Y-80400000D01*
X156059404Y-80400000D01*
X156059409Y-80400001D01*
X156082291Y-80416626D01*
X156109702Y-80436538D01*
X156109703Y-80436542D01*
X156109707Y-80436545D01*
X156118047Y-80462213D01*
X156128920Y-80495667D01*
X156128920Y-80499468D01*
X156111966Y-80555358D01*
X156096394Y-80578662D01*
X156096388Y-80578672D01*
X156096384Y-80578682D01*
X156043343Y-80706732D01*
X156016300Y-80842692D01*
X156016300Y-81781306D01*
X156043343Y-81917266D01*
X156092765Y-82036581D01*
X156092768Y-82036587D01*
X156096387Y-82045323D01*
X156096388Y-82045326D01*
X156096389Y-82045327D01*
X156173400Y-82160583D01*
X156271417Y-82258600D01*
X156386673Y-82335611D01*
X156450705Y-82362134D01*
X156511444Y-82387293D01*
X156514198Y-82388550D01*
X156606319Y-82406873D01*
X156650692Y-82415700D01*
X156650693Y-82415700D01*
X156789307Y-82415700D01*
X156789308Y-82415700D01*
X156925262Y-82388657D01*
X157053327Y-82335611D01*
X157168583Y-82258600D01*
X157266600Y-82160583D01*
X157343611Y-82045327D01*
X157396657Y-81917262D01*
X157423700Y-81781308D01*
X157423700Y-80842692D01*
X157396657Y-80706738D01*
X157378712Y-80663414D01*
X157343612Y-80578674D01*
X157343610Y-80578671D01*
X157343604Y-80578662D01*
X157331960Y-80561236D01*
X157318785Y-80532656D01*
X157315642Y-80521509D01*
X157318083Y-80459386D01*
X157356572Y-80410562D01*
X157359742Y-80408444D01*
X157415618Y-80391500D01*
X170951967Y-80391500D01*
X170983053Y-80396423D01*
X170995944Y-80400612D01*
X171046232Y-80437141D01*
X171049276Y-80441332D01*
X171068500Y-80500457D01*
X171068500Y-83870231D01*
X171084727Y-83930789D01*
X171094496Y-83967247D01*
X171094499Y-83967254D01*
X171144724Y-84054247D01*
X171215753Y-84125276D01*
X171302746Y-84175501D01*
X171302749Y-84175501D01*
X171302752Y-84175503D01*
X171396863Y-84200720D01*
X171396866Y-84200721D01*
X171399773Y-84201500D01*
X171399775Y-84201500D01*
X180476967Y-84201500D01*
X180508053Y-84206423D01*
X180520944Y-84210612D01*
X180571232Y-84247141D01*
X180574276Y-84251332D01*
X180593500Y-84310457D01*
X180593500Y-126501967D01*
X180588574Y-126533062D01*
X180584385Y-126545951D01*
X180547858Y-126596232D01*
X180545354Y-126598051D01*
X180543668Y-126599276D01*
X180484542Y-126618500D01*
X171399767Y-126618500D01*
X171302748Y-126644497D01*
X171282476Y-126656200D01*
X171282477Y-126656201D01*
X171215753Y-126694724D01*
X171144722Y-126765754D01*
X171144315Y-126766319D01*
X171143214Y-126768367D01*
X171094497Y-126852748D01*
X171068500Y-126949767D01*
X171068500Y-130311967D01*
X171063574Y-130343062D01*
X171059385Y-130355951D01*
X171022858Y-130406232D01*
X171020354Y-130408051D01*
X171018668Y-130409276D01*
X170959542Y-130428500D01*
X133848033Y-130428500D01*
X133816944Y-130423575D01*
X133808279Y-130420760D01*
X133804051Y-130419386D01*
X133753758Y-130382845D01*
X133750715Y-130378657D01*
X133731500Y-130319527D01*
X133731500Y-127778412D01*
X133971299Y-127778412D01*
X134003411Y-128063420D01*
X134003412Y-128063426D01*
X134003414Y-128063435D01*
X134003415Y-128063440D01*
X134067238Y-128343068D01*
X134067239Y-128343070D01*
X134067242Y-128343080D01*
X134069305Y-128348975D01*
X134069307Y-128348980D01*
X134109879Y-128464928D01*
X134158242Y-128603143D01*
X134161972Y-128613801D01*
X134161978Y-128613814D01*
X134286414Y-128872209D01*
X134350013Y-128973427D01*
X134409500Y-129068101D01*
X134439020Y-129115082D01*
X134617849Y-129339326D01*
X134617853Y-129339331D01*
X134820669Y-129542147D01*
X135044919Y-129720980D01*
X135287781Y-129873580D01*
X135287785Y-129873582D01*
X135287790Y-129873585D01*
X135466891Y-129959835D01*
X135546185Y-129998022D01*
X135546192Y-129998024D01*
X135546201Y-129998029D01*
X135816931Y-130092761D01*
X136096565Y-130156586D01*
X136381587Y-130188700D01*
X136668413Y-130188700D01*
X136953435Y-130156586D01*
X137233069Y-130092761D01*
X137503799Y-129998029D01*
X137762219Y-129873580D01*
X138005081Y-129720980D01*
X138229331Y-129542147D01*
X138432147Y-129339331D01*
X138610980Y-129115081D01*
X138763580Y-128872219D01*
X138888029Y-128613799D01*
X138982761Y-128343069D01*
X139046586Y-128063435D01*
X139078700Y-127778413D01*
X139078700Y-127491587D01*
X139046586Y-127206565D01*
X138982761Y-126926931D01*
X138888029Y-126656201D01*
X138836397Y-126548987D01*
X138763585Y-126397790D01*
X138763582Y-126397785D01*
X138763580Y-126397781D01*
X138610980Y-126154919D01*
X138610977Y-126154915D01*
X138610975Y-126154912D01*
X138576389Y-126111543D01*
X138576385Y-126111539D01*
X138433086Y-125931847D01*
X138432408Y-125930971D01*
X138432149Y-125930672D01*
X138432147Y-125930669D01*
X138229331Y-125727853D01*
X138168949Y-125679700D01*
X138050232Y-125585026D01*
X138005090Y-125549026D01*
X138005084Y-125549022D01*
X138005080Y-125549019D01*
X137762209Y-125396414D01*
X137504417Y-125272268D01*
X137503881Y-125272005D01*
X137503803Y-125271972D01*
X137418280Y-125242045D01*
X137418280Y-125242046D01*
X137233067Y-125177237D01*
X136958216Y-125114505D01*
X136957306Y-125114293D01*
X136953475Y-125113381D01*
X136951525Y-125113103D01*
X136950447Y-125112928D01*
X136947810Y-125112780D01*
X136668414Y-125081300D01*
X136668413Y-125081300D01*
X136381587Y-125081300D01*
X136381586Y-125081300D01*
X136096578Y-125113411D01*
X136096572Y-125113412D01*
X136096562Y-125113414D01*
X136096559Y-125113415D01*
X135993902Y-125136845D01*
X135816933Y-125177237D01*
X135546198Y-125271971D01*
X135287795Y-125396411D01*
X135287790Y-125396413D01*
X135287790Y-125396414D01*
X135172152Y-125469074D01*
X135044908Y-125549026D01*
X134820677Y-125727844D01*
X134820666Y-125727855D01*
X134617856Y-125930664D01*
X134617844Y-125930677D01*
X134439026Y-126154908D01*
X134286411Y-126397795D01*
X134161971Y-126656198D01*
X134067237Y-126926933D01*
X134003416Y-127206556D01*
X134003412Y-127206572D01*
X134003411Y-127206578D01*
X133971300Y-127491586D01*
X133971300Y-127778412D01*
X133971299Y-127778412D01*
X133731500Y-127778412D01*
X133731500Y-126949781D01*
X133731500Y-126949776D01*
X133731499Y-126949770D01*
X133705503Y-126852752D01*
X133705501Y-126852749D01*
X133705501Y-126852746D01*
X133705491Y-126852730D01*
X133705168Y-126852015D01*
X133703891Y-126849958D01*
X133655276Y-126765753D01*
X133584247Y-126694724D01*
X133497254Y-126644499D01*
X133497250Y-126644497D01*
X133497248Y-126644496D01*
X133400231Y-126618500D01*
X133400229Y-126618500D01*
X133400225Y-126618500D01*
X124323033Y-126618500D01*
X124291944Y-126613575D01*
X124283279Y-126610760D01*
X124279051Y-126609386D01*
X124271820Y-126604132D01*
X124228758Y-126572845D01*
X124225715Y-126568657D01*
X124206500Y-126509527D01*
X124206500Y-121265352D01*
X125946300Y-121265352D01*
X125946300Y-122574644D01*
X125946301Y-122574655D01*
X125946315Y-122574803D01*
X125949172Y-122605295D01*
X125994344Y-122734391D01*
X125994345Y-122734392D01*
X125994346Y-122734395D01*
X126036565Y-122791600D01*
X126075562Y-122844438D01*
X126185605Y-122925654D01*
X126314699Y-122970826D01*
X126345347Y-122973700D01*
X127654652Y-122973699D01*
X127685301Y-122970826D01*
X127814395Y-122925654D01*
X127924438Y-122844438D01*
X128005654Y-122734395D01*
X128050826Y-122605301D01*
X128053700Y-122574653D01*
X128053699Y-121816220D01*
X128486300Y-121816220D01*
X128486300Y-122023779D01*
X128526792Y-122227351D01*
X128606222Y-122419110D01*
X128606226Y-122419118D01*
X128606229Y-122419122D01*
X128606232Y-122419128D01*
X128721534Y-122591690D01*
X128868308Y-122738464D01*
X128998829Y-122825675D01*
X129040881Y-122853773D01*
X129040883Y-122853774D01*
X129040886Y-122853776D01*
X129232647Y-122933207D01*
X129436220Y-122973700D01*
X129436221Y-122973700D01*
X129643779Y-122973700D01*
X129643780Y-122973700D01*
X129847353Y-122933207D01*
X130039114Y-122853776D01*
X130211694Y-122738462D01*
X130358462Y-122591694D01*
X130473776Y-122419114D01*
X130553207Y-122227353D01*
X130593700Y-122023780D01*
X130593700Y-121816220D01*
X130553207Y-121612647D01*
X130473776Y-121420886D01*
X130371254Y-121267451D01*
X130358463Y-121248307D01*
X130211692Y-121101536D01*
X130211690Y-121101534D01*
X130039128Y-120986232D01*
X130039122Y-120986229D01*
X130039118Y-120986226D01*
X130039110Y-120986222D01*
X129973312Y-120958967D01*
X129916280Y-120935343D01*
X129893629Y-120915997D01*
X129847351Y-120906792D01*
X129847352Y-120906792D01*
X129684272Y-120874354D01*
X129684271Y-120874353D01*
X129643780Y-120866300D01*
X129436220Y-120866300D01*
X129395728Y-120874353D01*
X129395728Y-120874354D01*
X129314188Y-120890573D01*
X129232647Y-120906792D01*
X129040886Y-120986223D01*
X129040885Y-120986224D01*
X129040870Y-120986232D01*
X128867942Y-121101778D01*
X128866067Y-121103776D01*
X128723776Y-121246067D01*
X128721778Y-121247942D01*
X128606232Y-121420870D01*
X128606224Y-121420885D01*
X128606223Y-121420886D01*
X128526792Y-121612647D01*
X128499778Y-121748458D01*
X128486300Y-121816220D01*
X128053699Y-121816220D01*
X128053699Y-121265348D01*
X128050826Y-121234699D01*
X128005654Y-121105605D01*
X127924438Y-120995562D01*
X127911788Y-120986226D01*
X127911785Y-120986224D01*
X127814395Y-120914346D01*
X127685301Y-120869174D01*
X127654653Y-120866300D01*
X127654647Y-120866300D01*
X126345361Y-120866300D01*
X126345355Y-120866300D01*
X126345344Y-120866301D01*
X126345195Y-120866314D01*
X126314703Y-120869172D01*
X126185603Y-120914346D01*
X126075563Y-120995560D01*
X126075561Y-120995561D01*
X126075559Y-120995563D01*
X125994327Y-121105628D01*
X125994033Y-121106497D01*
X125949174Y-121234695D01*
X125946533Y-121262868D01*
X125946301Y-121265344D01*
X125946300Y-121265352D01*
X124206500Y-121265352D01*
X124206500Y-119276220D01*
X125946300Y-119276220D01*
X125946300Y-119483779D01*
X125986792Y-119687351D01*
X126066222Y-119879110D01*
X126066232Y-119879128D01*
X126181534Y-120051690D01*
X126328308Y-120198464D01*
X126381471Y-120233986D01*
X126500881Y-120313773D01*
X126500883Y-120313774D01*
X126500886Y-120313776D01*
X126692647Y-120393207D01*
X126896220Y-120433700D01*
X126896221Y-120433700D01*
X127103779Y-120433700D01*
X127103780Y-120433700D01*
X127307353Y-120393207D01*
X127499114Y-120313776D01*
X127671694Y-120198462D01*
X127818462Y-120051694D01*
X127933776Y-119879114D01*
X128013207Y-119687353D01*
X128053700Y-119483780D01*
X128053700Y-119276220D01*
X128486300Y-119276220D01*
X128486300Y-119483779D01*
X128526792Y-119687351D01*
X128606222Y-119879110D01*
X128606232Y-119879128D01*
X128721534Y-120051690D01*
X128868308Y-120198464D01*
X128921471Y-120233986D01*
X129040881Y-120313773D01*
X129040883Y-120313774D01*
X129040886Y-120313776D01*
X129232647Y-120393207D01*
X129436220Y-120433700D01*
X129436221Y-120433700D01*
X129643779Y-120433700D01*
X129643780Y-120433700D01*
X129847353Y-120393207D01*
X130039114Y-120313776D01*
X130211694Y-120198462D01*
X130358462Y-120051694D01*
X130473776Y-119879114D01*
X130553207Y-119687353D01*
X130593700Y-119483780D01*
X130593700Y-119276220D01*
X130553207Y-119072647D01*
X130485759Y-118909815D01*
X130473778Y-118880890D01*
X130473777Y-118880888D01*
X130473776Y-118880886D01*
X130447789Y-118841994D01*
X130358463Y-118708307D01*
X130211692Y-118561536D01*
X130211690Y-118561534D01*
X130039128Y-118446232D01*
X130039122Y-118446229D01*
X130039118Y-118446226D01*
X130039110Y-118446222D01*
X129973312Y-118418967D01*
X129916280Y-118395343D01*
X129893629Y-118375997D01*
X129847351Y-118366792D01*
X129847352Y-118366792D01*
X129684272Y-118334354D01*
X129684271Y-118334353D01*
X129643780Y-118326300D01*
X129436220Y-118326300D01*
X129395728Y-118334353D01*
X129395728Y-118334354D01*
X129314188Y-118350573D01*
X129232647Y-118366792D01*
X129040886Y-118446223D01*
X129040885Y-118446224D01*
X129040870Y-118446232D01*
X128867942Y-118561778D01*
X128866067Y-118563776D01*
X128723776Y-118706067D01*
X128721778Y-118707942D01*
X128606232Y-118880870D01*
X128606224Y-118880885D01*
X128606223Y-118880886D01*
X128586270Y-118929058D01*
X128526792Y-119072648D01*
X128486300Y-119276220D01*
X128053700Y-119276220D01*
X128013207Y-119072647D01*
X127945759Y-118909815D01*
X127933778Y-118880890D01*
X127933777Y-118880888D01*
X127933776Y-118880886D01*
X127907789Y-118841994D01*
X127818463Y-118708307D01*
X127671692Y-118561536D01*
X127671690Y-118561534D01*
X127499128Y-118446232D01*
X127499122Y-118446229D01*
X127499118Y-118446226D01*
X127499110Y-118446222D01*
X127433312Y-118418967D01*
X127376280Y-118395343D01*
X127353629Y-118375997D01*
X127307351Y-118366792D01*
X127307352Y-118366792D01*
X127144272Y-118334354D01*
X127144271Y-118334353D01*
X127103780Y-118326300D01*
X126896220Y-118326300D01*
X126855728Y-118334353D01*
X126855728Y-118334354D01*
X126774188Y-118350573D01*
X126692647Y-118366792D01*
X126500886Y-118446223D01*
X126500885Y-118446224D01*
X126500870Y-118446232D01*
X126327942Y-118561778D01*
X126326067Y-118563776D01*
X126183776Y-118706067D01*
X126181778Y-118707942D01*
X126066232Y-118880870D01*
X126066224Y-118880885D01*
X126066223Y-118880886D01*
X126046270Y-118929058D01*
X125986792Y-119072648D01*
X125946300Y-119276220D01*
X124206500Y-119276220D01*
X124206500Y-116736221D01*
X125946300Y-116736221D01*
X125946300Y-116943780D01*
X125986792Y-117147352D01*
X126066222Y-117339111D01*
X126066226Y-117339119D01*
X126066229Y-117339123D01*
X126066232Y-117339129D01*
X126181532Y-117511688D01*
X126181535Y-117511692D01*
X126181536Y-117511693D01*
X126328307Y-117658464D01*
X126500881Y-117773774D01*
X126500883Y-117773775D01*
X126500886Y-117773777D01*
X126692647Y-117853208D01*
X126896220Y-117893701D01*
X126896221Y-117893701D01*
X127103779Y-117893701D01*
X127103780Y-117893701D01*
X127307353Y-117853208D01*
X127499114Y-117773777D01*
X127671694Y-117658463D01*
X127818462Y-117511695D01*
X127818463Y-117511694D01*
X127818466Y-117511690D01*
X127895513Y-117396378D01*
X127933776Y-117339115D01*
X128013207Y-117147354D01*
X128053700Y-116943781D01*
X128053700Y-116736221D01*
X128053700Y-116736220D01*
X128486300Y-116736220D01*
X128486300Y-116943779D01*
X128526792Y-117147351D01*
X128606222Y-117339110D01*
X128606226Y-117339118D01*
X128606227Y-117339119D01*
X128606232Y-117339128D01*
X128721533Y-117511688D01*
X128721534Y-117511690D01*
X128868308Y-117658464D01*
X129012635Y-117754900D01*
X129040881Y-117773773D01*
X129040883Y-117773774D01*
X129040886Y-117773776D01*
X129232647Y-117853207D01*
X129436220Y-117893700D01*
X129436221Y-117893700D01*
X129643779Y-117893700D01*
X129643780Y-117893700D01*
X129847353Y-117853207D01*
X130039114Y-117773776D01*
X130211694Y-117658462D01*
X130358462Y-117511694D01*
X130358463Y-117511693D01*
X130358465Y-117511690D01*
X130473766Y-117339129D01*
X130473776Y-117339114D01*
X130553207Y-117147353D01*
X130593700Y-116943780D01*
X130593700Y-116736220D01*
X130553207Y-116532647D01*
X130473776Y-116340886D01*
X130373418Y-116190690D01*
X130358463Y-116168307D01*
X130211692Y-116021536D01*
X130211691Y-116021535D01*
X130211690Y-116021534D01*
X130039128Y-115906232D01*
X130039119Y-115906227D01*
X130039118Y-115906226D01*
X130039112Y-115906223D01*
X130039111Y-115906222D01*
X130039103Y-115906219D01*
X129918658Y-115856329D01*
X129916268Y-115855339D01*
X129916267Y-115855338D01*
X129916254Y-115855333D01*
X129893628Y-115835996D01*
X129731104Y-115803669D01*
X129684272Y-115794354D01*
X129684271Y-115794353D01*
X129643780Y-115786300D01*
X129436220Y-115786300D01*
X129395728Y-115794353D01*
X129395728Y-115794354D01*
X129314188Y-115810573D01*
X129232647Y-115826792D01*
X129040886Y-115906223D01*
X129040885Y-115906224D01*
X129040870Y-115906232D01*
X128867942Y-116021778D01*
X128866068Y-116023775D01*
X128723776Y-116166067D01*
X128721778Y-116167942D01*
X128606232Y-116340870D01*
X128606223Y-116340886D01*
X128526792Y-116532647D01*
X128506701Y-116633655D01*
X128486300Y-116736220D01*
X128053700Y-116736220D01*
X128013207Y-116532648D01*
X127933776Y-116340887D01*
X127933774Y-116340885D01*
X127933654Y-116340668D01*
X127932890Y-116339562D01*
X127872292Y-116248870D01*
X127818463Y-116168308D01*
X127671692Y-116021537D01*
X127671691Y-116021536D01*
X127671690Y-116021535D01*
X127499128Y-115906233D01*
X127499122Y-115906230D01*
X127499118Y-115906227D01*
X127499110Y-115906223D01*
X127433312Y-115878968D01*
X127376280Y-115855344D01*
X127353629Y-115835998D01*
X127307351Y-115826793D01*
X127307352Y-115826793D01*
X127144272Y-115794355D01*
X127144271Y-115794354D01*
X127103780Y-115786301D01*
X126896220Y-115786301D01*
X126855728Y-115794354D01*
X126855728Y-115794355D01*
X126774188Y-115810574D01*
X126692647Y-115826793D01*
X126500886Y-115906224D01*
X126500885Y-115906225D01*
X126500870Y-115906233D01*
X126327942Y-116021779D01*
X126326068Y-116023776D01*
X126183776Y-116166068D01*
X126181778Y-116167943D01*
X126066232Y-116340871D01*
X126066227Y-116340881D01*
X126066223Y-116340887D01*
X125986792Y-116532648D01*
X125979713Y-116568240D01*
X125946300Y-116736221D01*
X124206500Y-116736221D01*
X124206500Y-114196220D01*
X125946300Y-114196220D01*
X125946300Y-114403779D01*
X125986792Y-114607351D01*
X126066222Y-114799110D01*
X126066226Y-114799118D01*
X126066229Y-114799122D01*
X126066232Y-114799128D01*
X126181534Y-114971690D01*
X126328308Y-115118464D01*
X126467137Y-115211226D01*
X126500881Y-115233773D01*
X126500883Y-115233774D01*
X126500886Y-115233776D01*
X126692647Y-115313207D01*
X126896220Y-115353700D01*
X126896221Y-115353700D01*
X127103779Y-115353700D01*
X127103780Y-115353700D01*
X127307353Y-115313207D01*
X127499114Y-115233776D01*
X127671694Y-115118462D01*
X127818462Y-114971694D01*
X127933776Y-114799114D01*
X128013207Y-114607353D01*
X128053700Y-114403780D01*
X128053700Y-114196220D01*
X128486300Y-114196220D01*
X128486300Y-114403779D01*
X128526792Y-114607351D01*
X128606222Y-114799110D01*
X128606226Y-114799118D01*
X128606229Y-114799122D01*
X128606232Y-114799128D01*
X128721534Y-114971690D01*
X128868308Y-115118464D01*
X129007137Y-115211226D01*
X129040881Y-115233773D01*
X129040883Y-115233774D01*
X129040886Y-115233776D01*
X129232647Y-115313207D01*
X129436220Y-115353700D01*
X129436221Y-115353700D01*
X129643779Y-115353700D01*
X129643780Y-115353700D01*
X129847353Y-115313207D01*
X130039114Y-115233776D01*
X130211694Y-115118462D01*
X130358462Y-114971694D01*
X130473776Y-114799114D01*
X130553207Y-114607353D01*
X130593700Y-114403780D01*
X130593700Y-114196220D01*
X130553207Y-113992647D01*
X130473776Y-113800886D01*
X130467504Y-113791500D01*
X130358463Y-113628307D01*
X130211692Y-113481536D01*
X130211690Y-113481534D01*
X130039128Y-113366232D01*
X130039122Y-113366229D01*
X130039118Y-113366226D01*
X130039110Y-113366222D01*
X129973312Y-113338967D01*
X129916280Y-113315343D01*
X129893629Y-113295997D01*
X129847351Y-113286792D01*
X129847352Y-113286792D01*
X129684272Y-113254354D01*
X129684271Y-113254353D01*
X129643780Y-113246300D01*
X129436220Y-113246300D01*
X129395728Y-113254353D01*
X129395728Y-113254354D01*
X129314188Y-113270573D01*
X129232647Y-113286792D01*
X129040886Y-113366223D01*
X129040885Y-113366224D01*
X129040870Y-113366232D01*
X128867942Y-113481778D01*
X128866067Y-113483776D01*
X128723776Y-113626067D01*
X128721778Y-113627942D01*
X128606232Y-113800870D01*
X128606224Y-113800885D01*
X128606223Y-113800886D01*
X128526792Y-113992647D01*
X128507984Y-114087206D01*
X128486300Y-114196220D01*
X128053700Y-114196220D01*
X128013207Y-113992647D01*
X127933776Y-113800886D01*
X127927504Y-113791500D01*
X127818463Y-113628307D01*
X127671692Y-113481536D01*
X127671690Y-113481534D01*
X127499128Y-113366232D01*
X127499122Y-113366229D01*
X127499118Y-113366226D01*
X127499110Y-113366222D01*
X127433312Y-113338967D01*
X127376280Y-113315343D01*
X127353629Y-113295997D01*
X127307351Y-113286792D01*
X127307352Y-113286792D01*
X127144272Y-113254354D01*
X127144271Y-113254353D01*
X127103780Y-113246300D01*
X126896220Y-113246300D01*
X126855728Y-113254353D01*
X126855728Y-113254354D01*
X126774188Y-113270573D01*
X126692647Y-113286792D01*
X126500886Y-113366223D01*
X126500885Y-113366224D01*
X126500870Y-113366232D01*
X126327942Y-113481778D01*
X126326067Y-113483776D01*
X126183776Y-113626067D01*
X126181778Y-113627942D01*
X126066232Y-113800870D01*
X126066224Y-113800885D01*
X126066223Y-113800886D01*
X125986792Y-113992647D01*
X125967984Y-114087206D01*
X125946300Y-114196220D01*
X124206500Y-114196220D01*
X124206500Y-111656220D01*
X125946300Y-111656220D01*
X125946300Y-111863779D01*
X125986792Y-112067351D01*
X126066222Y-112259110D01*
X126066226Y-112259118D01*
X126066229Y-112259122D01*
X126066232Y-112259128D01*
X126181534Y-112431690D01*
X126328308Y-112578464D01*
X126486909Y-112684437D01*
X126500881Y-112693773D01*
X126500883Y-112693774D01*
X126500886Y-112693776D01*
X126692647Y-112773207D01*
X126896220Y-112813700D01*
X126896221Y-112813700D01*
X127103779Y-112813700D01*
X127103780Y-112813700D01*
X127307353Y-112773207D01*
X127499114Y-112693776D01*
X127671694Y-112578462D01*
X127818462Y-112431694D01*
X127933776Y-112259114D01*
X128013207Y-112067353D01*
X128053700Y-111863780D01*
X128053700Y-111656220D01*
X128486300Y-111656220D01*
X128486300Y-111863779D01*
X128526792Y-112067351D01*
X128606222Y-112259110D01*
X128606226Y-112259118D01*
X128606229Y-112259122D01*
X128606232Y-112259128D01*
X128721534Y-112431690D01*
X128868308Y-112578464D01*
X129026909Y-112684437D01*
X129040881Y-112693773D01*
X129040883Y-112693774D01*
X129040886Y-112693776D01*
X129232647Y-112773207D01*
X129436220Y-112813700D01*
X129436221Y-112813700D01*
X129643779Y-112813700D01*
X129643780Y-112813700D01*
X129847353Y-112773207D01*
X130039114Y-112693776D01*
X130211694Y-112578462D01*
X130358462Y-112431694D01*
X130473776Y-112259114D01*
X130553207Y-112067353D01*
X130593700Y-111863780D01*
X130593700Y-111656220D01*
X130553207Y-111452647D01*
X130473776Y-111260886D01*
X130431371Y-111197423D01*
X130403357Y-111155496D01*
X130403354Y-111155493D01*
X130358463Y-111088307D01*
X130211692Y-110941536D01*
X130211690Y-110941534D01*
X130039128Y-110826232D01*
X130039122Y-110826229D01*
X130039118Y-110826226D01*
X130039112Y-110826223D01*
X130039111Y-110826222D01*
X130039103Y-110826219D01*
X129941634Y-110785846D01*
X129933026Y-110782280D01*
X129916279Y-110775343D01*
X129893629Y-110755997D01*
X129847351Y-110746792D01*
X129847352Y-110746792D01*
X129684272Y-110714354D01*
X129684271Y-110714353D01*
X129643780Y-110706300D01*
X129436220Y-110706300D01*
X129395728Y-110714353D01*
X129395728Y-110714354D01*
X129343991Y-110724645D01*
X129232647Y-110746792D01*
X129040886Y-110826223D01*
X129040885Y-110826224D01*
X129040870Y-110826232D01*
X128867942Y-110941778D01*
X128866067Y-110943776D01*
X128723776Y-111086067D01*
X128721778Y-111087942D01*
X128606232Y-111260870D01*
X128606224Y-111260885D01*
X128606223Y-111260886D01*
X128606222Y-111260889D01*
X128526792Y-111452648D01*
X128486300Y-111656220D01*
X128053700Y-111656220D01*
X128013207Y-111452647D01*
X127933776Y-111260886D01*
X127891371Y-111197423D01*
X127863357Y-111155496D01*
X127863354Y-111155493D01*
X127818463Y-111088307D01*
X127671692Y-110941536D01*
X127671690Y-110941534D01*
X127499128Y-110826232D01*
X127499122Y-110826229D01*
X127499118Y-110826226D01*
X127499112Y-110826223D01*
X127499111Y-110826222D01*
X127499103Y-110826219D01*
X127401634Y-110785846D01*
X127393026Y-110782280D01*
X127376279Y-110775343D01*
X127353629Y-110755997D01*
X127307351Y-110746792D01*
X127307352Y-110746792D01*
X127144272Y-110714354D01*
X127144271Y-110714353D01*
X127103780Y-110706300D01*
X126896220Y-110706300D01*
X126855728Y-110714353D01*
X126855728Y-110714354D01*
X126803991Y-110724645D01*
X126692647Y-110746792D01*
X126500886Y-110826223D01*
X126500885Y-110826224D01*
X126500870Y-110826232D01*
X126327942Y-110941778D01*
X126326067Y-110943776D01*
X126183776Y-111086067D01*
X126181778Y-111087942D01*
X126066232Y-111260870D01*
X126066224Y-111260885D01*
X126066223Y-111260886D01*
X126066222Y-111260889D01*
X125986792Y-111452648D01*
X125946300Y-111656220D01*
X124206500Y-111656220D01*
X124206500Y-89596403D01*
X124586500Y-89596403D01*
X124586500Y-99582795D01*
X124594681Y-99613327D01*
X124600864Y-99636399D01*
X124600864Y-99636401D01*
X124607303Y-99660436D01*
X124607304Y-99660438D01*
X124607306Y-99660441D01*
X124647500Y-99730059D01*
X125669541Y-100752100D01*
X125701503Y-100770553D01*
X125739156Y-100792293D01*
X125739158Y-100792293D01*
X125739159Y-100792294D01*
X125816807Y-100813100D01*
X129457538Y-100813100D01*
X129488620Y-100818022D01*
X129512228Y-100825693D01*
X129552274Y-100850233D01*
X129955967Y-101253926D01*
X129974468Y-101279390D01*
X129985736Y-101301505D01*
X129996700Y-101347176D01*
X129996700Y-103189600D01*
X130000366Y-103203277D01*
X130000765Y-103204765D01*
X130010700Y-103241841D01*
X130017506Y-103267241D01*
X130057700Y-103336859D01*
X130057702Y-103336861D01*
X131536942Y-104816101D01*
X131566365Y-104833088D01*
X131606558Y-104856294D01*
X131617402Y-104859198D01*
X131626976Y-104864122D01*
X131627263Y-104864411D01*
X131642900Y-104866031D01*
X131665152Y-104871994D01*
X131684207Y-104877100D01*
X136379038Y-104877100D01*
X136410120Y-104882022D01*
X136433728Y-104889693D01*
X136473774Y-104914233D01*
X136813967Y-105254426D01*
X136832468Y-105279890D01*
X136843736Y-105302005D01*
X136854700Y-105347676D01*
X136854700Y-109488797D01*
X136866578Y-109533126D01*
X136872518Y-109555292D01*
X136872519Y-109555294D01*
X136875506Y-109566441D01*
X136915700Y-109636059D01*
X138394941Y-111115300D01*
X138464558Y-111155494D01*
X138480091Y-111159656D01*
X138480095Y-111159658D01*
X138480095Y-111159657D01*
X138542207Y-111176300D01*
X138542209Y-111176300D01*
X149366791Y-111176300D01*
X149366793Y-111176300D01*
X149444441Y-111155494D01*
X149498122Y-111124501D01*
X149514059Y-111115300D01*
X150174330Y-110455029D01*
X150199792Y-110436531D01*
X150210485Y-110431082D01*
X150221909Y-110425263D01*
X150267577Y-110414300D01*
X153612938Y-110414300D01*
X153644020Y-110419222D01*
X153667628Y-110426893D01*
X153707674Y-110451433D01*
X153933567Y-110677326D01*
X153952068Y-110702790D01*
X153963203Y-110724645D01*
X153963336Y-110724905D01*
X153974300Y-110770576D01*
X153974300Y-112104995D01*
X153995107Y-112182645D01*
X154011417Y-112210895D01*
X154011418Y-112210895D01*
X154035300Y-112252259D01*
X154035302Y-112252261D01*
X155489142Y-113706101D01*
X155518565Y-113723088D01*
X155558758Y-113746294D01*
X155569602Y-113749198D01*
X155579176Y-113754122D01*
X155579463Y-113754411D01*
X155595097Y-113756030D01*
X155621171Y-113763016D01*
X155621175Y-113763019D01*
X155621176Y-113763018D01*
X155636407Y-113767100D01*
X155636411Y-113767100D01*
X158688591Y-113767100D01*
X158688593Y-113767100D01*
X158766241Y-113746294D01*
X158835859Y-113706100D01*
X160893129Y-111648829D01*
X160918591Y-111630331D01*
X160929284Y-111624882D01*
X160940708Y-111619063D01*
X160986376Y-111608100D01*
X161410738Y-111608100D01*
X161441820Y-111613022D01*
X161465428Y-111620693D01*
X161505473Y-111645232D01*
X162347142Y-112486902D01*
X162347143Y-112486903D01*
X162399999Y-112517417D01*
X162416759Y-112527094D01*
X162416762Y-112527095D01*
X162416765Y-112527096D01*
X162494402Y-112547899D01*
X162494404Y-112547899D01*
X162494407Y-112547900D01*
X164369838Y-112547900D01*
X164400920Y-112552822D01*
X164424528Y-112560493D01*
X164464574Y-112585033D01*
X164728567Y-112849026D01*
X164747068Y-112874490D01*
X164758336Y-112896605D01*
X164769300Y-112942276D01*
X164769300Y-115555770D01*
X164764376Y-115586855D01*
X164756707Y-115610460D01*
X164732166Y-115650506D01*
X164642299Y-115740372D01*
X164575352Y-115856326D01*
X164575351Y-115856329D01*
X164540700Y-115985644D01*
X164540700Y-116119554D01*
X164571923Y-116236076D01*
X164571923Y-116236078D01*
X164575350Y-116248869D01*
X164628474Y-116340881D01*
X164628473Y-116340881D01*
X164642295Y-116364821D01*
X164642299Y-116364826D01*
X164736974Y-116459501D01*
X164852926Y-116526447D01*
X164852928Y-116526448D01*
X164852932Y-116526449D01*
X164972417Y-116558465D01*
X164982251Y-116561100D01*
X164982255Y-116561100D01*
X164982257Y-116561100D01*
X165068341Y-116561100D01*
X165087593Y-116562959D01*
X165095825Y-116564564D01*
X165098547Y-116566075D01*
X165099422Y-116566022D01*
X165103310Y-116567285D01*
X165102999Y-116568240D01*
X165117054Y-116572204D01*
X165117339Y-116571519D01*
X165120983Y-116573028D01*
X165120991Y-116573030D01*
X165120996Y-116573033D01*
X165123025Y-116573692D01*
X165123939Y-116574252D01*
X165124643Y-116574544D01*
X165124596Y-116574655D01*
X165163075Y-116598234D01*
X165185767Y-116620926D01*
X165204268Y-116646390D01*
X165215536Y-116668505D01*
X165226500Y-116714176D01*
X165226500Y-116884538D01*
X165221576Y-116915623D01*
X165217775Y-116927323D01*
X165213907Y-116939228D01*
X165189366Y-116979274D01*
X165039673Y-117128967D01*
X165014211Y-117147467D01*
X164992097Y-117158735D01*
X164946424Y-117169700D01*
X162011799Y-117169700D01*
X161934165Y-117190503D01*
X161934153Y-117190508D01*
X161934147Y-117190511D01*
X161864542Y-117230696D01*
X161864541Y-117230696D01*
X161864542Y-117230697D01*
X160918698Y-118176541D01*
X160901469Y-118206384D01*
X160901468Y-118206383D01*
X160901467Y-118206389D01*
X160878508Y-118246150D01*
X160878506Y-118246156D01*
X160857700Y-118323801D01*
X160857700Y-119754738D01*
X160852776Y-119785823D01*
X160845107Y-119809428D01*
X160820566Y-119849474D01*
X160645473Y-120024567D01*
X160620011Y-120043067D01*
X160597897Y-120054335D01*
X160552224Y-120065300D01*
X141590201Y-120065300D01*
X141547573Y-120076723D01*
X141547572Y-120076722D01*
X141533375Y-120080528D01*
X141533364Y-120080531D01*
X141522961Y-120083318D01*
X141522959Y-120083318D01*
X141512561Y-120086104D01*
X141512554Y-120086107D01*
X141442941Y-120126298D01*
X141442940Y-120126299D01*
X139946863Y-121622377D01*
X139946861Y-121622379D01*
X139938300Y-121630941D01*
X139938299Y-121630942D01*
X139909352Y-121681078D01*
X139909353Y-121681079D01*
X139898105Y-121700560D01*
X139898103Y-121700565D01*
X139897094Y-121704328D01*
X139897093Y-121704331D01*
X139877300Y-121778199D01*
X139877300Y-126633800D01*
X139891917Y-126688350D01*
X139891919Y-126688353D01*
X139898097Y-126711413D01*
X139898103Y-126711432D01*
X139898105Y-126711438D01*
X139898106Y-126711441D01*
X139938300Y-126781059D01*
X141341342Y-128184101D01*
X141346975Y-128187353D01*
X141410958Y-128224294D01*
X141422459Y-128227374D01*
X141432007Y-128232446D01*
X141447297Y-128234030D01*
X141473371Y-128241016D01*
X141473375Y-128241019D01*
X141473376Y-128241018D01*
X141488607Y-128245100D01*
X143135638Y-128245100D01*
X143166720Y-128250022D01*
X143190328Y-128257693D01*
X143230374Y-128282233D01*
X143491869Y-128543729D01*
X143510366Y-128569187D01*
X143521636Y-128591305D01*
X143532600Y-128636974D01*
X143532600Y-128728154D01*
X143562515Y-128839795D01*
X143567251Y-128857470D01*
X143567251Y-128857471D01*
X143567253Y-128857474D01*
X143572940Y-128867324D01*
X143572942Y-128867329D01*
X143616691Y-128943102D01*
X143634199Y-128973426D01*
X143728874Y-129068101D01*
X143810250Y-129115084D01*
X143844828Y-129135048D01*
X143967867Y-129168015D01*
X143969656Y-129168638D01*
X143972662Y-129169348D01*
X143974059Y-129169700D01*
X143974155Y-129169700D01*
X143974157Y-129169700D01*
X144108043Y-129169700D01*
X144108044Y-129169700D01*
X144108045Y-129169700D01*
X144108045Y-129169699D01*
X144108048Y-129169699D01*
X144108050Y-129169699D01*
X144108063Y-129169695D01*
X144109519Y-129169351D01*
X144109531Y-129169349D01*
X144115701Y-129167892D01*
X144117884Y-129167064D01*
X144237370Y-129135048D01*
X144237371Y-129135048D01*
X144237371Y-129135047D01*
X144237374Y-129135047D01*
X144353326Y-129068101D01*
X144448001Y-128973426D01*
X144514947Y-128857474D01*
X144520992Y-128834912D01*
X144549599Y-128728150D01*
X144549600Y-128728143D01*
X144549600Y-128594253D01*
X144549249Y-128592767D01*
X144549247Y-128592761D01*
X144547791Y-128586595D01*
X144546964Y-128584415D01*
X144518376Y-128477721D01*
X144514948Y-128464929D01*
X144514948Y-128464928D01*
X144448000Y-128348973D01*
X144353326Y-128254299D01*
X144300801Y-128223973D01*
X144237368Y-128187349D01*
X144108055Y-128152700D01*
X144108050Y-128152700D01*
X144108045Y-128152700D01*
X144021966Y-128152700D01*
X144002709Y-128150840D01*
X143994464Y-128149232D01*
X143991740Y-128147720D01*
X143990870Y-128147773D01*
X143986978Y-128146508D01*
X143987287Y-128145554D01*
X143973232Y-128141589D01*
X143972948Y-128142276D01*
X143969307Y-128140767D01*
X143969304Y-128140766D01*
X143969300Y-128140764D01*
X143969296Y-128140763D01*
X143967271Y-128140105D01*
X143966358Y-128139545D01*
X143965642Y-128139249D01*
X143965689Y-128139135D01*
X143927224Y-128115564D01*
X143807962Y-127996302D01*
X143789459Y-127970832D01*
X143784414Y-127960929D01*
X143774692Y-127899520D01*
X143802922Y-127844124D01*
X143850573Y-127817443D01*
X143856265Y-127816076D01*
X143879736Y-127813300D01*
X148596638Y-127813300D01*
X148627720Y-127818222D01*
X148651328Y-127825893D01*
X148691374Y-127850433D01*
X149384667Y-128543726D01*
X149403167Y-128569189D01*
X149403168Y-128569190D01*
X149414436Y-128591305D01*
X149425400Y-128636976D01*
X149425400Y-128728154D01*
X149455315Y-128839795D01*
X149460051Y-128857470D01*
X149460051Y-128857471D01*
X149460053Y-128857474D01*
X149465740Y-128867324D01*
X149465742Y-128867329D01*
X149509491Y-128943102D01*
X149526999Y-128973426D01*
X149621674Y-129068101D01*
X149703050Y-129115084D01*
X149737628Y-129135048D01*
X149860667Y-129168015D01*
X149862456Y-129168638D01*
X149865462Y-129169348D01*
X149866859Y-129169700D01*
X149866955Y-129169700D01*
X149866957Y-129169700D01*
X150000843Y-129169700D01*
X150000844Y-129169700D01*
X150000845Y-129169700D01*
X150000845Y-129169699D01*
X150000848Y-129169699D01*
X150000850Y-129169699D01*
X150000863Y-129169695D01*
X150002319Y-129169351D01*
X150002331Y-129169349D01*
X150008501Y-129167892D01*
X150010684Y-129167064D01*
X150130170Y-129135048D01*
X150130171Y-129135048D01*
X150130171Y-129135047D01*
X150130174Y-129135047D01*
X150246126Y-129068101D01*
X150340801Y-128973426D01*
X150407747Y-128857474D01*
X150413792Y-128834912D01*
X150442399Y-128728150D01*
X150442400Y-128728143D01*
X150442400Y-128594253D01*
X150442049Y-128592767D01*
X150442047Y-128592761D01*
X150440591Y-128586595D01*
X150439764Y-128584415D01*
X150411176Y-128477721D01*
X150407748Y-128464929D01*
X150407748Y-128464928D01*
X150340800Y-128348973D01*
X150246126Y-128254299D01*
X150193601Y-128223973D01*
X150130168Y-128187349D01*
X150000855Y-128152700D01*
X150000850Y-128152700D01*
X150000845Y-128152700D01*
X149914762Y-128152700D01*
X149883675Y-128147776D01*
X149860071Y-128140106D01*
X149860069Y-128140105D01*
X149820025Y-128115566D01*
X149243561Y-127539102D01*
X149225058Y-127513632D01*
X149220013Y-127503729D01*
X149210291Y-127442320D01*
X149238521Y-127386924D01*
X149286172Y-127360243D01*
X149291864Y-127358876D01*
X149315335Y-127356100D01*
X154032238Y-127356100D01*
X154063320Y-127361022D01*
X154086928Y-127368693D01*
X154126974Y-127393233D01*
X155277468Y-128543727D01*
X155295967Y-128569188D01*
X155307235Y-128591304D01*
X155318200Y-128636974D01*
X155318200Y-128728154D01*
X155348115Y-128839795D01*
X155352851Y-128857470D01*
X155352851Y-128857471D01*
X155352853Y-128857474D01*
X155358540Y-128867324D01*
X155358542Y-128867329D01*
X155402291Y-128943102D01*
X155419799Y-128973426D01*
X155514474Y-129068101D01*
X155595850Y-129115084D01*
X155630428Y-129135048D01*
X155753467Y-129168015D01*
X155755256Y-129168638D01*
X155758262Y-129169348D01*
X155759659Y-129169700D01*
X155759755Y-129169700D01*
X155759757Y-129169700D01*
X155893643Y-129169700D01*
X155893644Y-129169700D01*
X155893645Y-129169700D01*
X155893645Y-129169699D01*
X155893648Y-129169699D01*
X155893650Y-129169699D01*
X155893663Y-129169695D01*
X155895119Y-129169351D01*
X155895131Y-129169349D01*
X155901301Y-129167892D01*
X155903484Y-129167064D01*
X156022970Y-129135048D01*
X156022971Y-129135048D01*
X156022971Y-129135047D01*
X156022974Y-129135047D01*
X156138926Y-129068101D01*
X156233601Y-128973426D01*
X156300547Y-128857474D01*
X156306592Y-128834912D01*
X156335199Y-128728150D01*
X156335200Y-128728143D01*
X156335200Y-128594253D01*
X156334849Y-128592767D01*
X156334847Y-128592761D01*
X156333391Y-128586595D01*
X156332564Y-128584415D01*
X156303976Y-128477721D01*
X156300548Y-128464929D01*
X156300548Y-128464928D01*
X156233600Y-128348973D01*
X156138926Y-128254299D01*
X156086401Y-128223973D01*
X156022968Y-128187349D01*
X155893655Y-128152700D01*
X155893650Y-128152700D01*
X155893645Y-128152700D01*
X155807563Y-128152700D01*
X155776476Y-128147776D01*
X155752872Y-128140106D01*
X155752870Y-128140105D01*
X155712826Y-128115566D01*
X155410560Y-127813300D01*
X155375672Y-127778412D01*
X154403759Y-126806500D01*
X154334164Y-126766319D01*
X154334145Y-126766308D01*
X154334143Y-126766307D01*
X154334141Y-126766306D01*
X154334138Y-126766305D01*
X154334133Y-126766303D01*
X154333642Y-126766172D01*
X154333599Y-126766161D01*
X154333454Y-126766122D01*
X154332074Y-126765752D01*
X154332073Y-126765752D01*
X154325705Y-126764045D01*
X154325704Y-126764044D01*
X154256498Y-126745500D01*
X154256495Y-126745500D01*
X154256493Y-126745500D01*
X142068463Y-126745500D01*
X142037376Y-126740576D01*
X142013772Y-126732906D01*
X141973726Y-126708366D01*
X141417632Y-126152272D01*
X141399130Y-126126805D01*
X141387863Y-126104690D01*
X141376900Y-126059022D01*
X141376900Y-122408861D01*
X141381822Y-122377780D01*
X141389493Y-122354169D01*
X141414031Y-122314127D01*
X142122529Y-121605629D01*
X142147991Y-121587131D01*
X142158684Y-121581682D01*
X142170108Y-121575863D01*
X142215776Y-121564900D01*
X161152391Y-121564900D01*
X161152393Y-121564900D01*
X161230041Y-121544094D01*
X161230043Y-121544093D01*
X161230759Y-121543769D01*
X161232817Y-121542491D01*
X161247686Y-121533907D01*
X161247687Y-121533906D01*
X161299659Y-121503900D01*
X162296301Y-120507259D01*
X162336494Y-120437641D01*
X162340712Y-120421900D01*
X162357300Y-120359993D01*
X162357300Y-118929058D01*
X162359157Y-118909815D01*
X162360762Y-118901579D01*
X162362275Y-118898852D01*
X162362222Y-118897977D01*
X162363486Y-118894086D01*
X162364448Y-118894398D01*
X162368414Y-118880341D01*
X162368046Y-118880188D01*
X162368007Y-118880176D01*
X162368008Y-118880172D01*
X162367721Y-118880054D01*
X162369228Y-118876414D01*
X162369229Y-118876410D01*
X162369233Y-118876403D01*
X162369889Y-118874383D01*
X162370446Y-118873473D01*
X162370746Y-118872751D01*
X162370860Y-118872798D01*
X162394431Y-118834327D01*
X162518729Y-118710029D01*
X162544191Y-118691531D01*
X162554884Y-118686082D01*
X162566308Y-118680263D01*
X162611976Y-118669300D01*
X165521191Y-118669300D01*
X165521193Y-118669300D01*
X165598841Y-118648494D01*
X165635794Y-118627159D01*
X165668459Y-118608300D01*
X166639701Y-117637059D01*
X166679894Y-117567441D01*
X166684112Y-117551700D01*
X166700700Y-117489793D01*
X166700700Y-116677632D01*
X166705623Y-116646547D01*
X166709812Y-116633653D01*
X166746354Y-116583357D01*
X166750553Y-116580307D01*
X166809677Y-116561100D01*
X166843344Y-116561100D01*
X166843345Y-116561100D01*
X166843345Y-116561099D01*
X166843348Y-116561099D01*
X166843350Y-116561099D01*
X166843363Y-116561095D01*
X166844819Y-116560751D01*
X166844831Y-116560749D01*
X166851001Y-116559292D01*
X166853184Y-116558464D01*
X166949527Y-116532649D01*
X166972670Y-116526448D01*
X166972671Y-116526448D01*
X166972671Y-116526447D01*
X166972674Y-116526447D01*
X167088626Y-116459501D01*
X167183301Y-116364826D01*
X167250247Y-116248874D01*
X167250248Y-116248870D01*
X167250249Y-116248869D01*
X167271834Y-116168310D01*
X167271834Y-116168308D01*
X167284896Y-116119561D01*
X167284895Y-116119561D01*
X167284899Y-116119550D01*
X167284900Y-116119543D01*
X167284900Y-115985656D01*
X167284899Y-115985649D01*
X167250248Y-115856329D01*
X167250248Y-115856328D01*
X167233195Y-115826792D01*
X167183301Y-115740374D01*
X167088626Y-115645699D01*
X167088625Y-115645698D01*
X167083672Y-115642838D01*
X167083671Y-115642838D01*
X167015734Y-115603614D01*
X166972668Y-115578749D01*
X166843355Y-115544100D01*
X166843350Y-115544100D01*
X166843345Y-115544100D01*
X166757263Y-115544100D01*
X166726176Y-115539176D01*
X166702572Y-115531506D01*
X166662526Y-115506966D01*
X166335032Y-115179472D01*
X166316530Y-115154005D01*
X166305263Y-115131890D01*
X166294300Y-115086222D01*
X166294300Y-114737060D01*
X166299224Y-114705974D01*
X166302658Y-114695405D01*
X166339202Y-114645104D01*
X166398333Y-114625891D01*
X166450900Y-114640718D01*
X166455889Y-114643776D01*
X166474450Y-114658409D01*
X166741341Y-114925300D01*
X166763411Y-114938042D01*
X166810959Y-114965494D01*
X166888607Y-114986300D01*
X167671838Y-114986300D01*
X167702920Y-114991222D01*
X167726528Y-114998893D01*
X167766574Y-115023433D01*
X167954367Y-115211226D01*
X167972868Y-115236690D01*
X167984136Y-115258805D01*
X167995100Y-115304476D01*
X167995100Y-116876570D01*
X167990176Y-116907656D01*
X167983786Y-116927323D01*
X167982507Y-116931260D01*
X167957965Y-116971307D01*
X167893502Y-117035768D01*
X167893500Y-117035771D01*
X167826550Y-117151729D01*
X167823123Y-117164521D01*
X167791900Y-117281044D01*
X167791900Y-117414954D01*
X167817822Y-117511692D01*
X167826551Y-117544270D01*
X167826551Y-117544271D01*
X167880122Y-117637056D01*
X167881299Y-117639095D01*
X167881308Y-117639112D01*
X167893496Y-117660222D01*
X167893497Y-117660223D01*
X167893499Y-117660226D01*
X167988174Y-117754901D01*
X168104126Y-117821847D01*
X168104128Y-117821848D01*
X168104132Y-117821849D01*
X168223617Y-117853865D01*
X168233451Y-117856500D01*
X168233455Y-117856500D01*
X168233457Y-117856500D01*
X168367343Y-117856500D01*
X168367344Y-117856500D01*
X168367345Y-117856500D01*
X168367345Y-117856499D01*
X168367348Y-117856499D01*
X168367350Y-117856499D01*
X168367363Y-117856495D01*
X168368819Y-117856151D01*
X168368831Y-117856149D01*
X168375001Y-117854692D01*
X168377184Y-117853864D01*
X168379640Y-117853206D01*
X168496670Y-117821848D01*
X168496671Y-117821848D01*
X168496671Y-117821847D01*
X168496674Y-117821847D01*
X168612626Y-117754901D01*
X168707301Y-117660226D01*
X168774247Y-117544274D01*
X168782977Y-117511691D01*
X168808899Y-117414950D01*
X168808900Y-117414943D01*
X168808900Y-117281056D01*
X168808899Y-117281049D01*
X168774248Y-117151729D01*
X168774248Y-117151728D01*
X168771722Y-117147353D01*
X168707301Y-117035774D01*
X168646432Y-116974905D01*
X168627930Y-116949438D01*
X168616663Y-116927323D01*
X168605700Y-116881655D01*
X168605700Y-115085305D01*
X168605589Y-115084627D01*
X168604924Y-115082412D01*
X168584896Y-115007665D01*
X168584894Y-115007660D01*
X168584894Y-115007659D01*
X168572562Y-114986299D01*
X168544700Y-114938041D01*
X168043359Y-114436700D01*
X167986340Y-114403780D01*
X167986339Y-114403779D01*
X167980041Y-114400143D01*
X167973742Y-114396506D01*
X167896095Y-114375700D01*
X167112862Y-114375700D01*
X167081775Y-114370776D01*
X167058171Y-114363106D01*
X167018125Y-114338566D01*
X166792232Y-114112673D01*
X166773730Y-114087206D01*
X166762463Y-114065091D01*
X166751500Y-114019423D01*
X166751500Y-112227809D01*
X166751491Y-112227774D01*
X166734122Y-112162951D01*
X166730694Y-112150159D01*
X166730694Y-112150158D01*
X166690500Y-112080541D01*
X166266179Y-111656220D01*
X174206300Y-111656220D01*
X174206300Y-111863779D01*
X174246792Y-112067351D01*
X174326222Y-112259110D01*
X174326226Y-112259118D01*
X174326229Y-112259122D01*
X174326232Y-112259128D01*
X174441534Y-112431690D01*
X174588308Y-112578464D01*
X174746909Y-112684437D01*
X174760881Y-112693773D01*
X174760883Y-112693774D01*
X174760886Y-112693776D01*
X174952647Y-112773207D01*
X175156220Y-112813700D01*
X175156221Y-112813700D01*
X175363779Y-112813700D01*
X175363780Y-112813700D01*
X175567353Y-112773207D01*
X175759114Y-112693776D01*
X175931694Y-112578462D01*
X176078462Y-112431694D01*
X176193776Y-112259114D01*
X176273207Y-112067353D01*
X176313700Y-111863780D01*
X176313700Y-111656220D01*
X176273207Y-111452647D01*
X176193776Y-111260886D01*
X176151371Y-111197423D01*
X176123357Y-111155496D01*
X176123354Y-111155493D01*
X176078463Y-111088307D01*
X175931692Y-110941536D01*
X175931690Y-110941534D01*
X175759128Y-110826232D01*
X175759122Y-110826229D01*
X175759118Y-110826226D01*
X175759112Y-110826223D01*
X175759111Y-110826222D01*
X175759103Y-110826219D01*
X175661634Y-110785846D01*
X175653026Y-110782280D01*
X175636279Y-110775343D01*
X175613629Y-110755997D01*
X175567351Y-110746792D01*
X175567352Y-110746792D01*
X175404272Y-110714354D01*
X175404271Y-110714353D01*
X175363780Y-110706300D01*
X175156220Y-110706300D01*
X175115728Y-110714353D01*
X175115728Y-110714354D01*
X175063991Y-110724645D01*
X174952647Y-110746792D01*
X174760886Y-110826223D01*
X174760885Y-110826224D01*
X174760870Y-110826232D01*
X174587942Y-110941778D01*
X174586067Y-110943776D01*
X174443776Y-111086067D01*
X174441778Y-111087942D01*
X174326232Y-111260870D01*
X174326224Y-111260885D01*
X174326223Y-111260886D01*
X174326222Y-111260889D01*
X174246792Y-111452648D01*
X174206300Y-111656220D01*
X166266179Y-111656220D01*
X165715261Y-111105302D01*
X165696758Y-111079832D01*
X165691713Y-111069929D01*
X165681991Y-111008520D01*
X165710221Y-110953124D01*
X165757872Y-110926443D01*
X165763564Y-110925076D01*
X165787035Y-110922300D01*
X167819891Y-110922300D01*
X167819893Y-110922300D01*
X167823618Y-110921302D01*
X167825671Y-110920752D01*
X167825674Y-110920751D01*
X167891712Y-110903056D01*
X167895211Y-110902339D01*
X167900984Y-110900571D01*
X167906061Y-110899210D01*
X167914855Y-110891497D01*
X167967159Y-110861300D01*
X169052700Y-109775759D01*
X169077332Y-109733094D01*
X169092894Y-109706141D01*
X169113700Y-109628493D01*
X169113700Y-104734807D01*
X169092894Y-104657159D01*
X169082030Y-104638342D01*
X169052701Y-104587541D01*
X168360859Y-103895700D01*
X168326050Y-103875603D01*
X168326048Y-103875601D01*
X168326046Y-103875599D01*
X168291247Y-103855508D01*
X168291244Y-103855507D01*
X168291242Y-103855506D01*
X168213595Y-103834700D01*
X167211567Y-103834700D01*
X167180480Y-103829776D01*
X167160869Y-103823404D01*
X167110569Y-103786859D01*
X167104832Y-103778025D01*
X167102041Y-103773191D01*
X167102038Y-103773187D01*
X167094919Y-103766068D01*
X167073639Y-103734681D01*
X167072724Y-103732554D01*
X167069950Y-103725178D01*
X167067393Y-103720160D01*
X167066104Y-103717162D01*
X167064513Y-103699926D01*
X167058403Y-103667559D01*
X167058757Y-103663967D01*
X166664732Y-103269942D01*
X166646230Y-103244475D01*
X166634963Y-103222360D01*
X166624000Y-103176692D01*
X166624000Y-102870000D01*
X166623998Y-102869998D01*
X166983210Y-102869998D01*
X166983210Y-102869999D01*
X166983210Y-102870000D01*
X167417968Y-103304758D01*
X167423075Y-103297116D01*
X167491047Y-103133018D01*
X167525700Y-102958809D01*
X167525700Y-102781190D01*
X167491047Y-102606981D01*
X167423078Y-102442889D01*
X167423075Y-102442884D01*
X167417968Y-102435241D01*
X167417967Y-102435241D01*
X166983210Y-102869998D01*
X166623998Y-102869998D01*
X166526796Y-102772796D01*
X166508294Y-102747329D01*
X166502140Y-102735250D01*
X166502139Y-102735248D01*
X166498548Y-102712566D01*
X166492416Y-102673844D01*
X166493227Y-102668725D01*
X166495381Y-102664499D01*
X166521450Y-102613337D01*
X167058757Y-102076031D01*
X167058757Y-102076030D01*
X167051121Y-102070928D01*
X167051107Y-102070920D01*
X167051108Y-102070920D01*
X167051104Y-102070918D01*
X166887017Y-102002951D01*
X166788807Y-101983416D01*
X166759278Y-101972522D01*
X166747452Y-101965899D01*
X166705738Y-101921289D01*
X166705719Y-101921249D01*
X166705626Y-101920651D01*
X166705248Y-101920242D01*
X166704204Y-101911423D01*
X166696939Y-101864295D01*
X166698098Y-101855917D01*
X166704805Y-101831218D01*
X166708094Y-101823277D01*
X166712319Y-101814343D01*
X166712333Y-101814315D01*
X166713778Y-101809554D01*
X166717943Y-101799498D01*
X166716258Y-101793524D01*
X166718112Y-101777852D01*
X166738800Y-101673849D01*
X166738800Y-101526151D01*
X166730149Y-101482658D01*
X166709986Y-101381290D01*
X166691362Y-101336330D01*
X166691362Y-101336329D01*
X166653470Y-101244849D01*
X166653468Y-101244846D01*
X166653466Y-101244840D01*
X166653461Y-101244831D01*
X166591161Y-101151592D01*
X166571410Y-101122032D01*
X166466966Y-101017588D01*
X166344168Y-100935538D01*
X166344159Y-100935533D01*
X166344155Y-100935531D01*
X166344149Y-100935528D01*
X166207713Y-100879014D01*
X166143327Y-100866207D01*
X166111135Y-100859804D01*
X166111134Y-100859803D01*
X166062849Y-100850200D01*
X165915151Y-100850200D01*
X165915150Y-100850200D01*
X165878935Y-100857402D01*
X165878936Y-100857403D01*
X165770286Y-100879014D01*
X165633849Y-100935528D01*
X165633836Y-100935535D01*
X165633830Y-100935538D01*
X165510665Y-101017834D01*
X165508796Y-101019825D01*
X165408825Y-101119796D01*
X165406834Y-101121665D01*
X165324538Y-101244830D01*
X165324535Y-101244836D01*
X165324528Y-101244849D01*
X165268014Y-101381286D01*
X165268013Y-101381291D01*
X165247851Y-101482659D01*
X165239200Y-101526151D01*
X165239200Y-101673849D01*
X165240789Y-101681836D01*
X165243259Y-101694256D01*
X165268014Y-101818713D01*
X165324528Y-101955149D01*
X165324535Y-101955162D01*
X165324538Y-101955168D01*
X165406588Y-102077966D01*
X165418219Y-102089597D01*
X165436722Y-102115067D01*
X165441767Y-102124970D01*
X165451489Y-102186379D01*
X165423259Y-102241775D01*
X165375624Y-102268453D01*
X165373471Y-102268969D01*
X165369938Y-102269818D01*
X165346446Y-102272600D01*
X165275343Y-102272600D01*
X165123416Y-102313309D01*
X165123410Y-102313311D01*
X164987186Y-102391961D01*
X164875961Y-102503186D01*
X164871945Y-102508421D01*
X164871436Y-102508031D01*
X164857645Y-102525063D01*
X164843316Y-102537965D01*
X164796920Y-102561606D01*
X164792710Y-102562501D01*
X164786816Y-102563120D01*
X164786517Y-102563254D01*
X164786195Y-102563185D01*
X164771791Y-102564700D01*
X164123633Y-102564700D01*
X164111861Y-102562834D01*
X164111839Y-102563124D01*
X164107486Y-102562781D01*
X164102313Y-102561321D01*
X164092537Y-102559773D01*
X164088645Y-102558508D01*
X164088954Y-102557554D01*
X164074899Y-102553589D01*
X164074615Y-102554276D01*
X164070974Y-102552767D01*
X164070971Y-102552766D01*
X164070967Y-102552764D01*
X164070963Y-102552763D01*
X164068938Y-102552105D01*
X164068025Y-102551545D01*
X164067309Y-102551249D01*
X164067356Y-102551135D01*
X164028891Y-102527564D01*
X163998232Y-102496905D01*
X163979730Y-102471438D01*
X163968463Y-102449323D01*
X163957500Y-102403655D01*
X163957500Y-102317461D01*
X163962422Y-102286380D01*
X163970093Y-102262769D01*
X163994631Y-102222727D01*
X165719130Y-100498229D01*
X165744592Y-100479731D01*
X165755285Y-100474282D01*
X165766709Y-100468463D01*
X165812377Y-100457500D01*
X168852938Y-100457500D01*
X168884020Y-100462422D01*
X168907628Y-100470093D01*
X168947674Y-100494633D01*
X169537967Y-101084926D01*
X169556468Y-101110390D01*
X169567736Y-101132505D01*
X169578700Y-101178176D01*
X169578700Y-103338570D01*
X169573776Y-103369658D01*
X169566107Y-103393260D01*
X169541565Y-103433307D01*
X169477102Y-103497768D01*
X169477100Y-103497771D01*
X169410150Y-103613729D01*
X169406723Y-103626521D01*
X169375500Y-103743044D01*
X169375500Y-103876954D01*
X169403919Y-103983014D01*
X169403920Y-103983016D01*
X169410151Y-104006270D01*
X169410151Y-104006271D01*
X169463084Y-104097951D01*
X169464277Y-104100018D01*
X169464280Y-104100023D01*
X169477096Y-104122221D01*
X169477096Y-104122222D01*
X169477097Y-104122223D01*
X169477099Y-104122226D01*
X169571774Y-104216901D01*
X169687726Y-104283847D01*
X169687728Y-104283848D01*
X169687732Y-104283849D01*
X169807217Y-104315865D01*
X169817051Y-104318500D01*
X169817055Y-104318500D01*
X169817057Y-104318500D01*
X169950943Y-104318500D01*
X169950944Y-104318500D01*
X169950945Y-104318500D01*
X169950945Y-104318499D01*
X169950948Y-104318499D01*
X169950950Y-104318499D01*
X169950963Y-104318495D01*
X169952419Y-104318151D01*
X169952431Y-104318149D01*
X169958601Y-104316692D01*
X169960784Y-104315864D01*
X170080270Y-104283848D01*
X170080271Y-104283848D01*
X170080271Y-104283847D01*
X170080274Y-104283847D01*
X170196226Y-104216901D01*
X170290901Y-104122226D01*
X170357847Y-104006274D01*
X170392500Y-103876945D01*
X170392500Y-103743055D01*
X170392500Y-103743053D01*
X170392149Y-103741567D01*
X170392147Y-103741561D01*
X170390692Y-103735397D01*
X170389864Y-103733216D01*
X170357848Y-103613729D01*
X170357848Y-103613728D01*
X170351097Y-103602035D01*
X170342952Y-103587928D01*
X170290902Y-103497775D01*
X170230032Y-103436905D01*
X170211530Y-103411438D01*
X170200263Y-103389323D01*
X170189300Y-103343655D01*
X170189300Y-100959013D01*
X170189300Y-100959008D01*
X170189299Y-100959002D01*
X170168496Y-100881365D01*
X170168494Y-100881362D01*
X170168494Y-100881359D01*
X170168486Y-100881346D01*
X170168160Y-100880624D01*
X170166889Y-100878577D01*
X170157838Y-100862900D01*
X170157837Y-100862900D01*
X170128301Y-100811741D01*
X169297159Y-99980600D01*
X169278657Y-99955133D01*
X169272504Y-99943056D01*
X169262780Y-99881650D01*
X169263591Y-99876531D01*
X169291814Y-99821142D01*
X169706931Y-99406028D01*
X169732394Y-99387530D01*
X169754506Y-99376264D01*
X169800175Y-99365300D01*
X174162791Y-99365300D01*
X174193875Y-99370223D01*
X174208829Y-99375081D01*
X174256747Y-99408478D01*
X174263052Y-99416476D01*
X174276991Y-99440258D01*
X174326216Y-99559099D01*
X174326219Y-99559105D01*
X174326221Y-99559109D01*
X174326224Y-99559114D01*
X174326226Y-99559118D01*
X174441534Y-99731690D01*
X174441536Y-99731692D01*
X174588307Y-99878463D01*
X174760881Y-99993773D01*
X174760883Y-99993774D01*
X174760886Y-99993776D01*
X174952647Y-100073207D01*
X175156220Y-100113700D01*
X175156221Y-100113700D01*
X175363779Y-100113700D01*
X175363780Y-100113700D01*
X175567353Y-100073207D01*
X175759114Y-99993776D01*
X175931694Y-99878462D01*
X176078462Y-99731694D01*
X176193776Y-99559114D01*
X176273207Y-99367353D01*
X176313700Y-99163780D01*
X176313700Y-98956220D01*
X176273207Y-98752647D01*
X176193776Y-98560886D01*
X176149620Y-98494802D01*
X176078463Y-98388307D01*
X175931692Y-98241536D01*
X175931690Y-98241534D01*
X175759128Y-98126232D01*
X175759122Y-98126229D01*
X175759118Y-98126226D01*
X175759112Y-98126223D01*
X175759111Y-98126222D01*
X175759103Y-98126219D01*
X175665748Y-98087550D01*
X175665746Y-98087549D01*
X175636280Y-98075343D01*
X175613630Y-98055997D01*
X175567352Y-98046792D01*
X175404272Y-98014354D01*
X175404271Y-98014353D01*
X175363780Y-98006300D01*
X175156220Y-98006300D01*
X175115728Y-98014353D01*
X175115728Y-98014354D01*
X175034188Y-98030573D01*
X174952647Y-98046792D01*
X174760886Y-98126223D01*
X174760885Y-98126224D01*
X174760870Y-98126232D01*
X174587942Y-98241778D01*
X174586067Y-98243776D01*
X174443776Y-98386067D01*
X174441779Y-98387942D01*
X174326226Y-98560880D01*
X174326223Y-98560886D01*
X174326216Y-98560899D01*
X174277763Y-98677877D01*
X174261319Y-98704713D01*
X174251107Y-98716670D01*
X174201922Y-98748157D01*
X174192124Y-98750921D01*
X174164811Y-98754700D01*
X169581004Y-98754700D01*
X169512062Y-98773174D01*
X169503368Y-98775503D01*
X169503359Y-98775506D01*
X169503351Y-98775509D01*
X169433742Y-98815696D01*
X169433741Y-98815696D01*
X169433742Y-98815697D01*
X168925873Y-99323567D01*
X168900411Y-99342067D01*
X168878297Y-99353335D01*
X168832624Y-99364300D01*
X165390003Y-99364300D01*
X165352047Y-99374471D01*
X165352046Y-99374470D01*
X165333171Y-99379529D01*
X165333164Y-99379531D01*
X165322761Y-99382318D01*
X165322759Y-99382318D01*
X165312361Y-99385104D01*
X165312354Y-99385107D01*
X165242741Y-99425298D01*
X165242740Y-99425300D01*
X162823700Y-101844339D01*
X162823699Y-101844340D01*
X162823433Y-101844803D01*
X162823411Y-101844841D01*
X162789082Y-101904300D01*
X162789080Y-101904303D01*
X162785115Y-101911170D01*
X162783729Y-101913400D01*
X162783499Y-101913882D01*
X162783119Y-101915394D01*
X162762700Y-101991596D01*
X162762700Y-107740538D01*
X162757776Y-107771623D01*
X162750107Y-107795228D01*
X162725566Y-107835274D01*
X162525073Y-108035767D01*
X162499611Y-108054267D01*
X162477497Y-108065535D01*
X162431824Y-108076500D01*
X159522601Y-108076500D01*
X159479973Y-108087923D01*
X159479972Y-108087922D01*
X159465775Y-108091728D01*
X159465764Y-108091731D01*
X159455361Y-108094518D01*
X159455359Y-108094518D01*
X159444961Y-108097304D01*
X159444954Y-108097307D01*
X159375341Y-108137498D01*
X159375340Y-108137500D01*
X158207073Y-109305767D01*
X158181611Y-109324267D01*
X158159497Y-109335535D01*
X158113824Y-109346500D01*
X155860662Y-109346500D01*
X155829575Y-109341576D01*
X155805971Y-109333906D01*
X155765925Y-109309366D01*
X154644859Y-108188300D01*
X154638759Y-108184778D01*
X154638757Y-108184777D01*
X154575241Y-108148106D01*
X154575238Y-108148105D01*
X154575239Y-108148105D01*
X154568404Y-108146273D01*
X154568404Y-108146274D01*
X154513665Y-108131606D01*
X154497597Y-108127300D01*
X154497595Y-108127300D01*
X154497593Y-108127300D01*
X151298314Y-108127300D01*
X151267227Y-108122376D01*
X151243623Y-108114706D01*
X151203577Y-108090166D01*
X151053883Y-107940472D01*
X151035381Y-107915005D01*
X151024114Y-107892890D01*
X151013151Y-107847222D01*
X151013151Y-107756059D01*
X151013151Y-107756056D01*
X151013150Y-107756049D01*
X150978499Y-107626729D01*
X150978499Y-107626728D01*
X150973673Y-107618369D01*
X150957847Y-107590958D01*
X150911553Y-107510775D01*
X150866432Y-107465654D01*
X150847930Y-107440187D01*
X150836663Y-107418072D01*
X150825700Y-107372404D01*
X150825700Y-106055609D01*
X150825689Y-106055567D01*
X150824239Y-106050156D01*
X150824237Y-106050149D01*
X150812783Y-106007401D01*
X150804894Y-105977959D01*
X150804894Y-105977958D01*
X150764700Y-105908341D01*
X150453859Y-105597500D01*
X150412495Y-105573618D01*
X150384242Y-105557306D01*
X150382762Y-105556909D01*
X150380436Y-105556286D01*
X150380416Y-105556280D01*
X150306599Y-105536500D01*
X150306595Y-105536500D01*
X150306593Y-105536500D01*
X149515007Y-105536500D01*
X149515004Y-105536500D01*
X149515001Y-105536500D01*
X149472373Y-105547923D01*
X149472372Y-105547922D01*
X149458175Y-105551728D01*
X149458164Y-105551731D01*
X149447761Y-105554518D01*
X149447759Y-105554518D01*
X149437361Y-105557304D01*
X149437354Y-105557307D01*
X149367741Y-105597498D01*
X149367740Y-105597499D01*
X149089434Y-105875806D01*
X149089432Y-105875808D01*
X149082299Y-105882942D01*
X149082298Y-105882943D01*
X149067636Y-105908340D01*
X149067635Y-105908342D01*
X149066088Y-105911021D01*
X149066085Y-105911026D01*
X149062814Y-105916692D01*
X149056715Y-105927256D01*
X149043635Y-105949910D01*
X149042106Y-105952558D01*
X149021300Y-106030203D01*
X149021300Y-109010538D01*
X149016376Y-109041623D01*
X149008707Y-109065228D01*
X148984166Y-109105274D01*
X148783673Y-109305767D01*
X148758211Y-109324267D01*
X148736097Y-109335535D01*
X148690424Y-109346500D01*
X139223663Y-109346500D01*
X139192576Y-109341576D01*
X139168972Y-109333906D01*
X139128926Y-109309366D01*
X138725232Y-108905672D01*
X138706730Y-108880205D01*
X138695463Y-108858090D01*
X138684500Y-108812422D01*
X138684500Y-106237044D01*
X140927500Y-106237044D01*
X140927500Y-107076954D01*
X140958723Y-107193476D01*
X140958723Y-107193478D01*
X140962151Y-107206271D01*
X141001302Y-107274083D01*
X141029095Y-107322221D01*
X141029099Y-107322226D01*
X141123774Y-107416901D01*
X141239726Y-107483847D01*
X141239728Y-107483848D01*
X141239732Y-107483849D01*
X141359217Y-107515865D01*
X141369051Y-107518500D01*
X141369055Y-107518500D01*
X141369057Y-107518500D01*
X141502943Y-107518500D01*
X141502944Y-107518500D01*
X141502945Y-107518500D01*
X141502945Y-107518499D01*
X141502948Y-107518499D01*
X141502950Y-107518499D01*
X141502963Y-107518495D01*
X141504419Y-107518151D01*
X141504431Y-107518149D01*
X141510601Y-107516692D01*
X141512784Y-107515864D01*
X141522293Y-107513316D01*
X141632270Y-107483848D01*
X141632271Y-107483848D01*
X141632271Y-107483847D01*
X141632274Y-107483847D01*
X141748226Y-107416901D01*
X141842901Y-107322226D01*
X141909847Y-107206274D01*
X141909848Y-107206270D01*
X141909849Y-107206269D01*
X141935016Y-107112342D01*
X141935016Y-107112340D01*
X141944496Y-107076961D01*
X141944495Y-107076961D01*
X141944499Y-107076950D01*
X141944500Y-107076943D01*
X141944500Y-106572227D01*
X141946357Y-106552984D01*
X141947962Y-106544748D01*
X141949475Y-106542021D01*
X141949422Y-106541146D01*
X141950686Y-106537255D01*
X141951648Y-106537567D01*
X141955614Y-106523510D01*
X141955246Y-106523357D01*
X141955207Y-106523345D01*
X141955208Y-106523341D01*
X141954921Y-106523223D01*
X141956428Y-106519583D01*
X141956429Y-106519579D01*
X141956433Y-106519572D01*
X141957089Y-106517552D01*
X141957646Y-106516642D01*
X141957946Y-106515920D01*
X141958060Y-106515967D01*
X141981631Y-106477496D01*
X142042698Y-106416429D01*
X142068160Y-106397931D01*
X142078853Y-106392482D01*
X142090277Y-106386663D01*
X142135945Y-106375700D01*
X145392838Y-106375700D01*
X145394231Y-106375349D01*
X145400401Y-106373892D01*
X145402584Y-106373064D01*
X145414851Y-106369777D01*
X145522070Y-106341048D01*
X145522071Y-106341048D01*
X145522071Y-106341047D01*
X145522074Y-106341047D01*
X145638026Y-106274101D01*
X145732701Y-106179426D01*
X145799647Y-106063474D01*
X145799648Y-106063471D01*
X145799649Y-106063469D01*
X145814672Y-106007401D01*
X145814672Y-106007400D01*
X145834297Y-105934157D01*
X145834298Y-105934152D01*
X145834299Y-105934150D01*
X145834300Y-105934143D01*
X145834300Y-105800256D01*
X145834299Y-105800249D01*
X145828285Y-105777806D01*
X145801248Y-105676901D01*
X145799648Y-105670929D01*
X145799648Y-105670928D01*
X145787854Y-105650500D01*
X145732701Y-105554974D01*
X145638026Y-105460299D01*
X145635148Y-105458637D01*
X145616563Y-105447906D01*
X145616563Y-105447907D01*
X145522068Y-105393349D01*
X145392755Y-105358700D01*
X145392750Y-105358700D01*
X145392745Y-105358700D01*
X141805855Y-105358700D01*
X141805849Y-105358700D01*
X141805844Y-105358700D01*
X141689322Y-105389923D01*
X141689320Y-105389923D01*
X141676529Y-105393350D01*
X141614486Y-105429172D01*
X141582037Y-105447907D01*
X141582036Y-105447906D01*
X141560569Y-105460301D01*
X141029100Y-105991771D01*
X141029098Y-105991773D01*
X141020196Y-106007193D01*
X141020192Y-106007196D01*
X140962152Y-106107724D01*
X140962149Y-106107734D01*
X140927500Y-106237044D01*
X138684500Y-106237044D01*
X138684500Y-104607809D01*
X138684491Y-104607774D01*
X138667122Y-104542951D01*
X138663694Y-104530159D01*
X138663694Y-104530158D01*
X138649085Y-104504855D01*
X138623500Y-104460541D01*
X137271259Y-103108300D01*
X137271260Y-103108300D01*
X137228992Y-103083897D01*
X137228991Y-103083896D01*
X137224847Y-103081504D01*
X137201640Y-103068105D01*
X137192357Y-103065618D01*
X137186470Y-103064041D01*
X137184227Y-103063440D01*
X137184225Y-103063439D01*
X137123995Y-103047300D01*
X137123993Y-103047300D01*
X132568863Y-103047300D01*
X132537776Y-103042376D01*
X132514172Y-103034706D01*
X132474126Y-103010166D01*
X131943432Y-102479472D01*
X131924930Y-102454005D01*
X131913663Y-102431890D01*
X131902700Y-102386222D01*
X131902700Y-94778004D01*
X143636500Y-94778004D01*
X143636500Y-103392795D01*
X143653087Y-103454698D01*
X143653088Y-103454700D01*
X143657306Y-103470441D01*
X143697500Y-103540059D01*
X144338541Y-104181101D01*
X144338543Y-104181102D01*
X144339115Y-104181515D01*
X144341072Y-104182567D01*
X144349938Y-104187685D01*
X144371313Y-104211421D01*
X144408159Y-104221294D01*
X144408158Y-104221294D01*
X144485802Y-104242099D01*
X144485804Y-104242099D01*
X144485807Y-104242100D01*
X147262938Y-104242100D01*
X147294020Y-104247022D01*
X147317628Y-104254693D01*
X147357674Y-104279233D01*
X147771282Y-104692841D01*
X147789783Y-104718305D01*
X147801051Y-104740420D01*
X147812015Y-104786091D01*
X147812015Y-107968617D01*
X147807091Y-107999705D01*
X147799422Y-108023307D01*
X147774880Y-108063354D01*
X147710417Y-108127815D01*
X147710415Y-108127818D01*
X147643467Y-108243773D01*
X147643466Y-108243776D01*
X147608815Y-108373091D01*
X147608815Y-108507001D01*
X147636253Y-108609396D01*
X147643466Y-108636317D01*
X147643466Y-108636318D01*
X147672033Y-108685796D01*
X147673828Y-108688905D01*
X147673831Y-108688911D01*
X147710412Y-108752271D01*
X147710414Y-108752273D01*
X147805089Y-108846948D01*
X147887286Y-108894405D01*
X147921043Y-108913895D01*
X148044030Y-108946848D01*
X148045853Y-108947481D01*
X148048877Y-108948195D01*
X148050274Y-108948547D01*
X148050370Y-108948547D01*
X148050372Y-108948547D01*
X148184258Y-108948547D01*
X148184259Y-108948547D01*
X148184260Y-108948547D01*
X148184260Y-108948546D01*
X148184263Y-108948546D01*
X148184265Y-108948546D01*
X148184278Y-108948542D01*
X148185734Y-108948198D01*
X148185746Y-108948196D01*
X148191916Y-108946739D01*
X148194099Y-108945911D01*
X148237805Y-108934200D01*
X148313585Y-108913895D01*
X148313586Y-108913895D01*
X148313586Y-108913894D01*
X148313589Y-108913894D01*
X148429541Y-108846948D01*
X148524216Y-108752273D01*
X148591162Y-108636321D01*
X148591163Y-108636317D01*
X148591164Y-108636316D01*
X148609203Y-108568992D01*
X148609203Y-108568991D01*
X148625812Y-108507004D01*
X148625813Y-108506999D01*
X148625814Y-108506997D01*
X148625815Y-108506990D01*
X148625815Y-108373103D01*
X148625814Y-108373096D01*
X148620639Y-108353784D01*
X148591163Y-108243776D01*
X148591162Y-108243772D01*
X148585806Y-108234495D01*
X148585806Y-108234496D01*
X148585805Y-108234494D01*
X148524216Y-108127821D01*
X148463347Y-108066952D01*
X148444845Y-108041485D01*
X148433578Y-108019370D01*
X148422615Y-107973702D01*
X148422615Y-104566924D01*
X148422615Y-104566923D01*
X148422614Y-104566919D01*
X148411194Y-104524299D01*
X148411194Y-104524298D01*
X148401811Y-104489280D01*
X148401810Y-104489277D01*
X148401809Y-104489274D01*
X148387514Y-104464513D01*
X148361618Y-104419658D01*
X148361617Y-104419657D01*
X148284155Y-104342195D01*
X151115982Y-104342195D01*
X151115982Y-106223809D01*
X151119176Y-106264395D01*
X151119177Y-106264397D01*
X151124101Y-106295484D01*
X151128076Y-106315466D01*
X151170466Y-106407417D01*
X151170470Y-106407423D01*
X151170471Y-106407424D01*
X151207011Y-106457717D01*
X151207012Y-106457719D01*
X151238942Y-106492260D01*
X151248419Y-106502512D01*
X151336760Y-106551986D01*
X151395891Y-106571199D01*
X151476078Y-106583899D01*
X151476080Y-106583900D01*
X157320161Y-106583900D01*
X157320170Y-106583900D01*
X157340509Y-106583100D01*
X157340514Y-106583099D01*
X157340529Y-106583099D01*
X157356266Y-106581860D01*
X157453706Y-106554378D01*
X157509104Y-106526152D01*
X157574791Y-106478428D01*
X157629153Y-106424064D01*
X157649988Y-106408077D01*
X157655032Y-106405165D01*
X157695410Y-106381852D01*
X157719670Y-106371803D01*
X157770335Y-106358227D01*
X157796372Y-106354800D01*
X157848823Y-106354800D01*
X157874859Y-106358228D01*
X157902818Y-106365719D01*
X157925526Y-106371803D01*
X157949784Y-106381851D01*
X157995214Y-106408079D01*
X158016041Y-106424060D01*
X158070410Y-106478429D01*
X158085376Y-106492263D01*
X158097380Y-106502515D01*
X158097384Y-106502518D01*
X158145415Y-106529416D01*
X158185717Y-106551986D01*
X158185722Y-106551987D01*
X158185723Y-106551988D01*
X158193076Y-106554377D01*
X158244848Y-106571199D01*
X158325035Y-106583899D01*
X158325037Y-106583900D01*
X158325039Y-106583900D01*
X158763500Y-106583900D01*
X158822631Y-106603113D01*
X158859176Y-106653413D01*
X158862279Y-106665444D01*
X158864100Y-106674883D01*
X158864100Y-106721550D01*
X158896251Y-106841539D01*
X158896824Y-106844510D01*
X158898866Y-106851255D01*
X158900369Y-106853674D01*
X158965699Y-106966826D01*
X159060375Y-107061502D01*
X159087151Y-107076961D01*
X159148430Y-107112341D01*
X159176328Y-107128448D01*
X159298973Y-107161310D01*
X159301041Y-107162011D01*
X159304162Y-107162748D01*
X159305559Y-107163100D01*
X159305655Y-107163100D01*
X159305657Y-107163100D01*
X159439543Y-107163100D01*
X159439544Y-107163100D01*
X159439545Y-107163100D01*
X159439545Y-107163099D01*
X159439548Y-107163099D01*
X159439550Y-107163099D01*
X159439563Y-107163095D01*
X159441019Y-107162751D01*
X159441031Y-107162749D01*
X159447201Y-107161292D01*
X159449384Y-107160464D01*
X159476968Y-107153073D01*
X159568870Y-107128448D01*
X159568871Y-107128448D01*
X159568871Y-107128447D01*
X159568874Y-107128447D01*
X159684826Y-107061501D01*
X159779501Y-106966826D01*
X159846447Y-106850874D01*
X159881100Y-106721545D01*
X159881100Y-106684500D01*
X159900313Y-106625369D01*
X159950613Y-106588824D01*
X159981700Y-106583900D01*
X161384071Y-106583900D01*
X161384082Y-106583900D01*
X161424679Y-106580705D01*
X161455766Y-106575781D01*
X161475748Y-106571806D01*
X161567699Y-106529416D01*
X161617999Y-106492871D01*
X161662794Y-106451463D01*
X161712268Y-106363122D01*
X161731481Y-106303991D01*
X161744182Y-106223800D01*
X161744182Y-104267000D01*
X161744182Y-100633800D01*
X161740987Y-100593203D01*
X161736063Y-100562116D01*
X161732088Y-100542134D01*
X161689698Y-100450183D01*
X161653153Y-100399883D01*
X161653151Y-100399881D01*
X161653151Y-100399880D01*
X161611746Y-100355089D01*
X161611745Y-100355088D01*
X161523403Y-100305613D01*
X161464278Y-100286402D01*
X161464268Y-100286400D01*
X161384086Y-100273700D01*
X161384082Y-100273700D01*
X158486482Y-100273700D01*
X158486472Y-100273700D01*
X158445886Y-100276894D01*
X158445884Y-100276895D01*
X158414815Y-100281816D01*
X158414807Y-100281817D01*
X158414798Y-100281819D01*
X158394816Y-100285794D01*
X158394814Y-100285794D01*
X158394813Y-100285795D01*
X158351825Y-100305613D01*
X158302865Y-100328184D01*
X158302861Y-100328186D01*
X158302857Y-100328189D01*
X158252564Y-100364729D01*
X158252562Y-100364730D01*
X158207771Y-100406135D01*
X158207770Y-100406136D01*
X158158295Y-100494478D01*
X158139084Y-100553603D01*
X158139082Y-100553613D01*
X158126382Y-100633795D01*
X158126382Y-103881500D01*
X158107169Y-103940631D01*
X158056869Y-103977176D01*
X158025782Y-103982100D01*
X151476072Y-103982100D01*
X151435486Y-103985294D01*
X151435484Y-103985295D01*
X151404415Y-103990216D01*
X151404407Y-103990217D01*
X151404398Y-103990219D01*
X151384416Y-103994194D01*
X151384414Y-103994194D01*
X151384413Y-103994195D01*
X151358221Y-104006270D01*
X151292465Y-104036584D01*
X151292461Y-104036586D01*
X151292457Y-104036589D01*
X151242164Y-104073129D01*
X151242162Y-104073130D01*
X151197371Y-104114535D01*
X151197370Y-104114536D01*
X151147895Y-104202878D01*
X151128684Y-104262003D01*
X151128682Y-104262013D01*
X151115982Y-104342195D01*
X148284155Y-104342195D01*
X148184059Y-104242099D01*
X147634459Y-103692500D01*
X147599650Y-103672403D01*
X147599648Y-103672401D01*
X147599646Y-103672399D01*
X147564847Y-103652308D01*
X147564844Y-103652307D01*
X147564842Y-103652306D01*
X147487195Y-103631500D01*
X144710063Y-103631500D01*
X144678976Y-103626576D01*
X144655372Y-103618906D01*
X144615326Y-103594366D01*
X144287832Y-103266872D01*
X144269330Y-103241405D01*
X144258063Y-103219290D01*
X144247100Y-103173622D01*
X144247100Y-99742644D01*
X144817300Y-99742644D01*
X144817300Y-102352754D01*
X144845768Y-102458997D01*
X144845769Y-102458999D01*
X144851951Y-102482070D01*
X144851951Y-102482071D01*
X144899658Y-102564700D01*
X144918899Y-102598026D01*
X145013574Y-102692701D01*
X145129526Y-102759647D01*
X145129528Y-102759648D01*
X145129532Y-102759649D01*
X145249017Y-102791665D01*
X145258851Y-102794300D01*
X145258855Y-102794300D01*
X145258857Y-102794300D01*
X145392743Y-102794300D01*
X145392744Y-102794300D01*
X145392745Y-102794300D01*
X145392745Y-102794299D01*
X145392748Y-102794299D01*
X145392750Y-102794299D01*
X145392763Y-102794295D01*
X145394219Y-102793951D01*
X145394231Y-102793949D01*
X145400401Y-102792492D01*
X145402584Y-102791664D01*
X145522070Y-102759648D01*
X145522071Y-102759648D01*
X145522071Y-102759647D01*
X145522074Y-102759647D01*
X145638026Y-102692701D01*
X145732701Y-102598026D01*
X145799647Y-102482074D01*
X145799648Y-102482070D01*
X145799649Y-102482069D01*
X145818207Y-102412808D01*
X145818207Y-102412807D01*
X145834297Y-102352757D01*
X145834298Y-102352752D01*
X145834299Y-102352750D01*
X145834300Y-102352743D01*
X145834300Y-99742656D01*
X145834299Y-99742649D01*
X145831364Y-99731694D01*
X145801419Y-99619937D01*
X145799648Y-99613329D01*
X145799648Y-99613328D01*
X145788431Y-99593900D01*
X145732701Y-99497374D01*
X145638026Y-99402699D01*
X145629236Y-99397624D01*
X145607554Y-99385105D01*
X145607554Y-99385104D01*
X145522072Y-99335751D01*
X145522067Y-99335749D01*
X145392755Y-99301100D01*
X145392750Y-99301100D01*
X145392745Y-99301100D01*
X145258855Y-99301100D01*
X145258849Y-99301100D01*
X145258844Y-99301100D01*
X145142322Y-99332323D01*
X145142320Y-99332323D01*
X145129529Y-99335750D01*
X145013572Y-99402699D01*
X144918901Y-99497371D01*
X144918900Y-99497371D01*
X144851950Y-99613329D01*
X144850180Y-99619937D01*
X144817300Y-99742644D01*
X144247100Y-99742644D01*
X144247100Y-95818044D01*
X146462000Y-95818044D01*
X146462000Y-95951954D01*
X146491700Y-96062792D01*
X146496651Y-96081270D01*
X146496651Y-96081271D01*
X146496653Y-96081274D01*
X146502340Y-96091124D01*
X146502342Y-96091129D01*
X146563599Y-96197226D01*
X146658275Y-96291902D01*
X146709765Y-96321630D01*
X146761256Y-96351358D01*
X146761257Y-96351360D01*
X146774226Y-96358847D01*
X146774228Y-96358848D01*
X146774229Y-96358848D01*
X146774231Y-96358849D01*
X146893717Y-96390865D01*
X146903551Y-96393500D01*
X146903555Y-96393500D01*
X146903557Y-96393500D01*
X147037443Y-96393500D01*
X147037444Y-96393500D01*
X147037445Y-96393500D01*
X147037445Y-96393499D01*
X147037448Y-96393499D01*
X147037450Y-96393499D01*
X147037463Y-96393495D01*
X147038919Y-96393151D01*
X147038931Y-96393149D01*
X147045101Y-96391692D01*
X147047284Y-96390864D01*
X147055386Y-96388693D01*
X147166770Y-96358848D01*
X147166771Y-96358848D01*
X147166771Y-96358847D01*
X147166774Y-96358847D01*
X147282726Y-96291901D01*
X147343594Y-96231033D01*
X147369059Y-96212531D01*
X147379752Y-96207082D01*
X147391176Y-96201263D01*
X147436844Y-96190300D01*
X148812338Y-96190300D01*
X148843420Y-96195222D01*
X148867028Y-96202893D01*
X148907074Y-96227433D01*
X149234567Y-96554926D01*
X149253068Y-96580390D01*
X149264336Y-96602505D01*
X149275300Y-96648176D01*
X149275300Y-97327538D01*
X149270376Y-97358623D01*
X149267212Y-97368363D01*
X149266942Y-97369195D01*
X149230395Y-97419494D01*
X149171264Y-97438706D01*
X149118705Y-97423883D01*
X149113721Y-97420829D01*
X149095147Y-97406187D01*
X148990657Y-97301697D01*
X148599659Y-96910700D01*
X148530041Y-96870506D01*
X148530038Y-96870505D01*
X148530039Y-96870505D01*
X148523204Y-96868673D01*
X148523204Y-96868674D01*
X148468465Y-96854006D01*
X148452397Y-96849700D01*
X148452395Y-96849700D01*
X148452393Y-96849700D01*
X147441930Y-96849700D01*
X147410843Y-96844776D01*
X147387239Y-96837106D01*
X147347193Y-96812566D01*
X147282726Y-96748099D01*
X147166768Y-96681149D01*
X147037455Y-96646500D01*
X147037450Y-96646500D01*
X147037445Y-96646500D01*
X146903555Y-96646500D01*
X146903549Y-96646500D01*
X146903544Y-96646500D01*
X146787022Y-96677723D01*
X146787020Y-96677723D01*
X146774229Y-96681150D01*
X146658272Y-96748099D01*
X146563599Y-96842772D01*
X146496650Y-96958729D01*
X146493223Y-96971521D01*
X146462000Y-97088044D01*
X146462000Y-97221954D01*
X146483368Y-97301697D01*
X146493219Y-97338463D01*
X146493223Y-97338476D01*
X146493223Y-97338478D01*
X146496650Y-97351269D01*
X146555833Y-97453776D01*
X146563597Y-97467224D01*
X146563599Y-97467226D01*
X146658274Y-97561901D01*
X146774226Y-97628847D01*
X146774228Y-97628848D01*
X146774232Y-97628849D01*
X146893717Y-97660865D01*
X146903551Y-97663500D01*
X146903555Y-97663500D01*
X146903557Y-97663500D01*
X147037443Y-97663500D01*
X147037444Y-97663500D01*
X147037445Y-97663500D01*
X147037445Y-97663499D01*
X147037448Y-97663499D01*
X147037450Y-97663499D01*
X147037463Y-97663495D01*
X147038919Y-97663151D01*
X147038931Y-97663149D01*
X147045101Y-97661692D01*
X147047284Y-97660864D01*
X147079137Y-97652329D01*
X147166770Y-97628848D01*
X147166771Y-97628848D01*
X147166771Y-97628847D01*
X147166774Y-97628847D01*
X147282726Y-97561901D01*
X147343594Y-97501033D01*
X147369059Y-97482531D01*
X147381207Y-97476342D01*
X147391176Y-97471263D01*
X147436844Y-97460300D01*
X148228138Y-97460300D01*
X148259220Y-97465222D01*
X148282828Y-97472893D01*
X148322874Y-97497433D01*
X148599567Y-97774126D01*
X148618068Y-97799590D01*
X148629336Y-97821705D01*
X148640300Y-97867376D01*
X148640300Y-98419738D01*
X148635376Y-98450823D01*
X148631942Y-98461395D01*
X148595395Y-98511694D01*
X148536264Y-98530906D01*
X148483708Y-98516085D01*
X148478722Y-98513030D01*
X148460145Y-98498386D01*
X148142461Y-98180702D01*
X148142459Y-98180700D01*
X148089682Y-98150229D01*
X148072842Y-98140506D01*
X147995195Y-98119700D01*
X147441930Y-98119700D01*
X147410843Y-98114776D01*
X147387239Y-98107106D01*
X147347193Y-98082566D01*
X147282726Y-98018099D01*
X147166768Y-97951149D01*
X147037455Y-97916500D01*
X147037450Y-97916500D01*
X147037445Y-97916500D01*
X146903555Y-97916500D01*
X146903549Y-97916500D01*
X146903544Y-97916500D01*
X146787022Y-97947723D01*
X146787020Y-97947723D01*
X146774229Y-97951150D01*
X146658272Y-98018099D01*
X146563599Y-98112772D01*
X146504113Y-98215804D01*
X146496651Y-98228728D01*
X146496651Y-98228729D01*
X146493412Y-98240816D01*
X146493412Y-98240817D01*
X146462000Y-98358044D01*
X146462000Y-98491954D01*
X146493223Y-98608476D01*
X146493223Y-98608478D01*
X146496650Y-98621269D01*
X146496651Y-98621270D01*
X146496651Y-98621271D01*
X146544340Y-98703869D01*
X146563599Y-98737226D01*
X146658274Y-98831901D01*
X146774226Y-98898847D01*
X146774228Y-98898848D01*
X146774232Y-98898849D01*
X146893717Y-98930865D01*
X146903551Y-98933500D01*
X146903555Y-98933500D01*
X146903557Y-98933500D01*
X147037443Y-98933500D01*
X147037444Y-98933500D01*
X147037445Y-98933500D01*
X147037445Y-98933499D01*
X147037448Y-98933499D01*
X147037450Y-98933499D01*
X147037463Y-98933495D01*
X147038919Y-98933151D01*
X147038931Y-98933149D01*
X147045101Y-98931692D01*
X147047284Y-98930864D01*
X147098555Y-98917126D01*
X147166770Y-98898848D01*
X147166771Y-98898848D01*
X147166771Y-98898847D01*
X147166774Y-98898847D01*
X147282726Y-98831901D01*
X147343594Y-98771033D01*
X147369059Y-98752531D01*
X147379752Y-98747082D01*
X147391176Y-98741263D01*
X147436844Y-98730300D01*
X147770938Y-98730300D01*
X147802020Y-98735222D01*
X147825628Y-98742893D01*
X147865674Y-98767433D01*
X148015367Y-98917126D01*
X148033868Y-98942590D01*
X148045136Y-98964705D01*
X148056100Y-99010376D01*
X148056100Y-101767195D01*
X148068726Y-101814315D01*
X148069904Y-101818709D01*
X148069904Y-101818711D01*
X148076903Y-101844836D01*
X148076904Y-101844838D01*
X148076906Y-101844841D01*
X148082020Y-101853698D01*
X148116488Y-101913400D01*
X148117100Y-101914459D01*
X148717040Y-102514400D01*
X148910542Y-102707902D01*
X148910543Y-102707903D01*
X148963399Y-102738417D01*
X148980159Y-102748094D01*
X148980162Y-102748095D01*
X148980165Y-102748096D01*
X149057802Y-102768899D01*
X149057804Y-102768899D01*
X149057807Y-102768900D01*
X149729302Y-102768900D01*
X149760379Y-102773820D01*
X149771393Y-102777399D01*
X149821693Y-102813938D01*
X149840911Y-102873067D01*
X149840911Y-102878025D01*
X149828542Y-102924183D01*
X149828957Y-102924327D01*
X149828768Y-102924870D01*
X149829121Y-102925047D01*
X149827783Y-102927718D01*
X149827779Y-102927726D01*
X149827779Y-102927728D01*
X149793128Y-103057044D01*
X149793128Y-103190954D01*
X149818794Y-103286739D01*
X149827779Y-103320270D01*
X149827779Y-103320271D01*
X149869652Y-103392795D01*
X149894727Y-103436226D01*
X149989402Y-103530901D01*
X150074029Y-103579761D01*
X150105356Y-103597848D01*
X150228207Y-103630765D01*
X150230124Y-103631424D01*
X150233190Y-103632148D01*
X150234587Y-103632500D01*
X150234683Y-103632500D01*
X150234685Y-103632500D01*
X150368571Y-103632500D01*
X150368572Y-103632500D01*
X150368573Y-103632500D01*
X150368573Y-103632499D01*
X150368576Y-103632499D01*
X150368578Y-103632499D01*
X150368591Y-103632495D01*
X150370047Y-103632151D01*
X150370059Y-103632149D01*
X150376229Y-103630692D01*
X150378412Y-103629864D01*
X150400726Y-103623885D01*
X150497898Y-103597848D01*
X150497899Y-103597848D01*
X150497899Y-103597847D01*
X150497902Y-103597847D01*
X150613854Y-103530901D01*
X150613858Y-103530896D01*
X150619085Y-103526886D01*
X150619316Y-103527187D01*
X150638389Y-103513327D01*
X150650470Y-103507170D01*
X150711859Y-103497444D01*
X150716975Y-103498254D01*
X150772375Y-103526471D01*
X150776805Y-103530901D01*
X150861431Y-103579760D01*
X150861432Y-103579762D01*
X150882841Y-103592122D01*
X150892759Y-103597848D01*
X150892760Y-103597848D01*
X150892762Y-103597849D01*
X151012248Y-103629865D01*
X151022082Y-103632500D01*
X151022086Y-103632500D01*
X151022088Y-103632500D01*
X151155974Y-103632500D01*
X151155975Y-103632500D01*
X151155976Y-103632500D01*
X151155976Y-103632499D01*
X151155979Y-103632499D01*
X151155981Y-103632499D01*
X151155994Y-103632495D01*
X151157450Y-103632151D01*
X151157462Y-103632149D01*
X151163632Y-103630692D01*
X151165815Y-103629864D01*
X151188129Y-103623885D01*
X151285301Y-103597848D01*
X151285302Y-103597848D01*
X151285302Y-103597847D01*
X151285305Y-103597847D01*
X151401257Y-103530901D01*
X151401261Y-103530896D01*
X151406488Y-103526886D01*
X151406719Y-103527187D01*
X151425792Y-103513327D01*
X151437873Y-103507170D01*
X151499262Y-103497444D01*
X151504378Y-103498254D01*
X151559778Y-103526471D01*
X151564208Y-103530901D01*
X151648834Y-103579760D01*
X151648835Y-103579762D01*
X151670244Y-103592122D01*
X151680162Y-103597848D01*
X151680163Y-103597848D01*
X151680165Y-103597849D01*
X151799651Y-103629865D01*
X151809485Y-103632500D01*
X151809489Y-103632500D01*
X151809491Y-103632500D01*
X151943377Y-103632500D01*
X151943378Y-103632500D01*
X151943379Y-103632500D01*
X151943379Y-103632499D01*
X151943382Y-103632499D01*
X151943384Y-103632499D01*
X151943397Y-103632495D01*
X151944853Y-103632151D01*
X151944865Y-103632149D01*
X151951035Y-103630692D01*
X151953218Y-103629864D01*
X151975532Y-103623885D01*
X152072704Y-103597848D01*
X152072705Y-103597848D01*
X152072705Y-103597847D01*
X152072708Y-103597847D01*
X152188660Y-103530901D01*
X152283335Y-103436226D01*
X152350281Y-103320274D01*
X152354439Y-103304758D01*
X152375504Y-103226140D01*
X152384931Y-103190957D01*
X152384932Y-103190952D01*
X152384933Y-103190950D01*
X152384934Y-103190943D01*
X152384934Y-103057056D01*
X152384933Y-103057049D01*
X152350282Y-102927729D01*
X152350282Y-102927728D01*
X152345705Y-102919801D01*
X152298715Y-102838413D01*
X152283336Y-102811775D01*
X152222466Y-102750905D01*
X152203964Y-102725438D01*
X152192697Y-102703323D01*
X152181734Y-102657655D01*
X152181734Y-101772843D01*
X152181729Y-101772823D01*
X152181245Y-101771017D01*
X152180221Y-101767195D01*
X152160928Y-101695193D01*
X152148605Y-101673849D01*
X152120734Y-101625575D01*
X151469859Y-100974700D01*
X151428495Y-100950818D01*
X151400242Y-100934506D01*
X151398762Y-100934109D01*
X151396436Y-100933486D01*
X151396416Y-100933480D01*
X151322599Y-100913700D01*
X151322595Y-100913700D01*
X151322593Y-100913700D01*
X150069465Y-100913700D01*
X150050208Y-100911840D01*
X150041963Y-100910232D01*
X150039239Y-100908720D01*
X150038369Y-100908773D01*
X150034477Y-100907508D01*
X150034786Y-100906554D01*
X150020731Y-100902589D01*
X150020447Y-100903276D01*
X150016806Y-100901767D01*
X150016803Y-100901766D01*
X150016799Y-100901764D01*
X150016795Y-100901763D01*
X150014770Y-100901105D01*
X150013857Y-100900545D01*
X150013141Y-100900249D01*
X150013188Y-100900135D01*
X149974723Y-100876564D01*
X149926632Y-100828473D01*
X149908130Y-100803006D01*
X149896863Y-100780891D01*
X149885900Y-100735223D01*
X149885900Y-96429009D01*
X149885890Y-96428972D01*
X149885828Y-96428742D01*
X149885048Y-96425827D01*
X149865094Y-96351359D01*
X149863690Y-96348928D01*
X149847997Y-96321746D01*
X149847996Y-96321745D01*
X149824901Y-96281741D01*
X149183859Y-95640700D01*
X149131082Y-95610229D01*
X149114242Y-95600506D01*
X149036595Y-95579700D01*
X147441930Y-95579700D01*
X147410843Y-95574776D01*
X147387239Y-95567106D01*
X147347193Y-95542566D01*
X147282726Y-95478099D01*
X147166768Y-95411149D01*
X147037455Y-95376500D01*
X147037450Y-95376500D01*
X147037445Y-95376500D01*
X146903555Y-95376500D01*
X146903549Y-95376500D01*
X146903544Y-95376500D01*
X146787022Y-95407723D01*
X146787020Y-95407723D01*
X146774229Y-95411150D01*
X146658272Y-95478099D01*
X146563599Y-95572772D01*
X146496650Y-95688729D01*
X146493223Y-95701521D01*
X146462000Y-95818044D01*
X144247100Y-95818044D01*
X144247100Y-95002261D01*
X144252022Y-94971180D01*
X144259693Y-94947569D01*
X144284231Y-94907527D01*
X145272129Y-93919629D01*
X145297591Y-93901131D01*
X145308284Y-93895682D01*
X145319708Y-93889863D01*
X145365376Y-93878900D01*
X159348991Y-93878900D01*
X159348993Y-93878900D01*
X159426641Y-93858094D01*
X159496259Y-93817900D01*
X160238901Y-93075259D01*
X160248990Y-93057785D01*
X160279094Y-93005641D01*
X160279094Y-93005640D01*
X160289503Y-92966793D01*
X160299900Y-92927993D01*
X160299900Y-89333061D01*
X160304822Y-89301980D01*
X160312493Y-89278369D01*
X160337031Y-89238327D01*
X160649329Y-88926029D01*
X160674791Y-88907531D01*
X160685484Y-88902082D01*
X160696908Y-88896263D01*
X160742576Y-88885300D01*
X160833744Y-88885300D01*
X160833745Y-88885300D01*
X160833745Y-88885299D01*
X160833748Y-88885299D01*
X160833750Y-88885299D01*
X160833763Y-88885295D01*
X160835219Y-88884951D01*
X160835231Y-88884949D01*
X160841401Y-88883492D01*
X160843584Y-88882664D01*
X160963070Y-88850648D01*
X160963071Y-88850648D01*
X160963071Y-88850647D01*
X160963074Y-88850647D01*
X161079026Y-88783701D01*
X161173701Y-88689026D01*
X161240647Y-88573074D01*
X161240648Y-88573071D01*
X161240649Y-88573069D01*
X161267997Y-88471002D01*
X161267998Y-88470998D01*
X161275297Y-88443760D01*
X161275297Y-88443754D01*
X161275299Y-88443750D01*
X161275300Y-88443743D01*
X161275300Y-88309856D01*
X161275299Y-88309849D01*
X161241022Y-88181926D01*
X161240692Y-88180616D01*
X161240650Y-88180532D01*
X161207185Y-88122570D01*
X161173701Y-88064574D01*
X161079026Y-87969899D01*
X161069576Y-87964443D01*
X161045493Y-87950538D01*
X160963068Y-87902949D01*
X160833755Y-87868300D01*
X160833750Y-87868300D01*
X160833745Y-87868300D01*
X160699855Y-87868300D01*
X160699849Y-87868300D01*
X160699844Y-87868300D01*
X160583322Y-87899523D01*
X160583320Y-87899523D01*
X160570529Y-87902950D01*
X160454572Y-87969899D01*
X160359899Y-88064572D01*
X160292950Y-88180529D01*
X160289523Y-88193321D01*
X160258300Y-88309844D01*
X160258300Y-88395936D01*
X160253376Y-88427021D01*
X160247941Y-88443750D01*
X160245707Y-88450626D01*
X160221166Y-88490672D01*
X159750301Y-88961538D01*
X159750299Y-88961540D01*
X159750299Y-88961541D01*
X159722906Y-89008990D01*
X159710109Y-89031151D01*
X159710099Y-89031180D01*
X159689300Y-89108801D01*
X159689300Y-92703737D01*
X159684376Y-92734822D01*
X159676707Y-92758427D01*
X159652166Y-92798473D01*
X159223073Y-93227567D01*
X159197611Y-93246067D01*
X159175497Y-93257335D01*
X159129824Y-93268300D01*
X145146201Y-93268300D01*
X145103573Y-93279723D01*
X145103572Y-93279722D01*
X145089375Y-93283528D01*
X145089364Y-93283531D01*
X145078961Y-93286318D01*
X145078959Y-93286318D01*
X145068561Y-93289104D01*
X145068554Y-93289107D01*
X144998941Y-93329298D01*
X144998940Y-93329300D01*
X143697502Y-94630737D01*
X143657306Y-94700357D01*
X143640870Y-94761697D01*
X143636500Y-94778004D01*
X131902700Y-94778004D01*
X131902700Y-93457213D01*
X131902700Y-93457209D01*
X131902700Y-93457208D01*
X131902699Y-93457202D01*
X131893123Y-93421465D01*
X131881903Y-93379589D01*
X131881899Y-93379576D01*
X131881896Y-93379565D01*
X131881895Y-93379562D01*
X131881894Y-93379559D01*
X131872217Y-93362799D01*
X131841703Y-93309943D01*
X131841702Y-93309942D01*
X131663397Y-93131637D01*
X130997459Y-92465700D01*
X130962650Y-92445603D01*
X130962648Y-92445601D01*
X130962646Y-92445599D01*
X130927847Y-92425508D01*
X130927844Y-92425507D01*
X130927842Y-92425506D01*
X130850195Y-92404700D01*
X130324259Y-92404700D01*
X130293173Y-92399776D01*
X130282604Y-92396342D01*
X130232303Y-92359798D01*
X130213090Y-92300667D01*
X130227910Y-92248109D01*
X130230970Y-92243116D01*
X130245606Y-92224549D01*
X130358462Y-92111694D01*
X130358463Y-92111692D01*
X130358464Y-92111690D01*
X130360821Y-92108420D01*
X130361968Y-92106446D01*
X130371254Y-92092550D01*
X130473776Y-91939114D01*
X130553207Y-91747353D01*
X130593700Y-91543780D01*
X130593700Y-91336220D01*
X130553207Y-91132647D01*
X130473776Y-90940886D01*
X130459492Y-90919508D01*
X130437682Y-90886866D01*
X130437677Y-90886861D01*
X130358463Y-90768307D01*
X130211692Y-90621536D01*
X130211690Y-90621534D01*
X130039128Y-90506232D01*
X130039122Y-90506229D01*
X130039118Y-90506226D01*
X130039112Y-90506223D01*
X130039111Y-90506222D01*
X130039103Y-90506219D01*
X129964458Y-90475300D01*
X129926418Y-90459543D01*
X129916281Y-90455344D01*
X129893630Y-90435997D01*
X129677026Y-90392913D01*
X129677001Y-90392908D01*
X129643780Y-90386300D01*
X129643779Y-90386300D01*
X129436221Y-90386300D01*
X129436220Y-90386300D01*
X129402999Y-90392908D01*
X129402974Y-90392913D01*
X129232647Y-90426792D01*
X129181052Y-90448164D01*
X129124370Y-90471643D01*
X129115657Y-90475252D01*
X129085045Y-90482600D01*
X129069367Y-90483833D01*
X129012326Y-90471317D01*
X129003444Y-90466343D01*
X128981463Y-90449704D01*
X128457459Y-89925700D01*
X128457460Y-89925700D01*
X128416095Y-89901818D01*
X128416095Y-89901817D01*
X128387845Y-89885507D01*
X128387842Y-89885506D01*
X128310195Y-89864700D01*
X127784259Y-89864700D01*
X127753173Y-89859776D01*
X127742604Y-89856342D01*
X127692303Y-89819798D01*
X127673090Y-89760667D01*
X127687910Y-89708109D01*
X127690970Y-89703116D01*
X127705606Y-89684549D01*
X127818462Y-89571694D01*
X127818463Y-89571692D01*
X127818464Y-89571690D01*
X127820819Y-89568423D01*
X127821965Y-89566449D01*
X127932258Y-89401383D01*
X127933399Y-89399773D01*
X127933778Y-89399110D01*
X127961136Y-89333061D01*
X128013207Y-89207353D01*
X128053700Y-89003780D01*
X128053700Y-88796220D01*
X128486300Y-88796220D01*
X128486300Y-89003779D01*
X128512327Y-89134627D01*
X128526792Y-89207351D01*
X128606222Y-89399110D01*
X128606232Y-89399128D01*
X128721534Y-89571690D01*
X128868308Y-89718464D01*
X128932040Y-89761048D01*
X129040881Y-89833773D01*
X129040883Y-89833774D01*
X129040886Y-89833776D01*
X129232647Y-89913207D01*
X129436220Y-89953700D01*
X129436221Y-89953700D01*
X129643779Y-89953700D01*
X129643780Y-89953700D01*
X129847353Y-89913207D01*
X130039114Y-89833776D01*
X130211694Y-89718462D01*
X130358462Y-89571694D01*
X130473776Y-89399114D01*
X130473783Y-89399099D01*
X130516170Y-89296768D01*
X130522236Y-89282123D01*
X130538678Y-89255290D01*
X130548894Y-89243328D01*
X130598085Y-89211840D01*
X130607893Y-89209074D01*
X130635189Y-89205300D01*
X138220538Y-89205300D01*
X138251620Y-89210222D01*
X138275228Y-89217893D01*
X138315274Y-89242433D01*
X138478567Y-89405726D01*
X138497068Y-89431190D01*
X138508336Y-89453305D01*
X138519300Y-89498976D01*
X138519300Y-90938464D01*
X138520938Y-90946700D01*
X138531117Y-90997878D01*
X138533464Y-91002268D01*
X138536624Y-91006119D01*
X138576140Y-91065260D01*
X138643520Y-91110281D01*
X138702936Y-91122100D01*
X138702937Y-91122100D01*
X140443063Y-91122100D01*
X140443064Y-91122100D01*
X140502480Y-91110281D01*
X140569860Y-91065260D01*
X140614881Y-90997880D01*
X140626700Y-90938464D01*
X140626700Y-90490232D01*
X140631623Y-90459147D01*
X140635812Y-90446253D01*
X140672354Y-90395957D01*
X140676553Y-90392907D01*
X140735677Y-90373700D01*
X141015791Y-90373700D01*
X141046875Y-90378623D01*
X141061829Y-90383481D01*
X141109747Y-90416878D01*
X141116052Y-90424876D01*
X141129991Y-90448658D01*
X141179216Y-90567499D01*
X141179223Y-90567512D01*
X141179226Y-90567518D01*
X141294534Y-90740090D01*
X141441308Y-90886864D01*
X141599211Y-90992371D01*
X141613881Y-91002173D01*
X141613883Y-91002174D01*
X141613886Y-91002176D01*
X141805647Y-91081607D01*
X142009220Y-91122100D01*
X142009221Y-91122100D01*
X142216779Y-91122100D01*
X142216780Y-91122100D01*
X142420353Y-91081607D01*
X142612114Y-91002176D01*
X142784694Y-90886862D01*
X142931462Y-90740094D01*
X143046776Y-90567514D01*
X143126207Y-90375753D01*
X143166700Y-90172180D01*
X143166700Y-89964620D01*
X143126207Y-89761047D01*
X143046776Y-89569286D01*
X142933068Y-89399110D01*
X142931463Y-89396707D01*
X142784692Y-89249936D01*
X142784690Y-89249934D01*
X142612128Y-89134632D01*
X142612119Y-89134627D01*
X142612118Y-89134626D01*
X142612110Y-89134622D01*
X142546312Y-89107367D01*
X142489280Y-89083743D01*
X142466629Y-89064397D01*
X142420351Y-89055192D01*
X142420352Y-89055192D01*
X142257272Y-89022754D01*
X142257271Y-89022753D01*
X142216780Y-89014700D01*
X142009220Y-89014700D01*
X141968728Y-89022753D01*
X141968728Y-89022754D01*
X141926367Y-89031180D01*
X141805647Y-89055192D01*
X141766178Y-89071541D01*
X141613889Y-89134622D01*
X141613886Y-89134623D01*
X141613870Y-89134632D01*
X141440942Y-89250178D01*
X141439067Y-89252176D01*
X141296778Y-89394466D01*
X141294777Y-89396344D01*
X141179226Y-89569280D01*
X141179223Y-89569286D01*
X141179216Y-89569299D01*
X141130763Y-89686277D01*
X141114319Y-89713112D01*
X141109751Y-89718462D01*
X141104107Y-89725070D01*
X141054922Y-89756557D01*
X141045124Y-89759321D01*
X141017811Y-89763100D01*
X140743233Y-89763100D01*
X140712144Y-89758175D01*
X140703479Y-89755360D01*
X140699251Y-89753986D01*
X140648958Y-89717445D01*
X140645915Y-89713257D01*
X140626700Y-89654127D01*
X140626700Y-89198336D01*
X140614881Y-89138920D01*
X140612012Y-89134626D01*
X140612010Y-89134622D01*
X140569861Y-89071541D01*
X140569859Y-89071539D01*
X140545395Y-89055193D01*
X140524838Y-89041457D01*
X140502479Y-89026518D01*
X140502476Y-89026517D01*
X140502475Y-89026517D01*
X140454878Y-89017049D01*
X140454878Y-89017048D01*
X140443068Y-89014700D01*
X140443064Y-89014700D01*
X140443063Y-89014700D01*
X139008662Y-89014700D01*
X138977575Y-89009776D01*
X138953971Y-89002106D01*
X138913925Y-88977566D01*
X138592059Y-88655700D01*
X138592060Y-88655700D01*
X138550695Y-88631818D01*
X138550695Y-88631817D01*
X138522445Y-88615507D01*
X138522442Y-88615506D01*
X138444795Y-88594700D01*
X130637209Y-88594700D01*
X130606122Y-88589776D01*
X130591166Y-88584916D01*
X130543252Y-88551521D01*
X130536947Y-88543523D01*
X130523008Y-88519741D01*
X130473782Y-88400899D01*
X130473780Y-88400896D01*
X130473778Y-88400890D01*
X130473773Y-88400881D01*
X130412952Y-88309856D01*
X130358464Y-88228308D01*
X130211690Y-88081534D01*
X130039128Y-87966232D01*
X130039122Y-87966229D01*
X130039118Y-87966226D01*
X130039110Y-87966222D01*
X129973312Y-87938967D01*
X129973311Y-87938966D01*
X129916281Y-87915344D01*
X129893627Y-87895995D01*
X129674513Y-87852413D01*
X129674512Y-87852413D01*
X129643780Y-87846300D01*
X129643779Y-87846300D01*
X129436221Y-87846300D01*
X129436220Y-87846300D01*
X129405488Y-87852413D01*
X129405487Y-87852413D01*
X129232648Y-87886791D01*
X129040886Y-87966223D01*
X129040885Y-87966224D01*
X129040870Y-87966232D01*
X128867942Y-88081778D01*
X128866067Y-88083776D01*
X128723776Y-88226067D01*
X128721778Y-88227942D01*
X128606232Y-88400870D01*
X128606224Y-88400885D01*
X128606223Y-88400886D01*
X128526792Y-88592647D01*
X128500296Y-88725854D01*
X128486300Y-88796220D01*
X128053700Y-88796220D01*
X128013207Y-88592647D01*
X127954379Y-88450626D01*
X127933777Y-88400888D01*
X127933775Y-88400885D01*
X127933772Y-88400881D01*
X127926556Y-88390081D01*
X127897682Y-88346866D01*
X127897677Y-88346861D01*
X127818463Y-88228307D01*
X127671692Y-88081536D01*
X127671690Y-88081534D01*
X127499128Y-87966232D01*
X127499122Y-87966229D01*
X127499118Y-87966226D01*
X127499110Y-87966222D01*
X127433312Y-87938967D01*
X127433311Y-87938966D01*
X127376281Y-87915344D01*
X127353627Y-87895995D01*
X127134513Y-87852413D01*
X127134512Y-87852413D01*
X127103780Y-87846300D01*
X127103779Y-87846300D01*
X126896221Y-87846300D01*
X126896220Y-87846300D01*
X126865488Y-87852413D01*
X126865487Y-87852413D01*
X126692648Y-87886791D01*
X126500886Y-87966223D01*
X126500885Y-87966224D01*
X126500870Y-87966232D01*
X126327942Y-88081778D01*
X126326067Y-88083776D01*
X126183776Y-88226067D01*
X126181779Y-88227942D01*
X126066226Y-88400880D01*
X126066223Y-88400886D01*
X126066216Y-88400899D01*
X126017763Y-88517877D01*
X126001319Y-88544712D01*
X125995505Y-88551521D01*
X125991107Y-88556670D01*
X125941922Y-88588157D01*
X125932124Y-88590921D01*
X125904811Y-88594700D01*
X125588199Y-88594700D01*
X125510565Y-88615503D01*
X125510553Y-88615508D01*
X125510547Y-88615511D01*
X125440942Y-88655696D01*
X125440941Y-88655696D01*
X125440942Y-88655697D01*
X124647500Y-89449140D01*
X124647496Y-89449145D01*
X124607308Y-89518751D01*
X124586500Y-89596403D01*
X124206500Y-89596403D01*
X124206500Y-87424620D01*
X138519300Y-87424620D01*
X138519300Y-87632179D01*
X138559792Y-87835751D01*
X138639222Y-88027510D01*
X138639226Y-88027518D01*
X138639227Y-88027519D01*
X138639232Y-88027528D01*
X138754534Y-88200090D01*
X138901308Y-88346864D01*
X139046298Y-88443743D01*
X139073881Y-88462173D01*
X139073883Y-88462174D01*
X139073886Y-88462176D01*
X139265647Y-88541607D01*
X139469220Y-88582100D01*
X139469221Y-88582100D01*
X139676779Y-88582100D01*
X139676780Y-88582100D01*
X139880353Y-88541607D01*
X140072114Y-88462176D01*
X140244694Y-88346862D01*
X140391462Y-88200094D01*
X140506776Y-88027514D01*
X140586207Y-87835753D01*
X140626700Y-87632180D01*
X140626700Y-87424620D01*
X141059300Y-87424620D01*
X141059300Y-87632179D01*
X141099792Y-87835751D01*
X141179222Y-88027510D01*
X141179226Y-88027518D01*
X141179227Y-88027519D01*
X141179232Y-88027528D01*
X141294534Y-88200090D01*
X141441308Y-88346864D01*
X141586298Y-88443743D01*
X141613881Y-88462173D01*
X141613883Y-88462174D01*
X141613886Y-88462176D01*
X141805647Y-88541607D01*
X142009220Y-88582100D01*
X142009221Y-88582100D01*
X142216779Y-88582100D01*
X142216780Y-88582100D01*
X142420353Y-88541607D01*
X142612114Y-88462176D01*
X142784694Y-88346862D01*
X142931462Y-88200094D01*
X142941511Y-88185055D01*
X149491500Y-88185055D01*
X149491500Y-88191076D01*
X149491500Y-88318960D01*
X149521416Y-88430607D01*
X149521418Y-88430612D01*
X149526151Y-88448276D01*
X149526151Y-88448277D01*
X149526153Y-88448280D01*
X149588732Y-88556670D01*
X149593100Y-88564234D01*
X149687773Y-88658907D01*
X149687772Y-88658907D01*
X149769435Y-88706055D01*
X149803715Y-88725847D01*
X149803726Y-88725853D01*
X149803728Y-88725854D01*
X149803732Y-88725855D01*
X149923217Y-88757871D01*
X149933051Y-88760506D01*
X149933055Y-88760506D01*
X150760169Y-88760506D01*
X150791251Y-88765428D01*
X150814859Y-88773099D01*
X150854905Y-88797639D01*
X151342767Y-89285500D01*
X151361268Y-89310964D01*
X151372536Y-89333079D01*
X151383500Y-89378750D01*
X151383500Y-91080654D01*
X151405076Y-91161175D01*
X151418151Y-91209970D01*
X151418151Y-91209971D01*
X151418153Y-91209974D01*
X151423840Y-91219824D01*
X151423842Y-91219829D01*
X151485099Y-91325926D01*
X151579774Y-91420601D01*
X151695726Y-91487547D01*
X151695728Y-91487548D01*
X151695732Y-91487549D01*
X151815217Y-91519565D01*
X151825051Y-91522200D01*
X151825055Y-91522200D01*
X151825057Y-91522200D01*
X151958943Y-91522200D01*
X151958944Y-91522200D01*
X151958945Y-91522200D01*
X151958945Y-91522199D01*
X151958948Y-91522199D01*
X151958950Y-91522199D01*
X151958963Y-91522195D01*
X151960419Y-91521851D01*
X151960431Y-91521849D01*
X151966601Y-91520392D01*
X151968784Y-91519564D01*
X152088270Y-91487548D01*
X152088271Y-91487548D01*
X152088271Y-91487547D01*
X152088274Y-91487547D01*
X152204226Y-91420601D01*
X152298901Y-91325926D01*
X152365847Y-91209974D01*
X152365848Y-91209970D01*
X152365849Y-91209969D01*
X152386566Y-91132650D01*
X152386566Y-91132648D01*
X152400496Y-91080661D01*
X152400498Y-91080654D01*
X152400499Y-91080650D01*
X152400500Y-91080643D01*
X152400500Y-89048662D01*
X152400499Y-89048655D01*
X152395809Y-89031151D01*
X152365855Y-88919359D01*
X152365846Y-88919330D01*
X152365845Y-88919327D01*
X152364776Y-88916950D01*
X152358123Y-88896605D01*
X152355548Y-88884492D01*
X152362045Y-88822658D01*
X152403643Y-88776456D01*
X152407955Y-88773967D01*
X152458236Y-88760500D01*
X154866944Y-88760500D01*
X154866945Y-88760500D01*
X154866945Y-88760499D01*
X154866948Y-88760499D01*
X154866950Y-88760499D01*
X154866963Y-88760495D01*
X154868419Y-88760151D01*
X154868431Y-88760149D01*
X154874601Y-88758692D01*
X154876784Y-88757864D01*
X154996248Y-88725854D01*
X154996270Y-88725848D01*
X154996271Y-88725848D01*
X154996271Y-88725847D01*
X154996274Y-88725847D01*
X155112226Y-88658901D01*
X155206901Y-88564226D01*
X155273847Y-88448274D01*
X155307727Y-88321826D01*
X155308157Y-88320398D01*
X155308497Y-88318956D01*
X155308499Y-88318950D01*
X155308500Y-88318943D01*
X155308500Y-88185056D01*
X155308499Y-88185049D01*
X155273848Y-88055729D01*
X155273848Y-88055728D01*
X155257561Y-88027518D01*
X155206901Y-87939774D01*
X155112226Y-87845099D01*
X155076321Y-87824369D01*
X155041903Y-87804497D01*
X154996268Y-87778149D01*
X154866955Y-87743500D01*
X154866950Y-87743500D01*
X154866945Y-87743500D01*
X151577945Y-87743500D01*
X149933061Y-87743500D01*
X149933055Y-87743500D01*
X149933050Y-87743500D01*
X149816528Y-87774723D01*
X149816526Y-87774723D01*
X149803735Y-87778150D01*
X149687775Y-87845101D01*
X149593101Y-87939775D01*
X149526150Y-88055735D01*
X149522885Y-88067919D01*
X149522859Y-88068020D01*
X149491500Y-88185055D01*
X142941511Y-88185055D01*
X143046776Y-88027514D01*
X143126207Y-87835753D01*
X143166700Y-87632180D01*
X143166700Y-87424620D01*
X143126207Y-87221047D01*
X143046776Y-87029286D01*
X143046765Y-87029270D01*
X142931463Y-86856707D01*
X142784690Y-86709934D01*
X142612112Y-86594622D01*
X142495122Y-86546162D01*
X142468287Y-86529717D01*
X142456329Y-86519504D01*
X142424839Y-86470310D01*
X142422074Y-86460507D01*
X142418300Y-86433208D01*
X142418300Y-84872692D01*
X147376300Y-84872692D01*
X147376300Y-86111306D01*
X147403343Y-86247266D01*
X147452765Y-86366581D01*
X147452768Y-86366587D01*
X147456387Y-86375323D01*
X147456388Y-86375326D01*
X147456389Y-86375327D01*
X147533400Y-86490583D01*
X147631417Y-86588600D01*
X147746673Y-86665611D01*
X147810705Y-86692134D01*
X147871444Y-86717293D01*
X147874198Y-86718550D01*
X147966319Y-86736873D01*
X148010692Y-86745700D01*
X148010693Y-86745700D01*
X148149307Y-86745700D01*
X148149308Y-86745700D01*
X148285262Y-86718657D01*
X148413327Y-86665611D01*
X148528583Y-86588600D01*
X148626600Y-86490583D01*
X148703611Y-86375327D01*
X148756657Y-86247262D01*
X148783700Y-86111308D01*
X148783700Y-85284387D01*
X148787022Y-85274161D01*
X148785899Y-85263469D01*
X148788623Y-85253303D01*
X148791212Y-85245335D01*
X148800577Y-85232444D01*
X148802913Y-85225256D01*
X148816987Y-85209625D01*
X148817473Y-85209186D01*
X148827754Y-85195036D01*
X148886884Y-85175821D01*
X148927538Y-85189028D01*
X148940654Y-85191817D01*
X148942528Y-85193898D01*
X148946015Y-85195031D01*
X148949487Y-85197554D01*
X148977473Y-85228636D01*
X149046285Y-85347821D01*
X149154178Y-85455714D01*
X149154177Y-85455714D01*
X149225512Y-85496899D01*
X149286322Y-85532008D01*
X149286323Y-85532008D01*
X149286325Y-85532009D01*
X149430795Y-85570720D01*
X149430798Y-85570721D01*
X149433705Y-85571500D01*
X149433707Y-85571500D01*
X149433709Y-85571500D01*
X149586291Y-85571500D01*
X149586293Y-85571500D01*
X149589201Y-85570721D01*
X149673917Y-85548021D01*
X149733678Y-85532008D01*
X149865821Y-85455715D01*
X149973715Y-85347821D01*
X150050008Y-85215678D01*
X150076154Y-85118102D01*
X150089499Y-85068297D01*
X150089500Y-85068291D01*
X150089500Y-84915708D01*
X150089499Y-84915702D01*
X150089498Y-84915699D01*
X154710500Y-84915699D01*
X154710500Y-85068299D01*
X154749989Y-85215672D01*
X154749991Y-85215678D01*
X154826283Y-85347819D01*
X154826285Y-85347821D01*
X154934178Y-85455714D01*
X154934177Y-85455714D01*
X155005512Y-85496899D01*
X155066322Y-85532008D01*
X155066323Y-85532008D01*
X155066325Y-85532009D01*
X155210795Y-85570720D01*
X155210798Y-85570721D01*
X155213705Y-85571500D01*
X155213707Y-85571500D01*
X155213709Y-85571500D01*
X155366291Y-85571500D01*
X155366293Y-85571500D01*
X155369201Y-85570721D01*
X155453917Y-85548021D01*
X155513678Y-85532008D01*
X155645821Y-85455715D01*
X155753715Y-85347821D01*
X155820612Y-85231951D01*
X155828598Y-85224761D01*
X155832969Y-85214943D01*
X155840405Y-85207505D01*
X155846645Y-85201886D01*
X155861198Y-85195407D01*
X155866814Y-85190351D01*
X155886812Y-85183853D01*
X155887458Y-85183715D01*
X155903442Y-85176599D01*
X155964257Y-85189525D01*
X155992854Y-85221283D01*
X156002820Y-85230256D01*
X156003403Y-85232998D01*
X156005858Y-85235725D01*
X156007600Y-85239637D01*
X156016300Y-85280560D01*
X156016300Y-86111306D01*
X156043343Y-86247266D01*
X156092765Y-86366581D01*
X156092768Y-86366587D01*
X156096387Y-86375323D01*
X156096388Y-86375326D01*
X156096389Y-86375327D01*
X156173400Y-86490583D01*
X156271417Y-86588600D01*
X156386673Y-86665611D01*
X156450705Y-86692134D01*
X156511444Y-86717293D01*
X156514198Y-86718550D01*
X156606319Y-86736873D01*
X156650692Y-86745700D01*
X156650693Y-86745700D01*
X156789307Y-86745700D01*
X156789308Y-86745700D01*
X156925262Y-86718657D01*
X157053327Y-86665611D01*
X157168583Y-86588600D01*
X157266600Y-86490583D01*
X157343611Y-86375327D01*
X157396657Y-86247262D01*
X157423700Y-86111308D01*
X157423700Y-84872692D01*
X157396657Y-84736738D01*
X157343611Y-84608673D01*
X157266600Y-84493417D01*
X157168583Y-84395400D01*
X157053327Y-84318389D01*
X157053328Y-84318389D01*
X157053326Y-84318388D01*
X157053323Y-84318387D01*
X156925264Y-84265343D01*
X156834626Y-84247314D01*
X156834626Y-84247313D01*
X156789308Y-84238300D01*
X156650692Y-84238300D01*
X156616703Y-84245060D01*
X156616700Y-84245060D01*
X156514733Y-84265343D01*
X156389978Y-84317018D01*
X156387835Y-84317818D01*
X156386677Y-84318385D01*
X156271414Y-84395402D01*
X156173403Y-84493413D01*
X156171034Y-84495781D01*
X156167895Y-84501655D01*
X156154411Y-84521835D01*
X156139092Y-84544762D01*
X156096386Y-84608675D01*
X156095817Y-84609836D01*
X156095016Y-84611985D01*
X156043343Y-84736732D01*
X156036123Y-84773031D01*
X156036074Y-84773117D01*
X156025230Y-84802558D01*
X156021137Y-84809867D01*
X156009502Y-84820622D01*
X156005818Y-84827209D01*
X155999973Y-84832623D01*
X155993068Y-84835814D01*
X155975482Y-84852072D01*
X155951842Y-84854870D01*
X155943536Y-84858710D01*
X155934503Y-84856922D01*
X155913739Y-84859381D01*
X155895603Y-84849226D01*
X155882544Y-84846642D01*
X155873443Y-84836817D01*
X155859496Y-84829007D01*
X155857744Y-84827112D01*
X155847867Y-84809204D01*
X155840294Y-84801028D01*
X155839447Y-84793938D01*
X155834439Y-84784857D01*
X155830009Y-84768325D01*
X155830007Y-84768320D01*
X155776806Y-84676174D01*
X155753716Y-84636181D01*
X155753715Y-84636179D01*
X155726207Y-84608671D01*
X155686891Y-84569354D01*
X155674360Y-84544762D01*
X155645821Y-84528285D01*
X155645822Y-84528285D01*
X155562017Y-84479900D01*
X155513678Y-84451991D01*
X155513672Y-84451989D01*
X155366299Y-84412500D01*
X155366297Y-84412500D01*
X155366293Y-84412500D01*
X155213707Y-84412500D01*
X155213702Y-84412500D01*
X155213699Y-84412500D01*
X155066326Y-84451989D01*
X155066320Y-84451991D01*
X154934179Y-84528283D01*
X154934178Y-84528285D01*
X154826285Y-84636178D01*
X154826283Y-84636179D01*
X154749991Y-84768320D01*
X154749989Y-84768326D01*
X154710500Y-84915699D01*
X150089498Y-84915699D01*
X150050009Y-84768325D01*
X150050007Y-84768320D01*
X149996806Y-84676174D01*
X149973715Y-84636179D01*
X149946207Y-84608671D01*
X149906891Y-84569354D01*
X149894360Y-84544762D01*
X149865821Y-84528285D01*
X149865822Y-84528285D01*
X149782017Y-84479900D01*
X149733678Y-84451991D01*
X149733672Y-84451989D01*
X149586299Y-84412500D01*
X149586297Y-84412500D01*
X149586293Y-84412500D01*
X149433707Y-84412500D01*
X149433702Y-84412500D01*
X149433699Y-84412500D01*
X149286326Y-84451989D01*
X149286320Y-84451991D01*
X149154179Y-84528283D01*
X149154178Y-84528285D01*
X149046285Y-84636178D01*
X149046283Y-84636179D01*
X148969993Y-84768316D01*
X148969988Y-84768331D01*
X148966943Y-84779691D01*
X148966875Y-84779795D01*
X148954145Y-84808433D01*
X148949583Y-84815458D01*
X148937276Y-84825423D01*
X148933171Y-84831753D01*
X148926986Y-84836773D01*
X148919883Y-84839508D01*
X148901265Y-84854586D01*
X148877503Y-84855831D01*
X148868967Y-84859119D01*
X148860067Y-84856745D01*
X148839176Y-84857840D01*
X148821752Y-84846524D01*
X148808893Y-84843095D01*
X148800448Y-84832690D01*
X148787032Y-84823978D01*
X148787028Y-84823974D01*
X148785395Y-84821957D01*
X148776723Y-84803459D01*
X148769711Y-84794820D01*
X148769329Y-84787688D01*
X148764922Y-84778288D01*
X148758345Y-84745222D01*
X148756657Y-84736737D01*
X148756657Y-84736736D01*
X148704972Y-84611959D01*
X148704176Y-84609827D01*
X148703610Y-84608671D01*
X148685454Y-84581498D01*
X148685454Y-84581499D01*
X148626600Y-84493417D01*
X148528583Y-84395400D01*
X148413327Y-84318389D01*
X148413328Y-84318389D01*
X148413326Y-84318388D01*
X148413323Y-84318387D01*
X148285264Y-84265343D01*
X148194626Y-84247314D01*
X148194626Y-84247313D01*
X148149308Y-84238300D01*
X148010692Y-84238300D01*
X147976703Y-84245060D01*
X147976700Y-84245060D01*
X147874733Y-84265343D01*
X147749978Y-84317018D01*
X147747835Y-84317818D01*
X147746677Y-84318385D01*
X147631414Y-84395402D01*
X147533403Y-84493413D01*
X147531034Y-84495781D01*
X147527895Y-84501655D01*
X147514411Y-84521835D01*
X147499092Y-84544762D01*
X147456386Y-84608675D01*
X147455817Y-84609836D01*
X147455016Y-84611985D01*
X147403343Y-84736732D01*
X147376300Y-84872692D01*
X142418300Y-84872692D01*
X142418300Y-84486661D01*
X142423222Y-84455580D01*
X142430893Y-84431969D01*
X142455431Y-84391927D01*
X143163929Y-83683429D01*
X143189391Y-83664931D01*
X143200084Y-83659482D01*
X143211508Y-83653663D01*
X143257176Y-83642700D01*
X163417338Y-83642700D01*
X163448420Y-83647622D01*
X163472028Y-83655293D01*
X163512074Y-83679833D01*
X163966567Y-84134326D01*
X163985068Y-84159790D01*
X163993072Y-84175500D01*
X163996336Y-84181905D01*
X164007300Y-84227576D01*
X164007300Y-85102169D01*
X164002376Y-85133254D01*
X163998942Y-85143826D01*
X163962395Y-85194125D01*
X163903264Y-85213337D01*
X163850708Y-85198516D01*
X163845722Y-85195461D01*
X163827145Y-85180817D01*
X163227828Y-84581500D01*
X163227827Y-84581499D01*
X163114675Y-84516170D01*
X163112597Y-84514879D01*
X163111870Y-84514550D01*
X162982554Y-84479900D01*
X162982550Y-84479900D01*
X162982545Y-84479900D01*
X161922055Y-84479900D01*
X161922049Y-84479900D01*
X161922044Y-84479900D01*
X161805522Y-84511123D01*
X161805520Y-84511123D01*
X161792729Y-84514550D01*
X161676772Y-84581499D01*
X161582099Y-84676172D01*
X161515150Y-84792129D01*
X161512188Y-84803186D01*
X161480500Y-84921444D01*
X161480500Y-85055354D01*
X161509027Y-85161817D01*
X161509028Y-85161819D01*
X161515151Y-85184670D01*
X161515151Y-85184671D01*
X161557454Y-85257940D01*
X161582099Y-85300626D01*
X161676774Y-85395301D01*
X161792726Y-85462247D01*
X161792728Y-85462248D01*
X161792732Y-85462249D01*
X161912217Y-85494265D01*
X161922051Y-85496900D01*
X161922055Y-85496900D01*
X162647369Y-85496900D01*
X162678451Y-85501822D01*
X162702059Y-85509493D01*
X162742105Y-85534033D01*
X163015567Y-85807495D01*
X163034068Y-85832959D01*
X163045336Y-85855074D01*
X163056300Y-85900745D01*
X163056300Y-94780667D01*
X163051376Y-94811754D01*
X163047799Y-94822763D01*
X163011254Y-94873063D01*
X162952123Y-94892276D01*
X162947173Y-94892276D01*
X162896873Y-94878798D01*
X162807077Y-94826953D01*
X162807074Y-94826952D01*
X162807064Y-94826949D01*
X162677754Y-94792300D01*
X162677750Y-94792300D01*
X162677745Y-94792300D01*
X153609945Y-94792300D01*
X153476055Y-94792300D01*
X153476049Y-94792300D01*
X153476044Y-94792300D01*
X153359522Y-94823523D01*
X153359520Y-94823523D01*
X153346729Y-94826950D01*
X153230772Y-94893899D01*
X152221698Y-95902972D01*
X152200017Y-95940526D01*
X152194205Y-95950594D01*
X152178193Y-95978326D01*
X152170379Y-95991860D01*
X152154751Y-96018926D01*
X152154752Y-96018926D01*
X152154751Y-96018929D01*
X152120100Y-96148244D01*
X152120100Y-100028954D01*
X152151323Y-100145476D01*
X152151323Y-100145478D01*
X152154751Y-100158271D01*
X152178681Y-100199720D01*
X152178682Y-100199720D01*
X152221699Y-100274226D01*
X152316374Y-100368901D01*
X152432326Y-100435847D01*
X152432328Y-100435848D01*
X152432332Y-100435849D01*
X152551817Y-100467865D01*
X152561651Y-100470500D01*
X152561655Y-100470500D01*
X152561657Y-100470500D01*
X152695543Y-100470500D01*
X152695544Y-100470500D01*
X152695545Y-100470500D01*
X152695545Y-100470499D01*
X152695548Y-100470499D01*
X152695550Y-100470499D01*
X152695563Y-100470495D01*
X152697019Y-100470151D01*
X152697031Y-100470149D01*
X152703201Y-100468692D01*
X152705384Y-100467864D01*
X152744063Y-100457500D01*
X152824870Y-100435848D01*
X152824871Y-100435848D01*
X152824871Y-100435847D01*
X152824874Y-100435847D01*
X152940826Y-100368901D01*
X153035501Y-100274226D01*
X153102447Y-100158274D01*
X153114391Y-100113699D01*
X153137099Y-100028950D01*
X153137100Y-100028943D01*
X153137100Y-96483429D01*
X153142022Y-96452348D01*
X153149693Y-96428737D01*
X153174231Y-96388695D01*
X153712897Y-95850029D01*
X153738359Y-95831531D01*
X153749052Y-95826082D01*
X153760476Y-95820263D01*
X153806144Y-95809300D01*
X162342569Y-95809300D01*
X162373651Y-95814222D01*
X162397259Y-95821893D01*
X162437305Y-95846433D01*
X163015567Y-96424694D01*
X163034068Y-96450158D01*
X163042902Y-96467497D01*
X163045336Y-96472273D01*
X163056300Y-96517944D01*
X163056300Y-99152354D01*
X163084768Y-99258597D01*
X163084769Y-99258599D01*
X163090951Y-99281670D01*
X163090951Y-99281671D01*
X163138658Y-99364300D01*
X163139937Y-99366516D01*
X163139940Y-99366521D01*
X163147452Y-99379531D01*
X163157899Y-99397626D01*
X163252574Y-99492301D01*
X163261358Y-99497372D01*
X163261360Y-99497374D01*
X163351346Y-99549328D01*
X163368528Y-99559248D01*
X163368529Y-99559248D01*
X163368531Y-99559249D01*
X163488017Y-99591265D01*
X163497851Y-99593900D01*
X163497855Y-99593900D01*
X163497857Y-99593900D01*
X163631743Y-99593900D01*
X163631744Y-99593900D01*
X163631745Y-99593900D01*
X163631745Y-99593899D01*
X163631748Y-99593899D01*
X163631750Y-99593899D01*
X163631763Y-99593895D01*
X163633219Y-99593551D01*
X163633231Y-99593549D01*
X163639401Y-99592092D01*
X163641584Y-99591264D01*
X163673191Y-99582795D01*
X163761070Y-99559248D01*
X163761071Y-99559248D01*
X163761071Y-99559247D01*
X163761074Y-99559247D01*
X163877026Y-99492301D01*
X163971701Y-99397626D01*
X164038647Y-99281674D01*
X164038648Y-99281670D01*
X164038649Y-99281669D01*
X164070236Y-99163781D01*
X164070237Y-99163781D01*
X164070237Y-99163774D01*
X164073299Y-99152350D01*
X164073300Y-99152343D01*
X164073300Y-96416220D01*
X174206300Y-96416220D01*
X174206300Y-96623779D01*
X174246792Y-96827351D01*
X174326222Y-97019110D01*
X174326226Y-97019118D01*
X174326229Y-97019122D01*
X174326232Y-97019128D01*
X174441534Y-97191690D01*
X174588308Y-97338464D01*
X174678127Y-97398479D01*
X174760881Y-97453773D01*
X174760883Y-97453774D01*
X174760886Y-97453776D01*
X174952647Y-97533207D01*
X175156220Y-97573700D01*
X175156221Y-97573700D01*
X175363779Y-97573700D01*
X175363780Y-97573700D01*
X175567353Y-97533207D01*
X175759114Y-97453776D01*
X175931694Y-97338462D01*
X176078462Y-97191694D01*
X176193776Y-97019114D01*
X176273207Y-96827353D01*
X176313700Y-96623780D01*
X176313700Y-96416220D01*
X176273207Y-96212647D01*
X176193776Y-96020886D01*
X176192484Y-96018953D01*
X176192475Y-96018923D01*
X176192468Y-96018929D01*
X176078463Y-95848307D01*
X175931692Y-95701536D01*
X175931690Y-95701534D01*
X175759128Y-95586232D01*
X175759122Y-95586229D01*
X175759118Y-95586226D01*
X175759112Y-95586223D01*
X175759111Y-95586222D01*
X175759103Y-95586219D01*
X175672230Y-95550235D01*
X175636279Y-95535343D01*
X175613628Y-95515996D01*
X175451104Y-95483669D01*
X175404272Y-95474354D01*
X175404271Y-95474353D01*
X175363780Y-95466300D01*
X175156220Y-95466300D01*
X175115728Y-95474353D01*
X175115728Y-95474354D01*
X175034188Y-95490573D01*
X174952647Y-95506792D01*
X174760886Y-95586223D01*
X174760885Y-95586224D01*
X174760870Y-95586232D01*
X174587942Y-95701778D01*
X174586067Y-95703776D01*
X174443776Y-95846067D01*
X174441778Y-95847942D01*
X174326232Y-96020870D01*
X174326224Y-96020885D01*
X174326223Y-96020886D01*
X174246792Y-96212647D01*
X174216690Y-96363983D01*
X174206300Y-96416220D01*
X164073300Y-96416220D01*
X164073300Y-93876220D01*
X174206300Y-93876220D01*
X174206300Y-94083779D01*
X174246792Y-94287351D01*
X174326222Y-94479110D01*
X174326226Y-94479118D01*
X174326227Y-94479119D01*
X174326232Y-94479128D01*
X174441534Y-94651690D01*
X174588308Y-94798464D01*
X174651455Y-94840657D01*
X174760881Y-94913773D01*
X174760883Y-94913774D01*
X174760886Y-94913776D01*
X174952647Y-94993207D01*
X175156220Y-95033700D01*
X175156221Y-95033700D01*
X175363779Y-95033700D01*
X175363780Y-95033700D01*
X175567353Y-94993207D01*
X175759114Y-94913776D01*
X175931694Y-94798462D01*
X176078462Y-94651694D01*
X176193776Y-94479114D01*
X176273207Y-94287353D01*
X176313700Y-94083780D01*
X176313700Y-93876220D01*
X176273207Y-93672647D01*
X176193776Y-93480886D01*
X176192485Y-93478954D01*
X176177956Y-93457209D01*
X176177953Y-93457206D01*
X176078463Y-93308307D01*
X175931692Y-93161536D01*
X175931691Y-93161535D01*
X175931690Y-93161534D01*
X175759128Y-93046232D01*
X175759119Y-93046227D01*
X175759118Y-93046226D01*
X175759112Y-93046223D01*
X175759111Y-93046222D01*
X175759103Y-93046219D01*
X175661139Y-93005641D01*
X175653020Y-93002278D01*
X175636279Y-92995343D01*
X175613629Y-92975997D01*
X175567351Y-92966792D01*
X175567352Y-92966792D01*
X175372286Y-92927992D01*
X175372284Y-92927991D01*
X175363782Y-92926300D01*
X175363780Y-92926300D01*
X175156220Y-92926300D01*
X175156218Y-92926300D01*
X175147712Y-92927991D01*
X175147713Y-92927992D01*
X174952647Y-92966792D01*
X174760886Y-93046223D01*
X174760885Y-93046224D01*
X174760870Y-93046232D01*
X174587942Y-93161778D01*
X174586068Y-93163775D01*
X174443776Y-93306067D01*
X174441778Y-93307942D01*
X174326232Y-93480870D01*
X174326226Y-93480880D01*
X174326226Y-93480881D01*
X174326224Y-93480885D01*
X174326223Y-93480886D01*
X174246792Y-93672647D01*
X174246050Y-93676376D01*
X174206300Y-93876220D01*
X164073300Y-93876220D01*
X164073300Y-91336220D01*
X174206300Y-91336220D01*
X174206300Y-91543779D01*
X174246792Y-91747351D01*
X174326222Y-91939110D01*
X174326226Y-91939118D01*
X174326229Y-91939122D01*
X174326232Y-91939128D01*
X174441534Y-92111690D01*
X174588308Y-92258464D01*
X174651470Y-92300667D01*
X174760881Y-92373773D01*
X174760883Y-92373774D01*
X174760886Y-92373776D01*
X174952647Y-92453207D01*
X175156220Y-92493700D01*
X175156221Y-92493700D01*
X175363779Y-92493700D01*
X175363780Y-92493700D01*
X175567353Y-92453207D01*
X175759114Y-92373776D01*
X175931694Y-92258462D01*
X176078462Y-92111694D01*
X176193776Y-91939114D01*
X176273207Y-91747353D01*
X176313700Y-91543780D01*
X176313700Y-91336220D01*
X176273207Y-91132647D01*
X176193776Y-90940886D01*
X176179492Y-90919508D01*
X176157682Y-90886866D01*
X176157677Y-90886861D01*
X176078463Y-90768307D01*
X175931692Y-90621536D01*
X175931690Y-90621534D01*
X175759128Y-90506232D01*
X175759122Y-90506229D01*
X175759118Y-90506226D01*
X175759112Y-90506223D01*
X175759111Y-90506222D01*
X175759103Y-90506219D01*
X175684458Y-90475300D01*
X175646418Y-90459543D01*
X175636281Y-90455344D01*
X175613630Y-90435997D01*
X175397026Y-90392913D01*
X175397001Y-90392908D01*
X175363780Y-90386300D01*
X175363779Y-90386300D01*
X175156221Y-90386300D01*
X175156220Y-90386300D01*
X175122999Y-90392908D01*
X175122974Y-90392913D01*
X174952647Y-90426792D01*
X174760886Y-90506223D01*
X174760885Y-90506224D01*
X174760870Y-90506232D01*
X174587942Y-90621778D01*
X174586067Y-90623776D01*
X174443776Y-90766067D01*
X174441778Y-90767942D01*
X174326232Y-90940870D01*
X174326224Y-90940885D01*
X174326223Y-90940886D01*
X174246792Y-91132647D01*
X174234928Y-91192295D01*
X174206300Y-91336220D01*
X164073300Y-91336220D01*
X164073300Y-87899432D01*
X164078223Y-87868347D01*
X164082412Y-87855453D01*
X164118954Y-87805157D01*
X164123153Y-87802107D01*
X164182277Y-87782900D01*
X174687682Y-87782900D01*
X174718766Y-87787823D01*
X174726742Y-87790414D01*
X174753445Y-87809817D01*
X174777033Y-87826954D01*
X174777034Y-87826958D01*
X174777038Y-87826961D01*
X174785306Y-87852413D01*
X174796248Y-87886084D01*
X174796246Y-87886088D01*
X174796248Y-87886093D01*
X174786742Y-87915344D01*
X174777037Y-87945216D01*
X174777032Y-87945223D01*
X174773170Y-87950538D01*
X174747676Y-87975049D01*
X174587941Y-88081780D01*
X174586072Y-88083771D01*
X174443776Y-88226067D01*
X174441778Y-88227942D01*
X174326232Y-88400870D01*
X174326224Y-88400885D01*
X174326223Y-88400886D01*
X174246792Y-88592647D01*
X174220296Y-88725854D01*
X174206300Y-88796220D01*
X174206300Y-89003779D01*
X174232327Y-89134627D01*
X174246792Y-89207351D01*
X174326222Y-89399110D01*
X174326232Y-89399128D01*
X174441534Y-89571690D01*
X174588308Y-89718464D01*
X174652040Y-89761048D01*
X174760881Y-89833773D01*
X174760883Y-89833774D01*
X174760886Y-89833776D01*
X174952647Y-89913207D01*
X175156220Y-89953700D01*
X175156221Y-89953700D01*
X175363779Y-89953700D01*
X175363780Y-89953700D01*
X175567353Y-89913207D01*
X175759114Y-89833776D01*
X175931694Y-89718462D01*
X176078462Y-89571694D01*
X176193776Y-89399114D01*
X176273207Y-89207353D01*
X176313700Y-89003780D01*
X176313700Y-88796220D01*
X176273207Y-88592647D01*
X176214379Y-88450626D01*
X176193777Y-88400888D01*
X176193775Y-88400885D01*
X176193772Y-88400881D01*
X176186556Y-88390081D01*
X176157682Y-88346866D01*
X176157677Y-88346861D01*
X176078463Y-88228307D01*
X175931692Y-88081536D01*
X175931690Y-88081534D01*
X175773744Y-87975998D01*
X175750634Y-87954637D01*
X175745447Y-87948058D01*
X175723925Y-87889728D01*
X175740798Y-87829887D01*
X175789620Y-87791394D01*
X175795801Y-87789114D01*
X175830610Y-87782900D01*
X176814957Y-87782900D01*
X176846034Y-87787820D01*
X176854144Y-87790455D01*
X176879220Y-87808671D01*
X176904222Y-87826690D01*
X176904283Y-87826877D01*
X176904445Y-87826995D01*
X176914003Y-87856403D01*
X176923662Y-87885747D01*
X176923601Y-87885935D01*
X176923663Y-87886124D01*
X176904677Y-87944951D01*
X176899839Y-87951664D01*
X176877962Y-87973789D01*
X176875564Y-87975558D01*
X176875561Y-87975561D01*
X176794346Y-88085603D01*
X176749174Y-88214697D01*
X176749174Y-88214700D01*
X176746300Y-88245352D01*
X176746300Y-89554644D01*
X176746301Y-89554655D01*
X176746315Y-89554803D01*
X176749172Y-89585295D01*
X176794344Y-89714391D01*
X176794345Y-89714392D01*
X176794346Y-89714395D01*
X176853973Y-89795187D01*
X176875562Y-89824438D01*
X176875563Y-89824439D01*
X176904082Y-89845487D01*
X176985605Y-89905654D01*
X177114699Y-89950826D01*
X177145347Y-89953700D01*
X178454652Y-89953699D01*
X178485301Y-89950826D01*
X178614395Y-89905654D01*
X178642345Y-89885024D01*
X178670272Y-89870530D01*
X178681265Y-89866867D01*
X178743434Y-89866405D01*
X178793995Y-89902560D01*
X178795834Y-89905051D01*
X178815497Y-89964034D01*
X178815500Y-89964801D01*
X178815500Y-90715627D01*
X178810574Y-90746722D01*
X178807985Y-90754688D01*
X178792774Y-90775620D01*
X178771438Y-90804983D01*
X178771437Y-90804983D01*
X178771436Y-90804985D01*
X178737091Y-90816140D01*
X178712306Y-90824193D01*
X178712304Y-90824192D01*
X178712303Y-90824193D01*
X178653176Y-90804977D01*
X178647861Y-90801115D01*
X178623349Y-90775620D01*
X178618462Y-90768306D01*
X178471690Y-90621534D01*
X178299128Y-90506232D01*
X178299122Y-90506229D01*
X178299118Y-90506226D01*
X178299112Y-90506223D01*
X178299111Y-90506222D01*
X178299103Y-90506219D01*
X178224458Y-90475300D01*
X178186418Y-90459543D01*
X178176281Y-90455344D01*
X178153630Y-90435997D01*
X177937026Y-90392913D01*
X177937001Y-90392908D01*
X177903780Y-90386300D01*
X177903779Y-90386300D01*
X177696221Y-90386300D01*
X177696220Y-90386300D01*
X177662999Y-90392908D01*
X177662974Y-90392913D01*
X177492647Y-90426792D01*
X177300886Y-90506223D01*
X177300885Y-90506224D01*
X177300870Y-90506232D01*
X177127942Y-90621778D01*
X177126067Y-90623776D01*
X176983776Y-90766067D01*
X176981778Y-90767942D01*
X176866232Y-90940870D01*
X176866224Y-90940885D01*
X176866223Y-90940886D01*
X176786792Y-91132647D01*
X176774928Y-91192295D01*
X176746300Y-91336220D01*
X176746300Y-91543779D01*
X176786792Y-91747351D01*
X176866222Y-91939110D01*
X176866226Y-91939118D01*
X176866229Y-91939122D01*
X176866232Y-91939128D01*
X176981534Y-92111690D01*
X177128308Y-92258464D01*
X177191470Y-92300667D01*
X177300881Y-92373773D01*
X177300883Y-92373774D01*
X177300886Y-92373776D01*
X177492647Y-92453207D01*
X177696220Y-92493700D01*
X177696221Y-92493700D01*
X177903779Y-92493700D01*
X177903780Y-92493700D01*
X178107353Y-92453207D01*
X178299114Y-92373776D01*
X178471694Y-92258462D01*
X178618462Y-92111694D01*
X178622398Y-92105802D01*
X178643762Y-92082687D01*
X178650345Y-92077498D01*
X178708674Y-92055979D01*
X178768514Y-92072855D01*
X178807002Y-92121668D01*
X178809277Y-92127832D01*
X178815500Y-92162665D01*
X178815500Y-93255626D01*
X178810574Y-93286718D01*
X178808721Y-93292422D01*
X178807985Y-93294687D01*
X178786273Y-93324566D01*
X178771438Y-93344982D01*
X178771437Y-93344982D01*
X178771436Y-93344984D01*
X178737091Y-93356139D01*
X178712306Y-93364192D01*
X178712304Y-93364191D01*
X178712303Y-93364192D01*
X178653176Y-93344976D01*
X178647861Y-93341114D01*
X178623349Y-93315619D01*
X178618462Y-93308305D01*
X178471690Y-93161533D01*
X178299128Y-93046231D01*
X178299122Y-93046228D01*
X178299118Y-93046225D01*
X178299112Y-93046222D01*
X178299111Y-93046221D01*
X178299103Y-93046218D01*
X178201146Y-93005643D01*
X178201145Y-93005642D01*
X178176279Y-92995342D01*
X178153628Y-92975996D01*
X178107350Y-92966791D01*
X178107352Y-92966791D01*
X177912291Y-92927992D01*
X177912289Y-92927991D01*
X177903782Y-92926299D01*
X177903780Y-92926299D01*
X177696220Y-92926299D01*
X177696218Y-92926299D01*
X177687707Y-92927991D01*
X177687708Y-92927992D01*
X177492647Y-92966791D01*
X177300886Y-93046222D01*
X177300885Y-93046223D01*
X177300870Y-93046231D01*
X177127942Y-93161777D01*
X177126067Y-93163775D01*
X176983776Y-93306066D01*
X176981778Y-93307941D01*
X176866232Y-93480869D01*
X176866224Y-93480884D01*
X176866223Y-93480885D01*
X176813326Y-93608590D01*
X176786792Y-93672647D01*
X176757900Y-93817900D01*
X176746300Y-93876219D01*
X176746300Y-94083779D01*
X176756354Y-94134325D01*
X176786792Y-94287350D01*
X176866222Y-94479109D01*
X176866226Y-94479117D01*
X176866229Y-94479121D01*
X176866232Y-94479127D01*
X176981534Y-94651689D01*
X177128308Y-94798463D01*
X177255908Y-94883722D01*
X177300881Y-94913772D01*
X177300883Y-94913773D01*
X177300886Y-94913775D01*
X177492647Y-94993206D01*
X177696220Y-95033699D01*
X177696221Y-95033699D01*
X177903779Y-95033699D01*
X177903780Y-95033699D01*
X178107353Y-94993206D01*
X178299114Y-94913775D01*
X178471694Y-94798461D01*
X178618462Y-94651693D01*
X178622398Y-94645801D01*
X178643762Y-94622686D01*
X178650345Y-94617497D01*
X178708674Y-94595978D01*
X178768514Y-94612854D01*
X178807002Y-94661667D01*
X178809277Y-94667831D01*
X178815500Y-94702664D01*
X178815500Y-95795627D01*
X178810574Y-95826722D01*
X178807985Y-95834688D01*
X178792774Y-95855620D01*
X178771438Y-95884983D01*
X178771437Y-95884983D01*
X178771436Y-95884985D01*
X178737091Y-95896140D01*
X178712306Y-95904193D01*
X178712304Y-95904192D01*
X178712303Y-95904193D01*
X178653176Y-95884977D01*
X178647861Y-95881115D01*
X178623349Y-95855620D01*
X178618462Y-95848306D01*
X178471690Y-95701534D01*
X178299128Y-95586232D01*
X178299122Y-95586229D01*
X178299118Y-95586226D01*
X178299112Y-95586223D01*
X178299111Y-95586222D01*
X178299103Y-95586219D01*
X178212230Y-95550235D01*
X178176279Y-95535343D01*
X178153628Y-95515996D01*
X177991104Y-95483669D01*
X177944272Y-95474354D01*
X177944271Y-95474353D01*
X177903780Y-95466300D01*
X177696220Y-95466300D01*
X177655728Y-95474353D01*
X177655728Y-95474354D01*
X177574188Y-95490573D01*
X177492647Y-95506792D01*
X177300886Y-95586223D01*
X177300885Y-95586224D01*
X177300870Y-95586232D01*
X177127942Y-95701778D01*
X177126067Y-95703776D01*
X176983776Y-95846067D01*
X176981778Y-95847942D01*
X176866232Y-96020870D01*
X176866224Y-96020885D01*
X176866223Y-96020886D01*
X176786792Y-96212647D01*
X176756690Y-96363983D01*
X176746300Y-96416220D01*
X176746300Y-96623779D01*
X176786792Y-96827351D01*
X176866222Y-97019110D01*
X176866226Y-97019118D01*
X176866229Y-97019122D01*
X176866232Y-97019128D01*
X176981534Y-97191690D01*
X177128308Y-97338464D01*
X177218127Y-97398479D01*
X177300881Y-97453773D01*
X177300883Y-97453774D01*
X177300886Y-97453776D01*
X177492647Y-97533207D01*
X177696220Y-97573700D01*
X177696221Y-97573700D01*
X177903779Y-97573700D01*
X177903780Y-97573700D01*
X178107353Y-97533207D01*
X178299114Y-97453776D01*
X178471694Y-97338462D01*
X178618462Y-97191694D01*
X178622398Y-97185802D01*
X178643762Y-97162687D01*
X178650345Y-97157498D01*
X178708674Y-97135979D01*
X178768514Y-97152855D01*
X178807002Y-97201668D01*
X178809277Y-97207832D01*
X178815500Y-97242665D01*
X178815500Y-98335627D01*
X178810574Y-98366722D01*
X178807985Y-98374688D01*
X178786824Y-98403809D01*
X178771438Y-98424983D01*
X178771437Y-98424983D01*
X178771436Y-98424985D01*
X178737091Y-98436140D01*
X178712306Y-98444193D01*
X178712304Y-98444192D01*
X178712303Y-98444193D01*
X178653176Y-98424977D01*
X178647861Y-98421115D01*
X178623349Y-98395620D01*
X178618462Y-98388306D01*
X178471690Y-98241534D01*
X178299128Y-98126232D01*
X178299122Y-98126229D01*
X178299118Y-98126226D01*
X178299112Y-98126223D01*
X178299111Y-98126222D01*
X178299103Y-98126219D01*
X178205748Y-98087550D01*
X178205746Y-98087549D01*
X178176280Y-98075343D01*
X178153630Y-98055997D01*
X178107352Y-98046792D01*
X177944272Y-98014354D01*
X177944271Y-98014353D01*
X177903780Y-98006300D01*
X177696220Y-98006300D01*
X177655728Y-98014353D01*
X177655728Y-98014354D01*
X177574188Y-98030573D01*
X177492647Y-98046792D01*
X177300886Y-98126223D01*
X177300885Y-98126224D01*
X177300870Y-98126232D01*
X177127942Y-98241778D01*
X177126067Y-98243776D01*
X176983776Y-98386067D01*
X176981778Y-98387942D01*
X176866232Y-98560870D01*
X176866224Y-98560885D01*
X176866223Y-98560886D01*
X176786792Y-98752647D01*
X176756690Y-98903983D01*
X176746300Y-98956220D01*
X176746300Y-99163779D01*
X176786792Y-99367351D01*
X176866222Y-99559110D01*
X176866226Y-99559118D01*
X176866229Y-99559122D01*
X176866232Y-99559128D01*
X176981534Y-99731690D01*
X176981536Y-99731692D01*
X177128307Y-99878463D01*
X177300881Y-99993773D01*
X177300883Y-99993774D01*
X177300886Y-99993776D01*
X177492647Y-100073207D01*
X177696220Y-100113700D01*
X177696221Y-100113700D01*
X177903779Y-100113700D01*
X177903780Y-100113700D01*
X178107353Y-100073207D01*
X178299114Y-99993776D01*
X178471694Y-99878462D01*
X178618462Y-99731694D01*
X178622398Y-99725802D01*
X178643762Y-99702687D01*
X178650345Y-99697498D01*
X178708674Y-99675979D01*
X178768514Y-99692855D01*
X178807002Y-99741668D01*
X178809277Y-99747832D01*
X178815500Y-99782665D01*
X178815500Y-101331769D01*
X178810576Y-101362854D01*
X178804586Y-101381291D01*
X178802907Y-101386459D01*
X178778366Y-101426505D01*
X177520100Y-102684770D01*
X177520098Y-102684772D01*
X177496333Y-102725935D01*
X177496329Y-102725938D01*
X177453154Y-102800721D01*
X177453152Y-102800724D01*
X177453149Y-102800734D01*
X177418500Y-102930044D01*
X177418500Y-107610554D01*
X177447854Y-107720104D01*
X177447855Y-107720108D01*
X177453151Y-107739870D01*
X177453151Y-107739871D01*
X177462492Y-107756049D01*
X177465480Y-107761224D01*
X177465482Y-107761229D01*
X177520099Y-107855827D01*
X178774767Y-109110495D01*
X178793268Y-109135959D01*
X178804536Y-109158074D01*
X178815500Y-109203745D01*
X178815500Y-110687557D01*
X178810576Y-110718644D01*
X178806999Y-110729653D01*
X178770454Y-110779953D01*
X178711323Y-110799166D01*
X178708228Y-110799166D01*
X178649097Y-110779953D01*
X178648491Y-110779509D01*
X178628431Y-110764705D01*
X178614394Y-110754345D01*
X178614391Y-110754344D01*
X178614390Y-110754343D01*
X178552225Y-110732591D01*
X178552225Y-110732590D01*
X178485303Y-110709174D01*
X178477639Y-110708455D01*
X178454653Y-110706300D01*
X178454647Y-110706300D01*
X177145361Y-110706300D01*
X177145355Y-110706300D01*
X177145344Y-110706301D01*
X177145195Y-110706314D01*
X177114703Y-110709172D01*
X176985603Y-110754346D01*
X176875563Y-110835560D01*
X176875561Y-110835561D01*
X176875560Y-110835563D01*
X176794346Y-110945603D01*
X176749174Y-111074697D01*
X176749174Y-111074700D01*
X176746300Y-111105352D01*
X176746300Y-112414644D01*
X176746301Y-112414655D01*
X176746315Y-112414803D01*
X176748195Y-112434873D01*
X176748196Y-112434880D01*
X176749173Y-112445298D01*
X176749173Y-112445300D01*
X176749174Y-112445301D01*
X176752248Y-112454087D01*
X176752249Y-112454090D01*
X176777795Y-112527095D01*
X176794346Y-112574395D01*
X176875562Y-112684438D01*
X176985605Y-112765654D01*
X177114699Y-112810826D01*
X177145347Y-112813700D01*
X178454652Y-112813699D01*
X178485301Y-112810826D01*
X178614395Y-112765654D01*
X178642345Y-112745024D01*
X178670272Y-112730530D01*
X178681265Y-112726867D01*
X178743434Y-112726405D01*
X178793995Y-112762560D01*
X178795834Y-112765051D01*
X178815497Y-112824034D01*
X178815500Y-112824801D01*
X178815500Y-113575627D01*
X178810574Y-113606722D01*
X178807985Y-113614688D01*
X178791793Y-113636970D01*
X178771438Y-113664983D01*
X178771437Y-113664983D01*
X178771436Y-113664985D01*
X178737091Y-113676140D01*
X178712306Y-113684193D01*
X178712304Y-113684192D01*
X178712303Y-113684193D01*
X178653176Y-113664977D01*
X178647861Y-113661115D01*
X178623349Y-113635620D01*
X178618462Y-113628306D01*
X178471690Y-113481534D01*
X178299128Y-113366232D01*
X178299122Y-113366229D01*
X178299118Y-113366226D01*
X178299110Y-113366222D01*
X178233312Y-113338967D01*
X178176280Y-113315343D01*
X178153629Y-113295997D01*
X178107351Y-113286792D01*
X178107352Y-113286792D01*
X177944272Y-113254354D01*
X177944271Y-113254353D01*
X177903780Y-113246300D01*
X177696220Y-113246300D01*
X177655728Y-113254353D01*
X177655728Y-113254354D01*
X177574188Y-113270573D01*
X177492647Y-113286792D01*
X177300886Y-113366223D01*
X177300885Y-113366224D01*
X177300870Y-113366232D01*
X177127942Y-113481778D01*
X177126067Y-113483776D01*
X176983776Y-113626067D01*
X176981778Y-113627942D01*
X176866232Y-113800870D01*
X176866224Y-113800885D01*
X176866223Y-113800886D01*
X176786792Y-113992647D01*
X176767984Y-114087206D01*
X176746300Y-114196220D01*
X176746300Y-114403779D01*
X176786792Y-114607351D01*
X176866222Y-114799110D01*
X176866226Y-114799118D01*
X176866229Y-114799122D01*
X176866232Y-114799128D01*
X176981534Y-114971690D01*
X177128308Y-115118464D01*
X177267137Y-115211226D01*
X177300881Y-115233773D01*
X177300883Y-115233774D01*
X177300886Y-115233776D01*
X177492647Y-115313207D01*
X177696220Y-115353700D01*
X177696221Y-115353700D01*
X177903779Y-115353700D01*
X177903780Y-115353700D01*
X178107353Y-115313207D01*
X178299114Y-115233776D01*
X178471694Y-115118462D01*
X178618462Y-114971694D01*
X178622398Y-114965802D01*
X178643762Y-114942687D01*
X178650345Y-114937498D01*
X178708674Y-114915979D01*
X178768514Y-114932855D01*
X178807002Y-114981668D01*
X178809277Y-114987832D01*
X178815500Y-115022665D01*
X178815500Y-116115626D01*
X178810574Y-116146721D01*
X178807985Y-116154687D01*
X178783009Y-116189057D01*
X178771438Y-116204982D01*
X178771437Y-116204982D01*
X178771436Y-116204984D01*
X178737091Y-116216139D01*
X178712306Y-116224192D01*
X178712304Y-116224191D01*
X178712303Y-116224192D01*
X178653176Y-116204976D01*
X178647861Y-116201114D01*
X178623349Y-116175619D01*
X178618462Y-116168305D01*
X178471690Y-116021533D01*
X178299128Y-115906231D01*
X178299122Y-115906228D01*
X178299118Y-115906225D01*
X178299110Y-115906221D01*
X178233312Y-115878966D01*
X178176280Y-115855342D01*
X178153629Y-115835996D01*
X178107351Y-115826791D01*
X178107352Y-115826791D01*
X177944272Y-115794353D01*
X177944271Y-115794352D01*
X177903780Y-115786299D01*
X177696220Y-115786299D01*
X177655728Y-115794352D01*
X177655728Y-115794353D01*
X177574188Y-115810572D01*
X177492647Y-115826791D01*
X177300886Y-115906222D01*
X177300885Y-115906223D01*
X177300870Y-115906231D01*
X177127942Y-116021777D01*
X177126067Y-116023775D01*
X176983776Y-116166066D01*
X176981778Y-116167941D01*
X176866232Y-116340869D01*
X176866226Y-116340881D01*
X176866223Y-116340885D01*
X176786792Y-116532646D01*
X176776706Y-116583355D01*
X176755972Y-116687592D01*
X176746300Y-116736219D01*
X176746300Y-116943779D01*
X176750250Y-116963638D01*
X176786792Y-117147350D01*
X176866222Y-117339109D01*
X176866226Y-117339117D01*
X176866229Y-117339121D01*
X176866232Y-117339127D01*
X176981534Y-117511688D01*
X176981535Y-117511690D01*
X177128308Y-117658463D01*
X177128311Y-117658465D01*
X177300881Y-117773772D01*
X177300883Y-117773773D01*
X177300886Y-117773775D01*
X177492647Y-117853206D01*
X177696220Y-117893699D01*
X177696221Y-117893699D01*
X177903779Y-117893699D01*
X177903780Y-117893699D01*
X178107353Y-117853206D01*
X178299114Y-117773775D01*
X178471694Y-117658461D01*
X178618462Y-117511693D01*
X178622398Y-117505801D01*
X178643762Y-117482686D01*
X178650345Y-117477497D01*
X178708674Y-117455978D01*
X178768514Y-117472854D01*
X178807002Y-117521667D01*
X178809277Y-117527831D01*
X178815500Y-117562664D01*
X178815500Y-118655627D01*
X178810574Y-118686722D01*
X178807985Y-118694688D01*
X178792774Y-118715620D01*
X178771438Y-118744983D01*
X178771437Y-118744983D01*
X178771436Y-118744985D01*
X178737091Y-118756140D01*
X178712306Y-118764193D01*
X178712304Y-118764192D01*
X178712303Y-118764193D01*
X178653176Y-118744977D01*
X178647861Y-118741115D01*
X178623349Y-118715620D01*
X178618462Y-118708306D01*
X178471690Y-118561534D01*
X178299128Y-118446232D01*
X178299122Y-118446229D01*
X178299118Y-118446226D01*
X178299110Y-118446222D01*
X178233312Y-118418967D01*
X178176280Y-118395343D01*
X178153629Y-118375997D01*
X178107351Y-118366792D01*
X178107352Y-118366792D01*
X177944272Y-118334354D01*
X177944271Y-118334353D01*
X177903780Y-118326300D01*
X177696220Y-118326300D01*
X177655728Y-118334353D01*
X177655728Y-118334354D01*
X177574188Y-118350573D01*
X177492647Y-118366792D01*
X177300886Y-118446223D01*
X177300885Y-118446224D01*
X177300870Y-118446232D01*
X177127942Y-118561778D01*
X177126067Y-118563776D01*
X176983776Y-118706067D01*
X176981778Y-118707942D01*
X176866232Y-118880870D01*
X176866224Y-118880885D01*
X176866223Y-118880886D01*
X176846270Y-118929058D01*
X176786792Y-119072648D01*
X176746300Y-119276220D01*
X176746300Y-119483779D01*
X176786792Y-119687351D01*
X176866222Y-119879110D01*
X176866232Y-119879128D01*
X176981534Y-120051690D01*
X177128308Y-120198464D01*
X177181471Y-120233986D01*
X177300881Y-120313773D01*
X177300883Y-120313774D01*
X177300886Y-120313776D01*
X177492647Y-120393207D01*
X177696220Y-120433700D01*
X177696221Y-120433700D01*
X177903779Y-120433700D01*
X177903780Y-120433700D01*
X178107353Y-120393207D01*
X178299114Y-120313776D01*
X178471694Y-120198462D01*
X178618462Y-120051694D01*
X178622398Y-120045802D01*
X178643762Y-120022687D01*
X178650345Y-120017498D01*
X178708674Y-119995979D01*
X178768514Y-120012855D01*
X178807002Y-120061668D01*
X178809277Y-120067832D01*
X178815500Y-120102665D01*
X178815500Y-121195627D01*
X178810574Y-121226722D01*
X178807985Y-121234688D01*
X178784587Y-121266887D01*
X178771438Y-121284983D01*
X178771437Y-121284983D01*
X178771436Y-121284985D01*
X178737091Y-121296140D01*
X178712306Y-121304193D01*
X178712304Y-121304192D01*
X178712303Y-121304193D01*
X178653176Y-121284977D01*
X178647861Y-121281115D01*
X178623349Y-121255620D01*
X178618462Y-121248306D01*
X178471690Y-121101534D01*
X178299128Y-120986232D01*
X178299122Y-120986229D01*
X178299118Y-120986226D01*
X178299110Y-120986222D01*
X178233312Y-120958967D01*
X178176280Y-120935343D01*
X178153629Y-120915997D01*
X178107351Y-120906792D01*
X178107352Y-120906792D01*
X177944272Y-120874354D01*
X177944271Y-120874353D01*
X177903780Y-120866300D01*
X177696220Y-120866300D01*
X177655728Y-120874353D01*
X177655728Y-120874354D01*
X177574188Y-120890573D01*
X177492647Y-120906792D01*
X177300886Y-120986223D01*
X177300885Y-120986224D01*
X177300870Y-120986232D01*
X177127942Y-121101778D01*
X177126067Y-121103776D01*
X176983776Y-121246067D01*
X176981778Y-121247942D01*
X176866232Y-121420870D01*
X176866224Y-121420885D01*
X176866223Y-121420886D01*
X176786792Y-121612647D01*
X176759778Y-121748458D01*
X176746300Y-121816220D01*
X176746300Y-122023779D01*
X176786792Y-122227351D01*
X176866222Y-122419110D01*
X176866226Y-122419118D01*
X176866229Y-122419122D01*
X176866232Y-122419128D01*
X176981534Y-122591690D01*
X177128308Y-122738464D01*
X177258829Y-122825675D01*
X177300881Y-122853773D01*
X177300883Y-122853774D01*
X177300886Y-122853776D01*
X177445458Y-122913660D01*
X177458941Y-122923371D01*
X177472295Y-122930106D01*
X177475926Y-122933207D01*
X177478666Y-122935547D01*
X177480892Y-122939181D01*
X177482914Y-122940637D01*
X177488210Y-122946735D01*
X177494246Y-122960974D01*
X177511150Y-122988561D01*
X177510334Y-122998923D01*
X177512477Y-123003978D01*
X177508625Y-123020625D01*
X177506270Y-123050543D01*
X177500007Y-123057877D01*
X177498463Y-123064552D01*
X177482387Y-123078513D01*
X177465919Y-123097801D01*
X177464846Y-123098459D01*
X177456811Y-123100726D01*
X177451521Y-123105321D01*
X177435629Y-123106703D01*
X177412256Y-123113300D01*
X175654252Y-123113300D01*
X175623162Y-123108375D01*
X175618016Y-123106703D01*
X175615194Y-123105786D01*
X175564895Y-123069239D01*
X175545685Y-123010107D01*
X175564898Y-122950981D01*
X175565654Y-122949939D01*
X175608524Y-122916152D01*
X175759114Y-122853776D01*
X175931694Y-122738462D01*
X176078462Y-122591694D01*
X176193776Y-122419114D01*
X176273207Y-122227353D01*
X176313700Y-122023780D01*
X176313700Y-121816220D01*
X176273207Y-121612647D01*
X176193776Y-121420886D01*
X176091254Y-121267451D01*
X176078463Y-121248307D01*
X175931692Y-121101536D01*
X175931690Y-121101534D01*
X175759128Y-120986232D01*
X175759122Y-120986229D01*
X175759118Y-120986226D01*
X175759110Y-120986222D01*
X175693312Y-120958967D01*
X175636280Y-120935343D01*
X175613629Y-120915997D01*
X175567351Y-120906792D01*
X175567352Y-120906792D01*
X175404272Y-120874354D01*
X175404271Y-120874353D01*
X175363780Y-120866300D01*
X175156220Y-120866300D01*
X175115728Y-120874353D01*
X175115728Y-120874354D01*
X175034188Y-120890573D01*
X174952647Y-120906792D01*
X174760886Y-120986223D01*
X174760885Y-120986224D01*
X174760870Y-120986232D01*
X174587942Y-121101778D01*
X174586067Y-121103776D01*
X174443776Y-121246067D01*
X174441778Y-121247942D01*
X174326232Y-121420870D01*
X174326224Y-121420885D01*
X174326223Y-121420886D01*
X174246792Y-121612647D01*
X174219778Y-121748458D01*
X174206300Y-121816220D01*
X174206300Y-122023779D01*
X174246792Y-122227351D01*
X174326222Y-122419110D01*
X174326226Y-122419118D01*
X174326229Y-122419122D01*
X174326232Y-122419128D01*
X174441534Y-122591690D01*
X174588308Y-122738464D01*
X174718829Y-122825675D01*
X174760881Y-122853773D01*
X174760883Y-122853774D01*
X174760886Y-122853776D01*
X174905458Y-122913660D01*
X174918941Y-122923371D01*
X174932295Y-122930106D01*
X174935926Y-122933207D01*
X174938666Y-122935547D01*
X174940892Y-122939181D01*
X174942914Y-122940637D01*
X174948210Y-122946735D01*
X174954246Y-122960974D01*
X174971150Y-122988561D01*
X174970334Y-122998923D01*
X174972477Y-123003978D01*
X174968625Y-123020625D01*
X174966270Y-123050543D01*
X174960007Y-123057877D01*
X174958463Y-123064552D01*
X174942387Y-123078513D01*
X174925919Y-123097801D01*
X174924846Y-123098459D01*
X174916811Y-123100726D01*
X174911521Y-123105321D01*
X174895629Y-123106703D01*
X174872256Y-123113300D01*
X166836444Y-123113300D01*
X166712192Y-123146594D01*
X166694043Y-123149712D01*
X166676155Y-123151119D01*
X166615700Y-123136602D01*
X166576907Y-123092943D01*
X166572915Y-123084283D01*
X166564914Y-123057907D01*
X166551561Y-122973605D01*
X166551558Y-122973589D01*
X166524886Y-122891501D01*
X166485508Y-122770307D01*
X166388471Y-122579862D01*
X166388469Y-122579860D01*
X166388467Y-122579855D01*
X166350378Y-122527431D01*
X166350377Y-122527431D01*
X165817209Y-123060599D01*
X165761811Y-123088825D01*
X165700402Y-123079099D01*
X165658952Y-123039764D01*
X165647902Y-123020625D01*
X165627099Y-122984593D01*
X165534007Y-122891501D01*
X165478831Y-122859645D01*
X165437229Y-122813440D01*
X165430731Y-122751606D01*
X165457995Y-122701390D01*
X165991167Y-122168220D01*
X165938749Y-122130136D01*
X165938738Y-122130129D01*
X165938735Y-122130127D01*
X165748291Y-122033090D01*
X165666446Y-122006498D01*
X165638401Y-121992208D01*
X165631624Y-121987284D01*
X165595082Y-121936983D01*
X165595084Y-121874809D01*
X165631631Y-121824511D01*
X165690759Y-121805300D01*
X166097063Y-121805300D01*
X166097064Y-121805300D01*
X166156480Y-121793481D01*
X166223860Y-121748460D01*
X166268881Y-121681080D01*
X166280700Y-121621664D01*
X166280700Y-121376632D01*
X166285623Y-121345547D01*
X166289812Y-121332653D01*
X166326354Y-121282357D01*
X166330553Y-121279307D01*
X166389677Y-121260100D01*
X171745544Y-121260100D01*
X171745545Y-121260100D01*
X171745545Y-121260099D01*
X171745548Y-121260099D01*
X171745550Y-121260099D01*
X171745563Y-121260095D01*
X171747019Y-121259751D01*
X171747031Y-121259749D01*
X171753201Y-121258292D01*
X171755384Y-121257464D01*
X171762266Y-121255620D01*
X171874870Y-121225448D01*
X171874871Y-121225448D01*
X171874871Y-121225447D01*
X171874874Y-121225447D01*
X171990827Y-121158501D01*
X173126901Y-120022427D01*
X173193847Y-119906474D01*
X173201179Y-119879110D01*
X173228499Y-119777150D01*
X173228500Y-119777143D01*
X173228500Y-119276220D01*
X174206300Y-119276220D01*
X174206300Y-119483779D01*
X174246792Y-119687351D01*
X174326222Y-119879110D01*
X174326232Y-119879128D01*
X174441534Y-120051690D01*
X174588308Y-120198464D01*
X174641471Y-120233986D01*
X174760881Y-120313773D01*
X174760883Y-120313774D01*
X174760886Y-120313776D01*
X174952647Y-120393207D01*
X175156220Y-120433700D01*
X175156221Y-120433700D01*
X175363779Y-120433700D01*
X175363780Y-120433700D01*
X175567353Y-120393207D01*
X175759114Y-120313776D01*
X175931694Y-120198462D01*
X176078462Y-120051694D01*
X176193776Y-119879114D01*
X176273207Y-119687353D01*
X176313700Y-119483780D01*
X176313700Y-119276220D01*
X176273207Y-119072647D01*
X176205759Y-118909815D01*
X176193778Y-118880890D01*
X176193777Y-118880888D01*
X176193776Y-118880886D01*
X176167789Y-118841994D01*
X176078463Y-118708307D01*
X175931692Y-118561536D01*
X175931690Y-118561534D01*
X175759128Y-118446232D01*
X175759122Y-118446229D01*
X175759118Y-118446226D01*
X175759110Y-118446222D01*
X175693312Y-118418967D01*
X175636280Y-118395343D01*
X175613629Y-118375997D01*
X175567351Y-118366792D01*
X175567352Y-118366792D01*
X175404272Y-118334354D01*
X175404271Y-118334353D01*
X175363780Y-118326300D01*
X175156220Y-118326300D01*
X175115728Y-118334353D01*
X175115728Y-118334354D01*
X175034188Y-118350573D01*
X174952647Y-118366792D01*
X174760886Y-118446223D01*
X174760885Y-118446224D01*
X174760870Y-118446232D01*
X174587942Y-118561778D01*
X174586067Y-118563776D01*
X174443776Y-118706067D01*
X174441778Y-118707942D01*
X174326232Y-118880870D01*
X174326224Y-118880885D01*
X174326223Y-118880886D01*
X174306270Y-118929058D01*
X174246792Y-119072648D01*
X174206300Y-119276220D01*
X173228500Y-119276220D01*
X173228500Y-116736220D01*
X174206300Y-116736220D01*
X174206300Y-116943779D01*
X174246792Y-117147351D01*
X174326222Y-117339110D01*
X174326226Y-117339118D01*
X174326227Y-117339119D01*
X174326232Y-117339128D01*
X174441533Y-117511688D01*
X174441534Y-117511690D01*
X174588308Y-117658464D01*
X174732635Y-117754900D01*
X174760881Y-117773773D01*
X174760883Y-117773774D01*
X174760886Y-117773776D01*
X174952647Y-117853207D01*
X175156220Y-117893700D01*
X175156221Y-117893700D01*
X175363779Y-117893700D01*
X175363780Y-117893700D01*
X175567353Y-117853207D01*
X175759114Y-117773776D01*
X175931694Y-117658462D01*
X176078462Y-117511694D01*
X176078463Y-117511693D01*
X176078465Y-117511690D01*
X176193766Y-117339129D01*
X176193776Y-117339114D01*
X176273207Y-117147353D01*
X176313700Y-116943780D01*
X176313700Y-116736220D01*
X176273207Y-116532647D01*
X176193776Y-116340886D01*
X176093418Y-116190690D01*
X176078463Y-116168307D01*
X175931692Y-116021536D01*
X175931691Y-116021535D01*
X175931690Y-116021534D01*
X175759128Y-115906232D01*
X175759119Y-115906227D01*
X175759118Y-115906226D01*
X175759112Y-115906223D01*
X175759111Y-115906222D01*
X175759103Y-115906219D01*
X175638658Y-115856329D01*
X175636268Y-115855339D01*
X175636267Y-115855338D01*
X175636254Y-115855333D01*
X175613628Y-115835996D01*
X175451104Y-115803669D01*
X175404272Y-115794354D01*
X175404271Y-115794353D01*
X175363780Y-115786300D01*
X175156220Y-115786300D01*
X175115728Y-115794353D01*
X175115728Y-115794354D01*
X175034188Y-115810573D01*
X174952647Y-115826792D01*
X174760886Y-115906223D01*
X174760885Y-115906224D01*
X174760870Y-115906232D01*
X174587942Y-116021778D01*
X174586068Y-116023775D01*
X174443776Y-116166067D01*
X174441778Y-116167942D01*
X174326232Y-116340870D01*
X174326223Y-116340886D01*
X174246792Y-116532647D01*
X174226701Y-116633655D01*
X174206300Y-116736220D01*
X173228500Y-116736220D01*
X173228500Y-115558830D01*
X173233422Y-115527749D01*
X173241093Y-115504138D01*
X173265631Y-115464096D01*
X173880498Y-114849229D01*
X173905960Y-114830731D01*
X173916653Y-114825282D01*
X173928077Y-114819463D01*
X173973745Y-114808500D01*
X174262791Y-114808500D01*
X174293875Y-114813423D01*
X174313887Y-114819925D01*
X174355355Y-114845914D01*
X174356230Y-114846825D01*
X174363695Y-114856110D01*
X174364186Y-114856467D01*
X174364324Y-114856892D01*
X174367321Y-114860619D01*
X174441538Y-114971694D01*
X174441539Y-114971695D01*
X174441541Y-114971697D01*
X174588308Y-115118464D01*
X174727137Y-115211226D01*
X174760881Y-115233773D01*
X174760883Y-115233774D01*
X174760886Y-115233776D01*
X174952647Y-115313207D01*
X175156220Y-115353700D01*
X175156221Y-115353700D01*
X175363779Y-115353700D01*
X175363780Y-115353700D01*
X175567353Y-115313207D01*
X175759114Y-115233776D01*
X175931694Y-115118462D01*
X176078462Y-114971694D01*
X176193776Y-114799114D01*
X176273207Y-114607353D01*
X176313700Y-114403780D01*
X176313700Y-114196220D01*
X176273207Y-113992647D01*
X176193776Y-113800886D01*
X176187504Y-113791500D01*
X176078463Y-113628307D01*
X175931692Y-113481536D01*
X175931690Y-113481534D01*
X175759128Y-113366232D01*
X175759122Y-113366229D01*
X175759118Y-113366226D01*
X175759110Y-113366222D01*
X175693312Y-113338967D01*
X175636280Y-113315343D01*
X175613629Y-113295997D01*
X175567351Y-113286792D01*
X175567352Y-113286792D01*
X175404272Y-113254354D01*
X175404271Y-113254353D01*
X175363780Y-113246300D01*
X175156220Y-113246300D01*
X175115728Y-113254353D01*
X175115728Y-113254354D01*
X175034188Y-113270573D01*
X174952647Y-113286792D01*
X174760886Y-113366223D01*
X174760885Y-113366224D01*
X174760870Y-113366232D01*
X174587942Y-113481778D01*
X174586067Y-113483776D01*
X174439174Y-113630668D01*
X174436038Y-113636536D01*
X174428750Y-113647445D01*
X174428745Y-113647452D01*
X174371221Y-113733541D01*
X174349860Y-113756651D01*
X174333334Y-113769680D01*
X174288757Y-113789708D01*
X174287521Y-113789929D01*
X174269814Y-113791500D01*
X173643644Y-113791500D01*
X173527122Y-113822723D01*
X173527120Y-113822723D01*
X173514329Y-113826150D01*
X173398369Y-113893101D01*
X172322636Y-114968834D01*
X172322632Y-114968839D01*
X172313099Y-114978373D01*
X172313097Y-114978374D01*
X172251360Y-115085307D01*
X172250729Y-115086398D01*
X172250727Y-115086403D01*
X172246155Y-115094320D01*
X172246154Y-115094322D01*
X172246151Y-115094329D01*
X172246149Y-115094333D01*
X172211500Y-115223644D01*
X172211500Y-119441969D01*
X172206576Y-119473054D01*
X172203092Y-119483779D01*
X172198907Y-119496659D01*
X172174366Y-119536705D01*
X171508704Y-120202367D01*
X171483242Y-120220867D01*
X171461128Y-120232135D01*
X171415455Y-120243100D01*
X166397233Y-120243100D01*
X166366144Y-120238175D01*
X166357479Y-120235360D01*
X166353251Y-120233986D01*
X166302958Y-120197445D01*
X166299915Y-120193257D01*
X166280700Y-120134127D01*
X166280700Y-119881536D01*
X166268881Y-119822120D01*
X166267910Y-119820667D01*
X166262347Y-119812341D01*
X166223860Y-119754740D01*
X166156567Y-119709777D01*
X166156539Y-119709749D01*
X166156479Y-119709717D01*
X166108878Y-119700249D01*
X166108878Y-119700248D01*
X166097068Y-119697900D01*
X166097064Y-119697900D01*
X164356936Y-119697900D01*
X164356935Y-119697900D01*
X164347082Y-119699858D01*
X164347083Y-119699859D01*
X164297520Y-119709717D01*
X164230140Y-119754739D01*
X164185118Y-119822120D01*
X164173300Y-119881536D01*
X164173300Y-121621662D01*
X164185117Y-121681078D01*
X164187464Y-121685468D01*
X164190624Y-121689319D01*
X164230140Y-121748460D01*
X164297520Y-121793481D01*
X164356936Y-121805300D01*
X164356937Y-121805300D01*
X164755685Y-121805300D01*
X164786772Y-121810224D01*
X164794737Y-121812812D01*
X164845037Y-121849357D01*
X164864250Y-121908488D01*
X164845037Y-121967619D01*
X164794737Y-122004164D01*
X164705708Y-122033090D01*
X164705703Y-122033092D01*
X164515263Y-122130127D01*
X164515257Y-122130130D01*
X164515255Y-122130132D01*
X164462831Y-122168220D01*
X164996000Y-122701389D01*
X165024226Y-122756787D01*
X165014500Y-122818195D01*
X164975167Y-122859645D01*
X164919992Y-122891501D01*
X164826901Y-122984592D01*
X164795045Y-123039767D01*
X164748840Y-123081369D01*
X164687006Y-123087866D01*
X164636789Y-123060600D01*
X164103620Y-122527431D01*
X164069203Y-122574803D01*
X164065533Y-122579854D01*
X164065527Y-122579863D01*
X163968490Y-122770307D01*
X163902448Y-122973567D01*
X163902442Y-122973590D01*
X163902435Y-122973615D01*
X163869000Y-123184713D01*
X163869000Y-123398485D01*
X163902437Y-123609590D01*
X163902441Y-123609611D01*
X163902442Y-123609614D01*
X163968490Y-123812891D01*
X164065527Y-124003335D01*
X164065527Y-124003336D01*
X164065534Y-124003346D01*
X164065536Y-124003349D01*
X164103620Y-124055767D01*
X164636790Y-123522595D01*
X164692186Y-123494371D01*
X164753594Y-123504097D01*
X164795045Y-123543431D01*
X164826902Y-123598608D01*
X164919992Y-123691698D01*
X164919991Y-123691698D01*
X164975164Y-123723552D01*
X165016767Y-123769757D01*
X165023266Y-123831590D01*
X164995998Y-123881809D01*
X164462831Y-124414978D01*
X164515255Y-124453067D01*
X164515260Y-124453069D01*
X164515262Y-124453071D01*
X164705703Y-124550106D01*
X164705705Y-124550106D01*
X164705708Y-124550108D01*
X164745697Y-124563101D01*
X164773737Y-124577388D01*
X164780517Y-124582314D01*
X164817061Y-124632615D01*
X164817060Y-124694789D01*
X164780513Y-124745088D01*
X164721384Y-124764300D01*
X142668844Y-124764300D01*
X142552322Y-124795523D01*
X142552320Y-124795523D01*
X142539529Y-124798950D01*
X142423572Y-124865899D01*
X142328899Y-124960572D01*
X142261952Y-125076526D01*
X142261951Y-125076529D01*
X142227300Y-125205844D01*
X142227300Y-125339754D01*
X142257215Y-125451395D01*
X142261951Y-125469070D01*
X142261951Y-125469071D01*
X142261953Y-125469074D01*
X142267640Y-125478924D01*
X142267642Y-125478929D01*
X142308114Y-125549026D01*
X142328899Y-125585026D01*
X142423574Y-125679701D01*
X142506980Y-125727856D01*
X142539528Y-125746648D01*
X142662443Y-125779582D01*
X142664313Y-125780228D01*
X142667362Y-125780948D01*
X142668759Y-125781300D01*
X142668855Y-125781300D01*
X148561655Y-125781300D01*
X148695545Y-125781300D01*
X154454455Y-125781300D01*
X154588345Y-125781300D01*
X160347255Y-125781300D01*
X163824737Y-125781300D01*
X163855818Y-125786222D01*
X163866387Y-125789656D01*
X163916688Y-125826197D01*
X163935905Y-125885327D01*
X163921084Y-125937891D01*
X163918029Y-125942877D01*
X163903385Y-125961454D01*
X163204699Y-126660140D01*
X163184820Y-126694574D01*
X163184814Y-126694582D01*
X163184815Y-126694583D01*
X163164506Y-126729756D01*
X163143700Y-126807401D01*
X163143700Y-128064770D01*
X163138776Y-128095858D01*
X163131107Y-128119460D01*
X163106565Y-128159507D01*
X163042102Y-128223968D01*
X163042100Y-128223971D01*
X162975150Y-128339929D01*
X162973578Y-128345798D01*
X162973578Y-128345799D01*
X162940500Y-128469244D01*
X162940500Y-128603154D01*
X162970415Y-128714795D01*
X162975151Y-128732470D01*
X162975151Y-128732471D01*
X162975153Y-128732474D01*
X162980840Y-128742324D01*
X162980842Y-128742329D01*
X163037116Y-128839795D01*
X163042099Y-128848426D01*
X163136774Y-128943101D01*
X163189297Y-128973425D01*
X163189298Y-128973427D01*
X163235546Y-129000128D01*
X163252728Y-129010048D01*
X163252729Y-129010048D01*
X163252731Y-129010049D01*
X163372217Y-129042065D01*
X163382051Y-129044700D01*
X163382055Y-129044700D01*
X163382057Y-129044700D01*
X163515943Y-129044700D01*
X163515944Y-129044700D01*
X163515945Y-129044700D01*
X163515945Y-129044699D01*
X163515948Y-129044699D01*
X163515950Y-129044699D01*
X163515963Y-129044695D01*
X163517419Y-129044351D01*
X163517431Y-129044349D01*
X163523601Y-129042892D01*
X163525784Y-129042064D01*
X163645270Y-129010048D01*
X163645271Y-129010048D01*
X163645271Y-129010047D01*
X163645274Y-129010047D01*
X163761226Y-128943101D01*
X163855901Y-128848426D01*
X163922847Y-128732474D01*
X163951342Y-128626129D01*
X163957499Y-128603150D01*
X163957500Y-128603143D01*
X163957500Y-128469256D01*
X163957499Y-128469249D01*
X163956341Y-128464929D01*
X163952218Y-128449539D01*
X163922848Y-128339929D01*
X163922848Y-128339928D01*
X163868098Y-128245100D01*
X163855901Y-128223974D01*
X163855895Y-128223968D01*
X163795033Y-128163105D01*
X163776532Y-128137640D01*
X163765264Y-128115524D01*
X163754300Y-128069855D01*
X163754300Y-127778412D01*
X165721299Y-127778412D01*
X165753411Y-128063420D01*
X165753412Y-128063426D01*
X165753414Y-128063435D01*
X165753415Y-128063440D01*
X165817238Y-128343068D01*
X165817239Y-128343070D01*
X165817242Y-128343080D01*
X165819305Y-128348975D01*
X165819307Y-128348980D01*
X165859879Y-128464928D01*
X165908242Y-128603143D01*
X165911972Y-128613801D01*
X165911978Y-128613814D01*
X166036414Y-128872209D01*
X166100013Y-128973427D01*
X166159500Y-129068101D01*
X166189020Y-129115082D01*
X166367849Y-129339326D01*
X166367853Y-129339331D01*
X166570669Y-129542147D01*
X166794919Y-129720980D01*
X167037781Y-129873580D01*
X167037785Y-129873582D01*
X167037790Y-129873585D01*
X167216891Y-129959835D01*
X167296185Y-129998022D01*
X167296192Y-129998024D01*
X167296201Y-129998029D01*
X167566931Y-130092761D01*
X167846565Y-130156586D01*
X168131587Y-130188700D01*
X168418413Y-130188700D01*
X168703435Y-130156586D01*
X168983069Y-130092761D01*
X169253799Y-129998029D01*
X169512219Y-129873580D01*
X169755081Y-129720980D01*
X169979331Y-129542147D01*
X170182147Y-129339331D01*
X170360980Y-129115081D01*
X170513580Y-128872219D01*
X170638029Y-128613799D01*
X170732761Y-128343069D01*
X170796586Y-128063435D01*
X170828700Y-127778413D01*
X170828700Y-127491587D01*
X170796586Y-127206565D01*
X170732761Y-126926931D01*
X170638029Y-126656201D01*
X170586397Y-126548987D01*
X170513585Y-126397790D01*
X170513582Y-126397785D01*
X170513580Y-126397781D01*
X170360980Y-126154919D01*
X170360977Y-126154915D01*
X170360975Y-126154912D01*
X170326389Y-126111543D01*
X170326385Y-126111539D01*
X170183086Y-125931847D01*
X170182408Y-125930971D01*
X170182149Y-125930672D01*
X170182147Y-125930669D01*
X169979331Y-125727853D01*
X169918949Y-125679700D01*
X169800232Y-125585026D01*
X169755090Y-125549026D01*
X169755084Y-125549022D01*
X169755080Y-125549019D01*
X169512209Y-125396414D01*
X169254417Y-125272268D01*
X169253881Y-125272005D01*
X169253803Y-125271972D01*
X169168280Y-125242045D01*
X169168280Y-125242046D01*
X168983067Y-125177237D01*
X168708216Y-125114505D01*
X168707306Y-125114293D01*
X168703475Y-125113381D01*
X168701525Y-125113103D01*
X168700447Y-125112928D01*
X168697810Y-125112780D01*
X168418414Y-125081300D01*
X168418413Y-125081300D01*
X168131587Y-125081300D01*
X168131586Y-125081300D01*
X167846578Y-125113411D01*
X167846572Y-125113412D01*
X167846562Y-125113414D01*
X167846559Y-125113415D01*
X167743902Y-125136845D01*
X167566933Y-125177237D01*
X167296198Y-125271971D01*
X167037795Y-125396411D01*
X167037790Y-125396413D01*
X167037790Y-125396414D01*
X166922152Y-125469074D01*
X166794908Y-125549026D01*
X166570677Y-125727844D01*
X166570666Y-125727855D01*
X166367856Y-125930664D01*
X166367844Y-125930677D01*
X166189026Y-126154908D01*
X166036411Y-126397795D01*
X165911971Y-126656198D01*
X165817237Y-126926933D01*
X165753416Y-127206556D01*
X165753412Y-127206572D01*
X165753411Y-127206578D01*
X165721300Y-127491586D01*
X165721300Y-127778412D01*
X165721299Y-127778412D01*
X163754300Y-127778412D01*
X163754300Y-127031661D01*
X163759222Y-127000580D01*
X163766893Y-126976969D01*
X163791431Y-126936927D01*
X164474530Y-126253829D01*
X164499992Y-126235331D01*
X164510685Y-126229882D01*
X164522109Y-126224063D01*
X164567777Y-126213100D01*
X165597391Y-126213100D01*
X165597393Y-126213100D01*
X165675041Y-126192294D01*
X165711057Y-126171500D01*
X165744659Y-126152100D01*
X167268530Y-124628229D01*
X167293992Y-124609731D01*
X167304685Y-124604282D01*
X167316109Y-124598463D01*
X167361777Y-124587500D01*
X178729191Y-124587500D01*
X178729193Y-124587500D01*
X178806841Y-124566694D01*
X178876459Y-124526500D01*
X180254100Y-123148859D01*
X180294294Y-123079242D01*
X180294618Y-123078035D01*
X180296328Y-123071649D01*
X180299866Y-123058443D01*
X180299869Y-123058438D01*
X180299868Y-123058438D01*
X180312463Y-123011431D01*
X180313294Y-123009244D01*
X180315100Y-123001594D01*
X180315100Y-108544808D01*
X180315099Y-108544804D01*
X180309105Y-108522436D01*
X180294294Y-108467159D01*
X180294294Y-108467158D01*
X180254100Y-108397541D01*
X179009632Y-107153073D01*
X178991130Y-107127606D01*
X178979863Y-107105491D01*
X178968900Y-107059823D01*
X178968900Y-103558012D01*
X178973822Y-103526931D01*
X178981493Y-103503320D01*
X179006031Y-103463278D01*
X179483905Y-102985403D01*
X179509363Y-102966907D01*
X179531482Y-102955638D01*
X179577148Y-102944676D01*
X179668414Y-102944676D01*
X179669807Y-102944325D01*
X179675977Y-102942868D01*
X179678160Y-102942040D01*
X179722930Y-102930044D01*
X179797646Y-102910024D01*
X179797647Y-102910024D01*
X179797647Y-102910023D01*
X179797650Y-102910023D01*
X179913602Y-102843077D01*
X180008277Y-102748402D01*
X180075223Y-102632450D01*
X180108710Y-102507474D01*
X180109875Y-102503126D01*
X180109876Y-102503119D01*
X180109876Y-102415048D01*
X180109954Y-102413071D01*
X180110917Y-102410461D01*
X180114798Y-102385955D01*
X180122469Y-102362344D01*
X180147008Y-102322301D01*
X180178323Y-102290987D01*
X180254100Y-102215211D01*
X180294294Y-102145594D01*
X180309317Y-102089526D01*
X180315100Y-102067945D01*
X180315100Y-87691407D01*
X180294294Y-87613759D01*
X180294294Y-87613758D01*
X180254100Y-87544141D01*
X179003459Y-86293500D01*
X179003460Y-86293500D01*
X178962095Y-86269618D01*
X178962095Y-86269617D01*
X178933845Y-86253307D01*
X178933842Y-86253306D01*
X178856195Y-86232500D01*
X164979262Y-86232500D01*
X164948175Y-86227576D01*
X164924571Y-86219906D01*
X164884525Y-86195366D01*
X164658632Y-85969473D01*
X164640130Y-85944006D01*
X164628863Y-85921891D01*
X164617900Y-85876223D01*
X164617900Y-84008413D01*
X164617900Y-84008408D01*
X164617899Y-84008402D01*
X164606872Y-83967248D01*
X164597103Y-83930789D01*
X164597099Y-83930776D01*
X164597096Y-83930765D01*
X164597095Y-83930762D01*
X164597094Y-83930759D01*
X164587417Y-83913999D01*
X164556903Y-83861143D01*
X164556902Y-83861142D01*
X164465535Y-83769775D01*
X164024171Y-83328412D01*
X165721299Y-83328412D01*
X165753411Y-83613420D01*
X165753412Y-83613426D01*
X165753414Y-83613434D01*
X165753415Y-83613440D01*
X165766819Y-83672165D01*
X165817237Y-83893065D01*
X165898487Y-84125265D01*
X165911972Y-84163801D01*
X165911978Y-84163814D01*
X166031740Y-84412503D01*
X166036418Y-84422217D01*
X166047483Y-84439825D01*
X166055126Y-84451989D01*
X166055127Y-84451992D01*
X166055128Y-84451992D01*
X166170859Y-84636179D01*
X166189018Y-84665078D01*
X166189024Y-84665087D01*
X166305507Y-84811151D01*
X166305508Y-84811152D01*
X166367849Y-84889327D01*
X166367852Y-84889330D01*
X166367853Y-84889331D01*
X166570669Y-85092147D01*
X166570672Y-85092149D01*
X166570971Y-85092408D01*
X166571836Y-85093078D01*
X166725573Y-85215679D01*
X166794919Y-85270980D01*
X167037781Y-85423580D01*
X167037785Y-85423582D01*
X167037790Y-85423585D01*
X167190029Y-85496899D01*
X167229927Y-85516113D01*
X167296185Y-85548022D01*
X167296192Y-85548024D01*
X167296201Y-85548029D01*
X167566931Y-85642761D01*
X167846565Y-85706586D01*
X168131587Y-85738700D01*
X168418413Y-85738700D01*
X168703435Y-85706586D01*
X168983069Y-85642761D01*
X169253799Y-85548029D01*
X169512219Y-85423580D01*
X169755081Y-85270980D01*
X169979331Y-85092147D01*
X170182147Y-84889331D01*
X170360980Y-84665081D01*
X170379139Y-84636181D01*
X170513571Y-84422234D01*
X170513574Y-84422228D01*
X170513580Y-84422219D01*
X170518261Y-84412500D01*
X170518696Y-84411598D01*
X170563582Y-84318389D01*
X170563582Y-84318388D01*
X170638029Y-84163799D01*
X170732761Y-83893069D01*
X170796586Y-83613435D01*
X170828700Y-83328413D01*
X170828700Y-83041587D01*
X170796586Y-82756565D01*
X170732761Y-82476931D01*
X170638029Y-82206201D01*
X170638024Y-82206192D01*
X170638022Y-82206185D01*
X170605332Y-82138306D01*
X170560556Y-82045327D01*
X170513585Y-81947790D01*
X170513582Y-81947785D01*
X170513580Y-81947781D01*
X170360980Y-81704919D01*
X170182147Y-81480669D01*
X169979331Y-81277853D01*
X169759500Y-81102544D01*
X169759496Y-81102540D01*
X169759496Y-81102541D01*
X169755081Y-81099020D01*
X169755080Y-81099019D01*
X169512209Y-80946414D01*
X169254417Y-80822268D01*
X169253881Y-80822005D01*
X169253803Y-80821972D01*
X169168280Y-80792045D01*
X169168280Y-80792046D01*
X168983067Y-80727237D01*
X168708216Y-80664505D01*
X168707306Y-80664293D01*
X168703475Y-80663381D01*
X168701525Y-80663103D01*
X168700447Y-80662928D01*
X168697810Y-80662780D01*
X168418414Y-80631300D01*
X168418413Y-80631300D01*
X168131587Y-80631300D01*
X168131586Y-80631300D01*
X167846578Y-80663411D01*
X167846572Y-80663412D01*
X167846562Y-80663414D01*
X167846559Y-80663415D01*
X167743902Y-80686845D01*
X167566933Y-80727237D01*
X167296198Y-80821971D01*
X167037795Y-80946411D01*
X166794908Y-81099026D01*
X166570677Y-81277844D01*
X166570664Y-81277856D01*
X166367856Y-81480664D01*
X166367844Y-81480677D01*
X166189026Y-81704908D01*
X166189022Y-81704915D01*
X166189019Y-81704919D01*
X166055594Y-81917266D01*
X166036411Y-81947795D01*
X165911971Y-82206198D01*
X165817237Y-82476933D01*
X165753416Y-82756556D01*
X165753412Y-82756572D01*
X165753411Y-82756578D01*
X165721300Y-83041586D01*
X165721300Y-83328412D01*
X165721299Y-83328412D01*
X164024171Y-83328412D01*
X163788859Y-83093100D01*
X163754050Y-83073003D01*
X163749388Y-83070311D01*
X163749378Y-83070304D01*
X163719247Y-83052908D01*
X163719244Y-83052907D01*
X163719242Y-83052906D01*
X163641595Y-83032100D01*
X143038004Y-83032100D01*
X142960357Y-83052906D01*
X142890737Y-83093102D01*
X141868698Y-84115141D01*
X141862855Y-84125265D01*
X141862849Y-84125274D01*
X141828508Y-84184751D01*
X141828506Y-84184756D01*
X141807700Y-84262401D01*
X141807700Y-86431190D01*
X141802775Y-86462280D01*
X141797916Y-86477233D01*
X141764526Y-86525143D01*
X141756529Y-86531448D01*
X141732742Y-86545390D01*
X141613888Y-86594621D01*
X141440942Y-86710179D01*
X141439067Y-86712176D01*
X141296776Y-86854467D01*
X141294778Y-86856342D01*
X141179232Y-87029270D01*
X141179224Y-87029285D01*
X141179223Y-87029286D01*
X141179222Y-87029289D01*
X141099792Y-87221048D01*
X141059300Y-87424620D01*
X140626700Y-87424620D01*
X140586207Y-87221047D01*
X140506776Y-87029286D01*
X140506765Y-87029270D01*
X140391463Y-86856707D01*
X140244690Y-86709934D01*
X140072128Y-86594632D01*
X140072122Y-86594629D01*
X140072118Y-86594626D01*
X140072110Y-86594622D01*
X140006312Y-86567367D01*
X139949280Y-86543743D01*
X139926629Y-86524397D01*
X139880351Y-86515192D01*
X139880352Y-86515192D01*
X139717272Y-86482754D01*
X139717271Y-86482753D01*
X139676780Y-86474700D01*
X139469220Y-86474700D01*
X139428728Y-86482753D01*
X139428728Y-86482754D01*
X139347188Y-86498973D01*
X139265647Y-86515192D01*
X139073886Y-86594623D01*
X139073885Y-86594624D01*
X139073870Y-86594632D01*
X138900942Y-86710178D01*
X138899067Y-86712176D01*
X138756776Y-86854467D01*
X138754778Y-86856342D01*
X138639232Y-87029270D01*
X138639224Y-87029285D01*
X138639223Y-87029286D01*
X138639222Y-87029289D01*
X138559792Y-87221048D01*
X138519300Y-87424620D01*
X124206500Y-87424620D01*
X124206500Y-84318032D01*
X124211423Y-84286947D01*
X124215612Y-84274053D01*
X124252154Y-84223757D01*
X124256353Y-84220707D01*
X124315477Y-84201500D01*
X133400223Y-84201500D01*
X133400225Y-84201500D01*
X133402121Y-84200992D01*
X133497247Y-84175503D01*
X133497247Y-84175502D01*
X133497254Y-84175501D01*
X133584247Y-84125276D01*
X133655276Y-84054247D01*
X133705501Y-83967254D01*
X133715281Y-83930757D01*
X133731499Y-83870229D01*
X133731500Y-83870223D01*
X133731500Y-83328412D01*
X133971299Y-83328412D01*
X134003411Y-83613420D01*
X134003412Y-83613426D01*
X134003414Y-83613434D01*
X134003415Y-83613440D01*
X134016819Y-83672165D01*
X134067237Y-83893065D01*
X134148487Y-84125265D01*
X134161972Y-84163801D01*
X134161978Y-84163814D01*
X134281740Y-84412503D01*
X134286418Y-84422217D01*
X134297483Y-84439825D01*
X134305126Y-84451989D01*
X134305127Y-84451992D01*
X134305128Y-84451992D01*
X134420859Y-84636179D01*
X134439018Y-84665078D01*
X134439024Y-84665087D01*
X134555507Y-84811151D01*
X134555508Y-84811152D01*
X134617849Y-84889327D01*
X134617852Y-84889330D01*
X134617853Y-84889331D01*
X134820669Y-85092147D01*
X134820672Y-85092149D01*
X134820971Y-85092408D01*
X134821836Y-85093078D01*
X134975573Y-85215679D01*
X135044919Y-85270980D01*
X135287781Y-85423580D01*
X135287785Y-85423582D01*
X135287790Y-85423585D01*
X135440029Y-85496899D01*
X135479927Y-85516113D01*
X135546185Y-85548022D01*
X135546192Y-85548024D01*
X135546201Y-85548029D01*
X135816931Y-85642761D01*
X136096565Y-85706586D01*
X136381587Y-85738700D01*
X136668413Y-85738700D01*
X136953435Y-85706586D01*
X137233069Y-85642761D01*
X137503799Y-85548029D01*
X137762219Y-85423580D01*
X138005081Y-85270980D01*
X138229331Y-85092147D01*
X138432147Y-84889331D01*
X138610980Y-84665081D01*
X138629139Y-84636181D01*
X138763571Y-84422234D01*
X138763574Y-84422228D01*
X138763580Y-84422219D01*
X138768261Y-84412500D01*
X138768696Y-84411598D01*
X138813582Y-84318389D01*
X138813582Y-84318388D01*
X138888029Y-84163799D01*
X138982761Y-83893069D01*
X139046586Y-83613435D01*
X139078700Y-83328413D01*
X139078700Y-83041587D01*
X139046586Y-82756565D01*
X138982761Y-82476931D01*
X138888029Y-82206201D01*
X138888024Y-82206192D01*
X138888022Y-82206185D01*
X138855332Y-82138306D01*
X138810556Y-82045327D01*
X138763585Y-81947790D01*
X138763582Y-81947785D01*
X138763580Y-81947781D01*
X138610980Y-81704919D01*
X138432147Y-81480669D01*
X138229331Y-81277853D01*
X138009500Y-81102544D01*
X138009496Y-81102540D01*
X138009496Y-81102541D01*
X138005081Y-81099020D01*
X138005080Y-81099019D01*
X137762209Y-80946414D01*
X137504417Y-80822268D01*
X137503881Y-80822005D01*
X137503803Y-80821972D01*
X137418280Y-80792045D01*
X137418280Y-80792046D01*
X137233067Y-80727237D01*
X136958216Y-80664505D01*
X136957306Y-80664293D01*
X136953475Y-80663381D01*
X136951525Y-80663103D01*
X136950447Y-80662928D01*
X136947810Y-80662780D01*
X136668414Y-80631300D01*
X136668413Y-80631300D01*
X136381587Y-80631300D01*
X136381586Y-80631300D01*
X136096578Y-80663411D01*
X136096572Y-80663412D01*
X136096562Y-80663414D01*
X136096559Y-80663415D01*
X135993902Y-80686845D01*
X135816933Y-80727237D01*
X135546198Y-80821971D01*
X135287795Y-80946411D01*
X135044908Y-81099026D01*
X134820677Y-81277844D01*
X134820664Y-81277856D01*
X134617856Y-81480664D01*
X134617844Y-81480677D01*
X134439026Y-81704908D01*
X134439022Y-81704915D01*
X134439019Y-81704919D01*
X134305594Y-81917266D01*
X134286411Y-81947795D01*
X134161971Y-82206198D01*
X134067237Y-82476933D01*
X134003416Y-82756556D01*
X134003412Y-82756572D01*
X134003411Y-82756578D01*
X133971300Y-83041586D01*
X133971300Y-83328412D01*
X133971299Y-83328412D01*
X133731500Y-83328412D01*
X133731500Y-80508032D01*
X133736423Y-80476947D01*
X133740612Y-80464053D01*
X133777154Y-80413757D01*
X133781353Y-80410707D01*
X133840477Y-80391500D01*
X147377311Y-80391500D01*
X147408388Y-80396420D01*
G37*
%TD.AperFunction*%
%TD*%
M02*
