%TF.GenerationSoftware,KiCad,Pcbnew,10.0.3*%
%TF.CreationDate,2026-05-19T14:39:14-04:00*%
%TF.ProjectId,EfficientStamp,45666669-6369-4656-9e74-5374616d702e,v1.0*%
%TF.SameCoordinates,Original*%
%TF.FileFunction,Copper,L4,Inr*%
%TF.FilePolarity,Positive*%
%FSLAX46Y46*%
G04 Gerber Fmt 4.6, Leading zero omitted, Abs format (unit mm)*
G04 Created by KiCad (PCBNEW 10.0.3) date 2026-05-19 14:39:14*
%MOMM*%
%LPD*%
G01*
G04 APERTURE LIST*
%TA.AperFunction,ComponentPad*%
%ADD10C,4.700000*%
%TD*%
%TA.AperFunction,ViaPad*%
%ADD11C,0.508000*%
%TD*%
%TA.AperFunction,ViaPad*%
%ADD12C,0.609600*%
%TD*%
%TA.AperFunction,ViaPad*%
%ADD13C,0.250000*%
%TD*%
%TA.AperFunction,Conductor*%
%ADD14C,0.152400*%
%TD*%
%TA.AperFunction,Conductor*%
%ADD15C,0.090000*%
%TD*%
G04 APERTURE END LIST*
D10*
%TO.N,GND*%
%TO.C,H4*%
X105725000Y-116965000D03*
%TD*%
%TO.N,GND*%
%TO.C,H1*%
X105725000Y-87755000D03*
%TD*%
%TO.N,GND*%
%TO.C,H3*%
X134935000Y-116965000D03*
%TD*%
%TO.N,GND*%
%TO.C,H2*%
X134935000Y-87755000D03*
%TD*%
D11*
%TO.N,M_TDO*%
X127111800Y-87680800D03*
X132809800Y-106452001D03*
X131250000Y-112732000D03*
%TO.N,M_TDI*%
X133749600Y-106454001D03*
X132130000Y-112732000D03*
X126222800Y-87680800D03*
%TO.N,+1V8_DCDC*%
X126030000Y-114907000D03*
X134689400Y-107471999D03*
X125860000Y-110681999D03*
X126050000Y-108172000D03*
X126630000Y-102962000D03*
X126640000Y-114907000D03*
X126970000Y-108172000D03*
X133749600Y-107473999D03*
X129850000Y-96872000D03*
X126580001Y-101572000D03*
X137100000Y-101712000D03*
X133400000Y-112732000D03*
X132809800Y-107471999D03*
%TO.N,M_TMS*%
X134670000Y-112732000D03*
X134689400Y-106452001D03*
X125892600Y-85521800D03*
%TO.N,M_TCK*%
X135629200Y-106452001D03*
X134660000Y-109742000D03*
X128132500Y-91352500D03*
%TO.N,M_TEST*%
X127602500Y-90902500D03*
X131540000Y-109742000D03*
X128320000Y-100916400D03*
D12*
%TO.N,GND*%
X130830000Y-84280000D03*
X138410000Y-114360000D03*
X112830000Y-84280000D03*
D11*
X137100000Y-100752000D03*
X130821472Y-103210528D03*
D12*
X123330000Y-120440000D03*
D13*
X113700000Y-105512000D03*
X119550000Y-101012000D03*
D12*
X114330000Y-120440000D03*
X102250000Y-117360000D03*
X118830000Y-84280000D03*
X102250000Y-90360000D03*
X138410000Y-88860000D03*
X117330000Y-120440000D03*
X138410000Y-93360000D03*
X102250000Y-112860000D03*
X105330000Y-120440000D03*
X108330000Y-84280000D03*
X106830000Y-120440000D03*
D13*
X115950000Y-101012000D03*
D12*
X138410000Y-90360000D03*
D13*
X117300000Y-101462000D03*
D12*
X102250000Y-94860000D03*
X120330000Y-120440000D03*
X114330000Y-84280000D03*
X102250000Y-103860000D03*
D13*
X116400000Y-103262000D03*
D12*
X138410000Y-100860000D03*
D13*
X116850000Y-103262000D03*
D12*
X102250000Y-88860000D03*
X138410000Y-112860000D03*
X138410000Y-99360000D03*
D11*
X120860000Y-106295999D03*
D13*
X115950000Y-103712000D03*
D12*
X102250000Y-102360000D03*
X126330000Y-120440000D03*
D13*
X115500000Y-101012000D03*
D12*
X135330000Y-120440000D03*
X111330000Y-84280000D03*
D13*
X113250000Y-103712000D03*
D12*
X109830000Y-84280000D03*
X138410000Y-87360000D03*
D13*
X118200000Y-102812000D03*
D12*
X127830000Y-84280000D03*
X129330000Y-84280000D03*
X102250000Y-111360000D03*
D13*
X116850000Y-101012000D03*
D12*
X102250000Y-99360000D03*
X138410000Y-102360000D03*
X105330000Y-84280000D03*
D11*
X132518528Y-103210528D03*
X126630000Y-103922000D03*
D12*
X138410000Y-97860000D03*
X138410000Y-96360000D03*
D11*
X135629200Y-107471999D03*
D12*
X108330000Y-120440000D03*
X126330000Y-84280000D03*
X124830000Y-120440000D03*
D13*
X112800000Y-99212000D03*
X116850000Y-101462000D03*
D12*
X138410000Y-103860000D03*
D11*
X132518528Y-101513472D03*
D13*
X117300000Y-99662000D03*
X119550000Y-102362000D03*
D12*
X102250000Y-87360000D03*
D13*
X115500000Y-103712000D03*
D12*
X138410000Y-117360000D03*
D13*
X115500000Y-101462000D03*
D12*
X130830000Y-120440000D03*
X121830000Y-84280000D03*
D11*
X131670000Y-102362000D03*
D12*
X123330000Y-84280000D03*
D11*
X130821472Y-101513472D03*
D13*
X115950000Y-99662000D03*
D12*
X115830000Y-120440000D03*
X102250000Y-106860000D03*
X133830000Y-120440000D03*
X111330000Y-120440000D03*
X138410000Y-109860000D03*
D13*
X117300000Y-101012000D03*
D12*
X138410000Y-91860000D03*
X102250000Y-114360000D03*
X138410000Y-108360000D03*
X102250000Y-109860000D03*
D13*
X115500000Y-103262000D03*
D12*
X102250000Y-108360000D03*
X132330000Y-120440000D03*
X102250000Y-97860000D03*
X118830000Y-120440000D03*
D13*
X117750000Y-101912000D03*
X117750000Y-102812000D03*
D12*
X117330000Y-84280000D03*
X102250000Y-100860000D03*
D13*
X115950000Y-101462000D03*
X114259000Y-102017000D03*
X116850000Y-105062000D03*
X118200000Y-101912000D03*
X112800000Y-105512000D03*
X117300000Y-103262000D03*
D12*
X138410000Y-115860000D03*
X138410000Y-105360000D03*
X135330000Y-84280000D03*
X138410000Y-106860000D03*
D13*
X116400000Y-103712000D03*
X116019000Y-104092000D03*
X116400000Y-101462000D03*
X116400000Y-101012000D03*
D12*
X120330000Y-84280000D03*
X127830000Y-120440000D03*
X102250000Y-93360000D03*
X133830000Y-84280000D03*
D13*
X114160786Y-102718911D03*
D12*
X115830000Y-84280000D03*
X102250000Y-105360000D03*
X138410000Y-94860000D03*
X138410000Y-111360000D03*
X132330000Y-84280000D03*
X102250000Y-96360000D03*
D13*
X118200000Y-99662000D03*
X120000000Y-99212000D03*
D12*
X106830000Y-84280000D03*
X109830000Y-120440000D03*
X121830000Y-120440000D03*
D13*
X115950000Y-103262000D03*
X113250000Y-102362000D03*
D12*
X102250000Y-115860000D03*
X112830000Y-120440000D03*
X129330000Y-120440000D03*
D13*
X114600000Y-99662000D03*
D12*
X124830000Y-84280000D03*
X102250000Y-91860000D03*
D11*
%TO.N,M_RST_N*%
X127072500Y-91352500D03*
X127599999Y-101572000D03*
X128750000Y-109742000D03*
D13*
%TO.N,+0V8*%
X113250000Y-101462000D03*
X120000000Y-103262000D03*
X118200000Y-103712000D03*
D11*
X109140000Y-95902000D03*
D13*
X112800000Y-101462000D03*
D11*
X115235000Y-107772000D03*
D13*
X119550000Y-103262000D03*
D11*
X120497500Y-107213400D03*
D13*
X118200000Y-103262000D03*
X113700000Y-101462000D03*
%TO.N,+0V55*%
X117300000Y-102362000D03*
X115950000Y-102362000D03*
X116850000Y-102812000D03*
X117300000Y-102812000D03*
D11*
X121910000Y-103367000D03*
D13*
X116850000Y-101912000D03*
X115500000Y-101912000D03*
X115500000Y-102362000D03*
X116850000Y-102362000D03*
X116400000Y-102362000D03*
X115950000Y-101912000D03*
X115500000Y-102812000D03*
X117300000Y-101912000D03*
X115950000Y-102812000D03*
X119100000Y-102812000D03*
D11*
X122510000Y-103367000D03*
X123110000Y-103367000D03*
D13*
X119100000Y-103262000D03*
X116400000Y-101912000D03*
X116400000Y-102812000D03*
D11*
X131870000Y-107471999D03*
%TO.N,E1_POW_EN*%
X133070000Y-98972000D03*
X124840002Y-110681999D03*
%TO.N,EN_CLK_EXT*%
X111110000Y-110670000D03*
D13*
X113700000Y-105062000D03*
%TO.N,+1V8*%
X120000000Y-105512000D03*
X117750000Y-101012000D03*
X120000000Y-105062000D03*
X117750000Y-101462000D03*
D11*
X133070000Y-91861999D03*
D13*
X118200000Y-101462000D03*
D11*
X104770000Y-108972000D03*
X111880000Y-106427200D03*
D13*
X115050000Y-103712000D03*
D11*
X122360000Y-108172000D03*
D13*
X114600000Y-101012000D03*
X114600000Y-103262000D03*
X114600000Y-103712000D03*
X117300000Y-103712000D03*
X116850000Y-104612000D03*
X115050000Y-103262000D03*
D11*
X129920000Y-95152001D03*
X111385000Y-108087000D03*
X134950000Y-91861999D03*
X120477002Y-93572000D03*
X107602100Y-106934000D03*
D13*
X119550000Y-105512000D03*
X118200000Y-101012000D03*
D12*
X105647100Y-98062000D03*
D13*
X114600000Y-101462000D03*
D11*
X124739998Y-93572000D03*
D13*
X115050000Y-101012000D03*
X117750000Y-103712000D03*
D11*
X131190000Y-91861999D03*
D13*
X115050000Y-101462000D03*
X119550000Y-105062000D03*
D11*
%TO.N,DIGIO011_B*%
X121160000Y-117167000D03*
X107593400Y-99887000D03*
D13*
X113250000Y-104612000D03*
D11*
%TO.N,DIGIO013_B*%
X120730000Y-117617000D03*
X106323400Y-99887000D03*
D13*
X113250000Y-104162000D03*
D11*
%TO.N,DIGIO014_B*%
X120309800Y-114907000D03*
D13*
X111109000Y-104162000D03*
D11*
%TO.N,DIGIO012_B*%
X120730000Y-114457000D03*
D13*
X111109000Y-105072000D03*
D11*
%TO.N,DIGIO010_B*%
X121150200Y-114907000D03*
D13*
X110549000Y-105392000D03*
%TO.N,DIGIO015_B*%
X113700000Y-103712000D03*
X111109000Y-105712000D03*
D11*
X120300000Y-117167000D03*
%TO.N,DFT_BOOT_MODE0*%
X121500000Y-92632000D03*
D13*
X119100000Y-100112000D03*
D11*
%TO.N,DFT_BOOT_MODE1*%
X123719999Y-92632000D03*
D13*
X119100000Y-100562000D03*
%TO.N,VSSP18_VDDCONST*%
X119100000Y-105062000D03*
X119100000Y-105512000D03*
D11*
%TO.N,~{E1_RST}*%
X129310000Y-90842001D03*
X120310000Y-112610000D03*
D13*
X114150000Y-104612000D03*
D11*
X123530000Y-117167000D03*
X135490000Y-104052000D03*
X123530000Y-119027000D03*
X103988400Y-110490000D03*
%TO.N,Net-(J1-Pad2)*%
X130860000Y-95152001D03*
%TO.N,Net-(J1-Pad4)*%
X133400000Y-95152001D03*
%TO.N,Net-(J1-Pad6)*%
X134010000Y-91861998D03*
%TO.N,Net-(J1-Pad7)*%
X128980000Y-95152001D03*
%TO.N,Net-(J1-Pad8)*%
X132130000Y-91861999D03*
%TO.N,Net-(J1-Pad9)*%
X130250000Y-91861998D03*
%TO.N,Net-(J1-Pad10)*%
X129310000Y-91861999D03*
%TO.N,VDDQPS_EFUSE*%
X111460000Y-95902000D03*
D13*
X117750000Y-100112000D03*
%TO.N,VSSP18_VDDVAR*%
X119550000Y-104612000D03*
X119100000Y-104612000D03*
X120000000Y-104612000D03*
%TO.N,Net-(U1A-CLK_OUT_O)*%
X113250000Y-105512000D03*
D11*
X111002600Y-106706600D03*
D13*
%TO.N,DIGIO051_B*%
X111109000Y-98892000D03*
D11*
X114760000Y-119027000D03*
D13*
%TO.N,DIGIO053_B*%
X110549000Y-98542000D03*
D11*
X113920000Y-119020000D03*
%TO.N,DIGIO055_B*%
X112230000Y-119030000D03*
D13*
X111109000Y-98192000D03*
D11*
%TO.N,DIGIO061_B*%
X113150000Y-90267000D03*
D13*
X114599000Y-98142000D03*
D11*
%TO.N,DIGIO063_B*%
X114110000Y-90267000D03*
D13*
X115049000Y-97582000D03*
D11*
%TO.N,DIGIO065_B*%
X114730000Y-88407000D03*
D13*
X115499000Y-98142000D03*
%TO.N,DIGIO071_B*%
X115949000Y-97582000D03*
D11*
X115500000Y-90267000D03*
D13*
%TO.N,DIGIO073_B*%
X116399000Y-98142000D03*
D11*
X115930000Y-89817000D03*
%TO.N,DIGIO075_B*%
X116360000Y-88407000D03*
D13*
X116849000Y-97582000D03*
%TO.N,DIGIO081_B*%
X117299000Y-98142000D03*
D11*
X117100000Y-89817000D03*
D13*
%TO.N,DIGIO083_B*%
X117749000Y-97582000D03*
D11*
X117530000Y-90267000D03*
%TO.N,DIGIO091_B*%
X118700000Y-90267000D03*
D13*
X118199000Y-98142000D03*
D11*
%TO.N,DIGIO093_B*%
X119130000Y-89817000D03*
D13*
X118649000Y-97582000D03*
%TO.N,DIGIO095_B*%
X119099000Y-98142000D03*
D11*
X119530000Y-88407000D03*
%TO.N,DIGIO101_B*%
X120300000Y-89817000D03*
D13*
X119549000Y-97582000D03*
%TO.N,DIGIO045_B*%
X110549000Y-99662000D03*
D11*
X130180000Y-106312000D03*
X126760000Y-96902000D03*
X115510000Y-117640000D03*
D13*
%TO.N,DIGIO050_B*%
X113700000Y-99662000D03*
D11*
X114640400Y-114907000D03*
D13*
%TO.N,DIGIO052_B*%
X114150000Y-99662000D03*
D11*
X114330000Y-116317000D03*
D13*
%TO.N,DIGIO060_B*%
X115050000Y-99662000D03*
D11*
X113900000Y-87107000D03*
%TO.N,DIGIO072_B*%
X115930000Y-87107000D03*
D13*
X116400000Y-99662000D03*
D11*
%TO.N,DIGIO080_B*%
X117100000Y-87107000D03*
D13*
X116850000Y-99662000D03*
D11*
%TO.N,DIGIO085_B*%
X117960000Y-89817000D03*
D13*
X117750000Y-99662000D03*
D11*
%TO.N,DIGIO094_B*%
X119560000Y-87557000D03*
D13*
X118650000Y-99662000D03*
D11*
%TO.N,DIGIO100_B*%
X120300000Y-87107000D03*
D13*
X119100000Y-99662000D03*
%TO.N,DIGIO103_B*%
X120450000Y-98142000D03*
D11*
X120730000Y-90267000D03*
%TO.N,DIGIO042_B*%
X115930000Y-116767000D03*
D13*
X111109000Y-100112000D03*
D11*
%TO.N,DIGIO044_B*%
X115526435Y-114906635D03*
X126740000Y-96212000D03*
X130630000Y-105792000D03*
D13*
X113250000Y-100112000D03*
D11*
%TO.N,DIGIO054_B*%
X113930000Y-114907000D03*
D13*
X114600000Y-100112000D03*
D11*
%TO.N,DIGIO062_B*%
X114330000Y-87557000D03*
D13*
X115050000Y-100112000D03*
%TO.N,DIGIO064_B*%
X115500000Y-100112000D03*
D11*
X114760000Y-87107000D03*
%TO.N,DIGIO070_B*%
X115500000Y-87557000D03*
D13*
X115950000Y-100112000D03*
D11*
%TO.N,DIGIO074_B*%
X116360000Y-87557000D03*
D13*
X116400000Y-100112000D03*
%TO.N,DIGIO082_B*%
X116850000Y-100112000D03*
D11*
X117530000Y-87557000D03*
%TO.N,DIGIO084_B*%
X117960000Y-87107000D03*
D13*
X117300000Y-100112000D03*
D11*
%TO.N,DIGIO090_B*%
X118700000Y-87557000D03*
D13*
X118200000Y-100112000D03*
%TO.N,DIGIO092_B*%
X118650000Y-100112000D03*
D11*
X119130000Y-87107000D03*
%TO.N,DIGIO102_B*%
X120730000Y-87557000D03*
D13*
X119550000Y-100112000D03*
%TO.N,DIGIO105_B*%
X120800000Y-97582000D03*
D11*
X121160000Y-89817000D03*
D13*
%TO.N,DIGIO040_B*%
X110549000Y-100562000D03*
D11*
X116360000Y-116317000D03*
%TO.N,DIGIO043_B*%
X115930000Y-119027000D03*
D13*
X113250000Y-100562000D03*
%TO.N,DIGIO041_B*%
X113700000Y-100562000D03*
D11*
X116350000Y-117640000D03*
D13*
%TO.N,DIGIO104_B*%
X119550000Y-100562000D03*
D11*
X121160000Y-87107000D03*
%TO.N,DIGIO111_B*%
X121930000Y-90837000D03*
D13*
X121150000Y-98142000D03*
D11*
%TO.N,DIGIO110_B*%
X121900000Y-87557000D03*
D13*
X122200000Y-100402000D03*
%TO.N,DIGIO114_B*%
X119100000Y-101462000D03*
D11*
X122760000Y-87557000D03*
%TO.N,DIGIO112_B*%
X122330000Y-87107000D03*
D13*
X119550000Y-101462000D03*
D11*
%TO.N,DIGIO113_B*%
X122330000Y-88407000D03*
D13*
X121710000Y-100762000D03*
D11*
%TO.N,DIGIO032_B*%
X117530000Y-116317000D03*
D13*
X110549000Y-101912000D03*
D11*
%TO.N,DIGIO034_B*%
X117460000Y-114907000D03*
D13*
X113250000Y-101912000D03*
%TO.N,DIGIO035_B*%
X113700000Y-101912000D03*
D11*
X117130000Y-119030000D03*
D13*
%TO.N,PRG_SPI_SCK*%
X119100000Y-101912000D03*
D11*
X123930000Y-87557000D03*
X123120000Y-99582000D03*
X135500000Y-103052000D03*
D13*
%TO.N,DIGIO115_B*%
X119550000Y-101912000D03*
D11*
X122730000Y-89817000D03*
D13*
%TO.N,PRG_SPI_CS*%
X122200000Y-101122000D03*
D11*
X135040000Y-102562000D03*
X123930000Y-90267000D03*
X123750000Y-99052000D03*
%TO.N,DIGIO030_B*%
X118090000Y-114907000D03*
D13*
X111109000Y-102362000D03*
D11*
%TO.N,DIGIO033_B*%
X117950000Y-119030000D03*
D13*
X113700000Y-102362000D03*
D11*
%TO.N,PRG_SPI_MOSI*%
X135500000Y-102052000D03*
X122950000Y-98602000D03*
D13*
X119100000Y-102362000D03*
D11*
X124360000Y-87107000D03*
%TO.N,PRG_SPI_MISO*%
X124150000Y-97702000D03*
X124350000Y-90830000D03*
D13*
X121710000Y-101482000D03*
D11*
X135500000Y-100552000D03*
%TO.N,DIGIO024_B*%
X118700000Y-116317000D03*
D13*
X110549000Y-102812000D03*
%TO.N,DIGIO025_B*%
X113250000Y-102812000D03*
D11*
X119130000Y-119030000D03*
D13*
%TO.N,DIGIO031_B*%
X113700000Y-102812000D03*
D11*
X117530000Y-117630000D03*
D13*
%TO.N,E1_AON4*%
X119550000Y-102812000D03*
D11*
X124560000Y-99952000D03*
X135040000Y-103552000D03*
X123530000Y-88410000D03*
%TO.N,E1_AON5*%
X135040000Y-100052000D03*
X123500000Y-87107000D03*
X124960000Y-98152000D03*
D13*
X122200000Y-102062000D03*
D11*
%TO.N,DIGIO022_B*%
X119130000Y-116767000D03*
D13*
X111109000Y-103262000D03*
D11*
%TO.N,DIGIO023_B*%
X118700000Y-117620000D03*
D13*
X113250000Y-103262000D03*
D11*
%TO.N,DIGIO021_B*%
X119530000Y-117617000D03*
D13*
X113700000Y-103262000D03*
%TO.N,DIGIO020_B*%
X110549000Y-103712000D03*
D11*
X119560000Y-116317000D03*
D13*
%TO.N,Net-(U1A-EN_POW_EXT_I)*%
X113700000Y-104162000D03*
D11*
%TO.N,JTAG_TDI*%
X132130000Y-90842001D03*
X129690000Y-105792000D03*
D13*
X114600000Y-104612000D03*
D11*
X129970000Y-116967000D03*
X124309800Y-114907000D03*
%TO.N,JTAG_CTRL*%
X128980000Y-96171999D03*
D13*
X115050000Y-104612000D03*
D11*
X124729000Y-114457000D03*
X128330000Y-102462000D03*
D13*
%TO.N,JTAG_TDO*%
X115500000Y-104612000D03*
D11*
X134010000Y-90842000D03*
X131070000Y-106312000D03*
X125150200Y-114907000D03*
D13*
%TO.N,DIGIO005_B*%
X115279000Y-104282000D03*
D11*
X121900000Y-117617000D03*
%TO.N,DIGIO003_B*%
X122330000Y-117167000D03*
D13*
X116400000Y-104612000D03*
D11*
%TO.N,OTP_WEN*%
X120400000Y-108922000D03*
D13*
X117300000Y-104612000D03*
D11*
%TO.N,BOOT_MODE1*%
X129590000Y-98972000D03*
D13*
X117410000Y-104262000D03*
D11*
X126330000Y-117617000D03*
X127720000Y-105792000D03*
D13*
%TO.N,CLK_REF*%
X114600000Y-105062000D03*
D11*
%TO.N,JTAG_TCK*%
X125660000Y-113080800D03*
X124300000Y-117617000D03*
D13*
X115500000Y-105062000D03*
D11*
X133400000Y-96171999D03*
X135030000Y-104552000D03*
D13*
%TO.N,DIGIO001_B*%
X116400000Y-105062000D03*
D11*
X122760000Y-117617000D03*
D13*
%TO.N,DIGIO002_B*%
X117300000Y-105062000D03*
D11*
X123210000Y-114277000D03*
D13*
%TO.N,BOOT_MODE2*%
X117750000Y-105062000D03*
D11*
X125900000Y-119027000D03*
X128320000Y-101802000D03*
%TO.N,JTAG_TRSTN*%
X130250000Y-90842000D03*
D13*
X115950000Y-105972000D03*
D11*
X126330000Y-113080800D03*
X133720000Y-98972000D03*
X124730000Y-117167000D03*
%TO.N,JTAG_TMS*%
X131490200Y-105792000D03*
X130860000Y-96171999D03*
X125160000Y-117617000D03*
D13*
X116499000Y-106262000D03*
D11*
X127000000Y-113080800D03*
%TO.N,DIGIO004_B*%
X123210000Y-113647000D03*
D13*
X117059000Y-105972000D03*
D11*
%TO.N,DIGIO000_B*%
X123210000Y-114907000D03*
D13*
X117474000Y-106612000D03*
D11*
%TO.N,BOOT_MODE0*%
X128640000Y-105792000D03*
X126760000Y-119027000D03*
D13*
X117980000Y-107402000D03*
D11*
X130270000Y-98972000D03*
%TD*%
%TO.N,M_TDO*%
D14*
X131250000Y-112732000D02*
X132560000Y-111422000D01*
X132560000Y-111422000D02*
X132560000Y-108407000D01*
X132350000Y-106911801D02*
X132809800Y-106452001D01*
X132350000Y-108197000D02*
X132350000Y-106911801D01*
X132560000Y-108407000D02*
X132350000Y-108197000D01*
%TO.N,M_TDI*%
X133280000Y-111582000D02*
X133280000Y-106923601D01*
X132130000Y-112732000D02*
X133280000Y-111582000D01*
X133280000Y-106923601D02*
X133749600Y-106454001D01*
%TO.N,M_TMS*%
X133950000Y-111042000D02*
X133950000Y-108452000D01*
X133950000Y-108452000D02*
X134220000Y-108182000D01*
X134660000Y-112722000D02*
X134660000Y-111752000D01*
X134670000Y-112732000D02*
X134660000Y-112722000D01*
X134220000Y-106921401D02*
X134689400Y-106452001D01*
X134660000Y-111752000D02*
X133950000Y-111042000D01*
X134220000Y-108182000D02*
X134220000Y-106921401D01*
%TO.N,M_TCK*%
X134660000Y-109742000D02*
X134650000Y-109732000D01*
X134650000Y-109732000D02*
X134650000Y-108872000D01*
X134650000Y-108872000D02*
X135150000Y-108372000D01*
X135150000Y-108372000D02*
X135150000Y-106931201D01*
X135150000Y-106931201D02*
X135629200Y-106452001D01*
%TO.N,M_TEST*%
X131530000Y-109292000D02*
X129160000Y-106922000D01*
X129160000Y-106922000D02*
X129160000Y-101756400D01*
X131540000Y-109742000D02*
X131530000Y-109732000D01*
X131530000Y-109732000D02*
X131530000Y-109292000D01*
X129160000Y-101756400D02*
X128320000Y-100916400D01*
%TO.N,M_RST_N*%
X128740000Y-109732000D02*
X128740000Y-108932000D01*
X127270000Y-101901999D02*
X127599999Y-101572000D01*
X128750000Y-109742000D02*
X128740000Y-109732000D01*
X127270000Y-107462000D02*
X127270000Y-101901999D01*
X128740000Y-108932000D02*
X127270000Y-107462000D01*
%TO.N,EN_CLK_EXT*%
D15*
X111139600Y-106122400D02*
X112079400Y-105182600D01*
X110530000Y-110092000D02*
X110530000Y-106376400D01*
X111110000Y-110670000D02*
X111108000Y-110670000D01*
X112079400Y-105182600D02*
X113579400Y-105182600D01*
X113579400Y-105182600D02*
X113700000Y-105062000D01*
X110784000Y-106122400D02*
X111139600Y-106122400D01*
X110530000Y-106376400D02*
X110784000Y-106122400D01*
X111108000Y-110670000D02*
X110530000Y-110092000D01*
%TO.N,DIGIO011_B*%
X110950000Y-103812000D02*
X110600000Y-104162000D01*
X111482000Y-113432000D02*
X119102000Y-113432000D01*
X108319000Y-97892000D02*
X108959000Y-97252000D01*
X110600000Y-104162000D02*
X109760000Y-104162000D01*
X111579000Y-97782000D02*
X111579000Y-104102000D01*
X109199000Y-104723000D02*
X109199000Y-111149000D01*
X111939000Y-104462000D02*
X113100000Y-104462000D01*
X111289000Y-103812000D02*
X110950000Y-103812000D01*
X119102000Y-113432000D02*
X119800000Y-114130000D01*
X120790000Y-115700000D02*
X121160000Y-116070000D01*
X107593400Y-99887000D02*
X108319000Y-99161400D01*
X119800000Y-115240000D02*
X120260000Y-115700000D01*
X108959000Y-97252000D02*
X111049000Y-97252000D01*
X111049000Y-97252000D02*
X111579000Y-97782000D01*
X120260000Y-115700000D02*
X120790000Y-115700000D01*
X109199000Y-111149000D02*
X111482000Y-113432000D01*
X111939000Y-104462000D02*
X111579000Y-104102000D01*
X113250000Y-104612000D02*
X113100000Y-104462000D01*
X119800000Y-114130000D02*
X119800000Y-115240000D01*
X109760000Y-104162000D02*
X109199000Y-104723000D01*
X111579000Y-104102000D02*
X111289000Y-103812000D01*
X108319000Y-99161400D02*
X108319000Y-97892000D01*
X121160000Y-116070000D02*
X121160000Y-117167000D01*
%TO.N,DIGIO013_B*%
X111199000Y-96922000D02*
X108799000Y-96922000D01*
X112169000Y-104162000D02*
X111919000Y-103912000D01*
X106323400Y-99217600D02*
X106323400Y-99887000D01*
X107959000Y-98602000D02*
X107669000Y-98892000D01*
X108799000Y-96922000D02*
X107959000Y-97762000D01*
X106649000Y-98892000D02*
X106323400Y-99217600D01*
X111919000Y-103912000D02*
X111919000Y-97642000D01*
X113250000Y-104162000D02*
X112169000Y-104162000D01*
X111919000Y-97642000D02*
X111199000Y-96922000D01*
X107669000Y-98892000D02*
X106649000Y-98892000D01*
X107959000Y-97762000D02*
X107959000Y-98602000D01*
%TO.N,DIGIO014_B*%
X119242000Y-113112000D02*
X111632000Y-113112000D01*
X120309800Y-114221800D02*
X120309800Y-114907000D01*
X110809000Y-104462000D02*
X111109000Y-104162000D01*
X120309800Y-114221800D02*
X120309800Y-114179800D01*
X120309800Y-114221800D02*
X120309800Y-114616800D01*
X120309800Y-114179800D02*
X119242000Y-113112000D01*
X111099000Y-104152000D02*
X111099000Y-104172000D01*
X109970000Y-104462000D02*
X110809000Y-104462000D01*
X109529000Y-111009000D02*
X109529000Y-104903000D01*
X109529000Y-104903000D02*
X109970000Y-104462000D01*
X111632000Y-113112000D02*
X109529000Y-111009000D01*
X111109000Y-104162000D02*
X111099000Y-104152000D01*
%TO.N,DIGIO012_B*%
X109859000Y-105552000D02*
X110339000Y-105072000D01*
X120730000Y-114457000D02*
X120730000Y-114140000D01*
X120730000Y-114140000D02*
X119382000Y-112792000D01*
X111782000Y-112792000D02*
X109859000Y-110869000D01*
X119382000Y-112792000D02*
X111782000Y-112792000D01*
X109859000Y-110869000D02*
X109859000Y-105552000D01*
X110339000Y-105072000D02*
X111109000Y-105072000D01*
%TO.N,DFT_BOOT_MODE0*%
X120400000Y-99602000D02*
X119610000Y-99602000D01*
X121500000Y-93602000D02*
X121690000Y-93792000D01*
X121500000Y-92632000D02*
X121500000Y-93602000D01*
X121690000Y-98312000D02*
X120400000Y-99602000D01*
X121690000Y-93792000D02*
X121690000Y-98312000D01*
X119610000Y-99602000D02*
X119100000Y-100112000D01*
%TO.N,DFT_BOOT_MODE1*%
X124260000Y-98702000D02*
X124260000Y-99392000D01*
X118470000Y-103882000D02*
X118470000Y-101192000D01*
X121080000Y-103712000D02*
X120500000Y-104292000D01*
X118880000Y-104292000D02*
X118470000Y-103882000D01*
X123750000Y-99902000D02*
X123750000Y-102152000D01*
X123719999Y-92632000D02*
X123720000Y-92632001D01*
X123720000Y-92632001D02*
X123720000Y-98162000D01*
X123750000Y-102152000D02*
X122980000Y-102922000D01*
X122980000Y-102922000D02*
X121280000Y-102922000D01*
X123720000Y-98162000D02*
X124260000Y-98702000D01*
X121280000Y-102922000D02*
X121080000Y-103122000D01*
X121080000Y-103122000D02*
X121080000Y-103712000D01*
X124260000Y-99392000D02*
X123750000Y-99902000D01*
X120500000Y-104292000D02*
X118880000Y-104292000D01*
X118470000Y-101192000D02*
X119100000Y-100562000D01*
%TO.N,~{E1_RST}*%
X114210000Y-106772000D02*
X114320000Y-106662000D01*
D14*
X131720000Y-113802000D02*
X130490000Y-115032000D01*
X134540000Y-105012000D02*
X134770000Y-105242000D01*
D15*
X114960000Y-109322000D02*
X114210000Y-108572000D01*
X113960000Y-105502000D02*
X113960000Y-104802000D01*
X123820000Y-115487000D02*
X123820000Y-113440000D01*
X114320000Y-106662000D02*
X114320000Y-105862000D01*
X114320000Y-105862000D02*
X113960000Y-105502000D01*
D14*
X132280000Y-90292000D02*
X132590000Y-90602000D01*
X136310000Y-113802000D02*
X131720000Y-113802000D01*
X132590000Y-90602000D02*
X132590000Y-92652000D01*
D15*
X123820000Y-113440000D02*
X122532000Y-112152000D01*
D14*
X134540000Y-104272000D02*
X134540000Y-105012000D01*
D15*
X123530000Y-115777000D02*
X123820000Y-115487000D01*
D14*
X136290000Y-105242000D02*
X136980000Y-105932000D01*
X136120000Y-99652000D02*
X136120000Y-103422000D01*
X132760000Y-96292000D02*
X136120000Y-99652000D01*
X136120000Y-103422000D02*
X135490000Y-104052000D01*
X136980000Y-113132000D02*
X136310000Y-113802000D01*
D15*
X123530000Y-117167000D02*
X123530000Y-115777000D01*
D14*
X135490000Y-104052000D02*
X134760000Y-104052000D01*
X132590000Y-92652000D02*
X132760000Y-92822000D01*
X136980000Y-105932000D02*
X136980000Y-113132000D01*
X130490000Y-115032000D02*
X130490000Y-118450000D01*
X130490000Y-118450000D02*
X129340000Y-119600000D01*
X129860001Y-90292000D02*
X132280000Y-90292000D01*
D15*
X116280000Y-112152000D02*
X119540000Y-112152000D01*
X119852000Y-112152000D02*
X120310000Y-112610000D01*
D14*
X129310000Y-90842001D02*
X129860001Y-90292000D01*
D15*
X114210000Y-108572000D02*
X114210000Y-106772000D01*
D14*
X124103000Y-119600000D02*
X123530000Y-119027000D01*
D15*
X113960000Y-104802000D02*
X114150000Y-104612000D01*
D14*
X134770000Y-105242000D02*
X136290000Y-105242000D01*
D15*
X116280000Y-112152000D02*
X114960000Y-110832000D01*
X114960000Y-110832000D02*
X114960000Y-109322000D01*
X122532000Y-112152000D02*
X119540000Y-112152000D01*
D14*
X132760000Y-92822000D02*
X132760000Y-96292000D01*
X129340000Y-119600000D02*
X124103000Y-119600000D01*
D15*
X119540000Y-112152000D02*
X119852000Y-112152000D01*
D14*
X134760000Y-104052000D02*
X134540000Y-104272000D01*
%TO.N,Net-(U1A-CLK_OUT_O)*%
D15*
X111002600Y-106706600D02*
X111002600Y-106691200D01*
X112868200Y-105893800D02*
X113250000Y-105512000D01*
X111800000Y-105893800D02*
X112868200Y-105893800D01*
X111002600Y-106691200D02*
X111800000Y-105893800D01*
%TO.N,DIGIO051_B*%
X105459000Y-107982000D02*
X105459000Y-105732000D01*
X106230000Y-103301000D02*
X110359000Y-99172000D01*
X114760000Y-119027000D02*
X113810000Y-118077000D01*
X113810000Y-118077000D02*
X111677000Y-118077000D01*
X111677000Y-118077000D02*
X106230000Y-112630000D01*
X106230000Y-112630000D02*
X106230000Y-108753000D01*
X106230000Y-104961000D02*
X106230000Y-103301000D01*
X106230000Y-108753000D02*
X105459000Y-107982000D01*
X110359000Y-99172000D02*
X110829000Y-99172000D01*
X110829000Y-99172000D02*
X111109000Y-98892000D01*
X105459000Y-105732000D02*
X106230000Y-104961000D01*
%TO.N,DIGIO053_B*%
X113920000Y-119020000D02*
X113330000Y-118430000D01*
X105129000Y-108142000D02*
X105129000Y-105612000D01*
X105129000Y-105612000D02*
X105910000Y-104831000D01*
X111530000Y-118430000D02*
X105899000Y-112799000D01*
X113330000Y-118430000D02*
X111530000Y-118430000D01*
X105910000Y-103181000D02*
X110549000Y-98542000D01*
X105910000Y-104831000D02*
X105910000Y-103181000D01*
X105899000Y-112799000D02*
X105899000Y-108912000D01*
X105899000Y-108912000D02*
X105129000Y-108142000D01*
%TO.N,DIGIO055_B*%
X110399000Y-98192000D02*
X111109000Y-98192000D01*
X112230000Y-119030000D02*
X111620000Y-119030000D01*
X111620000Y-119030000D02*
X105570000Y-112980000D01*
X105569000Y-104682000D02*
X105569000Y-103022000D01*
X104799000Y-108262000D02*
X104799000Y-105452000D01*
X105570000Y-109033000D02*
X104799000Y-108262000D01*
X105569000Y-103022000D02*
X110399000Y-98192000D01*
X104799000Y-105452000D02*
X105569000Y-104682000D01*
X105570000Y-112980000D02*
X105570000Y-109033000D01*
%TO.N,DIGIO095_B*%
X119099000Y-98142000D02*
X119099000Y-94333000D01*
X119099000Y-94333000D02*
X119100000Y-94332000D01*
X119100000Y-91390000D02*
X119720000Y-90770000D01*
X119720000Y-89197000D02*
X119530000Y-89007000D01*
X119720000Y-90770000D02*
X119720000Y-89197000D01*
X119530000Y-89007000D02*
X119530000Y-88407000D01*
X119100000Y-94332000D02*
X119100000Y-91390000D01*
%TO.N,DIGIO045_B*%
D14*
X127955000Y-97387000D02*
X127955000Y-99757000D01*
D15*
X105789000Y-105912000D02*
X106560000Y-105141000D01*
X115510000Y-117640000D02*
X115490000Y-117640000D01*
D14*
X127955000Y-99757000D02*
X129650000Y-101452000D01*
D15*
X105789000Y-107832000D02*
X105789000Y-105912000D01*
X111560000Y-117440000D02*
X106560000Y-112440000D01*
D14*
X130180000Y-105382000D02*
X130180000Y-106312000D01*
D15*
X106560000Y-112440000D02*
X106560000Y-108603000D01*
X115290000Y-117440000D02*
X111560000Y-117440000D01*
X115490000Y-117640000D02*
X115290000Y-117440000D01*
D14*
X129650000Y-101452000D02*
X129650000Y-104852000D01*
D15*
X106560000Y-105141000D02*
X106560000Y-103461000D01*
X106560000Y-108603000D02*
X105789000Y-107832000D01*
D14*
X126760000Y-96902000D02*
X127470000Y-96902000D01*
X129650000Y-104852000D02*
X130180000Y-105382000D01*
D15*
X106560000Y-103461000D02*
X110359000Y-99662000D01*
D14*
X127470000Y-96902000D02*
X127955000Y-97387000D01*
D15*
X110359000Y-99662000D02*
X110549000Y-99662000D01*
%TO.N,DIGIO072_B*%
X115930000Y-98622000D02*
X115930000Y-98080000D01*
X116400000Y-99662000D02*
X116400000Y-99092000D01*
X116400000Y-99092000D02*
X115930000Y-98622000D01*
X116400000Y-89353500D02*
X115930000Y-88883500D01*
X115930000Y-98080000D02*
X116400000Y-97610000D01*
X116400000Y-97610000D02*
X116400000Y-89353500D01*
X115930000Y-88883500D02*
X115930000Y-87107000D01*
%TO.N,DIGIO103_B*%
X119780000Y-91830000D02*
X120730000Y-90880000D01*
X120450000Y-98142000D02*
X120450000Y-95850000D01*
X120730000Y-90880000D02*
X120730000Y-90267000D01*
X119780000Y-95180000D02*
X119780000Y-91830000D01*
X120450000Y-95850000D02*
X119780000Y-95180000D01*
%TO.N,DIGIO042_B*%
X110399000Y-100112000D02*
X106890000Y-103621000D01*
X111109000Y-100112000D02*
X110399000Y-100112000D01*
X106890000Y-103621000D02*
X106890000Y-105281000D01*
X115450000Y-116767000D02*
X115930000Y-116767000D01*
X115107000Y-117110000D02*
X115450000Y-116767000D01*
X106119000Y-106052000D02*
X106119000Y-107682000D01*
X106890000Y-112260000D02*
X111740000Y-117110000D01*
X111740000Y-117110000D02*
X115107000Y-117110000D01*
X106119000Y-107682000D02*
X106890000Y-108453000D01*
X106890000Y-105281000D02*
X106119000Y-106052000D01*
X106890000Y-108453000D02*
X106890000Y-112260000D01*
%TO.N,DIGIO044_B*%
D14*
X130630000Y-105052000D02*
X130630000Y-105792000D01*
X128440000Y-97122000D02*
X128440000Y-99372000D01*
X126740000Y-96212000D02*
X127530000Y-96212000D01*
X130160000Y-104582000D02*
X130630000Y-105052000D01*
X127530000Y-96212000D02*
X128440000Y-97122000D01*
X128440000Y-99372000D02*
X130160000Y-101092000D01*
X130160000Y-101092000D02*
X130160000Y-104582000D01*
%TO.N,DIGIO064_B*%
D15*
X115500000Y-99072000D02*
X115160000Y-98732000D01*
X114020000Y-98732000D02*
X113770000Y-98482000D01*
X114850000Y-87687000D02*
X114850000Y-87197000D01*
X113770000Y-93150000D02*
X114840000Y-92080000D01*
X115500000Y-100112000D02*
X115500000Y-99072000D01*
X114840000Y-92080000D02*
X114840000Y-89337000D01*
X113770000Y-98482000D02*
X113770000Y-93150000D01*
X115160000Y-98732000D02*
X114020000Y-98732000D01*
X115310000Y-88867000D02*
X115310000Y-88147000D01*
X114840000Y-89337000D02*
X115310000Y-88867000D01*
X114850000Y-87197000D02*
X114760000Y-87107000D01*
X115310000Y-88147000D02*
X114850000Y-87687000D01*
%TO.N,DIGIO074_B*%
X116130000Y-100382000D02*
X113969000Y-100382000D01*
X113410000Y-93172000D02*
X111690000Y-91452000D01*
X116080000Y-86240000D02*
X116360000Y-86520000D01*
X113410000Y-99823000D02*
X113410000Y-93172000D01*
X116400000Y-100112000D02*
X116130000Y-100382000D01*
X111690000Y-91452000D02*
X111690000Y-86590000D01*
X111690000Y-86590000D02*
X112040000Y-86240000D01*
X112040000Y-86240000D02*
X116080000Y-86240000D01*
X113969000Y-100382000D02*
X113410000Y-99823000D01*
X116360000Y-86520000D02*
X116360000Y-87557000D01*
%TO.N,DIGIO082_B*%
X112860000Y-99821000D02*
X113079000Y-99602000D01*
X114150000Y-100562000D02*
X113830000Y-100882000D01*
X113830000Y-100882000D02*
X113089000Y-100882000D01*
X113089000Y-100882000D02*
X112860000Y-100653000D01*
X116850000Y-100112000D02*
X116400000Y-100562000D01*
X111890000Y-85880000D02*
X117150000Y-85880000D01*
X113079000Y-93311000D02*
X111360000Y-91592000D01*
X111360000Y-86410000D02*
X111890000Y-85880000D01*
X117530000Y-86260000D02*
X117530000Y-87557000D01*
X117150000Y-85880000D02*
X117530000Y-86260000D01*
X113079000Y-99602000D02*
X113079000Y-93311000D01*
X116400000Y-100562000D02*
X114150000Y-100562000D01*
X112860000Y-100653000D02*
X112860000Y-99821000D01*
X111360000Y-91592000D02*
X111360000Y-86410000D01*
%TO.N,DIGIO084_B*%
X113950000Y-101182000D02*
X112870000Y-101182000D01*
X112479000Y-100791000D02*
X112479000Y-98812000D01*
X112870000Y-101182000D02*
X112479000Y-100791000D01*
X111030000Y-86210000D02*
X111710000Y-85530000D01*
X112740000Y-98551000D02*
X112740000Y-93442000D01*
X117960000Y-86140000D02*
X117960000Y-87107000D01*
X114390000Y-100742000D02*
X113950000Y-101182000D01*
X111030000Y-91732000D02*
X111030000Y-86210000D01*
X117350000Y-85530000D02*
X117960000Y-86140000D01*
X112479000Y-98812000D02*
X112740000Y-98551000D01*
X117300000Y-100112000D02*
X116670000Y-100742000D01*
X116670000Y-100742000D02*
X114390000Y-100742000D01*
X112740000Y-93442000D02*
X111030000Y-91732000D01*
X111710000Y-85530000D02*
X117350000Y-85530000D01*
%TO.N,DIGIO040_B*%
X106449000Y-106222000D02*
X107220000Y-105451000D01*
X107220000Y-108323000D02*
X106449000Y-107552000D01*
X109379000Y-101582000D02*
X110150000Y-101582000D01*
X111910000Y-116790000D02*
X107220000Y-112100000D01*
X107220000Y-103741000D02*
X109379000Y-101582000D01*
X116360000Y-116317000D02*
X115410000Y-116317000D01*
X115410000Y-116317000D02*
X114937000Y-116790000D01*
X110150000Y-101582000D02*
X110549000Y-101183000D01*
X107220000Y-105451000D02*
X107220000Y-103741000D01*
X107220000Y-112100000D02*
X107220000Y-108323000D01*
X114937000Y-116790000D02*
X111910000Y-116790000D01*
X106449000Y-107552000D02*
X106449000Y-106222000D01*
X110549000Y-101183000D02*
X110549000Y-100562000D01*
%TO.N,DIGIO113_B*%
X123330000Y-89407000D02*
X122330000Y-88407000D01*
X121710000Y-99292000D02*
X122390000Y-98612000D01*
X123330000Y-90950000D02*
X123330000Y-89407000D01*
X121710000Y-100742000D02*
X121710000Y-99292000D01*
X121710000Y-100762000D02*
X121730000Y-100762000D01*
X122390000Y-98612000D02*
X122390000Y-91890000D01*
X121730000Y-100762000D02*
X121710000Y-100742000D01*
X122390000Y-91890000D02*
X123330000Y-90950000D01*
%TO.N,DIGIO032_B*%
X116950000Y-115737000D02*
X117530000Y-116317000D01*
X111367000Y-115737000D02*
X116950000Y-115737000D01*
X109519000Y-101912000D02*
X107550000Y-103881000D01*
X107549000Y-111919000D02*
X111367000Y-115737000D01*
X107550000Y-103881000D02*
X107550000Y-105611000D01*
X107549000Y-108212000D02*
X107549000Y-111919000D01*
X106779000Y-106382000D02*
X106779000Y-107442000D01*
X106779000Y-107442000D02*
X107549000Y-108212000D01*
X110549000Y-101912000D02*
X109519000Y-101912000D01*
X107550000Y-105611000D02*
X106779000Y-106382000D01*
%TO.N,PRG_SPI_SCK*%
X122810000Y-102632000D02*
X121130000Y-102632000D01*
X124880000Y-91742000D02*
X125280000Y-91342000D01*
X120780000Y-103532000D02*
X120370000Y-103942000D01*
X120370000Y-103942000D02*
X118960000Y-103942000D01*
X123120000Y-99082000D02*
X123360000Y-98842000D01*
X123120000Y-99582000D02*
X123120000Y-100032000D01*
X123360000Y-98842000D02*
X123360000Y-95512000D01*
X123120000Y-99582000D02*
X123120000Y-99082000D01*
X123150000Y-92210000D02*
X123618000Y-91742000D01*
X123618000Y-91742000D02*
X124880000Y-91742000D01*
X125280000Y-91342000D02*
X125280000Y-86790000D01*
X118650000Y-103632000D02*
X118650000Y-102362000D01*
X123930000Y-86740000D02*
X123930000Y-87557000D01*
X120780000Y-102982000D02*
X120780000Y-103532000D01*
X123360000Y-95512000D02*
X123150000Y-95302000D01*
X118960000Y-103942000D02*
X118650000Y-103632000D01*
X123120000Y-100032000D02*
X123350000Y-100262000D01*
X118650000Y-102362000D02*
X119100000Y-101912000D01*
X125020000Y-86530000D02*
X124140000Y-86530000D01*
X121130000Y-102632000D02*
X120780000Y-102982000D01*
X123350000Y-102092000D02*
X122810000Y-102632000D01*
X125280000Y-86790000D02*
X125020000Y-86530000D01*
X123350000Y-100262000D02*
X123350000Y-102092000D01*
X124140000Y-86530000D02*
X123930000Y-86740000D01*
X123150000Y-95302000D02*
X123150000Y-92210000D01*
%TO.N,DIGIO115_B*%
X120170000Y-101912000D02*
X120910000Y-101172000D01*
X122040000Y-91730000D02*
X122730000Y-91040000D01*
X120910000Y-99582000D02*
X122040000Y-98452000D01*
X122040000Y-98452000D02*
X122040000Y-91730000D01*
X119550000Y-101912000D02*
X120170000Y-101912000D01*
X120910000Y-101172000D02*
X120910000Y-99582000D01*
X122730000Y-91040000D02*
X122730000Y-89817000D01*
%TO.N,DIGIO030_B*%
X107879000Y-111739000D02*
X107879000Y-108072000D01*
X107880000Y-105791000D02*
X107880000Y-104051000D01*
X117590000Y-115407000D02*
X111547000Y-115407000D01*
X107109000Y-107302000D02*
X107109000Y-106562000D01*
X109569000Y-102362000D02*
X111109000Y-102362000D01*
X118090000Y-114907000D02*
X117590000Y-115407000D01*
X107879000Y-108072000D02*
X107109000Y-107302000D01*
X107880000Y-104051000D02*
X109569000Y-102362000D01*
X111547000Y-115407000D02*
X107879000Y-111739000D01*
X107109000Y-106562000D02*
X107880000Y-105791000D01*
%TO.N,PRG_SPI_MOSI*%
X124710000Y-91402000D02*
X124950000Y-91162000D01*
X118830000Y-103392000D02*
X119040000Y-103602000D01*
X122950000Y-98602000D02*
X122950000Y-95672000D01*
X119100000Y-102362000D02*
X118830000Y-102632000D01*
X122650000Y-102332000D02*
X122950000Y-102032000D01*
X119040000Y-103602000D02*
X120220000Y-103602000D01*
X124950000Y-87330000D02*
X124727000Y-87107000D01*
X123398000Y-91402000D02*
X124710000Y-91402000D01*
X118830000Y-102632000D02*
X118830000Y-103392000D01*
X122950000Y-100442000D02*
X122550000Y-100042000D01*
X120480000Y-102852000D02*
X121000000Y-102332000D01*
X124727000Y-87107000D02*
X124360000Y-87107000D01*
X122950000Y-95672000D02*
X122760000Y-95482000D01*
X122760000Y-92040000D02*
X123398000Y-91402000D01*
X120220000Y-103602000D02*
X120480000Y-103342000D01*
X122550000Y-100042000D02*
X122550000Y-99002000D01*
X121000000Y-102332000D02*
X122650000Y-102332000D01*
X122550000Y-99002000D02*
X122950000Y-98602000D01*
X122950000Y-102032000D02*
X122950000Y-100442000D01*
X122760000Y-95482000D02*
X122760000Y-92040000D01*
X120480000Y-103342000D02*
X120480000Y-102852000D01*
X124950000Y-91162000D02*
X124950000Y-87330000D01*
%TO.N,DIGIO024_B*%
X111022000Y-114392000D02*
X108209000Y-111579000D01*
X118800000Y-114520000D02*
X118672000Y-114392000D01*
X118700000Y-115757000D02*
X118800000Y-115657000D01*
X108209000Y-104222000D02*
X109619000Y-102812000D01*
X108209000Y-111579000D02*
X108209000Y-104222000D01*
X118672000Y-114392000D02*
X111022000Y-114392000D01*
X118700000Y-116317000D02*
X118700000Y-115757000D01*
X118800000Y-115657000D02*
X118800000Y-114520000D01*
X109619000Y-102812000D02*
X110549000Y-102812000D01*
%TO.N,DIGIO031_B*%
X123442000Y-110232000D02*
X125002000Y-111792000D01*
X115949000Y-105182000D02*
X116779000Y-106012000D01*
X118427000Y-118527000D02*
X117530000Y-117630000D01*
X113700000Y-102812000D02*
X114259000Y-103371000D01*
X114259000Y-103371000D02*
X114259000Y-103852000D01*
X125323000Y-118527000D02*
X118427000Y-118527000D01*
X125720000Y-118130000D02*
X125323000Y-118527000D01*
X117190000Y-109372000D02*
X118050000Y-110232000D01*
X126123000Y-116857000D02*
X125720000Y-117260000D01*
X128190000Y-113490000D02*
X128190000Y-116290000D01*
X127623000Y-116857000D02*
X126123000Y-116857000D01*
X117190000Y-107212000D02*
X117190000Y-109372000D01*
X125002000Y-111792000D02*
X126492000Y-111792000D01*
X115459000Y-104022000D02*
X115949000Y-104512000D01*
X114259000Y-103852000D02*
X114429000Y-104022000D01*
X126492000Y-111792000D02*
X128190000Y-113490000D01*
X128190000Y-116290000D02*
X127623000Y-116857000D01*
X116779000Y-106012000D02*
X116779000Y-106801000D01*
X114429000Y-104022000D02*
X115459000Y-104022000D01*
X116779000Y-106801000D02*
X117190000Y-107212000D01*
X125720000Y-117260000D02*
X125720000Y-118130000D01*
X115949000Y-104512000D02*
X115949000Y-105182000D01*
X118050000Y-110232000D02*
X123442000Y-110232000D01*
%TO.N,DIGIO022_B*%
X108539000Y-104402000D02*
X109679000Y-103262000D01*
X119130000Y-116767000D02*
X119130000Y-114390000D01*
X108539000Y-111429000D02*
X108539000Y-104402000D01*
X109679000Y-103262000D02*
X111109000Y-103262000D01*
X119130000Y-114390000D02*
X118812000Y-114072000D01*
X118812000Y-114072000D02*
X111182000Y-114072000D01*
X111182000Y-114072000D02*
X108539000Y-111429000D01*
%TO.N,DIGIO021_B*%
X111925000Y-104827000D02*
X111360000Y-105392000D01*
X113700000Y-103262000D02*
X113999000Y-103561000D01*
X113999000Y-103561000D02*
X113999000Y-104322000D01*
X111360000Y-105392000D02*
X111000000Y-105392000D01*
X112995000Y-104827000D02*
X111925000Y-104827000D01*
X121163000Y-118147000D02*
X120060000Y-118147000D01*
X113399000Y-104922000D02*
X113090000Y-104922000D01*
X121710000Y-114647000D02*
X121710000Y-117210000D01*
X120060000Y-118147000D02*
X119530000Y-117617000D01*
X113999000Y-104322000D02*
X113399000Y-104922000D01*
X121410000Y-117510000D02*
X121410000Y-117900000D01*
X121410000Y-117900000D02*
X121163000Y-118147000D01*
X121710000Y-117210000D02*
X121410000Y-117510000D01*
X119535000Y-112472000D02*
X121710000Y-114647000D01*
X110189000Y-106203000D02*
X110189000Y-110719000D01*
X110189000Y-110719000D02*
X111942000Y-112472000D01*
X111000000Y-105392000D02*
X110189000Y-106203000D01*
X111942000Y-112472000D02*
X119535000Y-112472000D01*
X113090000Y-104922000D02*
X112995000Y-104827000D01*
%TO.N,DIGIO020_B*%
X119560000Y-115757000D02*
X119470000Y-115667000D01*
X111332000Y-113752000D02*
X108869000Y-111289000D01*
X109700000Y-103712000D02*
X110549000Y-103712000D01*
X119560000Y-116317000D02*
X119560000Y-115757000D01*
X118962000Y-113752000D02*
X111332000Y-113752000D01*
X108869000Y-104543000D02*
X109700000Y-103712000D01*
X108869000Y-111289000D02*
X108869000Y-104543000D01*
X119470000Y-114260000D02*
X118962000Y-113752000D01*
X119470000Y-115667000D02*
X119470000Y-114260000D01*
%TO.N,JTAG_TDI*%
D14*
X131400000Y-107052000D02*
X132170000Y-106282000D01*
D15*
X114299000Y-104913000D02*
X114299000Y-105421000D01*
X124309800Y-114043800D02*
X124309800Y-114907000D01*
X114490000Y-108422000D02*
X115240000Y-109172000D01*
D14*
X129690000Y-106672000D02*
X129910000Y-106892000D01*
D15*
X115240000Y-109172000D02*
X115240000Y-110702000D01*
X124460000Y-113893600D02*
X124309800Y-114043800D01*
D14*
X129910000Y-106892000D02*
X130070000Y-107052000D01*
D15*
X114299000Y-105421000D02*
X114620000Y-105742000D01*
X124460000Y-113660000D02*
X124460000Y-113893600D01*
X114490000Y-106952000D02*
X114490000Y-108422000D01*
D14*
X129970000Y-113272000D02*
X132050000Y-111192000D01*
X133270000Y-105472000D02*
X134090000Y-104652000D01*
X130070000Y-107052000D02*
X131400000Y-107052000D01*
X131650000Y-91322001D02*
X132130000Y-90842001D01*
X132170000Y-105762000D02*
X132460000Y-105472000D01*
D15*
X114620000Y-106822000D02*
X114490000Y-106952000D01*
X114600000Y-104612000D02*
X114299000Y-104913000D01*
D14*
X134090000Y-104652000D02*
X134090000Y-99882000D01*
X132170000Y-106282000D02*
X132170000Y-105762000D01*
D15*
X116390000Y-111852000D02*
X122652000Y-111852000D01*
D14*
X131650000Y-92662000D02*
X131650000Y-91322001D01*
X132140000Y-93152000D02*
X131650000Y-92662000D01*
X134090000Y-99882000D02*
X134440000Y-99532000D01*
X129970000Y-116967000D02*
X129970000Y-113272000D01*
X132050000Y-111192000D02*
X132050000Y-109032000D01*
D15*
X115240000Y-110702000D02*
X116390000Y-111852000D01*
D14*
X134440000Y-99532000D02*
X134440000Y-98807000D01*
X129690000Y-105792000D02*
X129690000Y-106672000D01*
X132460000Y-105472000D02*
X133270000Y-105472000D01*
D15*
X114620000Y-105742000D02*
X114620000Y-106822000D01*
D14*
X132050000Y-109032000D02*
X129910000Y-106892000D01*
D15*
X122652000Y-111852000D02*
X124460000Y-113660000D01*
D14*
X132140000Y-96507000D02*
X132140000Y-93152000D01*
X134440000Y-98807000D02*
X132140000Y-96507000D01*
%TO.N,JTAG_CTRL*%
D15*
X114770000Y-108272000D02*
X115520000Y-109022000D01*
X114899000Y-106963000D02*
X114770000Y-107092000D01*
X114899000Y-104763000D02*
X114899000Y-106963000D01*
X115520000Y-110592000D02*
X116520000Y-111592000D01*
X124729000Y-113539000D02*
X124729000Y-114457000D01*
X122782000Y-111592000D02*
X124729000Y-113539000D01*
X116520000Y-111592000D02*
X122782000Y-111592000D01*
X115050000Y-104612000D02*
X114899000Y-104763000D01*
X114770000Y-107092000D02*
X114770000Y-108272000D01*
X115520000Y-109022000D02*
X115520000Y-110592000D01*
%TO.N,JTAG_TDO*%
D14*
X132780000Y-104272000D02*
X133100000Y-103952000D01*
X133100000Y-100792000D02*
X131500000Y-99192000D01*
D15*
X115199000Y-104913000D02*
X115500000Y-104612000D01*
X116230000Y-109852000D02*
X116230000Y-108002000D01*
X122912000Y-111322000D02*
X117700000Y-111322000D01*
D14*
X130380000Y-93982000D02*
X128690000Y-92292000D01*
D15*
X116230000Y-108002000D02*
X115199000Y-106971000D01*
X117700000Y-111322000D02*
X116230000Y-109852000D01*
D14*
X128690000Y-92292000D02*
X128690000Y-90452000D01*
D15*
X125150200Y-114014800D02*
X125010000Y-113874600D01*
X115199000Y-106971000D02*
X115199000Y-104913000D01*
D14*
X131070000Y-105012000D02*
X131810000Y-104272000D01*
D15*
X125150200Y-114907000D02*
X125150200Y-114014800D01*
D14*
X132510000Y-89842000D02*
X133510000Y-90842000D01*
X129300000Y-89842000D02*
X132510000Y-89842000D01*
X131070000Y-106312000D02*
X131070000Y-105012000D01*
X130380000Y-97372000D02*
X130380000Y-93982000D01*
X128690000Y-90452000D02*
X129300000Y-89842000D01*
X131810000Y-104272000D02*
X132780000Y-104272000D01*
D15*
X122912000Y-111322000D02*
X125010000Y-113420000D01*
X125010000Y-113420000D02*
X125010000Y-113874600D01*
D14*
X133510000Y-90842000D02*
X134010000Y-90842000D01*
X133100000Y-103952000D02*
X133100000Y-100792000D01*
X131500000Y-99192000D02*
X131500000Y-98492000D01*
X131500000Y-98492000D02*
X130380000Y-97372000D01*
%TO.N,OTP_WEN*%
D15*
X118140000Y-105282000D02*
X118140000Y-104842000D01*
X120400000Y-108922000D02*
X117860000Y-108922000D01*
X117450000Y-108512000D02*
X117450000Y-107232000D01*
X118140000Y-104842000D02*
X117910000Y-104612000D01*
X117910000Y-104612000D02*
X117300000Y-104612000D01*
X117450000Y-107232000D02*
X117910000Y-106772000D01*
X117860000Y-108922000D02*
X117450000Y-108512000D01*
X117910000Y-106772000D02*
X117910000Y-105512000D01*
X117910000Y-105512000D02*
X118140000Y-105282000D01*
%TO.N,BOOT_MODE1*%
D14*
X128670000Y-112762000D02*
X128670000Y-117080000D01*
X128670000Y-117080000D02*
X128133000Y-117617000D01*
X127720000Y-105792000D02*
X127720000Y-107292000D01*
X127720000Y-107292000D02*
X130200000Y-109772000D01*
X128133000Y-117617000D02*
X126330000Y-117617000D01*
X130200000Y-111232000D02*
X128670000Y-112762000D01*
X130200000Y-109772000D02*
X130200000Y-111232000D01*
%TO.N,JTAG_TCK*%
D15*
X124300000Y-117617000D02*
X124300000Y-116897000D01*
X124440000Y-116757000D02*
X124440000Y-116187000D01*
X116470000Y-107782000D02*
X115500000Y-106812000D01*
X116470000Y-109742000D02*
X116470000Y-107782000D01*
X126923000Y-115647000D02*
X127200000Y-115370000D01*
X124702000Y-112722000D02*
X123032000Y-111052000D01*
X123032000Y-111052000D02*
X117780000Y-111052000D01*
X127200000Y-115370000D02*
X127200000Y-114290000D01*
D14*
X135840000Y-104552000D02*
X136640000Y-103752000D01*
D15*
X125660000Y-113960000D02*
X125660000Y-113080800D01*
X117780000Y-111052000D02*
X116470000Y-109742000D01*
X127200000Y-114290000D02*
X127070000Y-114160000D01*
X125660000Y-113080800D02*
X125301200Y-112722000D01*
X124980000Y-115647000D02*
X126923000Y-115647000D01*
X124440000Y-116187000D02*
X124980000Y-115647000D01*
X124300000Y-116897000D02*
X124440000Y-116757000D01*
D14*
X135030000Y-104552000D02*
X135840000Y-104552000D01*
D15*
X125301200Y-112722000D02*
X124702000Y-112722000D01*
D14*
X136640000Y-103752000D02*
X136640000Y-99411999D01*
D15*
X125860000Y-114160000D02*
X125660000Y-113960000D01*
X115500000Y-106812000D02*
X115500000Y-105062000D01*
X127070000Y-114160000D02*
X125860000Y-114160000D01*
D14*
X136640000Y-99411999D02*
X133400000Y-96171999D01*
%TO.N,BOOT_MODE2*%
X130600000Y-111412000D02*
X129080000Y-112932000D01*
X127720000Y-102402000D02*
X127720000Y-103010000D01*
X129080000Y-112932000D02*
X129080000Y-117250000D01*
X129080000Y-117250000D02*
X128300000Y-118030000D01*
X128160000Y-103450000D02*
X128160000Y-107172000D01*
X130600000Y-109612000D02*
X130600000Y-111412000D01*
X127720000Y-103010000D02*
X128160000Y-103450000D01*
X126897000Y-118030000D02*
X125900000Y-119027000D01*
X128160000Y-107172000D02*
X130600000Y-109612000D01*
X128320000Y-101802000D02*
X127720000Y-102402000D01*
X128300000Y-118030000D02*
X126897000Y-118030000D01*
%TO.N,JTAG_TRSTN*%
X131530000Y-96782000D02*
X131530000Y-93502000D01*
D15*
X127215000Y-113880000D02*
X126530000Y-113880000D01*
X125671200Y-112422000D02*
X124802000Y-112422000D01*
X116710000Y-109642000D02*
X116710000Y-107582000D01*
X116710000Y-107582000D02*
X115949000Y-106821000D01*
X123162000Y-110782000D02*
X117850000Y-110782000D01*
D14*
X130720000Y-92692000D02*
X130720000Y-91312000D01*
D15*
X126330000Y-113080800D02*
X125671200Y-112422000D01*
X125110000Y-115937000D02*
X127063000Y-115937000D01*
X124802000Y-112422000D02*
X123162000Y-110782000D01*
X124730000Y-116317000D02*
X125110000Y-115937000D01*
X127063000Y-115937000D02*
X127490000Y-115510000D01*
X115949000Y-106821000D02*
X115949000Y-106033000D01*
X117850000Y-110782000D02*
X116710000Y-109642000D01*
D14*
X131530000Y-93502000D02*
X130720000Y-92692000D01*
D15*
X127490000Y-115510000D02*
X127490000Y-114155000D01*
X124730000Y-117167000D02*
X124730000Y-116317000D01*
D14*
X133720000Y-98972000D02*
X131530000Y-96782000D01*
D15*
X115949000Y-106033000D02*
X115950000Y-106032000D01*
X126330000Y-113680000D02*
X126330000Y-113080800D01*
X115950000Y-106032000D02*
X115950000Y-105972000D01*
X127490000Y-114155000D02*
X127215000Y-113880000D01*
X126530000Y-113880000D02*
X126330000Y-113680000D01*
D14*
X130720000Y-91312000D02*
X130250000Y-90842000D01*
%TO.N,JTAG_TMS*%
D15*
X127238000Y-116227000D02*
X127770000Y-115695000D01*
D14*
X130860000Y-97002000D02*
X130860000Y-96171999D01*
D15*
X127770000Y-115695000D02*
X127770000Y-113850800D01*
X123302000Y-110512000D02*
X124900000Y-112110000D01*
D14*
X131490200Y-105411800D02*
X132040000Y-104862000D01*
X133590000Y-100492000D02*
X132120000Y-99022000D01*
D15*
X125020000Y-116437000D02*
X125230000Y-116227000D01*
X127770000Y-113850800D02*
X127000000Y-113080800D01*
X124900000Y-112110000D02*
X126029200Y-112110000D01*
D14*
X131490200Y-105792000D02*
X131490200Y-105411800D01*
X132120000Y-99022000D02*
X132120000Y-98262000D01*
D15*
X116499000Y-106262000D02*
X116499000Y-106951000D01*
X116940000Y-109512000D02*
X117940000Y-110512000D01*
X126029200Y-112110000D02*
X126990000Y-113070800D01*
D14*
X133060000Y-104862000D02*
X133590000Y-104332000D01*
X132040000Y-104862000D02*
X133060000Y-104862000D01*
X132120000Y-98262000D02*
X130860000Y-97002000D01*
D15*
X125230000Y-116227000D02*
X127238000Y-116227000D01*
X125160000Y-117617000D02*
X125160000Y-116877000D01*
X125160000Y-116877000D02*
X125020000Y-116737000D01*
X117940000Y-110512000D02*
X123302000Y-110512000D01*
X116940000Y-107392000D02*
X116940000Y-109512000D01*
X125020000Y-116737000D02*
X125020000Y-116437000D01*
D14*
X133590000Y-104332000D02*
X133590000Y-100492000D01*
D15*
X116499000Y-106951000D02*
X116940000Y-107392000D01*
%TO.N,BOOT_MODE0*%
D14*
X130980000Y-109462000D02*
X130980000Y-111612000D01*
X128640000Y-107122000D02*
X130980000Y-109462000D01*
X127327000Y-118460000D02*
X126760000Y-119027000D01*
X129470000Y-113122000D02*
X129470000Y-117440000D01*
X130980000Y-111612000D02*
X129470000Y-113122000D01*
X128450000Y-118460000D02*
X127327000Y-118460000D01*
X128640000Y-105792000D02*
X128640000Y-107122000D01*
X129470000Y-117440000D02*
X128450000Y-118460000D01*
%TD*%
M02*
