%TF.GenerationSoftware,KiCad,Pcbnew,10.0.3*%
%TF.CreationDate,2026-05-19T14:39:14-04:00*%
%TF.ProjectId,EfficientStamp,45666669-6369-4656-9e74-5374616d702e,v1.0*%
%TF.SameCoordinates,Original*%
%TF.FileFunction,Legend,Top*%
%TF.FilePolarity,Positive*%
%FSLAX46Y46*%
G04 Gerber Fmt 4.6, Leading zero omitted, Abs format (unit mm)*
G04 Created by KiCad (PCBNEW 10.0.3) date 2026-05-19 14:39:14*
%MOMM*%
%LPD*%
G01*
G04 APERTURE LIST*
G04 Aperture macros list*
%AMRoundRect*
0 Rectangle with rounded corners*
0 $1 Rounding radius*
0 $2 $3 $4 $5 $6 $7 $8 $9 X,Y pos of 4 corners*
0 Add a 4 corners polygon primitive as box body*
4,1,4,$2,$3,$4,$5,$6,$7,$8,$9,$2,$3,0*
0 Add four circle primitives for the rounded corners*
1,1,$1+$1,$2,$3*
1,1,$1+$1,$4,$5*
1,1,$1+$1,$6,$7*
1,1,$1+$1,$8,$9*
0 Add four rect primitives between the rounded corners*
20,1,$1+$1,$2,$3,$4,$5,0*
20,1,$1+$1,$4,$5,$6,$7,0*
20,1,$1+$1,$6,$7,$8,$9,0*
20,1,$1+$1,$8,$9,$2,$3,0*%
G04 Aperture macros list end*
%ADD10C,0.101600*%
%ADD11C,0.100000*%
%ADD12C,0.127000*%
%ADD13C,0.120000*%
%ADD14C,0.000000*%
%ADD15C,1.180000*%
%ADD16C,0.990600*%
%ADD17C,0.787400*%
%ADD18RoundRect,0.218750X-0.218750X-0.256250X0.218750X-0.256250X0.218750X0.256250X-0.218750X0.256250X0*%
%ADD19RoundRect,0.250000X0.850000X-0.375000X0.850000X0.375000X-0.850000X0.375000X-0.850000X-0.375000X0*%
%ADD20RoundRect,0.135000X0.185000X-0.135000X0.185000X0.135000X-0.185000X0.135000X-0.185000X-0.135000X0*%
%ADD21RoundRect,0.135000X0.135000X0.185000X-0.135000X0.185000X-0.135000X-0.185000X0.135000X-0.185000X0*%
%ADD22C,4.700000*%
%ADD23RoundRect,0.140000X0.170000X-0.140000X0.170000X0.140000X-0.170000X0.140000X-0.170000X-0.140000X0*%
%ADD24RoundRect,0.150000X-0.150000X0.825000X-0.150000X-0.825000X0.150000X-0.825000X0.150000X0.825000X0*%
%ADD25C,1.000000*%
%ADD26RoundRect,0.135000X-0.185000X0.135000X-0.185000X-0.135000X0.185000X-0.135000X0.185000X0.135000X0*%
%ADD27RoundRect,0.140000X-0.170000X0.140000X-0.170000X-0.140000X0.170000X-0.140000X0.170000X0.140000X0*%
%ADD28RoundRect,0.140000X-0.140000X-0.170000X0.140000X-0.170000X0.140000X0.170000X-0.140000X0.170000X0*%
%ADD29RoundRect,0.135000X-0.135000X-0.185000X0.135000X-0.185000X0.135000X0.185000X-0.135000X0.185000X0*%
%ADD30C,0.250000*%
%ADD31C,0.350000*%
%ADD32RoundRect,0.200000X0.250000X-0.200000X0.250000X0.200000X-0.250000X0.200000X-0.250000X-0.200000X0*%
%ADD33C,0.230000*%
%ADD34C,0.330000*%
%ADD35RoundRect,0.140000X0.140000X0.170000X-0.140000X0.170000X-0.140000X-0.170000X0.140000X-0.170000X0*%
%ADD36R,0.900000X1.700000*%
%ADD37RoundRect,0.050000X0.050000X-0.387500X0.050000X0.387500X-0.050000X0.387500X-0.050000X-0.387500X0*%
%ADD38RoundRect,0.050000X0.387500X-0.050000X0.387500X0.050000X-0.387500X0.050000X-0.387500X-0.050000X0*%
%ADD39R,3.600000X3.600000*%
%ADD40RoundRect,0.100000X-0.130000X-0.100000X0.130000X-0.100000X0.130000X0.100000X-0.130000X0.100000X0*%
G04 APERTURE END LIST*
D10*
X129227143Y-90795631D02*
X129396476Y-90795631D01*
X129469048Y-91061726D02*
X129227143Y-91061726D01*
X129227143Y-91061726D02*
X129227143Y-90553726D01*
X129227143Y-90553726D02*
X129469048Y-90553726D01*
X129977048Y-91061726D02*
X129807714Y-90819821D01*
X129686762Y-91061726D02*
X129686762Y-90553726D01*
X129686762Y-90553726D02*
X129880286Y-90553726D01*
X129880286Y-90553726D02*
X129928667Y-90577916D01*
X129928667Y-90577916D02*
X129952857Y-90602107D01*
X129952857Y-90602107D02*
X129977048Y-90650488D01*
X129977048Y-90650488D02*
X129977048Y-90723059D01*
X129977048Y-90723059D02*
X129952857Y-90771440D01*
X129952857Y-90771440D02*
X129928667Y-90795631D01*
X129928667Y-90795631D02*
X129880286Y-90819821D01*
X129880286Y-90819821D02*
X129686762Y-90819821D01*
X129396476Y-96258202D02*
X129783524Y-96258202D01*
X129590000Y-96451726D02*
X129590000Y-96064678D01*
X129747238Y-108761726D02*
X129577904Y-108519821D01*
X129456952Y-108761726D02*
X129456952Y-108253726D01*
X129456952Y-108253726D02*
X129650476Y-108253726D01*
X129650476Y-108253726D02*
X129698857Y-108277916D01*
X129698857Y-108277916D02*
X129723047Y-108302107D01*
X129723047Y-108302107D02*
X129747238Y-108350488D01*
X129747238Y-108350488D02*
X129747238Y-108423059D01*
X129747238Y-108423059D02*
X129723047Y-108471440D01*
X129723047Y-108471440D02*
X129698857Y-108495631D01*
X129698857Y-108495631D02*
X129650476Y-108519821D01*
X129650476Y-108519821D02*
X129456952Y-108519821D01*
X129190857Y-114151726D02*
X129190857Y-113643726D01*
X129190857Y-113643726D02*
X129311809Y-113643726D01*
X129311809Y-113643726D02*
X129384381Y-113667916D01*
X129384381Y-113667916D02*
X129432762Y-113716297D01*
X129432762Y-113716297D02*
X129456952Y-113764678D01*
X129456952Y-113764678D02*
X129481143Y-113861440D01*
X129481143Y-113861440D02*
X129481143Y-113934012D01*
X129481143Y-113934012D02*
X129456952Y-114030774D01*
X129456952Y-114030774D02*
X129432762Y-114079155D01*
X129432762Y-114079155D02*
X129384381Y-114127536D01*
X129384381Y-114127536D02*
X129311809Y-114151726D01*
X129311809Y-114151726D02*
X129190857Y-114151726D01*
X129795619Y-113643726D02*
X129892381Y-113643726D01*
X129892381Y-113643726D02*
X129940762Y-113667916D01*
X129940762Y-113667916D02*
X129989143Y-113716297D01*
X129989143Y-113716297D02*
X130013333Y-113813059D01*
X130013333Y-113813059D02*
X130013333Y-113982393D01*
X130013333Y-113982393D02*
X129989143Y-114079155D01*
X129989143Y-114079155D02*
X129940762Y-114127536D01*
X129940762Y-114127536D02*
X129892381Y-114151726D01*
X129892381Y-114151726D02*
X129795619Y-114151726D01*
X129795619Y-114151726D02*
X129747238Y-114127536D01*
X129747238Y-114127536D02*
X129698857Y-114079155D01*
X129698857Y-114079155D02*
X129674666Y-113982393D01*
X129674666Y-113982393D02*
X129674666Y-113813059D01*
X129674666Y-113813059D02*
X129698857Y-113716297D01*
X129698857Y-113716297D02*
X129747238Y-113667916D01*
X129747238Y-113667916D02*
X129795619Y-113643726D01*
X131017238Y-91061726D02*
X130847904Y-90819821D01*
X130726952Y-91061726D02*
X130726952Y-90553726D01*
X130726952Y-90553726D02*
X130920476Y-90553726D01*
X130920476Y-90553726D02*
X130968857Y-90577916D01*
X130968857Y-90577916D02*
X130993047Y-90602107D01*
X130993047Y-90602107D02*
X131017238Y-90650488D01*
X131017238Y-90650488D02*
X131017238Y-90723059D01*
X131017238Y-90723059D02*
X130993047Y-90771440D01*
X130993047Y-90771440D02*
X130968857Y-90795631D01*
X130968857Y-90795631D02*
X130920476Y-90819821D01*
X130920476Y-90819821D02*
X130726952Y-90819821D01*
X130448762Y-96451726D02*
X130448762Y-95943726D01*
X130448762Y-95943726D02*
X130618095Y-96306583D01*
X130618095Y-96306583D02*
X130787429Y-95943726D01*
X130787429Y-95943726D02*
X130787429Y-96451726D01*
X131005142Y-96427536D02*
X131077714Y-96451726D01*
X131077714Y-96451726D02*
X131198666Y-96451726D01*
X131198666Y-96451726D02*
X131247047Y-96427536D01*
X131247047Y-96427536D02*
X131271238Y-96403345D01*
X131271238Y-96403345D02*
X131295428Y-96354964D01*
X131295428Y-96354964D02*
X131295428Y-96306583D01*
X131295428Y-96306583D02*
X131271238Y-96258202D01*
X131271238Y-96258202D02*
X131247047Y-96234012D01*
X131247047Y-96234012D02*
X131198666Y-96209821D01*
X131198666Y-96209821D02*
X131101904Y-96185631D01*
X131101904Y-96185631D02*
X131053523Y-96161440D01*
X131053523Y-96161440D02*
X131029333Y-96137250D01*
X131029333Y-96137250D02*
X131005142Y-96088869D01*
X131005142Y-96088869D02*
X131005142Y-96040488D01*
X131005142Y-96040488D02*
X131029333Y-95992107D01*
X131029333Y-95992107D02*
X131053523Y-95967916D01*
X131053523Y-95967916D02*
X131101904Y-95943726D01*
X131101904Y-95943726D02*
X131222857Y-95943726D01*
X131222857Y-95943726D02*
X131295428Y-95967916D01*
X130666476Y-108568202D02*
X131053524Y-108568202D01*
X130726952Y-114151726D02*
X130993047Y-113813059D01*
X130726952Y-113813059D02*
X130993047Y-114151726D01*
X131876000Y-91061726D02*
X131876000Y-90553726D01*
X131876000Y-90553726D02*
X131996952Y-90553726D01*
X131996952Y-90553726D02*
X132069524Y-90577916D01*
X132069524Y-90577916D02*
X132117905Y-90626297D01*
X132117905Y-90626297D02*
X132142095Y-90674678D01*
X132142095Y-90674678D02*
X132166286Y-90771440D01*
X132166286Y-90771440D02*
X132166286Y-90844012D01*
X132166286Y-90844012D02*
X132142095Y-90940774D01*
X132142095Y-90940774D02*
X132117905Y-90989155D01*
X132117905Y-90989155D02*
X132069524Y-91037536D01*
X132069524Y-91037536D02*
X131996952Y-91061726D01*
X131996952Y-91061726D02*
X131876000Y-91061726D01*
X132384000Y-91061726D02*
X132384000Y-90553726D01*
X131936476Y-96258202D02*
X132323524Y-96258202D01*
X131984856Y-108253726D02*
X132275142Y-108253726D01*
X132129999Y-108761726D02*
X132129999Y-108253726D01*
X131876000Y-114151726D02*
X131876000Y-113643726D01*
X131876000Y-113643726D02*
X131996952Y-113643726D01*
X131996952Y-113643726D02*
X132069524Y-113667916D01*
X132069524Y-113667916D02*
X132117905Y-113716297D01*
X132117905Y-113716297D02*
X132142095Y-113764678D01*
X132142095Y-113764678D02*
X132166286Y-113861440D01*
X132166286Y-113861440D02*
X132166286Y-113934012D01*
X132166286Y-113934012D02*
X132142095Y-114030774D01*
X132142095Y-114030774D02*
X132117905Y-114079155D01*
X132117905Y-114079155D02*
X132069524Y-114127536D01*
X132069524Y-114127536D02*
X131996952Y-114151726D01*
X131996952Y-114151726D02*
X131876000Y-114151726D01*
X132384000Y-114151726D02*
X132384000Y-113643726D01*
X133266952Y-91061726D02*
X133533047Y-90723059D01*
X133266952Y-90723059D02*
X133533047Y-91061726D01*
X133303238Y-96403345D02*
X133279047Y-96427536D01*
X133279047Y-96427536D02*
X133206476Y-96451726D01*
X133206476Y-96451726D02*
X133158095Y-96451726D01*
X133158095Y-96451726D02*
X133085523Y-96427536D01*
X133085523Y-96427536D02*
X133037142Y-96379155D01*
X133037142Y-96379155D02*
X133012952Y-96330774D01*
X133012952Y-96330774D02*
X132988761Y-96234012D01*
X132988761Y-96234012D02*
X132988761Y-96161440D01*
X132988761Y-96161440D02*
X133012952Y-96064678D01*
X133012952Y-96064678D02*
X133037142Y-96016297D01*
X133037142Y-96016297D02*
X133085523Y-95967916D01*
X133085523Y-95967916D02*
X133158095Y-95943726D01*
X133158095Y-95943726D02*
X133206476Y-95943726D01*
X133206476Y-95943726D02*
X133279047Y-95967916D01*
X133279047Y-95967916D02*
X133303238Y-95992107D01*
X133520952Y-96451726D02*
X133520952Y-95943726D01*
X133811238Y-96451726D02*
X133593523Y-96161440D01*
X133811238Y-95943726D02*
X133520952Y-96234012D01*
X133303238Y-108713345D02*
X133279047Y-108737536D01*
X133279047Y-108737536D02*
X133206476Y-108761726D01*
X133206476Y-108761726D02*
X133158095Y-108761726D01*
X133158095Y-108761726D02*
X133085523Y-108737536D01*
X133085523Y-108737536D02*
X133037142Y-108689155D01*
X133037142Y-108689155D02*
X133012952Y-108640774D01*
X133012952Y-108640774D02*
X132988761Y-108544012D01*
X132988761Y-108544012D02*
X132988761Y-108471440D01*
X132988761Y-108471440D02*
X133012952Y-108374678D01*
X133012952Y-108374678D02*
X133037142Y-108326297D01*
X133037142Y-108326297D02*
X133085523Y-108277916D01*
X133085523Y-108277916D02*
X133158095Y-108253726D01*
X133158095Y-108253726D02*
X133206476Y-108253726D01*
X133206476Y-108253726D02*
X133279047Y-108277916D01*
X133279047Y-108277916D02*
X133303238Y-108302107D01*
X133520952Y-108761726D02*
X133520952Y-108253726D01*
X133811238Y-108761726D02*
X133593523Y-108471440D01*
X133811238Y-108253726D02*
X133520952Y-108544012D01*
X133206476Y-113958202D02*
X133593524Y-113958202D01*
X133400000Y-114151726D02*
X133400000Y-113764678D01*
X134270857Y-91061726D02*
X134270857Y-90553726D01*
X134270857Y-90553726D02*
X134391809Y-90553726D01*
X134391809Y-90553726D02*
X134464381Y-90577916D01*
X134464381Y-90577916D02*
X134512762Y-90626297D01*
X134512762Y-90626297D02*
X134536952Y-90674678D01*
X134536952Y-90674678D02*
X134561143Y-90771440D01*
X134561143Y-90771440D02*
X134561143Y-90844012D01*
X134561143Y-90844012D02*
X134536952Y-90940774D01*
X134536952Y-90940774D02*
X134512762Y-90989155D01*
X134512762Y-90989155D02*
X134464381Y-91037536D01*
X134464381Y-91037536D02*
X134391809Y-91061726D01*
X134391809Y-91061726D02*
X134270857Y-91061726D01*
X134875619Y-90553726D02*
X134972381Y-90553726D01*
X134972381Y-90553726D02*
X135020762Y-90577916D01*
X135020762Y-90577916D02*
X135069143Y-90626297D01*
X135069143Y-90626297D02*
X135093333Y-90723059D01*
X135093333Y-90723059D02*
X135093333Y-90892393D01*
X135093333Y-90892393D02*
X135069143Y-90989155D01*
X135069143Y-90989155D02*
X135020762Y-91037536D01*
X135020762Y-91037536D02*
X134972381Y-91061726D01*
X134972381Y-91061726D02*
X134875619Y-91061726D01*
X134875619Y-91061726D02*
X134827238Y-91037536D01*
X134827238Y-91037536D02*
X134778857Y-90989155D01*
X134778857Y-90989155D02*
X134754666Y-90892393D01*
X134754666Y-90892393D02*
X134754666Y-90723059D01*
X134754666Y-90723059D02*
X134778857Y-90626297D01*
X134778857Y-90626297D02*
X134827238Y-90577916D01*
X134827238Y-90577916D02*
X134875619Y-90553726D01*
X134476476Y-96258202D02*
X134863524Y-96258202D01*
X134536952Y-108761726D02*
X134803047Y-108423059D01*
X134536952Y-108423059D02*
X134803047Y-108761726D01*
X134258762Y-114151726D02*
X134258762Y-113643726D01*
X134258762Y-113643726D02*
X134428095Y-114006583D01*
X134428095Y-114006583D02*
X134597429Y-113643726D01*
X134597429Y-113643726D02*
X134597429Y-114151726D01*
X134815142Y-114127536D02*
X134887714Y-114151726D01*
X134887714Y-114151726D02*
X135008666Y-114151726D01*
X135008666Y-114151726D02*
X135057047Y-114127536D01*
X135057047Y-114127536D02*
X135081238Y-114103345D01*
X135081238Y-114103345D02*
X135105428Y-114054964D01*
X135105428Y-114054964D02*
X135105428Y-114006583D01*
X135105428Y-114006583D02*
X135081238Y-113958202D01*
X135081238Y-113958202D02*
X135057047Y-113934012D01*
X135057047Y-113934012D02*
X135008666Y-113909821D01*
X135008666Y-113909821D02*
X134911904Y-113885631D01*
X134911904Y-113885631D02*
X134863523Y-113861440D01*
X134863523Y-113861440D02*
X134839333Y-113837250D01*
X134839333Y-113837250D02*
X134815142Y-113788869D01*
X134815142Y-113788869D02*
X134815142Y-113740488D01*
X134815142Y-113740488D02*
X134839333Y-113692107D01*
X134839333Y-113692107D02*
X134863523Y-113667916D01*
X134863523Y-113667916D02*
X134911904Y-113643726D01*
X134911904Y-113643726D02*
X135032857Y-113643726D01*
X135032857Y-113643726D02*
X135105428Y-113667916D01*
D11*
G36*
X109091328Y-116692874D02*
G01*
X109153101Y-116711553D01*
X109208233Y-116742278D01*
X109253852Y-116783543D01*
X109289979Y-116834312D01*
X109317477Y-116896017D01*
X109334065Y-116964133D01*
X109339886Y-117042746D01*
X109339886Y-117108448D01*
X108852988Y-117108448D01*
X108864983Y-117145809D01*
X108883138Y-117176790D01*
X108907576Y-117202420D01*
X108937213Y-117221609D01*
X108971335Y-117233324D01*
X109011135Y-117237408D01*
X109059925Y-117231346D01*
X109098513Y-117214327D01*
X109131726Y-117188126D01*
X109160795Y-117154854D01*
X109307707Y-117262687D01*
X109271294Y-117302407D01*
X109229063Y-117335580D01*
X109180396Y-117362521D01*
X109128189Y-117382113D01*
X109075195Y-117393748D01*
X109020905Y-117397631D01*
X108944277Y-117391264D01*
X108873260Y-117372535D01*
X108808110Y-117341762D01*
X108752971Y-117300728D01*
X108707524Y-117249567D01*
X108672554Y-117188498D01*
X108656471Y-117143917D01*
X108646586Y-117095314D01*
X108643183Y-117042013D01*
X108646587Y-116988713D01*
X108651645Y-116963856D01*
X108852988Y-116963856D01*
X109130020Y-116963856D01*
X109126712Y-116930890D01*
X109115191Y-116901798D01*
X109095033Y-116875501D01*
X109068792Y-116855310D01*
X109037996Y-116843076D01*
X109001304Y-116838803D01*
X108967647Y-116841657D01*
X108939694Y-116849672D01*
X108914717Y-116862292D01*
X108894265Y-116877577D01*
X108877444Y-116895971D01*
X108864895Y-116916961D01*
X108856660Y-116939915D01*
X108852988Y-116963856D01*
X108651645Y-116963856D01*
X108656473Y-116940131D01*
X108672554Y-116895590D01*
X108707528Y-116834470D01*
X108752971Y-116783299D01*
X108808160Y-116742262D01*
X108873321Y-116711492D01*
X108944286Y-116692764D01*
X109020905Y-116686396D01*
X109091328Y-116692874D01*
G37*
G36*
X109539982Y-116870066D02*
G01*
X109401435Y-116870066D01*
X109401435Y-116702027D01*
X109539982Y-116702027D01*
X109539982Y-116581677D01*
X109542486Y-116526596D01*
X109549752Y-116475981D01*
X109564292Y-116428864D01*
X109587548Y-116388542D01*
X109620685Y-116355483D01*
X109667965Y-116329069D01*
X109724999Y-116313365D01*
X109805779Y-116307331D01*
X109868733Y-116310140D01*
X109928878Y-116319909D01*
X109919108Y-116497230D01*
X109885525Y-116486727D01*
X109850537Y-116483186D01*
X109804406Y-116489235D01*
X109775005Y-116504923D01*
X109762425Y-116521571D01*
X109753453Y-116549555D01*
X109749848Y-116594011D01*
X109749848Y-116702027D01*
X109905125Y-116702027D01*
X109905125Y-116870066D01*
X109749848Y-116870066D01*
X109749848Y-117382000D01*
X109539982Y-117382000D01*
X109539982Y-116870066D01*
G37*
G36*
X110505474Y-116702027D02*
G01*
X110715279Y-116702027D01*
X110715279Y-117382000D01*
X110505474Y-117382000D01*
X110505474Y-116702027D01*
G37*
G36*
X110488682Y-116487094D02*
G01*
X110492686Y-116455145D01*
X110504430Y-116426937D01*
X110524342Y-116401487D01*
X110549902Y-116381655D01*
X110578252Y-116369944D01*
X110610376Y-116365949D01*
X110642501Y-116369944D01*
X110670851Y-116381655D01*
X110696411Y-116401487D01*
X110716322Y-116426937D01*
X110728067Y-116455145D01*
X110732070Y-116487094D01*
X110728068Y-116519045D01*
X110716324Y-116547274D01*
X110696411Y-116572762D01*
X110670855Y-116592557D01*
X110642505Y-116604249D01*
X110610376Y-116608238D01*
X110578248Y-116604249D01*
X110549897Y-116592557D01*
X110524342Y-116572762D01*
X110504428Y-116547274D01*
X110492685Y-116519045D01*
X110488682Y-116487094D01*
G37*
G36*
X110057777Y-116870066D02*
G01*
X109919230Y-116870066D01*
X109919230Y-116702027D01*
X110057777Y-116702027D01*
X110057777Y-116581677D01*
X110060281Y-116526596D01*
X110067547Y-116475981D01*
X110082087Y-116428864D01*
X110105343Y-116388542D01*
X110138480Y-116355483D01*
X110185760Y-116329069D01*
X110242794Y-116313365D01*
X110323574Y-116307331D01*
X110386528Y-116310140D01*
X110446673Y-116319848D01*
X110436903Y-116496863D01*
X110403319Y-116486605D01*
X110368332Y-116483186D01*
X110322245Y-116489231D01*
X110292800Y-116504923D01*
X110280220Y-116521571D01*
X110271248Y-116549555D01*
X110267643Y-116594011D01*
X110267643Y-116702027D01*
X110422920Y-116702027D01*
X110422920Y-116870066D01*
X110267643Y-116870066D01*
X110267643Y-117382000D01*
X110057777Y-117382000D01*
X110057777Y-116870066D01*
G37*
G36*
X111326496Y-116921846D02*
G01*
X111308368Y-116901722D01*
X111283143Y-116884782D01*
X111254191Y-116873762D01*
X111222998Y-116870066D01*
X111171881Y-116875811D01*
X111131418Y-116891838D01*
X111099167Y-116917633D01*
X111075149Y-116951650D01*
X111060324Y-116992484D01*
X111055081Y-117042013D01*
X111060323Y-117091544D01*
X111075147Y-117132401D01*
X111099167Y-117166455D01*
X111131414Y-117192214D01*
X111171876Y-117208222D01*
X111222998Y-117213960D01*
X111256174Y-117209946D01*
X111283143Y-117198573D01*
X111306762Y-117181607D01*
X111326496Y-117162181D01*
X111465043Y-117307200D01*
X111430320Y-117337356D01*
X111392001Y-117360669D01*
X111349577Y-117377481D01*
X111283582Y-117392773D01*
X111222998Y-117397631D01*
X111146371Y-117391264D01*
X111075354Y-117372535D01*
X111010203Y-117341762D01*
X110955064Y-117300728D01*
X110909617Y-117249567D01*
X110874647Y-117188498D01*
X110858565Y-117143917D01*
X110848680Y-117095314D01*
X110845277Y-117042013D01*
X110848680Y-116988713D01*
X110858566Y-116940131D01*
X110874647Y-116895590D01*
X110909621Y-116834470D01*
X110955064Y-116783299D01*
X111010203Y-116742265D01*
X111075354Y-116711492D01*
X111146371Y-116692763D01*
X111222998Y-116686396D01*
X111283580Y-116691269D01*
X111349577Y-116706607D01*
X111391999Y-116723384D01*
X111430318Y-116746676D01*
X111465043Y-116776827D01*
X111326496Y-116921846D01*
G37*
G36*
X111543140Y-116702027D02*
G01*
X111753005Y-116702027D01*
X111753005Y-117382000D01*
X111543140Y-117382000D01*
X111543140Y-116702027D01*
G37*
G36*
X111526348Y-116487094D02*
G01*
X111530352Y-116455145D01*
X111542096Y-116426937D01*
X111562008Y-116401487D01*
X111587604Y-116381650D01*
X111615956Y-116369941D01*
X111648042Y-116365949D01*
X111680167Y-116369944D01*
X111708517Y-116381655D01*
X111734077Y-116401487D01*
X111754025Y-116426941D01*
X111765788Y-116455149D01*
X111769797Y-116487094D01*
X111765789Y-116519041D01*
X111754027Y-116547269D01*
X111734077Y-116572762D01*
X111708521Y-116592557D01*
X111680171Y-116604249D01*
X111648042Y-116608238D01*
X111615952Y-116604252D01*
X111587599Y-116592562D01*
X111562008Y-116572762D01*
X111542094Y-116547274D01*
X111530350Y-116519045D01*
X111526348Y-116487094D01*
G37*
G36*
X112330965Y-116692874D02*
G01*
X112392739Y-116711553D01*
X112447870Y-116742278D01*
X112493489Y-116783543D01*
X112529616Y-116834312D01*
X112557114Y-116896017D01*
X112573702Y-116964133D01*
X112579523Y-117042746D01*
X112579523Y-117108448D01*
X112092625Y-117108448D01*
X112104620Y-117145809D01*
X112122776Y-117176790D01*
X112147213Y-117202420D01*
X112176850Y-117221609D01*
X112210972Y-117233324D01*
X112250772Y-117237408D01*
X112299562Y-117231346D01*
X112338150Y-117214327D01*
X112371363Y-117188126D01*
X112400432Y-117154854D01*
X112547344Y-117262687D01*
X112510931Y-117302407D01*
X112468700Y-117335580D01*
X112420033Y-117362521D01*
X112367826Y-117382113D01*
X112314832Y-117393748D01*
X112260542Y-117397631D01*
X112183915Y-117391264D01*
X112112897Y-117372535D01*
X112047747Y-117341762D01*
X111992608Y-117300728D01*
X111947161Y-117249567D01*
X111912191Y-117188498D01*
X111896108Y-117143917D01*
X111886223Y-117095314D01*
X111882821Y-117042013D01*
X111886224Y-116988713D01*
X111891282Y-116963856D01*
X112092625Y-116963856D01*
X112369658Y-116963856D01*
X112366349Y-116930890D01*
X112354829Y-116901798D01*
X112334670Y-116875501D01*
X112308429Y-116855310D01*
X112277633Y-116843076D01*
X112240942Y-116838803D01*
X112207284Y-116841657D01*
X112179331Y-116849672D01*
X112154354Y-116862292D01*
X112133902Y-116877577D01*
X112117081Y-116895971D01*
X112104532Y-116916961D01*
X112096298Y-116939915D01*
X112092625Y-116963856D01*
X111891282Y-116963856D01*
X111896110Y-116940131D01*
X111912191Y-116895590D01*
X111947165Y-116834470D01*
X111992608Y-116783299D01*
X112047797Y-116742262D01*
X112112958Y-116711492D01*
X112183923Y-116692764D01*
X112260542Y-116686396D01*
X112330965Y-116692874D01*
G37*
G36*
X112706835Y-116702027D02*
G01*
X112908335Y-116702027D01*
X112908335Y-116794473D01*
X112911083Y-116794473D01*
X112939049Y-116755700D01*
X112982402Y-116721078D01*
X113008889Y-116707408D01*
X113039799Y-116696105D01*
X113072875Y-116688894D01*
X113109774Y-116686396D01*
X113162646Y-116689498D01*
X113204917Y-116697980D01*
X113238490Y-116710881D01*
X113282346Y-116740306D01*
X113314694Y-116778598D01*
X113337259Y-116824784D01*
X113351758Y-116880569D01*
X113359041Y-116940485D01*
X113361589Y-117007636D01*
X113361589Y-117382000D01*
X113151723Y-117382000D01*
X113151723Y-117049096D01*
X113149586Y-116988280D01*
X113145326Y-116957652D01*
X113137008Y-116930211D01*
X113123666Y-116905990D01*
X113104829Y-116886858D01*
X113080023Y-116874708D01*
X113042608Y-116870066D01*
X113004501Y-116874065D01*
X112976845Y-116884782D01*
X112954546Y-116902000D01*
X112938377Y-116923922D01*
X112927457Y-116949612D01*
X112920853Y-116979182D01*
X112916700Y-117043479D01*
X112916700Y-117382000D01*
X112706835Y-117382000D01*
X112706835Y-116702027D01*
G37*
G36*
X113972990Y-116870066D02*
G01*
X113788342Y-116870066D01*
X113788342Y-117096174D01*
X113791090Y-117147099D01*
X113795779Y-117169003D01*
X113803668Y-117186911D01*
X113815853Y-117201512D01*
X113833771Y-117212739D01*
X113855961Y-117219265D01*
X113887688Y-117221776D01*
X113931713Y-117218296D01*
X113956688Y-117212059D01*
X113972990Y-117202054D01*
X113972990Y-117376687D01*
X113937397Y-117387137D01*
X113900205Y-117393418D01*
X113826078Y-117397631D01*
X113774169Y-117394738D01*
X113728136Y-117386457D01*
X113685667Y-117371740D01*
X113649795Y-117350859D01*
X113620069Y-117322949D01*
X113597344Y-117287355D01*
X113583502Y-117245615D01*
X113578476Y-117192467D01*
X113578476Y-116870066D01*
X113444143Y-116870066D01*
X113444143Y-116702027D01*
X113578476Y-116702027D01*
X113578476Y-116500527D01*
X113788342Y-116500527D01*
X113788342Y-116702027D01*
X113972990Y-116702027D01*
X113972990Y-116870066D01*
G37*
G36*
X114878459Y-116903955D02*
G01*
X114844308Y-116872025D01*
X114804385Y-116853145D01*
X114756765Y-116846619D01*
X114730680Y-116849707D01*
X114704986Y-116859137D01*
X114686272Y-116875925D01*
X114679829Y-116902307D01*
X114686067Y-116923707D01*
X114705718Y-116939187D01*
X114771420Y-116960009D01*
X114856782Y-116979487D01*
X114900969Y-116992935D01*
X114942084Y-117012216D01*
X114978411Y-117038411D01*
X115007847Y-117072727D01*
X115021615Y-117099467D01*
X115030506Y-117133005D01*
X115033736Y-117175004D01*
X115030255Y-117217775D01*
X115020490Y-117253266D01*
X115005038Y-117282837D01*
X114972409Y-117321070D01*
X114931643Y-117351042D01*
X114884684Y-117372713D01*
X114830893Y-117387190D01*
X114775021Y-117395047D01*
X114720373Y-117397631D01*
X114649194Y-117392604D01*
X114576270Y-117377237D01*
X114529856Y-117359936D01*
X114489064Y-117335890D01*
X114453171Y-117304880D01*
X114580483Y-117163280D01*
X114612015Y-117195760D01*
X114645512Y-117218540D01*
X114683345Y-117232496D01*
X114728799Y-117237408D01*
X114764017Y-117234697D01*
X114794501Y-117226966D01*
X114811336Y-117217664D01*
X114820705Y-117205212D01*
X114823932Y-117188681D01*
X114817629Y-117165816D01*
X114798042Y-117149053D01*
X114770133Y-117137361D01*
X114732280Y-117126766D01*
X114646917Y-117107287D01*
X114602694Y-117094184D01*
X114561615Y-117076024D01*
X114525345Y-117050887D01*
X114495853Y-117016856D01*
X114482084Y-116990117D01*
X114473193Y-116956579D01*
X114469963Y-116914580D01*
X114476378Y-116857706D01*
X114494448Y-116811631D01*
X114522863Y-116772217D01*
X114558806Y-116740679D01*
X114601120Y-116716733D01*
X114650397Y-116699646D01*
X114702559Y-116689704D01*
X114755361Y-116686396D01*
X114822376Y-116691241D01*
X114891038Y-116706057D01*
X114934704Y-116722745D01*
X114973194Y-116746079D01*
X115007175Y-116776338D01*
X114878459Y-116903955D01*
G37*
G36*
X115604532Y-116870066D02*
G01*
X115419884Y-116870066D01*
X115419884Y-117096174D01*
X115422632Y-117147099D01*
X115427322Y-117169003D01*
X115435211Y-117186911D01*
X115447395Y-117201512D01*
X115465314Y-117212739D01*
X115487503Y-117219265D01*
X115519230Y-117221776D01*
X115563255Y-117218296D01*
X115588230Y-117212059D01*
X115604532Y-117202054D01*
X115604532Y-117376687D01*
X115568940Y-117387137D01*
X115531748Y-117393418D01*
X115457620Y-117397631D01*
X115405712Y-117394738D01*
X115359678Y-117386457D01*
X115317209Y-117371740D01*
X115281338Y-117350859D01*
X115251611Y-117322949D01*
X115228886Y-117287355D01*
X115215044Y-117245615D01*
X115210019Y-117192467D01*
X115210019Y-116870066D01*
X115075685Y-116870066D01*
X115075685Y-116702027D01*
X115210019Y-116702027D01*
X115210019Y-116500527D01*
X115419884Y-116500527D01*
X115419884Y-116702027D01*
X115604532Y-116702027D01*
X115604532Y-116870066D01*
G37*
G36*
X116108016Y-116692744D02*
G01*
X116171969Y-116709477D01*
X116209679Y-116727648D01*
X116241133Y-116750192D01*
X116267102Y-116777193D01*
X116296923Y-116825937D01*
X116316805Y-116886858D01*
X116327058Y-116954378D01*
X116330788Y-117037006D01*
X116330788Y-117382000D01*
X116137714Y-117382000D01*
X116137714Y-117294133D01*
X116134966Y-117294133D01*
X116108789Y-117327849D01*
X116077948Y-117354102D01*
X116041910Y-117373573D01*
X115982444Y-117391582D01*
X115919483Y-117397631D01*
X115872604Y-117394307D01*
X115827831Y-117384442D01*
X115786017Y-117367775D01*
X115750162Y-117344875D01*
X115720183Y-117315460D01*
X115697039Y-117279662D01*
X115682544Y-117238632D01*
X115677438Y-117189475D01*
X115678360Y-117180621D01*
X115878939Y-117180621D01*
X115882599Y-117203323D01*
X115893091Y-117221132D01*
X115911118Y-117235271D01*
X115944195Y-117248653D01*
X115978224Y-117253039D01*
X116008589Y-117250979D01*
X116037697Y-117244857D01*
X116065129Y-117234819D01*
X116088743Y-117221654D01*
X116108887Y-117204516D01*
X116124403Y-117183369D01*
X116134250Y-117158658D01*
X116137714Y-117128720D01*
X116137714Y-117085000D01*
X116085935Y-117085000D01*
X116026523Y-117087076D01*
X115991381Y-117091013D01*
X115957951Y-117098678D01*
X115927091Y-117110848D01*
X115902020Y-117127376D01*
X115884909Y-117149787D01*
X115878939Y-117180621D01*
X115678360Y-117180621D01*
X115683199Y-117134156D01*
X115699115Y-117090923D01*
X115724655Y-117054130D01*
X115757855Y-117024306D01*
X115797135Y-117001109D01*
X115842547Y-116983395D01*
X115890777Y-116970755D01*
X115941160Y-116961841D01*
X116043253Y-116953536D01*
X116137714Y-116952132D01*
X116133097Y-116916893D01*
X116119886Y-116887924D01*
X116097841Y-116863716D01*
X116069817Y-116845611D01*
X116038657Y-116834727D01*
X116003442Y-116830988D01*
X115953481Y-116836512D01*
X115908981Y-116852664D01*
X115868878Y-116878169D01*
X115832777Y-116912137D01*
X115720853Y-116796977D01*
X115762054Y-116763273D01*
X115807586Y-116735690D01*
X115857934Y-116714056D01*
X115937576Y-116693329D01*
X116020233Y-116686396D01*
X116108016Y-116692744D01*
G37*
G36*
X116462313Y-116702027D02*
G01*
X116663813Y-116702027D01*
X116663813Y-116794473D01*
X116666561Y-116794473D01*
X116694527Y-116755700D01*
X116737880Y-116721078D01*
X116764367Y-116707408D01*
X116795277Y-116696105D01*
X116828353Y-116688894D01*
X116865252Y-116686396D01*
X116912073Y-116689790D01*
X116954005Y-116699598D01*
X116991831Y-116715522D01*
X117025333Y-116738342D01*
X117052960Y-116768493D01*
X117075118Y-116807052D01*
X117102301Y-116766242D01*
X117131628Y-116735813D01*
X117163229Y-116714178D01*
X117198787Y-116699247D01*
X117240801Y-116689767D01*
X117290540Y-116686396D01*
X117355690Y-116692577D01*
X117405945Y-116709477D01*
X117448301Y-116737002D01*
X117480134Y-116772308D01*
X117503245Y-116814852D01*
X117519274Y-116865914D01*
X117528121Y-116920791D01*
X117531181Y-116981136D01*
X117531181Y-117382000D01*
X117321315Y-117382000D01*
X117321315Y-116986143D01*
X117316017Y-116940989D01*
X117301043Y-116904322D01*
X117284794Y-116885869D01*
X117261614Y-116874333D01*
X117228991Y-116870066D01*
X117194441Y-116873270D01*
X117168114Y-116881973D01*
X117145929Y-116896228D01*
X117128913Y-116914824D01*
X117116495Y-116937230D01*
X117107969Y-116963795D01*
X117101680Y-117022535D01*
X117101680Y-117382000D01*
X116891814Y-117382000D01*
X116891814Y-117022535D01*
X116890409Y-116977778D01*
X116880579Y-116927464D01*
X116869589Y-116905407D01*
X116853346Y-116886858D01*
X116831417Y-116874678D01*
X116798086Y-116870066D01*
X116759979Y-116874065D01*
X116732323Y-116884782D01*
X116710024Y-116902000D01*
X116693855Y-116923922D01*
X116682935Y-116949612D01*
X116676331Y-116979182D01*
X116672178Y-117043479D01*
X116672178Y-117382000D01*
X116462313Y-117382000D01*
X116462313Y-116702027D01*
G37*
G36*
X118176645Y-116693052D02*
G01*
X118240645Y-116712225D01*
X118298073Y-116743396D01*
X118346280Y-116784704D01*
X118385021Y-116835353D01*
X118414118Y-116895590D01*
X118431808Y-116961864D01*
X118437932Y-117036457D01*
X118432462Y-117106292D01*
X118416256Y-117172378D01*
X118389792Y-117234021D01*
X118354706Y-117287478D01*
X118310513Y-117332567D01*
X118257437Y-117367650D01*
X118218216Y-117384075D01*
X118175093Y-117394155D01*
X118127316Y-117397631D01*
X118063161Y-117392483D01*
X118004890Y-117377481D01*
X117969357Y-117360820D01*
X117938543Y-117338015D01*
X117911894Y-117308605D01*
X117909085Y-117308605D01*
X117909085Y-117702446D01*
X117699220Y-117702446D01*
X117699220Y-117042013D01*
X117892294Y-117042013D01*
X117897529Y-117091548D01*
X117912334Y-117132405D01*
X117936318Y-117166455D01*
X117968565Y-117192214D01*
X118009027Y-117208222D01*
X118060150Y-117213960D01*
X118111272Y-117208222D01*
X118151734Y-117192214D01*
X118183981Y-117166455D01*
X118208001Y-117132401D01*
X118222825Y-117091544D01*
X118228066Y-117042013D01*
X118222824Y-116992484D01*
X118207999Y-116951650D01*
X118183981Y-116917633D01*
X118151730Y-116891838D01*
X118111267Y-116875811D01*
X118060150Y-116870066D01*
X118009032Y-116875811D01*
X117968569Y-116891838D01*
X117936318Y-116917633D01*
X117912336Y-116951645D01*
X117897530Y-116992480D01*
X117892294Y-117042013D01*
X117699220Y-117042013D01*
X117699220Y-116702027D01*
X117892294Y-116702027D01*
X117892294Y-116791665D01*
X117895102Y-116791665D01*
X117927953Y-116754967D01*
X117975519Y-116721078D01*
X118034993Y-116696105D01*
X118067893Y-116688870D01*
X118103564Y-116686396D01*
X118176645Y-116693052D01*
G37*
G36*
X118903764Y-116702027D02*
G01*
X119130422Y-116702027D01*
X119302491Y-117163707D01*
X119305300Y-117163707D01*
X119464790Y-116702027D01*
X119675999Y-116702027D01*
X119407393Y-117382000D01*
X119184949Y-117382000D01*
X118903764Y-116702027D01*
G37*
G36*
X120081564Y-116627900D02*
G01*
X119882873Y-116802778D01*
X119763988Y-116665635D01*
X120087182Y-116393304D01*
X120283004Y-116393304D01*
X120283004Y-117382000D01*
X120081564Y-117382000D01*
X120081564Y-116627900D01*
G37*
G36*
X120585437Y-117260855D02*
G01*
X120587900Y-117234832D01*
X120595207Y-117210419D01*
X120607017Y-117188024D01*
X120622501Y-117169020D01*
X120641493Y-117153493D01*
X120663778Y-117141726D01*
X120688186Y-117134371D01*
X120714153Y-117131895D01*
X120740112Y-117134372D01*
X120764467Y-117141726D01*
X120786793Y-117153500D01*
X120805744Y-117169020D01*
X120821264Y-117188031D01*
X120833039Y-117210419D01*
X120840392Y-117234834D01*
X120842869Y-117260855D01*
X120840393Y-117286884D01*
X120833039Y-117311352D01*
X120821267Y-117333689D01*
X120805744Y-117352690D01*
X120786795Y-117368224D01*
X120764467Y-117380046D01*
X120740115Y-117387353D01*
X120714153Y-117389815D01*
X120688183Y-117387354D01*
X120663778Y-117380046D01*
X120641491Y-117368231D01*
X120622501Y-117352690D01*
X120607013Y-117333695D01*
X120595207Y-117311352D01*
X120587899Y-117286887D01*
X120585437Y-117260855D01*
G37*
G36*
X121407834Y-116379480D02*
G01*
X121467673Y-116395467D01*
X121517285Y-116420660D01*
X121561653Y-116455030D01*
X121599042Y-116495189D01*
X121629942Y-116541621D01*
X121664618Y-116619096D01*
X121687278Y-116706668D01*
X121699413Y-116797392D01*
X121703398Y-116885698D01*
X121699413Y-116974004D01*
X121687278Y-117064728D01*
X121664618Y-117152300D01*
X121629942Y-117229775D01*
X121599045Y-117276211D01*
X121561656Y-117316391D01*
X121517285Y-117350797D01*
X121467677Y-117375956D01*
X121407839Y-117391923D01*
X121335446Y-117397631D01*
X121263054Y-117391924D01*
X121203193Y-117375958D01*
X121153546Y-117350797D01*
X121109214Y-117316395D01*
X121071844Y-117276215D01*
X121040950Y-117229775D01*
X121006259Y-117152301D01*
X120983553Y-117064728D01*
X120971464Y-116974005D01*
X120967494Y-116885698D01*
X121177360Y-116885698D01*
X121180840Y-116979854D01*
X121187386Y-117033873D01*
X121199769Y-117085306D01*
X121219500Y-117132616D01*
X121246603Y-117171035D01*
X121269747Y-117190110D01*
X121298771Y-117201919D01*
X121335446Y-117206145D01*
X121371195Y-117201970D01*
X121400038Y-117190203D01*
X121423557Y-117171035D01*
X121451235Y-117132561D01*
X121471123Y-117085306D01*
X121483491Y-117033872D01*
X121489991Y-116979854D01*
X121493532Y-116885698D01*
X121489991Y-116791542D01*
X121483489Y-116737532D01*
X121471123Y-116686152D01*
X121451229Y-116638855D01*
X121423557Y-116600422D01*
X121400033Y-116581218D01*
X121371191Y-116569432D01*
X121335446Y-116565251D01*
X121298776Y-116569484D01*
X121269751Y-116581311D01*
X121246603Y-116600422D01*
X121219506Y-116638799D01*
X121199769Y-116686152D01*
X121187388Y-116737532D01*
X121180840Y-116791542D01*
X121177360Y-116885698D01*
X120967494Y-116885698D01*
X120971464Y-116797391D01*
X120983553Y-116706668D01*
X121006259Y-116619095D01*
X121040950Y-116541621D01*
X121071846Y-116495184D01*
X121109216Y-116455026D01*
X121153546Y-116420660D01*
X121203197Y-116395464D01*
X121263058Y-116379479D01*
X121335446Y-116373765D01*
X121407834Y-116379480D01*
G37*
G36*
X122870218Y-116232814D02*
G01*
X123389008Y-116232814D01*
X124028616Y-117529867D01*
X123524095Y-117529867D01*
X123129690Y-116684138D01*
X122731719Y-117529867D01*
X122230609Y-117529867D01*
X122870218Y-116232814D01*
G37*
D12*
X135728333Y-110864159D02*
X135728333Y-111317730D01*
X135728333Y-111317730D02*
X135698094Y-111408444D01*
X135698094Y-111408444D02*
X135637618Y-111468921D01*
X135637618Y-111468921D02*
X135546904Y-111499159D01*
X135546904Y-111499159D02*
X135486428Y-111499159D01*
X136000476Y-110924635D02*
X136030714Y-110894397D01*
X136030714Y-110894397D02*
X136091190Y-110864159D01*
X136091190Y-110864159D02*
X136242381Y-110864159D01*
X136242381Y-110864159D02*
X136302857Y-110894397D01*
X136302857Y-110894397D02*
X136333095Y-110924635D01*
X136333095Y-110924635D02*
X136363333Y-110985111D01*
X136363333Y-110985111D02*
X136363333Y-111045587D01*
X136363333Y-111045587D02*
X136333095Y-111136301D01*
X136333095Y-111136301D02*
X135970238Y-111499159D01*
X135970238Y-111499159D02*
X136363333Y-111499159D01*
X119604166Y-108770559D02*
X119301785Y-108770559D01*
X119301785Y-108770559D02*
X119301785Y-108135559D01*
X119785595Y-108196035D02*
X119815833Y-108165797D01*
X119815833Y-108165797D02*
X119876309Y-108135559D01*
X119876309Y-108135559D02*
X120027500Y-108135559D01*
X120027500Y-108135559D02*
X120087976Y-108165797D01*
X120087976Y-108165797D02*
X120118214Y-108196035D01*
X120118214Y-108196035D02*
X120148452Y-108256511D01*
X120148452Y-108256511D02*
X120148452Y-108316987D01*
X120148452Y-108316987D02*
X120118214Y-108407701D01*
X120118214Y-108407701D02*
X119755357Y-108770559D01*
X119755357Y-108770559D02*
X120148452Y-108770559D01*
X122404166Y-102316159D02*
X122101785Y-102316159D01*
X122101785Y-102316159D02*
X122101785Y-101681159D01*
X122948452Y-102316159D02*
X122585595Y-102316159D01*
X122767023Y-102316159D02*
X122767023Y-101681159D01*
X122767023Y-101681159D02*
X122706547Y-101771873D01*
X122706547Y-101771873D02*
X122646071Y-101832349D01*
X122646071Y-101832349D02*
X122585595Y-101862587D01*
X131115759Y-107372214D02*
X130813378Y-107583881D01*
X131115759Y-107735071D02*
X130480759Y-107735071D01*
X130480759Y-107735071D02*
X130480759Y-107493166D01*
X130480759Y-107493166D02*
X130510997Y-107432690D01*
X130510997Y-107432690D02*
X130541235Y-107402452D01*
X130541235Y-107402452D02*
X130601711Y-107372214D01*
X130601711Y-107372214D02*
X130692425Y-107372214D01*
X130692425Y-107372214D02*
X130752901Y-107402452D01*
X130752901Y-107402452D02*
X130783140Y-107432690D01*
X130783140Y-107432690D02*
X130813378Y-107493166D01*
X130813378Y-107493166D02*
X130813378Y-107735071D01*
X130480759Y-107160547D02*
X130480759Y-106767452D01*
X130480759Y-106767452D02*
X130722663Y-106979119D01*
X130722663Y-106979119D02*
X130722663Y-106888404D01*
X130722663Y-106888404D02*
X130752901Y-106827928D01*
X130752901Y-106827928D02*
X130783140Y-106797690D01*
X130783140Y-106797690D02*
X130843616Y-106767452D01*
X130843616Y-106767452D02*
X130994806Y-106767452D01*
X130994806Y-106767452D02*
X131055282Y-106797690D01*
X131055282Y-106797690D02*
X131085521Y-106827928D01*
X131085521Y-106827928D02*
X131115759Y-106888404D01*
X131115759Y-106888404D02*
X131115759Y-107069833D01*
X131115759Y-107069833D02*
X131085521Y-107130309D01*
X131085521Y-107130309D02*
X131055282Y-107160547D01*
X131115759Y-106162690D02*
X131115759Y-106525547D01*
X131115759Y-106344119D02*
X130480759Y-106344119D01*
X130480759Y-106344119D02*
X130571473Y-106404595D01*
X130571473Y-106404595D02*
X130631949Y-106465071D01*
X130631949Y-106465071D02*
X130662187Y-106525547D01*
X123081786Y-111985159D02*
X122870119Y-111682778D01*
X122718929Y-111985159D02*
X122718929Y-111350159D01*
X122718929Y-111350159D02*
X122960834Y-111350159D01*
X122960834Y-111350159D02*
X123021310Y-111380397D01*
X123021310Y-111380397D02*
X123051548Y-111410635D01*
X123051548Y-111410635D02*
X123081786Y-111471111D01*
X123081786Y-111471111D02*
X123081786Y-111561825D01*
X123081786Y-111561825D02*
X123051548Y-111622301D01*
X123051548Y-111622301D02*
X123021310Y-111652540D01*
X123021310Y-111652540D02*
X122960834Y-111682778D01*
X122960834Y-111682778D02*
X122718929Y-111682778D01*
X123323691Y-111410635D02*
X123353929Y-111380397D01*
X123353929Y-111380397D02*
X123414405Y-111350159D01*
X123414405Y-111350159D02*
X123565596Y-111350159D01*
X123565596Y-111350159D02*
X123626072Y-111380397D01*
X123626072Y-111380397D02*
X123656310Y-111410635D01*
X123656310Y-111410635D02*
X123686548Y-111471111D01*
X123686548Y-111471111D02*
X123686548Y-111531587D01*
X123686548Y-111531587D02*
X123656310Y-111622301D01*
X123656310Y-111622301D02*
X123293453Y-111985159D01*
X123293453Y-111985159D02*
X123686548Y-111985159D01*
X123898215Y-111350159D02*
X124321548Y-111350159D01*
X124321548Y-111350159D02*
X124049405Y-111985159D01*
X109471159Y-109670214D02*
X109168778Y-109881881D01*
X109471159Y-110033071D02*
X108836159Y-110033071D01*
X108836159Y-110033071D02*
X108836159Y-109791166D01*
X108836159Y-109791166D02*
X108866397Y-109730690D01*
X108866397Y-109730690D02*
X108896635Y-109700452D01*
X108896635Y-109700452D02*
X108957111Y-109670214D01*
X108957111Y-109670214D02*
X109047825Y-109670214D01*
X109047825Y-109670214D02*
X109108301Y-109700452D01*
X109108301Y-109700452D02*
X109138540Y-109730690D01*
X109138540Y-109730690D02*
X109168778Y-109791166D01*
X109168778Y-109791166D02*
X109168778Y-110033071D01*
X109471159Y-109065452D02*
X109471159Y-109428309D01*
X109471159Y-109246881D02*
X108836159Y-109246881D01*
X108836159Y-109246881D02*
X108926873Y-109307357D01*
X108926873Y-109307357D02*
X108987349Y-109367833D01*
X108987349Y-109367833D02*
X109017587Y-109428309D01*
X108836159Y-108490928D02*
X108836159Y-108793309D01*
X108836159Y-108793309D02*
X109138540Y-108823547D01*
X109138540Y-108823547D02*
X109108301Y-108793309D01*
X109108301Y-108793309D02*
X109078063Y-108732833D01*
X109078063Y-108732833D02*
X109078063Y-108581642D01*
X109078063Y-108581642D02*
X109108301Y-108521166D01*
X109108301Y-108521166D02*
X109138540Y-108490928D01*
X109138540Y-108490928D02*
X109199016Y-108460690D01*
X109199016Y-108460690D02*
X109350206Y-108460690D01*
X109350206Y-108460690D02*
X109410682Y-108490928D01*
X109410682Y-108490928D02*
X109440921Y-108521166D01*
X109440921Y-108521166D02*
X109471159Y-108581642D01*
X109471159Y-108581642D02*
X109471159Y-108732833D01*
X109471159Y-108732833D02*
X109440921Y-108793309D01*
X109440921Y-108793309D02*
X109410682Y-108823547D01*
X137326682Y-99745400D02*
X137356921Y-99775638D01*
X137356921Y-99775638D02*
X137387159Y-99866352D01*
X137387159Y-99866352D02*
X137387159Y-99926828D01*
X137387159Y-99926828D02*
X137356921Y-100017543D01*
X137356921Y-100017543D02*
X137296444Y-100078019D01*
X137296444Y-100078019D02*
X137235968Y-100108257D01*
X137235968Y-100108257D02*
X137115016Y-100138495D01*
X137115016Y-100138495D02*
X137024301Y-100138495D01*
X137024301Y-100138495D02*
X136903349Y-100108257D01*
X136903349Y-100108257D02*
X136842873Y-100078019D01*
X136842873Y-100078019D02*
X136782397Y-100017543D01*
X136782397Y-100017543D02*
X136752159Y-99926828D01*
X136752159Y-99926828D02*
X136752159Y-99866352D01*
X136752159Y-99866352D02*
X136782397Y-99775638D01*
X136782397Y-99775638D02*
X136812635Y-99745400D01*
X136812635Y-99503495D02*
X136782397Y-99473257D01*
X136782397Y-99473257D02*
X136752159Y-99412781D01*
X136752159Y-99412781D02*
X136752159Y-99261590D01*
X136752159Y-99261590D02*
X136782397Y-99201114D01*
X136782397Y-99201114D02*
X136812635Y-99170876D01*
X136812635Y-99170876D02*
X136873111Y-99140638D01*
X136873111Y-99140638D02*
X136933587Y-99140638D01*
X136933587Y-99140638D02*
X137024301Y-99170876D01*
X137024301Y-99170876D02*
X137387159Y-99533733D01*
X137387159Y-99533733D02*
X137387159Y-99140638D01*
X136752159Y-98596352D02*
X136752159Y-98717305D01*
X136752159Y-98717305D02*
X136782397Y-98777781D01*
X136782397Y-98777781D02*
X136812635Y-98808019D01*
X136812635Y-98808019D02*
X136903349Y-98868495D01*
X136903349Y-98868495D02*
X137024301Y-98898733D01*
X137024301Y-98898733D02*
X137266206Y-98898733D01*
X137266206Y-98898733D02*
X137326682Y-98868495D01*
X137326682Y-98868495D02*
X137356921Y-98838257D01*
X137356921Y-98838257D02*
X137387159Y-98777781D01*
X137387159Y-98777781D02*
X137387159Y-98656828D01*
X137387159Y-98656828D02*
X137356921Y-98596352D01*
X137356921Y-98596352D02*
X137326682Y-98566114D01*
X137326682Y-98566114D02*
X137266206Y-98535876D01*
X137266206Y-98535876D02*
X137115016Y-98535876D01*
X137115016Y-98535876D02*
X137054540Y-98566114D01*
X137054540Y-98566114D02*
X137024301Y-98596352D01*
X137024301Y-98596352D02*
X136994063Y-98656828D01*
X136994063Y-98656828D02*
X136994063Y-98777781D01*
X136994063Y-98777781D02*
X137024301Y-98838257D01*
X137024301Y-98838257D02*
X137054540Y-98868495D01*
X137054540Y-98868495D02*
X137115016Y-98898733D01*
X105340559Y-102845809D02*
X105854606Y-102845809D01*
X105854606Y-102845809D02*
X105915082Y-102815571D01*
X105915082Y-102815571D02*
X105945321Y-102785333D01*
X105945321Y-102785333D02*
X105975559Y-102724857D01*
X105975559Y-102724857D02*
X105975559Y-102603904D01*
X105975559Y-102603904D02*
X105945321Y-102543428D01*
X105945321Y-102543428D02*
X105915082Y-102513190D01*
X105915082Y-102513190D02*
X105854606Y-102482952D01*
X105854606Y-102482952D02*
X105340559Y-102482952D01*
X105552225Y-101908428D02*
X105975559Y-101908428D01*
X105310321Y-102059619D02*
X105763892Y-102210809D01*
X105763892Y-102210809D02*
X105763892Y-101817714D01*
X124941786Y-111985158D02*
X124730119Y-111682777D01*
X124578929Y-111985158D02*
X124578929Y-111350158D01*
X124578929Y-111350158D02*
X124820834Y-111350158D01*
X124820834Y-111350158D02*
X124881310Y-111380396D01*
X124881310Y-111380396D02*
X124911548Y-111410634D01*
X124911548Y-111410634D02*
X124941786Y-111471110D01*
X124941786Y-111471110D02*
X124941786Y-111561824D01*
X124941786Y-111561824D02*
X124911548Y-111622300D01*
X124911548Y-111622300D02*
X124881310Y-111652539D01*
X124881310Y-111652539D02*
X124820834Y-111682777D01*
X124820834Y-111682777D02*
X124578929Y-111682777D01*
X125183691Y-111410634D02*
X125213929Y-111380396D01*
X125213929Y-111380396D02*
X125274405Y-111350158D01*
X125274405Y-111350158D02*
X125425596Y-111350158D01*
X125425596Y-111350158D02*
X125486072Y-111380396D01*
X125486072Y-111380396D02*
X125516310Y-111410634D01*
X125516310Y-111410634D02*
X125546548Y-111471110D01*
X125546548Y-111471110D02*
X125546548Y-111531586D01*
X125546548Y-111531586D02*
X125516310Y-111622300D01*
X125516310Y-111622300D02*
X125153453Y-111985158D01*
X125153453Y-111985158D02*
X125546548Y-111985158D01*
X126090834Y-111350158D02*
X125969881Y-111350158D01*
X125969881Y-111350158D02*
X125909405Y-111380396D01*
X125909405Y-111380396D02*
X125879167Y-111410634D01*
X125879167Y-111410634D02*
X125818691Y-111501348D01*
X125818691Y-111501348D02*
X125788453Y-111622300D01*
X125788453Y-111622300D02*
X125788453Y-111864205D01*
X125788453Y-111864205D02*
X125818691Y-111924681D01*
X125818691Y-111924681D02*
X125848929Y-111954920D01*
X125848929Y-111954920D02*
X125909405Y-111985158D01*
X125909405Y-111985158D02*
X126030358Y-111985158D01*
X126030358Y-111985158D02*
X126090834Y-111954920D01*
X126090834Y-111954920D02*
X126121072Y-111924681D01*
X126121072Y-111924681D02*
X126151310Y-111864205D01*
X126151310Y-111864205D02*
X126151310Y-111713015D01*
X126151310Y-111713015D02*
X126121072Y-111652539D01*
X126121072Y-111652539D02*
X126090834Y-111622300D01*
X126090834Y-111622300D02*
X126030358Y-111592062D01*
X126030358Y-111592062D02*
X125909405Y-111592062D01*
X125909405Y-111592062D02*
X125848929Y-111622300D01*
X125848929Y-111622300D02*
X125818691Y-111652539D01*
X125818691Y-111652539D02*
X125788453Y-111713015D01*
X129236159Y-107370214D02*
X128933778Y-107581881D01*
X129236159Y-107733071D02*
X128601159Y-107733071D01*
X128601159Y-107733071D02*
X128601159Y-107491166D01*
X128601159Y-107491166D02*
X128631397Y-107430690D01*
X128631397Y-107430690D02*
X128661635Y-107400452D01*
X128661635Y-107400452D02*
X128722111Y-107370214D01*
X128722111Y-107370214D02*
X128812825Y-107370214D01*
X128812825Y-107370214D02*
X128873301Y-107400452D01*
X128873301Y-107400452D02*
X128903540Y-107430690D01*
X128903540Y-107430690D02*
X128933778Y-107491166D01*
X128933778Y-107491166D02*
X128933778Y-107733071D01*
X128661635Y-107128309D02*
X128631397Y-107098071D01*
X128631397Y-107098071D02*
X128601159Y-107037595D01*
X128601159Y-107037595D02*
X128601159Y-106886404D01*
X128601159Y-106886404D02*
X128631397Y-106825928D01*
X128631397Y-106825928D02*
X128661635Y-106795690D01*
X128661635Y-106795690D02*
X128722111Y-106765452D01*
X128722111Y-106765452D02*
X128782587Y-106765452D01*
X128782587Y-106765452D02*
X128873301Y-106795690D01*
X128873301Y-106795690D02*
X129236159Y-107158547D01*
X129236159Y-107158547D02*
X129236159Y-106765452D01*
X128601159Y-106190928D02*
X128601159Y-106493309D01*
X128601159Y-106493309D02*
X128903540Y-106523547D01*
X128903540Y-106523547D02*
X128873301Y-106493309D01*
X128873301Y-106493309D02*
X128843063Y-106432833D01*
X128843063Y-106432833D02*
X128843063Y-106281642D01*
X128843063Y-106281642D02*
X128873301Y-106221166D01*
X128873301Y-106221166D02*
X128903540Y-106190928D01*
X128903540Y-106190928D02*
X128964016Y-106160690D01*
X128964016Y-106160690D02*
X129115206Y-106160690D01*
X129115206Y-106160690D02*
X129175682Y-106190928D01*
X129175682Y-106190928D02*
X129205921Y-106221166D01*
X129205921Y-106221166D02*
X129236159Y-106281642D01*
X129236159Y-106281642D02*
X129236159Y-106432833D01*
X129236159Y-106432833D02*
X129205921Y-106493309D01*
X129205921Y-106493309D02*
X129175682Y-106523547D01*
X133502682Y-98190214D02*
X133532921Y-98220452D01*
X133532921Y-98220452D02*
X133563159Y-98311166D01*
X133563159Y-98311166D02*
X133563159Y-98371642D01*
X133563159Y-98371642D02*
X133532921Y-98462357D01*
X133532921Y-98462357D02*
X133472444Y-98522833D01*
X133472444Y-98522833D02*
X133411968Y-98553071D01*
X133411968Y-98553071D02*
X133291016Y-98583309D01*
X133291016Y-98583309D02*
X133200301Y-98583309D01*
X133200301Y-98583309D02*
X133079349Y-98553071D01*
X133079349Y-98553071D02*
X133018873Y-98522833D01*
X133018873Y-98522833D02*
X132958397Y-98462357D01*
X132958397Y-98462357D02*
X132928159Y-98371642D01*
X132928159Y-98371642D02*
X132928159Y-98311166D01*
X132928159Y-98311166D02*
X132958397Y-98220452D01*
X132958397Y-98220452D02*
X132988635Y-98190214D01*
X132928159Y-97978547D02*
X132928159Y-97585452D01*
X132928159Y-97585452D02*
X133170063Y-97797119D01*
X133170063Y-97797119D02*
X133170063Y-97706404D01*
X133170063Y-97706404D02*
X133200301Y-97645928D01*
X133200301Y-97645928D02*
X133230540Y-97615690D01*
X133230540Y-97615690D02*
X133291016Y-97585452D01*
X133291016Y-97585452D02*
X133442206Y-97585452D01*
X133442206Y-97585452D02*
X133502682Y-97615690D01*
X133502682Y-97615690D02*
X133532921Y-97645928D01*
X133532921Y-97645928D02*
X133563159Y-97706404D01*
X133563159Y-97706404D02*
X133563159Y-97887833D01*
X133563159Y-97887833D02*
X133532921Y-97948309D01*
X133532921Y-97948309D02*
X133502682Y-97978547D01*
X132988635Y-97343547D02*
X132958397Y-97313309D01*
X132958397Y-97313309D02*
X132928159Y-97252833D01*
X132928159Y-97252833D02*
X132928159Y-97101642D01*
X132928159Y-97101642D02*
X132958397Y-97041166D01*
X132958397Y-97041166D02*
X132988635Y-97010928D01*
X132988635Y-97010928D02*
X133049111Y-96980690D01*
X133049111Y-96980690D02*
X133109587Y-96980690D01*
X133109587Y-96980690D02*
X133200301Y-97010928D01*
X133200301Y-97010928D02*
X133563159Y-97373785D01*
X133563159Y-97373785D02*
X133563159Y-96980690D01*
X136396682Y-99745400D02*
X136426921Y-99775638D01*
X136426921Y-99775638D02*
X136457159Y-99866352D01*
X136457159Y-99866352D02*
X136457159Y-99926828D01*
X136457159Y-99926828D02*
X136426921Y-100017543D01*
X136426921Y-100017543D02*
X136366444Y-100078019D01*
X136366444Y-100078019D02*
X136305968Y-100108257D01*
X136305968Y-100108257D02*
X136185016Y-100138495D01*
X136185016Y-100138495D02*
X136094301Y-100138495D01*
X136094301Y-100138495D02*
X135973349Y-100108257D01*
X135973349Y-100108257D02*
X135912873Y-100078019D01*
X135912873Y-100078019D02*
X135852397Y-100017543D01*
X135852397Y-100017543D02*
X135822159Y-99926828D01*
X135822159Y-99926828D02*
X135822159Y-99866352D01*
X135822159Y-99866352D02*
X135852397Y-99775638D01*
X135852397Y-99775638D02*
X135882635Y-99745400D01*
X135882635Y-99503495D02*
X135852397Y-99473257D01*
X135852397Y-99473257D02*
X135822159Y-99412781D01*
X135822159Y-99412781D02*
X135822159Y-99261590D01*
X135822159Y-99261590D02*
X135852397Y-99201114D01*
X135852397Y-99201114D02*
X135882635Y-99170876D01*
X135882635Y-99170876D02*
X135943111Y-99140638D01*
X135943111Y-99140638D02*
X136003587Y-99140638D01*
X136003587Y-99140638D02*
X136094301Y-99170876D01*
X136094301Y-99170876D02*
X136457159Y-99533733D01*
X136457159Y-99533733D02*
X136457159Y-99140638D01*
X135822159Y-98928971D02*
X135822159Y-98505638D01*
X135822159Y-98505638D02*
X136457159Y-98777781D01*
X124951682Y-103850214D02*
X124981921Y-103880452D01*
X124981921Y-103880452D02*
X125012159Y-103971166D01*
X125012159Y-103971166D02*
X125012159Y-104031642D01*
X125012159Y-104031642D02*
X124981921Y-104122357D01*
X124981921Y-104122357D02*
X124921444Y-104182833D01*
X124921444Y-104182833D02*
X124860968Y-104213071D01*
X124860968Y-104213071D02*
X124740016Y-104243309D01*
X124740016Y-104243309D02*
X124649301Y-104243309D01*
X124649301Y-104243309D02*
X124528349Y-104213071D01*
X124528349Y-104213071D02*
X124467873Y-104182833D01*
X124467873Y-104182833D02*
X124407397Y-104122357D01*
X124407397Y-104122357D02*
X124377159Y-104031642D01*
X124377159Y-104031642D02*
X124377159Y-103971166D01*
X124377159Y-103971166D02*
X124407397Y-103880452D01*
X124407397Y-103880452D02*
X124437635Y-103850214D01*
X124377159Y-103638547D02*
X124377159Y-103245452D01*
X124377159Y-103245452D02*
X124619063Y-103457119D01*
X124619063Y-103457119D02*
X124619063Y-103366404D01*
X124619063Y-103366404D02*
X124649301Y-103305928D01*
X124649301Y-103305928D02*
X124679540Y-103275690D01*
X124679540Y-103275690D02*
X124740016Y-103245452D01*
X124740016Y-103245452D02*
X124891206Y-103245452D01*
X124891206Y-103245452D02*
X124951682Y-103275690D01*
X124951682Y-103275690D02*
X124981921Y-103305928D01*
X124981921Y-103305928D02*
X125012159Y-103366404D01*
X125012159Y-103366404D02*
X125012159Y-103547833D01*
X125012159Y-103547833D02*
X124981921Y-103608309D01*
X124981921Y-103608309D02*
X124951682Y-103638547D01*
X124377159Y-102852357D02*
X124377159Y-102791880D01*
X124377159Y-102791880D02*
X124407397Y-102731404D01*
X124407397Y-102731404D02*
X124437635Y-102701166D01*
X124437635Y-102701166D02*
X124498111Y-102670928D01*
X124498111Y-102670928D02*
X124619063Y-102640690D01*
X124619063Y-102640690D02*
X124770254Y-102640690D01*
X124770254Y-102640690D02*
X124891206Y-102670928D01*
X124891206Y-102670928D02*
X124951682Y-102701166D01*
X124951682Y-102701166D02*
X124981921Y-102731404D01*
X124981921Y-102731404D02*
X125012159Y-102791880D01*
X125012159Y-102791880D02*
X125012159Y-102852357D01*
X125012159Y-102852357D02*
X124981921Y-102912833D01*
X124981921Y-102912833D02*
X124951682Y-102943071D01*
X124951682Y-102943071D02*
X124891206Y-102973309D01*
X124891206Y-102973309D02*
X124770254Y-103003547D01*
X124770254Y-103003547D02*
X124619063Y-103003547D01*
X124619063Y-103003547D02*
X124498111Y-102973309D01*
X124498111Y-102973309D02*
X124437635Y-102943071D01*
X124437635Y-102943071D02*
X124407397Y-102912833D01*
X124407397Y-102912833D02*
X124377159Y-102852357D01*
X130175959Y-107370214D02*
X129873578Y-107581881D01*
X130175959Y-107733071D02*
X129540959Y-107733071D01*
X129540959Y-107733071D02*
X129540959Y-107491166D01*
X129540959Y-107491166D02*
X129571197Y-107430690D01*
X129571197Y-107430690D02*
X129601435Y-107400452D01*
X129601435Y-107400452D02*
X129661911Y-107370214D01*
X129661911Y-107370214D02*
X129752625Y-107370214D01*
X129752625Y-107370214D02*
X129813101Y-107400452D01*
X129813101Y-107400452D02*
X129843340Y-107430690D01*
X129843340Y-107430690D02*
X129873578Y-107491166D01*
X129873578Y-107491166D02*
X129873578Y-107733071D01*
X129601435Y-107128309D02*
X129571197Y-107098071D01*
X129571197Y-107098071D02*
X129540959Y-107037595D01*
X129540959Y-107037595D02*
X129540959Y-106886404D01*
X129540959Y-106886404D02*
X129571197Y-106825928D01*
X129571197Y-106825928D02*
X129601435Y-106795690D01*
X129601435Y-106795690D02*
X129661911Y-106765452D01*
X129661911Y-106765452D02*
X129722387Y-106765452D01*
X129722387Y-106765452D02*
X129813101Y-106795690D01*
X129813101Y-106795690D02*
X130175959Y-107158547D01*
X130175959Y-107158547D02*
X130175959Y-106765452D01*
X130175959Y-106463071D02*
X130175959Y-106342119D01*
X130175959Y-106342119D02*
X130145721Y-106281642D01*
X130145721Y-106281642D02*
X130115482Y-106251404D01*
X130115482Y-106251404D02*
X130024768Y-106190928D01*
X130024768Y-106190928D02*
X129903816Y-106160690D01*
X129903816Y-106160690D02*
X129661911Y-106160690D01*
X129661911Y-106160690D02*
X129601435Y-106190928D01*
X129601435Y-106190928D02*
X129571197Y-106221166D01*
X129571197Y-106221166D02*
X129540959Y-106281642D01*
X129540959Y-106281642D02*
X129540959Y-106402595D01*
X129540959Y-106402595D02*
X129571197Y-106463071D01*
X129571197Y-106463071D02*
X129601435Y-106493309D01*
X129601435Y-106493309D02*
X129661911Y-106523547D01*
X129661911Y-106523547D02*
X129813101Y-106523547D01*
X129813101Y-106523547D02*
X129873578Y-106493309D01*
X129873578Y-106493309D02*
X129903816Y-106463071D01*
X129903816Y-106463071D02*
X129934054Y-106402595D01*
X129934054Y-106402595D02*
X129934054Y-106281642D01*
X129934054Y-106281642D02*
X129903816Y-106221166D01*
X129903816Y-106221166D02*
X129873578Y-106190928D01*
X129873578Y-106190928D02*
X129813101Y-106160690D01*
X121698482Y-109060214D02*
X121728721Y-109090452D01*
X121728721Y-109090452D02*
X121758959Y-109181166D01*
X121758959Y-109181166D02*
X121758959Y-109241642D01*
X121758959Y-109241642D02*
X121728721Y-109332357D01*
X121728721Y-109332357D02*
X121668244Y-109392833D01*
X121668244Y-109392833D02*
X121607768Y-109423071D01*
X121607768Y-109423071D02*
X121486816Y-109453309D01*
X121486816Y-109453309D02*
X121396101Y-109453309D01*
X121396101Y-109453309D02*
X121275149Y-109423071D01*
X121275149Y-109423071D02*
X121214673Y-109392833D01*
X121214673Y-109392833D02*
X121154197Y-109332357D01*
X121154197Y-109332357D02*
X121123959Y-109241642D01*
X121123959Y-109241642D02*
X121123959Y-109181166D01*
X121123959Y-109181166D02*
X121154197Y-109090452D01*
X121154197Y-109090452D02*
X121184435Y-109060214D01*
X121123959Y-108848547D02*
X121123959Y-108455452D01*
X121123959Y-108455452D02*
X121365863Y-108667119D01*
X121365863Y-108667119D02*
X121365863Y-108576404D01*
X121365863Y-108576404D02*
X121396101Y-108515928D01*
X121396101Y-108515928D02*
X121426340Y-108485690D01*
X121426340Y-108485690D02*
X121486816Y-108455452D01*
X121486816Y-108455452D02*
X121638006Y-108455452D01*
X121638006Y-108455452D02*
X121698482Y-108485690D01*
X121698482Y-108485690D02*
X121728721Y-108515928D01*
X121728721Y-108515928D02*
X121758959Y-108576404D01*
X121758959Y-108576404D02*
X121758959Y-108757833D01*
X121758959Y-108757833D02*
X121728721Y-108818309D01*
X121728721Y-108818309D02*
X121698482Y-108848547D01*
X121123959Y-107911166D02*
X121123959Y-108032119D01*
X121123959Y-108032119D02*
X121154197Y-108092595D01*
X121154197Y-108092595D02*
X121184435Y-108122833D01*
X121184435Y-108122833D02*
X121275149Y-108183309D01*
X121275149Y-108183309D02*
X121396101Y-108213547D01*
X121396101Y-108213547D02*
X121638006Y-108213547D01*
X121638006Y-108213547D02*
X121698482Y-108183309D01*
X121698482Y-108183309D02*
X121728721Y-108153071D01*
X121728721Y-108153071D02*
X121758959Y-108092595D01*
X121758959Y-108092595D02*
X121758959Y-107971642D01*
X121758959Y-107971642D02*
X121728721Y-107911166D01*
X121728721Y-107911166D02*
X121698482Y-107880928D01*
X121698482Y-107880928D02*
X121638006Y-107850690D01*
X121638006Y-107850690D02*
X121486816Y-107850690D01*
X121486816Y-107850690D02*
X121426340Y-107880928D01*
X121426340Y-107880928D02*
X121396101Y-107911166D01*
X121396101Y-107911166D02*
X121365863Y-107971642D01*
X121365863Y-107971642D02*
X121365863Y-108092595D01*
X121365863Y-108092595D02*
X121396101Y-108153071D01*
X121396101Y-108153071D02*
X121426340Y-108183309D01*
X121426340Y-108183309D02*
X121486816Y-108213547D01*
X128486971Y-98478682D02*
X128456733Y-98508921D01*
X128456733Y-98508921D02*
X128366019Y-98539159D01*
X128366019Y-98539159D02*
X128305543Y-98539159D01*
X128305543Y-98539159D02*
X128214828Y-98508921D01*
X128214828Y-98508921D02*
X128154352Y-98448444D01*
X128154352Y-98448444D02*
X128124114Y-98387968D01*
X128124114Y-98387968D02*
X128093876Y-98267016D01*
X128093876Y-98267016D02*
X128093876Y-98176301D01*
X128093876Y-98176301D02*
X128124114Y-98055349D01*
X128124114Y-98055349D02*
X128154352Y-97994873D01*
X128154352Y-97994873D02*
X128214828Y-97934397D01*
X128214828Y-97934397D02*
X128305543Y-97904159D01*
X128305543Y-97904159D02*
X128366019Y-97904159D01*
X128366019Y-97904159D02*
X128456733Y-97934397D01*
X128456733Y-97934397D02*
X128486971Y-97964635D01*
X128728876Y-97964635D02*
X128759114Y-97934397D01*
X128759114Y-97934397D02*
X128819590Y-97904159D01*
X128819590Y-97904159D02*
X128970781Y-97904159D01*
X128970781Y-97904159D02*
X129031257Y-97934397D01*
X129031257Y-97934397D02*
X129061495Y-97964635D01*
X129061495Y-97964635D02*
X129091733Y-98025111D01*
X129091733Y-98025111D02*
X129091733Y-98085587D01*
X129091733Y-98085587D02*
X129061495Y-98176301D01*
X129061495Y-98176301D02*
X128698638Y-98539159D01*
X128698638Y-98539159D02*
X129091733Y-98539159D01*
X129394114Y-98539159D02*
X129515066Y-98539159D01*
X129515066Y-98539159D02*
X129575543Y-98508921D01*
X129575543Y-98508921D02*
X129605781Y-98478682D01*
X129605781Y-98478682D02*
X129666257Y-98387968D01*
X129666257Y-98387968D02*
X129696495Y-98267016D01*
X129696495Y-98267016D02*
X129696495Y-98025111D01*
X129696495Y-98025111D02*
X129666257Y-97964635D01*
X129666257Y-97964635D02*
X129636019Y-97934397D01*
X129636019Y-97934397D02*
X129575543Y-97904159D01*
X129575543Y-97904159D02*
X129454590Y-97904159D01*
X129454590Y-97904159D02*
X129394114Y-97934397D01*
X129394114Y-97934397D02*
X129363876Y-97964635D01*
X129363876Y-97964635D02*
X129333638Y-98025111D01*
X129333638Y-98025111D02*
X129333638Y-98176301D01*
X129333638Y-98176301D02*
X129363876Y-98236778D01*
X129363876Y-98236778D02*
X129394114Y-98267016D01*
X129394114Y-98267016D02*
X129454590Y-98297254D01*
X129454590Y-98297254D02*
X129575543Y-98297254D01*
X129575543Y-98297254D02*
X129636019Y-98267016D01*
X129636019Y-98267016D02*
X129666257Y-98236778D01*
X129666257Y-98236778D02*
X129696495Y-98176301D01*
X115306785Y-109014682D02*
X115276547Y-109044921D01*
X115276547Y-109044921D02*
X115185833Y-109075159D01*
X115185833Y-109075159D02*
X115125357Y-109075159D01*
X115125357Y-109075159D02*
X115034642Y-109044921D01*
X115034642Y-109044921D02*
X114974166Y-108984444D01*
X114974166Y-108984444D02*
X114943928Y-108923968D01*
X114943928Y-108923968D02*
X114913690Y-108803016D01*
X114913690Y-108803016D02*
X114913690Y-108712301D01*
X114913690Y-108712301D02*
X114943928Y-108591349D01*
X114943928Y-108591349D02*
X114974166Y-108530873D01*
X114974166Y-108530873D02*
X115034642Y-108470397D01*
X115034642Y-108470397D02*
X115125357Y-108440159D01*
X115125357Y-108440159D02*
X115185833Y-108440159D01*
X115185833Y-108440159D02*
X115276547Y-108470397D01*
X115276547Y-108470397D02*
X115306785Y-108500635D01*
X115911547Y-109075159D02*
X115548690Y-109075159D01*
X115730118Y-109075159D02*
X115730118Y-108440159D01*
X115730118Y-108440159D02*
X115669642Y-108530873D01*
X115669642Y-108530873D02*
X115609166Y-108591349D01*
X115609166Y-108591349D02*
X115548690Y-108621587D01*
X116153452Y-108500635D02*
X116183690Y-108470397D01*
X116183690Y-108470397D02*
X116244166Y-108440159D01*
X116244166Y-108440159D02*
X116395357Y-108440159D01*
X116395357Y-108440159D02*
X116455833Y-108470397D01*
X116455833Y-108470397D02*
X116486071Y-108500635D01*
X116486071Y-108500635D02*
X116516309Y-108561111D01*
X116516309Y-108561111D02*
X116516309Y-108621587D01*
X116516309Y-108621587D02*
X116486071Y-108712301D01*
X116486071Y-108712301D02*
X116123214Y-109075159D01*
X116123214Y-109075159D02*
X116516309Y-109075159D01*
X105875799Y-108541959D02*
X105664132Y-108239578D01*
X105512942Y-108541959D02*
X105512942Y-107906959D01*
X105512942Y-107906959D02*
X105754847Y-107906959D01*
X105754847Y-107906959D02*
X105815323Y-107937197D01*
X105815323Y-107937197D02*
X105845561Y-107967435D01*
X105845561Y-107967435D02*
X105875799Y-108027911D01*
X105875799Y-108027911D02*
X105875799Y-108118625D01*
X105875799Y-108118625D02*
X105845561Y-108179101D01*
X105845561Y-108179101D02*
X105815323Y-108209340D01*
X105815323Y-108209340D02*
X105754847Y-108239578D01*
X105754847Y-108239578D02*
X105512942Y-108239578D01*
X106480561Y-108541959D02*
X106117704Y-108541959D01*
X106299132Y-108541959D02*
X106299132Y-107906959D01*
X106299132Y-107906959D02*
X106238656Y-107997673D01*
X106238656Y-107997673D02*
X106178180Y-108058149D01*
X106178180Y-108058149D02*
X106117704Y-108088387D01*
X106692228Y-107906959D02*
X107085323Y-107906959D01*
X107085323Y-107906959D02*
X106873656Y-108148863D01*
X106873656Y-108148863D02*
X106964371Y-108148863D01*
X106964371Y-108148863D02*
X107024847Y-108179101D01*
X107024847Y-108179101D02*
X107055085Y-108209340D01*
X107055085Y-108209340D02*
X107085323Y-108269816D01*
X107085323Y-108269816D02*
X107085323Y-108421006D01*
X107085323Y-108421006D02*
X107055085Y-108481482D01*
X107055085Y-108481482D02*
X107024847Y-108511721D01*
X107024847Y-108511721D02*
X106964371Y-108541959D01*
X106964371Y-108541959D02*
X106782942Y-108541959D01*
X106782942Y-108541959D02*
X106722466Y-108511721D01*
X106722466Y-108511721D02*
X106692228Y-108481482D01*
X135728333Y-93164159D02*
X135728333Y-93617730D01*
X135728333Y-93617730D02*
X135698094Y-93708444D01*
X135698094Y-93708444D02*
X135637618Y-93768921D01*
X135637618Y-93768921D02*
X135546904Y-93799159D01*
X135546904Y-93799159D02*
X135486428Y-93799159D01*
X136363333Y-93799159D02*
X136000476Y-93799159D01*
X136181904Y-93799159D02*
X136181904Y-93164159D01*
X136181904Y-93164159D02*
X136121428Y-93254873D01*
X136121428Y-93254873D02*
X136060952Y-93315349D01*
X136060952Y-93315349D02*
X136000476Y-93345587D01*
X127196682Y-107165400D02*
X127226921Y-107195638D01*
X127226921Y-107195638D02*
X127257159Y-107286352D01*
X127257159Y-107286352D02*
X127257159Y-107346828D01*
X127257159Y-107346828D02*
X127226921Y-107437543D01*
X127226921Y-107437543D02*
X127166444Y-107498019D01*
X127166444Y-107498019D02*
X127105968Y-107528257D01*
X127105968Y-107528257D02*
X126985016Y-107558495D01*
X126985016Y-107558495D02*
X126894301Y-107558495D01*
X126894301Y-107558495D02*
X126773349Y-107528257D01*
X126773349Y-107528257D02*
X126712873Y-107498019D01*
X126712873Y-107498019D02*
X126652397Y-107437543D01*
X126652397Y-107437543D02*
X126622159Y-107346828D01*
X126622159Y-107346828D02*
X126622159Y-107286352D01*
X126622159Y-107286352D02*
X126652397Y-107195638D01*
X126652397Y-107195638D02*
X126682635Y-107165400D01*
X126622159Y-106953733D02*
X126622159Y-106560638D01*
X126622159Y-106560638D02*
X126864063Y-106772305D01*
X126864063Y-106772305D02*
X126864063Y-106681590D01*
X126864063Y-106681590D02*
X126894301Y-106621114D01*
X126894301Y-106621114D02*
X126924540Y-106590876D01*
X126924540Y-106590876D02*
X126985016Y-106560638D01*
X126985016Y-106560638D02*
X127136206Y-106560638D01*
X127136206Y-106560638D02*
X127196682Y-106590876D01*
X127196682Y-106590876D02*
X127226921Y-106621114D01*
X127226921Y-106621114D02*
X127257159Y-106681590D01*
X127257159Y-106681590D02*
X127257159Y-106863019D01*
X127257159Y-106863019D02*
X127226921Y-106923495D01*
X127226921Y-106923495D02*
X127196682Y-106953733D01*
X126833825Y-106016352D02*
X127257159Y-106016352D01*
X126591921Y-106167543D02*
X127045492Y-106318733D01*
X127045492Y-106318733D02*
X127045492Y-105925638D01*
X136805359Y-107370214D02*
X136502978Y-107581881D01*
X136805359Y-107733071D02*
X136170359Y-107733071D01*
X136170359Y-107733071D02*
X136170359Y-107491166D01*
X136170359Y-107491166D02*
X136200597Y-107430690D01*
X136200597Y-107430690D02*
X136230835Y-107400452D01*
X136230835Y-107400452D02*
X136291311Y-107370214D01*
X136291311Y-107370214D02*
X136382025Y-107370214D01*
X136382025Y-107370214D02*
X136442501Y-107400452D01*
X136442501Y-107400452D02*
X136472740Y-107430690D01*
X136472740Y-107430690D02*
X136502978Y-107491166D01*
X136502978Y-107491166D02*
X136502978Y-107733071D01*
X136230835Y-107128309D02*
X136200597Y-107098071D01*
X136200597Y-107098071D02*
X136170359Y-107037595D01*
X136170359Y-107037595D02*
X136170359Y-106886404D01*
X136170359Y-106886404D02*
X136200597Y-106825928D01*
X136200597Y-106825928D02*
X136230835Y-106795690D01*
X136230835Y-106795690D02*
X136291311Y-106765452D01*
X136291311Y-106765452D02*
X136351787Y-106765452D01*
X136351787Y-106765452D02*
X136442501Y-106795690D01*
X136442501Y-106795690D02*
X136805359Y-107158547D01*
X136805359Y-107158547D02*
X136805359Y-106765452D01*
X136442501Y-106402595D02*
X136412263Y-106463071D01*
X136412263Y-106463071D02*
X136382025Y-106493309D01*
X136382025Y-106493309D02*
X136321549Y-106523547D01*
X136321549Y-106523547D02*
X136291311Y-106523547D01*
X136291311Y-106523547D02*
X136230835Y-106493309D01*
X136230835Y-106493309D02*
X136200597Y-106463071D01*
X136200597Y-106463071D02*
X136170359Y-106402595D01*
X136170359Y-106402595D02*
X136170359Y-106281642D01*
X136170359Y-106281642D02*
X136200597Y-106221166D01*
X136200597Y-106221166D02*
X136230835Y-106190928D01*
X136230835Y-106190928D02*
X136291311Y-106160690D01*
X136291311Y-106160690D02*
X136321549Y-106160690D01*
X136321549Y-106160690D02*
X136382025Y-106190928D01*
X136382025Y-106190928D02*
X136412263Y-106221166D01*
X136412263Y-106221166D02*
X136442501Y-106281642D01*
X136442501Y-106281642D02*
X136442501Y-106402595D01*
X136442501Y-106402595D02*
X136472740Y-106463071D01*
X136472740Y-106463071D02*
X136502978Y-106493309D01*
X136502978Y-106493309D02*
X136563454Y-106523547D01*
X136563454Y-106523547D02*
X136684406Y-106523547D01*
X136684406Y-106523547D02*
X136744882Y-106493309D01*
X136744882Y-106493309D02*
X136775121Y-106463071D01*
X136775121Y-106463071D02*
X136805359Y-106402595D01*
X136805359Y-106402595D02*
X136805359Y-106281642D01*
X136805359Y-106281642D02*
X136775121Y-106221166D01*
X136775121Y-106221166D02*
X136744882Y-106190928D01*
X136744882Y-106190928D02*
X136684406Y-106160690D01*
X136684406Y-106160690D02*
X136563454Y-106160690D01*
X136563454Y-106160690D02*
X136502978Y-106190928D01*
X136502978Y-106190928D02*
X136472740Y-106221166D01*
X136472740Y-106221166D02*
X136442501Y-106281642D01*
X124659971Y-101859159D02*
X124448304Y-101556778D01*
X124297114Y-101859159D02*
X124297114Y-101224159D01*
X124297114Y-101224159D02*
X124539019Y-101224159D01*
X124539019Y-101224159D02*
X124599495Y-101254397D01*
X124599495Y-101254397D02*
X124629733Y-101284635D01*
X124629733Y-101284635D02*
X124659971Y-101345111D01*
X124659971Y-101345111D02*
X124659971Y-101435825D01*
X124659971Y-101435825D02*
X124629733Y-101496301D01*
X124629733Y-101496301D02*
X124599495Y-101526540D01*
X124599495Y-101526540D02*
X124539019Y-101556778D01*
X124539019Y-101556778D02*
X124297114Y-101556778D01*
X124901876Y-101284635D02*
X124932114Y-101254397D01*
X124932114Y-101254397D02*
X124992590Y-101224159D01*
X124992590Y-101224159D02*
X125143781Y-101224159D01*
X125143781Y-101224159D02*
X125204257Y-101254397D01*
X125204257Y-101254397D02*
X125234495Y-101284635D01*
X125234495Y-101284635D02*
X125264733Y-101345111D01*
X125264733Y-101345111D02*
X125264733Y-101405587D01*
X125264733Y-101405587D02*
X125234495Y-101496301D01*
X125234495Y-101496301D02*
X124871638Y-101859159D01*
X124871638Y-101859159D02*
X125264733Y-101859159D01*
X125809019Y-101435825D02*
X125809019Y-101859159D01*
X125657828Y-101193921D02*
X125506638Y-101647492D01*
X125506638Y-101647492D02*
X125899733Y-101647492D01*
X126276682Y-107165400D02*
X126306921Y-107195638D01*
X126306921Y-107195638D02*
X126337159Y-107286352D01*
X126337159Y-107286352D02*
X126337159Y-107346828D01*
X126337159Y-107346828D02*
X126306921Y-107437543D01*
X126306921Y-107437543D02*
X126246444Y-107498019D01*
X126246444Y-107498019D02*
X126185968Y-107528257D01*
X126185968Y-107528257D02*
X126065016Y-107558495D01*
X126065016Y-107558495D02*
X125974301Y-107558495D01*
X125974301Y-107558495D02*
X125853349Y-107528257D01*
X125853349Y-107528257D02*
X125792873Y-107498019D01*
X125792873Y-107498019D02*
X125732397Y-107437543D01*
X125732397Y-107437543D02*
X125702159Y-107346828D01*
X125702159Y-107346828D02*
X125702159Y-107286352D01*
X125702159Y-107286352D02*
X125732397Y-107195638D01*
X125732397Y-107195638D02*
X125762635Y-107165400D01*
X125702159Y-106953733D02*
X125702159Y-106560638D01*
X125702159Y-106560638D02*
X125944063Y-106772305D01*
X125944063Y-106772305D02*
X125944063Y-106681590D01*
X125944063Y-106681590D02*
X125974301Y-106621114D01*
X125974301Y-106621114D02*
X126004540Y-106590876D01*
X126004540Y-106590876D02*
X126065016Y-106560638D01*
X126065016Y-106560638D02*
X126216206Y-106560638D01*
X126216206Y-106560638D02*
X126276682Y-106590876D01*
X126276682Y-106590876D02*
X126306921Y-106621114D01*
X126306921Y-106621114D02*
X126337159Y-106681590D01*
X126337159Y-106681590D02*
X126337159Y-106863019D01*
X126337159Y-106863019D02*
X126306921Y-106923495D01*
X126306921Y-106923495D02*
X126276682Y-106953733D01*
X125702159Y-105986114D02*
X125702159Y-106288495D01*
X125702159Y-106288495D02*
X126004540Y-106318733D01*
X126004540Y-106318733D02*
X125974301Y-106288495D01*
X125974301Y-106288495D02*
X125944063Y-106228019D01*
X125944063Y-106228019D02*
X125944063Y-106076828D01*
X125944063Y-106076828D02*
X125974301Y-106016352D01*
X125974301Y-106016352D02*
X126004540Y-105986114D01*
X126004540Y-105986114D02*
X126065016Y-105955876D01*
X126065016Y-105955876D02*
X126216206Y-105955876D01*
X126216206Y-105955876D02*
X126276682Y-105986114D01*
X126276682Y-105986114D02*
X126306921Y-106016352D01*
X126306921Y-106016352D02*
X126337159Y-106076828D01*
X126337159Y-106076828D02*
X126337159Y-106228019D01*
X126337159Y-106228019D02*
X126306921Y-106288495D01*
X126306921Y-106288495D02*
X126276682Y-106318733D01*
X115916190Y-97569159D02*
X115916190Y-98083206D01*
X115916190Y-98083206D02*
X115946428Y-98143682D01*
X115946428Y-98143682D02*
X115976666Y-98173921D01*
X115976666Y-98173921D02*
X116037142Y-98204159D01*
X116037142Y-98204159D02*
X116158095Y-98204159D01*
X116158095Y-98204159D02*
X116218571Y-98173921D01*
X116218571Y-98173921D02*
X116248809Y-98143682D01*
X116248809Y-98143682D02*
X116279047Y-98083206D01*
X116279047Y-98083206D02*
X116279047Y-97569159D01*
X116914047Y-98204159D02*
X116551190Y-98204159D01*
X116732618Y-98204159D02*
X116732618Y-97569159D01*
X116732618Y-97569159D02*
X116672142Y-97659873D01*
X116672142Y-97659873D02*
X116611666Y-97720349D01*
X116611666Y-97720349D02*
X116551190Y-97750587D01*
X104657071Y-98349159D02*
X104445404Y-98046778D01*
X104294214Y-98349159D02*
X104294214Y-97714159D01*
X104294214Y-97714159D02*
X104536119Y-97714159D01*
X104536119Y-97714159D02*
X104596595Y-97744397D01*
X104596595Y-97744397D02*
X104626833Y-97774635D01*
X104626833Y-97774635D02*
X104657071Y-97835111D01*
X104657071Y-97835111D02*
X104657071Y-97925825D01*
X104657071Y-97925825D02*
X104626833Y-97986301D01*
X104626833Y-97986301D02*
X104596595Y-98016540D01*
X104596595Y-98016540D02*
X104536119Y-98046778D01*
X104536119Y-98046778D02*
X104294214Y-98046778D01*
X104868738Y-97714159D02*
X105261833Y-97714159D01*
X105261833Y-97714159D02*
X105050166Y-97956063D01*
X105050166Y-97956063D02*
X105140881Y-97956063D01*
X105140881Y-97956063D02*
X105201357Y-97986301D01*
X105201357Y-97986301D02*
X105231595Y-98016540D01*
X105231595Y-98016540D02*
X105261833Y-98077016D01*
X105261833Y-98077016D02*
X105261833Y-98228206D01*
X105261833Y-98228206D02*
X105231595Y-98288682D01*
X105231595Y-98288682D02*
X105201357Y-98318921D01*
X105201357Y-98318921D02*
X105140881Y-98349159D01*
X105140881Y-98349159D02*
X104959452Y-98349159D01*
X104959452Y-98349159D02*
X104898976Y-98318921D01*
X104898976Y-98318921D02*
X104868738Y-98288682D01*
X105503738Y-97774635D02*
X105533976Y-97744397D01*
X105533976Y-97744397D02*
X105594452Y-97714159D01*
X105594452Y-97714159D02*
X105745643Y-97714159D01*
X105745643Y-97714159D02*
X105806119Y-97744397D01*
X105806119Y-97744397D02*
X105836357Y-97774635D01*
X105836357Y-97774635D02*
X105866595Y-97835111D01*
X105866595Y-97835111D02*
X105866595Y-97895587D01*
X105866595Y-97895587D02*
X105836357Y-97986301D01*
X105836357Y-97986301D02*
X105473500Y-98349159D01*
X105473500Y-98349159D02*
X105866595Y-98349159D01*
X113300694Y-110701778D02*
X113300694Y-111004159D01*
X113089028Y-110369159D02*
X113300694Y-110701778D01*
X113300694Y-110701778D02*
X113512361Y-110369159D01*
X114056647Y-111004159D02*
X113693790Y-111004159D01*
X113875218Y-111004159D02*
X113875218Y-110369159D01*
X113875218Y-110369159D02*
X113814742Y-110459873D01*
X113814742Y-110459873D02*
X113754266Y-110520349D01*
X113754266Y-110520349D02*
X113693790Y-110550587D01*
X111211785Y-111973159D02*
X111000118Y-111670778D01*
X110848928Y-111973159D02*
X110848928Y-111338159D01*
X110848928Y-111338159D02*
X111090833Y-111338159D01*
X111090833Y-111338159D02*
X111151309Y-111368397D01*
X111151309Y-111368397D02*
X111181547Y-111398635D01*
X111181547Y-111398635D02*
X111211785Y-111459111D01*
X111211785Y-111459111D02*
X111211785Y-111549825D01*
X111211785Y-111549825D02*
X111181547Y-111610301D01*
X111181547Y-111610301D02*
X111151309Y-111640540D01*
X111151309Y-111640540D02*
X111090833Y-111670778D01*
X111090833Y-111670778D02*
X110848928Y-111670778D01*
X111816547Y-111973159D02*
X111453690Y-111973159D01*
X111635118Y-111973159D02*
X111635118Y-111338159D01*
X111635118Y-111338159D02*
X111574642Y-111428873D01*
X111574642Y-111428873D02*
X111514166Y-111489349D01*
X111514166Y-111489349D02*
X111453690Y-111519587D01*
X112360833Y-111338159D02*
X112239880Y-111338159D01*
X112239880Y-111338159D02*
X112179404Y-111368397D01*
X112179404Y-111368397D02*
X112149166Y-111398635D01*
X112149166Y-111398635D02*
X112088690Y-111489349D01*
X112088690Y-111489349D02*
X112058452Y-111610301D01*
X112058452Y-111610301D02*
X112058452Y-111852206D01*
X112058452Y-111852206D02*
X112088690Y-111912682D01*
X112088690Y-111912682D02*
X112118928Y-111942921D01*
X112118928Y-111942921D02*
X112179404Y-111973159D01*
X112179404Y-111973159D02*
X112300357Y-111973159D01*
X112300357Y-111973159D02*
X112360833Y-111942921D01*
X112360833Y-111942921D02*
X112391071Y-111912682D01*
X112391071Y-111912682D02*
X112421309Y-111852206D01*
X112421309Y-111852206D02*
X112421309Y-111701016D01*
X112421309Y-111701016D02*
X112391071Y-111640540D01*
X112391071Y-111640540D02*
X112360833Y-111610301D01*
X112360833Y-111610301D02*
X112300357Y-111580063D01*
X112300357Y-111580063D02*
X112179404Y-111580063D01*
X112179404Y-111580063D02*
X112118928Y-111610301D01*
X112118928Y-111610301D02*
X112088690Y-111640540D01*
X112088690Y-111640540D02*
X112058452Y-111701016D01*
X123723189Y-106653159D02*
X123723189Y-107167206D01*
X123723189Y-107167206D02*
X123753427Y-107227682D01*
X123753427Y-107227682D02*
X123783665Y-107257921D01*
X123783665Y-107257921D02*
X123844141Y-107288159D01*
X123844141Y-107288159D02*
X123965094Y-107288159D01*
X123965094Y-107288159D02*
X124025570Y-107257921D01*
X124025570Y-107257921D02*
X124055808Y-107227682D01*
X124055808Y-107227682D02*
X124086046Y-107167206D01*
X124086046Y-107167206D02*
X124086046Y-106653159D01*
X124327951Y-106653159D02*
X124721046Y-106653159D01*
X124721046Y-106653159D02*
X124509379Y-106895063D01*
X124509379Y-106895063D02*
X124600094Y-106895063D01*
X124600094Y-106895063D02*
X124660570Y-106925301D01*
X124660570Y-106925301D02*
X124690808Y-106955540D01*
X124690808Y-106955540D02*
X124721046Y-107016016D01*
X124721046Y-107016016D02*
X124721046Y-107167206D01*
X124721046Y-107167206D02*
X124690808Y-107227682D01*
X124690808Y-107227682D02*
X124660570Y-107257921D01*
X124660570Y-107257921D02*
X124600094Y-107288159D01*
X124600094Y-107288159D02*
X124418665Y-107288159D01*
X124418665Y-107288159D02*
X124358189Y-107257921D01*
X124358189Y-107257921D02*
X124327951Y-107227682D01*
X124659971Y-100875882D02*
X124629733Y-100906121D01*
X124629733Y-100906121D02*
X124539019Y-100936359D01*
X124539019Y-100936359D02*
X124478543Y-100936359D01*
X124478543Y-100936359D02*
X124387828Y-100906121D01*
X124387828Y-100906121D02*
X124327352Y-100845644D01*
X124327352Y-100845644D02*
X124297114Y-100785168D01*
X124297114Y-100785168D02*
X124266876Y-100664216D01*
X124266876Y-100664216D02*
X124266876Y-100573501D01*
X124266876Y-100573501D02*
X124297114Y-100452549D01*
X124297114Y-100452549D02*
X124327352Y-100392073D01*
X124327352Y-100392073D02*
X124387828Y-100331597D01*
X124387828Y-100331597D02*
X124478543Y-100301359D01*
X124478543Y-100301359D02*
X124539019Y-100301359D01*
X124539019Y-100301359D02*
X124629733Y-100331597D01*
X124629733Y-100331597D02*
X124659971Y-100361835D01*
X124871638Y-100301359D02*
X125264733Y-100301359D01*
X125264733Y-100301359D02*
X125053066Y-100543263D01*
X125053066Y-100543263D02*
X125143781Y-100543263D01*
X125143781Y-100543263D02*
X125204257Y-100573501D01*
X125204257Y-100573501D02*
X125234495Y-100603740D01*
X125234495Y-100603740D02*
X125264733Y-100664216D01*
X125264733Y-100664216D02*
X125264733Y-100815406D01*
X125264733Y-100815406D02*
X125234495Y-100875882D01*
X125234495Y-100875882D02*
X125204257Y-100906121D01*
X125204257Y-100906121D02*
X125143781Y-100936359D01*
X125143781Y-100936359D02*
X124962352Y-100936359D01*
X124962352Y-100936359D02*
X124901876Y-100906121D01*
X124901876Y-100906121D02*
X124871638Y-100875882D01*
X125476400Y-100301359D02*
X125869495Y-100301359D01*
X125869495Y-100301359D02*
X125657828Y-100543263D01*
X125657828Y-100543263D02*
X125748543Y-100543263D01*
X125748543Y-100543263D02*
X125809019Y-100573501D01*
X125809019Y-100573501D02*
X125839257Y-100603740D01*
X125839257Y-100603740D02*
X125869495Y-100664216D01*
X125869495Y-100664216D02*
X125869495Y-100815406D01*
X125869495Y-100815406D02*
X125839257Y-100875882D01*
X125839257Y-100875882D02*
X125809019Y-100906121D01*
X125809019Y-100906121D02*
X125748543Y-100936359D01*
X125748543Y-100936359D02*
X125567114Y-100936359D01*
X125567114Y-100936359D02*
X125506638Y-100906121D01*
X125506638Y-100906121D02*
X125476400Y-100875882D01*
X104841733Y-110746921D02*
X104932447Y-110777159D01*
X104932447Y-110777159D02*
X105083638Y-110777159D01*
X105083638Y-110777159D02*
X105144114Y-110746921D01*
X105144114Y-110746921D02*
X105174352Y-110716682D01*
X105174352Y-110716682D02*
X105204590Y-110656206D01*
X105204590Y-110656206D02*
X105204590Y-110595730D01*
X105204590Y-110595730D02*
X105174352Y-110535254D01*
X105174352Y-110535254D02*
X105144114Y-110505016D01*
X105144114Y-110505016D02*
X105083638Y-110474778D01*
X105083638Y-110474778D02*
X104962685Y-110444540D01*
X104962685Y-110444540D02*
X104902209Y-110414301D01*
X104902209Y-110414301D02*
X104871971Y-110384063D01*
X104871971Y-110384063D02*
X104841733Y-110323587D01*
X104841733Y-110323587D02*
X104841733Y-110263111D01*
X104841733Y-110263111D02*
X104871971Y-110202635D01*
X104871971Y-110202635D02*
X104902209Y-110172397D01*
X104902209Y-110172397D02*
X104962685Y-110142159D01*
X104962685Y-110142159D02*
X105113876Y-110142159D01*
X105113876Y-110142159D02*
X105204590Y-110172397D01*
X105416257Y-110142159D02*
X105567447Y-110777159D01*
X105567447Y-110777159D02*
X105688400Y-110323587D01*
X105688400Y-110323587D02*
X105809352Y-110777159D01*
X105809352Y-110777159D02*
X105960543Y-110142159D01*
X106535066Y-110777159D02*
X106172209Y-110777159D01*
X106353637Y-110777159D02*
X106353637Y-110142159D01*
X106353637Y-110142159D02*
X106293161Y-110232873D01*
X106293161Y-110232873D02*
X106232685Y-110293349D01*
X106232685Y-110293349D02*
X106172209Y-110323587D01*
X127757190Y-99347159D02*
X127757190Y-99861206D01*
X127757190Y-99861206D02*
X127787428Y-99921682D01*
X127787428Y-99921682D02*
X127817666Y-99951921D01*
X127817666Y-99951921D02*
X127878142Y-99982159D01*
X127878142Y-99982159D02*
X127999095Y-99982159D01*
X127999095Y-99982159D02*
X128059571Y-99951921D01*
X128059571Y-99951921D02*
X128089809Y-99921682D01*
X128089809Y-99921682D02*
X128120047Y-99861206D01*
X128120047Y-99861206D02*
X128120047Y-99347159D01*
X128392190Y-99407635D02*
X128422428Y-99377397D01*
X128422428Y-99377397D02*
X128482904Y-99347159D01*
X128482904Y-99347159D02*
X128634095Y-99347159D01*
X128634095Y-99347159D02*
X128694571Y-99377397D01*
X128694571Y-99377397D02*
X128724809Y-99407635D01*
X128724809Y-99407635D02*
X128755047Y-99468111D01*
X128755047Y-99468111D02*
X128755047Y-99528587D01*
X128755047Y-99528587D02*
X128724809Y-99619301D01*
X128724809Y-99619301D02*
X128361952Y-99982159D01*
X128361952Y-99982159D02*
X128755047Y-99982159D01*
X137745159Y-107370214D02*
X137442778Y-107581881D01*
X137745159Y-107733071D02*
X137110159Y-107733071D01*
X137110159Y-107733071D02*
X137110159Y-107491166D01*
X137110159Y-107491166D02*
X137140397Y-107430690D01*
X137140397Y-107430690D02*
X137170635Y-107400452D01*
X137170635Y-107400452D02*
X137231111Y-107370214D01*
X137231111Y-107370214D02*
X137321825Y-107370214D01*
X137321825Y-107370214D02*
X137382301Y-107400452D01*
X137382301Y-107400452D02*
X137412540Y-107430690D01*
X137412540Y-107430690D02*
X137442778Y-107491166D01*
X137442778Y-107491166D02*
X137442778Y-107733071D01*
X137110159Y-107158547D02*
X137110159Y-106765452D01*
X137110159Y-106765452D02*
X137352063Y-106977119D01*
X137352063Y-106977119D02*
X137352063Y-106886404D01*
X137352063Y-106886404D02*
X137382301Y-106825928D01*
X137382301Y-106825928D02*
X137412540Y-106795690D01*
X137412540Y-106795690D02*
X137473016Y-106765452D01*
X137473016Y-106765452D02*
X137624206Y-106765452D01*
X137624206Y-106765452D02*
X137684682Y-106795690D01*
X137684682Y-106795690D02*
X137714921Y-106825928D01*
X137714921Y-106825928D02*
X137745159Y-106886404D01*
X137745159Y-106886404D02*
X137745159Y-107067833D01*
X137745159Y-107067833D02*
X137714921Y-107128309D01*
X137714921Y-107128309D02*
X137684682Y-107158547D01*
X137110159Y-106372357D02*
X137110159Y-106311880D01*
X137110159Y-106311880D02*
X137140397Y-106251404D01*
X137140397Y-106251404D02*
X137170635Y-106221166D01*
X137170635Y-106221166D02*
X137231111Y-106190928D01*
X137231111Y-106190928D02*
X137352063Y-106160690D01*
X137352063Y-106160690D02*
X137503254Y-106160690D01*
X137503254Y-106160690D02*
X137624206Y-106190928D01*
X137624206Y-106190928D02*
X137684682Y-106221166D01*
X137684682Y-106221166D02*
X137714921Y-106251404D01*
X137714921Y-106251404D02*
X137745159Y-106311880D01*
X137745159Y-106311880D02*
X137745159Y-106372357D01*
X137745159Y-106372357D02*
X137714921Y-106432833D01*
X137714921Y-106432833D02*
X137684682Y-106463071D01*
X137684682Y-106463071D02*
X137624206Y-106493309D01*
X137624206Y-106493309D02*
X137503254Y-106523547D01*
X137503254Y-106523547D02*
X137352063Y-106523547D01*
X137352063Y-106523547D02*
X137231111Y-106493309D01*
X137231111Y-106493309D02*
X137170635Y-106463071D01*
X137170635Y-106463071D02*
X137140397Y-106432833D01*
X137140397Y-106432833D02*
X137110159Y-106372357D01*
X104683371Y-107158682D02*
X104653133Y-107188921D01*
X104653133Y-107188921D02*
X104562419Y-107219159D01*
X104562419Y-107219159D02*
X104501943Y-107219159D01*
X104501943Y-107219159D02*
X104411228Y-107188921D01*
X104411228Y-107188921D02*
X104350752Y-107128444D01*
X104350752Y-107128444D02*
X104320514Y-107067968D01*
X104320514Y-107067968D02*
X104290276Y-106947016D01*
X104290276Y-106947016D02*
X104290276Y-106856301D01*
X104290276Y-106856301D02*
X104320514Y-106735349D01*
X104320514Y-106735349D02*
X104350752Y-106674873D01*
X104350752Y-106674873D02*
X104411228Y-106614397D01*
X104411228Y-106614397D02*
X104501943Y-106584159D01*
X104501943Y-106584159D02*
X104562419Y-106584159D01*
X104562419Y-106584159D02*
X104653133Y-106614397D01*
X104653133Y-106614397D02*
X104683371Y-106644635D01*
X104895038Y-106584159D02*
X105288133Y-106584159D01*
X105288133Y-106584159D02*
X105076466Y-106826063D01*
X105076466Y-106826063D02*
X105167181Y-106826063D01*
X105167181Y-106826063D02*
X105227657Y-106856301D01*
X105227657Y-106856301D02*
X105257895Y-106886540D01*
X105257895Y-106886540D02*
X105288133Y-106947016D01*
X105288133Y-106947016D02*
X105288133Y-107098206D01*
X105288133Y-107098206D02*
X105257895Y-107158682D01*
X105257895Y-107158682D02*
X105227657Y-107188921D01*
X105227657Y-107188921D02*
X105167181Y-107219159D01*
X105167181Y-107219159D02*
X104985752Y-107219159D01*
X104985752Y-107219159D02*
X104925276Y-107188921D01*
X104925276Y-107188921D02*
X104895038Y-107158682D01*
X105499800Y-106584159D02*
X105923133Y-106584159D01*
X105923133Y-106584159D02*
X105650990Y-107219159D01*
X116867599Y-107188682D02*
X116837361Y-107218921D01*
X116837361Y-107218921D02*
X116746647Y-107249159D01*
X116746647Y-107249159D02*
X116686171Y-107249159D01*
X116686171Y-107249159D02*
X116595456Y-107218921D01*
X116595456Y-107218921D02*
X116534980Y-107158444D01*
X116534980Y-107158444D02*
X116504742Y-107097968D01*
X116504742Y-107097968D02*
X116474504Y-106977016D01*
X116474504Y-106977016D02*
X116474504Y-106886301D01*
X116474504Y-106886301D02*
X116504742Y-106765349D01*
X116504742Y-106765349D02*
X116534980Y-106704873D01*
X116534980Y-106704873D02*
X116595456Y-106644397D01*
X116595456Y-106644397D02*
X116686171Y-106614159D01*
X116686171Y-106614159D02*
X116746647Y-106614159D01*
X116746647Y-106614159D02*
X116837361Y-106644397D01*
X116837361Y-106644397D02*
X116867599Y-106674635D01*
X117472361Y-107249159D02*
X117109504Y-107249159D01*
X117290932Y-107249159D02*
X117290932Y-106614159D01*
X117290932Y-106614159D02*
X117230456Y-106704873D01*
X117230456Y-106704873D02*
X117169980Y-106765349D01*
X117169980Y-106765349D02*
X117109504Y-106795587D01*
X118077123Y-107249159D02*
X117714266Y-107249159D01*
X117895694Y-107249159D02*
X117895694Y-106614159D01*
X117895694Y-106614159D02*
X117835218Y-106704873D01*
X117835218Y-106704873D02*
X117774742Y-106765349D01*
X117774742Y-106765349D02*
X117714266Y-106795587D01*
X128486971Y-97558682D02*
X128456733Y-97588921D01*
X128456733Y-97588921D02*
X128366019Y-97619159D01*
X128366019Y-97619159D02*
X128305543Y-97619159D01*
X128305543Y-97619159D02*
X128214828Y-97588921D01*
X128214828Y-97588921D02*
X128154352Y-97528444D01*
X128154352Y-97528444D02*
X128124114Y-97467968D01*
X128124114Y-97467968D02*
X128093876Y-97347016D01*
X128093876Y-97347016D02*
X128093876Y-97256301D01*
X128093876Y-97256301D02*
X128124114Y-97135349D01*
X128124114Y-97135349D02*
X128154352Y-97074873D01*
X128154352Y-97074873D02*
X128214828Y-97014397D01*
X128214828Y-97014397D02*
X128305543Y-96984159D01*
X128305543Y-96984159D02*
X128366019Y-96984159D01*
X128366019Y-96984159D02*
X128456733Y-97014397D01*
X128456733Y-97014397D02*
X128486971Y-97044635D01*
X128728876Y-97044635D02*
X128759114Y-97014397D01*
X128759114Y-97014397D02*
X128819590Y-96984159D01*
X128819590Y-96984159D02*
X128970781Y-96984159D01*
X128970781Y-96984159D02*
X129031257Y-97014397D01*
X129031257Y-97014397D02*
X129061495Y-97044635D01*
X129061495Y-97044635D02*
X129091733Y-97105111D01*
X129091733Y-97105111D02*
X129091733Y-97165587D01*
X129091733Y-97165587D02*
X129061495Y-97256301D01*
X129061495Y-97256301D02*
X128698638Y-97619159D01*
X128698638Y-97619159D02*
X129091733Y-97619159D01*
X129454590Y-97256301D02*
X129394114Y-97226063D01*
X129394114Y-97226063D02*
X129363876Y-97195825D01*
X129363876Y-97195825D02*
X129333638Y-97135349D01*
X129333638Y-97135349D02*
X129333638Y-97105111D01*
X129333638Y-97105111D02*
X129363876Y-97044635D01*
X129363876Y-97044635D02*
X129394114Y-97014397D01*
X129394114Y-97014397D02*
X129454590Y-96984159D01*
X129454590Y-96984159D02*
X129575543Y-96984159D01*
X129575543Y-96984159D02*
X129636019Y-97014397D01*
X129636019Y-97014397D02*
X129666257Y-97044635D01*
X129666257Y-97044635D02*
X129696495Y-97105111D01*
X129696495Y-97105111D02*
X129696495Y-97135349D01*
X129696495Y-97135349D02*
X129666257Y-97195825D01*
X129666257Y-97195825D02*
X129636019Y-97226063D01*
X129636019Y-97226063D02*
X129575543Y-97256301D01*
X129575543Y-97256301D02*
X129454590Y-97256301D01*
X129454590Y-97256301D02*
X129394114Y-97286540D01*
X129394114Y-97286540D02*
X129363876Y-97316778D01*
X129363876Y-97316778D02*
X129333638Y-97377254D01*
X129333638Y-97377254D02*
X129333638Y-97498206D01*
X129333638Y-97498206D02*
X129363876Y-97558682D01*
X129363876Y-97558682D02*
X129394114Y-97588921D01*
X129394114Y-97588921D02*
X129454590Y-97619159D01*
X129454590Y-97619159D02*
X129575543Y-97619159D01*
X129575543Y-97619159D02*
X129636019Y-97588921D01*
X129636019Y-97588921D02*
X129666257Y-97558682D01*
X129666257Y-97558682D02*
X129696495Y-97498206D01*
X129696495Y-97498206D02*
X129696495Y-97377254D01*
X129696495Y-97377254D02*
X129666257Y-97316778D01*
X129666257Y-97316778D02*
X129636019Y-97286540D01*
X129636019Y-97286540D02*
X129575543Y-97256301D01*
X110579971Y-107249159D02*
X110368304Y-106946778D01*
X110217114Y-107249159D02*
X110217114Y-106614159D01*
X110217114Y-106614159D02*
X110459019Y-106614159D01*
X110459019Y-106614159D02*
X110519495Y-106644397D01*
X110519495Y-106644397D02*
X110549733Y-106674635D01*
X110549733Y-106674635D02*
X110579971Y-106735111D01*
X110579971Y-106735111D02*
X110579971Y-106825825D01*
X110579971Y-106825825D02*
X110549733Y-106886301D01*
X110549733Y-106886301D02*
X110519495Y-106916540D01*
X110519495Y-106916540D02*
X110459019Y-106946778D01*
X110459019Y-106946778D02*
X110217114Y-106946778D01*
X111184733Y-107249159D02*
X110821876Y-107249159D01*
X111003304Y-107249159D02*
X111003304Y-106614159D01*
X111003304Y-106614159D02*
X110942828Y-106704873D01*
X110942828Y-106704873D02*
X110882352Y-106765349D01*
X110882352Y-106765349D02*
X110821876Y-106795587D01*
X111396400Y-106614159D02*
X111819733Y-106614159D01*
X111819733Y-106614159D02*
X111547590Y-107249159D01*
X125871682Y-103850214D02*
X125901921Y-103880452D01*
X125901921Y-103880452D02*
X125932159Y-103971166D01*
X125932159Y-103971166D02*
X125932159Y-104031642D01*
X125932159Y-104031642D02*
X125901921Y-104122357D01*
X125901921Y-104122357D02*
X125841444Y-104182833D01*
X125841444Y-104182833D02*
X125780968Y-104213071D01*
X125780968Y-104213071D02*
X125660016Y-104243309D01*
X125660016Y-104243309D02*
X125569301Y-104243309D01*
X125569301Y-104243309D02*
X125448349Y-104213071D01*
X125448349Y-104213071D02*
X125387873Y-104182833D01*
X125387873Y-104182833D02*
X125327397Y-104122357D01*
X125327397Y-104122357D02*
X125297159Y-104031642D01*
X125297159Y-104031642D02*
X125297159Y-103971166D01*
X125297159Y-103971166D02*
X125327397Y-103880452D01*
X125327397Y-103880452D02*
X125357635Y-103850214D01*
X125297159Y-103638547D02*
X125297159Y-103245452D01*
X125297159Y-103245452D02*
X125539063Y-103457119D01*
X125539063Y-103457119D02*
X125539063Y-103366404D01*
X125539063Y-103366404D02*
X125569301Y-103305928D01*
X125569301Y-103305928D02*
X125599540Y-103275690D01*
X125599540Y-103275690D02*
X125660016Y-103245452D01*
X125660016Y-103245452D02*
X125811206Y-103245452D01*
X125811206Y-103245452D02*
X125871682Y-103275690D01*
X125871682Y-103275690D02*
X125901921Y-103305928D01*
X125901921Y-103305928D02*
X125932159Y-103366404D01*
X125932159Y-103366404D02*
X125932159Y-103547833D01*
X125932159Y-103547833D02*
X125901921Y-103608309D01*
X125901921Y-103608309D02*
X125871682Y-103638547D01*
X125932159Y-102640690D02*
X125932159Y-103003547D01*
X125932159Y-102822119D02*
X125297159Y-102822119D01*
X125297159Y-102822119D02*
X125387873Y-102882595D01*
X125387873Y-102882595D02*
X125448349Y-102943071D01*
X125448349Y-102943071D02*
X125478587Y-103003547D01*
%TO.C,J2*%
D13*
X127050000Y-110562000D02*
X129030000Y-109162000D01*
X127050000Y-111862000D02*
X127050000Y-110562000D01*
X128955000Y-112482001D02*
X128955000Y-111847000D01*
X129030000Y-109162000D02*
X136609999Y-109162000D01*
X129030000Y-113262000D02*
X127050000Y-111862000D01*
X129590000Y-112482000D02*
X128955000Y-112482001D01*
X136609999Y-109162000D02*
X137210000Y-109762000D01*
X136609999Y-113262000D02*
X129030000Y-113262000D01*
X136609999Y-113262000D02*
X137210000Y-112662000D01*
X137210000Y-109762000D02*
X137210000Y-112662000D01*
%TO.C,L2*%
X119547221Y-106703400D02*
X119872779Y-106703400D01*
X119547221Y-107723400D02*
X119872779Y-107723400D01*
%TO.C,L1*%
X121400000Y-104703253D02*
X121400000Y-104180747D01*
X123620000Y-104703253D02*
X123620000Y-104180747D01*
%TO.C,R31*%
X133369600Y-107117641D02*
X133369600Y-106810359D01*
X134129600Y-107117641D02*
X134129600Y-106810359D01*
%TO.C,R27*%
X123643642Y-110302000D02*
X123336360Y-110302000D01*
X123643642Y-111062000D02*
X123336360Y-111062000D01*
%TO.C,R15*%
X109820000Y-109415641D02*
X109820000Y-109108359D01*
X110580000Y-109415641D02*
X110580000Y-109108359D01*
%TO.C,C26*%
X136740000Y-101339836D02*
X136740000Y-101124164D01*
X137460000Y-101339836D02*
X137460000Y-101124164D01*
%TO.C,U4*%
X103128401Y-100302000D02*
X103223400Y-100302000D01*
X103128401Y-104422000D02*
X103128401Y-100302000D01*
X103223400Y-104422000D02*
X103128401Y-104422000D01*
X108153400Y-100302000D02*
X108248399Y-100302000D01*
X108248399Y-100302000D02*
X108248399Y-104422000D01*
X108248399Y-104422000D02*
X108153400Y-104422000D01*
X108158400Y-99762000D02*
X108488400Y-99522000D01*
X108488400Y-100002000D01*
X108158400Y-99762000D01*
G36*
X108488400Y-100002000D02*
G01*
X108158400Y-99762000D01*
X108488400Y-99522000D01*
X108488400Y-100002000D01*
G37*
%TO.C,R26*%
X125503642Y-110301999D02*
X125196360Y-110301999D01*
X125503642Y-111061999D02*
X125196360Y-111061999D01*
%TO.C,TP3*%
X122830000Y-94431480D02*
G75*
G02*
X121430000Y-94431480I-700000J0D01*
G01*
X121430000Y-94431480D02*
G75*
G02*
X122830000Y-94431480I700000J0D01*
G01*
%TO.C,R25*%
X131490000Y-106808359D02*
X131490000Y-107115641D01*
X132250000Y-106808359D02*
X132250000Y-107115641D01*
%TO.C,C32*%
X131900000Y-97889836D02*
X131900000Y-97674164D01*
X132620000Y-97889836D02*
X132620000Y-97674164D01*
%TO.C,TP5*%
X125150000Y-94431480D02*
G75*
G02*
X123750000Y-94431480I-700000J0D01*
G01*
X123750000Y-94431480D02*
G75*
G02*
X125150000Y-94431480I700000J0D01*
G01*
%TO.C,C27*%
X135810000Y-101339836D02*
X135810000Y-101124164D01*
X136530000Y-101339836D02*
X136530000Y-101124164D01*
%TO.C,C30*%
X126270000Y-103334164D02*
X126270000Y-103549836D01*
X126990000Y-103334164D02*
X126990000Y-103549836D01*
%TO.C,TP1*%
X109840000Y-95902000D02*
G75*
G02*
X108440000Y-95902000I-700000J0D01*
G01*
X108440000Y-95902000D02*
G75*
G02*
X109840000Y-95902000I700000J0D01*
G01*
%TO.C,R29*%
X132429800Y-107115641D02*
X132429800Y-106808359D01*
X133189800Y-107115641D02*
X133189800Y-106808359D01*
%TO.C,C36*%
X122000800Y-108544164D02*
X122000800Y-108759836D01*
X122720800Y-108544164D02*
X122720800Y-108759836D01*
%TO.C,C29*%
X130682164Y-97892000D02*
X130897836Y-97892000D01*
X130682164Y-98612000D02*
X130897836Y-98612000D01*
%TO.C,C12*%
X115607164Y-107412000D02*
X115822836Y-107412000D01*
X115607164Y-108132000D02*
X115822836Y-108132000D01*
%TO.C,R13*%
X104108559Y-107874800D02*
X104415841Y-107874800D01*
X104108559Y-108634800D02*
X104415841Y-108634800D01*
D14*
%TO.C,kibuzzard-69F3B25A*%
G36*
X107120291Y-95704262D02*
G01*
X107143069Y-95755150D01*
X107130468Y-95807008D01*
X107087819Y-95855958D01*
X107040081Y-95833179D01*
X107009305Y-95811370D01*
X106987011Y-95756120D01*
X107010759Y-95704746D01*
X107065525Y-95687299D01*
X107120291Y-95704262D01*
G37*
G36*
X107087819Y-95961128D02*
G01*
X107129015Y-95985360D01*
X107152278Y-96012016D01*
X107159548Y-96045942D01*
X107133861Y-96095861D01*
X107064556Y-96116701D01*
X106999128Y-96096830D01*
X106971502Y-96038187D01*
X106986042Y-95985360D01*
X107027722Y-95935441D01*
X107087819Y-95961128D01*
G37*
G36*
X106139717Y-95704625D02*
G01*
X106171341Y-95744973D01*
X106185611Y-95786276D01*
X106194173Y-95838457D01*
X106197027Y-95901515D01*
X106194173Y-95965113D01*
X106185611Y-96017617D01*
X106171341Y-96059027D01*
X106139717Y-96099375D01*
X106097189Y-96112524D01*
X106096220Y-96112824D01*
X106053328Y-96099375D01*
X106021583Y-96059027D01*
X106007044Y-96017617D01*
X105998320Y-95965113D01*
X105995412Y-95901515D01*
X105995859Y-95891822D01*
X106042908Y-95891822D01*
X106057447Y-95936895D01*
X106097189Y-95955796D01*
X106135477Y-95936895D01*
X106150501Y-95891822D01*
X106135477Y-95846265D01*
X106097189Y-95826879D01*
X106057447Y-95846265D01*
X106042908Y-95891822D01*
X105995859Y-95891822D01*
X105998320Y-95838457D01*
X106007044Y-95786276D01*
X106021583Y-95744973D01*
X106053328Y-95704625D01*
X106096220Y-95691176D01*
X106139717Y-95704625D01*
G37*
G36*
X107992612Y-95902000D02*
G01*
X107578934Y-96522517D01*
X107271987Y-96522517D01*
X107062617Y-96522517D01*
X106518837Y-96522517D01*
X106096220Y-96522517D01*
X105662940Y-96522517D01*
X105408013Y-96522517D01*
X105101066Y-96522517D01*
X104687388Y-96522517D01*
X105101066Y-95902000D01*
X105099451Y-95899577D01*
X105408013Y-95899577D01*
X105408013Y-95997477D01*
X105560194Y-95997477D01*
X105560194Y-96166136D01*
X105662940Y-96166136D01*
X105662940Y-95997477D01*
X105815121Y-95997477D01*
X105815121Y-95901515D01*
X105887819Y-95901515D01*
X105891151Y-95975910D01*
X105901147Y-96040126D01*
X105917807Y-96094165D01*
X105941131Y-96138026D01*
X105982057Y-96181106D01*
X106033753Y-96206954D01*
X106096220Y-96215570D01*
X106158686Y-96206954D01*
X106210382Y-96181106D01*
X106251309Y-96138026D01*
X106274632Y-96094165D01*
X106291292Y-96040126D01*
X106301288Y-95975910D01*
X106304620Y-95901515D01*
X106301288Y-95827576D01*
X106291292Y-95763753D01*
X106274632Y-95710047D01*
X106251309Y-95666459D01*
X106210382Y-95623648D01*
X106168765Y-95602969D01*
X106351147Y-95602969D01*
X106362294Y-95657250D01*
X106378288Y-95725102D01*
X106391104Y-95775883D01*
X106404997Y-95828710D01*
X106419968Y-95883583D01*
X106435800Y-95939534D01*
X106452278Y-95995592D01*
X106469402Y-96051758D01*
X106494847Y-96131725D01*
X106518837Y-96202969D01*
X106641939Y-96202969D01*
X106660463Y-96151327D01*
X106678557Y-96098500D01*
X106693526Y-96052727D01*
X106860032Y-96052727D01*
X106874572Y-96121063D01*
X106915767Y-96172436D01*
X106979742Y-96204423D01*
X107019120Y-96212784D01*
X107062617Y-96215570D01*
X107116171Y-96211693D01*
X107160517Y-96200061D01*
X107224976Y-96160805D01*
X107260840Y-96107008D01*
X107271987Y-96047880D01*
X107266292Y-96004262D01*
X107249208Y-95964520D01*
X107218312Y-95928171D01*
X107171179Y-95894730D01*
X107208982Y-95864318D01*
X107235153Y-95827363D01*
X107250420Y-95786774D01*
X107255509Y-95745457D01*
X107242787Y-95680998D01*
X107204620Y-95631079D01*
X107144887Y-95599092D01*
X107067464Y-95588430D01*
X107017544Y-95592549D01*
X106976349Y-95604908D01*
X106917221Y-95646588D01*
X106884750Y-95703292D01*
X106874572Y-95763874D01*
X106890081Y-95833664D01*
X106912375Y-95865651D01*
X106948239Y-95895700D01*
X106908740Y-95929019D01*
X106881357Y-95966943D01*
X106865363Y-96008502D01*
X106860032Y-96052727D01*
X106693526Y-96052727D01*
X106696220Y-96044488D01*
X106713183Y-95990207D01*
X106729176Y-95936572D01*
X106744200Y-95883583D01*
X106764798Y-95806402D01*
X106782973Y-95732856D01*
X106798603Y-95664520D01*
X106811567Y-95602969D01*
X106686527Y-95602969D01*
X106677803Y-95653373D01*
X106667141Y-95711532D01*
X106655024Y-95774415D01*
X106641939Y-95838995D01*
X106627884Y-95903939D01*
X106612859Y-95967913D01*
X106597351Y-96027889D01*
X106581842Y-96080837D01*
X106566212Y-96027162D01*
X106550339Y-95966943D01*
X106534830Y-95902969D01*
X106520291Y-95838026D01*
X106506842Y-95773567D01*
X106494604Y-95711047D01*
X106484426Y-95653252D01*
X106477157Y-95602969D01*
X106351147Y-95602969D01*
X106168765Y-95602969D01*
X106158686Y-95597961D01*
X106096220Y-95589399D01*
X106034723Y-95598015D01*
X105983349Y-95623863D01*
X105942100Y-95666943D01*
X105918352Y-95710683D01*
X105901389Y-95764359D01*
X105891212Y-95827969D01*
X105887819Y-95901515D01*
X105815121Y-95901515D01*
X105815121Y-95899577D01*
X105662940Y-95899577D01*
X105662940Y-95730918D01*
X105560194Y-95730918D01*
X105560194Y-95899577D01*
X105408013Y-95899577D01*
X105099451Y-95899577D01*
X104687388Y-95281483D01*
X105101066Y-95281483D01*
X105408013Y-95281483D01*
X107271987Y-95281483D01*
X107578934Y-95281483D01*
X107992612Y-95902000D01*
G37*
%TO.C,J1*%
D13*
X127050000Y-92862000D02*
X129030000Y-91462000D01*
X127050000Y-94162000D02*
X127050000Y-92862000D01*
X128955000Y-94782001D02*
X128955000Y-94147000D01*
X129030000Y-91462000D02*
X136609999Y-91462000D01*
X129030000Y-95562000D02*
X127050000Y-94162000D01*
X129590000Y-94782000D02*
X128955000Y-94782001D01*
X136609999Y-91462000D02*
X137210000Y-92062000D01*
X136609999Y-95562000D02*
X129030000Y-95562000D01*
X136609999Y-95562000D02*
X137210000Y-94962000D01*
X137210000Y-92062000D02*
X137210000Y-94962000D01*
%TO.C,TP4*%
X112160000Y-95902000D02*
G75*
G02*
X110760000Y-95902000I-700000J0D01*
G01*
X110760000Y-95902000D02*
G75*
G02*
X112160000Y-95902000I700000J0D01*
G01*
D14*
%TO.C,kibuzzard-69F3B417*%
G36*
X104704637Y-112734989D02*
G01*
X104738320Y-112751709D01*
X104760129Y-112780304D01*
X104767399Y-112821499D01*
X104740258Y-112888866D01*
X104704637Y-112906677D01*
X104652052Y-112912614D01*
X104625880Y-112912614D01*
X104625880Y-112732323D01*
X104645267Y-112729900D01*
X104661745Y-112729415D01*
X104704637Y-112734989D01*
G37*
G36*
X107573646Y-112932000D02*
G01*
X107160291Y-113552032D01*
X106853344Y-113552032D01*
X106695347Y-113552032D01*
X105969338Y-113552032D01*
X105648498Y-113552032D01*
X105000032Y-113552032D01*
X104928304Y-113552032D01*
X104506656Y-113552032D01*
X104199709Y-113552032D01*
X103786354Y-112932000D01*
X103980215Y-112641208D01*
X104506656Y-112641208D01*
X104506656Y-113232485D01*
X104625880Y-113232485D01*
X104625880Y-113011483D01*
X104687916Y-113011483D01*
X104720751Y-113066370D01*
X104751405Y-113120530D01*
X104779152Y-113175417D01*
X104803263Y-113232485D01*
X104928304Y-113232485D01*
X105000032Y-113232485D01*
X105384847Y-113232485D01*
X105384847Y-113199528D01*
X105462391Y-113199528D01*
X105529273Y-113229092D01*
X105581373Y-113241087D01*
X105648498Y-113245086D01*
X105716511Y-113239970D01*
X105743536Y-113232485D01*
X105969338Y-113232485D01*
X106354152Y-113232485D01*
X106354152Y-113133616D01*
X106088562Y-113133616D01*
X106088562Y-112964956D01*
X106300840Y-112964956D01*
X106300840Y-112866087D01*
X106088562Y-112866087D01*
X106088562Y-112731354D01*
X106332827Y-112731354D01*
X106417157Y-112731354D01*
X106575153Y-112731354D01*
X106575153Y-113232485D01*
X106695347Y-113232485D01*
X106695347Y-112731354D01*
X106853344Y-112731354D01*
X106853344Y-112632485D01*
X106417157Y-112632485D01*
X106417157Y-112731354D01*
X106332827Y-112731354D01*
X106332827Y-112632485D01*
X105969338Y-112632485D01*
X105969338Y-113232485D01*
X105743536Y-113232485D01*
X105771922Y-113224623D01*
X105814733Y-113199044D01*
X105855808Y-113143430D01*
X105869499Y-113068672D01*
X105865380Y-113023478D01*
X105853021Y-112986766D01*
X105810856Y-112932485D01*
X105754637Y-112897590D01*
X105695994Y-112873842D01*
X105658675Y-112859302D01*
X105624750Y-112841370D01*
X105600032Y-112818107D01*
X105590339Y-112787574D01*
X105600894Y-112749340D01*
X105632558Y-112726400D01*
X105685331Y-112718753D01*
X105753667Y-112728446D01*
X105807464Y-112751709D01*
X105842359Y-112659625D01*
X105773053Y-112631515D01*
X105728344Y-112622065D01*
X105676607Y-112618914D01*
X105617211Y-112624192D01*
X105566968Y-112640024D01*
X105525880Y-112666410D01*
X105484806Y-112723115D01*
X105471115Y-112798236D01*
X105486624Y-112869480D01*
X105525880Y-112917460D01*
X105578708Y-112949447D01*
X105634927Y-112971742D01*
X105675638Y-112988704D01*
X105712472Y-113009060D01*
X105739612Y-113034746D01*
X105750275Y-113067703D01*
X105745913Y-113096297D01*
X105729919Y-113121499D01*
X105698417Y-113138947D01*
X105648498Y-113145247D01*
X105600153Y-113141855D01*
X105559806Y-113131677D01*
X105497286Y-113102598D01*
X105462391Y-113199528D01*
X105384847Y-113199528D01*
X105384847Y-113133616D01*
X105119257Y-113133616D01*
X105119257Y-112964956D01*
X105331535Y-112964956D01*
X105331535Y-112866087D01*
X105119257Y-112866087D01*
X105119257Y-112731354D01*
X105363522Y-112731354D01*
X105363522Y-112632485D01*
X105000032Y-112632485D01*
X105000032Y-113232485D01*
X104928304Y-113232485D01*
X104900679Y-113168995D01*
X104867237Y-113102113D01*
X104831373Y-113038139D01*
X104796478Y-112982404D01*
X104838885Y-112955021D01*
X104867237Y-112917460D01*
X104883231Y-112872388D01*
X104888562Y-112822468D01*
X104884564Y-112775336D01*
X104872569Y-112734746D01*
X104826527Y-112673195D01*
X104793570Y-112652113D01*
X104754798Y-112637331D01*
X104710695Y-112628607D01*
X104661745Y-112625700D01*
X104627819Y-112626669D01*
X104587108Y-112629092D01*
X104544943Y-112633939D01*
X104506656Y-112641208D01*
X103980215Y-112641208D01*
X104199709Y-112311968D01*
X104506656Y-112311968D01*
X106853344Y-112311968D01*
X107160291Y-112311968D01*
X107573646Y-112932000D01*
G37*
%TO.C,C34*%
D13*
X126610000Y-108544164D02*
X126610000Y-108759836D01*
X127330000Y-108544164D02*
X127330000Y-108759836D01*
D14*
%TO.C,kibuzzard-6A01F62C*%
G36*
X130565509Y-89293260D02*
G01*
X130581018Y-89353357D01*
X130594103Y-89412969D01*
X130605735Y-89475005D01*
X130488449Y-89475005D01*
X130500565Y-89412969D01*
X130514136Y-89353357D01*
X130529645Y-89293260D01*
X130547577Y-89228801D01*
X130565509Y-89293260D01*
G37*
G36*
X131960932Y-89412000D02*
G01*
X131547577Y-90032032D01*
X131240630Y-90032032D01*
X131062278Y-90032032D01*
X130654200Y-90032032D01*
X130123990Y-90032032D01*
X129548223Y-90032032D01*
X128833845Y-90032032D01*
X128327868Y-90032032D01*
X127459370Y-90032032D01*
X127152423Y-90032032D01*
X126939391Y-89712485D01*
X127459370Y-89712485D01*
X127844184Y-89712485D01*
X127844184Y-89613616D01*
X127578595Y-89613616D01*
X127578595Y-89444956D01*
X127790872Y-89444956D01*
X127790872Y-89346087D01*
X127578595Y-89346087D01*
X127578595Y-89237525D01*
X127929483Y-89237525D01*
X127968255Y-89336394D01*
X128027383Y-89312646D01*
X128089418Y-89278236D01*
X128089418Y-89613616D01*
X127963409Y-89613616D01*
X127963409Y-89712485D01*
X128327868Y-89712485D01*
X128386995Y-89712485D01*
X128508158Y-89712485D01*
X128532149Y-89669108D01*
X128555654Y-89630094D01*
X128580372Y-89592775D01*
X128607997Y-89554488D01*
X128631987Y-89587444D01*
X128657431Y-89624278D01*
X128683603Y-89665716D01*
X128709774Y-89712485D01*
X128833845Y-89712485D01*
X128811982Y-89671774D01*
X129377625Y-89671774D01*
X129446446Y-89709577D01*
X129492246Y-89721208D01*
X129548223Y-89725086D01*
X129602019Y-89720845D01*
X129647092Y-89708123D01*
X129684047Y-89688131D01*
X129713489Y-89662081D01*
X129750323Y-89594229D01*
X129758683Y-89554246D01*
X129761470Y-89511838D01*
X129761470Y-89211354D01*
X129845800Y-89211354D01*
X130003796Y-89211354D01*
X130003796Y-89712485D01*
X130123990Y-89712485D01*
X130314943Y-89712485D01*
X130439015Y-89712485D01*
X130466155Y-89573874D01*
X130626090Y-89573874D01*
X130654200Y-89712485D01*
X130782149Y-89712485D01*
X130766155Y-89644459D01*
X130749968Y-89578410D01*
X130733586Y-89514339D01*
X130717011Y-89452246D01*
X130705785Y-89412000D01*
X130817044Y-89412000D01*
X130821405Y-89484819D01*
X130834491Y-89548187D01*
X130855574Y-89601984D01*
X130883926Y-89646087D01*
X130919184Y-89680498D01*
X130960985Y-89705215D01*
X131008845Y-89720118D01*
X131062278Y-89725086D01*
X131121527Y-89722662D01*
X131171325Y-89715393D01*
X131237722Y-89697945D01*
X131237722Y-89398430D01*
X131118498Y-89398430D01*
X131118498Y-89617493D01*
X131095234Y-89620401D01*
X131071971Y-89621370D01*
X131014055Y-89608648D01*
X130972132Y-89570481D01*
X130953285Y-89530255D01*
X130941976Y-89477428D01*
X130938207Y-89412000D01*
X130940267Y-89367533D01*
X130946446Y-89327186D01*
X130973586Y-89261273D01*
X131021567Y-89218139D01*
X131093296Y-89202630D01*
X131157270Y-89213292D01*
X131209612Y-89237525D01*
X131240630Y-89142533D01*
X131220759Y-89130901D01*
X131187318Y-89116362D01*
X131139338Y-89104246D01*
X131076817Y-89098914D01*
X131024233Y-89103882D01*
X130975040Y-89118785D01*
X130930695Y-89143624D01*
X130892649Y-89178397D01*
X130861389Y-89222864D01*
X130837399Y-89276782D01*
X130822132Y-89339908D01*
X130817044Y-89412000D01*
X130705785Y-89412000D01*
X130700242Y-89392129D01*
X130679130Y-89319219D01*
X130657956Y-89248309D01*
X130636723Y-89179397D01*
X130615428Y-89112485D01*
X130485541Y-89112485D01*
X130465004Y-89178852D01*
X130444103Y-89247097D01*
X130422839Y-89317220D01*
X130401212Y-89389221D01*
X130383803Y-89448834D01*
X130366472Y-89510966D01*
X130349218Y-89575619D01*
X130332042Y-89642792D01*
X130314943Y-89712485D01*
X130123990Y-89712485D01*
X130123990Y-89211354D01*
X130281987Y-89211354D01*
X130281987Y-89112485D01*
X129845800Y-89112485D01*
X129845800Y-89211354D01*
X129761470Y-89211354D01*
X129761470Y-89112485D01*
X129440630Y-89112485D01*
X129440630Y-89211354D01*
X129641276Y-89211354D01*
X129641276Y-89505053D01*
X129634128Y-89561394D01*
X129612682Y-89596653D01*
X129579604Y-89615191D01*
X129537561Y-89621370D01*
X129476979Y-89606830D01*
X129423183Y-89576782D01*
X129377625Y-89671774D01*
X128811982Y-89671774D01*
X128805735Y-89660142D01*
X128768901Y-89599076D01*
X128726252Y-89535586D01*
X128680695Y-89475974D01*
X128828029Y-89256911D01*
X128706866Y-89256911D01*
X128613813Y-89399399D01*
X128513005Y-89256911D01*
X128387964Y-89256911D01*
X128547900Y-89477913D01*
X128503796Y-89535102D01*
X128460178Y-89595683D01*
X128420436Y-89655780D01*
X128386995Y-89712485D01*
X128327868Y-89712485D01*
X128327868Y-89613616D01*
X128208643Y-89613616D01*
X128208643Y-89112485D01*
X128127221Y-89112485D01*
X128085541Y-89150288D01*
X128034168Y-89185183D01*
X127979887Y-89215231D01*
X127929483Y-89237525D01*
X127578595Y-89237525D01*
X127578595Y-89211354D01*
X127822859Y-89211354D01*
X127822859Y-89112485D01*
X127459370Y-89112485D01*
X127459370Y-89712485D01*
X126939391Y-89712485D01*
X126739068Y-89412000D01*
X127152423Y-88791968D01*
X127459370Y-88791968D01*
X131240630Y-88791968D01*
X131547577Y-88791968D01*
X131960932Y-89412000D01*
G37*
%TO.C,TP2*%
D13*
X109840000Y-106712000D02*
G75*
G02*
X108440000Y-106712000I-700000J0D01*
G01*
X108440000Y-106712000D02*
G75*
G02*
X109840000Y-106712000I700000J0D01*
G01*
%TO.C,R28*%
X134309400Y-107115641D02*
X134309400Y-106808359D01*
X135069400Y-107115641D02*
X135069400Y-106808359D01*
%TO.C,R24*%
X126936359Y-101192000D02*
X127243641Y-101192000D01*
X126936359Y-101952000D02*
X127243641Y-101952000D01*
%TO.C,C35*%
X125690000Y-108544164D02*
X125690000Y-108759836D01*
X126410000Y-108544164D02*
X126410000Y-108759836D01*
D14*
%TO.C,kibuzzard-69F3B242*%
G36*
X115062670Y-95674314D02*
G01*
X115090436Y-95687945D01*
X115108308Y-95712481D01*
X115114265Y-95749738D01*
X115108207Y-95789015D01*
X115090032Y-95814763D01*
X115059943Y-95828999D01*
X115018142Y-95833745D01*
X114977754Y-95833745D01*
X114977754Y-95672194D01*
X115002391Y-95670174D01*
X115027027Y-95669771D01*
X115062670Y-95674314D01*
G37*
G36*
X113849321Y-95683906D02*
G01*
X113882439Y-95721467D01*
X113899402Y-95775586D01*
X113904249Y-95838591D01*
X113902734Y-95874233D01*
X113898191Y-95906847D01*
X113877997Y-95960562D01*
X113840840Y-95996103D01*
X113783893Y-96009027D01*
X113775008Y-96009027D01*
X113766123Y-96008220D01*
X113766123Y-95672194D01*
X113780662Y-95670174D01*
X113795202Y-95669771D01*
X113849321Y-95683906D01*
G37*
G36*
X114253199Y-95683906D02*
G01*
X114286317Y-95721467D01*
X114303279Y-95775586D01*
X114308126Y-95838591D01*
X114306611Y-95874233D01*
X114302068Y-95906847D01*
X114281874Y-95960562D01*
X114244717Y-95996103D01*
X114187771Y-96009027D01*
X114178885Y-96009027D01*
X114170000Y-96008220D01*
X114170000Y-95672194D01*
X114184540Y-95670174D01*
X114199079Y-95669771D01*
X114253199Y-95683906D01*
G37*
G36*
X114674039Y-95680271D02*
G01*
X114697868Y-95717428D01*
X114709176Y-95772759D01*
X114711296Y-95805776D01*
X114712003Y-95841015D01*
X114711296Y-95876152D01*
X114709176Y-95908866D01*
X114697868Y-95964197D01*
X114673635Y-96001758D01*
X114632843Y-96015489D01*
X114591648Y-96001758D01*
X114567819Y-95964197D01*
X114556511Y-95908866D01*
X114554390Y-95876152D01*
X114553683Y-95841015D01*
X114554390Y-95805877D01*
X114556511Y-95773163D01*
X114567819Y-95717832D01*
X114591648Y-95680271D01*
X114632843Y-95666540D01*
X114674039Y-95680271D01*
G37*
G36*
X115866015Y-95902000D02*
G01*
X116252750Y-96482102D01*
X115866015Y-96482102D01*
X115610226Y-96482102D01*
X115426058Y-96482102D01*
X114977754Y-96482102D01*
X114787932Y-96482102D01*
X114177270Y-96482102D01*
X113773393Y-96482102D01*
X113369515Y-96482102D01*
X113229774Y-96482102D01*
X112973985Y-96482102D01*
X112587250Y-95902000D01*
X112795920Y-95588995D01*
X113229774Y-95588995D01*
X113239063Y-95634229D01*
X113252391Y-95690772D01*
X113263071Y-95733090D01*
X113274649Y-95777112D01*
X113287124Y-95822840D01*
X113300318Y-95869465D01*
X113314050Y-95916181D01*
X113328320Y-95962985D01*
X113349523Y-96029625D01*
X113369515Y-96088995D01*
X113472100Y-96088995D01*
X113487537Y-96045960D01*
X113502615Y-96001937D01*
X113517334Y-95956927D01*
X113531470Y-95911693D01*
X113544798Y-95866997D01*
X113557318Y-95822840D01*
X113574483Y-95758523D01*
X113589628Y-95697234D01*
X113602653Y-95640288D01*
X113612096Y-95595457D01*
X113666769Y-95595457D01*
X113666769Y-96083341D01*
X113721292Y-96092630D01*
X113773393Y-96095457D01*
X113822161Y-96091923D01*
X113866688Y-96081321D01*
X113906167Y-96063046D01*
X113939790Y-96036491D01*
X113967153Y-96001253D01*
X113987851Y-95956927D01*
X114000876Y-95902909D01*
X114005218Y-95838591D01*
X114001280Y-95775687D01*
X113989467Y-95722679D01*
X113970586Y-95678858D01*
X113945444Y-95643519D01*
X113914043Y-95616560D01*
X113876381Y-95597880D01*
X113866845Y-95595457D01*
X114070646Y-95595457D01*
X114070646Y-96083341D01*
X114125170Y-96092630D01*
X114177270Y-96095457D01*
X114226038Y-96091923D01*
X114270565Y-96081321D01*
X114310044Y-96063046D01*
X114343667Y-96036491D01*
X114371030Y-96001253D01*
X114391729Y-95956927D01*
X114404754Y-95902909D01*
X114408931Y-95841015D01*
X114452714Y-95841015D01*
X114456618Y-95909629D01*
X114468331Y-95967922D01*
X114487851Y-96015893D01*
X114514642Y-96053364D01*
X114548164Y-96080155D01*
X114588417Y-96096265D01*
X114607096Y-96146245D01*
X114645363Y-96183099D01*
X114682565Y-96201363D01*
X114730088Y-96215768D01*
X114787932Y-96226313D01*
X114808934Y-96155231D01*
X114755521Y-96144023D01*
X114714830Y-96131402D01*
X114671616Y-96097880D01*
X114713798Y-96083027D01*
X114748801Y-96056775D01*
X114776624Y-96019124D01*
X114796817Y-95970435D01*
X114808934Y-95911065D01*
X114812973Y-95841015D01*
X114810095Y-95780357D01*
X114801462Y-95727626D01*
X114787074Y-95682821D01*
X114766931Y-95645942D01*
X114731569Y-95609369D01*
X114703233Y-95595457D01*
X114878401Y-95595457D01*
X114878401Y-96088995D01*
X114977754Y-96088995D01*
X114977754Y-96061532D01*
X115270969Y-96061532D01*
X115326704Y-96086168D01*
X115370121Y-96096164D01*
X115426058Y-96099496D01*
X115482736Y-96095233D01*
X115528912Y-96082443D01*
X115564588Y-96061128D01*
X115598817Y-96014783D01*
X115610226Y-95952485D01*
X115606793Y-95914823D01*
X115596494Y-95884229D01*
X115561357Y-95838995D01*
X115514507Y-95809916D01*
X115465638Y-95790126D01*
X115434540Y-95778010D01*
X115406268Y-95763066D01*
X115385670Y-95743680D01*
X115377593Y-95718236D01*
X115386388Y-95686374D01*
X115412775Y-95667258D01*
X115456753Y-95660885D01*
X115513700Y-95668963D01*
X115558530Y-95688349D01*
X115587609Y-95611612D01*
X115529855Y-95588187D01*
X115492597Y-95580312D01*
X115449483Y-95577687D01*
X115399986Y-95582084D01*
X115358117Y-95595278D01*
X115323877Y-95617267D01*
X115289649Y-95664520D01*
X115278239Y-95727121D01*
X115291163Y-95786491D01*
X115323877Y-95826475D01*
X115367900Y-95853131D01*
X115414750Y-95871709D01*
X115448675Y-95885845D01*
X115479370Y-95902808D01*
X115501987Y-95924213D01*
X115510872Y-95951677D01*
X115507237Y-95975506D01*
X115493910Y-95996507D01*
X115467658Y-96011047D01*
X115426058Y-96016297D01*
X115385771Y-96013470D01*
X115352149Y-96004989D01*
X115300048Y-95980756D01*
X115270969Y-96061532D01*
X114977754Y-96061532D01*
X114977754Y-95920174D01*
X115013296Y-95920174D01*
X115073025Y-95915732D01*
X115122971Y-95902404D01*
X115163134Y-95880191D01*
X115192527Y-95848015D01*
X115210163Y-95804800D01*
X115216042Y-95750546D01*
X115210208Y-95696830D01*
X115192707Y-95654154D01*
X115163538Y-95622517D01*
X115123778Y-95600752D01*
X115074505Y-95587694D01*
X115015719Y-95583341D01*
X114984216Y-95584149D01*
X114947868Y-95586168D01*
X114911115Y-95589803D01*
X114878401Y-95595457D01*
X114703233Y-95595457D01*
X114686873Y-95587425D01*
X114632843Y-95580110D01*
X114580429Y-95587425D01*
X114536272Y-95609369D01*
X114500372Y-95645942D01*
X114479521Y-95682821D01*
X114464628Y-95727626D01*
X114455693Y-95780357D01*
X114452714Y-95841015D01*
X114408931Y-95841015D01*
X114409095Y-95838591D01*
X114405158Y-95775687D01*
X114393344Y-95722679D01*
X114374463Y-95678858D01*
X114349321Y-95643519D01*
X114317920Y-95616560D01*
X114280258Y-95597880D01*
X114237347Y-95586976D01*
X114190194Y-95583341D01*
X114134459Y-95585764D01*
X114070646Y-95595457D01*
X113866845Y-95595457D01*
X113833469Y-95586976D01*
X113786317Y-95583341D01*
X113730582Y-95585764D01*
X113666769Y-95595457D01*
X113612096Y-95595457D01*
X113613457Y-95588995D01*
X113509257Y-95588995D01*
X113501987Y-95630998D01*
X113493102Y-95679464D01*
X113483005Y-95731867D01*
X113472100Y-95785683D01*
X113460388Y-95839803D01*
X113447868Y-95893115D01*
X113434943Y-95943095D01*
X113422019Y-95987218D01*
X113408994Y-95942489D01*
X113395767Y-95892307D01*
X113382843Y-95838995D01*
X113370727Y-95784876D01*
X113359519Y-95731160D01*
X113349321Y-95679060D01*
X113340840Y-95630897D01*
X113334782Y-95588995D01*
X113229774Y-95588995D01*
X112795920Y-95588995D01*
X112973985Y-95321898D01*
X113229774Y-95321898D01*
X115610226Y-95321898D01*
X115866015Y-95321898D01*
X116252750Y-95321898D01*
X115866015Y-95902000D01*
G37*
%TO.C,U1*%
D11*
X112150000Y-106012000D02*
X112150000Y-99112000D01*
X112150000Y-106012000D02*
X120650000Y-106012000D01*
X120650000Y-98712000D02*
X112550000Y-98712000D01*
X120650000Y-106012000D02*
X120650000Y-98712000D01*
D13*
X112282481Y-98829519D02*
X111782481Y-98829519D01*
X112282481Y-98329519D01*
X112282481Y-98829519D01*
G36*
X112282481Y-98829519D02*
G01*
X111782481Y-98829519D01*
X112282481Y-98329519D01*
X112282481Y-98829519D01*
G37*
%TO.C,R32*%
X106933459Y-97682000D02*
X107240741Y-97682000D01*
X106933459Y-98442000D02*
X107240741Y-98442000D01*
%TO.C,Y1*%
X110750000Y-109192000D02*
X110750000Y-109882000D01*
X110950000Y-108972000D02*
X110950000Y-108642000D01*
X112630000Y-107702000D02*
X111990000Y-107702000D01*
X112630000Y-109922000D02*
X111990000Y-109922000D01*
X113670000Y-108982000D02*
X113670000Y-108642000D01*
X110750000Y-109192000D02*
G75*
G02*
X110950000Y-108971999I320002J-90001D01*
G01*
%TO.C,R16*%
X111773641Y-110290000D02*
X111466359Y-110290000D01*
X111773641Y-111050000D02*
X111466359Y-111050000D01*
%TO.C,U3*%
X123631999Y-109227000D02*
X123632000Y-108309500D01*
X123864499Y-108077001D02*
X124781999Y-108077000D01*
X124781999Y-108077000D02*
X124781999Y-109227000D01*
X124781999Y-109227000D02*
X123631999Y-109227000D01*
X123631999Y-108077000D02*
X123131999Y-108077000D01*
X123631999Y-107577000D01*
X123631999Y-108077000D01*
G36*
X123631999Y-108077000D02*
G01*
X123131999Y-108077000D01*
X123631999Y-107577000D01*
X123631999Y-108077000D01*
G37*
D14*
%TO.C,kibuzzard-69F3B503*%
G36*
X124381745Y-97076216D02*
G01*
X124398304Y-97133567D01*
X124398304Y-97172339D01*
X124283603Y-97172339D01*
X124281179Y-97150530D01*
X124280372Y-97127105D01*
X124282391Y-97100449D01*
X124290468Y-97077832D01*
X124307431Y-97062485D01*
X124336107Y-97056830D01*
X124381745Y-97076216D01*
G37*
G36*
X124584491Y-97042291D02*
G01*
X124606300Y-97062889D01*
X124616801Y-97091564D01*
X124619628Y-97124682D01*
X124618821Y-97149318D01*
X124616397Y-97172339D01*
X124480695Y-97172339D01*
X124480695Y-97119027D01*
X124496446Y-97057234D01*
X124548546Y-97034213D01*
X124584491Y-97042291D01*
G37*
G36*
X124484834Y-98651237D02*
G01*
X124517447Y-98655780D01*
X124571163Y-98675974D01*
X124606704Y-98713131D01*
X124619628Y-98770078D01*
X124619628Y-98778963D01*
X124618821Y-98787848D01*
X124282795Y-98787848D01*
X124280775Y-98773309D01*
X124280372Y-98758769D01*
X124294507Y-98704649D01*
X124332068Y-98671532D01*
X124386187Y-98654569D01*
X124449192Y-98649722D01*
X124484834Y-98651237D01*
G37*
G36*
X124961847Y-96526136D02*
G01*
X124961847Y-97132759D01*
X124961847Y-97871047D01*
X124961847Y-98476055D01*
X124961847Y-98780578D01*
X124961847Y-98887202D01*
X124961847Y-99142991D01*
X124961847Y-99484222D01*
X124450000Y-99142991D01*
X123938153Y-99484222D01*
X123938153Y-99142991D01*
X123938153Y-98887202D01*
X123938153Y-98767654D01*
X124193942Y-98767654D01*
X124196365Y-98823389D01*
X124206058Y-98887202D01*
X124693942Y-98887202D01*
X124703231Y-98832679D01*
X124706058Y-98780578D01*
X124702524Y-98731810D01*
X124691922Y-98687283D01*
X124673647Y-98647804D01*
X124647092Y-98614181D01*
X124611854Y-98586818D01*
X124567528Y-98566120D01*
X124513510Y-98553095D01*
X124449192Y-98548753D01*
X124386288Y-98552691D01*
X124333279Y-98564504D01*
X124289459Y-98583385D01*
X124254120Y-98608527D01*
X124227161Y-98639928D01*
X124208481Y-98677590D01*
X124197577Y-98720502D01*
X124193942Y-98767654D01*
X123938153Y-98767654D01*
X123938153Y-98169916D01*
X124199596Y-98169916D01*
X124199596Y-98476055D01*
X124699596Y-98476055D01*
X124699596Y-98376701D01*
X124485541Y-98376701D01*
X124485541Y-98195764D01*
X124403150Y-98195764D01*
X124403150Y-98376701D01*
X124281987Y-98376701D01*
X124281987Y-98169916D01*
X124199596Y-98169916D01*
X123938153Y-98169916D01*
X123938153Y-97739383D01*
X124199596Y-97739383D01*
X124199596Y-98102872D01*
X124281987Y-98102872D01*
X124281987Y-97971208D01*
X124699596Y-97971208D01*
X124699596Y-97871047D01*
X124281987Y-97871047D01*
X124281987Y-97739383D01*
X124199596Y-97739383D01*
X123938153Y-97739383D01*
X123938153Y-97142452D01*
X124193942Y-97142452D01*
X124197577Y-97209496D01*
X124206058Y-97271693D01*
X124691519Y-97271693D01*
X124697880Y-97236758D01*
X124702423Y-97201418D01*
X124705149Y-97166483D01*
X124706058Y-97132759D01*
X124704140Y-97092876D01*
X124698384Y-97055619D01*
X124688086Y-97022097D01*
X124672536Y-96993422D01*
X124624071Y-96951822D01*
X124590044Y-96940312D01*
X124548546Y-96936475D01*
X124514620Y-96941019D01*
X124482310Y-96954649D01*
X124454039Y-96981002D01*
X124432229Y-97023712D01*
X124388611Y-96977267D01*
X124359128Y-96964242D01*
X124325606Y-96959900D01*
X124278756Y-96967170D01*
X124236349Y-96994633D01*
X124205654Y-97050368D01*
X124196870Y-97091160D01*
X124193942Y-97142452D01*
X123938153Y-97142452D01*
X123938153Y-96556023D01*
X124199596Y-96556023D01*
X124199596Y-96638414D01*
X124242407Y-96652953D01*
X124297738Y-96670724D01*
X124359128Y-96690918D01*
X124420921Y-96711111D01*
X124362763Y-96729690D01*
X124300565Y-96749076D01*
X124243215Y-96767250D01*
X124199596Y-96781386D01*
X124199596Y-96863777D01*
X124254321Y-96869128D01*
X124313489Y-96873874D01*
X124375889Y-96878014D01*
X124440307Y-96881548D01*
X124505937Y-96884678D01*
X124571971Y-96887606D01*
X124636995Y-96890332D01*
X124699596Y-96892856D01*
X124699596Y-96801580D01*
X124311066Y-96805619D01*
X124522698Y-96746653D01*
X124522698Y-96673955D01*
X124311066Y-96612565D01*
X124699596Y-96617412D01*
X124699596Y-96526136D01*
X124635683Y-96527953D01*
X124573183Y-96530174D01*
X124511591Y-96532901D01*
X124450404Y-96536233D01*
X124389116Y-96540271D01*
X124327221Y-96545118D01*
X124264216Y-96550469D01*
X124199596Y-96556023D01*
X123938153Y-96556023D01*
X123938153Y-96236152D01*
X124199596Y-96236152D01*
X124199596Y-96304003D01*
X124231099Y-96338737D01*
X124260178Y-96381548D01*
X124285218Y-96426782D01*
X124303796Y-96468785D01*
X124386187Y-96436475D01*
X124366397Y-96387202D01*
X124337722Y-96335506D01*
X124617205Y-96335506D01*
X124617205Y-96440514D01*
X124699596Y-96440514D01*
X124699596Y-96136798D01*
X124617205Y-96136798D01*
X124617205Y-96236152D01*
X124199596Y-96236152D01*
X123938153Y-96236152D01*
X123938153Y-96136798D01*
X123938153Y-95881009D01*
X124450000Y-95539778D01*
X124961847Y-95881009D01*
X124961847Y-96136798D01*
X124961847Y-96526136D01*
G37*
%TO.C,C33*%
D13*
X127197836Y-100289200D02*
X126982164Y-100289200D01*
X127197836Y-101009200D02*
X126982164Y-101009200D01*
%TO.C,SW1*%
X104038400Y-109090000D02*
X107338400Y-109090000D01*
X104038400Y-109390000D02*
X104038400Y-109090000D01*
X104038400Y-111590000D02*
X104038400Y-111890000D01*
X104038400Y-111890000D02*
X107338400Y-111890000D01*
X107338400Y-109090000D02*
X107338400Y-109390000D01*
X107338400Y-111890000D02*
X107338400Y-111590000D01*
%TO.C,U2*%
X129060000Y-99752000D02*
X129510000Y-99752000D01*
X129060000Y-100202000D02*
X129060000Y-99752000D01*
X129060000Y-104972000D02*
X129060000Y-104522000D01*
X129510000Y-104972000D02*
X129060000Y-104972000D01*
X133830000Y-99752000D02*
X134280000Y-99752000D01*
X134280000Y-99752000D02*
X134280000Y-100202000D01*
X134280000Y-104522000D02*
X134280000Y-104972000D01*
X134280000Y-104972000D02*
X133830000Y-104972000D01*
X129870000Y-105502000D02*
X130110000Y-105832000D01*
X129630000Y-105832000D01*
X129870000Y-105502000D01*
G36*
X130110000Y-105832000D02*
G01*
X129630000Y-105832000D01*
X129870000Y-105502000D01*
X130110000Y-105832000D01*
G37*
D14*
%TO.C,kibuzzard-69F3B219*%
G36*
X116879746Y-110066334D02*
G01*
X116907512Y-110079964D01*
X116925384Y-110104500D01*
X116931341Y-110141758D01*
X116925283Y-110181035D01*
X116907108Y-110206782D01*
X116877019Y-110221019D01*
X116835218Y-110225764D01*
X116794830Y-110225764D01*
X116794830Y-110064213D01*
X116819467Y-110062194D01*
X116844103Y-110061790D01*
X116879746Y-110066334D01*
G37*
G36*
X116087237Y-110069868D02*
G01*
X116111066Y-110107024D01*
X116122375Y-110162355D01*
X116124495Y-110195372D01*
X116125202Y-110230611D01*
X116124495Y-110265748D01*
X116122375Y-110298462D01*
X116111066Y-110353793D01*
X116086834Y-110391354D01*
X116046042Y-110405086D01*
X116004847Y-110391354D01*
X115981018Y-110354197D01*
X115969709Y-110298866D01*
X115967589Y-110265849D01*
X115966882Y-110230611D01*
X115967589Y-110195473D01*
X115969709Y-110162759D01*
X115981018Y-110107428D01*
X116004847Y-110069868D01*
X116046042Y-110056136D01*
X116087237Y-110069868D01*
G37*
G36*
X119275265Y-110292000D02*
G01*
X118889876Y-110870083D01*
X118634087Y-110870083D01*
X118554120Y-110870083D01*
X117914378Y-110870083D01*
X117816640Y-110870083D01*
X117453150Y-110870083D01*
X116794830Y-110870083D01*
X116500000Y-110870083D01*
X116046850Y-110870083D01*
X115865913Y-110870083D01*
X115610124Y-110870083D01*
X115224735Y-110870083D01*
X115395261Y-110614294D01*
X117062197Y-110614294D01*
X117453150Y-110614294D01*
X117453150Y-110527864D01*
X117062197Y-110527864D01*
X117062197Y-110614294D01*
X115395261Y-110614294D01*
X115610124Y-110292000D01*
X115569198Y-110230611D01*
X115865913Y-110230611D01*
X115868816Y-110291268D01*
X115877524Y-110343999D01*
X115892039Y-110388804D01*
X115912359Y-110425683D01*
X115947945Y-110462257D01*
X115992775Y-110484201D01*
X116046850Y-110491515D01*
X116099623Y-110484201D01*
X116143780Y-110462257D01*
X116179321Y-110425683D01*
X116199818Y-110388804D01*
X116214459Y-110343999D01*
X116223243Y-110291268D01*
X116226171Y-110230611D01*
X116223294Y-110169953D01*
X116214661Y-110117222D01*
X116200273Y-110072417D01*
X116195350Y-110063405D01*
X116268174Y-110063405D01*
X116399838Y-110063405D01*
X116399838Y-110481015D01*
X116500000Y-110481015D01*
X116500000Y-110063405D01*
X116631664Y-110063405D01*
X116631664Y-109987477D01*
X116695477Y-109987477D01*
X116695477Y-110481015D01*
X116794830Y-110481015D01*
X116794830Y-110312194D01*
X116830372Y-110312194D01*
X116890101Y-110307751D01*
X116940047Y-110294423D01*
X116980210Y-110272210D01*
X117009603Y-110240034D01*
X117027239Y-110196820D01*
X117033118Y-110142565D01*
X117027284Y-110088850D01*
X117009783Y-110046173D01*
X116980614Y-110014536D01*
X116940854Y-109992772D01*
X116896494Y-109981015D01*
X117478191Y-109981015D01*
X117480008Y-110042707D01*
X117482229Y-110106620D01*
X117484956Y-110171443D01*
X117488288Y-110235861D01*
X117492225Y-110299674D01*
X117496769Y-110362679D01*
X117502019Y-110423563D01*
X117508078Y-110481015D01*
X117590468Y-110481015D01*
X117607431Y-110427905D01*
X117626010Y-110370352D01*
X117644992Y-110312800D01*
X117663166Y-110259690D01*
X117680937Y-110314314D01*
X117698708Y-110371564D01*
X117716478Y-110428208D01*
X117734249Y-110481015D01*
X117816640Y-110481015D01*
X117914378Y-110481015D01*
X118235057Y-110481015D01*
X118304523Y-110481015D01*
X118394184Y-110481015D01*
X118394184Y-110149027D01*
X118424206Y-110204448D01*
X118452881Y-110259780D01*
X118480210Y-110315021D01*
X118506193Y-110370262D01*
X118530829Y-110425594D01*
X118554120Y-110481015D01*
X118634087Y-110481015D01*
X118634087Y-109981015D01*
X118544426Y-109981015D01*
X118544426Y-110288769D01*
X118530190Y-110257267D01*
X118513328Y-110220918D01*
X118494346Y-110181540D01*
X118473748Y-110140950D01*
X118452040Y-110099653D01*
X118429725Y-110058155D01*
X118407108Y-110018070D01*
X118384491Y-109981015D01*
X118304523Y-109981015D01*
X118304523Y-110481015D01*
X118235057Y-110481015D01*
X118235057Y-110398624D01*
X118013732Y-110398624D01*
X118013732Y-110258074D01*
X118190630Y-110258074D01*
X118190630Y-110175683D01*
X118013732Y-110175683D01*
X118013732Y-110063405D01*
X118217286Y-110063405D01*
X118217286Y-109981015D01*
X117914378Y-109981015D01*
X117914378Y-110481015D01*
X117816640Y-110481015D01*
X117821991Y-110423664D01*
X117826737Y-110363082D01*
X117830876Y-110300380D01*
X117834410Y-110236669D01*
X117837439Y-110172250D01*
X117840065Y-110107428D01*
X117842488Y-110043313D01*
X117844911Y-109981015D01*
X117752827Y-109981015D01*
X117753029Y-110029581D01*
X117753635Y-110079964D01*
X117754443Y-110130954D01*
X117755250Y-110181338D01*
X117756058Y-110230914D01*
X117756866Y-110279480D01*
X117757472Y-110326027D01*
X117757674Y-110369544D01*
X117739499Y-110304924D01*
X117722536Y-110245958D01*
X117708401Y-110195877D01*
X117698708Y-110157913D01*
X117626010Y-110157913D01*
X117614701Y-110197493D01*
X117598950Y-110252420D01*
X117581179Y-110313002D01*
X117564620Y-110369544D01*
X117564822Y-110326027D01*
X117565428Y-110279480D01*
X117566236Y-110230813D01*
X117567044Y-110180934D01*
X117567851Y-110130348D01*
X117568659Y-110079561D01*
X117569467Y-110029480D01*
X117570275Y-109981015D01*
X117478191Y-109981015D01*
X116896494Y-109981015D01*
X116891581Y-109979713D01*
X116832795Y-109975360D01*
X116801292Y-109976168D01*
X116764943Y-109978187D01*
X116728191Y-109981822D01*
X116695477Y-109987477D01*
X116631664Y-109987477D01*
X116631664Y-109981015D01*
X116268174Y-109981015D01*
X116268174Y-110063405D01*
X116195350Y-110063405D01*
X116180129Y-110035538D01*
X116144768Y-109998965D01*
X116100072Y-109977021D01*
X116046042Y-109969706D01*
X115993628Y-109977021D01*
X115949470Y-109998965D01*
X115913570Y-110035538D01*
X115892720Y-110072417D01*
X115877827Y-110117222D01*
X115868891Y-110169953D01*
X115865913Y-110230611D01*
X115569198Y-110230611D01*
X115224735Y-109713917D01*
X115610124Y-109713917D01*
X115865913Y-109713917D01*
X118634087Y-109713917D01*
X118889876Y-109713917D01*
X119275265Y-110292000D01*
G37*
%TO.C,R30*%
D13*
X135249200Y-106808359D02*
X135249200Y-107115641D01*
X136009200Y-106808359D02*
X136009200Y-107115641D01*
D14*
%TO.C,kibuzzard-69F3B4A5*%
G36*
X122062553Y-97078640D02*
G01*
X122079111Y-97135990D01*
X122079111Y-97174763D01*
X121964410Y-97174763D01*
X121961987Y-97152953D01*
X121961179Y-97129528D01*
X121963199Y-97102872D01*
X121971276Y-97080255D01*
X121988239Y-97064908D01*
X122016914Y-97059254D01*
X122062553Y-97078640D01*
G37*
G36*
X122265299Y-97044714D02*
G01*
X122287108Y-97065312D01*
X122297609Y-97093987D01*
X122300436Y-97127105D01*
X122299628Y-97151742D01*
X122297205Y-97174763D01*
X122161502Y-97174763D01*
X122161502Y-97121451D01*
X122177254Y-97059658D01*
X122229354Y-97036637D01*
X122265299Y-97044714D01*
G37*
G36*
X122165642Y-98653660D02*
G01*
X122198255Y-98658204D01*
X122251971Y-98678397D01*
X122287512Y-98715554D01*
X122300436Y-98772501D01*
X122300436Y-98781386D01*
X122299628Y-98790271D01*
X121963603Y-98790271D01*
X121961583Y-98775732D01*
X121961179Y-98761192D01*
X121975315Y-98707073D01*
X122012876Y-98673955D01*
X122066995Y-98656992D01*
X122130000Y-98652145D01*
X122165642Y-98653660D01*
G37*
G36*
X122305283Y-96308042D02*
G01*
X122294075Y-96343785D01*
X122260452Y-96370239D01*
X122225943Y-96382355D01*
X122182190Y-96389625D01*
X122129192Y-96392048D01*
X122076643Y-96389625D01*
X122033159Y-96382355D01*
X121998740Y-96370239D01*
X121965117Y-96343785D01*
X121953910Y-96308042D01*
X121954160Y-96307234D01*
X122066995Y-96307234D01*
X122083150Y-96340352D01*
X122121115Y-96352468D01*
X122158675Y-96340352D01*
X122174426Y-96307234D01*
X122158675Y-96275328D01*
X122121115Y-96262808D01*
X122083150Y-96275328D01*
X122066995Y-96307234D01*
X121954160Y-96307234D01*
X121965117Y-96271794D01*
X121998740Y-96245441D01*
X122033159Y-96233549D01*
X122076643Y-96226414D01*
X122129192Y-96224036D01*
X122182190Y-96226414D01*
X122225943Y-96233549D01*
X122260452Y-96245441D01*
X122294075Y-96271794D01*
X122305033Y-96307234D01*
X122305283Y-96308042D01*
G37*
G36*
X122646694Y-96528559D02*
G01*
X122646694Y-97135183D01*
X122646694Y-97873470D01*
X122646694Y-98478478D01*
X122646694Y-98783002D01*
X122646694Y-98889625D01*
X122646694Y-99145414D01*
X122646694Y-99489877D01*
X122130000Y-99145414D01*
X121613306Y-99489877D01*
X121613306Y-99145414D01*
X121613306Y-98889625D01*
X121613306Y-98770078D01*
X121874750Y-98770078D01*
X121877173Y-98825813D01*
X121886866Y-98889625D01*
X122374750Y-98889625D01*
X122384039Y-98835102D01*
X122386866Y-98783002D01*
X122383332Y-98734233D01*
X122372730Y-98689706D01*
X122354455Y-98650227D01*
X122327900Y-98616604D01*
X122292662Y-98589242D01*
X122248336Y-98568543D01*
X122194317Y-98555518D01*
X122130000Y-98551176D01*
X122067096Y-98555114D01*
X122014087Y-98566927D01*
X121970267Y-98585809D01*
X121934927Y-98610950D01*
X121907968Y-98642351D01*
X121889289Y-98680013D01*
X121878384Y-98722925D01*
X121874750Y-98770078D01*
X121613306Y-98770078D01*
X121613306Y-98172339D01*
X121880404Y-98172339D01*
X121880404Y-98478478D01*
X122380404Y-98478478D01*
X122380404Y-98379124D01*
X122166349Y-98379124D01*
X122166349Y-98198187D01*
X122083958Y-98198187D01*
X122083958Y-98379124D01*
X121962795Y-98379124D01*
X121962795Y-98172339D01*
X121880404Y-98172339D01*
X121613306Y-98172339D01*
X121613306Y-97741806D01*
X121880404Y-97741806D01*
X121880404Y-98105296D01*
X121962795Y-98105296D01*
X121962795Y-97973632D01*
X122380404Y-97973632D01*
X122380404Y-97873470D01*
X121962795Y-97873470D01*
X121962795Y-97741806D01*
X121880404Y-97741806D01*
X121613306Y-97741806D01*
X121613306Y-97144876D01*
X121874750Y-97144876D01*
X121878384Y-97211919D01*
X121886866Y-97274116D01*
X122372326Y-97274116D01*
X122378687Y-97239181D01*
X122383231Y-97203842D01*
X122385957Y-97168906D01*
X122386866Y-97135183D01*
X122384947Y-97095300D01*
X122379192Y-97058042D01*
X122368893Y-97024520D01*
X122353344Y-96995845D01*
X122304879Y-96954246D01*
X122270852Y-96942735D01*
X122229354Y-96938898D01*
X122195428Y-96943442D01*
X122163118Y-96957073D01*
X122134847Y-96983426D01*
X122113037Y-97026136D01*
X122069418Y-96979690D01*
X122039935Y-96966665D01*
X122006414Y-96962323D01*
X121959564Y-96969593D01*
X121917157Y-96997057D01*
X121886462Y-97052792D01*
X121877678Y-97093583D01*
X121874750Y-97144876D01*
X121613306Y-97144876D01*
X121613306Y-96558446D01*
X121880404Y-96558446D01*
X121880404Y-96640837D01*
X121923215Y-96655376D01*
X121978546Y-96673147D01*
X122039935Y-96693341D01*
X122101729Y-96713535D01*
X122043570Y-96732113D01*
X121981373Y-96751499D01*
X121924023Y-96769674D01*
X121880404Y-96783809D01*
X121880404Y-96866200D01*
X121935129Y-96871552D01*
X121994297Y-96876297D01*
X122056696Y-96880437D01*
X122121115Y-96883971D01*
X122186745Y-96887101D01*
X122252779Y-96890029D01*
X122317803Y-96892755D01*
X122380404Y-96895279D01*
X122380404Y-96804003D01*
X121991874Y-96808042D01*
X122203506Y-96749076D01*
X122203506Y-96676378D01*
X121991874Y-96614989D01*
X122380404Y-96619835D01*
X122380404Y-96528559D01*
X122316490Y-96530376D01*
X122253990Y-96532598D01*
X122192399Y-96535324D01*
X122131212Y-96538656D01*
X122069923Y-96542695D01*
X122008029Y-96547541D01*
X121945024Y-96552893D01*
X121880404Y-96558446D01*
X121613306Y-96558446D01*
X121613306Y-96308042D01*
X121869095Y-96308042D01*
X121876275Y-96359290D01*
X121897815Y-96402101D01*
X121933716Y-96436475D01*
X121970166Y-96456265D01*
X122014895Y-96470401D01*
X122067904Y-96478882D01*
X122129192Y-96481709D01*
X122191187Y-96478933D01*
X122244701Y-96470603D01*
X122289733Y-96456719D01*
X122326284Y-96437283D01*
X122362185Y-96403178D01*
X122383725Y-96360097D01*
X122390905Y-96308042D01*
X122383725Y-96255987D01*
X122362185Y-96212906D01*
X122326284Y-96178801D01*
X122289733Y-96159365D01*
X122244701Y-96145481D01*
X122191187Y-96137151D01*
X122129192Y-96134375D01*
X122067576Y-96137151D01*
X122014390Y-96145481D01*
X121969636Y-96159365D01*
X121933312Y-96178801D01*
X121897636Y-96212906D01*
X121876230Y-96255987D01*
X121869095Y-96308042D01*
X121613306Y-96308042D01*
X121613306Y-96134375D01*
X121613306Y-95878586D01*
X122130000Y-95534123D01*
X122646694Y-95878586D01*
X122646694Y-96134375D01*
X122646694Y-96308042D01*
X122646694Y-96528559D01*
G37*
%TO.C,TP6*%
D13*
X121100000Y-110292000D02*
G75*
G02*
X119700000Y-110292000I-700000J0D01*
G01*
X119700000Y-110292000D02*
G75*
G02*
X121100000Y-110292000I700000J0D01*
G01*
%TO.C,C37*%
X107221236Y-106572000D02*
X107005564Y-106572000D01*
X107221236Y-107292000D02*
X107005564Y-107292000D01*
%TO.C,C28*%
X130682164Y-96972000D02*
X130897836Y-96972000D01*
X130682164Y-97692000D02*
X130897836Y-97692000D01*
%TO.C,R17*%
X112856359Y-106582000D02*
X113163641Y-106582000D01*
X112856359Y-107342000D02*
X113163641Y-107342000D01*
%TO.C,C31*%
X127190000Y-103334164D02*
X127190000Y-103549836D01*
X127910000Y-103334164D02*
X127910000Y-103549836D01*
D14*
%TO.C,kibuzzard-69F3B40E*%
G36*
X128420921Y-115373066D02*
G01*
X128285218Y-115373066D01*
X128314297Y-115317816D01*
X128348708Y-115262081D01*
X128385057Y-115209254D01*
X128420921Y-115161758D01*
X128420921Y-115373066D01*
G37*
G36*
X131311874Y-115193260D02*
G01*
X131327383Y-115253357D01*
X131340468Y-115312969D01*
X131352100Y-115375005D01*
X131234814Y-115375005D01*
X131246931Y-115312969D01*
X131260501Y-115253357D01*
X131276010Y-115193260D01*
X131293942Y-115128801D01*
X131311874Y-115193260D01*
G37*
G36*
X127933481Y-115114868D02*
G01*
X127966801Y-115131225D01*
X127988247Y-115160667D01*
X127995396Y-115205376D01*
X127988126Y-115252509D01*
X127966317Y-115283405D01*
X127930210Y-115300489D01*
X127880048Y-115306184D01*
X127831583Y-115306184D01*
X127831583Y-115112323D01*
X127861147Y-115109900D01*
X127890711Y-115109415D01*
X127933481Y-115114868D01*
G37*
G36*
X129399798Y-115114141D02*
G01*
X129431422Y-115154488D01*
X129445692Y-115195791D01*
X129454254Y-115247972D01*
X129457108Y-115311031D01*
X129454254Y-115374628D01*
X129445692Y-115427132D01*
X129431422Y-115468543D01*
X129399798Y-115508890D01*
X129357270Y-115522040D01*
X129356300Y-115522339D01*
X129313409Y-115508890D01*
X129281664Y-115468543D01*
X129267124Y-115427132D01*
X129258401Y-115374628D01*
X129255493Y-115311031D01*
X129255940Y-115301338D01*
X129302989Y-115301338D01*
X129317528Y-115346410D01*
X129357270Y-115365312D01*
X129395557Y-115346410D01*
X129410582Y-115301338D01*
X129395557Y-115255780D01*
X129357270Y-115236394D01*
X129317528Y-115255780D01*
X129302989Y-115301338D01*
X129255940Y-115301338D01*
X129258401Y-115247972D01*
X129267124Y-115195791D01*
X129281664Y-115154488D01*
X129313409Y-115114141D01*
X129356300Y-115100691D01*
X129399798Y-115114141D01*
G37*
G36*
X132707297Y-115312000D02*
G01*
X132293942Y-115932032D01*
X131986995Y-115932032D01*
X131808643Y-115932032D01*
X131400565Y-115932032D01*
X130870355Y-115932032D01*
X130294588Y-115932032D01*
X129356300Y-115932032D01*
X128835784Y-115932032D01*
X128540145Y-115932032D01*
X127831583Y-115932032D01*
X127400242Y-115932032D01*
X127153069Y-115932032D01*
X126713005Y-115932032D01*
X126406058Y-115932032D01*
X126193026Y-115612485D01*
X126713005Y-115612485D01*
X126822536Y-115612485D01*
X126817690Y-115146249D01*
X126888449Y-115400207D01*
X126975687Y-115400207D01*
X127049354Y-115146249D01*
X127043538Y-115612485D01*
X127153069Y-115612485D01*
X127152132Y-115579528D01*
X127214136Y-115579528D01*
X127281018Y-115609092D01*
X127333118Y-115621087D01*
X127400242Y-115625086D01*
X127468255Y-115619970D01*
X127523667Y-115604623D01*
X127566478Y-115579044D01*
X127607553Y-115523430D01*
X127621244Y-115448672D01*
X127617124Y-115403478D01*
X127604766Y-115366766D01*
X127562601Y-115312485D01*
X127506381Y-115277590D01*
X127447738Y-115253842D01*
X127410420Y-115239302D01*
X127376494Y-115221370D01*
X127351777Y-115198107D01*
X127342084Y-115167574D01*
X127352639Y-115129340D01*
X127384303Y-115106400D01*
X127437076Y-115098753D01*
X127505412Y-115108446D01*
X127559208Y-115131709D01*
X127594103Y-115039625D01*
X127546307Y-115020239D01*
X127712359Y-115020239D01*
X127712359Y-115612485D01*
X127831583Y-115612485D01*
X127831583Y-115409900D01*
X127874233Y-115409900D01*
X127945907Y-115404569D01*
X128005843Y-115388575D01*
X128014605Y-115383729D01*
X128170840Y-115383729D01*
X128170840Y-115470966D01*
X128420921Y-115470966D01*
X128420921Y-115612485D01*
X128540145Y-115612485D01*
X128540145Y-115592129D01*
X128669063Y-115592129D01*
X128699111Y-115602792D01*
X128741276Y-115613454D01*
X128788772Y-115621693D01*
X128835784Y-115625086D01*
X128891761Y-115621572D01*
X128939499Y-115611031D01*
X128979241Y-115594068D01*
X129011228Y-115571289D01*
X129052908Y-115510708D01*
X129066478Y-115434132D01*
X129060057Y-115385425D01*
X129040792Y-115343987D01*
X129010121Y-115311031D01*
X129147900Y-115311031D01*
X129151232Y-115385425D01*
X129161228Y-115449641D01*
X129177888Y-115503680D01*
X129201212Y-115547541D01*
X129242138Y-115590621D01*
X129293834Y-115616470D01*
X129356300Y-115625086D01*
X129418767Y-115616470D01*
X129470463Y-115590621D01*
X129488368Y-115571774D01*
X130123990Y-115571774D01*
X130192811Y-115609577D01*
X130238611Y-115621208D01*
X130294588Y-115625086D01*
X130348384Y-115620845D01*
X130393457Y-115608123D01*
X130430412Y-115588131D01*
X130459855Y-115562081D01*
X130496688Y-115494229D01*
X130505048Y-115454246D01*
X130507835Y-115411838D01*
X130507835Y-115111354D01*
X130592165Y-115111354D01*
X130750162Y-115111354D01*
X130750162Y-115612485D01*
X130870355Y-115612485D01*
X131061309Y-115612485D01*
X131185380Y-115612485D01*
X131212520Y-115473874D01*
X131372456Y-115473874D01*
X131400565Y-115612485D01*
X131528514Y-115612485D01*
X131512520Y-115544459D01*
X131496333Y-115478410D01*
X131479952Y-115414339D01*
X131463376Y-115352246D01*
X131452150Y-115312000D01*
X131563409Y-115312000D01*
X131567771Y-115384819D01*
X131580856Y-115448187D01*
X131601939Y-115501984D01*
X131630291Y-115546087D01*
X131665549Y-115580498D01*
X131707351Y-115605215D01*
X131755210Y-115620118D01*
X131808643Y-115625086D01*
X131867892Y-115622662D01*
X131917690Y-115615393D01*
X131984087Y-115597945D01*
X131984087Y-115298430D01*
X131864863Y-115298430D01*
X131864863Y-115517493D01*
X131841599Y-115520401D01*
X131818336Y-115521370D01*
X131760420Y-115508648D01*
X131718498Y-115470481D01*
X131699650Y-115430255D01*
X131688341Y-115377428D01*
X131684572Y-115312000D01*
X131686632Y-115267533D01*
X131692811Y-115227186D01*
X131719952Y-115161273D01*
X131767932Y-115118139D01*
X131839661Y-115102630D01*
X131903635Y-115113292D01*
X131955977Y-115137525D01*
X131986995Y-115042533D01*
X131967124Y-115030901D01*
X131933683Y-115016362D01*
X131885703Y-115004246D01*
X131823183Y-114998914D01*
X131770598Y-115003882D01*
X131721405Y-115018785D01*
X131677060Y-115043624D01*
X131639015Y-115078397D01*
X131607754Y-115122864D01*
X131583764Y-115176782D01*
X131568498Y-115239908D01*
X131563409Y-115312000D01*
X131452150Y-115312000D01*
X131446607Y-115292129D01*
X131425495Y-115219219D01*
X131404321Y-115148309D01*
X131383088Y-115079397D01*
X131361793Y-115012485D01*
X131231906Y-115012485D01*
X131211369Y-115078852D01*
X131190468Y-115147097D01*
X131169204Y-115217220D01*
X131147577Y-115289221D01*
X131130168Y-115348834D01*
X131112837Y-115410966D01*
X131095583Y-115475619D01*
X131078407Y-115542792D01*
X131061309Y-115612485D01*
X130870355Y-115612485D01*
X130870355Y-115111354D01*
X131028352Y-115111354D01*
X131028352Y-115012485D01*
X130592165Y-115012485D01*
X130592165Y-115111354D01*
X130507835Y-115111354D01*
X130507835Y-115012485D01*
X130186995Y-115012485D01*
X130186995Y-115111354D01*
X130387641Y-115111354D01*
X130387641Y-115405053D01*
X130380493Y-115461394D01*
X130359047Y-115496653D01*
X130325969Y-115515191D01*
X130283926Y-115521370D01*
X130223344Y-115506830D01*
X130169548Y-115476782D01*
X130123990Y-115571774D01*
X129488368Y-115571774D01*
X129511389Y-115547541D01*
X129534713Y-115503680D01*
X129551373Y-115449641D01*
X129561369Y-115385425D01*
X129564701Y-115311031D01*
X129561369Y-115237091D01*
X129551373Y-115173268D01*
X129534713Y-115119563D01*
X129511389Y-115075974D01*
X129470463Y-115033163D01*
X129418767Y-115007477D01*
X129356300Y-114998914D01*
X129294803Y-115007530D01*
X129243430Y-115033379D01*
X129202181Y-115076459D01*
X129178433Y-115120199D01*
X129161470Y-115173874D01*
X129151292Y-115237485D01*
X129147900Y-115311031D01*
X129010121Y-115311031D01*
X129009895Y-115310788D01*
X128968578Y-115286798D01*
X129022859Y-115236394D01*
X129043215Y-115167574D01*
X129031583Y-115100691D01*
X128995719Y-115046895D01*
X128934168Y-115011515D01*
X128893578Y-115002065D01*
X128846446Y-114998914D01*
X128794952Y-115003397D01*
X128749031Y-115016847D01*
X128679725Y-115052226D01*
X128722375Y-115139464D01*
X128780048Y-115111838D01*
X128847415Y-115100691D01*
X128902181Y-115119593D01*
X128922052Y-115171451D01*
X128912843Y-115208284D01*
X128889095Y-115231548D01*
X128856139Y-115244149D01*
X128819305Y-115248026D01*
X128774717Y-115248026D01*
X128774717Y-115346895D01*
X128811551Y-115346895D01*
X128864620Y-115351620D01*
X128907512Y-115365796D01*
X128935864Y-115391847D01*
X128945315Y-115432194D01*
X128920598Y-115497137D01*
X128886793Y-115516766D01*
X128834814Y-115523309D01*
X128788893Y-115520643D01*
X128750000Y-115512646D01*
X128692326Y-115492291D01*
X128669063Y-115592129D01*
X128540145Y-115592129D01*
X128540145Y-115470966D01*
X128605089Y-115470966D01*
X128605089Y-115373066D01*
X128540145Y-115373066D01*
X128540145Y-115012485D01*
X128433522Y-115012485D01*
X128394750Y-115053801D01*
X128355977Y-115100207D01*
X128318174Y-115149520D01*
X128282310Y-115199561D01*
X128248869Y-115249359D01*
X128218336Y-115297945D01*
X128191922Y-115343381D01*
X128170840Y-115383729D01*
X128014605Y-115383729D01*
X128054039Y-115361919D01*
X128089311Y-115323309D01*
X128110474Y-115271451D01*
X128117528Y-115206346D01*
X128110528Y-115141887D01*
X128089526Y-115090675D01*
X128054523Y-115052711D01*
X128006812Y-115026593D01*
X127947684Y-115010923D01*
X127877141Y-115005700D01*
X127839338Y-115006669D01*
X127795719Y-115009092D01*
X127751616Y-115013454D01*
X127712359Y-115020239D01*
X127546307Y-115020239D01*
X127524798Y-115011515D01*
X127480089Y-115002065D01*
X127428352Y-114998914D01*
X127368955Y-115004192D01*
X127318713Y-115020024D01*
X127277625Y-115046410D01*
X127236551Y-115103115D01*
X127222859Y-115178236D01*
X127238368Y-115249480D01*
X127277625Y-115297460D01*
X127330452Y-115329447D01*
X127386672Y-115351742D01*
X127427383Y-115368704D01*
X127464216Y-115389060D01*
X127491357Y-115414746D01*
X127502019Y-115447703D01*
X127497658Y-115476297D01*
X127481664Y-115501499D01*
X127450162Y-115518947D01*
X127400242Y-115525247D01*
X127351898Y-115521855D01*
X127311551Y-115511677D01*
X127249031Y-115482598D01*
X127214136Y-115579528D01*
X127152132Y-115579528D01*
X127150889Y-115535788D01*
X127148223Y-115460788D01*
X127144952Y-115386879D01*
X127140953Y-115313454D01*
X127136107Y-115239908D01*
X127130291Y-115165635D01*
X127123869Y-115090029D01*
X127117205Y-115012485D01*
X127018336Y-115012485D01*
X127000889Y-115063858D01*
X126979564Y-115130255D01*
X126955331Y-115203922D01*
X126931099Y-115278074D01*
X126908805Y-115208284D01*
X126885541Y-115133648D01*
X126863732Y-115064827D01*
X126846769Y-115012485D01*
X126747900Y-115012485D01*
X126741478Y-115078155D01*
X126735784Y-115149157D01*
X126730816Y-115224036D01*
X126726575Y-115301338D01*
X126722819Y-115380094D01*
X126719305Y-115459334D01*
X126716034Y-115537363D01*
X126713005Y-115612485D01*
X126193026Y-115612485D01*
X125992703Y-115312000D01*
X126406058Y-114691968D01*
X126713005Y-114691968D01*
X131986995Y-114691968D01*
X132293942Y-114691968D01*
X132707297Y-115312000D01*
G37*
%TO.C,kibuzzard-69F3B165*%
G36*
X109113748Y-103060477D02*
G01*
X109146462Y-103062598D01*
X109201793Y-103073906D01*
X109239354Y-103098139D01*
X109253086Y-103138931D01*
X109239354Y-103180126D01*
X109202197Y-103203955D01*
X109146866Y-103215263D01*
X109113849Y-103217384D01*
X109078611Y-103218090D01*
X109043473Y-103217384D01*
X109010759Y-103215263D01*
X108955428Y-103203955D01*
X108917868Y-103180126D01*
X108904136Y-103138931D01*
X108917868Y-103097735D01*
X108955024Y-103073906D01*
X109010355Y-103062598D01*
X109043372Y-103060477D01*
X109078611Y-103059771D01*
X109113748Y-103060477D01*
G37*
G36*
X109718083Y-102736669D02*
G01*
X109718083Y-103138123D01*
X109718083Y-103347331D01*
X109718083Y-103865910D01*
X109718083Y-104180934D01*
X109718083Y-104717283D01*
X109718083Y-104934569D01*
X109718083Y-105190358D01*
X109140000Y-105575746D01*
X108561917Y-105190358D01*
X108561917Y-104934569D01*
X108561917Y-104707590D01*
X108817706Y-104707590D01*
X108822048Y-104754944D01*
X108835073Y-104798462D01*
X108856478Y-104837234D01*
X108885961Y-104870352D01*
X108923219Y-104897311D01*
X108967948Y-104917606D01*
X109019847Y-104930328D01*
X109078611Y-104934569D01*
X109137627Y-104931085D01*
X109189475Y-104920635D01*
X109234154Y-104903218D01*
X109271664Y-104878834D01*
X109309359Y-104836112D01*
X109331976Y-104782262D01*
X109339515Y-104717283D01*
X109336789Y-104673159D01*
X109328611Y-104634488D01*
X109304782Y-104577541D01*
X109226430Y-104602582D01*
X109244200Y-104643373D01*
X109253086Y-104707590D01*
X109241676Y-104765243D01*
X109207447Y-104804116D01*
X109172579Y-104820496D01*
X109128826Y-104830323D01*
X109076187Y-104833599D01*
X109030953Y-104830873D01*
X108993796Y-104822695D01*
X108940889Y-104794423D01*
X108912617Y-104754843D01*
X108904136Y-104709205D01*
X108912617Y-104649027D01*
X108933215Y-104604197D01*
X108854055Y-104578349D01*
X108844362Y-104594908D01*
X108832246Y-104621968D01*
X108822149Y-104659528D01*
X108817706Y-104707590D01*
X108561917Y-104707590D01*
X108561917Y-104394989D01*
X108829015Y-104394989D01*
X108829015Y-104495150D01*
X109329015Y-104495150D01*
X109329015Y-104180934D01*
X109246624Y-104180934D01*
X109246624Y-104394989D01*
X108829015Y-104394989D01*
X108561917Y-104394989D01*
X108561917Y-103770595D01*
X108829015Y-103770595D01*
X108829015Y-103882872D01*
X108877480Y-103907105D01*
X108931599Y-103939011D01*
X108986527Y-103975764D01*
X109036607Y-104012921D01*
X108829015Y-104012921D01*
X108829015Y-104112275D01*
X109329015Y-104112275D01*
X109329015Y-104012921D01*
X109100420Y-104012921D01*
X109146058Y-103970514D01*
X109174128Y-103948805D01*
X109204216Y-103928107D01*
X109235719Y-103908821D01*
X109268029Y-103891354D01*
X109329015Y-103865910D01*
X109329015Y-103753632D01*
X109292968Y-103766758D01*
X109255913Y-103783519D01*
X109218756Y-103803208D01*
X109182407Y-103825118D01*
X109147573Y-103848846D01*
X109114960Y-103873987D01*
X109085275Y-103899633D01*
X109059225Y-103924876D01*
X109029540Y-103900340D01*
X108998643Y-103876814D01*
X108967443Y-103854500D01*
X108936850Y-103833599D01*
X108907165Y-103814516D01*
X108878691Y-103797654D01*
X108829015Y-103770595D01*
X108561917Y-103770595D01*
X108561917Y-103347331D01*
X109375864Y-103347331D01*
X109375864Y-103738284D01*
X109462294Y-103738284D01*
X109462294Y-103347331D01*
X109375864Y-103347331D01*
X108561917Y-103347331D01*
X108561917Y-103138931D01*
X108817706Y-103138931D01*
X108825021Y-103191345D01*
X108846965Y-103235502D01*
X108883538Y-103271402D01*
X108920417Y-103292252D01*
X108965222Y-103307145D01*
X109017953Y-103316081D01*
X109078611Y-103319060D01*
X109139268Y-103316157D01*
X109191999Y-103307448D01*
X109236804Y-103292934D01*
X109273683Y-103272614D01*
X109310257Y-103237028D01*
X109332201Y-103192197D01*
X109339515Y-103138123D01*
X109332201Y-103085349D01*
X109310257Y-103041192D01*
X109273683Y-103005651D01*
X109236804Y-102985154D01*
X109191999Y-102970514D01*
X109139268Y-102961729D01*
X109078611Y-102958801D01*
X109017953Y-102961679D01*
X108965222Y-102970312D01*
X108920417Y-102984700D01*
X108883538Y-103004843D01*
X108846965Y-103040205D01*
X108825021Y-103084901D01*
X108817706Y-103138931D01*
X108561917Y-103138931D01*
X108561917Y-102564617D01*
X108829015Y-102564617D01*
X108829015Y-102663971D01*
X109140808Y-102663971D01*
X109193716Y-102667202D01*
X109228449Y-102678511D01*
X109247431Y-102700320D01*
X109253086Y-102735053D01*
X109247431Y-102769787D01*
X109228853Y-102791192D01*
X109194523Y-102802097D01*
X109141616Y-102805328D01*
X108829015Y-102805328D01*
X108829015Y-102905489D01*
X109148078Y-102905489D01*
X109189677Y-102903470D01*
X109227237Y-102897412D01*
X109260153Y-102886507D01*
X109287819Y-102869948D01*
X109326187Y-102817848D01*
X109336183Y-102781196D01*
X109339515Y-102736669D01*
X109336183Y-102691435D01*
X109326187Y-102654278D01*
X109309931Y-102624391D01*
X109287819Y-102600966D01*
X109260153Y-102583801D01*
X109227237Y-102572695D01*
X109189677Y-102566637D01*
X109148078Y-102564617D01*
X108829015Y-102564617D01*
X108561917Y-102564617D01*
X108561917Y-102149431D01*
X108829015Y-102149431D01*
X108829015Y-102512921D01*
X108911405Y-102512921D01*
X108911405Y-102381257D01*
X109329015Y-102381257D01*
X109329015Y-102281095D01*
X108911405Y-102281095D01*
X108911405Y-102149431D01*
X108829015Y-102149431D01*
X108561917Y-102149431D01*
X108561917Y-101893642D01*
X108561917Y-101508254D01*
X109140000Y-101893642D01*
X109718083Y-101508254D01*
X109718083Y-101893642D01*
X109718083Y-102149431D01*
X109718083Y-102281095D01*
X109718083Y-102736669D01*
G37*
%TD*%
%LPC*%
G36*
X100940000Y-82970000D02*
G01*
X102840000Y-82970000D01*
X102840000Y-121750000D01*
X100940000Y-121750000D01*
X100940000Y-82970000D01*
G37*
G36*
X100940000Y-82970000D02*
G01*
X139720000Y-82970000D01*
X139720000Y-84870000D01*
X100940000Y-84870000D01*
X100940000Y-82970000D01*
G37*
G36*
X100940000Y-119850000D02*
G01*
X139720000Y-119850000D01*
X139720000Y-121750000D01*
X100940000Y-121750000D01*
X100940000Y-119850000D01*
G37*
D15*
X102250000Y-85312000D02*
G75*
G02*
X103280000Y-84282000I1030000J0D01*
G01*
X103280000Y-120442000D02*
G75*
G02*
X102250000Y-119412000I0J1030000D01*
G01*
X137380006Y-84279957D02*
G75*
G02*
X138410043Y-85309957I-6J-1030043D01*
G01*
G36*
X137820000Y-82970000D02*
G01*
X139720000Y-82970000D01*
X139720000Y-121750000D01*
X137820000Y-121750000D01*
X137820000Y-82970000D01*
G37*
X138410042Y-119410005D02*
G75*
G02*
X137380042Y-120440042I-1030042J5D01*
G01*
D16*
%TO.C,J2*%
X128320000Y-111212000D03*
X135940000Y-110196000D03*
X135940000Y-112228000D03*
D17*
X129590000Y-111847000D03*
X130860000Y-111847000D03*
X132130000Y-111847000D03*
X133400000Y-111847000D03*
X134670000Y-111847000D03*
X134670000Y-110577000D03*
X133400000Y-110577000D03*
X132130000Y-110577000D03*
X130860000Y-110577000D03*
X129590000Y-110577000D03*
%TD*%
D18*
%TO.C,L2*%
X118922500Y-107213400D03*
X120497500Y-107213400D03*
%TD*%
D19*
%TO.C,L1*%
X122510000Y-105517000D03*
X122510000Y-103367000D03*
%TD*%
D20*
%TO.C,R31*%
X133749600Y-107473999D03*
X133749600Y-106454001D03*
%TD*%
D21*
%TO.C,R27*%
X124000000Y-110682000D03*
X122980002Y-110682000D03*
%TD*%
D20*
%TO.C,R15*%
X110200000Y-109772000D03*
X110200000Y-108752000D03*
%TD*%
D22*
%TO.C,H4*%
X105725000Y-116965000D03*
%TD*%
D23*
%TO.C,C26*%
X137100000Y-101712000D03*
X137100000Y-100752000D03*
%TD*%
D24*
%TO.C,U4*%
X107593400Y-99887000D03*
X106323400Y-99887000D03*
X105053400Y-99887000D03*
X103783400Y-99887000D03*
X103783400Y-104837000D03*
X105053400Y-104837000D03*
X106323400Y-104837000D03*
X107593400Y-104837000D03*
%TD*%
D22*
%TO.C,H1*%
X105725000Y-87755000D03*
%TD*%
D21*
%TO.C,R26*%
X125860000Y-110681999D03*
X124840002Y-110681999D03*
%TD*%
D25*
%TO.C,TP3*%
X122130000Y-94431480D03*
%TD*%
D26*
%TO.C,R25*%
X131870000Y-106452001D03*
X131870000Y-107471999D03*
%TD*%
D23*
%TO.C,C32*%
X132260000Y-98262000D03*
X132260000Y-97302000D03*
%TD*%
D25*
%TO.C,TP5*%
X124450000Y-94431480D03*
%TD*%
D22*
%TO.C,H3*%
X134935000Y-116965000D03*
%TD*%
D23*
%TO.C,C27*%
X136170000Y-101712000D03*
X136170000Y-100752000D03*
%TD*%
D27*
%TO.C,C30*%
X126630000Y-102962000D03*
X126630000Y-103922000D03*
%TD*%
D25*
%TO.C,TP1*%
X109140000Y-95902000D03*
%TD*%
D20*
%TO.C,R29*%
X132809800Y-107471999D03*
X132809800Y-106452001D03*
%TD*%
D27*
%TO.C,C36*%
X122360800Y-108172000D03*
X122360800Y-109132000D03*
%TD*%
D28*
%TO.C,C29*%
X130310000Y-98252000D03*
X131270000Y-98252000D03*
%TD*%
%TO.C,C12*%
X115235000Y-107772000D03*
X116195000Y-107772000D03*
%TD*%
D29*
%TO.C,R13*%
X103752201Y-108254800D03*
X104772199Y-108254800D03*
%TD*%
D16*
%TO.C,J1*%
X128320000Y-93512000D03*
X135940000Y-92496000D03*
X135940000Y-94528000D03*
D17*
X129590000Y-94147000D03*
X130860000Y-94147000D03*
X132130000Y-94147000D03*
X133400000Y-94147000D03*
X134670000Y-94147000D03*
X134670000Y-92877000D03*
X133400000Y-92877000D03*
X132130000Y-92877000D03*
X130860000Y-92877000D03*
X129590000Y-92877000D03*
%TD*%
D25*
%TO.C,TP4*%
X111460000Y-95902000D03*
%TD*%
D27*
%TO.C,C34*%
X126970000Y-108172000D03*
X126970000Y-109132000D03*
%TD*%
D25*
%TO.C,TP2*%
X109140000Y-106712000D03*
%TD*%
D20*
%TO.C,R28*%
X134689400Y-107471999D03*
X134689400Y-106452001D03*
%TD*%
D29*
%TO.C,R24*%
X126580001Y-101572000D03*
X127599999Y-101572000D03*
%TD*%
D27*
%TO.C,C35*%
X126050000Y-108172000D03*
X126050000Y-109132000D03*
%TD*%
D30*
%TO.C,U1*%
X112800000Y-99212000D03*
D31*
X113250000Y-99212000D03*
X113700000Y-99212000D03*
X114150000Y-99212000D03*
X114600000Y-99212000D03*
X115050000Y-99212000D03*
X115500000Y-99212000D03*
X115950000Y-99212000D03*
X116400000Y-99212000D03*
X116850000Y-99212000D03*
X117300000Y-99212000D03*
X117750000Y-99212000D03*
X118200000Y-99212000D03*
X118650000Y-99212000D03*
X119100000Y-99212000D03*
X119550000Y-99212000D03*
D30*
X120000000Y-99212000D03*
D31*
X112800000Y-99662000D03*
D30*
X113250000Y-99662000D03*
D31*
X113700000Y-99662000D03*
X114150000Y-99662000D03*
D30*
X114600000Y-99662000D03*
D31*
X115050000Y-99662000D03*
X115500000Y-99662000D03*
D30*
X115950000Y-99662000D03*
D31*
X116400000Y-99662000D03*
X116850000Y-99662000D03*
D30*
X117300000Y-99662000D03*
D31*
X117750000Y-99662000D03*
D30*
X118200000Y-99662000D03*
D31*
X118650000Y-99662000D03*
X119100000Y-99662000D03*
D30*
X119550000Y-99662000D03*
D31*
X120000000Y-99662000D03*
X112800000Y-100112000D03*
X113250000Y-100112000D03*
X113700000Y-100112000D03*
X114150000Y-100112000D03*
X114600000Y-100112000D03*
X115050000Y-100112000D03*
X115500000Y-100112000D03*
X115950000Y-100112000D03*
X116400000Y-100112000D03*
X116850000Y-100112000D03*
X117300000Y-100112000D03*
X117750000Y-100112000D03*
X118200000Y-100112000D03*
X118650000Y-100112000D03*
X119100000Y-100112000D03*
X119550000Y-100112000D03*
X120000000Y-100112000D03*
X112800000Y-100562000D03*
X113250000Y-100562000D03*
X113700000Y-100562000D03*
X119100000Y-100562000D03*
X119550000Y-100562000D03*
X120000000Y-100562000D03*
D30*
X112800000Y-101012000D03*
X113250000Y-101012000D03*
X113700000Y-101012000D03*
D31*
X114600000Y-101012000D03*
X115050000Y-101012000D03*
D30*
X115500000Y-101012000D03*
X115950000Y-101012000D03*
X116400000Y-101012000D03*
X116850000Y-101012000D03*
X117300000Y-101012000D03*
D31*
X117750000Y-101012000D03*
X118200000Y-101012000D03*
X119100000Y-101012000D03*
D30*
X119550000Y-101012000D03*
D31*
X120000000Y-101012000D03*
X112800000Y-101462000D03*
X113250000Y-101462000D03*
X113700000Y-101462000D03*
X114600000Y-101462000D03*
X115050000Y-101462000D03*
D30*
X115500000Y-101462000D03*
X115950000Y-101462000D03*
X116400000Y-101462000D03*
X116850000Y-101462000D03*
X117300000Y-101462000D03*
D31*
X117750000Y-101462000D03*
X118200000Y-101462000D03*
X119100000Y-101462000D03*
X119550000Y-101462000D03*
X120000000Y-101462000D03*
X112800000Y-101912000D03*
X113250000Y-101912000D03*
X113700000Y-101912000D03*
D30*
X114600000Y-101912000D03*
X115050000Y-101912000D03*
D31*
X115500000Y-101912000D03*
X115950000Y-101912000D03*
X116400000Y-101912000D03*
X116850000Y-101912000D03*
X117300000Y-101912000D03*
D30*
X117750000Y-101912000D03*
X118200000Y-101912000D03*
D31*
X119100000Y-101912000D03*
X119550000Y-101912000D03*
X120000000Y-101912000D03*
X112800000Y-102362000D03*
D30*
X113250000Y-102362000D03*
D31*
X113700000Y-102362000D03*
D30*
X114600000Y-102362000D03*
X115050000Y-102362000D03*
D31*
X115500000Y-102362000D03*
X115950000Y-102362000D03*
X116400000Y-102362000D03*
X116850000Y-102362000D03*
X117300000Y-102362000D03*
D30*
X117750000Y-102362000D03*
X118200000Y-102362000D03*
D31*
X119100000Y-102362000D03*
D30*
X119550000Y-102362000D03*
D31*
X120000000Y-102362000D03*
X112800000Y-102812000D03*
X113250000Y-102812000D03*
X113700000Y-102812000D03*
D30*
X114600000Y-102812000D03*
X115050000Y-102812000D03*
D31*
X115500000Y-102812000D03*
X115950000Y-102812000D03*
X116400000Y-102812000D03*
X116850000Y-102812000D03*
X117300000Y-102812000D03*
D30*
X117750000Y-102812000D03*
X118200000Y-102812000D03*
D31*
X119100000Y-102812000D03*
X119550000Y-102812000D03*
X120000000Y-102812000D03*
X112800000Y-103262000D03*
X113250000Y-103262000D03*
X113700000Y-103262000D03*
X114600000Y-103262000D03*
X115050000Y-103262000D03*
D30*
X115500000Y-103262000D03*
X115950000Y-103262000D03*
X116400000Y-103262000D03*
X116850000Y-103262000D03*
X117300000Y-103262000D03*
X117750000Y-103262000D03*
D31*
X118200000Y-103262000D03*
X119100000Y-103262000D03*
X119550000Y-103262000D03*
X120000000Y-103262000D03*
X112800000Y-103712000D03*
D30*
X113250000Y-103712000D03*
D31*
X113700000Y-103712000D03*
X114600000Y-103712000D03*
X115050000Y-103712000D03*
D30*
X115500000Y-103712000D03*
X115950000Y-103712000D03*
X116400000Y-103712000D03*
X116850000Y-103712000D03*
D31*
X117300000Y-103712000D03*
X117750000Y-103712000D03*
X118200000Y-103712000D03*
D30*
X119100000Y-103712000D03*
X119550000Y-103712000D03*
X120000000Y-103712000D03*
D31*
X112800000Y-104162000D03*
X113250000Y-104162000D03*
X113700000Y-104162000D03*
D30*
X119100000Y-104162000D03*
X119550000Y-104162000D03*
X120000000Y-104162000D03*
D31*
X112800000Y-104612000D03*
X113250000Y-104612000D03*
X113700000Y-104612000D03*
X114150000Y-104612000D03*
X114600000Y-104612000D03*
X115050000Y-104612000D03*
X115500000Y-104612000D03*
X115950000Y-104612000D03*
X116400000Y-104612000D03*
X116850000Y-104612000D03*
X117300000Y-104612000D03*
X117750000Y-104612000D03*
X118200000Y-104612000D03*
D30*
X118650000Y-104612000D03*
X119100000Y-104612000D03*
X119550000Y-104612000D03*
X120000000Y-104612000D03*
D31*
X112800000Y-105062000D03*
D30*
X113250000Y-105062000D03*
D31*
X113700000Y-105062000D03*
D30*
X114150000Y-105062000D03*
D31*
X114600000Y-105062000D03*
D30*
X115050000Y-105062000D03*
D31*
X115500000Y-105062000D03*
D30*
X115950000Y-105062000D03*
D31*
X116400000Y-105062000D03*
D30*
X116850000Y-105062000D03*
D31*
X117300000Y-105062000D03*
X117750000Y-105062000D03*
D30*
X118200000Y-105062000D03*
X118650000Y-105062000D03*
X119100000Y-105062000D03*
D31*
X119550000Y-105062000D03*
X120000000Y-105062000D03*
D30*
X112800000Y-105512000D03*
D31*
X113250000Y-105512000D03*
D30*
X113700000Y-105512000D03*
D31*
X114150000Y-105512000D03*
D30*
X114600000Y-105512000D03*
X115050000Y-105512000D03*
X115500000Y-105512000D03*
D31*
X115950000Y-105512000D03*
X116400000Y-105512000D03*
X116850000Y-105512000D03*
X117300000Y-105512000D03*
X117750000Y-105512000D03*
D30*
X118200000Y-105512000D03*
X118650000Y-105512000D03*
X119100000Y-105512000D03*
D31*
X119550000Y-105512000D03*
X120000000Y-105512000D03*
%TD*%
D29*
%TO.C,R32*%
X106577100Y-98062000D03*
X107597100Y-98062000D03*
%TD*%
D32*
%TO.C,Y1*%
X111385000Y-109537000D03*
X113235000Y-109537000D03*
X113235000Y-108087000D03*
X111385000Y-108087000D03*
%TD*%
D21*
%TO.C,R16*%
X112130000Y-110670000D03*
X111110000Y-110670000D03*
%TD*%
D33*
%TO.C,U3*%
X124006999Y-108452000D03*
X124406999Y-108452000D03*
X124006999Y-108852000D03*
D34*
X124406999Y-108852000D03*
%TD*%
D35*
%TO.C,C33*%
X127570000Y-100649200D03*
X126610000Y-100649200D03*
%TD*%
D36*
%TO.C,SW1*%
X103988400Y-110490000D03*
X107388400Y-110490000D03*
%TD*%
D37*
%TO.C,U2*%
X129870000Y-104799500D03*
X130270000Y-104799500D03*
X130670000Y-104799500D03*
X131070000Y-104799500D03*
X131470000Y-104799500D03*
X131870000Y-104799500D03*
X132270000Y-104799500D03*
X132670000Y-104799500D03*
X133070000Y-104799500D03*
X133470000Y-104799500D03*
D38*
X134107500Y-104162000D03*
X134107500Y-103762000D03*
X134107500Y-103362000D03*
X134107500Y-102962000D03*
X134107500Y-102562000D03*
X134107500Y-102162000D03*
X134107500Y-101762000D03*
X134107500Y-101362000D03*
X134107500Y-100962000D03*
X134107500Y-100562000D03*
D37*
X133470000Y-99924500D03*
X133070000Y-99924500D03*
X132670000Y-99924500D03*
X132270000Y-99924500D03*
X131870000Y-99924500D03*
X131470000Y-99924500D03*
X131070000Y-99924500D03*
X130670000Y-99924500D03*
X130270000Y-99924500D03*
X129870000Y-99924500D03*
D38*
X129232500Y-100562000D03*
X129232500Y-100962000D03*
X129232500Y-101362000D03*
X129232500Y-101762000D03*
X129232500Y-102162000D03*
X129232500Y-102562000D03*
X129232500Y-102962000D03*
X129232500Y-103362000D03*
X129232500Y-103762000D03*
X129232500Y-104162000D03*
D39*
X131670000Y-102362000D03*
%TD*%
D26*
%TO.C,R30*%
X135629200Y-106452001D03*
X135629200Y-107471999D03*
%TD*%
D25*
%TO.C,TP6*%
X120400000Y-110292000D03*
%TD*%
D35*
%TO.C,C37*%
X107593400Y-106932000D03*
X106633400Y-106932000D03*
%TD*%
D40*
%TO.C,C11*%
X115210000Y-106962000D03*
X115850000Y-106962000D03*
%TD*%
D28*
%TO.C,C28*%
X130310000Y-97332000D03*
X131270000Y-97332000D03*
%TD*%
D29*
%TO.C,R17*%
X112500001Y-106962000D03*
X113519999Y-106962000D03*
%TD*%
D27*
%TO.C,C31*%
X127550000Y-102962000D03*
X127550000Y-103922000D03*
%TD*%
D22*
%TO.C,H2*%
X134935000Y-87755000D03*
%TD*%
%LPD*%
M02*
