M48
; DRILL file KiCad 10.0.3 date 2026-05-19T14:39:14
; FORMAT={-:-/ absolute / inch / decimal}
; #@! TF.CreationDate,2026-05-19T14:39:14-04:00
; #@! TF.GenerationSoftware,Kicad,Pcbnew,10.0.3
; #@! TF.FileFunction,Plated,1,6,PTH
FMAT,2
INCH
; #@! TA.AperFunction,Plated,PTH,ViaDrill
T1C0.0059
; #@! TA.AperFunction,Plated,PTH,ViaDrill
T2C0.0100
; #@! TA.AperFunction,Plated,PTH,ViaDrill
T3C0.0120
; #@! TA.AperFunction,Plated,PTH,ComponentDrill
T4C0.1063
%
G90
G05
T1
X4.3523Y-3.8796
X4.3523Y-3.9237
X4.3523Y-3.9591
X4.3523Y-4.0123
X4.3523Y-4.0477
X4.3523Y-4.0831
X4.3523Y-4.1493
X4.3744Y-3.8658
X4.3744Y-3.8934
X4.3744Y-3.9414
X4.3744Y-4.03
X4.3744Y-4.0654
X4.3744Y-4.1009
X4.3744Y-4.1367
X4.3744Y-4.1619
X4.4409Y-3.906
X4.4409Y-3.9946
X4.4409Y-4.154
X4.4587Y-3.9414
X4.4587Y-3.9591
X4.4587Y-3.9946
X4.4587Y-4.0123
X4.4587Y-4.03
X4.4587Y-4.0477
X4.4587Y-4.0654
X4.4587Y-4.0831
X4.4587Y-4.1009
X4.4587Y-4.1186
X4.4587Y-4.154
X4.4764Y-3.9237
X4.4764Y-3.9591
X4.4764Y-3.9946
X4.4764Y-4.0123
X4.4764Y-4.03
X4.4764Y-4.0477
X4.4764Y-4.0654
X4.4764Y-4.0831
X4.4764Y-4.1009
X4.4764Y-4.1363
X4.4764Y-4.154
X4.4941Y-3.9237
X4.4941Y-4.1186
X4.4945Y-4.0441
X4.4984Y-4.0164
X4.5118Y-3.8639
X4.5118Y-3.9237
X4.5118Y-3.9414
X4.5118Y-3.9769
X4.5118Y-3.9946
X4.5118Y-4.0654
X4.5118Y-4.0831
X4.5118Y-4.1186
X4.5118Y-4.1363
X4.5295Y-3.8418
X4.5295Y-3.9237
X4.5295Y-3.9414
X4.5295Y-3.9769
X4.5295Y-3.9946
X4.5295Y-4.0654
X4.5295Y-4.0831
X4.5295Y-4.1186
X4.5385Y-4.1056
X4.5472Y-3.8639
X4.5472Y-3.9414
X4.5472Y-3.9769
X4.5472Y-3.9946
X4.5472Y-4.0123
X4.5472Y-4.03
X4.5472Y-4.0477
X4.5472Y-4.0654
X4.5472Y-4.0831
X4.5472Y-4.1186
X4.5472Y-4.1363
X4.5649Y-3.8418
X4.565Y-3.9237
X4.565Y-3.9414
X4.565Y-3.9769
X4.565Y-3.9946
X4.565Y-4.0123
X4.565Y-4.03
X4.565Y-4.0477
X4.565Y-4.0654
X4.565Y-4.0831
X4.565Y-4.1721
X4.5677Y-4.0981
X4.5826Y-3.8639
X4.5827Y-3.9237
X4.5827Y-3.9414
X4.5827Y-3.9769
X4.5827Y-3.9946
X4.5827Y-4.0123
X4.5827Y-4.03
X4.5827Y-4.0477
X4.5827Y-4.0654
X4.5827Y-4.0831
X4.5827Y-4.1186
X4.5827Y-4.1363
X4.5866Y-4.1835
X4.6004Y-3.8418
X4.6004Y-3.9237
X4.6004Y-3.9414
X4.6004Y-3.9769
X4.6004Y-3.9946
X4.6004Y-4.0123
X4.6004Y-4.03
X4.6004Y-4.0477
X4.6004Y-4.0654
X4.6004Y-4.1186
X4.6004Y-4.1363
X4.6086Y-4.1721
X4.6181Y-3.8639
X4.6181Y-3.9237
X4.6181Y-3.9414
X4.6181Y-3.9769
X4.6181Y-3.9946
X4.6181Y-4.0123
X4.6181Y-4.03
X4.6181Y-4.0477
X4.6181Y-4.0654
X4.6181Y-4.0831
X4.6181Y-4.1186
X4.6181Y-4.1363
X4.6224Y-4.1048
X4.625Y-4.1973
X4.6358Y-3.8418
X4.6358Y-3.9237
X4.6358Y-3.9414
X4.6358Y-3.9769
X4.6358Y-3.9946
X4.6358Y-4.0123
X4.6358Y-4.0477
X4.6358Y-4.0831
X4.6358Y-4.1363
X4.6449Y-4.2284
X4.6535Y-3.8639
X4.6535Y-3.9237
X4.6535Y-3.9414
X4.6535Y-3.9769
X4.6535Y-3.9946
X4.6535Y-4.0123
X4.6535Y-4.0477
X4.6535Y-4.0654
X4.6535Y-4.0831
X4.6712Y-3.8418
X4.6713Y-3.9237
X4.6713Y-3.9414
X4.6889Y-3.8639
X4.689Y-3.9237
X4.689Y-3.9414
X4.689Y-3.9591
X4.689Y-3.9946
X4.689Y-4.0123
X4.689Y-4.03
X4.689Y-4.0477
X4.689Y-4.0654
X4.689Y-4.1186
X4.689Y-4.1363
X4.689Y-4.154
X4.7067Y-3.8418
X4.7067Y-3.9414
X4.7067Y-3.9591
X4.7067Y-3.9769
X4.7067Y-3.9946
X4.7067Y-4.0123
X4.7067Y-4.03
X4.7067Y-4.0477
X4.7067Y-4.0654
X4.7067Y-4.1186
X4.7067Y-4.1363
X4.7067Y-4.154
X4.7244Y-3.906
X4.7244Y-4.0654
X4.7244Y-4.1186
X4.7244Y-4.1363
X4.7244Y-4.154
X4.7421Y-3.8639
X4.7559Y-3.8418
X4.7697Y-3.8639
X4.7917Y-3.967
X4.7917Y-3.9954
X4.811Y-3.9528
X4.811Y-3.9812
X4.811Y-4.0182
T2
X4.094Y-4.35
X4.1248Y-4.2902
X4.186Y-3.9326
X4.236Y-3.9326
X4.2363Y-4.21
X4.2969Y-3.7757
X4.3702Y-4.201
X4.3744Y-4.3571
X4.3852Y-4.2554
X4.3882Y-3.7757
X4.4047Y-4.19
X4.4185Y-4.6862
X4.4547Y-3.5538
X4.4843Y-3.4294
X4.485Y-4.6858
X4.4854Y-4.5239
X4.4925Y-3.5538
X4.5012Y-3.4471
X4.5012Y-4.5794
X4.5134Y-4.5239
X4.5169Y-3.4806
X4.5181Y-3.4294
X4.5181Y-4.6861
X4.5368Y-4.243
X4.5472Y-3.4471
X4.5472Y-3.5538
X4.5476Y-4.6315
X4.5483Y-4.5239
X4.5642Y-3.4294
X4.5642Y-3.5361
X4.5642Y-4.5971
X4.5642Y-4.6861
X4.5807Y-4.6315
X4.5811Y-3.4471
X4.5811Y-3.4806
X4.5811Y-4.5794
X4.6102Y-3.4294
X4.6102Y-3.5361
X4.6114Y-4.6862
X4.6244Y-4.5239
X4.6272Y-3.4471
X4.6272Y-3.5538
X4.6272Y-4.5794
X4.6272Y-4.6311
X4.6437Y-4.6862
X4.6441Y-3.4294
X4.6441Y-3.5361
X4.6492Y-4.5239
X4.6732Y-3.4471
X4.6732Y-3.5538
X4.6732Y-4.5794
X4.6732Y-4.6307
X4.6902Y-3.4294
X4.6902Y-3.5361
X4.6902Y-4.5971
X4.6902Y-4.6862
X4.7059Y-3.4806
X4.7059Y-4.6306
X4.7071Y-3.4471
X4.7071Y-4.5794
X4.7362Y-3.4294
X4.7362Y-3.5361
X4.7362Y-4.6129
X4.7366Y-4.5239
X4.7366Y-4.4335
X4.7402Y-4.2883
X4.7432Y-3.6839
X4.744Y-4.221
X4.7531Y-3.4471
X4.7531Y-3.5538
X4.7531Y-4.5062
X4.7531Y-4.6306
X4.7583Y-4.1849
X4.7697Y-4.5239
X4.7701Y-3.4294
X4.7701Y-3.5361
X4.7701Y-4.6129
X4.7835Y-3.6469
X4.7992Y-3.4471
X4.7992Y-4.6306
X4.7996Y-4.0696
X4.8004Y-3.5763
X4.8161Y-3.4294
X4.8161Y-3.4806
X4.8161Y-4.6129
X4.8173Y-4.2587
X4.8232Y-4.0696
X4.8319Y-3.5361
X4.8331Y-3.4471
X4.8331Y-4.6306
X4.8406Y-3.882
X4.8469Y-4.0696
X4.8472Y-3.9206
X4.8508Y-4.4743
X4.8508Y-4.4991
X4.8508Y-4.5239
X4.8622Y-3.4294
X4.8634Y-3.4807
X4.8634Y-4.6129
X4.8634Y-4.6861
X4.8709Y-3.6469
X4.872Y-3.8997
X4.8791Y-3.4471
X4.8791Y-3.5538
X4.8878Y-3.8465
X4.8937Y-4.6306
X4.8941Y-4.5239
X4.8957Y-3.576
X4.8961Y-3.4294
X4.9039Y-3.9351
X4.9106Y-4.5062
X4.9106Y-4.6129
X4.911Y-3.6839
X4.915Y-4.3576
X4.9197Y-3.8643
X4.9272Y-4.5239
X4.9276Y-4.6306
X4.9472Y-4.452
X4.9551Y-4.3576
X4.9564Y-3.367
X4.9567Y-4.6861
X4.9618Y-4.5239
X4.9626Y-4.2587
X4.9694Y-3.452
X4.9736Y-4.452
X4.9736Y-4.6306
X4.9835Y-3.9989
X4.9854Y-4.0536
X4.9854Y-4.0914
X4.9858Y-4.5239
X4.9898Y-3.7879
X4.9906Y-3.815
X4.9906Y-4.6861
X4.9988Y-4.2587
X5.0Y-4.452
X5.0029Y-3.5966
X5.0044Y-3.452
X5.0236Y-3.9989
X5.0237Y-3.5788
X5.0283Y-4.165
X5.0446Y-3.5966
X5.052Y-3.9731
X5.052Y-4.008
X5.0524Y-4.0339
X5.0646Y-4.165
X5.0689Y-4.3206
X5.078Y-3.7461
X5.078Y-3.7863
X5.0909Y-3.5765
X5.0909Y-3.6166
X5.102Y-3.8965
X5.1059Y-4.165
X5.1122Y-3.8139
X5.115Y-3.7461
X5.1169Y-4.605
X5.1252Y-4.1855
X5.128Y-3.5765
X5.128Y-3.6166
X5.1287Y-3.8965
X5.1429Y-4.165
X5.1505Y-3.9966
X5.1505Y-4.0634
X5.152Y-3.7461
X5.152Y-3.7863
X5.1602Y-4.1855
X5.165Y-3.6166
X5.1673Y-4.4383
X5.1768Y-4.165
X5.1787Y-4.3206
X5.1839Y-4.03
X5.1917Y-4.2312
X5.202Y-3.5765
X5.202Y-3.6166
X5.202Y-4.4383
X5.2173Y-3.9966
X5.2173Y-4.0634
X5.2287Y-4.191
X5.2287Y-4.2312
X5.239Y-3.6166
X5.239Y-3.8965
X5.252Y-3.7461
X5.252Y-3.7863
X5.252Y-4.4383
X5.2646Y-3.8965
X5.2657Y-4.1911
X5.2657Y-4.2313
X5.276Y-3.5765
X5.276Y-3.6166
X5.3016Y-4.3206
X5.302Y-4.4383
X5.3027Y-4.191
X5.3027Y-4.2312
X5.313Y-3.6166
X5.3161Y-4.1162
X5.3165Y-3.9391
X5.3165Y-4.0379
X5.3165Y-4.0769
X5.3343Y-4.0965
X5.3346Y-3.9587
X5.3346Y-4.0178
X5.3346Y-4.0572
X5.3397Y-4.191
X5.3397Y-4.2312
X5.3976Y-3.9666
X5.3976Y-4.0044
T3
X4.0256Y-3.4394
X4.0256Y-3.4984
X4.0256Y-3.5575
X4.0256Y-3.6165
X4.0256Y-3.6756
X4.0256Y-3.7346
X4.0256Y-3.7937
X4.0256Y-3.8528
X4.0256Y-3.9118
X4.0256Y-3.9709
X4.0256Y-4.0299
X4.0256Y-4.089
X4.0256Y-4.148
X4.0256Y-4.2071
X4.0256Y-4.2661
X4.0256Y-4.3252
X4.0256Y-4.3843
X4.0256Y-4.4433
X4.0256Y-4.5024
X4.0256Y-4.5614
X4.0256Y-4.6205
X4.1469Y-3.3181
X4.1469Y-4.7417
X4.1593Y-3.8607
X4.2059Y-3.3181
X4.2059Y-4.7417
X4.265Y-3.3181
X4.265Y-4.7417
X4.324Y-3.3181
X4.324Y-4.7417
X4.3831Y-3.3181
X4.3831Y-4.7417
X4.4421Y-3.3181
X4.4421Y-4.7417
X4.5012Y-3.3181
X4.5012Y-4.7417
X4.5602Y-3.3181
X4.5602Y-4.7417
X4.6193Y-3.3181
X4.6193Y-4.7417
X4.6783Y-3.3181
X4.6783Y-4.7417
X4.7374Y-3.3181
X4.7374Y-4.7417
X4.7965Y-3.3181
X4.7965Y-4.7417
X4.8555Y-3.3181
X4.8555Y-4.7417
X4.9146Y-3.3181
X4.9146Y-4.7417
X4.9736Y-3.3181
X4.9736Y-4.7417
X5.0327Y-3.3181
X5.0327Y-4.7417
X5.0917Y-3.3181
X5.0917Y-4.7417
X5.1508Y-3.3181
X5.1508Y-4.7417
X5.2098Y-3.3181
X5.2098Y-4.7417
X5.2689Y-3.3181
X5.2689Y-4.7417
X5.328Y-3.3181
X5.328Y-4.7417
X5.4492Y-3.4394
X5.4492Y-3.4984
X5.4492Y-3.5575
X5.4492Y-3.6165
X5.4492Y-3.6756
X5.4492Y-3.7346
X5.4492Y-3.7937
X5.4492Y-3.8528
X5.4492Y-3.9118
X5.4492Y-3.9709
X5.4492Y-4.0299
X5.4492Y-4.089
X5.4492Y-4.148
X5.4492Y-4.2071
X5.4492Y-4.2661
X5.4492Y-4.3252
X5.4492Y-4.3843
X5.4492Y-4.4433
X5.4492Y-4.5024
X5.4492Y-4.5614
X5.4492Y-4.6205
T4
X4.1624Y-3.4549
X4.1624Y-4.6049
X5.3124Y-3.4549
X5.3124Y-4.6049
M30
