%TF.GenerationSoftware,KiCad,Pcbnew,10.0.3*%
%TF.CreationDate,2026-05-19T16:31:27-04:00*%
%TF.ProjectId,EfficientStamp,45666669-6369-4656-9e74-5374616d702e,v1.0*%
%TF.SameCoordinates,Original*%
%TF.FileFunction,Copper,L3,Inr*%
%TF.FilePolarity,Positive*%
%FSLAX46Y46*%
G04 Gerber Fmt 4.6, Leading zero omitted, Abs format (unit mm)*
G04 Created by KiCad (PCBNEW 10.0.3) date 2026-05-19 16:31:27*
%MOMM*%
%LPD*%
G01*
G04 APERTURE LIST*
%TA.AperFunction,ComponentPad*%
%ADD10C,4.700000*%
%TD*%
%TA.AperFunction,ViaPad*%
%ADD11C,0.508000*%
%TD*%
%TA.AperFunction,ViaPad*%
%ADD12C,0.609600*%
%TD*%
%TA.AperFunction,ViaPad*%
%ADD13C,0.250000*%
%TD*%
%TA.AperFunction,Conductor*%
%ADD14C,0.152400*%
%TD*%
%TA.AperFunction,Conductor*%
%ADD15C,0.090000*%
%TD*%
G04 APERTURE END LIST*
D10*
%TO.N,GND*%
%TO.C,H4*%
X105725000Y-116965000D03*
%TD*%
%TO.N,GND*%
%TO.C,H1*%
X105725000Y-87755000D03*
%TD*%
%TO.N,GND*%
%TO.C,H3*%
X134935000Y-116965000D03*
%TD*%
%TO.N,GND*%
%TO.C,H2*%
X134935000Y-87755000D03*
%TD*%
D11*
%TO.N,M_TDO*%
X127111800Y-87680800D03*
X132809800Y-106452001D03*
X131250000Y-112732000D03*
%TO.N,M_TDI*%
X133749600Y-106454001D03*
X132130000Y-112732000D03*
X126222800Y-87680800D03*
%TO.N,+1V8_DCDC*%
X126030000Y-114907000D03*
X134689400Y-107471999D03*
X125860000Y-110681999D03*
X126050000Y-108172000D03*
X126630000Y-102962000D03*
X126640000Y-114907000D03*
X126970000Y-108172000D03*
X133749600Y-107473999D03*
X129850000Y-96872000D03*
X126580001Y-101572000D03*
X137100000Y-101712000D03*
X133400000Y-112732000D03*
X132809800Y-107471999D03*
%TO.N,M_TMS*%
X134670000Y-112732000D03*
X134689400Y-106452001D03*
X125892600Y-85521800D03*
%TO.N,M_TCK*%
X135629200Y-106452001D03*
X134660000Y-109742000D03*
X128132500Y-91352500D03*
%TO.N,M_TEST*%
X127602500Y-90902500D03*
X131540000Y-109742000D03*
X128320000Y-100916400D03*
D12*
%TO.N,GND*%
X130830000Y-84280000D03*
X138410000Y-114360000D03*
X112830000Y-84280000D03*
D11*
X137100000Y-100752000D03*
X130821472Y-103210528D03*
D12*
X123330000Y-120440000D03*
D13*
X113700000Y-105512000D03*
X119550000Y-101012000D03*
D12*
X114330000Y-120440000D03*
X102250000Y-117360000D03*
X118830000Y-84280000D03*
X102250000Y-90360000D03*
X138410000Y-88860000D03*
X117330000Y-120440000D03*
X138410000Y-93360000D03*
X102250000Y-112860000D03*
X105330000Y-120440000D03*
X108330000Y-84280000D03*
X106830000Y-120440000D03*
D13*
X115950000Y-101012000D03*
D12*
X138410000Y-90360000D03*
D13*
X117300000Y-101462000D03*
D12*
X102250000Y-94860000D03*
X120330000Y-120440000D03*
X114330000Y-84280000D03*
X102250000Y-103860000D03*
D13*
X116400000Y-103262000D03*
D12*
X138410000Y-100860000D03*
D13*
X116850000Y-103262000D03*
D12*
X102250000Y-88860000D03*
X138410000Y-112860000D03*
X138410000Y-99360000D03*
D11*
X120860000Y-106295999D03*
D13*
X115950000Y-103712000D03*
D12*
X102250000Y-102360000D03*
X126330000Y-120440000D03*
D13*
X115500000Y-101012000D03*
D12*
X135330000Y-120440000D03*
X111330000Y-84280000D03*
D13*
X113250000Y-103712000D03*
D12*
X109830000Y-84280000D03*
X138410000Y-87360000D03*
D13*
X118200000Y-102812000D03*
D12*
X127830000Y-84280000D03*
X129330000Y-84280000D03*
X102250000Y-111360000D03*
D13*
X116850000Y-101012000D03*
D12*
X102250000Y-99360000D03*
X138410000Y-102360000D03*
X105330000Y-84280000D03*
D11*
X132518528Y-103210528D03*
X126630000Y-103922000D03*
D12*
X138410000Y-97860000D03*
X138410000Y-96360000D03*
D11*
X135629200Y-107471999D03*
D12*
X108330000Y-120440000D03*
X126330000Y-84280000D03*
X124830000Y-120440000D03*
D13*
X112800000Y-99212000D03*
X116850000Y-101462000D03*
D12*
X138410000Y-103860000D03*
D11*
X132518528Y-101513472D03*
D13*
X117300000Y-99662000D03*
X119550000Y-102362000D03*
D12*
X102250000Y-87360000D03*
D13*
X115500000Y-103712000D03*
D12*
X138410000Y-117360000D03*
D13*
X115500000Y-101462000D03*
D12*
X130830000Y-120440000D03*
X121830000Y-84280000D03*
D11*
X131670000Y-102362000D03*
D12*
X123330000Y-84280000D03*
D11*
X130821472Y-101513472D03*
D13*
X115950000Y-99662000D03*
D12*
X115830000Y-120440000D03*
X102250000Y-106860000D03*
X133830000Y-120440000D03*
X111330000Y-120440000D03*
X138410000Y-109860000D03*
D13*
X117300000Y-101012000D03*
D12*
X138410000Y-91860000D03*
X102250000Y-114360000D03*
X138410000Y-108360000D03*
X102250000Y-109860000D03*
D13*
X115500000Y-103262000D03*
D12*
X102250000Y-108360000D03*
X132330000Y-120440000D03*
X102250000Y-97860000D03*
X118830000Y-120440000D03*
D13*
X117750000Y-101912000D03*
X117750000Y-102812000D03*
D12*
X117330000Y-84280000D03*
X102250000Y-100860000D03*
D13*
X115950000Y-101462000D03*
X114259000Y-102017000D03*
X116850000Y-105062000D03*
X118200000Y-101912000D03*
X112800000Y-105512000D03*
X117300000Y-103262000D03*
D12*
X138410000Y-115860000D03*
X138410000Y-105360000D03*
X135330000Y-84280000D03*
X138410000Y-106860000D03*
D13*
X116400000Y-103712000D03*
X116019000Y-104092000D03*
X116400000Y-101462000D03*
X116400000Y-101012000D03*
D12*
X120330000Y-84280000D03*
X127830000Y-120440000D03*
X102250000Y-93360000D03*
X133830000Y-84280000D03*
D13*
X114160786Y-102718911D03*
D12*
X115830000Y-84280000D03*
X102250000Y-105360000D03*
X138410000Y-94860000D03*
X138410000Y-111360000D03*
X132330000Y-84280000D03*
X102250000Y-96360000D03*
D13*
X118200000Y-99662000D03*
X120000000Y-99212000D03*
D12*
X106830000Y-84280000D03*
X109830000Y-120440000D03*
X121830000Y-120440000D03*
D13*
X115950000Y-103262000D03*
X113250000Y-102362000D03*
D12*
X102250000Y-115860000D03*
X112830000Y-120440000D03*
X129330000Y-120440000D03*
D13*
X114600000Y-99662000D03*
D12*
X124830000Y-84280000D03*
X102250000Y-91860000D03*
D11*
%TO.N,M_RST_N*%
X127072500Y-91352500D03*
X127599999Y-101572000D03*
X128750000Y-109742000D03*
D13*
%TO.N,+0V8*%
X113250000Y-101462000D03*
X120000000Y-103262000D03*
X118200000Y-103712000D03*
D11*
X109140000Y-95902000D03*
D13*
X112800000Y-101462000D03*
D11*
X115235000Y-107772000D03*
D13*
X119550000Y-103262000D03*
D11*
X120497500Y-107213400D03*
D13*
X118200000Y-103262000D03*
X113700000Y-101462000D03*
%TO.N,+0V55*%
X117300000Y-102362000D03*
X115950000Y-102362000D03*
X116850000Y-102812000D03*
X117300000Y-102812000D03*
D11*
X121910000Y-103367000D03*
D13*
X116850000Y-101912000D03*
X115500000Y-101912000D03*
X115500000Y-102362000D03*
X116850000Y-102362000D03*
X116400000Y-102362000D03*
X115950000Y-101912000D03*
X115500000Y-102812000D03*
X117300000Y-101912000D03*
X115950000Y-102812000D03*
X119100000Y-102812000D03*
D11*
X122510000Y-103367000D03*
X123110000Y-103367000D03*
D13*
X119100000Y-103262000D03*
X116400000Y-101912000D03*
X116400000Y-102812000D03*
D11*
X131870000Y-107471999D03*
%TO.N,E1_POW_EN*%
X133070000Y-98972000D03*
X124840002Y-110681999D03*
%TO.N,EN_CLK_EXT*%
X111110000Y-110670000D03*
D13*
X113700000Y-105062000D03*
%TO.N,+1V8*%
X120000000Y-105512000D03*
X117750000Y-101012000D03*
X120000000Y-105062000D03*
X117750000Y-101462000D03*
D11*
X133070000Y-91861999D03*
D13*
X118200000Y-101462000D03*
D11*
X104770000Y-108972000D03*
X111880000Y-106427200D03*
D13*
X115050000Y-103712000D03*
D11*
X122360000Y-108172000D03*
D13*
X114600000Y-101012000D03*
X114600000Y-103262000D03*
X114600000Y-103712000D03*
X117300000Y-103712000D03*
X116850000Y-104612000D03*
X115050000Y-103262000D03*
D11*
X129920000Y-95152001D03*
X111385000Y-108087000D03*
X134950000Y-91861999D03*
X120477002Y-93572000D03*
X107602100Y-106934000D03*
D13*
X119550000Y-105512000D03*
X118200000Y-101012000D03*
D12*
X105647100Y-98062000D03*
D13*
X114600000Y-101462000D03*
D11*
X124739998Y-93572000D03*
D13*
X115050000Y-101012000D03*
X117750000Y-103712000D03*
D11*
X131190000Y-91861999D03*
D13*
X115050000Y-101462000D03*
X119550000Y-105062000D03*
D11*
%TO.N,DIGIO011_B*%
X121160000Y-117167000D03*
X107593400Y-99887000D03*
D13*
X113250000Y-104612000D03*
D11*
%TO.N,DIGIO013_B*%
X120730000Y-117617000D03*
X106323400Y-99887000D03*
D13*
X113250000Y-104162000D03*
D11*
%TO.N,DIGIO014_B*%
X120309800Y-114907000D03*
D13*
X111109000Y-104162000D03*
D11*
%TO.N,DIGIO012_B*%
X120730000Y-114457000D03*
D13*
X111109000Y-105072000D03*
D11*
%TO.N,DIGIO010_B*%
X121150200Y-114907000D03*
D13*
X110549000Y-105392000D03*
%TO.N,DIGIO015_B*%
X113700000Y-103712000D03*
X111109000Y-105712000D03*
D11*
X120300000Y-117167000D03*
%TO.N,DFT_BOOT_MODE0*%
X121500000Y-92632000D03*
D13*
X119100000Y-100112000D03*
D11*
%TO.N,DFT_BOOT_MODE1*%
X123719999Y-92632000D03*
D13*
X119100000Y-100562000D03*
%TO.N,VSSP18_VDDCONST*%
X119100000Y-105062000D03*
X119100000Y-105512000D03*
D11*
%TO.N,~{E1_RST}*%
X129310000Y-90842001D03*
X120310000Y-112610000D03*
D13*
X114150000Y-104612000D03*
D11*
X123530000Y-117167000D03*
X135490000Y-104052000D03*
X123530000Y-119027000D03*
X103988400Y-110490000D03*
%TO.N,Net-(J1-Pad2)*%
X130860000Y-95152001D03*
%TO.N,Net-(J1-Pad4)*%
X133400000Y-95152001D03*
%TO.N,Net-(J1-Pad6)*%
X134010000Y-91861998D03*
%TO.N,Net-(J1-Pad7)*%
X128980000Y-95152001D03*
%TO.N,Net-(J1-Pad8)*%
X132130000Y-91861999D03*
%TO.N,Net-(J1-Pad9)*%
X130250000Y-91861998D03*
%TO.N,Net-(J1-Pad10)*%
X129310000Y-91861999D03*
%TO.N,VDDQPS_EFUSE*%
X111460000Y-95902000D03*
D13*
X117750000Y-100112000D03*
%TO.N,VSSP18_VDDVAR*%
X119550000Y-104612000D03*
X119100000Y-104612000D03*
X120000000Y-104612000D03*
%TO.N,Net-(U1A-CLK_OUT_O)*%
X113250000Y-105512000D03*
D11*
X111002600Y-106706600D03*
D13*
%TO.N,DIGIO051_B*%
X111109000Y-98892000D03*
D11*
X114760000Y-119027000D03*
D13*
%TO.N,DIGIO053_B*%
X110549000Y-98542000D03*
D11*
X113920000Y-119020000D03*
%TO.N,DIGIO055_B*%
X112230000Y-119030000D03*
D13*
X111109000Y-98192000D03*
D11*
%TO.N,DIGIO061_B*%
X113150000Y-90267000D03*
D13*
X114599000Y-98142000D03*
D11*
%TO.N,DIGIO063_B*%
X114110000Y-90267000D03*
D13*
X115049000Y-97582000D03*
D11*
%TO.N,DIGIO065_B*%
X114730000Y-88407000D03*
D13*
X115499000Y-98142000D03*
%TO.N,DIGIO071_B*%
X115949000Y-97582000D03*
D11*
X115500000Y-90267000D03*
D13*
%TO.N,DIGIO073_B*%
X116399000Y-98142000D03*
D11*
X115930000Y-89817000D03*
%TO.N,DIGIO075_B*%
X116360000Y-88407000D03*
D13*
X116849000Y-97582000D03*
%TO.N,DIGIO081_B*%
X117299000Y-98142000D03*
D11*
X117100000Y-89817000D03*
D13*
%TO.N,DIGIO083_B*%
X117749000Y-97582000D03*
D11*
X117530000Y-90267000D03*
%TO.N,DIGIO091_B*%
X118700000Y-90267000D03*
D13*
X118199000Y-98142000D03*
D11*
%TO.N,DIGIO093_B*%
X119130000Y-89817000D03*
D13*
X118649000Y-97582000D03*
%TO.N,DIGIO095_B*%
X119099000Y-98142000D03*
D11*
X119530000Y-88407000D03*
%TO.N,DIGIO101_B*%
X120300000Y-89817000D03*
D13*
X119549000Y-97582000D03*
%TO.N,DIGIO045_B*%
X110549000Y-99662000D03*
D11*
X130180000Y-106312000D03*
X126760000Y-96902000D03*
X115510000Y-117640000D03*
D13*
%TO.N,DIGIO050_B*%
X113700000Y-99662000D03*
D11*
X114640400Y-114907000D03*
D13*
%TO.N,DIGIO052_B*%
X114150000Y-99662000D03*
D11*
X114330000Y-116317000D03*
D13*
%TO.N,DIGIO060_B*%
X115050000Y-99662000D03*
D11*
X113900000Y-87107000D03*
%TO.N,DIGIO072_B*%
X115930000Y-87107000D03*
D13*
X116400000Y-99662000D03*
D11*
%TO.N,DIGIO080_B*%
X117100000Y-87107000D03*
D13*
X116850000Y-99662000D03*
D11*
%TO.N,DIGIO085_B*%
X117960000Y-89817000D03*
D13*
X117750000Y-99662000D03*
D11*
%TO.N,DIGIO094_B*%
X119560000Y-87557000D03*
D13*
X118650000Y-99662000D03*
D11*
%TO.N,DIGIO100_B*%
X120300000Y-87107000D03*
D13*
X119100000Y-99662000D03*
%TO.N,DIGIO103_B*%
X120450000Y-98142000D03*
D11*
X120730000Y-90267000D03*
%TO.N,DIGIO042_B*%
X115930000Y-116767000D03*
D13*
X111109000Y-100112000D03*
D11*
%TO.N,DIGIO044_B*%
X115526435Y-114906635D03*
X126740000Y-96212000D03*
X130630000Y-105792000D03*
D13*
X113250000Y-100112000D03*
D11*
%TO.N,DIGIO054_B*%
X113930000Y-114907000D03*
D13*
X114600000Y-100112000D03*
D11*
%TO.N,DIGIO062_B*%
X114330000Y-87557000D03*
D13*
X115050000Y-100112000D03*
%TO.N,DIGIO064_B*%
X115500000Y-100112000D03*
D11*
X114760000Y-87107000D03*
%TO.N,DIGIO070_B*%
X115500000Y-87557000D03*
D13*
X115950000Y-100112000D03*
D11*
%TO.N,DIGIO074_B*%
X116360000Y-87557000D03*
D13*
X116400000Y-100112000D03*
%TO.N,DIGIO082_B*%
X116850000Y-100112000D03*
D11*
X117530000Y-87557000D03*
%TO.N,DIGIO084_B*%
X117960000Y-87107000D03*
D13*
X117300000Y-100112000D03*
D11*
%TO.N,DIGIO090_B*%
X118700000Y-87557000D03*
D13*
X118200000Y-100112000D03*
%TO.N,DIGIO092_B*%
X118650000Y-100112000D03*
D11*
X119130000Y-87107000D03*
%TO.N,DIGIO102_B*%
X120730000Y-87557000D03*
D13*
X119550000Y-100112000D03*
%TO.N,DIGIO105_B*%
X120800000Y-97582000D03*
D11*
X121160000Y-89817000D03*
D13*
%TO.N,DIGIO040_B*%
X110549000Y-100562000D03*
D11*
X116360000Y-116317000D03*
%TO.N,DIGIO043_B*%
X115930000Y-119027000D03*
D13*
X113250000Y-100562000D03*
%TO.N,DIGIO041_B*%
X113700000Y-100562000D03*
D11*
X116350000Y-117640000D03*
D13*
%TO.N,DIGIO104_B*%
X119550000Y-100562000D03*
D11*
X121160000Y-87107000D03*
%TO.N,DIGIO111_B*%
X121930000Y-90837000D03*
D13*
X121150000Y-98142000D03*
D11*
%TO.N,DIGIO110_B*%
X121900000Y-87557000D03*
D13*
X122200000Y-100402000D03*
%TO.N,DIGIO114_B*%
X119100000Y-101462000D03*
D11*
X122760000Y-87557000D03*
%TO.N,DIGIO112_B*%
X122330000Y-87107000D03*
D13*
X119550000Y-101462000D03*
D11*
%TO.N,DIGIO113_B*%
X122330000Y-88407000D03*
D13*
X121710000Y-100762000D03*
D11*
%TO.N,DIGIO032_B*%
X117530000Y-116317000D03*
D13*
X110549000Y-101912000D03*
D11*
%TO.N,DIGIO034_B*%
X117460000Y-114907000D03*
D13*
X113250000Y-101912000D03*
%TO.N,DIGIO035_B*%
X113700000Y-101912000D03*
D11*
X117130000Y-119030000D03*
D13*
%TO.N,PRG_SPI_SCK*%
X119100000Y-101912000D03*
D11*
X123930000Y-87557000D03*
X123120000Y-99582000D03*
X135500000Y-103052000D03*
D13*
%TO.N,DIGIO115_B*%
X119550000Y-101912000D03*
D11*
X122730000Y-89817000D03*
D13*
%TO.N,PRG_SPI_CS*%
X122200000Y-101122000D03*
D11*
X135040000Y-102562000D03*
X123930000Y-90267000D03*
X123750000Y-99052000D03*
%TO.N,DIGIO030_B*%
X118090000Y-114907000D03*
D13*
X111109000Y-102362000D03*
D11*
%TO.N,DIGIO033_B*%
X117950000Y-119030000D03*
D13*
X113700000Y-102362000D03*
D11*
%TO.N,PRG_SPI_MOSI*%
X135500000Y-102052000D03*
X122950000Y-98602000D03*
D13*
X119100000Y-102362000D03*
D11*
X124360000Y-87107000D03*
%TO.N,PRG_SPI_MISO*%
X124150000Y-97702000D03*
X124350000Y-90830000D03*
D13*
X121710000Y-101482000D03*
D11*
X135500000Y-100552000D03*
%TO.N,DIGIO024_B*%
X118700000Y-116317000D03*
D13*
X110549000Y-102812000D03*
%TO.N,DIGIO025_B*%
X113250000Y-102812000D03*
D11*
X119130000Y-119030000D03*
D13*
%TO.N,DIGIO031_B*%
X113700000Y-102812000D03*
D11*
X117530000Y-117630000D03*
D13*
%TO.N,E1_AON4*%
X119550000Y-102812000D03*
D11*
X124560000Y-99952000D03*
X135040000Y-103552000D03*
X123530000Y-88410000D03*
%TO.N,E1_AON5*%
X135040000Y-100052000D03*
X123500000Y-87107000D03*
X124960000Y-98152000D03*
D13*
X122200000Y-102062000D03*
D11*
%TO.N,DIGIO022_B*%
X119130000Y-116767000D03*
D13*
X111109000Y-103262000D03*
D11*
%TO.N,DIGIO023_B*%
X118700000Y-117620000D03*
D13*
X113250000Y-103262000D03*
D11*
%TO.N,DIGIO021_B*%
X119530000Y-117617000D03*
D13*
X113700000Y-103262000D03*
%TO.N,DIGIO020_B*%
X110549000Y-103712000D03*
D11*
X119560000Y-116317000D03*
D13*
%TO.N,Net-(U1A-EN_POW_EXT_I)*%
X113700000Y-104162000D03*
D11*
%TO.N,JTAG_TDI*%
X132130000Y-90842001D03*
X129690000Y-105792000D03*
D13*
X114600000Y-104612000D03*
D11*
X129970000Y-116967000D03*
X124309800Y-114907000D03*
%TO.N,JTAG_CTRL*%
X128980000Y-96171999D03*
D13*
X115050000Y-104612000D03*
D11*
X124729000Y-114457000D03*
X128330000Y-102462000D03*
D13*
%TO.N,JTAG_TDO*%
X115500000Y-104612000D03*
D11*
X134010000Y-90842000D03*
X131070000Y-106312000D03*
X125150200Y-114907000D03*
D13*
%TO.N,DIGIO005_B*%
X115279000Y-104282000D03*
D11*
X121900000Y-117617000D03*
%TO.N,DIGIO003_B*%
X122330000Y-117167000D03*
D13*
X116400000Y-104612000D03*
D11*
%TO.N,OTP_WEN*%
X120400000Y-108922000D03*
D13*
X117300000Y-104612000D03*
D11*
%TO.N,BOOT_MODE1*%
X129590000Y-98972000D03*
D13*
X117410000Y-104262000D03*
D11*
X126330000Y-117617000D03*
X127720000Y-105792000D03*
D13*
%TO.N,CLK_REF*%
X114600000Y-105062000D03*
D11*
%TO.N,JTAG_TCK*%
X125660000Y-113080800D03*
X124300000Y-117617000D03*
D13*
X115500000Y-105062000D03*
D11*
X133400000Y-96171999D03*
X135030000Y-104552000D03*
D13*
%TO.N,DIGIO001_B*%
X116400000Y-105062000D03*
D11*
X122760000Y-117617000D03*
D13*
%TO.N,DIGIO002_B*%
X117300000Y-105062000D03*
D11*
X123210000Y-114277000D03*
D13*
%TO.N,BOOT_MODE2*%
X117750000Y-105062000D03*
D11*
X125900000Y-119027000D03*
X128320000Y-101802000D03*
%TO.N,JTAG_TRSTN*%
X130250000Y-90842000D03*
D13*
X115950000Y-105972000D03*
D11*
X126330000Y-113080800D03*
X133720000Y-98972000D03*
X124730000Y-117167000D03*
%TO.N,JTAG_TMS*%
X131490200Y-105792000D03*
X130860000Y-96171999D03*
X125160000Y-117617000D03*
D13*
X116499000Y-106262000D03*
D11*
X127000000Y-113080800D03*
%TO.N,DIGIO004_B*%
X123210000Y-113647000D03*
D13*
X117059000Y-105972000D03*
D11*
%TO.N,DIGIO000_B*%
X123210000Y-114907000D03*
D13*
X117474000Y-106612000D03*
D11*
%TO.N,BOOT_MODE0*%
X128640000Y-105792000D03*
X126760000Y-119027000D03*
D13*
X117980000Y-107402000D03*
D11*
X130270000Y-98972000D03*
%TD*%
%TO.N,M_TDO*%
D14*
X130730000Y-92422000D02*
X131430000Y-93122000D01*
X128320800Y-87680800D02*
X128690000Y-88050000D01*
X130300000Y-90062000D02*
X130730000Y-90492000D01*
X133200000Y-105002000D02*
X132809800Y-105392200D01*
X133200000Y-101372000D02*
X133200000Y-105002000D01*
X128690000Y-89052000D02*
X129700000Y-90062000D01*
X132809800Y-105392200D02*
X132809800Y-106452001D01*
X131430000Y-93122000D02*
X131430000Y-99602000D01*
X127111800Y-87680800D02*
X128320800Y-87680800D01*
X130730000Y-90492000D02*
X130730000Y-92422000D01*
X128690000Y-88050000D02*
X128690000Y-89052000D01*
X129700000Y-90062000D02*
X130300000Y-90062000D01*
X131430000Y-99602000D02*
X133200000Y-101372000D01*
%TO.N,M_TDI*%
X131960000Y-99372000D02*
X133749600Y-101161600D01*
X126730800Y-87172800D02*
X128549400Y-87172800D01*
X130640000Y-89562000D02*
X131350000Y-90272000D01*
X131670000Y-92582000D02*
X131960000Y-92872000D01*
X126222800Y-87680800D02*
X126730800Y-87172800D01*
X131960000Y-92872000D02*
X131960000Y-99372000D01*
X130020000Y-89562000D02*
X130640000Y-89562000D01*
X131350000Y-90272000D02*
X131350000Y-90972000D01*
X129190000Y-88732000D02*
X130020000Y-89562000D01*
X129190000Y-87813400D02*
X129190000Y-88732000D01*
X131350000Y-90972000D02*
X131670000Y-91292000D01*
X133749600Y-101161600D02*
X133749600Y-106454001D01*
X131670000Y-91292000D02*
X131670000Y-92582000D01*
X128549400Y-87172800D02*
X129190000Y-87813400D01*
%TO.N,M_TMS*%
X125892600Y-85521800D02*
X127010200Y-86639400D01*
X131160000Y-89072000D02*
X132610000Y-90522000D01*
X134689400Y-105331400D02*
X134689400Y-106452001D01*
X132610000Y-90522000D02*
X132610000Y-92772000D01*
X130365000Y-89072000D02*
X131160000Y-89072000D01*
X127010200Y-86639400D02*
X128828800Y-86639400D01*
X134330000Y-104972000D02*
X134689400Y-105331400D01*
X129740000Y-87550600D02*
X129740000Y-88447000D01*
X132480000Y-92902000D02*
X132480000Y-99142000D01*
X129740000Y-88447000D02*
X130365000Y-89072000D01*
X134330000Y-100992000D02*
X134330000Y-104972000D01*
X132610000Y-92772000D02*
X132480000Y-92902000D01*
X132480000Y-99142000D02*
X134330000Y-100992000D01*
X128828800Y-86639400D02*
X129740000Y-87550600D01*
%TO.N,M_TCK*%
X130730000Y-104652000D02*
X130270000Y-104192000D01*
X130380000Y-96572000D02*
X130380000Y-94512000D01*
X129800000Y-93932000D02*
X129800000Y-91672000D01*
X135629200Y-106452001D02*
X135119201Y-106962000D01*
X132250000Y-106612000D02*
X132250000Y-105282000D01*
X130380000Y-94512000D02*
X129800000Y-93932000D01*
X135119201Y-106962000D02*
X132600000Y-106962000D01*
X130270000Y-99802000D02*
X130900000Y-99172000D01*
X130900000Y-97092000D02*
X130380000Y-96572000D01*
X128133000Y-91352000D02*
X128132500Y-91352500D01*
X132250000Y-105282000D02*
X131620000Y-104652000D01*
X130900000Y-99172000D02*
X130900000Y-97092000D01*
X129800000Y-91672000D02*
X129480000Y-91352000D01*
X132600000Y-106962000D02*
X132250000Y-106612000D01*
X131620000Y-104652000D02*
X130730000Y-104652000D01*
X129480000Y-91352000D02*
X128133000Y-91352000D01*
X130270000Y-104192000D02*
X130270000Y-99802000D01*
%TO.N,M_TEST*%
X127950000Y-92480000D02*
X128888000Y-92480000D01*
X129310000Y-93962000D02*
X128320000Y-94952000D01*
X127602500Y-90902500D02*
X127602500Y-92132500D01*
X128888000Y-92480000D02*
X129310000Y-92902000D01*
X128320000Y-94952000D02*
X128320000Y-100916400D01*
X127602500Y-92132500D02*
X127950000Y-92480000D01*
X129310000Y-92902000D02*
X129310000Y-93962000D01*
%TO.N,M_RST_N*%
X127599999Y-94551999D02*
X127072500Y-94024500D01*
X127599999Y-101572000D02*
X127599999Y-94551999D01*
X127072500Y-94024500D02*
X127072500Y-91352500D01*
%TO.N,E1_POW_EN*%
X136270000Y-107892000D02*
X136270000Y-100092000D01*
X128310000Y-108392000D02*
X135770000Y-108392000D01*
X125770001Y-109752000D02*
X126950000Y-109752000D01*
X126950000Y-109752000D02*
X128310000Y-108392000D01*
X135770000Y-108392000D02*
X136270000Y-107892000D01*
X133570000Y-99472000D02*
X133070000Y-98972000D01*
X135650000Y-99472000D02*
X133570000Y-99472000D01*
X136270000Y-100092000D02*
X135650000Y-99472000D01*
X124840002Y-110681999D02*
X125770001Y-109752000D01*
%TO.N,DIGIO013_B*%
D15*
X109529000Y-105412000D02*
X110159000Y-104782000D01*
X110159000Y-104782000D02*
X111689000Y-104782000D01*
X119290000Y-115247000D02*
X119290000Y-114542000D01*
X110125800Y-111907800D02*
X109529000Y-111311000D01*
X119290000Y-114542000D02*
X116655800Y-111907800D01*
X119820000Y-116847000D02*
X120020000Y-116647000D01*
X120137000Y-117617000D02*
X119820000Y-117300000D01*
X120020000Y-115977000D02*
X119290000Y-115247000D01*
X111689000Y-104782000D02*
X112309000Y-104162000D01*
X119820000Y-117300000D02*
X119820000Y-116847000D01*
X120020000Y-116647000D02*
X120020000Y-115977000D01*
X120730000Y-117617000D02*
X120137000Y-117617000D01*
X112309000Y-104162000D02*
X113250000Y-104162000D01*
X109529000Y-111311000D02*
X109529000Y-105412000D01*
X116655800Y-111907800D02*
X110125800Y-111907800D01*
%TO.N,DIGIO010_B*%
X119338000Y-113620000D02*
X120680000Y-113620000D01*
X120680000Y-113620000D02*
X121150200Y-114090200D01*
X116945800Y-111227800D02*
X119338000Y-113620000D01*
X110189000Y-105752000D02*
X110189000Y-110991000D01*
X110425800Y-111227800D02*
X116945800Y-111227800D01*
X110189000Y-110991000D02*
X110425800Y-111227800D01*
X110549000Y-105392000D02*
X110189000Y-105752000D01*
X121150200Y-114090200D02*
X121150200Y-114907000D01*
%TO.N,DIGIO015_B*%
X110880000Y-105262000D02*
X110880000Y-105483000D01*
X120390000Y-115822000D02*
X119650000Y-115082000D01*
X113259000Y-105062000D02*
X113999000Y-104322000D01*
X112040000Y-105062000D02*
X113259000Y-105062000D01*
X110880000Y-105483000D02*
X111109000Y-105712000D01*
X110690000Y-105072000D02*
X110880000Y-105262000D01*
X119650000Y-115082000D02*
X119650000Y-114412000D01*
X119650000Y-114412000D02*
X116815800Y-111577800D01*
X120390000Y-117077000D02*
X120390000Y-115822000D01*
X109859000Y-105553000D02*
X110340000Y-105072000D01*
X113999000Y-104322000D02*
X113999000Y-104011000D01*
X110265800Y-111577800D02*
X109859000Y-111171000D01*
X111390000Y-105712000D02*
X112040000Y-105062000D01*
X113999000Y-104011000D02*
X113700000Y-103712000D01*
X109859000Y-111171000D02*
X109859000Y-105553000D01*
X110340000Y-105072000D02*
X110690000Y-105072000D01*
X116815800Y-111577800D02*
X110265800Y-111577800D01*
X120300000Y-117167000D02*
X120390000Y-117077000D01*
X111109000Y-105712000D02*
X111390000Y-105712000D01*
%TO.N,DIGIO061_B*%
X114430000Y-93232000D02*
X114430000Y-97973000D01*
X114430000Y-97973000D02*
X114599000Y-98142000D01*
X113150000Y-90267000D02*
X113150000Y-91952000D01*
X113150000Y-91952000D02*
X114430000Y-93232000D01*
%TO.N,DIGIO063_B*%
X114110000Y-90267000D02*
X114110000Y-91932000D01*
X114110000Y-91932000D02*
X115049000Y-92871000D01*
X115049000Y-92871000D02*
X115049000Y-97582000D01*
%TO.N,DIGIO065_B*%
X114730000Y-88407000D02*
X114590000Y-88547000D01*
X114590000Y-91942000D02*
X115350000Y-92702000D01*
X115350000Y-92702000D02*
X115350000Y-97993000D01*
X114590000Y-88547000D02*
X114590000Y-91942000D01*
X115350000Y-97993000D02*
X115499000Y-98142000D01*
%TO.N,DIGIO071_B*%
X115500000Y-91903400D02*
X115949000Y-92352400D01*
X115949000Y-92352400D02*
X115949000Y-97582000D01*
X115500000Y-90267000D02*
X115500000Y-91903400D01*
%TO.N,DIGIO073_B*%
X115930000Y-91901600D02*
X116399000Y-92370600D01*
X116399000Y-92370600D02*
X116399000Y-98142000D01*
X115930000Y-89817000D02*
X115930000Y-91901600D01*
%TO.N,DIGIO075_B*%
X116360000Y-88407000D02*
X116360000Y-91874400D01*
X116849000Y-92363400D02*
X116849000Y-97582000D01*
X116360000Y-91874400D02*
X116849000Y-92363400D01*
%TO.N,DIGIO081_B*%
X117100000Y-91750800D02*
X117439000Y-92089800D01*
X117100000Y-89817000D02*
X117100000Y-91750800D01*
X117439000Y-92089800D02*
X117439000Y-98002000D01*
X117439000Y-98002000D02*
X117299000Y-98142000D01*
%TO.N,DIGIO083_B*%
X117530000Y-90267000D02*
X117530000Y-91749000D01*
X117749000Y-91968000D02*
X117749000Y-97582000D01*
X117530000Y-91749000D02*
X117749000Y-91968000D01*
%TO.N,DIGIO091_B*%
X118700000Y-90730000D02*
X118700000Y-90267000D01*
X118199000Y-98142000D02*
X118359000Y-97982000D01*
X118359000Y-97982000D02*
X118359000Y-91071000D01*
X118359000Y-91071000D02*
X118700000Y-90730000D01*
%TO.N,DIGIO093_B*%
X118649000Y-91221000D02*
X119130000Y-90740000D01*
X119130000Y-90740000D02*
X119130000Y-89817000D01*
X118649000Y-97582000D02*
X118649000Y-91221000D01*
%TO.N,DIGIO101_B*%
X120300000Y-89817000D02*
X120300000Y-90920000D01*
X119549000Y-91671000D02*
X119549000Y-97582000D01*
X120300000Y-90920000D02*
X119549000Y-91671000D01*
%TO.N,DIGIO050_B*%
X114100400Y-115447000D02*
X113510000Y-115447000D01*
X110199000Y-99332000D02*
X111759000Y-99332000D01*
X106229000Y-112761000D02*
X106229000Y-108752000D01*
X106229000Y-108752000D02*
X105459000Y-107982000D01*
X111759000Y-99332000D02*
X112199000Y-98892000D01*
X113510000Y-115447000D02*
X113233000Y-115170000D01*
X113700000Y-99208000D02*
X113700000Y-99662000D01*
X114640400Y-114907000D02*
X114100400Y-115447000D01*
X105459000Y-107982000D02*
X105459000Y-105732000D01*
X106230000Y-103301000D02*
X110199000Y-99332000D01*
X113384000Y-98892000D02*
X113700000Y-99208000D01*
X106230000Y-104961000D02*
X106230000Y-103301000D01*
X113233000Y-115170000D02*
X108638000Y-115170000D01*
X105459000Y-105732000D02*
X106230000Y-104961000D01*
X112199000Y-98892000D02*
X113384000Y-98892000D01*
X108638000Y-115170000D02*
X106229000Y-112761000D01*
%TO.N,DIGIO052_B*%
X113550000Y-98542000D02*
X114150000Y-99142000D01*
X111000000Y-98542000D02*
X113550000Y-98542000D01*
X105910000Y-104831000D02*
X105910000Y-103182000D01*
X110530000Y-99012000D02*
X111000000Y-98542000D01*
X113367000Y-115827000D02*
X113080000Y-115540000D01*
X108488000Y-115540000D02*
X105899000Y-112951000D01*
X105899000Y-108912000D02*
X105129000Y-108142000D01*
X110080000Y-99012000D02*
X110530000Y-99012000D01*
X105129000Y-105612000D02*
X105910000Y-104831000D01*
X105129000Y-108142000D02*
X105129000Y-105612000D01*
X113080000Y-115540000D02*
X108488000Y-115540000D01*
X105899000Y-112951000D02*
X105899000Y-108912000D01*
X105910000Y-103182000D02*
X110080000Y-99012000D01*
X113840000Y-115827000D02*
X113367000Y-115827000D01*
X114330000Y-116317000D02*
X113840000Y-115827000D01*
X114150000Y-99142000D02*
X114150000Y-99662000D01*
%TO.N,DIGIO060_B*%
X114660000Y-99272000D02*
X114660000Y-98742000D01*
X115050000Y-99662000D02*
X114660000Y-99272000D01*
X114110000Y-93382000D02*
X112640000Y-91912000D01*
X113900000Y-87107000D02*
X112640000Y-88367000D01*
X114110000Y-98192000D02*
X114110000Y-93382000D01*
X112640000Y-88367000D02*
X112640000Y-91912000D01*
X114660000Y-98742000D02*
X114110000Y-98192000D01*
%TO.N,DIGIO080_B*%
X116850000Y-98082000D02*
X116850000Y-99662000D01*
X117100000Y-87107000D02*
X117100000Y-88517000D01*
X117149000Y-97783000D02*
X116850000Y-98082000D01*
X117100000Y-88517000D02*
X116670000Y-88947000D01*
X117149000Y-92231600D02*
X117149000Y-97783000D01*
X116670000Y-91752600D02*
X117149000Y-92231600D01*
X116670000Y-88947000D02*
X116670000Y-91752600D01*
%TO.N,DIGIO085_B*%
X117750000Y-99662000D02*
X117750000Y-98086500D01*
X118059000Y-97777500D02*
X118059000Y-89916000D01*
X118059000Y-89916000D02*
X117960000Y-89817000D01*
X117750000Y-98086500D02*
X118059000Y-97777500D01*
%TO.N,DIGIO094_B*%
X119020000Y-88807000D02*
X119020000Y-88097000D01*
X118960000Y-91370000D02*
X119560000Y-90770000D01*
X119560000Y-89347000D02*
X119020000Y-88807000D01*
X118960000Y-97792000D02*
X118960000Y-91370000D01*
X119020000Y-88097000D02*
X119560000Y-87557000D01*
X118650000Y-98102000D02*
X118960000Y-97792000D01*
X119560000Y-90770000D02*
X119560000Y-89347000D01*
X118650000Y-99662000D02*
X118650000Y-98102000D01*
%TO.N,DIGIO100_B*%
X119250000Y-91530000D02*
X119860000Y-90920000D01*
X120300000Y-88747000D02*
X120300000Y-87107000D01*
X119109000Y-98743000D02*
X119449000Y-98403000D01*
X119860000Y-90920000D02*
X119860000Y-89187000D01*
X119250000Y-97782000D02*
X119250000Y-91530000D01*
X119100000Y-99662000D02*
X119109000Y-99653000D01*
X119109000Y-99653000D02*
X119109000Y-98743000D01*
X119449000Y-97981000D02*
X119250000Y-97782000D01*
X119860000Y-89187000D02*
X120300000Y-88747000D01*
X119449000Y-98403000D02*
X119449000Y-97981000D01*
%TO.N,DIGIO044_B*%
X110759000Y-100272000D02*
X110939000Y-100452000D01*
X106889000Y-112471000D02*
X106889000Y-108452000D01*
X111299000Y-100452000D02*
X111639000Y-100112000D01*
X110939000Y-100452000D02*
X111299000Y-100452000D01*
X106890000Y-103621000D02*
X110239000Y-100272000D01*
X115526435Y-114906635D02*
X115097600Y-114477800D01*
X110239000Y-100272000D02*
X110759000Y-100272000D01*
X111639000Y-100112000D02*
X113250000Y-100112000D01*
X108895800Y-114477800D02*
X106889000Y-112471000D01*
X115097600Y-114477800D02*
X108895800Y-114477800D01*
X106889000Y-108452000D02*
X106119000Y-107682000D01*
X106890000Y-105281000D02*
X106890000Y-103621000D01*
X106119000Y-106052000D02*
X106890000Y-105281000D01*
X106119000Y-107682000D02*
X106119000Y-106052000D01*
%TO.N,DIGIO054_B*%
X110739000Y-99962000D02*
X110059000Y-99962000D01*
X110059000Y-99962000D02*
X106560000Y-103461000D01*
X113843000Y-114820000D02*
X113930000Y-114907000D01*
X110959000Y-99742000D02*
X110739000Y-99962000D01*
X108778000Y-114820000D02*
X113843000Y-114820000D01*
X106560000Y-103461000D02*
X106560000Y-105141000D01*
X106559000Y-112601000D02*
X108778000Y-114820000D01*
X113700000Y-100112000D02*
X113330000Y-99742000D01*
X105789000Y-107832000D02*
X106559000Y-108602000D01*
X106559000Y-108602000D02*
X106559000Y-112601000D01*
X105789000Y-105912000D02*
X105789000Y-107832000D01*
X113330000Y-99742000D02*
X110959000Y-99742000D01*
X114600000Y-100112000D02*
X113700000Y-100112000D01*
X106560000Y-105141000D02*
X105789000Y-105912000D01*
%TO.N,DIGIO062_B*%
X113660000Y-88227000D02*
X113660000Y-91972000D01*
X114330000Y-87557000D02*
X113660000Y-88227000D01*
X115030000Y-99072000D02*
X115360000Y-99402000D01*
X114740000Y-93052000D02*
X114740000Y-97792000D01*
X115030000Y-98082000D02*
X115030000Y-99072000D01*
X115360000Y-99402000D02*
X115360000Y-99802000D01*
X113660000Y-91972000D02*
X114740000Y-93052000D01*
X114740000Y-97792000D02*
X115030000Y-98082000D01*
X115360000Y-99802000D02*
X115050000Y-100112000D01*
%TO.N,DIGIO070_B*%
X115500000Y-88947000D02*
X115030000Y-89417000D01*
X115030000Y-91902000D02*
X115650000Y-92522000D01*
X115940000Y-98062000D02*
X115940000Y-98672000D01*
X115030000Y-89417000D02*
X115030000Y-91902000D01*
X115650000Y-92522000D02*
X115650000Y-97772000D01*
X115650000Y-97772000D02*
X115940000Y-98062000D01*
X115940000Y-98672000D02*
X115640000Y-98972000D01*
X115640000Y-98972000D02*
X115640000Y-99802000D01*
X115640000Y-99802000D02*
X115950000Y-100112000D01*
X115500000Y-87557000D02*
X115500000Y-88947000D01*
%TO.N,DIGIO090_B*%
X118700000Y-86317000D02*
X118700000Y-87557000D01*
X124940000Y-85697000D02*
X119320000Y-85697000D01*
X126020000Y-94942000D02*
X126350000Y-94612000D01*
X118879000Y-104292000D02*
X120499000Y-104292000D01*
X125620000Y-86377000D02*
X124940000Y-85697000D01*
X126350000Y-94612000D02*
X126350000Y-89790000D01*
X119320000Y-85697000D02*
X118700000Y-86317000D01*
X126020000Y-100542000D02*
X126020000Y-94942000D01*
X125620000Y-89060000D02*
X125620000Y-86377000D01*
X120499000Y-104292000D02*
X121079000Y-103712000D01*
X123640000Y-102922000D02*
X126020000Y-100542000D01*
X121079000Y-103123000D02*
X121280000Y-102922000D01*
X118469000Y-100381000D02*
X118469000Y-103882000D01*
X126350000Y-89790000D02*
X125620000Y-89060000D01*
X121280000Y-102922000D02*
X123640000Y-102922000D01*
X121079000Y-103712000D02*
X121079000Y-103123000D01*
X118469000Y-103882000D02*
X118879000Y-104292000D01*
X118200000Y-100112000D02*
X118469000Y-100381000D01*
%TO.N,DIGIO092_B*%
X118650000Y-100112000D02*
X118650000Y-103633000D01*
X123460000Y-102632000D02*
X125680000Y-100412000D01*
X118959000Y-103942000D02*
X120369000Y-103942000D01*
X125680000Y-100412000D02*
X125680000Y-94822000D01*
X126020000Y-94482000D02*
X126020000Y-89960000D01*
X118650000Y-103633000D02*
X118959000Y-103942000D01*
X120779000Y-102983000D02*
X121130000Y-102632000D01*
X121130000Y-102632000D02*
X123460000Y-102632000D01*
X120779000Y-103532000D02*
X120779000Y-102983000D01*
X125680000Y-94822000D02*
X126020000Y-94482000D01*
X125280000Y-86557000D02*
X124760000Y-86037000D01*
X126020000Y-89960000D02*
X125280000Y-89220000D01*
X125280000Y-89220000D02*
X125280000Y-86557000D01*
X120369000Y-103942000D02*
X120779000Y-103532000D01*
X119130000Y-86407000D02*
X119130000Y-87107000D01*
X124760000Y-86037000D02*
X119500000Y-86037000D01*
X119500000Y-86037000D02*
X119130000Y-86407000D01*
%TO.N,DIGIO102_B*%
X121770000Y-89637000D02*
X120730000Y-88597000D01*
X121770000Y-89980000D02*
X121770000Y-89637000D01*
X121500000Y-99222000D02*
X121500000Y-93380000D01*
X122450000Y-90660000D02*
X121770000Y-89980000D01*
X121260000Y-91730000D02*
X121760000Y-91730000D01*
X121760000Y-91730000D02*
X122450000Y-91040000D01*
X120060000Y-99602000D02*
X121120000Y-99602000D01*
X120910000Y-92080000D02*
X121260000Y-91730000D01*
X121500000Y-93380000D02*
X120910000Y-92790000D01*
X121120000Y-99602000D02*
X121500000Y-99222000D01*
X122450000Y-91040000D02*
X122450000Y-90660000D01*
X120730000Y-88597000D02*
X120730000Y-87557000D01*
X119550000Y-100112000D02*
X120060000Y-99602000D01*
X120910000Y-92790000D02*
X120910000Y-92080000D01*
%TO.N,DIGIO105_B*%
X121160000Y-90660000D02*
X121160000Y-89817000D01*
X119940000Y-91880000D02*
X121160000Y-90660000D01*
X120800000Y-97582000D02*
X120800000Y-94812000D01*
X119940000Y-93952000D02*
X119940000Y-91880000D01*
X120800000Y-94812000D02*
X119940000Y-93952000D01*
%TO.N,DIGIO043_B*%
X107219000Y-112321000D02*
X107219000Y-108322000D01*
X116030000Y-115240000D02*
X116030000Y-114610000D01*
X115597800Y-114177800D02*
X109075800Y-114177800D01*
X110049000Y-100912000D02*
X111379000Y-100912000D01*
X109075800Y-114177800D02*
X107219000Y-112321000D01*
X116030000Y-114610000D02*
X115597800Y-114177800D01*
X115930000Y-119027000D02*
X115020000Y-118117000D01*
X111379000Y-100912000D02*
X111729000Y-100562000D01*
X111729000Y-100562000D02*
X113250000Y-100562000D01*
X115020000Y-118117000D02*
X115020000Y-116250000D01*
X115020000Y-116250000D02*
X116030000Y-115240000D01*
X107220000Y-103741000D02*
X110049000Y-100912000D01*
X107219000Y-108322000D02*
X106449000Y-107552000D01*
X106449000Y-107552000D02*
X106449000Y-106222000D01*
X106449000Y-106222000D02*
X107220000Y-105451000D01*
X107220000Y-105451000D02*
X107220000Y-103741000D01*
%TO.N,DIGIO041_B*%
X115747800Y-113877800D02*
X109235800Y-113877800D01*
X115610000Y-117210000D02*
X115370000Y-116970000D01*
X109235800Y-113877800D02*
X107550000Y-112192000D01*
X116350000Y-115430000D02*
X116350000Y-114480000D01*
X116350000Y-114480000D02*
X115747800Y-113877800D01*
X110189000Y-101242000D02*
X111579000Y-101242000D01*
X107550000Y-112192000D02*
X107550000Y-108213000D01*
X106779000Y-107442000D02*
X106779000Y-106382000D01*
X115370000Y-116970000D02*
X115370000Y-116410000D01*
X111999000Y-100822000D02*
X113440000Y-100822000D01*
X107550000Y-103881000D02*
X110189000Y-101242000D01*
X106779000Y-106382000D02*
X107550000Y-105611000D01*
X115920000Y-117210000D02*
X115610000Y-117210000D01*
X107550000Y-108213000D02*
X106779000Y-107442000D01*
X116350000Y-117640000D02*
X115920000Y-117210000D01*
X111579000Y-101242000D02*
X111999000Y-100822000D01*
X107550000Y-105611000D02*
X107550000Y-103881000D01*
X115370000Y-116410000D02*
X116350000Y-115430000D01*
X113440000Y-100822000D02*
X113700000Y-100562000D01*
%TO.N,DIGIO104_B*%
X121220000Y-99952000D02*
X120160000Y-99952000D01*
X122110000Y-93222000D02*
X121850000Y-93482000D01*
X122110000Y-91930000D02*
X122110000Y-93222000D01*
X122830000Y-90572000D02*
X122830000Y-91210000D01*
X122110000Y-89447000D02*
X122110000Y-89852000D01*
X122110000Y-89852000D02*
X122830000Y-90572000D01*
X121850000Y-99322000D02*
X121220000Y-99952000D01*
X120160000Y-99952000D02*
X119550000Y-100562000D01*
X122830000Y-91210000D02*
X122110000Y-91930000D01*
X121160000Y-87107000D02*
X121160000Y-88497000D01*
X121850000Y-93482000D02*
X121850000Y-99322000D01*
X121160000Y-88497000D02*
X122110000Y-89447000D01*
%TO.N,DIGIO111_B*%
X120560000Y-92942000D02*
X121150000Y-93532000D01*
X120560000Y-91850000D02*
X120560000Y-92942000D01*
X121930000Y-90837000D02*
X121407000Y-91360000D01*
X121150000Y-93532000D02*
X121150000Y-98142000D01*
X121407000Y-91360000D02*
X121050000Y-91360000D01*
X121050000Y-91360000D02*
X120560000Y-91850000D01*
%TO.N,DIGIO110_B*%
X123180000Y-91400000D02*
X123180000Y-89397000D01*
X122480000Y-93372000D02*
X122480000Y-92100000D01*
X122200000Y-100402000D02*
X122200000Y-93652000D01*
X122200000Y-93652000D02*
X122480000Y-93372000D01*
X121900000Y-88727000D02*
X121900000Y-87557000D01*
X123180000Y-89397000D02*
X122810000Y-89027000D01*
X122810000Y-89027000D02*
X122200000Y-89027000D01*
X122480000Y-92100000D02*
X123180000Y-91400000D01*
X122200000Y-89027000D02*
X121900000Y-88727000D01*
%TO.N,DIGIO114_B*%
X121000000Y-102332000D02*
X123290000Y-102332000D01*
X118830000Y-101732000D02*
X118830000Y-103393000D01*
X125660000Y-90130000D02*
X124930000Y-89400000D01*
X125660000Y-94382000D02*
X125660000Y-90130000D01*
X125370000Y-100252000D02*
X125370000Y-94672000D01*
X119100000Y-101462000D02*
X118830000Y-101732000D01*
X122760000Y-86717000D02*
X122760000Y-87557000D01*
X124595000Y-86397000D02*
X123080000Y-86397000D01*
X120479000Y-103342000D02*
X120479000Y-102853000D01*
X123080000Y-86397000D02*
X122760000Y-86717000D01*
X118830000Y-103393000D02*
X119039000Y-103602000D01*
X120479000Y-102853000D02*
X121000000Y-102332000D01*
X120219000Y-103602000D02*
X120479000Y-103342000D01*
X123290000Y-102332000D02*
X125370000Y-100252000D01*
X119039000Y-103602000D02*
X120219000Y-103602000D01*
X124930000Y-86732000D02*
X124595000Y-86397000D01*
X125370000Y-94672000D02*
X125660000Y-94382000D01*
X124930000Y-89400000D02*
X124930000Y-86732000D01*
%TO.N,DIGIO112_B*%
X122110000Y-100762000D02*
X122340000Y-100762000D01*
X122830000Y-88250000D02*
X122330000Y-87750000D01*
X119550000Y-101462000D02*
X119890000Y-101122000D01*
X121750000Y-101122000D02*
X122110000Y-100762000D01*
X122330000Y-87750000D02*
X122330000Y-87107000D01*
X119890000Y-101122000D02*
X121750000Y-101122000D01*
X122340000Y-100762000D02*
X122550000Y-100552000D01*
X122840000Y-93522000D02*
X122840000Y-92230000D01*
X123500000Y-89180000D02*
X122830000Y-88510000D01*
X122840000Y-92230000D02*
X123500000Y-91570000D01*
X123500000Y-91570000D02*
X123500000Y-89180000D01*
X122550000Y-93812000D02*
X122840000Y-93522000D01*
X122550000Y-100552000D02*
X122550000Y-93812000D01*
X122830000Y-88510000D02*
X122830000Y-88250000D01*
%TO.N,DIGIO034_B*%
X109635800Y-112887800D02*
X108539000Y-111791000D01*
X116185800Y-112887800D02*
X109635800Y-112887800D01*
X109679000Y-103262000D02*
X110599000Y-103262000D01*
X117460000Y-114162000D02*
X116185800Y-112887800D01*
X112429000Y-102362000D02*
X112800000Y-102362000D01*
X108539000Y-104402000D02*
X109679000Y-103262000D01*
X112800000Y-102362000D02*
X113250000Y-101912000D01*
X117460000Y-114907000D02*
X117460000Y-114162000D01*
X108539000Y-111791000D02*
X108539000Y-104402000D01*
X111979000Y-102812000D02*
X112429000Y-102362000D01*
X110599000Y-103262000D02*
X111049000Y-102812000D01*
X111049000Y-102812000D02*
X111979000Y-102812000D01*
%TO.N,DIGIO035_B*%
X111049000Y-101912000D02*
X110599000Y-102362000D01*
X113700000Y-101912000D02*
X113889000Y-101912000D01*
X117110000Y-119010000D02*
X117130000Y-119030000D01*
X116045800Y-113227800D02*
X117000000Y-114182000D01*
X117000000Y-114182000D02*
X117000000Y-115270000D01*
X108209000Y-111901000D02*
X109535800Y-113227800D01*
X113989000Y-101812000D02*
X113989000Y-101332000D01*
X117110000Y-115380000D02*
X117110000Y-119010000D01*
X113989000Y-101332000D02*
X113849000Y-101192000D01*
X117000000Y-115270000D02*
X117110000Y-115380000D01*
X113849000Y-101192000D02*
X112529000Y-101192000D01*
X108209000Y-104222000D02*
X108209000Y-111901000D01*
X112529000Y-101192000D02*
X111809000Y-101912000D01*
X110069000Y-102362000D02*
X108209000Y-104222000D01*
X113889000Y-101912000D02*
X113989000Y-101812000D01*
X110599000Y-102362000D02*
X110069000Y-102362000D01*
X109535800Y-113227800D02*
X116045800Y-113227800D01*
X111809000Y-101912000D02*
X111049000Y-101912000D01*
%TO.N,PRG_SPI_CS*%
X123750000Y-98202000D02*
X122910000Y-97362000D01*
X122910000Y-93980000D02*
X123210000Y-93680000D01*
X122420000Y-101122000D02*
X123750000Y-99792000D01*
X123930000Y-91690000D02*
X123930000Y-90267000D01*
X123210000Y-92410000D02*
X123930000Y-91690000D01*
X122200000Y-101122000D02*
X122420000Y-101122000D01*
X123750000Y-99792000D02*
X123750000Y-98202000D01*
X122910000Y-97362000D02*
X122910000Y-93980000D01*
X123210000Y-93680000D02*
X123210000Y-92410000D01*
%TO.N,DIGIO033_B*%
X114539000Y-101862000D02*
X114539000Y-102182000D01*
X117950000Y-119030000D02*
X117440000Y-119540000D01*
X107109000Y-106562000D02*
X107880000Y-105791000D01*
X114219000Y-101542000D02*
X114539000Y-101862000D01*
X116670000Y-115440000D02*
X116670000Y-114342000D01*
X107880000Y-104051000D02*
X110359000Y-101572000D01*
X117440000Y-119540000D02*
X116870000Y-119540000D01*
X112229000Y-101002000D02*
X113979000Y-101002000D01*
X113979000Y-101002000D02*
X114219000Y-101242000D01*
X114359000Y-102362000D02*
X113700000Y-102362000D01*
X115895800Y-113567800D02*
X109393300Y-113567800D01*
X107109000Y-107302000D02*
X107109000Y-106562000D01*
X116870000Y-119540000D02*
X116610000Y-119280000D01*
X107880000Y-105791000D02*
X107880000Y-104051000D01*
X107879000Y-112053500D02*
X107879000Y-108072000D01*
X116790000Y-117890000D02*
X116790000Y-115560000D01*
X116610000Y-119280000D02*
X116610000Y-118070000D01*
X107879000Y-108072000D02*
X107109000Y-107302000D01*
X109393300Y-113567800D02*
X107879000Y-112053500D01*
X110359000Y-101572000D02*
X111659000Y-101572000D01*
X116790000Y-115560000D02*
X116670000Y-115440000D01*
X116670000Y-114342000D02*
X115895800Y-113567800D01*
X111659000Y-101572000D02*
X112229000Y-101002000D01*
X114539000Y-102182000D02*
X114359000Y-102362000D01*
X114219000Y-101242000D02*
X114219000Y-101542000D01*
X116610000Y-118070000D02*
X116790000Y-117890000D01*
%TO.N,PRG_SPI_MISO*%
X124350000Y-92720000D02*
X124350000Y-90830000D01*
X124150000Y-99882000D02*
X124150000Y-97702000D01*
X121710000Y-101482000D02*
X122550000Y-101482000D01*
X123670000Y-94276000D02*
X123670000Y-93400000D01*
X124150000Y-97702000D02*
X124150000Y-94756000D01*
X123670000Y-93400000D02*
X124350000Y-92720000D01*
X124150000Y-94756000D02*
X123670000Y-94276000D01*
X122550000Y-101482000D02*
X124150000Y-99882000D01*
%TO.N,DIGIO025_B*%
X110599000Y-104162000D02*
X111049000Y-103712000D01*
X109759000Y-104162000D02*
X110599000Y-104162000D01*
X118570000Y-115187000D02*
X118570000Y-114782000D01*
X112584000Y-102812000D02*
X113250000Y-102812000D01*
X111049000Y-103712000D02*
X111684000Y-103712000D01*
X118140000Y-118040000D02*
X118140000Y-117570000D01*
X116355800Y-112567800D02*
X109795800Y-112567800D01*
X118570000Y-114782000D02*
X116355800Y-112567800D01*
X118140000Y-117570000D02*
X117960000Y-117390000D01*
X111684000Y-103712000D02*
X112584000Y-102812000D01*
X109795800Y-112567800D02*
X108869000Y-111641000D01*
X117960000Y-115797000D02*
X118570000Y-115187000D01*
X108869000Y-105052000D02*
X109759000Y-104162000D01*
X119130000Y-119030000D02*
X118140000Y-118040000D01*
X108869000Y-111641000D02*
X108869000Y-105052000D01*
X117960000Y-117390000D02*
X117960000Y-115797000D01*
%TO.N,E1_AON4*%
X119839500Y-102522500D02*
X119550000Y-102812000D01*
X124560000Y-99952000D02*
X122720000Y-101792000D01*
X124560000Y-99952000D02*
X124560000Y-94612000D01*
X124880000Y-92722000D02*
X124880000Y-90460000D01*
X124880000Y-90460000D02*
X123925000Y-89505000D01*
X122720000Y-101792000D02*
X121070000Y-101792000D01*
X123925000Y-88805000D02*
X123530000Y-88410000D01*
X120339500Y-102522500D02*
X119839500Y-102522500D01*
X124050000Y-93552000D02*
X124880000Y-92722000D01*
X121070000Y-101792000D02*
X120339500Y-102522500D01*
X124050000Y-94102000D02*
X124050000Y-93552000D01*
X124560000Y-94612000D02*
X124050000Y-94102000D01*
X123925000Y-89505000D02*
X123925000Y-88805000D01*
%TO.N,E1_AON5*%
X124960000Y-100162000D02*
X123060000Y-102062000D01*
X124960000Y-98152000D02*
X124960000Y-94562000D01*
X125280000Y-90300000D02*
X124330000Y-89350000D01*
X123450000Y-87157000D02*
X123500000Y-87107000D01*
X123060000Y-102062000D02*
X122200000Y-102062000D01*
X125280000Y-94242000D02*
X125280000Y-90300000D01*
X124960000Y-98152000D02*
X124960000Y-100162000D01*
X124960000Y-94562000D02*
X125280000Y-94242000D01*
X123450000Y-87700000D02*
X123450000Y-87157000D01*
X124330000Y-89350000D02*
X124330000Y-88580000D01*
X124330000Y-88580000D02*
X123450000Y-87700000D01*
%TO.N,DIGIO023_B*%
X112680000Y-103262000D02*
X113250000Y-103262000D01*
X118700000Y-117620000D02*
X118280000Y-117200000D01*
X111480000Y-104462000D02*
X112680000Y-103262000D01*
X118280000Y-117200000D02*
X118280000Y-115977000D01*
X109970000Y-104462000D02*
X111480000Y-104462000D01*
X109200000Y-111472000D02*
X109200000Y-111082000D01*
X109200000Y-111082000D02*
X109199000Y-111081000D01*
X109199000Y-105233000D02*
X109970000Y-104462000D01*
X109199000Y-111081000D02*
X109199000Y-105233000D01*
X109975800Y-112247800D02*
X109200000Y-111472000D01*
X118940000Y-114682000D02*
X116505800Y-112247800D01*
X118280000Y-115977000D02*
X118940000Y-115317000D01*
X118940000Y-115317000D02*
X118940000Y-114682000D01*
X116505800Y-112247800D02*
X109975800Y-112247800D01*
%TO.N,JTAG_CTRL*%
D14*
X128840000Y-96311999D02*
X128980000Y-96171999D01*
X128330000Y-102462000D02*
X128660000Y-102462000D01*
X128840000Y-102282000D02*
X128840000Y-96311999D01*
X128660000Y-102462000D02*
X128840000Y-102282000D01*
%TO.N,DIGIO005_B*%
D15*
X115279000Y-104282000D02*
X115619000Y-104282000D01*
X115669000Y-106361000D02*
X115999000Y-106691000D01*
X121900000Y-116587000D02*
X121900000Y-117617000D01*
X122060000Y-116427000D02*
X121900000Y-116587000D01*
X115999000Y-109789000D02*
X118202000Y-111992000D01*
X115669000Y-105573000D02*
X115669000Y-106361000D01*
X120349000Y-111992000D02*
X122060000Y-113703000D01*
X115619000Y-104282000D02*
X115810000Y-104473000D01*
X115999000Y-106691000D02*
X115999000Y-109789000D01*
X115810000Y-105432000D02*
X115669000Y-105573000D01*
X118202000Y-111992000D02*
X120349000Y-111992000D01*
X115810000Y-104473000D02*
X115810000Y-105432000D01*
X122060000Y-113703000D02*
X122060000Y-116427000D01*
%TO.N,DIGIO003_B*%
X122330000Y-113608000D02*
X122330000Y-117167000D01*
X116080000Y-104932000D02*
X116080000Y-105442000D01*
X118312000Y-111732000D02*
X120454000Y-111732000D01*
X116229000Y-109649000D02*
X118312000Y-111732000D01*
X120454000Y-111732000D02*
X122330000Y-113608000D01*
X116229000Y-105591000D02*
X116229000Y-109649000D01*
X116400000Y-104612000D02*
X116080000Y-104932000D01*
X116080000Y-105442000D02*
X116229000Y-105591000D01*
%TO.N,BOOT_MODE1*%
X126330000Y-116487000D02*
X126770000Y-116047000D01*
X118000000Y-106922000D02*
X118000000Y-106141000D01*
D14*
X128160000Y-104342000D02*
X128160000Y-105352000D01*
D15*
X117720000Y-107202000D02*
X118000000Y-106922000D01*
X124780000Y-112512000D02*
X122440000Y-110172000D01*
X127300000Y-113974800D02*
X125444800Y-113974800D01*
D14*
X129590000Y-98972000D02*
X129330000Y-99232000D01*
D15*
X127770000Y-114444800D02*
X127300000Y-113974800D01*
X118469000Y-104772000D02*
X117959000Y-104262000D01*
X118469000Y-105672000D02*
X118469000Y-104772000D01*
D14*
X128160000Y-105352000D02*
X127720000Y-105792000D01*
D15*
X127420000Y-116047000D02*
X127770000Y-115697000D01*
X118000000Y-106141000D02*
X118469000Y-105672000D01*
X122440000Y-110172000D02*
X118932000Y-110172000D01*
X117720000Y-108960000D02*
X117720000Y-107202000D01*
X118932000Y-110172000D02*
X117720000Y-108960000D01*
X124780000Y-113310000D02*
X124780000Y-112512000D01*
D14*
X129330000Y-99232000D02*
X129330000Y-103172000D01*
D15*
X126330000Y-116487000D02*
X126330000Y-117617000D01*
X127770000Y-115697000D02*
X127770000Y-114444800D01*
X117959000Y-104262000D02*
X117410000Y-104262000D01*
X125444800Y-113974800D02*
X124780000Y-113310000D01*
X126770000Y-116047000D02*
X127420000Y-116047000D01*
D14*
X129330000Y-103172000D02*
X128160000Y-104342000D01*
%TO.N,DIGIO001_B*%
D15*
X122600000Y-113523000D02*
X120559000Y-111482000D01*
X116469000Y-109539000D02*
X116469000Y-106693000D01*
X116779000Y-106383000D02*
X116779000Y-105441000D01*
X120559000Y-111482000D02*
X118412000Y-111482000D01*
X122600000Y-116427000D02*
X122600000Y-113523000D01*
X116779000Y-105441000D02*
X116400000Y-105062000D01*
X116469000Y-106693000D02*
X116779000Y-106383000D01*
X122760000Y-117617000D02*
X122760000Y-116587000D01*
X122760000Y-116587000D02*
X122600000Y-116427000D01*
X118412000Y-111482000D02*
X116469000Y-109539000D01*
%TO.N,DIGIO002_B*%
X117474000Y-105236000D02*
X117474000Y-106158000D01*
X118622000Y-110972000D02*
X120954200Y-110972000D01*
X123780000Y-113240000D02*
X123780000Y-113707000D01*
X116940600Y-109290600D02*
X118622000Y-110972000D01*
X123780000Y-113707000D02*
X123210000Y-114277000D01*
X117474000Y-106158000D02*
X117190000Y-106442000D01*
X120954200Y-110972000D02*
X122982200Y-113000000D01*
X117190000Y-106672000D02*
X116940600Y-106921400D01*
X116940600Y-106921400D02*
X116940600Y-109290600D01*
X117190000Y-106442000D02*
X117190000Y-106672000D01*
X123540000Y-113000000D02*
X123780000Y-113240000D01*
X117300000Y-105062000D02*
X117474000Y-105236000D01*
X122982200Y-113000000D02*
X123540000Y-113000000D01*
%TO.N,BOOT_MODE2*%
X124470000Y-112602000D02*
X122310000Y-110442000D01*
X117450000Y-109060000D02*
X117450000Y-107122000D01*
X122310000Y-110442000D02*
X118832000Y-110442000D01*
X126050000Y-117050000D02*
X126050000Y-116337000D01*
X117450000Y-107122000D02*
X117750000Y-106822000D01*
X127243000Y-115757000D02*
X127490000Y-115510000D01*
X127490000Y-115510000D02*
X127490000Y-114604800D01*
X117750000Y-106822000D02*
X117750000Y-105062000D01*
X125304800Y-114284800D02*
X124470000Y-113450000D01*
X124470000Y-113450000D02*
X124470000Y-112602000D01*
X125900000Y-119027000D02*
X125900000Y-117200000D01*
X126050000Y-116337000D02*
X126630000Y-115757000D01*
X127490000Y-114604800D02*
X127170000Y-114284800D01*
X118832000Y-110442000D02*
X117450000Y-109060000D01*
X126630000Y-115757000D02*
X127243000Y-115757000D01*
X125900000Y-117200000D02*
X126050000Y-117050000D01*
X127170000Y-114284800D02*
X125304800Y-114284800D01*
%TO.N,JTAG_TRSTN*%
D14*
X128560000Y-108962000D02*
X136020000Y-108962000D01*
X126330000Y-113080800D02*
X126330000Y-111192000D01*
X136020000Y-108962000D02*
X136820000Y-108162000D01*
X136820000Y-102972000D02*
X137630000Y-102162000D01*
X137630000Y-102162000D02*
X137630000Y-100412000D01*
X126330000Y-111192000D02*
X128560000Y-108962000D01*
X136820000Y-108162000D02*
X136820000Y-102972000D01*
X136190000Y-98972000D02*
X133720000Y-98972000D01*
X137630000Y-100412000D02*
X136190000Y-98972000D01*
%TO.N,DIGIO004_B*%
D15*
X116712000Y-109432000D02*
X118512000Y-111232000D01*
X117059000Y-105972000D02*
X117059000Y-106262000D01*
X116712000Y-106800000D02*
X116712000Y-109432000D01*
X118512000Y-111232000D02*
X120833200Y-111232000D01*
X123210000Y-113608800D02*
X123210000Y-113647000D01*
X117059000Y-106262000D02*
X116979000Y-106342000D01*
X120833200Y-111232000D02*
X123210000Y-113608800D01*
X116979000Y-106342000D02*
X116979000Y-106533000D01*
X116979000Y-106533000D02*
X116712000Y-106800000D01*
%TO.N,DIGIO000_B*%
X118722000Y-110712000D02*
X121075200Y-110712000D01*
X123690000Y-112710000D02*
X124080000Y-113100000D01*
X124080000Y-114037000D02*
X123210000Y-114907000D01*
X121075200Y-110712000D02*
X123073200Y-112710000D01*
X117194600Y-107017400D02*
X117194600Y-109184600D01*
X117474000Y-106738000D02*
X117194600Y-107017400D01*
X124080000Y-113100000D02*
X124080000Y-114037000D01*
X123073200Y-112710000D02*
X123690000Y-112710000D01*
X117194600Y-109184600D02*
X118722000Y-110712000D01*
X117474000Y-106612000D02*
X117474000Y-106738000D01*
%TO.N,BOOT_MODE0*%
X117980000Y-108850000D02*
X117980000Y-107402000D01*
X125564800Y-113664800D02*
X125090000Y-113190000D01*
D14*
X130270000Y-99042000D02*
X130270000Y-98972000D01*
D15*
X126890000Y-116357000D02*
X127580000Y-116357000D01*
D14*
X129790000Y-99522000D02*
X130270000Y-99042000D01*
D15*
X128070000Y-114314800D02*
X127420000Y-113664800D01*
X122610000Y-109912000D02*
X119042000Y-109912000D01*
D14*
X128640000Y-105792000D02*
X128640000Y-104532000D01*
D15*
X125090000Y-113190000D02*
X125090000Y-112392000D01*
X119042000Y-109912000D02*
X117980000Y-108850000D01*
X128070000Y-115867000D02*
X128070000Y-114314800D01*
X127420000Y-113664800D02*
X125564800Y-113664800D01*
X126620000Y-117050000D02*
X126620000Y-116627000D01*
D14*
X129790000Y-103382000D02*
X129790000Y-99522000D01*
D15*
X126760000Y-117190000D02*
X126620000Y-117050000D01*
D14*
X128640000Y-104532000D02*
X129790000Y-103382000D01*
D15*
X127580000Y-116357000D02*
X128070000Y-115867000D01*
X126620000Y-116627000D02*
X126890000Y-116357000D01*
X125090000Y-112392000D02*
X122610000Y-109912000D01*
X126760000Y-119027000D02*
X126760000Y-117190000D01*
%TD*%
M02*
