%TF.GenerationSoftware,KiCad,Pcbnew,10.0.3*%
%TF.CreationDate,2026-05-19T14:39:14-04:00*%
%TF.ProjectId,EfficientStamp,45666669-6369-4656-9e74-5374616d702e,v1.0*%
%TF.SameCoordinates,Original*%
%TF.FileFunction,Soldermask,Top*%
%TF.FilePolarity,Negative*%
%FSLAX46Y46*%
G04 Gerber Fmt 4.6, Leading zero omitted, Abs format (unit mm)*
G04 Created by KiCad (PCBNEW 10.0.3) date 2026-05-19 14:39:14*
%MOMM*%
%LPD*%
G01*
G04 APERTURE LIST*
G04 Aperture macros list*
%AMRoundRect*
0 Rectangle with rounded corners*
0 $1 Rounding radius*
0 $2 $3 $4 $5 $6 $7 $8 $9 X,Y pos of 4 corners*
0 Add a 4 corners polygon primitive as box body*
4,1,4,$2,$3,$4,$5,$6,$7,$8,$9,$2,$3,0*
0 Add four circle primitives for the rounded corners*
1,1,$1+$1,$2,$3*
1,1,$1+$1,$4,$5*
1,1,$1+$1,$6,$7*
1,1,$1+$1,$8,$9*
0 Add four rect primitives between the rounded corners*
20,1,$1+$1,$2,$3,$4,$5,0*
20,1,$1+$1,$4,$5,$6,$7,0*
20,1,$1+$1,$6,$7,$8,$9,0*
20,1,$1+$1,$8,$9,$2,$3,0*%
G04 Aperture macros list end*
%ADD10C,1.180000*%
%ADD11C,0.787400*%
%ADD12RoundRect,0.218750X-0.218750X-0.256250X0.218750X-0.256250X0.218750X0.256250X-0.218750X0.256250X0*%
%ADD13RoundRect,0.250000X0.850000X-0.375000X0.850000X0.375000X-0.850000X0.375000X-0.850000X-0.375000X0*%
%ADD14RoundRect,0.135000X0.185000X-0.135000X0.185000X0.135000X-0.185000X0.135000X-0.185000X-0.135000X0*%
%ADD15RoundRect,0.135000X0.135000X0.185000X-0.135000X0.185000X-0.135000X-0.185000X0.135000X-0.185000X0*%
%ADD16C,4.700000*%
%ADD17RoundRect,0.140000X0.170000X-0.140000X0.170000X0.140000X-0.170000X0.140000X-0.170000X-0.140000X0*%
%ADD18RoundRect,0.150000X-0.150000X0.825000X-0.150000X-0.825000X0.150000X-0.825000X0.150000X0.825000X0*%
%ADD19C,1.000000*%
%ADD20RoundRect,0.135000X-0.185000X0.135000X-0.185000X-0.135000X0.185000X-0.135000X0.185000X0.135000X0*%
%ADD21RoundRect,0.140000X-0.170000X0.140000X-0.170000X-0.140000X0.170000X-0.140000X0.170000X0.140000X0*%
%ADD22RoundRect,0.140000X-0.140000X-0.170000X0.140000X-0.170000X0.140000X0.170000X-0.140000X0.170000X0*%
%ADD23RoundRect,0.135000X-0.135000X-0.185000X0.135000X-0.185000X0.135000X0.185000X-0.135000X0.185000X0*%
%ADD24C,0.250000*%
%ADD25C,0.350000*%
%ADD26RoundRect,0.200000X0.250000X-0.200000X0.250000X0.200000X-0.250000X0.200000X-0.250000X-0.200000X0*%
%ADD27C,0.230000*%
%ADD28C,0.330000*%
%ADD29RoundRect,0.140000X0.140000X0.170000X-0.140000X0.170000X-0.140000X-0.170000X0.140000X-0.170000X0*%
%ADD30R,0.900000X1.700000*%
%ADD31RoundRect,0.050000X0.050000X-0.387500X0.050000X0.387500X-0.050000X0.387500X-0.050000X-0.387500X0*%
%ADD32RoundRect,0.050000X0.387500X-0.050000X0.387500X0.050000X-0.387500X0.050000X-0.387500X-0.050000X0*%
%ADD33R,3.600000X3.600000*%
%ADD34RoundRect,0.100000X-0.130000X-0.100000X0.130000X-0.100000X0.130000X0.100000X-0.130000X0.100000X0*%
G04 APERTURE END LIST*
G36*
X100940000Y-82970000D02*
G01*
X102840000Y-82970000D01*
X102840000Y-121750000D01*
X100940000Y-121750000D01*
X100940000Y-82970000D01*
G37*
G36*
X100940000Y-82970000D02*
G01*
X139720000Y-82970000D01*
X139720000Y-84870000D01*
X100940000Y-84870000D01*
X100940000Y-82970000D01*
G37*
G36*
X100940000Y-119850000D02*
G01*
X139720000Y-119850000D01*
X139720000Y-121750000D01*
X100940000Y-121750000D01*
X100940000Y-119850000D01*
G37*
D10*
X102250000Y-85312000D02*
G75*
G02*
X103280000Y-84282000I1030000J0D01*
G01*
X103280000Y-120442000D02*
G75*
G02*
X102250000Y-119412000I0J1030000D01*
G01*
X137380006Y-84279957D02*
G75*
G02*
X138410043Y-85309957I-6J-1030043D01*
G01*
G36*
X137820000Y-82970000D02*
G01*
X139720000Y-82970000D01*
X139720000Y-121750000D01*
X137820000Y-121750000D01*
X137820000Y-82970000D01*
G37*
X138410042Y-119410005D02*
G75*
G02*
X137380042Y-120440042I-1030042J5D01*
G01*
D11*
%TO.C,J2*%
X129590000Y-111847000D03*
X130860000Y-111847000D03*
X132130000Y-111847000D03*
X133400000Y-111847000D03*
X134670000Y-111847000D03*
X134670000Y-110577000D03*
X133400000Y-110577000D03*
X132130000Y-110577000D03*
X130860000Y-110577000D03*
X129590000Y-110577000D03*
%TD*%
D12*
%TO.C,L2*%
X118922500Y-107213400D03*
X120497500Y-107213400D03*
%TD*%
D13*
%TO.C,L1*%
X122510000Y-105517000D03*
X122510000Y-103367000D03*
%TD*%
D14*
%TO.C,R31*%
X133749600Y-107473999D03*
X133749600Y-106454001D03*
%TD*%
D15*
%TO.C,R27*%
X124000000Y-110682000D03*
X122980002Y-110682000D03*
%TD*%
D14*
%TO.C,R15*%
X110200000Y-109772000D03*
X110200000Y-108752000D03*
%TD*%
D16*
%TO.C,H4*%
X105725000Y-116965000D03*
%TD*%
D17*
%TO.C,C26*%
X137100000Y-101712000D03*
X137100000Y-100752000D03*
%TD*%
D18*
%TO.C,U4*%
X107593400Y-99887000D03*
X106323400Y-99887000D03*
X105053400Y-99887000D03*
X103783400Y-99887000D03*
X103783400Y-104837000D03*
X105053400Y-104837000D03*
X106323400Y-104837000D03*
X107593400Y-104837000D03*
%TD*%
D16*
%TO.C,H1*%
X105725000Y-87755000D03*
%TD*%
D15*
%TO.C,R26*%
X125860000Y-110681999D03*
X124840002Y-110681999D03*
%TD*%
D19*
%TO.C,TP3*%
X122130000Y-94431480D03*
%TD*%
D20*
%TO.C,R25*%
X131870000Y-106452001D03*
X131870000Y-107471999D03*
%TD*%
D17*
%TO.C,C32*%
X132260000Y-98262000D03*
X132260000Y-97302000D03*
%TD*%
D19*
%TO.C,TP5*%
X124450000Y-94431480D03*
%TD*%
D16*
%TO.C,H3*%
X134935000Y-116965000D03*
%TD*%
D17*
%TO.C,C27*%
X136170000Y-101712000D03*
X136170000Y-100752000D03*
%TD*%
D21*
%TO.C,C30*%
X126630000Y-102962000D03*
X126630000Y-103922000D03*
%TD*%
D19*
%TO.C,TP1*%
X109140000Y-95902000D03*
%TD*%
D14*
%TO.C,R29*%
X132809800Y-107471999D03*
X132809800Y-106452001D03*
%TD*%
D21*
%TO.C,C36*%
X122360800Y-108172000D03*
X122360800Y-109132000D03*
%TD*%
D22*
%TO.C,C29*%
X130310000Y-98252000D03*
X131270000Y-98252000D03*
%TD*%
%TO.C,C12*%
X115235000Y-107772000D03*
X116195000Y-107772000D03*
%TD*%
D23*
%TO.C,R13*%
X103752201Y-108254800D03*
X104772199Y-108254800D03*
%TD*%
D11*
%TO.C,J1*%
X129590000Y-94147000D03*
X130860000Y-94147000D03*
X132130000Y-94147000D03*
X133400000Y-94147000D03*
X134670000Y-94147000D03*
X134670000Y-92877000D03*
X133400000Y-92877000D03*
X132130000Y-92877000D03*
X130860000Y-92877000D03*
X129590000Y-92877000D03*
%TD*%
D19*
%TO.C,TP4*%
X111460000Y-95902000D03*
%TD*%
D21*
%TO.C,C34*%
X126970000Y-108172000D03*
X126970000Y-109132000D03*
%TD*%
D19*
%TO.C,TP2*%
X109140000Y-106712000D03*
%TD*%
D14*
%TO.C,R28*%
X134689400Y-107471999D03*
X134689400Y-106452001D03*
%TD*%
D23*
%TO.C,R24*%
X126580001Y-101572000D03*
X127599999Y-101572000D03*
%TD*%
D21*
%TO.C,C35*%
X126050000Y-108172000D03*
X126050000Y-109132000D03*
%TD*%
D24*
%TO.C,U1*%
X112800000Y-99212000D03*
D25*
X113250000Y-99212000D03*
X113700000Y-99212000D03*
X114150000Y-99212000D03*
X114600000Y-99212000D03*
X115050000Y-99212000D03*
X115500000Y-99212000D03*
X115950000Y-99212000D03*
X116400000Y-99212000D03*
X116850000Y-99212000D03*
X117300000Y-99212000D03*
X117750000Y-99212000D03*
X118200000Y-99212000D03*
X118650000Y-99212000D03*
X119100000Y-99212000D03*
X119550000Y-99212000D03*
D24*
X120000000Y-99212000D03*
D25*
X112800000Y-99662000D03*
D24*
X113250000Y-99662000D03*
D25*
X113700000Y-99662000D03*
X114150000Y-99662000D03*
D24*
X114600000Y-99662000D03*
D25*
X115050000Y-99662000D03*
X115500000Y-99662000D03*
D24*
X115950000Y-99662000D03*
D25*
X116400000Y-99662000D03*
X116850000Y-99662000D03*
D24*
X117300000Y-99662000D03*
D25*
X117750000Y-99662000D03*
D24*
X118200000Y-99662000D03*
D25*
X118650000Y-99662000D03*
X119100000Y-99662000D03*
D24*
X119550000Y-99662000D03*
D25*
X120000000Y-99662000D03*
X112800000Y-100112000D03*
X113250000Y-100112000D03*
X113700000Y-100112000D03*
X114150000Y-100112000D03*
X114600000Y-100112000D03*
X115050000Y-100112000D03*
X115500000Y-100112000D03*
X115950000Y-100112000D03*
X116400000Y-100112000D03*
X116850000Y-100112000D03*
X117300000Y-100112000D03*
X117750000Y-100112000D03*
X118200000Y-100112000D03*
X118650000Y-100112000D03*
X119100000Y-100112000D03*
X119550000Y-100112000D03*
X120000000Y-100112000D03*
X112800000Y-100562000D03*
X113250000Y-100562000D03*
X113700000Y-100562000D03*
X119100000Y-100562000D03*
X119550000Y-100562000D03*
X120000000Y-100562000D03*
D24*
X112800000Y-101012000D03*
X113250000Y-101012000D03*
X113700000Y-101012000D03*
D25*
X114600000Y-101012000D03*
X115050000Y-101012000D03*
D24*
X115500000Y-101012000D03*
X115950000Y-101012000D03*
X116400000Y-101012000D03*
X116850000Y-101012000D03*
X117300000Y-101012000D03*
D25*
X117750000Y-101012000D03*
X118200000Y-101012000D03*
X119100000Y-101012000D03*
D24*
X119550000Y-101012000D03*
D25*
X120000000Y-101012000D03*
X112800000Y-101462000D03*
X113250000Y-101462000D03*
X113700000Y-101462000D03*
X114600000Y-101462000D03*
X115050000Y-101462000D03*
D24*
X115500000Y-101462000D03*
X115950000Y-101462000D03*
X116400000Y-101462000D03*
X116850000Y-101462000D03*
X117300000Y-101462000D03*
D25*
X117750000Y-101462000D03*
X118200000Y-101462000D03*
X119100000Y-101462000D03*
X119550000Y-101462000D03*
X120000000Y-101462000D03*
X112800000Y-101912000D03*
X113250000Y-101912000D03*
X113700000Y-101912000D03*
D24*
X114600000Y-101912000D03*
X115050000Y-101912000D03*
D25*
X115500000Y-101912000D03*
X115950000Y-101912000D03*
X116400000Y-101912000D03*
X116850000Y-101912000D03*
X117300000Y-101912000D03*
D24*
X117750000Y-101912000D03*
X118200000Y-101912000D03*
D25*
X119100000Y-101912000D03*
X119550000Y-101912000D03*
X120000000Y-101912000D03*
X112800000Y-102362000D03*
D24*
X113250000Y-102362000D03*
D25*
X113700000Y-102362000D03*
D24*
X114600000Y-102362000D03*
X115050000Y-102362000D03*
D25*
X115500000Y-102362000D03*
X115950000Y-102362000D03*
X116400000Y-102362000D03*
X116850000Y-102362000D03*
X117300000Y-102362000D03*
D24*
X117750000Y-102362000D03*
X118200000Y-102362000D03*
D25*
X119100000Y-102362000D03*
D24*
X119550000Y-102362000D03*
D25*
X120000000Y-102362000D03*
X112800000Y-102812000D03*
X113250000Y-102812000D03*
X113700000Y-102812000D03*
D24*
X114600000Y-102812000D03*
X115050000Y-102812000D03*
D25*
X115500000Y-102812000D03*
X115950000Y-102812000D03*
X116400000Y-102812000D03*
X116850000Y-102812000D03*
X117300000Y-102812000D03*
D24*
X117750000Y-102812000D03*
X118200000Y-102812000D03*
D25*
X119100000Y-102812000D03*
X119550000Y-102812000D03*
X120000000Y-102812000D03*
X112800000Y-103262000D03*
X113250000Y-103262000D03*
X113700000Y-103262000D03*
X114600000Y-103262000D03*
X115050000Y-103262000D03*
D24*
X115500000Y-103262000D03*
X115950000Y-103262000D03*
X116400000Y-103262000D03*
X116850000Y-103262000D03*
X117300000Y-103262000D03*
X117750000Y-103262000D03*
D25*
X118200000Y-103262000D03*
X119100000Y-103262000D03*
X119550000Y-103262000D03*
X120000000Y-103262000D03*
X112800000Y-103712000D03*
D24*
X113250000Y-103712000D03*
D25*
X113700000Y-103712000D03*
X114600000Y-103712000D03*
X115050000Y-103712000D03*
D24*
X115500000Y-103712000D03*
X115950000Y-103712000D03*
X116400000Y-103712000D03*
X116850000Y-103712000D03*
D25*
X117300000Y-103712000D03*
X117750000Y-103712000D03*
X118200000Y-103712000D03*
D24*
X119100000Y-103712000D03*
X119550000Y-103712000D03*
X120000000Y-103712000D03*
D25*
X112800000Y-104162000D03*
X113250000Y-104162000D03*
X113700000Y-104162000D03*
D24*
X119100000Y-104162000D03*
X119550000Y-104162000D03*
X120000000Y-104162000D03*
D25*
X112800000Y-104612000D03*
X113250000Y-104612000D03*
X113700000Y-104612000D03*
X114150000Y-104612000D03*
X114600000Y-104612000D03*
X115050000Y-104612000D03*
X115500000Y-104612000D03*
X115950000Y-104612000D03*
X116400000Y-104612000D03*
X116850000Y-104612000D03*
X117300000Y-104612000D03*
X117750000Y-104612000D03*
X118200000Y-104612000D03*
D24*
X118650000Y-104612000D03*
X119100000Y-104612000D03*
X119550000Y-104612000D03*
X120000000Y-104612000D03*
D25*
X112800000Y-105062000D03*
D24*
X113250000Y-105062000D03*
D25*
X113700000Y-105062000D03*
D24*
X114150000Y-105062000D03*
D25*
X114600000Y-105062000D03*
D24*
X115050000Y-105062000D03*
D25*
X115500000Y-105062000D03*
D24*
X115950000Y-105062000D03*
D25*
X116400000Y-105062000D03*
D24*
X116850000Y-105062000D03*
D25*
X117300000Y-105062000D03*
X117750000Y-105062000D03*
D24*
X118200000Y-105062000D03*
X118650000Y-105062000D03*
X119100000Y-105062000D03*
D25*
X119550000Y-105062000D03*
X120000000Y-105062000D03*
D24*
X112800000Y-105512000D03*
D25*
X113250000Y-105512000D03*
D24*
X113700000Y-105512000D03*
D25*
X114150000Y-105512000D03*
D24*
X114600000Y-105512000D03*
X115050000Y-105512000D03*
X115500000Y-105512000D03*
D25*
X115950000Y-105512000D03*
X116400000Y-105512000D03*
X116850000Y-105512000D03*
X117300000Y-105512000D03*
X117750000Y-105512000D03*
D24*
X118200000Y-105512000D03*
X118650000Y-105512000D03*
X119100000Y-105512000D03*
D25*
X119550000Y-105512000D03*
X120000000Y-105512000D03*
%TD*%
D23*
%TO.C,R32*%
X106577100Y-98062000D03*
X107597100Y-98062000D03*
%TD*%
D26*
%TO.C,Y1*%
X111385000Y-109537000D03*
X113235000Y-109537000D03*
X113235000Y-108087000D03*
X111385000Y-108087000D03*
%TD*%
D15*
%TO.C,R16*%
X112130000Y-110670000D03*
X111110000Y-110670000D03*
%TD*%
D27*
%TO.C,U3*%
X124006999Y-108452000D03*
X124406999Y-108452000D03*
X124006999Y-108852000D03*
D28*
X124406999Y-108852000D03*
%TD*%
D29*
%TO.C,C33*%
X127570000Y-100649200D03*
X126610000Y-100649200D03*
%TD*%
D30*
%TO.C,SW1*%
X103988400Y-110490000D03*
X107388400Y-110490000D03*
%TD*%
D31*
%TO.C,U2*%
X129870000Y-104799500D03*
X130270000Y-104799500D03*
X130670000Y-104799500D03*
X131070000Y-104799500D03*
X131470000Y-104799500D03*
X131870000Y-104799500D03*
X132270000Y-104799500D03*
X132670000Y-104799500D03*
X133070000Y-104799500D03*
X133470000Y-104799500D03*
D32*
X134107500Y-104162000D03*
X134107500Y-103762000D03*
X134107500Y-103362000D03*
X134107500Y-102962000D03*
X134107500Y-102562000D03*
X134107500Y-102162000D03*
X134107500Y-101762000D03*
X134107500Y-101362000D03*
X134107500Y-100962000D03*
X134107500Y-100562000D03*
D31*
X133470000Y-99924500D03*
X133070000Y-99924500D03*
X132670000Y-99924500D03*
X132270000Y-99924500D03*
X131870000Y-99924500D03*
X131470000Y-99924500D03*
X131070000Y-99924500D03*
X130670000Y-99924500D03*
X130270000Y-99924500D03*
X129870000Y-99924500D03*
D32*
X129232500Y-100562000D03*
X129232500Y-100962000D03*
X129232500Y-101362000D03*
X129232500Y-101762000D03*
X129232500Y-102162000D03*
X129232500Y-102562000D03*
X129232500Y-102962000D03*
X129232500Y-103362000D03*
X129232500Y-103762000D03*
X129232500Y-104162000D03*
D33*
X131670000Y-102362000D03*
%TD*%
D20*
%TO.C,R30*%
X135629200Y-106452001D03*
X135629200Y-107471999D03*
%TD*%
D19*
%TO.C,TP6*%
X120400000Y-110292000D03*
%TD*%
D29*
%TO.C,C37*%
X107593400Y-106932000D03*
X106633400Y-106932000D03*
%TD*%
D34*
%TO.C,C11*%
X115210000Y-106962000D03*
X115850000Y-106962000D03*
%TD*%
D22*
%TO.C,C28*%
X130310000Y-97332000D03*
X131270000Y-97332000D03*
%TD*%
D23*
%TO.C,R17*%
X112500001Y-106962000D03*
X113519999Y-106962000D03*
%TD*%
D21*
%TO.C,C31*%
X127550000Y-102962000D03*
X127550000Y-103922000D03*
%TD*%
D16*
%TO.C,H2*%
X134935000Y-87755000D03*
%TD*%
M02*
