%TF.GenerationSoftware,KiCad,Pcbnew,10.0.3*%
%TF.CreationDate,2026-05-19T16:31:27-04:00*%
%TF.ProjectId,EfficientStamp,45666669-6369-4656-9e74-5374616d702e,v1.0*%
%TF.SameCoordinates,Original*%
%TF.FileFunction,Paste,Bot*%
%TF.FilePolarity,Positive*%
%FSLAX46Y46*%
G04 Gerber Fmt 4.6, Leading zero omitted, Abs format (unit mm)*
G04 Created by KiCad (PCBNEW 10.0.3) date 2026-05-19 16:31:27*
%MOMM*%
%LPD*%
G01*
G04 APERTURE LIST*
G04 Aperture macros list*
%AMRoundRect*
0 Rectangle with rounded corners*
0 $1 Rounding radius*
0 $2 $3 $4 $5 $6 $7 $8 $9 X,Y pos of 4 corners*
0 Add a 4 corners polygon primitive as box body*
4,1,4,$2,$3,$4,$5,$6,$7,$8,$9,$2,$3,0*
0 Add four circle primitives for the rounded corners*
1,1,$1+$1,$2,$3*
1,1,$1+$1,$4,$5*
1,1,$1+$1,$6,$7*
1,1,$1+$1,$8,$9*
0 Add four rect primitives between the rounded corners*
20,1,$1+$1,$2,$3,$4,$5,0*
20,1,$1+$1,$4,$5,$6,$7,0*
20,1,$1+$1,$6,$7,$8,$9,0*
20,1,$1+$1,$8,$9,$2,$3,0*%
G04 Aperture macros list end*
%ADD10C,0.010000*%
%ADD11RoundRect,0.135000X0.135000X0.185000X-0.135000X0.185000X-0.135000X-0.185000X0.135000X-0.185000X0*%
%ADD12RoundRect,0.135000X0.185000X-0.135000X0.185000X0.135000X-0.185000X0.135000X-0.185000X-0.135000X0*%
%ADD13RoundRect,0.079500X0.100500X-0.079500X0.100500X0.079500X-0.100500X0.079500X-0.100500X-0.079500X0*%
%ADD14RoundRect,0.135000X-0.135000X-0.185000X0.135000X-0.185000X0.135000X0.185000X-0.135000X0.185000X0*%
%ADD15RoundRect,0.079500X-0.100500X0.079500X-0.100500X-0.079500X0.100500X-0.079500X0.100500X0.079500X0*%
%ADD16RoundRect,0.135000X-0.185000X0.135000X-0.185000X-0.135000X0.185000X-0.135000X0.185000X0.135000X0*%
%ADD17R,0.800000X1.000000*%
%ADD18RoundRect,0.079500X-0.079500X-0.100500X0.079500X-0.100500X0.079500X0.100500X-0.079500X0.100500X0*%
%ADD19RoundRect,0.079500X0.079500X0.100500X-0.079500X0.100500X-0.079500X-0.100500X0.079500X-0.100500X0*%
%ADD20RoundRect,0.140000X-0.140000X-0.170000X0.140000X-0.170000X0.140000X0.170000X-0.140000X0.170000X0*%
%ADD21RoundRect,0.140000X0.140000X0.170000X-0.140000X0.170000X-0.140000X-0.170000X0.140000X-0.170000X0*%
%ADD22RoundRect,0.225000X-0.250000X0.225000X-0.250000X-0.225000X0.250000X-0.225000X0.250000X0.225000X0*%
%ADD23RoundRect,0.250000X-0.475000X0.250000X-0.475000X-0.250000X0.475000X-0.250000X0.475000X0.250000X0*%
G04 APERTURE END LIST*
D10*
%TO.C,J4*%
X113212000Y-115317000D02*
X112899000Y-115317000D01*
X112899000Y-115907000D01*
X113212000Y-115907000D01*
X113212000Y-115317000D01*
G36*
X113212000Y-115907000D02*
G01*
X112899000Y-115907000D01*
X112899000Y-115317000D01*
X113212000Y-115317000D01*
X113212000Y-115907000D01*
G37*
X113212000Y-118027000D02*
X112899000Y-118027000D01*
X112899000Y-118617000D01*
X113212000Y-118617000D01*
X113212000Y-118027000D01*
G36*
X113212000Y-118617000D02*
G01*
X112899000Y-118617000D01*
X112899000Y-118027000D01*
X113212000Y-118027000D01*
X113212000Y-118617000D01*
G37*
X113632500Y-115317000D02*
X113427500Y-115317000D01*
X113427500Y-115907000D01*
X113632500Y-115907000D01*
X113632500Y-115317000D01*
G36*
X113632500Y-115907000D02*
G01*
X113427500Y-115907000D01*
X113427500Y-115317000D01*
X113632500Y-115317000D01*
X113632500Y-115907000D01*
G37*
X113632500Y-118027000D02*
X113427500Y-118027000D01*
X113427500Y-118617000D01*
X113632500Y-118617000D01*
X113632500Y-118027000D01*
G36*
X113632500Y-118617000D02*
G01*
X113427500Y-118617000D01*
X113427500Y-118027000D01*
X113632500Y-118027000D01*
X113632500Y-118617000D01*
G37*
X114032500Y-115317000D02*
X113827500Y-115317000D01*
X113827500Y-115907000D01*
X114032500Y-115907000D01*
X114032500Y-115317000D01*
G36*
X114032500Y-115907000D02*
G01*
X113827500Y-115907000D01*
X113827500Y-115317000D01*
X114032500Y-115317000D01*
X114032500Y-115907000D01*
G37*
X114032500Y-118027000D02*
X113827500Y-118027000D01*
X113827500Y-118617000D01*
X114032500Y-118617000D01*
X114032500Y-118027000D01*
G36*
X114032500Y-118617000D02*
G01*
X113827500Y-118617000D01*
X113827500Y-118027000D01*
X114032500Y-118027000D01*
X114032500Y-118617000D01*
G37*
X114432500Y-115317000D02*
X114227500Y-115317000D01*
X114227500Y-115907000D01*
X114432500Y-115907000D01*
X114432500Y-115317000D01*
G36*
X114432500Y-115907000D02*
G01*
X114227500Y-115907000D01*
X114227500Y-115317000D01*
X114432500Y-115317000D01*
X114432500Y-115907000D01*
G37*
X114432500Y-118027000D02*
X114227500Y-118027000D01*
X114227500Y-118617000D01*
X114432500Y-118617000D01*
X114432500Y-118027000D01*
G36*
X114432500Y-118617000D02*
G01*
X114227500Y-118617000D01*
X114227500Y-118027000D01*
X114432500Y-118027000D01*
X114432500Y-118617000D01*
G37*
X114832500Y-115317000D02*
X114627500Y-115317000D01*
X114627500Y-115907000D01*
X114832500Y-115907000D01*
X114832500Y-115317000D01*
G36*
X114832500Y-115907000D02*
G01*
X114627500Y-115907000D01*
X114627500Y-115317000D01*
X114832500Y-115317000D01*
X114832500Y-115907000D01*
G37*
X114832500Y-118027000D02*
X114627500Y-118027000D01*
X114627500Y-118617000D01*
X114832500Y-118617000D01*
X114832500Y-118027000D01*
G36*
X114832500Y-118617000D02*
G01*
X114627500Y-118617000D01*
X114627500Y-118027000D01*
X114832500Y-118027000D01*
X114832500Y-118617000D01*
G37*
X115232500Y-115317000D02*
X115027500Y-115317000D01*
X115027500Y-115907000D01*
X115232500Y-115907000D01*
X115232500Y-115317000D01*
G36*
X115232500Y-115907000D02*
G01*
X115027500Y-115907000D01*
X115027500Y-115317000D01*
X115232500Y-115317000D01*
X115232500Y-115907000D01*
G37*
X115232500Y-118027000D02*
X115027500Y-118027000D01*
X115027500Y-118617000D01*
X115232500Y-118617000D01*
X115232500Y-118027000D01*
G36*
X115232500Y-118617000D02*
G01*
X115027500Y-118617000D01*
X115027500Y-118027000D01*
X115232500Y-118027000D01*
X115232500Y-118617000D01*
G37*
X115632500Y-115317000D02*
X115427500Y-115317000D01*
X115427500Y-115907000D01*
X115632500Y-115907000D01*
X115632500Y-115317000D01*
G36*
X115632500Y-115907000D02*
G01*
X115427500Y-115907000D01*
X115427500Y-115317000D01*
X115632500Y-115317000D01*
X115632500Y-115907000D01*
G37*
X115632500Y-118027000D02*
X115427500Y-118027000D01*
X115427500Y-118617000D01*
X115632500Y-118617000D01*
X115632500Y-118027000D01*
G36*
X115632500Y-118617000D02*
G01*
X115427500Y-118617000D01*
X115427500Y-118027000D01*
X115632500Y-118027000D01*
X115632500Y-118617000D01*
G37*
X116032500Y-115317000D02*
X115827500Y-115317000D01*
X115827500Y-115907000D01*
X116032500Y-115907000D01*
X116032500Y-115317000D01*
G36*
X116032500Y-115907000D02*
G01*
X115827500Y-115907000D01*
X115827500Y-115317000D01*
X116032500Y-115317000D01*
X116032500Y-115907000D01*
G37*
X116032500Y-118027000D02*
X115827500Y-118027000D01*
X115827500Y-118617000D01*
X116032500Y-118617000D01*
X116032500Y-118027000D01*
G36*
X116032500Y-118617000D02*
G01*
X115827500Y-118617000D01*
X115827500Y-118027000D01*
X116032500Y-118027000D01*
X116032500Y-118617000D01*
G37*
X116432500Y-115317000D02*
X116227500Y-115317000D01*
X116227500Y-115907000D01*
X116432500Y-115907000D01*
X116432500Y-115317000D01*
G36*
X116432500Y-115907000D02*
G01*
X116227500Y-115907000D01*
X116227500Y-115317000D01*
X116432500Y-115317000D01*
X116432500Y-115907000D01*
G37*
X116432500Y-118027000D02*
X116227500Y-118027000D01*
X116227500Y-118617000D01*
X116432500Y-118617000D01*
X116432500Y-118027000D01*
G36*
X116432500Y-118617000D02*
G01*
X116227500Y-118617000D01*
X116227500Y-118027000D01*
X116432500Y-118027000D01*
X116432500Y-118617000D01*
G37*
X116832500Y-115317000D02*
X116627500Y-115317000D01*
X116627500Y-115907000D01*
X116832500Y-115907000D01*
X116832500Y-115317000D01*
G36*
X116832500Y-115907000D02*
G01*
X116627500Y-115907000D01*
X116627500Y-115317000D01*
X116832500Y-115317000D01*
X116832500Y-115907000D01*
G37*
X116832500Y-118027000D02*
X116627500Y-118027000D01*
X116627500Y-118617000D01*
X116832500Y-118617000D01*
X116832500Y-118027000D01*
G36*
X116832500Y-118617000D02*
G01*
X116627500Y-118617000D01*
X116627500Y-118027000D01*
X116832500Y-118027000D01*
X116832500Y-118617000D01*
G37*
X117232500Y-115317000D02*
X117027500Y-115317000D01*
X117027500Y-115907000D01*
X117232500Y-115907000D01*
X117232500Y-115317000D01*
G36*
X117232500Y-115907000D02*
G01*
X117027500Y-115907000D01*
X117027500Y-115317000D01*
X117232500Y-115317000D01*
X117232500Y-115907000D01*
G37*
X117232500Y-118027000D02*
X117027500Y-118027000D01*
X117027500Y-118617000D01*
X117232500Y-118617000D01*
X117232500Y-118027000D01*
G36*
X117232500Y-118617000D02*
G01*
X117027500Y-118617000D01*
X117027500Y-118027000D01*
X117232500Y-118027000D01*
X117232500Y-118617000D01*
G37*
X117632500Y-115317000D02*
X117427500Y-115317000D01*
X117427500Y-115907000D01*
X117632500Y-115907000D01*
X117632500Y-115317000D01*
G36*
X117632500Y-115907000D02*
G01*
X117427500Y-115907000D01*
X117427500Y-115317000D01*
X117632500Y-115317000D01*
X117632500Y-115907000D01*
G37*
X117632500Y-118027000D02*
X117427500Y-118027000D01*
X117427500Y-118617000D01*
X117632500Y-118617000D01*
X117632500Y-118027000D01*
G36*
X117632500Y-118617000D02*
G01*
X117427500Y-118617000D01*
X117427500Y-118027000D01*
X117632500Y-118027000D01*
X117632500Y-118617000D01*
G37*
X118032500Y-115317000D02*
X117827500Y-115317000D01*
X117827500Y-115907000D01*
X118032500Y-115907000D01*
X118032500Y-115317000D01*
G36*
X118032500Y-115907000D02*
G01*
X117827500Y-115907000D01*
X117827500Y-115317000D01*
X118032500Y-115317000D01*
X118032500Y-115907000D01*
G37*
X118032500Y-118027000D02*
X117827500Y-118027000D01*
X117827500Y-118617000D01*
X118032500Y-118617000D01*
X118032500Y-118027000D01*
G36*
X118032500Y-118617000D02*
G01*
X117827500Y-118617000D01*
X117827500Y-118027000D01*
X118032500Y-118027000D01*
X118032500Y-118617000D01*
G37*
X118432500Y-115317000D02*
X118227500Y-115317000D01*
X118227500Y-115907000D01*
X118432500Y-115907000D01*
X118432500Y-115317000D01*
G36*
X118432500Y-115907000D02*
G01*
X118227500Y-115907000D01*
X118227500Y-115317000D01*
X118432500Y-115317000D01*
X118432500Y-115907000D01*
G37*
X118432500Y-118027000D02*
X118227500Y-118027000D01*
X118227500Y-118617000D01*
X118432500Y-118617000D01*
X118432500Y-118027000D01*
G36*
X118432500Y-118617000D02*
G01*
X118227500Y-118617000D01*
X118227500Y-118027000D01*
X118432500Y-118027000D01*
X118432500Y-118617000D01*
G37*
X118832500Y-115317000D02*
X118627500Y-115317000D01*
X118627500Y-115907000D01*
X118832500Y-115907000D01*
X118832500Y-115317000D01*
G36*
X118832500Y-115907000D02*
G01*
X118627500Y-115907000D01*
X118627500Y-115317000D01*
X118832500Y-115317000D01*
X118832500Y-115907000D01*
G37*
X118832500Y-118027000D02*
X118627500Y-118027000D01*
X118627500Y-118617000D01*
X118832500Y-118617000D01*
X118832500Y-118027000D01*
G36*
X118832500Y-118617000D02*
G01*
X118627500Y-118617000D01*
X118627500Y-118027000D01*
X118832500Y-118027000D01*
X118832500Y-118617000D01*
G37*
X119232500Y-115317000D02*
X119027500Y-115317000D01*
X119027500Y-115907000D01*
X119232500Y-115907000D01*
X119232500Y-115317000D01*
G36*
X119232500Y-115907000D02*
G01*
X119027500Y-115907000D01*
X119027500Y-115317000D01*
X119232500Y-115317000D01*
X119232500Y-115907000D01*
G37*
X119232500Y-118027000D02*
X119027500Y-118027000D01*
X119027500Y-118617000D01*
X119232500Y-118617000D01*
X119232500Y-118027000D01*
G36*
X119232500Y-118617000D02*
G01*
X119027500Y-118617000D01*
X119027500Y-118027000D01*
X119232500Y-118027000D01*
X119232500Y-118617000D01*
G37*
X119632500Y-115317000D02*
X119427500Y-115317000D01*
X119427500Y-115907000D01*
X119632500Y-115907000D01*
X119632500Y-115317000D01*
G36*
X119632500Y-115907000D02*
G01*
X119427500Y-115907000D01*
X119427500Y-115317000D01*
X119632500Y-115317000D01*
X119632500Y-115907000D01*
G37*
X119632500Y-118027000D02*
X119427500Y-118027000D01*
X119427500Y-118617000D01*
X119632500Y-118617000D01*
X119632500Y-118027000D01*
G36*
X119632500Y-118617000D02*
G01*
X119427500Y-118617000D01*
X119427500Y-118027000D01*
X119632500Y-118027000D01*
X119632500Y-118617000D01*
G37*
X120032500Y-115317000D02*
X119827500Y-115317000D01*
X119827500Y-115907000D01*
X120032500Y-115907000D01*
X120032500Y-115317000D01*
G36*
X120032500Y-115907000D02*
G01*
X119827500Y-115907000D01*
X119827500Y-115317000D01*
X120032500Y-115317000D01*
X120032500Y-115907000D01*
G37*
X120032500Y-118027000D02*
X119827500Y-118027000D01*
X119827500Y-118617000D01*
X120032500Y-118617000D01*
X120032500Y-118027000D01*
G36*
X120032500Y-118617000D02*
G01*
X119827500Y-118617000D01*
X119827500Y-118027000D01*
X120032500Y-118027000D01*
X120032500Y-118617000D01*
G37*
X120432500Y-115317000D02*
X120227500Y-115317000D01*
X120227500Y-115907000D01*
X120432500Y-115907000D01*
X120432500Y-115317000D01*
G36*
X120432500Y-115907000D02*
G01*
X120227500Y-115907000D01*
X120227500Y-115317000D01*
X120432500Y-115317000D01*
X120432500Y-115907000D01*
G37*
X120432500Y-118027000D02*
X120227500Y-118027000D01*
X120227500Y-118617000D01*
X120432500Y-118617000D01*
X120432500Y-118027000D01*
G36*
X120432500Y-118617000D02*
G01*
X120227500Y-118617000D01*
X120227500Y-118027000D01*
X120432500Y-118027000D01*
X120432500Y-118617000D01*
G37*
X120832500Y-115317000D02*
X120627500Y-115317000D01*
X120627500Y-115907000D01*
X120832500Y-115907000D01*
X120832500Y-115317000D01*
G36*
X120832500Y-115907000D02*
G01*
X120627500Y-115907000D01*
X120627500Y-115317000D01*
X120832500Y-115317000D01*
X120832500Y-115907000D01*
G37*
X120832500Y-118027000D02*
X120627500Y-118027000D01*
X120627500Y-118617000D01*
X120832500Y-118617000D01*
X120832500Y-118027000D01*
G36*
X120832500Y-118617000D02*
G01*
X120627500Y-118617000D01*
X120627500Y-118027000D01*
X120832500Y-118027000D01*
X120832500Y-118617000D01*
G37*
X121232500Y-115317000D02*
X121027500Y-115317000D01*
X121027500Y-115907000D01*
X121232500Y-115907000D01*
X121232500Y-115317000D01*
G36*
X121232500Y-115907000D02*
G01*
X121027500Y-115907000D01*
X121027500Y-115317000D01*
X121232500Y-115317000D01*
X121232500Y-115907000D01*
G37*
X121232500Y-118027000D02*
X121027500Y-118027000D01*
X121027500Y-118617000D01*
X121232500Y-118617000D01*
X121232500Y-118027000D01*
G36*
X121232500Y-118617000D02*
G01*
X121027500Y-118617000D01*
X121027500Y-118027000D01*
X121232500Y-118027000D01*
X121232500Y-118617000D01*
G37*
X121632500Y-115317000D02*
X121427500Y-115317000D01*
X121427500Y-115907000D01*
X121632500Y-115907000D01*
X121632500Y-115317000D01*
G36*
X121632500Y-115907000D02*
G01*
X121427500Y-115907000D01*
X121427500Y-115317000D01*
X121632500Y-115317000D01*
X121632500Y-115907000D01*
G37*
X121632500Y-118027000D02*
X121427500Y-118027000D01*
X121427500Y-118617000D01*
X121632500Y-118617000D01*
X121632500Y-118027000D01*
G36*
X121632500Y-118617000D02*
G01*
X121427500Y-118617000D01*
X121427500Y-118027000D01*
X121632500Y-118027000D01*
X121632500Y-118617000D01*
G37*
X122032500Y-115317000D02*
X121827500Y-115317000D01*
X121827500Y-115907000D01*
X122032500Y-115907000D01*
X122032500Y-115317000D01*
G36*
X122032500Y-115907000D02*
G01*
X121827500Y-115907000D01*
X121827500Y-115317000D01*
X122032500Y-115317000D01*
X122032500Y-115907000D01*
G37*
X122032500Y-118027000D02*
X121827500Y-118027000D01*
X121827500Y-118617000D01*
X122032500Y-118617000D01*
X122032500Y-118027000D01*
G36*
X122032500Y-118617000D02*
G01*
X121827500Y-118617000D01*
X121827500Y-118027000D01*
X122032500Y-118027000D01*
X122032500Y-118617000D01*
G37*
X122432500Y-115317000D02*
X122227500Y-115317000D01*
X122227500Y-115907000D01*
X122432500Y-115907000D01*
X122432500Y-115317000D01*
G36*
X122432500Y-115907000D02*
G01*
X122227500Y-115907000D01*
X122227500Y-115317000D01*
X122432500Y-115317000D01*
X122432500Y-115907000D01*
G37*
X122432500Y-118027000D02*
X122227500Y-118027000D01*
X122227500Y-118617000D01*
X122432500Y-118617000D01*
X122432500Y-118027000D01*
G36*
X122432500Y-118617000D02*
G01*
X122227500Y-118617000D01*
X122227500Y-118027000D01*
X122432500Y-118027000D01*
X122432500Y-118617000D01*
G37*
X122832500Y-115317000D02*
X122627500Y-115317000D01*
X122627500Y-115907000D01*
X122832500Y-115907000D01*
X122832500Y-115317000D01*
G36*
X122832500Y-115907000D02*
G01*
X122627500Y-115907000D01*
X122627500Y-115317000D01*
X122832500Y-115317000D01*
X122832500Y-115907000D01*
G37*
X122832500Y-118027000D02*
X122627500Y-118027000D01*
X122627500Y-118617000D01*
X122832500Y-118617000D01*
X122832500Y-118027000D01*
G36*
X122832500Y-118617000D02*
G01*
X122627500Y-118617000D01*
X122627500Y-118027000D01*
X122832500Y-118027000D01*
X122832500Y-118617000D01*
G37*
X123232500Y-115317000D02*
X123027500Y-115317000D01*
X123027500Y-115907000D01*
X123232500Y-115907000D01*
X123232500Y-115317000D01*
G36*
X123232500Y-115907000D02*
G01*
X123027500Y-115907000D01*
X123027500Y-115317000D01*
X123232500Y-115317000D01*
X123232500Y-115907000D01*
G37*
X123232500Y-118027000D02*
X123027500Y-118027000D01*
X123027500Y-118617000D01*
X123232500Y-118617000D01*
X123232500Y-118027000D01*
G36*
X123232500Y-118617000D02*
G01*
X123027500Y-118617000D01*
X123027500Y-118027000D01*
X123232500Y-118027000D01*
X123232500Y-118617000D01*
G37*
X123632500Y-115317000D02*
X123427500Y-115317000D01*
X123427500Y-115907000D01*
X123632500Y-115907000D01*
X123632500Y-115317000D01*
G36*
X123632500Y-115907000D02*
G01*
X123427500Y-115907000D01*
X123427500Y-115317000D01*
X123632500Y-115317000D01*
X123632500Y-115907000D01*
G37*
X123632500Y-118027000D02*
X123427500Y-118027000D01*
X123427500Y-118617000D01*
X123632500Y-118617000D01*
X123632500Y-118027000D01*
G36*
X123632500Y-118617000D02*
G01*
X123427500Y-118617000D01*
X123427500Y-118027000D01*
X123632500Y-118027000D01*
X123632500Y-118617000D01*
G37*
X124032500Y-115317000D02*
X123827500Y-115317000D01*
X123827500Y-115907000D01*
X124032500Y-115907000D01*
X124032500Y-115317000D01*
G36*
X124032500Y-115907000D02*
G01*
X123827500Y-115907000D01*
X123827500Y-115317000D01*
X124032500Y-115317000D01*
X124032500Y-115907000D01*
G37*
X124032500Y-118027000D02*
X123827500Y-118027000D01*
X123827500Y-118617000D01*
X124032500Y-118617000D01*
X124032500Y-118027000D01*
G36*
X124032500Y-118617000D02*
G01*
X123827500Y-118617000D01*
X123827500Y-118027000D01*
X124032500Y-118027000D01*
X124032500Y-118617000D01*
G37*
X124432500Y-115317000D02*
X124227500Y-115317000D01*
X124227500Y-115907000D01*
X124432500Y-115907000D01*
X124432500Y-115317000D01*
G36*
X124432500Y-115907000D02*
G01*
X124227500Y-115907000D01*
X124227500Y-115317000D01*
X124432500Y-115317000D01*
X124432500Y-115907000D01*
G37*
X124432500Y-118027000D02*
X124227500Y-118027000D01*
X124227500Y-118617000D01*
X124432500Y-118617000D01*
X124432500Y-118027000D01*
G36*
X124432500Y-118617000D02*
G01*
X124227500Y-118617000D01*
X124227500Y-118027000D01*
X124432500Y-118027000D01*
X124432500Y-118617000D01*
G37*
X124832500Y-115317000D02*
X124627500Y-115317000D01*
X124627500Y-115907000D01*
X124832500Y-115907000D01*
X124832500Y-115317000D01*
G36*
X124832500Y-115907000D02*
G01*
X124627500Y-115907000D01*
X124627500Y-115317000D01*
X124832500Y-115317000D01*
X124832500Y-115907000D01*
G37*
X124832500Y-118027000D02*
X124627500Y-118027000D01*
X124627500Y-118617000D01*
X124832500Y-118617000D01*
X124832500Y-118027000D01*
G36*
X124832500Y-118617000D02*
G01*
X124627500Y-118617000D01*
X124627500Y-118027000D01*
X124832500Y-118027000D01*
X124832500Y-118617000D01*
G37*
X125232500Y-115317000D02*
X125027500Y-115317000D01*
X125027500Y-115907000D01*
X125232500Y-115907000D01*
X125232500Y-115317000D01*
G36*
X125232500Y-115907000D02*
G01*
X125027500Y-115907000D01*
X125027500Y-115317000D01*
X125232500Y-115317000D01*
X125232500Y-115907000D01*
G37*
X125232500Y-118027000D02*
X125027500Y-118027000D01*
X125027500Y-118617000D01*
X125232500Y-118617000D01*
X125232500Y-118027000D01*
G36*
X125232500Y-118617000D02*
G01*
X125027500Y-118617000D01*
X125027500Y-118027000D01*
X125232500Y-118027000D01*
X125232500Y-118617000D01*
G37*
X125632500Y-115317000D02*
X125427500Y-115317000D01*
X125427500Y-115907000D01*
X125632500Y-115907000D01*
X125632500Y-115317000D01*
G36*
X125632500Y-115907000D02*
G01*
X125427500Y-115907000D01*
X125427500Y-115317000D01*
X125632500Y-115317000D01*
X125632500Y-115907000D01*
G37*
X125632500Y-118027000D02*
X125427500Y-118027000D01*
X125427500Y-118617000D01*
X125632500Y-118617000D01*
X125632500Y-118027000D01*
G36*
X125632500Y-118617000D02*
G01*
X125427500Y-118617000D01*
X125427500Y-118027000D01*
X125632500Y-118027000D01*
X125632500Y-118617000D01*
G37*
X126032500Y-115317000D02*
X125827500Y-115317000D01*
X125827500Y-115907000D01*
X126032500Y-115907000D01*
X126032500Y-115317000D01*
G36*
X126032500Y-115907000D02*
G01*
X125827500Y-115907000D01*
X125827500Y-115317000D01*
X126032500Y-115317000D01*
X126032500Y-115907000D01*
G37*
X126032500Y-118027000D02*
X125827500Y-118027000D01*
X125827500Y-118617000D01*
X126032500Y-118617000D01*
X126032500Y-118027000D01*
G36*
X126032500Y-118617000D02*
G01*
X125827500Y-118617000D01*
X125827500Y-118027000D01*
X126032500Y-118027000D01*
X126032500Y-118617000D01*
G37*
X126432500Y-115317000D02*
X126227500Y-115317000D01*
X126227500Y-115907000D01*
X126432500Y-115907000D01*
X126432500Y-115317000D01*
G36*
X126432500Y-115907000D02*
G01*
X126227500Y-115907000D01*
X126227500Y-115317000D01*
X126432500Y-115317000D01*
X126432500Y-115907000D01*
G37*
X126432500Y-118027000D02*
X126227500Y-118027000D01*
X126227500Y-118617000D01*
X126432500Y-118617000D01*
X126432500Y-118027000D01*
G36*
X126432500Y-118617000D02*
G01*
X126227500Y-118617000D01*
X126227500Y-118027000D01*
X126432500Y-118027000D01*
X126432500Y-118617000D01*
G37*
X126832500Y-115317000D02*
X126627500Y-115317000D01*
X126627500Y-115907000D01*
X126832500Y-115907000D01*
X126832500Y-115317000D01*
G36*
X126832500Y-115907000D02*
G01*
X126627500Y-115907000D01*
X126627500Y-115317000D01*
X126832500Y-115317000D01*
X126832500Y-115907000D01*
G37*
X126832500Y-118027000D02*
X126627500Y-118027000D01*
X126627500Y-118617000D01*
X126832500Y-118617000D01*
X126832500Y-118027000D01*
G36*
X126832500Y-118617000D02*
G01*
X126627500Y-118617000D01*
X126627500Y-118027000D01*
X126832500Y-118027000D01*
X126832500Y-118617000D01*
G37*
X127232500Y-115317000D02*
X127027500Y-115317000D01*
X127027500Y-115907000D01*
X127232500Y-115907000D01*
X127232500Y-115317000D01*
G36*
X127232500Y-115907000D02*
G01*
X127027500Y-115907000D01*
X127027500Y-115317000D01*
X127232500Y-115317000D01*
X127232500Y-115907000D01*
G37*
X127232500Y-118027000D02*
X127027500Y-118027000D01*
X127027500Y-118617000D01*
X127232500Y-118617000D01*
X127232500Y-118027000D01*
G36*
X127232500Y-118617000D02*
G01*
X127027500Y-118617000D01*
X127027500Y-118027000D01*
X127232500Y-118027000D01*
X127232500Y-118617000D01*
G37*
X127762000Y-115317000D02*
X127449000Y-115317000D01*
X127449000Y-115907000D01*
X127762000Y-115907000D01*
X127762000Y-115317000D01*
G36*
X127762000Y-115907000D02*
G01*
X127449000Y-115907000D01*
X127449000Y-115317000D01*
X127762000Y-115317000D01*
X127762000Y-115907000D01*
G37*
X127762000Y-118027000D02*
X127449000Y-118027000D01*
X127449000Y-118617000D01*
X127762000Y-118617000D01*
X127762000Y-118027000D01*
G36*
X127762000Y-118617000D02*
G01*
X127449000Y-118617000D01*
X127449000Y-118027000D01*
X127762000Y-118027000D01*
X127762000Y-118617000D01*
G37*
%TO.C,J3*%
X112898000Y-86697000D02*
X113211000Y-86697000D01*
X113211000Y-86107000D01*
X112898000Y-86107000D01*
X112898000Y-86697000D01*
G36*
X113211000Y-86697000D02*
G01*
X112898000Y-86697000D01*
X112898000Y-86107000D01*
X113211000Y-86107000D01*
X113211000Y-86697000D01*
G37*
X112898000Y-89407000D02*
X113211000Y-89407000D01*
X113211000Y-88817000D01*
X112898000Y-88817000D01*
X112898000Y-89407000D01*
G36*
X113211000Y-89407000D02*
G01*
X112898000Y-89407000D01*
X112898000Y-88817000D01*
X113211000Y-88817000D01*
X113211000Y-89407000D01*
G37*
X113427500Y-86697000D02*
X113632500Y-86697000D01*
X113632500Y-86107000D01*
X113427500Y-86107000D01*
X113427500Y-86697000D01*
G36*
X113632500Y-86697000D02*
G01*
X113427500Y-86697000D01*
X113427500Y-86107000D01*
X113632500Y-86107000D01*
X113632500Y-86697000D01*
G37*
X113427500Y-89407000D02*
X113632500Y-89407000D01*
X113632500Y-88817000D01*
X113427500Y-88817000D01*
X113427500Y-89407000D01*
G36*
X113632500Y-89407000D02*
G01*
X113427500Y-89407000D01*
X113427500Y-88817000D01*
X113632500Y-88817000D01*
X113632500Y-89407000D01*
G37*
X113827500Y-86697000D02*
X114032500Y-86697000D01*
X114032500Y-86107000D01*
X113827500Y-86107000D01*
X113827500Y-86697000D01*
G36*
X114032500Y-86697000D02*
G01*
X113827500Y-86697000D01*
X113827500Y-86107000D01*
X114032500Y-86107000D01*
X114032500Y-86697000D01*
G37*
X113827500Y-89407000D02*
X114032500Y-89407000D01*
X114032500Y-88817000D01*
X113827500Y-88817000D01*
X113827500Y-89407000D01*
G36*
X114032500Y-89407000D02*
G01*
X113827500Y-89407000D01*
X113827500Y-88817000D01*
X114032500Y-88817000D01*
X114032500Y-89407000D01*
G37*
X114227500Y-86697000D02*
X114432500Y-86697000D01*
X114432500Y-86107000D01*
X114227500Y-86107000D01*
X114227500Y-86697000D01*
G36*
X114432500Y-86697000D02*
G01*
X114227500Y-86697000D01*
X114227500Y-86107000D01*
X114432500Y-86107000D01*
X114432500Y-86697000D01*
G37*
X114227500Y-89407000D02*
X114432500Y-89407000D01*
X114432500Y-88817000D01*
X114227500Y-88817000D01*
X114227500Y-89407000D01*
G36*
X114432500Y-89407000D02*
G01*
X114227500Y-89407000D01*
X114227500Y-88817000D01*
X114432500Y-88817000D01*
X114432500Y-89407000D01*
G37*
X114627500Y-86697000D02*
X114832500Y-86697000D01*
X114832500Y-86107000D01*
X114627500Y-86107000D01*
X114627500Y-86697000D01*
G36*
X114832500Y-86697000D02*
G01*
X114627500Y-86697000D01*
X114627500Y-86107000D01*
X114832500Y-86107000D01*
X114832500Y-86697000D01*
G37*
X114627500Y-89407000D02*
X114832500Y-89407000D01*
X114832500Y-88817000D01*
X114627500Y-88817000D01*
X114627500Y-89407000D01*
G36*
X114832500Y-89407000D02*
G01*
X114627500Y-89407000D01*
X114627500Y-88817000D01*
X114832500Y-88817000D01*
X114832500Y-89407000D01*
G37*
X115027500Y-86697000D02*
X115232500Y-86697000D01*
X115232500Y-86107000D01*
X115027500Y-86107000D01*
X115027500Y-86697000D01*
G36*
X115232500Y-86697000D02*
G01*
X115027500Y-86697000D01*
X115027500Y-86107000D01*
X115232500Y-86107000D01*
X115232500Y-86697000D01*
G37*
X115027500Y-89407000D02*
X115232500Y-89407000D01*
X115232500Y-88817000D01*
X115027500Y-88817000D01*
X115027500Y-89407000D01*
G36*
X115232500Y-89407000D02*
G01*
X115027500Y-89407000D01*
X115027500Y-88817000D01*
X115232500Y-88817000D01*
X115232500Y-89407000D01*
G37*
X115427500Y-86697000D02*
X115632500Y-86697000D01*
X115632500Y-86107000D01*
X115427500Y-86107000D01*
X115427500Y-86697000D01*
G36*
X115632500Y-86697000D02*
G01*
X115427500Y-86697000D01*
X115427500Y-86107000D01*
X115632500Y-86107000D01*
X115632500Y-86697000D01*
G37*
X115427500Y-89407000D02*
X115632500Y-89407000D01*
X115632500Y-88817000D01*
X115427500Y-88817000D01*
X115427500Y-89407000D01*
G36*
X115632500Y-89407000D02*
G01*
X115427500Y-89407000D01*
X115427500Y-88817000D01*
X115632500Y-88817000D01*
X115632500Y-89407000D01*
G37*
X115827500Y-86697000D02*
X116032500Y-86697000D01*
X116032500Y-86107000D01*
X115827500Y-86107000D01*
X115827500Y-86697000D01*
G36*
X116032500Y-86697000D02*
G01*
X115827500Y-86697000D01*
X115827500Y-86107000D01*
X116032500Y-86107000D01*
X116032500Y-86697000D01*
G37*
X115827500Y-89407000D02*
X116032500Y-89407000D01*
X116032500Y-88817000D01*
X115827500Y-88817000D01*
X115827500Y-89407000D01*
G36*
X116032500Y-89407000D02*
G01*
X115827500Y-89407000D01*
X115827500Y-88817000D01*
X116032500Y-88817000D01*
X116032500Y-89407000D01*
G37*
X116227500Y-86697000D02*
X116432500Y-86697000D01*
X116432500Y-86107000D01*
X116227500Y-86107000D01*
X116227500Y-86697000D01*
G36*
X116432500Y-86697000D02*
G01*
X116227500Y-86697000D01*
X116227500Y-86107000D01*
X116432500Y-86107000D01*
X116432500Y-86697000D01*
G37*
X116227500Y-89407000D02*
X116432500Y-89407000D01*
X116432500Y-88817000D01*
X116227500Y-88817000D01*
X116227500Y-89407000D01*
G36*
X116432500Y-89407000D02*
G01*
X116227500Y-89407000D01*
X116227500Y-88817000D01*
X116432500Y-88817000D01*
X116432500Y-89407000D01*
G37*
X116627500Y-86697000D02*
X116832500Y-86697000D01*
X116832500Y-86107000D01*
X116627500Y-86107000D01*
X116627500Y-86697000D01*
G36*
X116832500Y-86697000D02*
G01*
X116627500Y-86697000D01*
X116627500Y-86107000D01*
X116832500Y-86107000D01*
X116832500Y-86697000D01*
G37*
X116627500Y-89407000D02*
X116832500Y-89407000D01*
X116832500Y-88817000D01*
X116627500Y-88817000D01*
X116627500Y-89407000D01*
G36*
X116832500Y-89407000D02*
G01*
X116627500Y-89407000D01*
X116627500Y-88817000D01*
X116832500Y-88817000D01*
X116832500Y-89407000D01*
G37*
X117027500Y-86697000D02*
X117232500Y-86697000D01*
X117232500Y-86107000D01*
X117027500Y-86107000D01*
X117027500Y-86697000D01*
G36*
X117232500Y-86697000D02*
G01*
X117027500Y-86697000D01*
X117027500Y-86107000D01*
X117232500Y-86107000D01*
X117232500Y-86697000D01*
G37*
X117027500Y-89407000D02*
X117232500Y-89407000D01*
X117232500Y-88817000D01*
X117027500Y-88817000D01*
X117027500Y-89407000D01*
G36*
X117232500Y-89407000D02*
G01*
X117027500Y-89407000D01*
X117027500Y-88817000D01*
X117232500Y-88817000D01*
X117232500Y-89407000D01*
G37*
X117427500Y-86697000D02*
X117632500Y-86697000D01*
X117632500Y-86107000D01*
X117427500Y-86107000D01*
X117427500Y-86697000D01*
G36*
X117632500Y-86697000D02*
G01*
X117427500Y-86697000D01*
X117427500Y-86107000D01*
X117632500Y-86107000D01*
X117632500Y-86697000D01*
G37*
X117427500Y-89407000D02*
X117632500Y-89407000D01*
X117632500Y-88817000D01*
X117427500Y-88817000D01*
X117427500Y-89407000D01*
G36*
X117632500Y-89407000D02*
G01*
X117427500Y-89407000D01*
X117427500Y-88817000D01*
X117632500Y-88817000D01*
X117632500Y-89407000D01*
G37*
X117827500Y-86697000D02*
X118032500Y-86697000D01*
X118032500Y-86107000D01*
X117827500Y-86107000D01*
X117827500Y-86697000D01*
G36*
X118032500Y-86697000D02*
G01*
X117827500Y-86697000D01*
X117827500Y-86107000D01*
X118032500Y-86107000D01*
X118032500Y-86697000D01*
G37*
X117827500Y-89407000D02*
X118032500Y-89407000D01*
X118032500Y-88817000D01*
X117827500Y-88817000D01*
X117827500Y-89407000D01*
G36*
X118032500Y-89407000D02*
G01*
X117827500Y-89407000D01*
X117827500Y-88817000D01*
X118032500Y-88817000D01*
X118032500Y-89407000D01*
G37*
X118227500Y-86697000D02*
X118432500Y-86697000D01*
X118432500Y-86107000D01*
X118227500Y-86107000D01*
X118227500Y-86697000D01*
G36*
X118432500Y-86697000D02*
G01*
X118227500Y-86697000D01*
X118227500Y-86107000D01*
X118432500Y-86107000D01*
X118432500Y-86697000D01*
G37*
X118227500Y-89407000D02*
X118432500Y-89407000D01*
X118432500Y-88817000D01*
X118227500Y-88817000D01*
X118227500Y-89407000D01*
G36*
X118432500Y-89407000D02*
G01*
X118227500Y-89407000D01*
X118227500Y-88817000D01*
X118432500Y-88817000D01*
X118432500Y-89407000D01*
G37*
X118627500Y-86697000D02*
X118832500Y-86697000D01*
X118832500Y-86107000D01*
X118627500Y-86107000D01*
X118627500Y-86697000D01*
G36*
X118832500Y-86697000D02*
G01*
X118627500Y-86697000D01*
X118627500Y-86107000D01*
X118832500Y-86107000D01*
X118832500Y-86697000D01*
G37*
X118627500Y-89407000D02*
X118832500Y-89407000D01*
X118832500Y-88817000D01*
X118627500Y-88817000D01*
X118627500Y-89407000D01*
G36*
X118832500Y-89407000D02*
G01*
X118627500Y-89407000D01*
X118627500Y-88817000D01*
X118832500Y-88817000D01*
X118832500Y-89407000D01*
G37*
X119027500Y-86697000D02*
X119232500Y-86697000D01*
X119232500Y-86107000D01*
X119027500Y-86107000D01*
X119027500Y-86697000D01*
G36*
X119232500Y-86697000D02*
G01*
X119027500Y-86697000D01*
X119027500Y-86107000D01*
X119232500Y-86107000D01*
X119232500Y-86697000D01*
G37*
X119027500Y-89407000D02*
X119232500Y-89407000D01*
X119232500Y-88817000D01*
X119027500Y-88817000D01*
X119027500Y-89407000D01*
G36*
X119232500Y-89407000D02*
G01*
X119027500Y-89407000D01*
X119027500Y-88817000D01*
X119232500Y-88817000D01*
X119232500Y-89407000D01*
G37*
X119427500Y-86697000D02*
X119632500Y-86697000D01*
X119632500Y-86107000D01*
X119427500Y-86107000D01*
X119427500Y-86697000D01*
G36*
X119632500Y-86697000D02*
G01*
X119427500Y-86697000D01*
X119427500Y-86107000D01*
X119632500Y-86107000D01*
X119632500Y-86697000D01*
G37*
X119427500Y-89407000D02*
X119632500Y-89407000D01*
X119632500Y-88817000D01*
X119427500Y-88817000D01*
X119427500Y-89407000D01*
G36*
X119632500Y-89407000D02*
G01*
X119427500Y-89407000D01*
X119427500Y-88817000D01*
X119632500Y-88817000D01*
X119632500Y-89407000D01*
G37*
X119827500Y-86697000D02*
X120032500Y-86697000D01*
X120032500Y-86107000D01*
X119827500Y-86107000D01*
X119827500Y-86697000D01*
G36*
X120032500Y-86697000D02*
G01*
X119827500Y-86697000D01*
X119827500Y-86107000D01*
X120032500Y-86107000D01*
X120032500Y-86697000D01*
G37*
X119827500Y-89407000D02*
X120032500Y-89407000D01*
X120032500Y-88817000D01*
X119827500Y-88817000D01*
X119827500Y-89407000D01*
G36*
X120032500Y-89407000D02*
G01*
X119827500Y-89407000D01*
X119827500Y-88817000D01*
X120032500Y-88817000D01*
X120032500Y-89407000D01*
G37*
X120227500Y-86697000D02*
X120432500Y-86697000D01*
X120432500Y-86107000D01*
X120227500Y-86107000D01*
X120227500Y-86697000D01*
G36*
X120432500Y-86697000D02*
G01*
X120227500Y-86697000D01*
X120227500Y-86107000D01*
X120432500Y-86107000D01*
X120432500Y-86697000D01*
G37*
X120227500Y-89407000D02*
X120432500Y-89407000D01*
X120432500Y-88817000D01*
X120227500Y-88817000D01*
X120227500Y-89407000D01*
G36*
X120432500Y-89407000D02*
G01*
X120227500Y-89407000D01*
X120227500Y-88817000D01*
X120432500Y-88817000D01*
X120432500Y-89407000D01*
G37*
X120627500Y-86697000D02*
X120832500Y-86697000D01*
X120832500Y-86107000D01*
X120627500Y-86107000D01*
X120627500Y-86697000D01*
G36*
X120832500Y-86697000D02*
G01*
X120627500Y-86697000D01*
X120627500Y-86107000D01*
X120832500Y-86107000D01*
X120832500Y-86697000D01*
G37*
X120627500Y-89407000D02*
X120832500Y-89407000D01*
X120832500Y-88817000D01*
X120627500Y-88817000D01*
X120627500Y-89407000D01*
G36*
X120832500Y-89407000D02*
G01*
X120627500Y-89407000D01*
X120627500Y-88817000D01*
X120832500Y-88817000D01*
X120832500Y-89407000D01*
G37*
X121027500Y-86697000D02*
X121232500Y-86697000D01*
X121232500Y-86107000D01*
X121027500Y-86107000D01*
X121027500Y-86697000D01*
G36*
X121232500Y-86697000D02*
G01*
X121027500Y-86697000D01*
X121027500Y-86107000D01*
X121232500Y-86107000D01*
X121232500Y-86697000D01*
G37*
X121027500Y-89407000D02*
X121232500Y-89407000D01*
X121232500Y-88817000D01*
X121027500Y-88817000D01*
X121027500Y-89407000D01*
G36*
X121232500Y-89407000D02*
G01*
X121027500Y-89407000D01*
X121027500Y-88817000D01*
X121232500Y-88817000D01*
X121232500Y-89407000D01*
G37*
X121427500Y-86697000D02*
X121632500Y-86697000D01*
X121632500Y-86107000D01*
X121427500Y-86107000D01*
X121427500Y-86697000D01*
G36*
X121632500Y-86697000D02*
G01*
X121427500Y-86697000D01*
X121427500Y-86107000D01*
X121632500Y-86107000D01*
X121632500Y-86697000D01*
G37*
X121427500Y-89407000D02*
X121632500Y-89407000D01*
X121632500Y-88817000D01*
X121427500Y-88817000D01*
X121427500Y-89407000D01*
G36*
X121632500Y-89407000D02*
G01*
X121427500Y-89407000D01*
X121427500Y-88817000D01*
X121632500Y-88817000D01*
X121632500Y-89407000D01*
G37*
X121827500Y-86697000D02*
X122032500Y-86697000D01*
X122032500Y-86107000D01*
X121827500Y-86107000D01*
X121827500Y-86697000D01*
G36*
X122032500Y-86697000D02*
G01*
X121827500Y-86697000D01*
X121827500Y-86107000D01*
X122032500Y-86107000D01*
X122032500Y-86697000D01*
G37*
X121827500Y-89407000D02*
X122032500Y-89407000D01*
X122032500Y-88817000D01*
X121827500Y-88817000D01*
X121827500Y-89407000D01*
G36*
X122032500Y-89407000D02*
G01*
X121827500Y-89407000D01*
X121827500Y-88817000D01*
X122032500Y-88817000D01*
X122032500Y-89407000D01*
G37*
X122227500Y-86697000D02*
X122432500Y-86697000D01*
X122432500Y-86107000D01*
X122227500Y-86107000D01*
X122227500Y-86697000D01*
G36*
X122432500Y-86697000D02*
G01*
X122227500Y-86697000D01*
X122227500Y-86107000D01*
X122432500Y-86107000D01*
X122432500Y-86697000D01*
G37*
X122227500Y-89407000D02*
X122432500Y-89407000D01*
X122432500Y-88817000D01*
X122227500Y-88817000D01*
X122227500Y-89407000D01*
G36*
X122432500Y-89407000D02*
G01*
X122227500Y-89407000D01*
X122227500Y-88817000D01*
X122432500Y-88817000D01*
X122432500Y-89407000D01*
G37*
X122627500Y-86697000D02*
X122832500Y-86697000D01*
X122832500Y-86107000D01*
X122627500Y-86107000D01*
X122627500Y-86697000D01*
G36*
X122832500Y-86697000D02*
G01*
X122627500Y-86697000D01*
X122627500Y-86107000D01*
X122832500Y-86107000D01*
X122832500Y-86697000D01*
G37*
X122627500Y-89407000D02*
X122832500Y-89407000D01*
X122832500Y-88817000D01*
X122627500Y-88817000D01*
X122627500Y-89407000D01*
G36*
X122832500Y-89407000D02*
G01*
X122627500Y-89407000D01*
X122627500Y-88817000D01*
X122832500Y-88817000D01*
X122832500Y-89407000D01*
G37*
X123027500Y-86697000D02*
X123232500Y-86697000D01*
X123232500Y-86107000D01*
X123027500Y-86107000D01*
X123027500Y-86697000D01*
G36*
X123232500Y-86697000D02*
G01*
X123027500Y-86697000D01*
X123027500Y-86107000D01*
X123232500Y-86107000D01*
X123232500Y-86697000D01*
G37*
X123027500Y-89407000D02*
X123232500Y-89407000D01*
X123232500Y-88817000D01*
X123027500Y-88817000D01*
X123027500Y-89407000D01*
G36*
X123232500Y-89407000D02*
G01*
X123027500Y-89407000D01*
X123027500Y-88817000D01*
X123232500Y-88817000D01*
X123232500Y-89407000D01*
G37*
X123427500Y-86697000D02*
X123632500Y-86697000D01*
X123632500Y-86107000D01*
X123427500Y-86107000D01*
X123427500Y-86697000D01*
G36*
X123632500Y-86697000D02*
G01*
X123427500Y-86697000D01*
X123427500Y-86107000D01*
X123632500Y-86107000D01*
X123632500Y-86697000D01*
G37*
X123427500Y-89407000D02*
X123632500Y-89407000D01*
X123632500Y-88817000D01*
X123427500Y-88817000D01*
X123427500Y-89407000D01*
G36*
X123632500Y-89407000D02*
G01*
X123427500Y-89407000D01*
X123427500Y-88817000D01*
X123632500Y-88817000D01*
X123632500Y-89407000D01*
G37*
X123827500Y-86697000D02*
X124032500Y-86697000D01*
X124032500Y-86107000D01*
X123827500Y-86107000D01*
X123827500Y-86697000D01*
G36*
X124032500Y-86697000D02*
G01*
X123827500Y-86697000D01*
X123827500Y-86107000D01*
X124032500Y-86107000D01*
X124032500Y-86697000D01*
G37*
X123827500Y-89407000D02*
X124032500Y-89407000D01*
X124032500Y-88817000D01*
X123827500Y-88817000D01*
X123827500Y-89407000D01*
G36*
X124032500Y-89407000D02*
G01*
X123827500Y-89407000D01*
X123827500Y-88817000D01*
X124032500Y-88817000D01*
X124032500Y-89407000D01*
G37*
X124227500Y-86697000D02*
X124432500Y-86697000D01*
X124432500Y-86107000D01*
X124227500Y-86107000D01*
X124227500Y-86697000D01*
G36*
X124432500Y-86697000D02*
G01*
X124227500Y-86697000D01*
X124227500Y-86107000D01*
X124432500Y-86107000D01*
X124432500Y-86697000D01*
G37*
X124227500Y-89407000D02*
X124432500Y-89407000D01*
X124432500Y-88817000D01*
X124227500Y-88817000D01*
X124227500Y-89407000D01*
G36*
X124432500Y-89407000D02*
G01*
X124227500Y-89407000D01*
X124227500Y-88817000D01*
X124432500Y-88817000D01*
X124432500Y-89407000D01*
G37*
X124627500Y-86697000D02*
X124832500Y-86697000D01*
X124832500Y-86107000D01*
X124627500Y-86107000D01*
X124627500Y-86697000D01*
G36*
X124832500Y-86697000D02*
G01*
X124627500Y-86697000D01*
X124627500Y-86107000D01*
X124832500Y-86107000D01*
X124832500Y-86697000D01*
G37*
X124627500Y-89407000D02*
X124832500Y-89407000D01*
X124832500Y-88817000D01*
X124627500Y-88817000D01*
X124627500Y-89407000D01*
G36*
X124832500Y-89407000D02*
G01*
X124627500Y-89407000D01*
X124627500Y-88817000D01*
X124832500Y-88817000D01*
X124832500Y-89407000D01*
G37*
X125027500Y-86697000D02*
X125232500Y-86697000D01*
X125232500Y-86107000D01*
X125027500Y-86107000D01*
X125027500Y-86697000D01*
G36*
X125232500Y-86697000D02*
G01*
X125027500Y-86697000D01*
X125027500Y-86107000D01*
X125232500Y-86107000D01*
X125232500Y-86697000D01*
G37*
X125027500Y-89407000D02*
X125232500Y-89407000D01*
X125232500Y-88817000D01*
X125027500Y-88817000D01*
X125027500Y-89407000D01*
G36*
X125232500Y-89407000D02*
G01*
X125027500Y-89407000D01*
X125027500Y-88817000D01*
X125232500Y-88817000D01*
X125232500Y-89407000D01*
G37*
X125427500Y-86697000D02*
X125632500Y-86697000D01*
X125632500Y-86107000D01*
X125427500Y-86107000D01*
X125427500Y-86697000D01*
G36*
X125632500Y-86697000D02*
G01*
X125427500Y-86697000D01*
X125427500Y-86107000D01*
X125632500Y-86107000D01*
X125632500Y-86697000D01*
G37*
X125427500Y-89407000D02*
X125632500Y-89407000D01*
X125632500Y-88817000D01*
X125427500Y-88817000D01*
X125427500Y-89407000D01*
G36*
X125632500Y-89407000D02*
G01*
X125427500Y-89407000D01*
X125427500Y-88817000D01*
X125632500Y-88817000D01*
X125632500Y-89407000D01*
G37*
X125827500Y-86697000D02*
X126032500Y-86697000D01*
X126032500Y-86107000D01*
X125827500Y-86107000D01*
X125827500Y-86697000D01*
G36*
X126032500Y-86697000D02*
G01*
X125827500Y-86697000D01*
X125827500Y-86107000D01*
X126032500Y-86107000D01*
X126032500Y-86697000D01*
G37*
X125827500Y-89407000D02*
X126032500Y-89407000D01*
X126032500Y-88817000D01*
X125827500Y-88817000D01*
X125827500Y-89407000D01*
G36*
X126032500Y-89407000D02*
G01*
X125827500Y-89407000D01*
X125827500Y-88817000D01*
X126032500Y-88817000D01*
X126032500Y-89407000D01*
G37*
X126227500Y-86697000D02*
X126432500Y-86697000D01*
X126432500Y-86107000D01*
X126227500Y-86107000D01*
X126227500Y-86697000D01*
G36*
X126432500Y-86697000D02*
G01*
X126227500Y-86697000D01*
X126227500Y-86107000D01*
X126432500Y-86107000D01*
X126432500Y-86697000D01*
G37*
X126227500Y-89407000D02*
X126432500Y-89407000D01*
X126432500Y-88817000D01*
X126227500Y-88817000D01*
X126227500Y-89407000D01*
G36*
X126432500Y-89407000D02*
G01*
X126227500Y-89407000D01*
X126227500Y-88817000D01*
X126432500Y-88817000D01*
X126432500Y-89407000D01*
G37*
X126627500Y-86697000D02*
X126832500Y-86697000D01*
X126832500Y-86107000D01*
X126627500Y-86107000D01*
X126627500Y-86697000D01*
G36*
X126832500Y-86697000D02*
G01*
X126627500Y-86697000D01*
X126627500Y-86107000D01*
X126832500Y-86107000D01*
X126832500Y-86697000D01*
G37*
X126627500Y-89407000D02*
X126832500Y-89407000D01*
X126832500Y-88817000D01*
X126627500Y-88817000D01*
X126627500Y-89407000D01*
G36*
X126832500Y-89407000D02*
G01*
X126627500Y-89407000D01*
X126627500Y-88817000D01*
X126832500Y-88817000D01*
X126832500Y-89407000D01*
G37*
X127027500Y-86697000D02*
X127232500Y-86697000D01*
X127232500Y-86107000D01*
X127027500Y-86107000D01*
X127027500Y-86697000D01*
G36*
X127232500Y-86697000D02*
G01*
X127027500Y-86697000D01*
X127027500Y-86107000D01*
X127232500Y-86107000D01*
X127232500Y-86697000D01*
G37*
X127027500Y-89407000D02*
X127232500Y-89407000D01*
X127232500Y-88817000D01*
X127027500Y-88817000D01*
X127027500Y-89407000D01*
G36*
X127232500Y-89407000D02*
G01*
X127027500Y-89407000D01*
X127027500Y-88817000D01*
X127232500Y-88817000D01*
X127232500Y-89407000D01*
G37*
X127448000Y-86697000D02*
X127761000Y-86697000D01*
X127761000Y-86107000D01*
X127448000Y-86107000D01*
X127448000Y-86697000D01*
G36*
X127761000Y-86697000D02*
G01*
X127448000Y-86697000D01*
X127448000Y-86107000D01*
X127761000Y-86107000D01*
X127761000Y-86697000D01*
G37*
X127448000Y-89407000D02*
X127761000Y-89407000D01*
X127761000Y-88817000D01*
X127448000Y-88817000D01*
X127448000Y-89407000D01*
G36*
X127761000Y-89407000D02*
G01*
X127448000Y-89407000D01*
X127448000Y-88817000D01*
X127761000Y-88817000D01*
X127761000Y-89407000D01*
G37*
%TD*%
D11*
%TO.C,R19*%
X121500000Y-92632000D03*
X120480002Y-92632000D03*
%TD*%
D12*
%TO.C,R3*%
X134950000Y-91861999D03*
X134950000Y-90842001D03*
%TD*%
D13*
%TO.C,C18*%
X115629000Y-102012000D03*
X115629000Y-101322000D03*
%TD*%
D12*
%TO.C,R10*%
X132130000Y-91861999D03*
X132130000Y-90842001D03*
%TD*%
D13*
%TO.C,C17*%
X116329000Y-102012000D03*
X116329000Y-101322000D03*
%TD*%
D14*
%TO.C,R23*%
X120400000Y-108922000D03*
X121420000Y-108922000D03*
%TD*%
D12*
%TO.C,R12*%
X134010000Y-91861998D03*
X134010000Y-90842000D03*
%TD*%
D15*
%TO.C,C23*%
X112379000Y-101937000D03*
X112379000Y-102627000D03*
%TD*%
D16*
%TO.C,R1*%
X129920000Y-95152001D03*
X129920000Y-96171999D03*
%TD*%
D17*
%TO.C,Y2*%
X113910000Y-106454500D03*
X113910000Y-109154500D03*
X112710000Y-109154500D03*
X112710000Y-106454500D03*
%TD*%
D18*
%TO.C,C24*%
X120665000Y-102442000D03*
X121355000Y-102442000D03*
%TD*%
D14*
%TO.C,R18*%
X120477002Y-93572000D03*
X121497000Y-93572000D03*
%TD*%
D12*
%TO.C,R7*%
X133400000Y-96171999D03*
X133400000Y-95152001D03*
%TD*%
D13*
%TO.C,C5*%
X114229000Y-101227000D03*
X114229000Y-100537000D03*
%TD*%
D12*
%TO.C,R2*%
X133070000Y-91861999D03*
X133070000Y-90842001D03*
%TD*%
D13*
%TO.C,C15*%
X117029000Y-102012000D03*
X117029000Y-101322000D03*
%TD*%
D19*
%TO.C,C8*%
X114824000Y-104122000D03*
X114134000Y-104122000D03*
%TD*%
D15*
%TO.C,C21*%
X119240000Y-106077000D03*
X119240000Y-106767000D03*
%TD*%
%TO.C,C16*%
X116229000Y-102722000D03*
X116229000Y-103412000D03*
%TD*%
D19*
%TO.C,C13*%
X114924000Y-102017000D03*
X114234000Y-102017000D03*
%TD*%
D20*
%TO.C,C25*%
X120020000Y-106662000D03*
X120980000Y-106662000D03*
%TD*%
D12*
%TO.C,R6*%
X130860000Y-96171999D03*
X130860000Y-95152001D03*
%TD*%
%TO.C,R9*%
X130250000Y-91861998D03*
X130250000Y-90842000D03*
%TD*%
D14*
%TO.C,R22*%
X123719999Y-92632000D03*
X124739999Y-92632000D03*
%TD*%
D21*
%TO.C,C10*%
X116879000Y-104222000D03*
X115919000Y-104222000D03*
%TD*%
D19*
%TO.C,C14*%
X114824000Y-102717000D03*
X114134000Y-102717000D03*
%TD*%
%TO.C,C7*%
X114824000Y-103422000D03*
X114134000Y-103422000D03*
%TD*%
D15*
%TO.C,C19*%
X116929000Y-102722000D03*
X116929000Y-103412000D03*
%TD*%
%TO.C,C6*%
X117729000Y-101257000D03*
X117729000Y-101947000D03*
%TD*%
%TO.C,C20*%
X115529000Y-102722000D03*
X115529000Y-103412000D03*
%TD*%
D22*
%TO.C,C2*%
X118120000Y-104407000D03*
X118120000Y-105957000D03*
%TD*%
D12*
%TO.C,R4*%
X131190000Y-91861999D03*
X131190000Y-90842001D03*
%TD*%
D13*
%TO.C,C9*%
X117729000Y-103347000D03*
X117729000Y-102657000D03*
%TD*%
D16*
%TO.C,R5*%
X134340000Y-95152001D03*
X134340000Y-96171999D03*
%TD*%
%TO.C,R11*%
X128980000Y-95152001D03*
X128980000Y-96171999D03*
%TD*%
D11*
%TO.C,R14*%
X109839999Y-104692000D03*
X108820001Y-104692000D03*
%TD*%
D13*
%TO.C,C3*%
X114929000Y-101227000D03*
X114929000Y-100537000D03*
%TD*%
D18*
%TO.C,C4*%
X118434000Y-101012000D03*
X119124000Y-101012000D03*
%TD*%
D11*
%TO.C,R20*%
X109839999Y-96952000D03*
X108820001Y-96952000D03*
%TD*%
D13*
%TO.C,C22*%
X112379000Y-101227000D03*
X112379000Y-100537000D03*
%TD*%
D12*
%TO.C,R8*%
X129310000Y-91861998D03*
X129310000Y-90842000D03*
%TD*%
D23*
%TO.C,C1*%
X120960000Y-103552001D03*
X120960000Y-105451999D03*
%TD*%
D11*
%TO.C,R21*%
X124739998Y-93572000D03*
X123720000Y-93572000D03*
%TD*%
M02*
