%TF.GenerationSoftware,KiCad,Pcbnew,10.0.3*%
%TF.CreationDate,2026-05-19T16:29:09-04:00*%
%TF.ProjectId,EfficientInterface,45666669-6369-4656-9e74-496e74657266,v1.0*%
%TF.SameCoordinates,Original*%
%TF.FileFunction,Copper,L4,Bot*%
%TF.FilePolarity,Positive*%
%FSLAX46Y46*%
G04 Gerber Fmt 4.6, Leading zero omitted, Abs format (unit mm)*
G04 Created by KiCad (PCBNEW 10.0.3) date 2026-05-19 16:29:09*
%MOMM*%
%LPD*%
G01*
G04 APERTURE LIST*
%TA.AperFunction,ComponentPad*%
%ADD10R,1.700000X1.700000*%
%TD*%
%TA.AperFunction,ComponentPad*%
%ADD11C,1.700000*%
%TD*%
%TA.AperFunction,ViaPad*%
%ADD12C,0.609600*%
%TD*%
G04 APERTURE END LIST*
D10*
%TO.P,J3,1*%
%TO.N,Net-(J3-Pad1)*%
X180975000Y-90805000D03*
D11*
%TO.P,J3,2*%
%TO.N,unconnected-(J3-Pad2)*%
X178435000Y-90805000D03*
%TO.P,J3,3*%
%TO.N,Net-(J3-Pad3)*%
X180975000Y-88265000D03*
%TO.P,J3,4*%
%TO.N,Net-(J3-Pad4)*%
X178435000Y-88265000D03*
%TO.P,J3,5*%
%TO.N,Net-(J3-Pad5)*%
X180975000Y-85725000D03*
%TO.P,J3,6*%
%TO.N,Net-(J3-Pad6)*%
X178435000Y-85725000D03*
%TO.P,J3,7*%
%TO.N,Net-(J3-Pad7)*%
X180975000Y-83185000D03*
%TO.P,J3,8*%
%TO.N,Net-(J3-Pad8)*%
X178435000Y-83185000D03*
%TO.P,J3,9*%
%TO.N,Net-(J3-Pad9)*%
X180975000Y-80645000D03*
%TO.P,J3,10*%
%TO.N,GND*%
X178435000Y-80645000D03*
%TD*%
D10*
%TO.P,J5,1,Pin_1_1*%
%TO.N,Net-(J5-Pin_1)*%
X130175000Y-80645000D03*
D11*
%TO.P,J5,2,Pin_2_2*%
%TO.N,Net-(J5-Pin_2)*%
X132715000Y-80645000D03*
%TO.P,J5,3,Pin_3_3*%
%TO.N,GND*%
X130175000Y-83185000D03*
%TO.P,J5,4,Pin_4_4*%
%TO.N,Net-(J5-Pin_4)*%
X132715000Y-83185000D03*
%TO.P,J5,5,Pin_5_5*%
%TO.N,GND*%
X130175000Y-85725000D03*
%TO.P,J5,6,Pin_6_6*%
%TO.N,Net-(J5-Pin_6)*%
X132715000Y-85725000D03*
%TO.P,J5,7,Pin_7_7*%
%TO.N,Net-(J5-Pin_7)*%
X130175000Y-88265000D03*
%TO.P,J5,8,Pin_8_8*%
%TO.N,Net-(J5-Pin_8)*%
X132715000Y-88265000D03*
%TO.P,J5,9,Pin_9_9*%
%TO.N,Net-(J5-Pin_9)*%
X130175000Y-90805000D03*
%TO.P,J5,10,Pin_10_10*%
%TO.N,Net-(J5-Pin_10)*%
X132715000Y-90805000D03*
%TD*%
D10*
%TO.P,J6,1,Pin_1_1*%
%TO.N,Net-(J6-Pin_1)*%
X130175000Y-103505000D03*
D11*
%TO.P,J6,2,Pin_2_2*%
%TO.N,unconnected-(J6-Pin_2-Pad2)*%
X132715000Y-103505000D03*
%TO.P,J6,3,Pin_3_3*%
%TO.N,Net-(J6-Pin_3)*%
X130175000Y-106045000D03*
%TO.P,J6,4,Pin_4_4*%
%TO.N,Net-(J6-Pin_4)*%
X132715000Y-106045000D03*
%TO.P,J6,5,Pin_5_5*%
%TO.N,Net-(J6-Pin_5)*%
X130175000Y-108585000D03*
%TO.P,J6,6,Pin_6_6*%
%TO.N,unconnected-(J6-Pin_6-Pad6)*%
X132715000Y-108585000D03*
%TO.P,J6,7,Pin_7_7*%
%TO.N,Net-(J6-Pin_7)*%
X130175000Y-111125000D03*
%TO.P,J6,8,Pin_8_8*%
%TO.N,Net-(J6-Pin_8)*%
X132715000Y-111125000D03*
%TO.P,J6,9,Pin_9_9*%
%TO.N,GND*%
X130175000Y-113665000D03*
%TO.P,J6,10,Pin_10_10*%
%TO.N,Net-(J6-Pin_10)*%
X132715000Y-113665000D03*
%TD*%
D10*
%TO.P,J4,1*%
%TO.N,Net-(J4-Pad1)*%
X180975000Y-113665000D03*
D11*
%TO.P,J4,2*%
%TO.N,Net-(J4-Pad2)*%
X178435000Y-113665000D03*
%TO.P,J4,3*%
%TO.N,unconnected-(J4-Pad3)*%
X180975000Y-111125000D03*
%TO.P,J4,4*%
%TO.N,unconnected-(J4-Pad4)*%
X178435000Y-111125000D03*
%TO.P,J4,5*%
%TO.N,GND*%
X180975000Y-108585000D03*
%TO.P,J4,6*%
X178435000Y-108585000D03*
%TO.P,J4,7*%
%TO.N,Net-(J4-Pad7)*%
X180975000Y-106045000D03*
%TO.P,J4,8*%
%TO.N,Net-(J4-Pad8)*%
X178435000Y-106045000D03*
%TO.P,J4,9*%
%TO.N,GND*%
X180975000Y-103505000D03*
%TO.P,J4,10*%
X178435000Y-103505000D03*
%TD*%
D12*
%TO.N,Net-(J5-Pin_8)*%
X142710400Y-92633800D03*
%TO.N,JTAG_TDI*%
X144360400Y-92633800D03*
X157835600Y-108850399D03*
%TO.N,Net-(J3-Pad3)*%
X171424600Y-92633800D03*
%TO.N,Net-(J5-Pin_6)*%
X142710400Y-91160600D03*
%TO.N,JTAG_TDO*%
X144360400Y-91160600D03*
X158775400Y-107605799D03*
%TO.N,Net-(J6-Pin_10)*%
X142710400Y-106095800D03*
%TO.N,M_RST*%
X144360400Y-106095800D03*
X159664400Y-86512400D03*
X160223200Y-82564000D03*
%TO.N,M_TDO*%
X161366200Y-79846200D03*
X141388600Y-100203000D03*
X156616400Y-87110600D03*
%TO.N,Net-(J6-Pin_1)*%
X139738600Y-100203000D03*
%TO.N,Net-(J4-Pad8)*%
X168439600Y-101676200D03*
%TO.N,Net-(J3-Pad4)*%
X168439600Y-92633800D03*
%TO.N,Net-(J5-Pin_10)*%
X142710400Y-94107000D03*
%TO.N,~{E1_RST}*%
X169761400Y-91160600D03*
X158775400Y-111771399D03*
X144360400Y-94107000D03*
X163779200Y-111771399D03*
%TO.N,PRG_SPI_MISO*%
X161848800Y-86526400D03*
X169761400Y-94107000D03*
%TO.N,Net-(J3-Pad1)*%
X171411400Y-94107000D03*
%TO.N,Net-(J3-Pad6)*%
X168439600Y-91160600D03*
%TO.N,PRG_SPI_CS*%
X161239200Y-87136000D03*
X166789600Y-91160600D03*
%TO.N,Net-(J6-Pin_4)*%
X142710400Y-101676200D03*
%TO.N,+1V8_DCDC*%
X141388600Y-88214200D03*
X161594800Y-109231399D03*
X144360400Y-101676200D03*
%TO.N,Net-(J3-Pad5)*%
X171411400Y-91160600D03*
%TO.N,Net-(J4-Pad1)*%
X171411400Y-106095800D03*
%TO.N,Net-(J3-Pad9)*%
X171411400Y-88214200D03*
%TO.N,BOOT_MODE2*%
X163957000Y-115174999D03*
X169761400Y-88214200D03*
%TO.N,JTAG_TRSTN*%
X141388600Y-94107000D03*
X159975000Y-114178599D03*
%TO.N,Net-(J5-Pin_9)*%
X139738600Y-94107000D03*
%TO.N,Net-(J4-Pad2)*%
X168439600Y-106095800D03*
%TO.N,Net-(J3-Pad7)*%
X171411400Y-89687400D03*
%TO.N,BOOT_MODE0*%
X169761400Y-89687400D03*
X163957000Y-114057399D03*
%TO.N,JTAG_CTRL*%
X157226000Y-107605799D03*
X145542000Y-93370400D03*
%TO.N,Net-(J5-Pin_7)*%
X139738600Y-92633800D03*
%TO.N,M_TMS*%
X160197800Y-79846200D03*
X157835600Y-87136000D03*
X141388600Y-103149400D03*
%TO.N,M_TEST*%
X160782000Y-83097400D03*
X159054800Y-87136000D03*
X144360400Y-104622600D03*
%TO.N,M_TDI*%
X141388600Y-101676200D03*
X160775000Y-79262000D03*
X157226000Y-86512400D03*
%TO.N,M_TCK*%
X141388600Y-104622600D03*
X158445200Y-86512400D03*
X161340800Y-82564000D03*
%TO.N,Net-(J5-Pin_4)*%
X142710400Y-89687400D03*
%TO.N,JTAG_TCK*%
X159575001Y-112431799D03*
X144360400Y-89687400D03*
%TO.N,Net-(J6-Pin_5)*%
X139738600Y-103149400D03*
%TO.N,Net-(J6-Pin_7)*%
X139738600Y-104622600D03*
%TO.N,Net-(J3-Pad8)*%
X168439600Y-89687400D03*
%TO.N,BOOT_MODE1*%
X163169600Y-114616199D03*
X166789600Y-89687400D03*
%TO.N,Net-(J6-Pin_8)*%
X142710400Y-104622600D03*
%TO.N,Net-(J4-Pad7)*%
X171411400Y-101676200D03*
%TO.N,Net-(J5-Pin_1)*%
X139738600Y-88214200D03*
%TO.N,Net-(J6-Pin_3)*%
X139738600Y-101676200D03*
%TO.N,JTAG_TMS*%
X160375600Y-112431799D03*
X144360400Y-88214200D03*
%TO.N,Net-(J5-Pin_2)*%
X142710400Y-88214200D03*
%TD*%
%TA.AperFunction,Conductor*%
%TO.N,GND*%
G36*
X182787683Y-76581691D02*
G01*
X183009974Y-76597590D01*
X183020588Y-76599116D01*
X183235725Y-76645917D01*
X183246013Y-76648937D01*
X183326615Y-76679000D01*
X183452312Y-76725883D01*
X183462071Y-76730340D01*
X183655310Y-76835857D01*
X183664323Y-76841649D01*
X183840591Y-76973601D01*
X183848699Y-76980628D01*
X184004371Y-77136300D01*
X184011398Y-77144408D01*
X184143347Y-77320671D01*
X184149148Y-77329698D01*
X184254659Y-77522928D01*
X184259116Y-77532687D01*
X184336061Y-77738983D01*
X184339083Y-77749278D01*
X184385882Y-77964408D01*
X184387409Y-77975028D01*
X184403308Y-78197316D01*
X184403500Y-78202681D01*
X184403500Y-116107318D01*
X184403308Y-116112683D01*
X184387409Y-116334971D01*
X184385882Y-116345591D01*
X184339083Y-116560721D01*
X184336061Y-116571016D01*
X184259116Y-116777312D01*
X184254659Y-116787071D01*
X184149148Y-116980301D01*
X184143347Y-116989328D01*
X184011398Y-117165591D01*
X184004371Y-117173699D01*
X183848699Y-117329371D01*
X183840591Y-117336398D01*
X183664328Y-117468347D01*
X183655301Y-117474148D01*
X183462071Y-117579659D01*
X183452312Y-117584116D01*
X183246016Y-117661061D01*
X183235721Y-117664083D01*
X183020591Y-117710882D01*
X183009971Y-117712409D01*
X182787684Y-117728308D01*
X182782319Y-117728500D01*
X128367681Y-117728500D01*
X128362316Y-117728308D01*
X128140028Y-117712409D01*
X128129408Y-117710882D01*
X127914278Y-117664083D01*
X127903983Y-117661061D01*
X127697687Y-117584116D01*
X127687928Y-117579659D01*
X127591313Y-117526903D01*
X127494692Y-117474144D01*
X127485671Y-117468347D01*
X127309408Y-117336398D01*
X127301300Y-117329371D01*
X127145628Y-117173699D01*
X127138601Y-117165591D01*
X127006649Y-116989323D01*
X127000857Y-116980310D01*
X126895340Y-116787071D01*
X126890883Y-116777312D01*
X126813938Y-116571016D01*
X126810916Y-116560721D01*
X126764117Y-116345591D01*
X126762590Y-116334971D01*
X126746692Y-116112683D01*
X126746500Y-116107318D01*
X126746500Y-113566222D01*
X131712100Y-113566222D01*
X131712100Y-113763777D01*
X131750641Y-113957537D01*
X131750642Y-113957538D01*
X131803287Y-114084635D01*
X131826241Y-114140051D01*
X131935996Y-114304312D01*
X131935997Y-114304313D01*
X131936000Y-114304317D01*
X132075682Y-114443999D01*
X132075685Y-114444001D01*
X132075688Y-114444004D01*
X132239949Y-114553759D01*
X132422461Y-114629357D01*
X132422462Y-114629358D01*
X132422463Y-114629358D01*
X132422465Y-114629359D01*
X132552218Y-114655168D01*
X132616222Y-114667900D01*
X132616223Y-114667900D01*
X132813778Y-114667900D01*
X132861889Y-114658329D01*
X133007535Y-114629359D01*
X133190051Y-114553759D01*
X133354312Y-114444004D01*
X133494004Y-114304312D01*
X133603759Y-114140051D01*
X133612751Y-114118342D01*
X159517300Y-114118342D01*
X159517300Y-114238856D01*
X159520273Y-114249951D01*
X159548492Y-114355265D01*
X159587972Y-114423646D01*
X159605464Y-114453944D01*
X159608748Y-114459631D01*
X159608752Y-114459637D01*
X159693961Y-114544846D01*
X159693964Y-114544848D01*
X159693966Y-114544850D01*
X159798335Y-114605107D01*
X159914743Y-114636299D01*
X159914745Y-114636299D01*
X160035255Y-114636299D01*
X160035257Y-114636299D01*
X160151665Y-114605107D01*
X160236822Y-114555942D01*
X162711900Y-114555942D01*
X162711900Y-114676456D01*
X162715753Y-114690834D01*
X162743092Y-114792865D01*
X162803348Y-114897231D01*
X162803352Y-114897237D01*
X162888561Y-114982446D01*
X162888564Y-114982448D01*
X162888566Y-114982450D01*
X162992935Y-115042707D01*
X163109343Y-115073899D01*
X163109345Y-115073899D01*
X163229855Y-115073899D01*
X163229857Y-115073899D01*
X163346265Y-115042707D01*
X163392917Y-115015772D01*
X163443572Y-115006840D01*
X163488121Y-115032560D01*
X163505715Y-115080897D01*
X163503153Y-115100358D01*
X163499300Y-115114739D01*
X163499300Y-115114742D01*
X163499300Y-115235256D01*
X163520094Y-115312861D01*
X163530492Y-115351665D01*
X163590748Y-115456031D01*
X163590752Y-115456037D01*
X163675961Y-115541246D01*
X163675964Y-115541248D01*
X163675966Y-115541250D01*
X163780335Y-115601507D01*
X163896743Y-115632699D01*
X163896745Y-115632699D01*
X164017255Y-115632699D01*
X164017257Y-115632699D01*
X164133665Y-115601507D01*
X164238034Y-115541250D01*
X164323251Y-115456033D01*
X164383508Y-115351664D01*
X164414700Y-115235256D01*
X164414700Y-115114742D01*
X164383508Y-114998334D01*
X164323251Y-114893965D01*
X164323249Y-114893963D01*
X164323247Y-114893960D01*
X164238038Y-114808751D01*
X164238032Y-114808747D01*
X164133666Y-114748491D01*
X164094862Y-114738093D01*
X164017257Y-114717299D01*
X163896743Y-114717299D01*
X163794087Y-114744805D01*
X163780331Y-114748492D01*
X163733683Y-114775424D01*
X163683025Y-114784356D01*
X163638477Y-114758636D01*
X163620884Y-114710298D01*
X163623447Y-114690834D01*
X163627300Y-114676455D01*
X163627300Y-114555941D01*
X163623447Y-114541562D01*
X163627929Y-114490318D01*
X163664302Y-114453944D01*
X163715547Y-114449460D01*
X163733682Y-114456972D01*
X163780335Y-114483907D01*
X163896743Y-114515099D01*
X163896745Y-114515099D01*
X164017255Y-114515099D01*
X164017257Y-114515099D01*
X164133665Y-114483907D01*
X164238034Y-114423650D01*
X164323251Y-114338433D01*
X164383508Y-114234064D01*
X164414700Y-114117656D01*
X164414700Y-113997142D01*
X164383508Y-113880734D01*
X164323251Y-113776365D01*
X164323249Y-113776363D01*
X164323247Y-113776360D01*
X164238038Y-113691151D01*
X164238032Y-113691147D01*
X164133666Y-113630891D01*
X164094862Y-113620493D01*
X164017257Y-113599699D01*
X163896743Y-113599699D01*
X163838539Y-113615295D01*
X163780333Y-113630891D01*
X163675967Y-113691147D01*
X163675961Y-113691151D01*
X163590752Y-113776360D01*
X163590748Y-113776366D01*
X163530492Y-113880732D01*
X163499300Y-113997143D01*
X163499300Y-114117656D01*
X163503153Y-114132038D01*
X163498668Y-114183282D01*
X163462294Y-114219654D01*
X163411050Y-114224136D01*
X163392915Y-114216624D01*
X163346266Y-114189691D01*
X163307462Y-114179293D01*
X163229857Y-114158499D01*
X163109343Y-114158499D01*
X163051139Y-114174095D01*
X162992933Y-114189691D01*
X162888567Y-114249947D01*
X162888561Y-114249951D01*
X162803352Y-114335160D01*
X162803348Y-114335166D01*
X162743092Y-114439532D01*
X162738419Y-114456973D01*
X162711900Y-114555942D01*
X160236822Y-114555942D01*
X160256034Y-114544850D01*
X160270829Y-114530055D01*
X160303046Y-114497839D01*
X160341247Y-114459637D01*
X160341251Y-114459633D01*
X160401508Y-114355264D01*
X160432700Y-114238856D01*
X160432700Y-114118342D01*
X160401508Y-114001934D01*
X160341251Y-113897565D01*
X160341249Y-113897563D01*
X160341247Y-113897560D01*
X160256038Y-113812351D01*
X160256032Y-113812347D01*
X160151666Y-113752091D01*
X160112862Y-113741693D01*
X160035257Y-113720899D01*
X159914743Y-113720899D01*
X159856539Y-113736495D01*
X159798333Y-113752091D01*
X159693967Y-113812347D01*
X159693961Y-113812351D01*
X159608752Y-113897560D01*
X159608748Y-113897566D01*
X159548492Y-114001932D01*
X159527697Y-114079539D01*
X159517300Y-114118342D01*
X133612751Y-114118342D01*
X133679359Y-113957535D01*
X133717900Y-113763777D01*
X133717900Y-113566223D01*
X133679359Y-113372465D01*
X133603759Y-113189949D01*
X133494004Y-113025688D01*
X133494001Y-113025685D01*
X133493999Y-113025682D01*
X133354317Y-112886000D01*
X133354313Y-112885997D01*
X133354312Y-112885996D01*
X133190051Y-112776241D01*
X133190049Y-112776240D01*
X133007538Y-112700642D01*
X133007537Y-112700641D01*
X132813778Y-112662100D01*
X132813777Y-112662100D01*
X132616223Y-112662100D01*
X132616222Y-112662100D01*
X132422462Y-112700641D01*
X132422461Y-112700642D01*
X132239950Y-112776240D01*
X132075682Y-112886000D01*
X131936000Y-113025682D01*
X131826240Y-113189950D01*
X131750642Y-113372461D01*
X131750641Y-113372462D01*
X131712100Y-113566222D01*
X126746500Y-113566222D01*
X126746500Y-111026222D01*
X129172100Y-111026222D01*
X129172100Y-111223777D01*
X129210641Y-111417537D01*
X129210642Y-111417538D01*
X129286239Y-111600046D01*
X129286241Y-111600051D01*
X129395996Y-111764312D01*
X129395997Y-111764313D01*
X129396000Y-111764317D01*
X129535682Y-111903999D01*
X129535685Y-111904001D01*
X129535688Y-111904004D01*
X129699949Y-112013759D01*
X129882461Y-112089357D01*
X129882462Y-112089358D01*
X129882463Y-112089358D01*
X129882465Y-112089359D01*
X130012218Y-112115168D01*
X130076222Y-112127900D01*
X130076223Y-112127900D01*
X130273778Y-112127900D01*
X130321889Y-112118329D01*
X130467535Y-112089359D01*
X130650051Y-112013759D01*
X130814312Y-111904004D01*
X130954004Y-111764312D01*
X131063759Y-111600051D01*
X131139359Y-111417535D01*
X131177900Y-111223777D01*
X131177900Y-111026223D01*
X131177900Y-111026222D01*
X131712100Y-111026222D01*
X131712100Y-111223777D01*
X131750641Y-111417537D01*
X131750642Y-111417538D01*
X131826239Y-111600046D01*
X131826241Y-111600051D01*
X131935996Y-111764312D01*
X131935997Y-111764313D01*
X131936000Y-111764317D01*
X132075682Y-111903999D01*
X132075685Y-111904001D01*
X132075688Y-111904004D01*
X132239949Y-112013759D01*
X132422461Y-112089357D01*
X132422462Y-112089358D01*
X132422463Y-112089358D01*
X132422465Y-112089359D01*
X132552218Y-112115168D01*
X132616222Y-112127900D01*
X132616223Y-112127900D01*
X132813778Y-112127900D01*
X132861889Y-112118329D01*
X133007535Y-112089359D01*
X133190051Y-112013759D01*
X133354312Y-111904004D01*
X133494004Y-111764312D01*
X133589050Y-111622064D01*
X138865500Y-111622064D01*
X138865500Y-111897936D01*
X138875527Y-111974099D01*
X138901508Y-112171450D01*
X138901509Y-112171453D01*
X138972910Y-112437923D01*
X138972910Y-112437924D01*
X139078481Y-112692795D01*
X139216418Y-112931709D01*
X139288527Y-113025682D01*
X139384358Y-113150571D01*
X139384363Y-113150576D01*
X139384370Y-113150584D01*
X139579415Y-113345629D01*
X139579423Y-113345636D01*
X139579429Y-113345642D01*
X139798293Y-113513583D01*
X140037206Y-113651519D01*
X140292079Y-113757091D01*
X140558551Y-113828492D01*
X140832064Y-113864500D01*
X140832066Y-113864500D01*
X141107934Y-113864500D01*
X141107936Y-113864500D01*
X141381449Y-113828492D01*
X141647921Y-113757091D01*
X141902794Y-113651519D01*
X142141707Y-113513583D01*
X142360571Y-113345642D01*
X142555642Y-113150571D01*
X142723583Y-112931707D01*
X142861519Y-112692794D01*
X142967091Y-112437921D01*
X143038492Y-112171449D01*
X143074500Y-111897936D01*
X143074500Y-111711142D01*
X158317700Y-111711142D01*
X158317700Y-111831656D01*
X158335460Y-111897936D01*
X158348892Y-111948065D01*
X158409148Y-112052431D01*
X158409152Y-112052437D01*
X158494361Y-112137646D01*
X158494364Y-112137648D01*
X158494366Y-112137650D01*
X158598735Y-112197907D01*
X158715143Y-112229099D01*
X158715145Y-112229099D01*
X158835655Y-112229099D01*
X158835657Y-112229099D01*
X158952065Y-112197907D01*
X159053218Y-112139506D01*
X159103874Y-112130574D01*
X159148422Y-112156294D01*
X159166016Y-112204632D01*
X159155942Y-112242230D01*
X159148494Y-112255131D01*
X159148494Y-112255132D01*
X159148493Y-112255134D01*
X159117301Y-112371542D01*
X159117301Y-112492056D01*
X159138095Y-112569661D01*
X159148493Y-112608465D01*
X159208749Y-112712831D01*
X159208753Y-112712837D01*
X159293962Y-112798046D01*
X159293965Y-112798048D01*
X159293967Y-112798050D01*
X159398336Y-112858307D01*
X159514744Y-112889499D01*
X159514746Y-112889499D01*
X159635256Y-112889499D01*
X159635258Y-112889499D01*
X159751666Y-112858307D01*
X159856035Y-112798050D01*
X159922126Y-112731958D01*
X159968745Y-112710219D01*
X160018433Y-112723532D01*
X160028474Y-112731959D01*
X160094561Y-112798046D01*
X160094564Y-112798048D01*
X160094566Y-112798050D01*
X160198935Y-112858307D01*
X160315343Y-112889499D01*
X160315345Y-112889499D01*
X160435855Y-112889499D01*
X160435857Y-112889499D01*
X160552265Y-112858307D01*
X160656634Y-112798050D01*
X160741851Y-112712833D01*
X160802108Y-112608464D01*
X160833300Y-112492056D01*
X160833300Y-112371542D01*
X160802108Y-112255134D01*
X160741851Y-112150765D01*
X160741849Y-112150763D01*
X160741847Y-112150760D01*
X160656638Y-112065551D01*
X160656632Y-112065547D01*
X160552266Y-112005291D01*
X160513462Y-111994893D01*
X160435857Y-111974099D01*
X160315343Y-111974099D01*
X160257139Y-111989695D01*
X160198933Y-112005291D01*
X160094567Y-112065547D01*
X160094565Y-112065548D01*
X160028474Y-112131639D01*
X159981854Y-112153378D01*
X159932167Y-112140064D01*
X159922126Y-112131638D01*
X159856039Y-112065551D01*
X159856033Y-112065547D01*
X159751667Y-112005291D01*
X159712863Y-111994893D01*
X159635258Y-111974099D01*
X159514744Y-111974099D01*
X159456540Y-111989695D01*
X159398334Y-112005291D01*
X159297184Y-112063690D01*
X159246525Y-112072622D01*
X159201977Y-112046902D01*
X159184384Y-111998565D01*
X159194458Y-111960966D01*
X159201908Y-111948064D01*
X159233100Y-111831656D01*
X159233100Y-111711142D01*
X163321500Y-111711142D01*
X163321500Y-111831656D01*
X163339260Y-111897936D01*
X163352692Y-111948065D01*
X163412948Y-112052431D01*
X163412952Y-112052437D01*
X163498161Y-112137646D01*
X163498164Y-112137648D01*
X163498166Y-112137650D01*
X163602535Y-112197907D01*
X163718943Y-112229099D01*
X163718945Y-112229099D01*
X163839455Y-112229099D01*
X163839457Y-112229099D01*
X163955865Y-112197907D01*
X164060234Y-112137650D01*
X164145451Y-112052433D01*
X164205708Y-111948064D01*
X164236900Y-111831656D01*
X164236900Y-111711142D01*
X164213031Y-111622064D01*
X168075500Y-111622064D01*
X168075500Y-111897936D01*
X168085527Y-111974099D01*
X168111508Y-112171450D01*
X168111509Y-112171453D01*
X168182910Y-112437923D01*
X168182910Y-112437924D01*
X168288481Y-112692795D01*
X168426418Y-112931709D01*
X168498527Y-113025682D01*
X168594358Y-113150571D01*
X168594363Y-113150576D01*
X168594370Y-113150584D01*
X168789415Y-113345629D01*
X168789423Y-113345636D01*
X168789429Y-113345642D01*
X169008293Y-113513583D01*
X169247206Y-113651519D01*
X169502079Y-113757091D01*
X169768551Y-113828492D01*
X170042064Y-113864500D01*
X170042066Y-113864500D01*
X170317934Y-113864500D01*
X170317936Y-113864500D01*
X170591449Y-113828492D01*
X170857921Y-113757091D01*
X171112794Y-113651519D01*
X171260533Y-113566222D01*
X177432100Y-113566222D01*
X177432100Y-113763777D01*
X177470641Y-113957537D01*
X177470642Y-113957538D01*
X177523287Y-114084635D01*
X177546241Y-114140051D01*
X177655996Y-114304312D01*
X177655997Y-114304313D01*
X177656000Y-114304317D01*
X177795682Y-114443999D01*
X177795685Y-114444001D01*
X177795688Y-114444004D01*
X177959949Y-114553759D01*
X178142461Y-114629357D01*
X178142462Y-114629358D01*
X178142463Y-114629358D01*
X178142465Y-114629359D01*
X178272218Y-114655168D01*
X178336222Y-114667900D01*
X178336223Y-114667900D01*
X178533778Y-114667900D01*
X178581889Y-114658329D01*
X178727535Y-114629359D01*
X178910051Y-114553759D01*
X179074312Y-114444004D01*
X179214004Y-114304312D01*
X179323759Y-114140051D01*
X179399359Y-113957535D01*
X179437900Y-113763777D01*
X179437900Y-113566223D01*
X179399359Y-113372465D01*
X179323759Y-113189949D01*
X179214004Y-113025688D01*
X179214001Y-113025685D01*
X179213999Y-113025682D01*
X179074318Y-112886001D01*
X179074314Y-112885998D01*
X179074312Y-112885996D01*
X179059329Y-112875985D01*
X179033575Y-112858776D01*
X179033574Y-112858776D01*
X178945522Y-112799942D01*
X179972100Y-112799942D01*
X179972100Y-114530055D01*
X179972101Y-114530057D01*
X179980972Y-114574659D01*
X180014764Y-114625232D01*
X180014765Y-114625232D01*
X180014766Y-114625234D01*
X180065342Y-114659028D01*
X180109943Y-114667900D01*
X181840056Y-114667899D01*
X181884658Y-114659028D01*
X181935234Y-114625234D01*
X181969028Y-114574658D01*
X181977900Y-114530057D01*
X181977899Y-112799944D01*
X181969028Y-112755342D01*
X181940624Y-112712833D01*
X181935235Y-112704767D01*
X181935231Y-112704764D01*
X181884658Y-112670972D01*
X181884656Y-112670971D01*
X181840057Y-112662100D01*
X180109944Y-112662100D01*
X180109942Y-112662101D01*
X180065340Y-112670972D01*
X180014767Y-112704764D01*
X179980972Y-112755342D01*
X179980971Y-112755343D01*
X179972100Y-112799942D01*
X178945522Y-112799942D01*
X178910051Y-112776241D01*
X178910049Y-112776240D01*
X178727538Y-112700642D01*
X178727537Y-112700641D01*
X178533778Y-112662100D01*
X178533777Y-112662100D01*
X178336223Y-112662100D01*
X178336222Y-112662100D01*
X178142462Y-112700641D01*
X178142461Y-112700642D01*
X177959950Y-112776240D01*
X177795682Y-112886000D01*
X177656000Y-113025682D01*
X177546240Y-113189950D01*
X177470642Y-113372461D01*
X177470641Y-113372462D01*
X177432100Y-113566222D01*
X171260533Y-113566222D01*
X171351707Y-113513583D01*
X171570571Y-113345642D01*
X171765642Y-113150571D01*
X171933583Y-112931707D01*
X172071519Y-112692794D01*
X172177091Y-112437921D01*
X172248492Y-112171449D01*
X172284500Y-111897936D01*
X172284500Y-111622064D01*
X172248492Y-111348551D01*
X172177091Y-111082079D01*
X172153954Y-111026222D01*
X177432100Y-111026222D01*
X177432100Y-111223777D01*
X177470641Y-111417537D01*
X177470642Y-111417538D01*
X177546239Y-111600046D01*
X177546241Y-111600051D01*
X177655996Y-111764312D01*
X177655997Y-111764313D01*
X177656000Y-111764317D01*
X177795682Y-111903999D01*
X177795685Y-111904001D01*
X177795688Y-111904004D01*
X177959949Y-112013759D01*
X178142461Y-112089357D01*
X178142462Y-112089358D01*
X178142463Y-112089358D01*
X178142465Y-112089359D01*
X178272218Y-112115168D01*
X178336222Y-112127900D01*
X178336223Y-112127900D01*
X178533778Y-112127900D01*
X178581889Y-112118329D01*
X178727535Y-112089359D01*
X178910051Y-112013759D01*
X179074312Y-111904004D01*
X179214004Y-111764312D01*
X179323759Y-111600051D01*
X179399359Y-111417535D01*
X179437900Y-111223777D01*
X179437900Y-111026223D01*
X179437900Y-111026222D01*
X179972100Y-111026222D01*
X179972100Y-111223777D01*
X180010641Y-111417537D01*
X180010642Y-111417538D01*
X180086239Y-111600046D01*
X180086241Y-111600051D01*
X180195996Y-111764312D01*
X180195997Y-111764313D01*
X180196000Y-111764317D01*
X180335682Y-111903999D01*
X180335685Y-111904001D01*
X180335688Y-111904004D01*
X180499949Y-112013759D01*
X180682461Y-112089357D01*
X180682462Y-112089358D01*
X180682463Y-112089358D01*
X180682465Y-112089359D01*
X180812218Y-112115168D01*
X180876222Y-112127900D01*
X180876223Y-112127900D01*
X181073778Y-112127900D01*
X181121889Y-112118329D01*
X181267535Y-112089359D01*
X181450051Y-112013759D01*
X181614312Y-111904004D01*
X181754004Y-111764312D01*
X181863759Y-111600051D01*
X181939359Y-111417535D01*
X181977900Y-111223777D01*
X181977900Y-111026223D01*
X181939359Y-110832465D01*
X181863759Y-110649949D01*
X181754004Y-110485688D01*
X181754001Y-110485685D01*
X181753999Y-110485682D01*
X181614317Y-110346000D01*
X181614313Y-110345997D01*
X181614312Y-110345996D01*
X181450051Y-110236241D01*
X181450049Y-110236240D01*
X181267538Y-110160642D01*
X181267537Y-110160641D01*
X181073778Y-110122100D01*
X181073777Y-110122100D01*
X180876223Y-110122100D01*
X180876222Y-110122100D01*
X180682462Y-110160641D01*
X180682461Y-110160642D01*
X180499950Y-110236240D01*
X180335682Y-110346000D01*
X180196000Y-110485682D01*
X180086240Y-110649950D01*
X180010642Y-110832461D01*
X180010641Y-110832462D01*
X179972100Y-111026222D01*
X179437900Y-111026222D01*
X179399359Y-110832465D01*
X179323759Y-110649949D01*
X179214004Y-110485688D01*
X179214001Y-110485685D01*
X179213999Y-110485682D01*
X179074317Y-110346000D01*
X179074313Y-110345997D01*
X179074312Y-110345996D01*
X178910051Y-110236241D01*
X178910049Y-110236240D01*
X178727538Y-110160642D01*
X178727537Y-110160641D01*
X178533778Y-110122100D01*
X178533777Y-110122100D01*
X178336223Y-110122100D01*
X178336222Y-110122100D01*
X178142462Y-110160641D01*
X178142461Y-110160642D01*
X177959950Y-110236240D01*
X177795682Y-110346000D01*
X177656000Y-110485682D01*
X177546240Y-110649950D01*
X177470642Y-110832461D01*
X177470641Y-110832462D01*
X177432100Y-111026222D01*
X172153954Y-111026222D01*
X172071519Y-110827206D01*
X171933583Y-110588293D01*
X171765642Y-110369429D01*
X171765636Y-110369423D01*
X171765629Y-110369415D01*
X171570584Y-110174370D01*
X171570576Y-110174363D01*
X171570571Y-110174358D01*
X171491570Y-110113738D01*
X171351709Y-110006418D01*
X171112795Y-109868481D01*
X170857924Y-109762910D01*
X170857922Y-109762909D01*
X170857921Y-109762909D01*
X170591453Y-109691509D01*
X170591450Y-109691508D01*
X170500278Y-109679505D01*
X170317936Y-109655500D01*
X170042064Y-109655500D01*
X169905307Y-109673504D01*
X169768549Y-109691508D01*
X169768546Y-109691509D01*
X169599610Y-109736775D01*
X169502079Y-109762909D01*
X169502077Y-109762909D01*
X169502076Y-109762910D01*
X169502075Y-109762910D01*
X169247204Y-109868481D01*
X169008290Y-110006418D01*
X168789431Y-110174356D01*
X168789415Y-110174370D01*
X168594370Y-110369415D01*
X168594356Y-110369431D01*
X168426418Y-110588290D01*
X168288481Y-110827204D01*
X168182910Y-111082075D01*
X168182910Y-111082076D01*
X168111509Y-111348546D01*
X168111508Y-111348549D01*
X168102426Y-111417535D01*
X168075500Y-111622064D01*
X164213031Y-111622064D01*
X164205708Y-111594734D01*
X164145451Y-111490365D01*
X164145449Y-111490363D01*
X164145447Y-111490360D01*
X164060238Y-111405151D01*
X164060232Y-111405147D01*
X163955866Y-111344891D01*
X163917062Y-111334493D01*
X163839457Y-111313699D01*
X163718943Y-111313699D01*
X163660739Y-111329295D01*
X163602533Y-111344891D01*
X163498167Y-111405147D01*
X163498161Y-111405151D01*
X163412952Y-111490360D01*
X163412948Y-111490366D01*
X163352692Y-111594732D01*
X163340813Y-111639065D01*
X163321500Y-111711142D01*
X159233100Y-111711142D01*
X159201908Y-111594734D01*
X159141651Y-111490365D01*
X159141649Y-111490363D01*
X159141647Y-111490360D01*
X159056438Y-111405151D01*
X159056432Y-111405147D01*
X158952066Y-111344891D01*
X158913262Y-111334493D01*
X158835657Y-111313699D01*
X158715143Y-111313699D01*
X158656939Y-111329295D01*
X158598733Y-111344891D01*
X158494367Y-111405147D01*
X158494361Y-111405151D01*
X158409152Y-111490360D01*
X158409148Y-111490366D01*
X158348892Y-111594732D01*
X158337013Y-111639065D01*
X158317700Y-111711142D01*
X143074500Y-111711142D01*
X143074500Y-111622064D01*
X143038492Y-111348551D01*
X142967091Y-111082079D01*
X142861519Y-110827206D01*
X142723583Y-110588293D01*
X142555642Y-110369429D01*
X142555636Y-110369423D01*
X142555629Y-110369415D01*
X142360584Y-110174370D01*
X142360576Y-110174363D01*
X142360571Y-110174358D01*
X142281570Y-110113738D01*
X142141709Y-110006418D01*
X141902795Y-109868481D01*
X141647924Y-109762910D01*
X141647922Y-109762909D01*
X141647921Y-109762909D01*
X141381453Y-109691509D01*
X141381450Y-109691508D01*
X141290278Y-109679505D01*
X141107936Y-109655500D01*
X140832064Y-109655500D01*
X140695307Y-109673504D01*
X140558549Y-109691508D01*
X140558546Y-109691509D01*
X140389610Y-109736775D01*
X140292079Y-109762909D01*
X140292077Y-109762909D01*
X140292076Y-109762910D01*
X140292075Y-109762910D01*
X140037204Y-109868481D01*
X139798290Y-110006418D01*
X139579431Y-110174356D01*
X139579415Y-110174370D01*
X139384370Y-110369415D01*
X139384356Y-110369431D01*
X139216418Y-110588290D01*
X139078481Y-110827204D01*
X138972910Y-111082075D01*
X138972910Y-111082076D01*
X138901509Y-111348546D01*
X138901508Y-111348549D01*
X138892426Y-111417535D01*
X138865500Y-111622064D01*
X133589050Y-111622064D01*
X133603759Y-111600051D01*
X133679359Y-111417535D01*
X133717900Y-111223777D01*
X133717900Y-111026223D01*
X133679359Y-110832465D01*
X133603759Y-110649949D01*
X133494004Y-110485688D01*
X133494001Y-110485685D01*
X133493999Y-110485682D01*
X133354317Y-110346000D01*
X133354313Y-110345997D01*
X133354312Y-110345996D01*
X133190051Y-110236241D01*
X133190049Y-110236240D01*
X133007538Y-110160642D01*
X133007537Y-110160641D01*
X132813778Y-110122100D01*
X132813777Y-110122100D01*
X132616223Y-110122100D01*
X132616222Y-110122100D01*
X132422462Y-110160641D01*
X132422461Y-110160642D01*
X132239950Y-110236240D01*
X132075682Y-110346000D01*
X131936000Y-110485682D01*
X131826240Y-110649950D01*
X131750642Y-110832461D01*
X131750641Y-110832462D01*
X131712100Y-111026222D01*
X131177900Y-111026222D01*
X131139359Y-110832465D01*
X131063759Y-110649949D01*
X130954004Y-110485688D01*
X130954001Y-110485685D01*
X130953999Y-110485682D01*
X130814317Y-110346000D01*
X130814313Y-110345997D01*
X130814312Y-110345996D01*
X130650051Y-110236241D01*
X130650049Y-110236240D01*
X130467538Y-110160642D01*
X130467537Y-110160641D01*
X130273778Y-110122100D01*
X130273777Y-110122100D01*
X130076223Y-110122100D01*
X130076222Y-110122100D01*
X129882462Y-110160641D01*
X129882461Y-110160642D01*
X129699950Y-110236240D01*
X129535682Y-110346000D01*
X129396000Y-110485682D01*
X129286240Y-110649950D01*
X129210642Y-110832461D01*
X129210641Y-110832462D01*
X129172100Y-111026222D01*
X126746500Y-111026222D01*
X126746500Y-108486222D01*
X129172100Y-108486222D01*
X129172100Y-108683777D01*
X129210641Y-108877537D01*
X129210642Y-108877538D01*
X129286240Y-109060049D01*
X129286241Y-109060051D01*
X129395996Y-109224312D01*
X129395997Y-109224313D01*
X129396000Y-109224317D01*
X129535682Y-109363999D01*
X129535685Y-109364001D01*
X129535688Y-109364004D01*
X129699949Y-109473759D01*
X129882461Y-109549357D01*
X129882462Y-109549358D01*
X129882463Y-109549358D01*
X129882465Y-109549359D01*
X130012218Y-109575168D01*
X130076222Y-109587900D01*
X130076223Y-109587900D01*
X130273778Y-109587900D01*
X130321889Y-109578329D01*
X130467535Y-109549359D01*
X130650051Y-109473759D01*
X130814312Y-109364004D01*
X130954004Y-109224312D01*
X131063759Y-109060051D01*
X131139359Y-108877535D01*
X131177900Y-108683777D01*
X131177900Y-108486223D01*
X131177900Y-108486222D01*
X131712100Y-108486222D01*
X131712100Y-108683777D01*
X131750641Y-108877537D01*
X131750642Y-108877538D01*
X131826240Y-109060049D01*
X131826241Y-109060051D01*
X131935996Y-109224312D01*
X131935997Y-109224313D01*
X131936000Y-109224317D01*
X132075682Y-109363999D01*
X132075685Y-109364001D01*
X132075688Y-109364004D01*
X132239949Y-109473759D01*
X132422461Y-109549357D01*
X132422462Y-109549358D01*
X132422463Y-109549358D01*
X132422465Y-109549359D01*
X132552218Y-109575168D01*
X132616222Y-109587900D01*
X132616223Y-109587900D01*
X132813778Y-109587900D01*
X132861889Y-109578329D01*
X133007535Y-109549359D01*
X133190051Y-109473759D01*
X133354312Y-109364004D01*
X133494004Y-109224312D01*
X133603759Y-109060051D01*
X133679359Y-108877535D01*
X133696743Y-108790142D01*
X157377900Y-108790142D01*
X157377900Y-108910656D01*
X157398694Y-108988261D01*
X157409092Y-109027065D01*
X157428137Y-109060051D01*
X157467721Y-109128614D01*
X157469348Y-109131431D01*
X157469352Y-109131437D01*
X157554561Y-109216646D01*
X157554564Y-109216648D01*
X157554566Y-109216650D01*
X157658935Y-109276907D01*
X157775343Y-109308099D01*
X157775345Y-109308099D01*
X157895855Y-109308099D01*
X157895857Y-109308099D01*
X158012265Y-109276907D01*
X158116634Y-109216650D01*
X158162142Y-109171142D01*
X161137100Y-109171142D01*
X161137100Y-109291656D01*
X161141506Y-109308099D01*
X161168292Y-109408065D01*
X161228548Y-109512431D01*
X161228552Y-109512437D01*
X161313761Y-109597646D01*
X161313764Y-109597648D01*
X161313766Y-109597650D01*
X161418135Y-109657907D01*
X161534543Y-109689099D01*
X161534545Y-109689099D01*
X161655055Y-109689099D01*
X161655057Y-109689099D01*
X161771465Y-109657907D01*
X161875834Y-109597650D01*
X161961051Y-109512433D01*
X162021308Y-109408064D01*
X162052500Y-109291656D01*
X162052500Y-109171142D01*
X162021308Y-109054734D01*
X161961051Y-108950365D01*
X161961049Y-108950363D01*
X161961047Y-108950360D01*
X161875838Y-108865151D01*
X161875832Y-108865147D01*
X161771466Y-108804891D01*
X161732662Y-108794493D01*
X161655057Y-108773699D01*
X161534543Y-108773699D01*
X161476339Y-108789295D01*
X161418133Y-108804891D01*
X161313767Y-108865147D01*
X161313761Y-108865151D01*
X161228552Y-108950360D01*
X161228548Y-108950366D01*
X161168292Y-109054732D01*
X161166867Y-109060051D01*
X161137100Y-109171142D01*
X158162142Y-109171142D01*
X158201851Y-109131433D01*
X158262108Y-109027064D01*
X158293300Y-108910656D01*
X158293300Y-108790142D01*
X158262108Y-108673734D01*
X158201851Y-108569365D01*
X158201849Y-108569363D01*
X158201847Y-108569360D01*
X158116638Y-108484151D01*
X158116632Y-108484147D01*
X158012266Y-108423891D01*
X157973462Y-108413493D01*
X157895857Y-108392699D01*
X157775343Y-108392699D01*
X157717139Y-108408295D01*
X157658933Y-108423891D01*
X157554567Y-108484147D01*
X157554561Y-108484151D01*
X157469352Y-108569360D01*
X157469348Y-108569366D01*
X157409092Y-108673732D01*
X157388297Y-108751339D01*
X157377900Y-108790142D01*
X133696743Y-108790142D01*
X133717900Y-108683777D01*
X133717900Y-108486223D01*
X133679359Y-108292465D01*
X133603759Y-108109949D01*
X133494004Y-107945688D01*
X133494001Y-107945685D01*
X133493999Y-107945682D01*
X133354317Y-107806000D01*
X133354313Y-107805997D01*
X133354312Y-107805996D01*
X133190051Y-107696241D01*
X133190049Y-107696240D01*
X133007538Y-107620642D01*
X133007537Y-107620641D01*
X132990072Y-107617167D01*
X132875885Y-107594454D01*
X132813778Y-107582100D01*
X132813777Y-107582100D01*
X132616223Y-107582100D01*
X132616222Y-107582100D01*
X132422462Y-107620641D01*
X132422461Y-107620642D01*
X132239950Y-107696240D01*
X132075682Y-107806000D01*
X131936000Y-107945682D01*
X131826240Y-108109950D01*
X131750642Y-108292461D01*
X131750641Y-108292462D01*
X131712100Y-108486222D01*
X131177900Y-108486222D01*
X131139359Y-108292465D01*
X131063759Y-108109949D01*
X130954004Y-107945688D01*
X130954001Y-107945685D01*
X130953999Y-107945682D01*
X130814317Y-107806000D01*
X130814313Y-107805997D01*
X130814312Y-107805996D01*
X130650051Y-107696241D01*
X130650049Y-107696240D01*
X130467538Y-107620642D01*
X130467537Y-107620641D01*
X130273778Y-107582100D01*
X130273777Y-107582100D01*
X130076223Y-107582100D01*
X130076222Y-107582100D01*
X129882462Y-107620641D01*
X129882461Y-107620642D01*
X129699950Y-107696240D01*
X129535682Y-107806000D01*
X129396000Y-107945682D01*
X129286240Y-108109950D01*
X129210642Y-108292461D01*
X129210641Y-108292462D01*
X129172100Y-108486222D01*
X126746500Y-108486222D01*
X126746500Y-107545542D01*
X156768300Y-107545542D01*
X156768300Y-107666056D01*
X156789094Y-107743661D01*
X156799492Y-107782465D01*
X156859748Y-107886831D01*
X156859752Y-107886837D01*
X156944961Y-107972046D01*
X156944964Y-107972048D01*
X156944966Y-107972050D01*
X157049335Y-108032307D01*
X157165743Y-108063499D01*
X157165745Y-108063499D01*
X157286255Y-108063499D01*
X157286257Y-108063499D01*
X157402665Y-108032307D01*
X157507034Y-107972050D01*
X157592251Y-107886833D01*
X157652508Y-107782464D01*
X157683700Y-107666056D01*
X157683700Y-107545542D01*
X158317700Y-107545542D01*
X158317700Y-107666056D01*
X158338494Y-107743661D01*
X158348892Y-107782465D01*
X158409148Y-107886831D01*
X158409152Y-107886837D01*
X158494361Y-107972046D01*
X158494364Y-107972048D01*
X158494366Y-107972050D01*
X158598735Y-108032307D01*
X158715143Y-108063499D01*
X158715145Y-108063499D01*
X158835655Y-108063499D01*
X158835657Y-108063499D01*
X158952065Y-108032307D01*
X159056434Y-107972050D01*
X159141651Y-107886833D01*
X159201908Y-107782464D01*
X159233100Y-107666056D01*
X159233100Y-107545542D01*
X159201908Y-107429134D01*
X159141651Y-107324765D01*
X159141649Y-107324763D01*
X159141647Y-107324760D01*
X159056438Y-107239551D01*
X159056432Y-107239547D01*
X158952066Y-107179291D01*
X158913262Y-107168893D01*
X158835657Y-107148099D01*
X158715143Y-107148099D01*
X158656939Y-107163695D01*
X158598733Y-107179291D01*
X158494367Y-107239547D01*
X158494361Y-107239551D01*
X158409152Y-107324760D01*
X158409148Y-107324766D01*
X158348892Y-107429132D01*
X158328097Y-107506739D01*
X158317700Y-107545542D01*
X157683700Y-107545542D01*
X157652508Y-107429134D01*
X157592251Y-107324765D01*
X157592249Y-107324763D01*
X157592247Y-107324760D01*
X157507038Y-107239551D01*
X157507032Y-107239547D01*
X157402666Y-107179291D01*
X157363862Y-107168893D01*
X157286257Y-107148099D01*
X157165743Y-107148099D01*
X157107539Y-107163695D01*
X157049333Y-107179291D01*
X156944967Y-107239547D01*
X156944961Y-107239551D01*
X156859752Y-107324760D01*
X156859748Y-107324766D01*
X156799492Y-107429132D01*
X156778697Y-107506739D01*
X156768300Y-107545542D01*
X126746500Y-107545542D01*
X126746500Y-105946222D01*
X129172100Y-105946222D01*
X129172100Y-106143777D01*
X129210641Y-106337537D01*
X129210642Y-106337538D01*
X129262215Y-106462047D01*
X129286241Y-106520051D01*
X129395996Y-106684312D01*
X129395997Y-106684313D01*
X129396000Y-106684317D01*
X129535682Y-106823999D01*
X129535685Y-106824001D01*
X129535688Y-106824004D01*
X129699949Y-106933759D01*
X129882461Y-107009357D01*
X129882462Y-107009358D01*
X129882463Y-107009358D01*
X129882465Y-107009359D01*
X130012218Y-107035168D01*
X130076222Y-107047900D01*
X130076223Y-107047900D01*
X130273778Y-107047900D01*
X130321889Y-107038329D01*
X130467535Y-107009359D01*
X130650051Y-106933759D01*
X130814312Y-106824004D01*
X130954004Y-106684312D01*
X131063759Y-106520051D01*
X131139359Y-106337535D01*
X131177900Y-106143777D01*
X131177900Y-105946223D01*
X131177900Y-105946222D01*
X131712100Y-105946222D01*
X131712100Y-106143777D01*
X131750641Y-106337537D01*
X131750642Y-106337538D01*
X131802215Y-106462047D01*
X131826241Y-106520051D01*
X131935996Y-106684312D01*
X131935997Y-106684313D01*
X131936000Y-106684317D01*
X132075682Y-106823999D01*
X132075685Y-106824001D01*
X132075688Y-106824004D01*
X132239949Y-106933759D01*
X132422461Y-107009357D01*
X132422462Y-107009358D01*
X132422463Y-107009358D01*
X132422465Y-107009359D01*
X132552218Y-107035168D01*
X132616222Y-107047900D01*
X132616223Y-107047900D01*
X132813778Y-107047900D01*
X132861889Y-107038329D01*
X133007535Y-107009359D01*
X133190051Y-106933759D01*
X133354312Y-106824004D01*
X133494004Y-106684312D01*
X133603759Y-106520051D01*
X133679359Y-106337535D01*
X133717900Y-106143777D01*
X133717900Y-106035543D01*
X142252700Y-106035543D01*
X142252700Y-106156057D01*
X142273494Y-106233662D01*
X142283892Y-106272466D01*
X142344148Y-106376832D01*
X142344152Y-106376838D01*
X142429361Y-106462047D01*
X142429364Y-106462049D01*
X142429366Y-106462051D01*
X142533735Y-106522308D01*
X142650143Y-106553500D01*
X142650145Y-106553500D01*
X142770655Y-106553500D01*
X142770657Y-106553500D01*
X142887065Y-106522308D01*
X142991434Y-106462051D01*
X143076651Y-106376834D01*
X143136908Y-106272465D01*
X143168100Y-106156057D01*
X143168100Y-106035543D01*
X143902700Y-106035543D01*
X143902700Y-106156057D01*
X143923494Y-106233662D01*
X143933892Y-106272466D01*
X143994148Y-106376832D01*
X143994152Y-106376838D01*
X144079361Y-106462047D01*
X144079364Y-106462049D01*
X144079366Y-106462051D01*
X144183735Y-106522308D01*
X144300143Y-106553500D01*
X144300145Y-106553500D01*
X144420655Y-106553500D01*
X144420657Y-106553500D01*
X144537065Y-106522308D01*
X144641434Y-106462051D01*
X144726651Y-106376834D01*
X144786908Y-106272465D01*
X144818100Y-106156057D01*
X144818100Y-106035543D01*
X167981900Y-106035543D01*
X167981900Y-106156057D01*
X168002694Y-106233662D01*
X168013092Y-106272466D01*
X168073348Y-106376832D01*
X168073352Y-106376838D01*
X168158561Y-106462047D01*
X168158564Y-106462049D01*
X168158566Y-106462051D01*
X168262935Y-106522308D01*
X168379343Y-106553500D01*
X168379345Y-106553500D01*
X168499855Y-106553500D01*
X168499857Y-106553500D01*
X168616265Y-106522308D01*
X168720634Y-106462051D01*
X168805851Y-106376834D01*
X168866108Y-106272465D01*
X168897300Y-106156057D01*
X168897300Y-106035543D01*
X170953700Y-106035543D01*
X170953700Y-106156057D01*
X170974494Y-106233662D01*
X170984892Y-106272466D01*
X171045148Y-106376832D01*
X171045152Y-106376838D01*
X171130361Y-106462047D01*
X171130364Y-106462049D01*
X171130366Y-106462051D01*
X171234735Y-106522308D01*
X171351143Y-106553500D01*
X171351145Y-106553500D01*
X171471655Y-106553500D01*
X171471657Y-106553500D01*
X171588065Y-106522308D01*
X171692434Y-106462051D01*
X171777651Y-106376834D01*
X171837908Y-106272465D01*
X171869100Y-106156057D01*
X171869100Y-106035543D01*
X171845166Y-105946222D01*
X177432100Y-105946222D01*
X177432100Y-106143777D01*
X177470641Y-106337537D01*
X177470642Y-106337538D01*
X177522215Y-106462047D01*
X177546241Y-106520051D01*
X177655996Y-106684312D01*
X177655997Y-106684313D01*
X177656000Y-106684317D01*
X177795682Y-106823999D01*
X177795685Y-106824001D01*
X177795688Y-106824004D01*
X177959949Y-106933759D01*
X178142461Y-107009357D01*
X178142462Y-107009358D01*
X178142463Y-107009358D01*
X178142465Y-107009359D01*
X178272218Y-107035168D01*
X178336222Y-107047900D01*
X178336223Y-107047900D01*
X178533778Y-107047900D01*
X178581889Y-107038329D01*
X178727535Y-107009359D01*
X178910051Y-106933759D01*
X179074312Y-106824004D01*
X179214004Y-106684312D01*
X179323759Y-106520051D01*
X179399359Y-106337535D01*
X179437900Y-106143777D01*
X179437900Y-105946223D01*
X179437900Y-105946222D01*
X179972100Y-105946222D01*
X179972100Y-106143777D01*
X180010641Y-106337537D01*
X180010642Y-106337538D01*
X180062215Y-106462047D01*
X180086241Y-106520051D01*
X180195996Y-106684312D01*
X180195997Y-106684313D01*
X180196000Y-106684317D01*
X180335682Y-106823999D01*
X180335685Y-106824001D01*
X180335688Y-106824004D01*
X180499949Y-106933759D01*
X180682461Y-107009357D01*
X180682462Y-107009358D01*
X180682463Y-107009358D01*
X180682465Y-107009359D01*
X180812218Y-107035168D01*
X180876222Y-107047900D01*
X180876223Y-107047900D01*
X181073778Y-107047900D01*
X181121889Y-107038329D01*
X181267535Y-107009359D01*
X181450051Y-106933759D01*
X181614312Y-106824004D01*
X181754004Y-106684312D01*
X181863759Y-106520051D01*
X181939359Y-106337535D01*
X181977900Y-106143777D01*
X181977900Y-105946223D01*
X181972511Y-105919133D01*
X181965168Y-105882218D01*
X181939359Y-105752465D01*
X181863759Y-105569949D01*
X181754004Y-105405688D01*
X181754001Y-105405685D01*
X181753999Y-105405682D01*
X181614317Y-105266000D01*
X181614313Y-105265997D01*
X181614312Y-105265996D01*
X181450051Y-105156241D01*
X181450049Y-105156240D01*
X181267538Y-105080642D01*
X181267537Y-105080641D01*
X181073778Y-105042100D01*
X181073777Y-105042100D01*
X180876223Y-105042100D01*
X180876222Y-105042100D01*
X180682462Y-105080641D01*
X180682461Y-105080642D01*
X180499950Y-105156240D01*
X180335682Y-105266000D01*
X180196000Y-105405682D01*
X180086240Y-105569950D01*
X180010642Y-105752461D01*
X180010641Y-105752462D01*
X179972100Y-105946222D01*
X179437900Y-105946222D01*
X179432511Y-105919133D01*
X179425168Y-105882218D01*
X179399359Y-105752465D01*
X179323759Y-105569949D01*
X179214004Y-105405688D01*
X179214001Y-105405685D01*
X179213999Y-105405682D01*
X179074317Y-105266000D01*
X179074313Y-105265997D01*
X179074312Y-105265996D01*
X178910051Y-105156241D01*
X178910049Y-105156240D01*
X178727538Y-105080642D01*
X178727537Y-105080641D01*
X178533778Y-105042100D01*
X178533777Y-105042100D01*
X178336223Y-105042100D01*
X178336222Y-105042100D01*
X178142462Y-105080641D01*
X178142461Y-105080642D01*
X177959950Y-105156240D01*
X177795682Y-105266000D01*
X177656000Y-105405682D01*
X177546240Y-105569950D01*
X177470642Y-105752461D01*
X177470641Y-105752462D01*
X177432100Y-105946222D01*
X171845166Y-105946222D01*
X171837908Y-105919135D01*
X171777651Y-105814766D01*
X171777649Y-105814764D01*
X171777647Y-105814761D01*
X171692438Y-105729552D01*
X171692432Y-105729548D01*
X171588066Y-105669292D01*
X171549262Y-105658894D01*
X171471657Y-105638100D01*
X171351143Y-105638100D01*
X171292939Y-105653696D01*
X171234733Y-105669292D01*
X171130367Y-105729548D01*
X171130361Y-105729552D01*
X171045152Y-105814761D01*
X171045148Y-105814767D01*
X170984892Y-105919133D01*
X170973408Y-105961992D01*
X170953700Y-106035543D01*
X168897300Y-106035543D01*
X168866108Y-105919135D01*
X168805851Y-105814766D01*
X168805849Y-105814764D01*
X168805847Y-105814761D01*
X168720638Y-105729552D01*
X168720632Y-105729548D01*
X168616266Y-105669292D01*
X168577462Y-105658894D01*
X168499857Y-105638100D01*
X168379343Y-105638100D01*
X168321139Y-105653696D01*
X168262933Y-105669292D01*
X168158567Y-105729548D01*
X168158561Y-105729552D01*
X168073352Y-105814761D01*
X168073348Y-105814767D01*
X168013092Y-105919133D01*
X168001608Y-105961992D01*
X167981900Y-106035543D01*
X144818100Y-106035543D01*
X144786908Y-105919135D01*
X144726651Y-105814766D01*
X144726649Y-105814764D01*
X144726647Y-105814761D01*
X144641438Y-105729552D01*
X144641432Y-105729548D01*
X144537066Y-105669292D01*
X144498262Y-105658894D01*
X144420657Y-105638100D01*
X144300143Y-105638100D01*
X144241939Y-105653696D01*
X144183733Y-105669292D01*
X144079367Y-105729548D01*
X144079361Y-105729552D01*
X143994152Y-105814761D01*
X143994148Y-105814767D01*
X143933892Y-105919133D01*
X143922408Y-105961992D01*
X143902700Y-106035543D01*
X143168100Y-106035543D01*
X143136908Y-105919135D01*
X143076651Y-105814766D01*
X143076649Y-105814764D01*
X143076647Y-105814761D01*
X142991438Y-105729552D01*
X142991432Y-105729548D01*
X142887066Y-105669292D01*
X142848262Y-105658894D01*
X142770657Y-105638100D01*
X142650143Y-105638100D01*
X142591939Y-105653696D01*
X142533733Y-105669292D01*
X142429367Y-105729548D01*
X142429361Y-105729552D01*
X142344152Y-105814761D01*
X142344148Y-105814767D01*
X142283892Y-105919133D01*
X142272408Y-105961992D01*
X142252700Y-106035543D01*
X133717900Y-106035543D01*
X133717900Y-105946223D01*
X133712511Y-105919133D01*
X133705168Y-105882218D01*
X133679359Y-105752465D01*
X133603759Y-105569949D01*
X133494004Y-105405688D01*
X133494001Y-105405685D01*
X133493999Y-105405682D01*
X133354317Y-105266000D01*
X133354313Y-105265997D01*
X133354312Y-105265996D01*
X133190051Y-105156241D01*
X133190049Y-105156240D01*
X133007538Y-105080642D01*
X133007537Y-105080641D01*
X132813778Y-105042100D01*
X132813777Y-105042100D01*
X132616223Y-105042100D01*
X132616222Y-105042100D01*
X132422462Y-105080641D01*
X132422461Y-105080642D01*
X132239950Y-105156240D01*
X132075682Y-105266000D01*
X131936000Y-105405682D01*
X131826240Y-105569950D01*
X131750642Y-105752461D01*
X131750641Y-105752462D01*
X131712100Y-105946222D01*
X131177900Y-105946222D01*
X131172511Y-105919133D01*
X131165168Y-105882218D01*
X131139359Y-105752465D01*
X131063759Y-105569949D01*
X130954004Y-105405688D01*
X130954001Y-105405685D01*
X130953999Y-105405682D01*
X130814317Y-105266000D01*
X130814313Y-105265997D01*
X130814312Y-105265996D01*
X130650051Y-105156241D01*
X130650049Y-105156240D01*
X130467538Y-105080642D01*
X130467537Y-105080641D01*
X130273778Y-105042100D01*
X130273777Y-105042100D01*
X130076223Y-105042100D01*
X130076222Y-105042100D01*
X129882462Y-105080641D01*
X129882461Y-105080642D01*
X129699950Y-105156240D01*
X129535682Y-105266000D01*
X129396000Y-105405682D01*
X129286240Y-105569950D01*
X129210642Y-105752461D01*
X129210641Y-105752462D01*
X129172100Y-105946222D01*
X126746500Y-105946222D01*
X126746500Y-104562343D01*
X139280900Y-104562343D01*
X139280900Y-104682857D01*
X139301694Y-104760462D01*
X139312092Y-104799266D01*
X139372348Y-104903632D01*
X139372352Y-104903638D01*
X139457561Y-104988847D01*
X139457564Y-104988849D01*
X139457566Y-104988851D01*
X139561935Y-105049108D01*
X139678343Y-105080300D01*
X139678345Y-105080300D01*
X139798855Y-105080300D01*
X139798857Y-105080300D01*
X139915265Y-105049108D01*
X140019634Y-104988851D01*
X140104851Y-104903634D01*
X140165108Y-104799265D01*
X140196300Y-104682857D01*
X140196300Y-104562343D01*
X140930900Y-104562343D01*
X140930900Y-104682857D01*
X140951694Y-104760462D01*
X140962092Y-104799266D01*
X141022348Y-104903632D01*
X141022352Y-104903638D01*
X141107561Y-104988847D01*
X141107564Y-104988849D01*
X141107566Y-104988851D01*
X141211935Y-105049108D01*
X141328343Y-105080300D01*
X141328345Y-105080300D01*
X141448855Y-105080300D01*
X141448857Y-105080300D01*
X141565265Y-105049108D01*
X141669634Y-104988851D01*
X141754851Y-104903634D01*
X141815108Y-104799265D01*
X141846300Y-104682857D01*
X141846300Y-104562343D01*
X142252700Y-104562343D01*
X142252700Y-104682857D01*
X142273494Y-104760462D01*
X142283892Y-104799266D01*
X142344148Y-104903632D01*
X142344152Y-104903638D01*
X142429361Y-104988847D01*
X142429364Y-104988849D01*
X142429366Y-104988851D01*
X142533735Y-105049108D01*
X142650143Y-105080300D01*
X142650145Y-105080300D01*
X142770655Y-105080300D01*
X142770657Y-105080300D01*
X142887065Y-105049108D01*
X142991434Y-104988851D01*
X143076651Y-104903634D01*
X143136908Y-104799265D01*
X143168100Y-104682857D01*
X143168100Y-104562343D01*
X143902700Y-104562343D01*
X143902700Y-104682857D01*
X143923494Y-104760462D01*
X143933892Y-104799266D01*
X143994148Y-104903632D01*
X143994152Y-104903638D01*
X144079361Y-104988847D01*
X144079364Y-104988849D01*
X144079366Y-104988851D01*
X144183735Y-105049108D01*
X144300143Y-105080300D01*
X144300145Y-105080300D01*
X144420655Y-105080300D01*
X144420657Y-105080300D01*
X144537065Y-105049108D01*
X144641434Y-104988851D01*
X144726651Y-104903634D01*
X144786908Y-104799265D01*
X144818100Y-104682857D01*
X144818100Y-104562343D01*
X144786908Y-104445935D01*
X144726651Y-104341566D01*
X144726649Y-104341564D01*
X144726647Y-104341561D01*
X144641438Y-104256352D01*
X144641432Y-104256348D01*
X144537066Y-104196092D01*
X144498262Y-104185694D01*
X144420657Y-104164900D01*
X144300143Y-104164900D01*
X144241939Y-104180496D01*
X144183733Y-104196092D01*
X144079367Y-104256348D01*
X144079361Y-104256352D01*
X143994152Y-104341561D01*
X143994148Y-104341567D01*
X143933892Y-104445933D01*
X143917289Y-104507898D01*
X143902700Y-104562343D01*
X143168100Y-104562343D01*
X143136908Y-104445935D01*
X143076651Y-104341566D01*
X143076649Y-104341564D01*
X143076647Y-104341561D01*
X142991438Y-104256352D01*
X142991432Y-104256348D01*
X142887066Y-104196092D01*
X142848262Y-104185694D01*
X142770657Y-104164900D01*
X142650143Y-104164900D01*
X142591939Y-104180496D01*
X142533733Y-104196092D01*
X142429367Y-104256348D01*
X142429361Y-104256352D01*
X142344152Y-104341561D01*
X142344148Y-104341567D01*
X142283892Y-104445933D01*
X142267289Y-104507898D01*
X142252700Y-104562343D01*
X141846300Y-104562343D01*
X141815108Y-104445935D01*
X141754851Y-104341566D01*
X141754849Y-104341564D01*
X141754847Y-104341561D01*
X141669638Y-104256352D01*
X141669632Y-104256348D01*
X141565266Y-104196092D01*
X141526462Y-104185694D01*
X141448857Y-104164900D01*
X141328343Y-104164900D01*
X141270139Y-104180496D01*
X141211933Y-104196092D01*
X141107567Y-104256348D01*
X141107561Y-104256352D01*
X141022352Y-104341561D01*
X141022348Y-104341567D01*
X140962092Y-104445933D01*
X140945489Y-104507898D01*
X140930900Y-104562343D01*
X140196300Y-104562343D01*
X140165108Y-104445935D01*
X140104851Y-104341566D01*
X140104849Y-104341564D01*
X140104847Y-104341561D01*
X140019638Y-104256352D01*
X140019632Y-104256348D01*
X139915266Y-104196092D01*
X139876462Y-104185694D01*
X139798857Y-104164900D01*
X139678343Y-104164900D01*
X139620139Y-104180496D01*
X139561933Y-104196092D01*
X139457567Y-104256348D01*
X139457561Y-104256352D01*
X139372352Y-104341561D01*
X139372348Y-104341567D01*
X139312092Y-104445933D01*
X139295489Y-104507898D01*
X139280900Y-104562343D01*
X126746500Y-104562343D01*
X126746500Y-102639942D01*
X129172100Y-102639942D01*
X129172100Y-104370055D01*
X129172101Y-104370057D01*
X129180972Y-104414659D01*
X129214764Y-104465232D01*
X129214765Y-104465232D01*
X129214766Y-104465234D01*
X129265342Y-104499028D01*
X129309943Y-104507900D01*
X131040056Y-104507899D01*
X131084658Y-104499028D01*
X131135234Y-104465234D01*
X131169028Y-104414658D01*
X131177900Y-104370057D01*
X131177899Y-103406222D01*
X131712100Y-103406222D01*
X131712100Y-103603777D01*
X131750641Y-103797537D01*
X131750642Y-103797538D01*
X131826241Y-103980051D01*
X131935996Y-104144312D01*
X131935997Y-104144313D01*
X131936000Y-104144317D01*
X132075682Y-104283999D01*
X132075685Y-104284001D01*
X132075688Y-104284004D01*
X132239949Y-104393759D01*
X132422461Y-104469357D01*
X132422462Y-104469358D01*
X132422463Y-104469358D01*
X132422465Y-104469359D01*
X132552218Y-104495168D01*
X132616222Y-104507900D01*
X132616223Y-104507900D01*
X132813778Y-104507900D01*
X132935644Y-104483659D01*
X133007535Y-104469359D01*
X133190051Y-104393759D01*
X133354312Y-104284004D01*
X133494004Y-104144312D01*
X133603759Y-103980051D01*
X133679359Y-103797535D01*
X133717900Y-103603777D01*
X133717900Y-103406223D01*
X133679359Y-103212465D01*
X133628278Y-103089143D01*
X139280900Y-103089143D01*
X139280900Y-103209657D01*
X139301694Y-103287262D01*
X139312092Y-103326066D01*
X139372348Y-103430432D01*
X139372352Y-103430438D01*
X139457561Y-103515647D01*
X139457564Y-103515649D01*
X139457566Y-103515651D01*
X139561935Y-103575908D01*
X139678343Y-103607100D01*
X139678345Y-103607100D01*
X139798855Y-103607100D01*
X139798857Y-103607100D01*
X139915265Y-103575908D01*
X140019634Y-103515651D01*
X140104851Y-103430434D01*
X140165108Y-103326065D01*
X140196300Y-103209657D01*
X140196300Y-103089143D01*
X140930900Y-103089143D01*
X140930900Y-103209657D01*
X140951694Y-103287262D01*
X140962092Y-103326066D01*
X141022348Y-103430432D01*
X141022352Y-103430438D01*
X141107561Y-103515647D01*
X141107564Y-103515649D01*
X141107566Y-103515651D01*
X141211935Y-103575908D01*
X141328343Y-103607100D01*
X141328345Y-103607100D01*
X141448855Y-103607100D01*
X141448857Y-103607100D01*
X141565265Y-103575908D01*
X141669634Y-103515651D01*
X141754851Y-103430434D01*
X141815108Y-103326065D01*
X141846300Y-103209657D01*
X141846300Y-103089143D01*
X141815108Y-102972735D01*
X141754851Y-102868366D01*
X141754849Y-102868364D01*
X141754847Y-102868361D01*
X141669638Y-102783152D01*
X141669632Y-102783148D01*
X141565266Y-102722892D01*
X141526462Y-102712494D01*
X141448857Y-102691700D01*
X141328343Y-102691700D01*
X141270139Y-102707296D01*
X141211933Y-102722892D01*
X141107567Y-102783148D01*
X141107561Y-102783152D01*
X141022352Y-102868361D01*
X141022348Y-102868367D01*
X140962092Y-102972733D01*
X140946761Y-103029949D01*
X140930900Y-103089143D01*
X140196300Y-103089143D01*
X140165108Y-102972735D01*
X140104851Y-102868366D01*
X140104849Y-102868364D01*
X140104847Y-102868361D01*
X140019638Y-102783152D01*
X140019632Y-102783148D01*
X139915266Y-102722892D01*
X139876462Y-102712494D01*
X139798857Y-102691700D01*
X139678343Y-102691700D01*
X139620139Y-102707296D01*
X139561933Y-102722892D01*
X139457567Y-102783148D01*
X139457561Y-102783152D01*
X139372352Y-102868361D01*
X139372348Y-102868367D01*
X139312092Y-102972733D01*
X139296761Y-103029949D01*
X139280900Y-103089143D01*
X133628278Y-103089143D01*
X133603759Y-103029949D01*
X133494004Y-102865688D01*
X133494001Y-102865685D01*
X133493999Y-102865682D01*
X133354317Y-102726000D01*
X133354313Y-102725997D01*
X133354312Y-102725996D01*
X133190051Y-102616241D01*
X133190049Y-102616240D01*
X133007538Y-102540642D01*
X133007537Y-102540641D01*
X132813778Y-102502100D01*
X132813777Y-102502100D01*
X132616223Y-102502100D01*
X132616222Y-102502100D01*
X132422462Y-102540641D01*
X132422461Y-102540642D01*
X132239950Y-102616240D01*
X132075682Y-102726000D01*
X131936000Y-102865682D01*
X131826240Y-103029950D01*
X131750642Y-103212461D01*
X131750641Y-103212462D01*
X131712100Y-103406222D01*
X131177899Y-103406222D01*
X131177899Y-102639944D01*
X131169028Y-102595342D01*
X131135234Y-102544766D01*
X131084658Y-102510972D01*
X131084656Y-102510971D01*
X131040057Y-102502100D01*
X129309944Y-102502100D01*
X129309942Y-102502101D01*
X129265340Y-102510972D01*
X129214767Y-102544764D01*
X129180972Y-102595342D01*
X129180971Y-102595343D01*
X129172100Y-102639942D01*
X126746500Y-102639942D01*
X126746500Y-101615943D01*
X139280900Y-101615943D01*
X139280900Y-101736457D01*
X139301694Y-101814062D01*
X139312092Y-101852866D01*
X139372348Y-101957232D01*
X139372352Y-101957238D01*
X139457561Y-102042447D01*
X139457564Y-102042449D01*
X139457566Y-102042451D01*
X139561935Y-102102708D01*
X139678343Y-102133900D01*
X139678345Y-102133900D01*
X139798855Y-102133900D01*
X139798857Y-102133900D01*
X139915265Y-102102708D01*
X140019634Y-102042451D01*
X140104851Y-101957234D01*
X140165108Y-101852865D01*
X140196300Y-101736457D01*
X140196300Y-101615943D01*
X140930900Y-101615943D01*
X140930900Y-101736457D01*
X140951694Y-101814062D01*
X140962092Y-101852866D01*
X141022348Y-101957232D01*
X141022352Y-101957238D01*
X141107561Y-102042447D01*
X141107564Y-102042449D01*
X141107566Y-102042451D01*
X141211935Y-102102708D01*
X141328343Y-102133900D01*
X141328345Y-102133900D01*
X141448855Y-102133900D01*
X141448857Y-102133900D01*
X141565265Y-102102708D01*
X141669634Y-102042451D01*
X141754851Y-101957234D01*
X141815108Y-101852865D01*
X141846300Y-101736457D01*
X141846300Y-101615943D01*
X142252700Y-101615943D01*
X142252700Y-101736457D01*
X142273494Y-101814062D01*
X142283892Y-101852866D01*
X142344148Y-101957232D01*
X142344152Y-101957238D01*
X142429361Y-102042447D01*
X142429364Y-102042449D01*
X142429366Y-102042451D01*
X142533735Y-102102708D01*
X142650143Y-102133900D01*
X142650145Y-102133900D01*
X142770655Y-102133900D01*
X142770657Y-102133900D01*
X142887065Y-102102708D01*
X142991434Y-102042451D01*
X143076651Y-101957234D01*
X143136908Y-101852865D01*
X143168100Y-101736457D01*
X143168100Y-101615943D01*
X143902700Y-101615943D01*
X143902700Y-101736457D01*
X143923494Y-101814062D01*
X143933892Y-101852866D01*
X143994148Y-101957232D01*
X143994152Y-101957238D01*
X144079361Y-102042447D01*
X144079364Y-102042449D01*
X144079366Y-102042451D01*
X144183735Y-102102708D01*
X144300143Y-102133900D01*
X144300145Y-102133900D01*
X144420655Y-102133900D01*
X144420657Y-102133900D01*
X144537065Y-102102708D01*
X144641434Y-102042451D01*
X144726651Y-101957234D01*
X144786908Y-101852865D01*
X144818100Y-101736457D01*
X144818100Y-101615943D01*
X167981900Y-101615943D01*
X167981900Y-101736457D01*
X168002694Y-101814062D01*
X168013092Y-101852866D01*
X168073348Y-101957232D01*
X168073352Y-101957238D01*
X168158561Y-102042447D01*
X168158564Y-102042449D01*
X168158566Y-102042451D01*
X168262935Y-102102708D01*
X168379343Y-102133900D01*
X168379345Y-102133900D01*
X168499855Y-102133900D01*
X168499857Y-102133900D01*
X168616265Y-102102708D01*
X168720634Y-102042451D01*
X168805851Y-101957234D01*
X168866108Y-101852865D01*
X168897300Y-101736457D01*
X168897300Y-101615943D01*
X170953700Y-101615943D01*
X170953700Y-101736457D01*
X170974494Y-101814062D01*
X170984892Y-101852866D01*
X171045148Y-101957232D01*
X171045152Y-101957238D01*
X171130361Y-102042447D01*
X171130364Y-102042449D01*
X171130366Y-102042451D01*
X171234735Y-102102708D01*
X171351143Y-102133900D01*
X171351145Y-102133900D01*
X171471655Y-102133900D01*
X171471657Y-102133900D01*
X171588065Y-102102708D01*
X171692434Y-102042451D01*
X171777651Y-101957234D01*
X171837908Y-101852865D01*
X171869100Y-101736457D01*
X171869100Y-101615943D01*
X171837908Y-101499535D01*
X171777651Y-101395166D01*
X171777649Y-101395164D01*
X171777647Y-101395161D01*
X171692438Y-101309952D01*
X171692432Y-101309948D01*
X171588066Y-101249692D01*
X171549262Y-101239294D01*
X171471657Y-101218500D01*
X171351143Y-101218500D01*
X171292939Y-101234096D01*
X171234733Y-101249692D01*
X171130367Y-101309948D01*
X171130361Y-101309952D01*
X171045152Y-101395161D01*
X171045148Y-101395167D01*
X170984892Y-101499533D01*
X170964097Y-101577140D01*
X170953700Y-101615943D01*
X168897300Y-101615943D01*
X168866108Y-101499535D01*
X168805851Y-101395166D01*
X168805849Y-101395164D01*
X168805847Y-101395161D01*
X168720638Y-101309952D01*
X168720632Y-101309948D01*
X168616266Y-101249692D01*
X168577462Y-101239294D01*
X168499857Y-101218500D01*
X168379343Y-101218500D01*
X168321139Y-101234096D01*
X168262933Y-101249692D01*
X168158567Y-101309948D01*
X168158561Y-101309952D01*
X168073352Y-101395161D01*
X168073348Y-101395167D01*
X168013092Y-101499533D01*
X167992297Y-101577140D01*
X167981900Y-101615943D01*
X144818100Y-101615943D01*
X144786908Y-101499535D01*
X144726651Y-101395166D01*
X144726649Y-101395164D01*
X144726647Y-101395161D01*
X144641438Y-101309952D01*
X144641432Y-101309948D01*
X144537066Y-101249692D01*
X144498262Y-101239294D01*
X144420657Y-101218500D01*
X144300143Y-101218500D01*
X144241939Y-101234096D01*
X144183733Y-101249692D01*
X144079367Y-101309948D01*
X144079361Y-101309952D01*
X143994152Y-101395161D01*
X143994148Y-101395167D01*
X143933892Y-101499533D01*
X143913097Y-101577140D01*
X143902700Y-101615943D01*
X143168100Y-101615943D01*
X143136908Y-101499535D01*
X143076651Y-101395166D01*
X143076649Y-101395164D01*
X143076647Y-101395161D01*
X142991438Y-101309952D01*
X142991432Y-101309948D01*
X142887066Y-101249692D01*
X142848262Y-101239294D01*
X142770657Y-101218500D01*
X142650143Y-101218500D01*
X142591939Y-101234096D01*
X142533733Y-101249692D01*
X142429367Y-101309948D01*
X142429361Y-101309952D01*
X142344152Y-101395161D01*
X142344148Y-101395167D01*
X142283892Y-101499533D01*
X142263097Y-101577140D01*
X142252700Y-101615943D01*
X141846300Y-101615943D01*
X141815108Y-101499535D01*
X141754851Y-101395166D01*
X141754849Y-101395164D01*
X141754847Y-101395161D01*
X141669638Y-101309952D01*
X141669632Y-101309948D01*
X141565266Y-101249692D01*
X141526462Y-101239294D01*
X141448857Y-101218500D01*
X141328343Y-101218500D01*
X141270139Y-101234096D01*
X141211933Y-101249692D01*
X141107567Y-101309948D01*
X141107561Y-101309952D01*
X141022352Y-101395161D01*
X141022348Y-101395167D01*
X140962092Y-101499533D01*
X140941297Y-101577140D01*
X140930900Y-101615943D01*
X140196300Y-101615943D01*
X140165108Y-101499535D01*
X140104851Y-101395166D01*
X140104849Y-101395164D01*
X140104847Y-101395161D01*
X140019638Y-101309952D01*
X140019632Y-101309948D01*
X139915266Y-101249692D01*
X139876462Y-101239294D01*
X139798857Y-101218500D01*
X139678343Y-101218500D01*
X139620139Y-101234096D01*
X139561933Y-101249692D01*
X139457567Y-101309948D01*
X139457561Y-101309952D01*
X139372352Y-101395161D01*
X139372348Y-101395167D01*
X139312092Y-101499533D01*
X139291297Y-101577140D01*
X139280900Y-101615943D01*
X126746500Y-101615943D01*
X126746500Y-100142743D01*
X139280900Y-100142743D01*
X139280900Y-100263257D01*
X139301694Y-100340862D01*
X139312092Y-100379666D01*
X139372348Y-100484032D01*
X139372352Y-100484038D01*
X139457561Y-100569247D01*
X139457564Y-100569249D01*
X139457566Y-100569251D01*
X139561935Y-100629508D01*
X139678343Y-100660700D01*
X139678345Y-100660700D01*
X139798855Y-100660700D01*
X139798857Y-100660700D01*
X139915265Y-100629508D01*
X140019634Y-100569251D01*
X140104851Y-100484034D01*
X140165108Y-100379665D01*
X140196300Y-100263257D01*
X140196300Y-100142743D01*
X140930900Y-100142743D01*
X140930900Y-100263257D01*
X140951694Y-100340862D01*
X140962092Y-100379666D01*
X141022348Y-100484032D01*
X141022352Y-100484038D01*
X141107561Y-100569247D01*
X141107564Y-100569249D01*
X141107566Y-100569251D01*
X141211935Y-100629508D01*
X141328343Y-100660700D01*
X141328345Y-100660700D01*
X141448855Y-100660700D01*
X141448857Y-100660700D01*
X141565265Y-100629508D01*
X141669634Y-100569251D01*
X141754851Y-100484034D01*
X141815108Y-100379665D01*
X141846300Y-100263257D01*
X141846300Y-100142743D01*
X141815108Y-100026335D01*
X141754851Y-99921966D01*
X141754849Y-99921964D01*
X141754847Y-99921961D01*
X141669638Y-99836752D01*
X141669632Y-99836748D01*
X141565266Y-99776492D01*
X141526462Y-99766094D01*
X141448857Y-99745300D01*
X141328343Y-99745300D01*
X141270139Y-99760896D01*
X141211933Y-99776492D01*
X141107567Y-99836748D01*
X141107561Y-99836752D01*
X141022352Y-99921961D01*
X141022348Y-99921967D01*
X140962092Y-100026333D01*
X140941297Y-100103940D01*
X140930900Y-100142743D01*
X140196300Y-100142743D01*
X140165108Y-100026335D01*
X140104851Y-99921966D01*
X140104849Y-99921964D01*
X140104847Y-99921961D01*
X140019638Y-99836752D01*
X140019632Y-99836748D01*
X139915266Y-99776492D01*
X139876462Y-99766094D01*
X139798857Y-99745300D01*
X139678343Y-99745300D01*
X139620139Y-99760896D01*
X139561933Y-99776492D01*
X139457567Y-99836748D01*
X139457561Y-99836752D01*
X139372352Y-99921961D01*
X139372348Y-99921967D01*
X139312092Y-100026333D01*
X139291297Y-100103940D01*
X139280900Y-100142743D01*
X126746500Y-100142743D01*
X126746500Y-94046743D01*
X139280900Y-94046743D01*
X139280900Y-94167257D01*
X139301694Y-94244862D01*
X139312092Y-94283666D01*
X139372348Y-94388032D01*
X139372352Y-94388038D01*
X139457561Y-94473247D01*
X139457564Y-94473249D01*
X139457566Y-94473251D01*
X139561935Y-94533508D01*
X139678343Y-94564700D01*
X139678345Y-94564700D01*
X139798855Y-94564700D01*
X139798857Y-94564700D01*
X139915265Y-94533508D01*
X140019634Y-94473251D01*
X140104851Y-94388034D01*
X140165108Y-94283665D01*
X140196300Y-94167257D01*
X140196300Y-94046743D01*
X140930900Y-94046743D01*
X140930900Y-94167257D01*
X140951694Y-94244862D01*
X140962092Y-94283666D01*
X141022348Y-94388032D01*
X141022352Y-94388038D01*
X141107561Y-94473247D01*
X141107564Y-94473249D01*
X141107566Y-94473251D01*
X141211935Y-94533508D01*
X141328343Y-94564700D01*
X141328345Y-94564700D01*
X141448855Y-94564700D01*
X141448857Y-94564700D01*
X141565265Y-94533508D01*
X141669634Y-94473251D01*
X141754851Y-94388034D01*
X141815108Y-94283665D01*
X141846300Y-94167257D01*
X141846300Y-94046743D01*
X142252700Y-94046743D01*
X142252700Y-94167257D01*
X142273494Y-94244862D01*
X142283892Y-94283666D01*
X142344148Y-94388032D01*
X142344152Y-94388038D01*
X142429361Y-94473247D01*
X142429364Y-94473249D01*
X142429366Y-94473251D01*
X142533735Y-94533508D01*
X142650143Y-94564700D01*
X142650145Y-94564700D01*
X142770655Y-94564700D01*
X142770657Y-94564700D01*
X142887065Y-94533508D01*
X142991434Y-94473251D01*
X143076651Y-94388034D01*
X143136908Y-94283665D01*
X143168100Y-94167257D01*
X143168100Y-94046743D01*
X143902700Y-94046743D01*
X143902700Y-94167257D01*
X143923494Y-94244862D01*
X143933892Y-94283666D01*
X143994148Y-94388032D01*
X143994152Y-94388038D01*
X144079361Y-94473247D01*
X144079364Y-94473249D01*
X144079366Y-94473251D01*
X144183735Y-94533508D01*
X144300143Y-94564700D01*
X144300145Y-94564700D01*
X144420655Y-94564700D01*
X144420657Y-94564700D01*
X144537065Y-94533508D01*
X144641434Y-94473251D01*
X144726651Y-94388034D01*
X144786908Y-94283665D01*
X144818100Y-94167257D01*
X144818100Y-94046743D01*
X169303700Y-94046743D01*
X169303700Y-94167257D01*
X169324494Y-94244862D01*
X169334892Y-94283666D01*
X169395148Y-94388032D01*
X169395152Y-94388038D01*
X169480361Y-94473247D01*
X169480364Y-94473249D01*
X169480366Y-94473251D01*
X169584735Y-94533508D01*
X169701143Y-94564700D01*
X169701145Y-94564700D01*
X169821655Y-94564700D01*
X169821657Y-94564700D01*
X169938065Y-94533508D01*
X170042434Y-94473251D01*
X170127651Y-94388034D01*
X170187908Y-94283665D01*
X170219100Y-94167257D01*
X170219100Y-94046743D01*
X170953700Y-94046743D01*
X170953700Y-94167257D01*
X170974494Y-94244862D01*
X170984892Y-94283666D01*
X171045148Y-94388032D01*
X171045152Y-94388038D01*
X171130361Y-94473247D01*
X171130364Y-94473249D01*
X171130366Y-94473251D01*
X171234735Y-94533508D01*
X171351143Y-94564700D01*
X171351145Y-94564700D01*
X171471655Y-94564700D01*
X171471657Y-94564700D01*
X171588065Y-94533508D01*
X171692434Y-94473251D01*
X171777651Y-94388034D01*
X171837908Y-94283665D01*
X171869100Y-94167257D01*
X171869100Y-94046743D01*
X171837908Y-93930335D01*
X171777651Y-93825966D01*
X171777649Y-93825964D01*
X171777647Y-93825961D01*
X171692438Y-93740752D01*
X171692432Y-93740748D01*
X171588066Y-93680492D01*
X171549262Y-93670094D01*
X171471657Y-93649300D01*
X171351143Y-93649300D01*
X171292939Y-93664896D01*
X171234733Y-93680492D01*
X171130367Y-93740748D01*
X171130361Y-93740752D01*
X171045152Y-93825961D01*
X171045148Y-93825967D01*
X170984892Y-93930333D01*
X170964097Y-94007940D01*
X170953700Y-94046743D01*
X170219100Y-94046743D01*
X170187908Y-93930335D01*
X170127651Y-93825966D01*
X170127649Y-93825964D01*
X170127647Y-93825961D01*
X170042438Y-93740752D01*
X170042432Y-93740748D01*
X169938066Y-93680492D01*
X169899262Y-93670094D01*
X169821657Y-93649300D01*
X169701143Y-93649300D01*
X169642939Y-93664896D01*
X169584733Y-93680492D01*
X169480367Y-93740748D01*
X169480361Y-93740752D01*
X169395152Y-93825961D01*
X169395148Y-93825967D01*
X169334892Y-93930333D01*
X169314097Y-94007940D01*
X169303700Y-94046743D01*
X144818100Y-94046743D01*
X144786908Y-93930335D01*
X144726651Y-93825966D01*
X144726649Y-93825964D01*
X144726647Y-93825961D01*
X144641438Y-93740752D01*
X144641432Y-93740748D01*
X144537066Y-93680492D01*
X144498262Y-93670094D01*
X144420657Y-93649300D01*
X144300143Y-93649300D01*
X144241939Y-93664896D01*
X144183733Y-93680492D01*
X144079367Y-93740748D01*
X144079361Y-93740752D01*
X143994152Y-93825961D01*
X143994148Y-93825967D01*
X143933892Y-93930333D01*
X143913097Y-94007940D01*
X143902700Y-94046743D01*
X143168100Y-94046743D01*
X143136908Y-93930335D01*
X143076651Y-93825966D01*
X143076649Y-93825964D01*
X143076647Y-93825961D01*
X142991438Y-93740752D01*
X142991432Y-93740748D01*
X142887066Y-93680492D01*
X142848262Y-93670094D01*
X142770657Y-93649300D01*
X142650143Y-93649300D01*
X142591939Y-93664896D01*
X142533733Y-93680492D01*
X142429367Y-93740748D01*
X142429361Y-93740752D01*
X142344152Y-93825961D01*
X142344148Y-93825967D01*
X142283892Y-93930333D01*
X142263097Y-94007940D01*
X142252700Y-94046743D01*
X141846300Y-94046743D01*
X141815108Y-93930335D01*
X141754851Y-93825966D01*
X141754849Y-93825964D01*
X141754847Y-93825961D01*
X141669638Y-93740752D01*
X141669632Y-93740748D01*
X141565266Y-93680492D01*
X141526462Y-93670094D01*
X141448857Y-93649300D01*
X141328343Y-93649300D01*
X141270139Y-93664896D01*
X141211933Y-93680492D01*
X141107567Y-93740748D01*
X141107561Y-93740752D01*
X141022352Y-93825961D01*
X141022348Y-93825967D01*
X140962092Y-93930333D01*
X140941297Y-94007940D01*
X140930900Y-94046743D01*
X140196300Y-94046743D01*
X140165108Y-93930335D01*
X140104851Y-93825966D01*
X140104849Y-93825964D01*
X140104847Y-93825961D01*
X140019638Y-93740752D01*
X140019632Y-93740748D01*
X139915266Y-93680492D01*
X139876462Y-93670094D01*
X139798857Y-93649300D01*
X139678343Y-93649300D01*
X139620139Y-93664896D01*
X139561933Y-93680492D01*
X139457567Y-93740748D01*
X139457561Y-93740752D01*
X139372352Y-93825961D01*
X139372348Y-93825967D01*
X139312092Y-93930333D01*
X139291297Y-94007940D01*
X139280900Y-94046743D01*
X126746500Y-94046743D01*
X126746500Y-93310143D01*
X145084300Y-93310143D01*
X145084300Y-93430657D01*
X145105094Y-93508262D01*
X145115492Y-93547066D01*
X145175748Y-93651432D01*
X145175752Y-93651438D01*
X145260961Y-93736647D01*
X145260964Y-93736649D01*
X145260966Y-93736651D01*
X145365335Y-93796908D01*
X145481743Y-93828100D01*
X145481745Y-93828100D01*
X145602255Y-93828100D01*
X145602257Y-93828100D01*
X145718665Y-93796908D01*
X145823034Y-93736651D01*
X145908251Y-93651434D01*
X145968508Y-93547065D01*
X145999700Y-93430657D01*
X145999700Y-93310143D01*
X145968508Y-93193735D01*
X145908251Y-93089366D01*
X145908249Y-93089364D01*
X145908247Y-93089361D01*
X145823038Y-93004152D01*
X145823032Y-93004148D01*
X145718666Y-92943892D01*
X145679862Y-92933494D01*
X145602257Y-92912700D01*
X145481743Y-92912700D01*
X145423539Y-92928296D01*
X145365333Y-92943892D01*
X145260967Y-93004148D01*
X145260961Y-93004152D01*
X145175752Y-93089361D01*
X145175748Y-93089367D01*
X145115492Y-93193733D01*
X145094697Y-93271340D01*
X145084300Y-93310143D01*
X126746500Y-93310143D01*
X126746500Y-92573543D01*
X139280900Y-92573543D01*
X139280900Y-92694057D01*
X139301694Y-92771662D01*
X139312092Y-92810466D01*
X139372348Y-92914832D01*
X139372352Y-92914838D01*
X139457561Y-93000047D01*
X139457564Y-93000049D01*
X139457566Y-93000051D01*
X139561935Y-93060308D01*
X139678343Y-93091500D01*
X139678345Y-93091500D01*
X139798855Y-93091500D01*
X139798857Y-93091500D01*
X139915265Y-93060308D01*
X140019634Y-93000051D01*
X140104851Y-92914834D01*
X140165108Y-92810465D01*
X140196300Y-92694057D01*
X140196300Y-92573543D01*
X142252700Y-92573543D01*
X142252700Y-92694057D01*
X142273494Y-92771662D01*
X142283892Y-92810466D01*
X142344148Y-92914832D01*
X142344152Y-92914838D01*
X142429361Y-93000047D01*
X142429364Y-93000049D01*
X142429366Y-93000051D01*
X142533735Y-93060308D01*
X142650143Y-93091500D01*
X142650145Y-93091500D01*
X142770655Y-93091500D01*
X142770657Y-93091500D01*
X142887065Y-93060308D01*
X142991434Y-93000051D01*
X143076651Y-92914834D01*
X143136908Y-92810465D01*
X143168100Y-92694057D01*
X143168100Y-92573543D01*
X143902700Y-92573543D01*
X143902700Y-92694057D01*
X143923494Y-92771662D01*
X143933892Y-92810466D01*
X143994148Y-92914832D01*
X143994152Y-92914838D01*
X144079361Y-93000047D01*
X144079364Y-93000049D01*
X144079366Y-93000051D01*
X144183735Y-93060308D01*
X144300143Y-93091500D01*
X144300145Y-93091500D01*
X144420655Y-93091500D01*
X144420657Y-93091500D01*
X144537065Y-93060308D01*
X144641434Y-93000051D01*
X144726651Y-92914834D01*
X144786908Y-92810465D01*
X144818100Y-92694057D01*
X144818100Y-92573543D01*
X167981900Y-92573543D01*
X167981900Y-92694057D01*
X168002694Y-92771662D01*
X168013092Y-92810466D01*
X168073348Y-92914832D01*
X168073352Y-92914838D01*
X168158561Y-93000047D01*
X168158564Y-93000049D01*
X168158566Y-93000051D01*
X168262935Y-93060308D01*
X168379343Y-93091500D01*
X168379345Y-93091500D01*
X168499855Y-93091500D01*
X168499857Y-93091500D01*
X168616265Y-93060308D01*
X168720634Y-93000051D01*
X168805851Y-92914834D01*
X168866108Y-92810465D01*
X168897300Y-92694057D01*
X168897300Y-92573543D01*
X170966900Y-92573543D01*
X170966900Y-92694057D01*
X170987694Y-92771662D01*
X170998092Y-92810466D01*
X171058348Y-92914832D01*
X171058352Y-92914838D01*
X171143561Y-93000047D01*
X171143564Y-93000049D01*
X171143566Y-93000051D01*
X171247935Y-93060308D01*
X171364343Y-93091500D01*
X171364345Y-93091500D01*
X171484855Y-93091500D01*
X171484857Y-93091500D01*
X171601265Y-93060308D01*
X171705634Y-93000051D01*
X171790851Y-92914834D01*
X171851108Y-92810465D01*
X171882300Y-92694057D01*
X171882300Y-92573543D01*
X171851108Y-92457135D01*
X171790851Y-92352766D01*
X171790849Y-92352764D01*
X171790847Y-92352761D01*
X171705638Y-92267552D01*
X171705632Y-92267548D01*
X171601266Y-92207292D01*
X171562462Y-92196894D01*
X171484857Y-92176100D01*
X171364343Y-92176100D01*
X171306139Y-92191696D01*
X171247933Y-92207292D01*
X171143567Y-92267548D01*
X171143561Y-92267552D01*
X171058352Y-92352761D01*
X171058348Y-92352767D01*
X170998092Y-92457133D01*
X170977297Y-92534740D01*
X170966900Y-92573543D01*
X168897300Y-92573543D01*
X168866108Y-92457135D01*
X168805851Y-92352766D01*
X168805849Y-92352764D01*
X168805847Y-92352761D01*
X168720638Y-92267552D01*
X168720632Y-92267548D01*
X168616266Y-92207292D01*
X168577462Y-92196894D01*
X168499857Y-92176100D01*
X168379343Y-92176100D01*
X168321139Y-92191696D01*
X168262933Y-92207292D01*
X168158567Y-92267548D01*
X168158561Y-92267552D01*
X168073352Y-92352761D01*
X168073348Y-92352767D01*
X168013092Y-92457133D01*
X167992297Y-92534740D01*
X167981900Y-92573543D01*
X144818100Y-92573543D01*
X144786908Y-92457135D01*
X144726651Y-92352766D01*
X144726649Y-92352764D01*
X144726647Y-92352761D01*
X144641438Y-92267552D01*
X144641432Y-92267548D01*
X144537066Y-92207292D01*
X144498262Y-92196894D01*
X144420657Y-92176100D01*
X144300143Y-92176100D01*
X144241939Y-92191696D01*
X144183733Y-92207292D01*
X144079367Y-92267548D01*
X144079361Y-92267552D01*
X143994152Y-92352761D01*
X143994148Y-92352767D01*
X143933892Y-92457133D01*
X143913097Y-92534740D01*
X143902700Y-92573543D01*
X143168100Y-92573543D01*
X143136908Y-92457135D01*
X143076651Y-92352766D01*
X143076649Y-92352764D01*
X143076647Y-92352761D01*
X142991438Y-92267552D01*
X142991432Y-92267548D01*
X142887066Y-92207292D01*
X142848262Y-92196894D01*
X142770657Y-92176100D01*
X142650143Y-92176100D01*
X142591939Y-92191696D01*
X142533733Y-92207292D01*
X142429367Y-92267548D01*
X142429361Y-92267552D01*
X142344152Y-92352761D01*
X142344148Y-92352767D01*
X142283892Y-92457133D01*
X142263097Y-92534740D01*
X142252700Y-92573543D01*
X140196300Y-92573543D01*
X140165108Y-92457135D01*
X140104851Y-92352766D01*
X140104849Y-92352764D01*
X140104847Y-92352761D01*
X140019638Y-92267552D01*
X140019632Y-92267548D01*
X139915266Y-92207292D01*
X139876462Y-92196894D01*
X139798857Y-92176100D01*
X139678343Y-92176100D01*
X139620139Y-92191696D01*
X139561933Y-92207292D01*
X139457567Y-92267548D01*
X139457561Y-92267552D01*
X139372352Y-92352761D01*
X139372348Y-92352767D01*
X139312092Y-92457133D01*
X139291297Y-92534740D01*
X139280900Y-92573543D01*
X126746500Y-92573543D01*
X126746500Y-90706222D01*
X129172100Y-90706222D01*
X129172100Y-90903777D01*
X129210641Y-91097537D01*
X129210642Y-91097538D01*
X129261721Y-91220855D01*
X129286241Y-91280051D01*
X129395996Y-91444312D01*
X129395997Y-91444313D01*
X129396000Y-91444317D01*
X129535682Y-91583999D01*
X129535685Y-91584001D01*
X129535688Y-91584004D01*
X129699949Y-91693759D01*
X129882461Y-91769357D01*
X129882462Y-91769358D01*
X129882463Y-91769358D01*
X129882465Y-91769359D01*
X130012218Y-91795168D01*
X130076222Y-91807900D01*
X130076223Y-91807900D01*
X130273778Y-91807900D01*
X130321889Y-91798329D01*
X130467535Y-91769359D01*
X130650051Y-91693759D01*
X130814312Y-91584004D01*
X130954004Y-91444312D01*
X131063759Y-91280051D01*
X131139359Y-91097535D01*
X131177900Y-90903777D01*
X131177900Y-90706223D01*
X131177900Y-90706222D01*
X131712100Y-90706222D01*
X131712100Y-90903777D01*
X131750641Y-91097537D01*
X131750642Y-91097538D01*
X131801721Y-91220855D01*
X131826241Y-91280051D01*
X131935996Y-91444312D01*
X131935997Y-91444313D01*
X131936000Y-91444317D01*
X132075682Y-91583999D01*
X132075685Y-91584001D01*
X132075688Y-91584004D01*
X132239949Y-91693759D01*
X132422461Y-91769357D01*
X132422462Y-91769358D01*
X132422463Y-91769358D01*
X132422465Y-91769359D01*
X132552218Y-91795168D01*
X132616222Y-91807900D01*
X132616223Y-91807900D01*
X132813778Y-91807900D01*
X132861889Y-91798329D01*
X133007535Y-91769359D01*
X133190051Y-91693759D01*
X133354312Y-91584004D01*
X133494004Y-91444312D01*
X133603759Y-91280051D01*
X133678196Y-91100343D01*
X142252700Y-91100343D01*
X142252700Y-91220857D01*
X142268561Y-91280049D01*
X142283892Y-91337266D01*
X142344148Y-91441632D01*
X142344152Y-91441638D01*
X142429361Y-91526847D01*
X142429364Y-91526849D01*
X142429366Y-91526851D01*
X142511678Y-91574373D01*
X142528358Y-91584004D01*
X142533735Y-91587108D01*
X142650143Y-91618300D01*
X142650145Y-91618300D01*
X142770655Y-91618300D01*
X142770657Y-91618300D01*
X142887065Y-91587108D01*
X142991434Y-91526851D01*
X143076651Y-91441634D01*
X143136908Y-91337265D01*
X143168100Y-91220857D01*
X143168100Y-91100343D01*
X143902700Y-91100343D01*
X143902700Y-91220857D01*
X143918561Y-91280049D01*
X143933892Y-91337266D01*
X143994148Y-91441632D01*
X143994152Y-91441638D01*
X144079361Y-91526847D01*
X144079364Y-91526849D01*
X144079366Y-91526851D01*
X144161678Y-91574373D01*
X144178358Y-91584004D01*
X144183735Y-91587108D01*
X144300143Y-91618300D01*
X144300145Y-91618300D01*
X144420655Y-91618300D01*
X144420657Y-91618300D01*
X144537065Y-91587108D01*
X144641434Y-91526851D01*
X144726651Y-91441634D01*
X144786908Y-91337265D01*
X144818100Y-91220857D01*
X144818100Y-91100343D01*
X166331900Y-91100343D01*
X166331900Y-91220857D01*
X166347761Y-91280049D01*
X166363092Y-91337266D01*
X166423348Y-91441632D01*
X166423352Y-91441638D01*
X166508561Y-91526847D01*
X166508564Y-91526849D01*
X166508566Y-91526851D01*
X166590878Y-91574373D01*
X166607558Y-91584004D01*
X166612935Y-91587108D01*
X166729343Y-91618300D01*
X166729345Y-91618300D01*
X166849855Y-91618300D01*
X166849857Y-91618300D01*
X166966265Y-91587108D01*
X167070634Y-91526851D01*
X167155851Y-91441634D01*
X167216108Y-91337265D01*
X167247300Y-91220857D01*
X167247300Y-91100343D01*
X167981900Y-91100343D01*
X167981900Y-91220857D01*
X167997761Y-91280049D01*
X168013092Y-91337266D01*
X168073348Y-91441632D01*
X168073352Y-91441638D01*
X168158561Y-91526847D01*
X168158564Y-91526849D01*
X168158566Y-91526851D01*
X168240878Y-91574373D01*
X168257558Y-91584004D01*
X168262935Y-91587108D01*
X168379343Y-91618300D01*
X168379345Y-91618300D01*
X168499855Y-91618300D01*
X168499857Y-91618300D01*
X168616265Y-91587108D01*
X168720634Y-91526851D01*
X168805851Y-91441634D01*
X168866108Y-91337265D01*
X168897300Y-91220857D01*
X168897300Y-91100343D01*
X169303700Y-91100343D01*
X169303700Y-91220857D01*
X169319561Y-91280049D01*
X169334892Y-91337266D01*
X169395148Y-91441632D01*
X169395152Y-91441638D01*
X169480361Y-91526847D01*
X169480364Y-91526849D01*
X169480366Y-91526851D01*
X169562678Y-91574373D01*
X169579358Y-91584004D01*
X169584735Y-91587108D01*
X169701143Y-91618300D01*
X169701145Y-91618300D01*
X169821655Y-91618300D01*
X169821657Y-91618300D01*
X169938065Y-91587108D01*
X170042434Y-91526851D01*
X170127651Y-91441634D01*
X170187908Y-91337265D01*
X170219100Y-91220857D01*
X170219100Y-91100343D01*
X170953700Y-91100343D01*
X170953700Y-91220857D01*
X170969561Y-91280049D01*
X170984892Y-91337266D01*
X171045148Y-91441632D01*
X171045152Y-91441638D01*
X171130361Y-91526847D01*
X171130364Y-91526849D01*
X171130366Y-91526851D01*
X171212678Y-91574373D01*
X171229358Y-91584004D01*
X171234735Y-91587108D01*
X171351143Y-91618300D01*
X171351145Y-91618300D01*
X171471655Y-91618300D01*
X171471657Y-91618300D01*
X171588065Y-91587108D01*
X171692434Y-91526851D01*
X171777651Y-91441634D01*
X171837908Y-91337265D01*
X171869100Y-91220857D01*
X171869100Y-91100343D01*
X171837908Y-90983935D01*
X171777651Y-90879566D01*
X171777649Y-90879564D01*
X171777647Y-90879561D01*
X171692438Y-90794352D01*
X171692432Y-90794348D01*
X171646197Y-90767654D01*
X171588066Y-90734092D01*
X171549262Y-90723694D01*
X171484055Y-90706222D01*
X177432100Y-90706222D01*
X177432100Y-90903777D01*
X177470641Y-91097537D01*
X177470642Y-91097538D01*
X177521721Y-91220855D01*
X177546241Y-91280051D01*
X177655996Y-91444312D01*
X177655997Y-91444313D01*
X177656000Y-91444317D01*
X177795682Y-91583999D01*
X177795685Y-91584001D01*
X177795688Y-91584004D01*
X177959949Y-91693759D01*
X178142461Y-91769357D01*
X178142462Y-91769358D01*
X178142463Y-91769358D01*
X178142465Y-91769359D01*
X178272218Y-91795168D01*
X178336222Y-91807900D01*
X178336223Y-91807900D01*
X178533778Y-91807900D01*
X178581889Y-91798329D01*
X178727535Y-91769359D01*
X178910051Y-91693759D01*
X179074312Y-91584004D01*
X179214004Y-91444312D01*
X179323759Y-91280051D01*
X179399359Y-91097535D01*
X179437900Y-90903777D01*
X179437900Y-90706223D01*
X179399359Y-90512465D01*
X179323759Y-90329949D01*
X179214004Y-90165688D01*
X179214001Y-90165685D01*
X179213999Y-90165682D01*
X179074318Y-90026001D01*
X179074314Y-90025998D01*
X179074312Y-90025996D01*
X179059329Y-90015985D01*
X179033575Y-89998776D01*
X179033574Y-89998776D01*
X178945522Y-89939942D01*
X179972100Y-89939942D01*
X179972100Y-91670055D01*
X179972101Y-91670057D01*
X179980972Y-91714659D01*
X180014764Y-91765232D01*
X180014765Y-91765232D01*
X180014766Y-91765234D01*
X180065342Y-91799028D01*
X180109943Y-91807900D01*
X181840056Y-91807899D01*
X181884658Y-91799028D01*
X181935234Y-91765234D01*
X181969028Y-91714658D01*
X181977900Y-91670057D01*
X181977899Y-89939944D01*
X181969028Y-89895342D01*
X181948129Y-89864065D01*
X181935235Y-89844767D01*
X181935231Y-89844764D01*
X181884658Y-89810972D01*
X181884656Y-89810971D01*
X181840057Y-89802100D01*
X180109944Y-89802100D01*
X180109942Y-89802101D01*
X180065340Y-89810972D01*
X180014767Y-89844764D01*
X179980972Y-89895342D01*
X179980971Y-89895343D01*
X179972100Y-89939942D01*
X178945522Y-89939942D01*
X178910051Y-89916241D01*
X178910049Y-89916240D01*
X178727538Y-89840642D01*
X178727537Y-89840641D01*
X178533778Y-89802100D01*
X178533777Y-89802100D01*
X178336223Y-89802100D01*
X178336222Y-89802100D01*
X178142462Y-89840641D01*
X178142461Y-89840642D01*
X177959950Y-89916240D01*
X177795682Y-90026000D01*
X177656000Y-90165682D01*
X177546240Y-90329950D01*
X177470642Y-90512461D01*
X177470641Y-90512462D01*
X177432100Y-90706222D01*
X171484055Y-90706222D01*
X171471657Y-90702900D01*
X171351143Y-90702900D01*
X171292939Y-90718496D01*
X171234733Y-90734092D01*
X171130367Y-90794348D01*
X171130361Y-90794352D01*
X171045152Y-90879561D01*
X171045148Y-90879567D01*
X170984892Y-90983933D01*
X170964097Y-91061540D01*
X170953700Y-91100343D01*
X170219100Y-91100343D01*
X170187908Y-90983935D01*
X170127651Y-90879566D01*
X170127649Y-90879564D01*
X170127647Y-90879561D01*
X170042438Y-90794352D01*
X170042432Y-90794348D01*
X169938066Y-90734092D01*
X169899262Y-90723694D01*
X169821657Y-90702900D01*
X169701143Y-90702900D01*
X169642939Y-90718496D01*
X169584733Y-90734092D01*
X169480367Y-90794348D01*
X169480361Y-90794352D01*
X169395152Y-90879561D01*
X169395148Y-90879567D01*
X169334892Y-90983933D01*
X169314097Y-91061540D01*
X169303700Y-91100343D01*
X168897300Y-91100343D01*
X168866108Y-90983935D01*
X168805851Y-90879566D01*
X168805849Y-90879564D01*
X168805847Y-90879561D01*
X168720638Y-90794352D01*
X168720632Y-90794348D01*
X168616266Y-90734092D01*
X168577462Y-90723694D01*
X168499857Y-90702900D01*
X168379343Y-90702900D01*
X168321139Y-90718496D01*
X168262933Y-90734092D01*
X168158567Y-90794348D01*
X168158561Y-90794352D01*
X168073352Y-90879561D01*
X168073348Y-90879567D01*
X168013092Y-90983933D01*
X167992297Y-91061540D01*
X167981900Y-91100343D01*
X167247300Y-91100343D01*
X167216108Y-90983935D01*
X167155851Y-90879566D01*
X167155849Y-90879564D01*
X167155847Y-90879561D01*
X167070638Y-90794352D01*
X167070632Y-90794348D01*
X166966266Y-90734092D01*
X166927462Y-90723694D01*
X166849857Y-90702900D01*
X166729343Y-90702900D01*
X166671139Y-90718496D01*
X166612933Y-90734092D01*
X166508567Y-90794348D01*
X166508561Y-90794352D01*
X166423352Y-90879561D01*
X166423348Y-90879567D01*
X166363092Y-90983933D01*
X166342297Y-91061540D01*
X166331900Y-91100343D01*
X144818100Y-91100343D01*
X144786908Y-90983935D01*
X144726651Y-90879566D01*
X144726649Y-90879564D01*
X144726647Y-90879561D01*
X144641438Y-90794352D01*
X144641432Y-90794348D01*
X144537066Y-90734092D01*
X144498262Y-90723694D01*
X144420657Y-90702900D01*
X144300143Y-90702900D01*
X144241939Y-90718496D01*
X144183733Y-90734092D01*
X144079367Y-90794348D01*
X144079361Y-90794352D01*
X143994152Y-90879561D01*
X143994148Y-90879567D01*
X143933892Y-90983933D01*
X143913097Y-91061540D01*
X143902700Y-91100343D01*
X143168100Y-91100343D01*
X143136908Y-90983935D01*
X143076651Y-90879566D01*
X143076649Y-90879564D01*
X143076647Y-90879561D01*
X142991438Y-90794352D01*
X142991432Y-90794348D01*
X142887066Y-90734092D01*
X142848262Y-90723694D01*
X142770657Y-90702900D01*
X142650143Y-90702900D01*
X142591939Y-90718496D01*
X142533733Y-90734092D01*
X142429367Y-90794348D01*
X142429361Y-90794352D01*
X142344152Y-90879561D01*
X142344148Y-90879567D01*
X142283892Y-90983933D01*
X142263097Y-91061540D01*
X142252700Y-91100343D01*
X133678196Y-91100343D01*
X133679359Y-91097535D01*
X133717900Y-90903777D01*
X133717900Y-90706223D01*
X133679359Y-90512465D01*
X133603759Y-90329949D01*
X133494004Y-90165688D01*
X133494001Y-90165685D01*
X133493999Y-90165682D01*
X133354317Y-90026000D01*
X133354313Y-90025997D01*
X133354312Y-90025996D01*
X133190051Y-89916241D01*
X133190049Y-89916240D01*
X133007538Y-89840642D01*
X133007537Y-89840641D01*
X132813778Y-89802100D01*
X132813777Y-89802100D01*
X132616223Y-89802100D01*
X132616222Y-89802100D01*
X132422462Y-89840641D01*
X132422461Y-89840642D01*
X132239950Y-89916240D01*
X132075682Y-90026000D01*
X131936000Y-90165682D01*
X131826240Y-90329950D01*
X131750642Y-90512461D01*
X131750641Y-90512462D01*
X131712100Y-90706222D01*
X131177900Y-90706222D01*
X131139359Y-90512465D01*
X131063759Y-90329949D01*
X130954004Y-90165688D01*
X130954001Y-90165685D01*
X130953999Y-90165682D01*
X130814317Y-90026000D01*
X130814313Y-90025997D01*
X130814312Y-90025996D01*
X130650051Y-89916241D01*
X130650049Y-89916240D01*
X130467538Y-89840642D01*
X130467537Y-89840641D01*
X130273778Y-89802100D01*
X130273777Y-89802100D01*
X130076223Y-89802100D01*
X130076222Y-89802100D01*
X129882462Y-89840641D01*
X129882461Y-89840642D01*
X129699950Y-89916240D01*
X129535682Y-90026000D01*
X129396000Y-90165682D01*
X129286240Y-90329950D01*
X129210642Y-90512461D01*
X129210641Y-90512462D01*
X129172100Y-90706222D01*
X126746500Y-90706222D01*
X126746500Y-89627143D01*
X142252700Y-89627143D01*
X142252700Y-89747657D01*
X142269665Y-89810971D01*
X142283892Y-89864066D01*
X142344148Y-89968432D01*
X142344152Y-89968438D01*
X142429361Y-90053647D01*
X142429364Y-90053649D01*
X142429366Y-90053651D01*
X142533735Y-90113908D01*
X142650143Y-90145100D01*
X142650145Y-90145100D01*
X142770655Y-90145100D01*
X142770657Y-90145100D01*
X142887065Y-90113908D01*
X142991434Y-90053651D01*
X143076651Y-89968434D01*
X143136908Y-89864065D01*
X143168100Y-89747657D01*
X143168100Y-89627143D01*
X143902700Y-89627143D01*
X143902700Y-89747657D01*
X143919665Y-89810971D01*
X143933892Y-89864066D01*
X143994148Y-89968432D01*
X143994152Y-89968438D01*
X144079361Y-90053647D01*
X144079364Y-90053649D01*
X144079366Y-90053651D01*
X144183735Y-90113908D01*
X144300143Y-90145100D01*
X144300145Y-90145100D01*
X144420655Y-90145100D01*
X144420657Y-90145100D01*
X144537065Y-90113908D01*
X144641434Y-90053651D01*
X144726651Y-89968434D01*
X144786908Y-89864065D01*
X144818100Y-89747657D01*
X144818100Y-89627143D01*
X166331900Y-89627143D01*
X166331900Y-89747657D01*
X166348865Y-89810971D01*
X166363092Y-89864066D01*
X166423348Y-89968432D01*
X166423352Y-89968438D01*
X166508561Y-90053647D01*
X166508564Y-90053649D01*
X166508566Y-90053651D01*
X166612935Y-90113908D01*
X166729343Y-90145100D01*
X166729345Y-90145100D01*
X166849855Y-90145100D01*
X166849857Y-90145100D01*
X166966265Y-90113908D01*
X167070634Y-90053651D01*
X167155851Y-89968434D01*
X167216108Y-89864065D01*
X167247300Y-89747657D01*
X167247300Y-89627143D01*
X167981900Y-89627143D01*
X167981900Y-89747657D01*
X167998865Y-89810971D01*
X168013092Y-89864066D01*
X168073348Y-89968432D01*
X168073352Y-89968438D01*
X168158561Y-90053647D01*
X168158564Y-90053649D01*
X168158566Y-90053651D01*
X168262935Y-90113908D01*
X168379343Y-90145100D01*
X168379345Y-90145100D01*
X168499855Y-90145100D01*
X168499857Y-90145100D01*
X168616265Y-90113908D01*
X168720634Y-90053651D01*
X168805851Y-89968434D01*
X168866108Y-89864065D01*
X168897300Y-89747657D01*
X168897300Y-89627143D01*
X169303700Y-89627143D01*
X169303700Y-89747657D01*
X169320665Y-89810971D01*
X169334892Y-89864066D01*
X169395148Y-89968432D01*
X169395152Y-89968438D01*
X169480361Y-90053647D01*
X169480364Y-90053649D01*
X169480366Y-90053651D01*
X169584735Y-90113908D01*
X169701143Y-90145100D01*
X169701145Y-90145100D01*
X169821655Y-90145100D01*
X169821657Y-90145100D01*
X169938065Y-90113908D01*
X170042434Y-90053651D01*
X170127651Y-89968434D01*
X170187908Y-89864065D01*
X170219100Y-89747657D01*
X170219100Y-89627143D01*
X170953700Y-89627143D01*
X170953700Y-89747657D01*
X170970665Y-89810971D01*
X170984892Y-89864066D01*
X171045148Y-89968432D01*
X171045152Y-89968438D01*
X171130361Y-90053647D01*
X171130364Y-90053649D01*
X171130366Y-90053651D01*
X171234735Y-90113908D01*
X171351143Y-90145100D01*
X171351145Y-90145100D01*
X171471655Y-90145100D01*
X171471657Y-90145100D01*
X171588065Y-90113908D01*
X171692434Y-90053651D01*
X171777651Y-89968434D01*
X171837908Y-89864065D01*
X171869100Y-89747657D01*
X171869100Y-89627143D01*
X171837908Y-89510735D01*
X171777651Y-89406366D01*
X171777649Y-89406364D01*
X171777647Y-89406361D01*
X171692438Y-89321152D01*
X171692432Y-89321148D01*
X171588066Y-89260892D01*
X171549262Y-89250494D01*
X171471657Y-89229700D01*
X171351143Y-89229700D01*
X171292939Y-89245296D01*
X171234733Y-89260892D01*
X171130367Y-89321148D01*
X171130361Y-89321152D01*
X171045152Y-89406361D01*
X171045148Y-89406367D01*
X170984892Y-89510733D01*
X170964097Y-89588340D01*
X170953700Y-89627143D01*
X170219100Y-89627143D01*
X170187908Y-89510735D01*
X170127651Y-89406366D01*
X170127649Y-89406364D01*
X170127647Y-89406361D01*
X170042438Y-89321152D01*
X170042432Y-89321148D01*
X169938066Y-89260892D01*
X169899262Y-89250494D01*
X169821657Y-89229700D01*
X169701143Y-89229700D01*
X169642939Y-89245296D01*
X169584733Y-89260892D01*
X169480367Y-89321148D01*
X169480361Y-89321152D01*
X169395152Y-89406361D01*
X169395148Y-89406367D01*
X169334892Y-89510733D01*
X169314097Y-89588340D01*
X169303700Y-89627143D01*
X168897300Y-89627143D01*
X168866108Y-89510735D01*
X168805851Y-89406366D01*
X168805849Y-89406364D01*
X168805847Y-89406361D01*
X168720638Y-89321152D01*
X168720632Y-89321148D01*
X168616266Y-89260892D01*
X168577462Y-89250494D01*
X168499857Y-89229700D01*
X168379343Y-89229700D01*
X168321139Y-89245296D01*
X168262933Y-89260892D01*
X168158567Y-89321148D01*
X168158561Y-89321152D01*
X168073352Y-89406361D01*
X168073348Y-89406367D01*
X168013092Y-89510733D01*
X167992297Y-89588340D01*
X167981900Y-89627143D01*
X167247300Y-89627143D01*
X167216108Y-89510735D01*
X167155851Y-89406366D01*
X167155849Y-89406364D01*
X167155847Y-89406361D01*
X167070638Y-89321152D01*
X167070632Y-89321148D01*
X166966266Y-89260892D01*
X166927462Y-89250494D01*
X166849857Y-89229700D01*
X166729343Y-89229700D01*
X166671139Y-89245296D01*
X166612933Y-89260892D01*
X166508567Y-89321148D01*
X166508561Y-89321152D01*
X166423352Y-89406361D01*
X166423348Y-89406367D01*
X166363092Y-89510733D01*
X166342297Y-89588340D01*
X166331900Y-89627143D01*
X144818100Y-89627143D01*
X144786908Y-89510735D01*
X144726651Y-89406366D01*
X144726649Y-89406364D01*
X144726647Y-89406361D01*
X144641438Y-89321152D01*
X144641432Y-89321148D01*
X144537066Y-89260892D01*
X144498262Y-89250494D01*
X144420657Y-89229700D01*
X144300143Y-89229700D01*
X144241939Y-89245296D01*
X144183733Y-89260892D01*
X144079367Y-89321148D01*
X144079361Y-89321152D01*
X143994152Y-89406361D01*
X143994148Y-89406367D01*
X143933892Y-89510733D01*
X143913097Y-89588340D01*
X143902700Y-89627143D01*
X143168100Y-89627143D01*
X143136908Y-89510735D01*
X143076651Y-89406366D01*
X143076649Y-89406364D01*
X143076647Y-89406361D01*
X142991438Y-89321152D01*
X142991432Y-89321148D01*
X142887066Y-89260892D01*
X142848262Y-89250494D01*
X142770657Y-89229700D01*
X142650143Y-89229700D01*
X142591939Y-89245296D01*
X142533733Y-89260892D01*
X142429367Y-89321148D01*
X142429361Y-89321152D01*
X142344152Y-89406361D01*
X142344148Y-89406367D01*
X142283892Y-89510733D01*
X142263097Y-89588340D01*
X142252700Y-89627143D01*
X126746500Y-89627143D01*
X126746500Y-88166222D01*
X129172100Y-88166222D01*
X129172100Y-88363777D01*
X129210641Y-88557537D01*
X129210642Y-88557538D01*
X129245092Y-88640708D01*
X129286241Y-88740051D01*
X129395996Y-88904312D01*
X129395997Y-88904313D01*
X129396000Y-88904317D01*
X129535682Y-89043999D01*
X129535685Y-89044001D01*
X129535688Y-89044004D01*
X129699949Y-89153759D01*
X129882461Y-89229357D01*
X129882462Y-89229358D01*
X129882463Y-89229358D01*
X129882465Y-89229359D01*
X130012218Y-89255168D01*
X130076222Y-89267900D01*
X130076223Y-89267900D01*
X130273778Y-89267900D01*
X130321889Y-89258329D01*
X130467535Y-89229359D01*
X130650051Y-89153759D01*
X130814312Y-89044004D01*
X130954004Y-88904312D01*
X131063759Y-88740051D01*
X131139359Y-88557535D01*
X131177900Y-88363777D01*
X131177900Y-88166223D01*
X131177900Y-88166222D01*
X131712100Y-88166222D01*
X131712100Y-88363777D01*
X131750641Y-88557537D01*
X131750642Y-88557538D01*
X131785092Y-88640708D01*
X131826241Y-88740051D01*
X131935996Y-88904312D01*
X131935997Y-88904313D01*
X131936000Y-88904317D01*
X132075682Y-89043999D01*
X132075685Y-89044001D01*
X132075688Y-89044004D01*
X132239949Y-89153759D01*
X132422461Y-89229357D01*
X132422462Y-89229358D01*
X132422463Y-89229358D01*
X132422465Y-89229359D01*
X132552218Y-89255168D01*
X132616222Y-89267900D01*
X132616223Y-89267900D01*
X132813778Y-89267900D01*
X132861889Y-89258329D01*
X133007535Y-89229359D01*
X133190051Y-89153759D01*
X133354312Y-89044004D01*
X133494004Y-88904312D01*
X133603759Y-88740051D01*
X133679359Y-88557535D01*
X133717900Y-88363777D01*
X133717900Y-88166223D01*
X133717396Y-88163688D01*
X133717396Y-88163686D01*
X133717395Y-88163685D01*
X133715457Y-88153943D01*
X139280900Y-88153943D01*
X139280900Y-88274457D01*
X139301694Y-88352062D01*
X139312092Y-88390866D01*
X139372348Y-88495232D01*
X139372352Y-88495238D01*
X139457561Y-88580447D01*
X139457564Y-88580449D01*
X139457566Y-88580451D01*
X139561935Y-88640708D01*
X139678343Y-88671900D01*
X139678345Y-88671900D01*
X139798855Y-88671900D01*
X139798857Y-88671900D01*
X139915265Y-88640708D01*
X140019634Y-88580451D01*
X140104851Y-88495234D01*
X140165108Y-88390865D01*
X140196300Y-88274457D01*
X140196300Y-88153943D01*
X140930900Y-88153943D01*
X140930900Y-88274457D01*
X140951694Y-88352062D01*
X140962092Y-88390866D01*
X141022348Y-88495232D01*
X141022352Y-88495238D01*
X141107561Y-88580447D01*
X141107564Y-88580449D01*
X141107566Y-88580451D01*
X141211935Y-88640708D01*
X141328343Y-88671900D01*
X141328345Y-88671900D01*
X141448855Y-88671900D01*
X141448857Y-88671900D01*
X141565265Y-88640708D01*
X141669634Y-88580451D01*
X141754851Y-88495234D01*
X141815108Y-88390865D01*
X141846300Y-88274457D01*
X141846300Y-88153943D01*
X142252700Y-88153943D01*
X142252700Y-88274457D01*
X142273494Y-88352062D01*
X142283892Y-88390866D01*
X142344148Y-88495232D01*
X142344152Y-88495238D01*
X142429361Y-88580447D01*
X142429364Y-88580449D01*
X142429366Y-88580451D01*
X142533735Y-88640708D01*
X142650143Y-88671900D01*
X142650145Y-88671900D01*
X142770655Y-88671900D01*
X142770657Y-88671900D01*
X142887065Y-88640708D01*
X142991434Y-88580451D01*
X143076651Y-88495234D01*
X143136908Y-88390865D01*
X143168100Y-88274457D01*
X143168100Y-88153943D01*
X143902700Y-88153943D01*
X143902700Y-88274457D01*
X143923494Y-88352062D01*
X143933892Y-88390866D01*
X143994148Y-88495232D01*
X143994152Y-88495238D01*
X144079361Y-88580447D01*
X144079364Y-88580449D01*
X144079366Y-88580451D01*
X144183735Y-88640708D01*
X144300143Y-88671900D01*
X144300145Y-88671900D01*
X144420655Y-88671900D01*
X144420657Y-88671900D01*
X144537065Y-88640708D01*
X144641434Y-88580451D01*
X144726651Y-88495234D01*
X144786908Y-88390865D01*
X144818100Y-88274457D01*
X144818100Y-88153943D01*
X169303700Y-88153943D01*
X169303700Y-88274457D01*
X169324494Y-88352062D01*
X169334892Y-88390866D01*
X169395148Y-88495232D01*
X169395152Y-88495238D01*
X169480361Y-88580447D01*
X169480364Y-88580449D01*
X169480366Y-88580451D01*
X169584735Y-88640708D01*
X169701143Y-88671900D01*
X169701145Y-88671900D01*
X169821655Y-88671900D01*
X169821657Y-88671900D01*
X169938065Y-88640708D01*
X170042434Y-88580451D01*
X170127651Y-88495234D01*
X170187908Y-88390865D01*
X170219100Y-88274457D01*
X170219100Y-88153943D01*
X170953700Y-88153943D01*
X170953700Y-88274457D01*
X170974494Y-88352062D01*
X170984892Y-88390866D01*
X171045148Y-88495232D01*
X171045152Y-88495238D01*
X171130361Y-88580447D01*
X171130364Y-88580449D01*
X171130366Y-88580451D01*
X171234735Y-88640708D01*
X171351143Y-88671900D01*
X171351145Y-88671900D01*
X171471655Y-88671900D01*
X171471657Y-88671900D01*
X171588065Y-88640708D01*
X171692434Y-88580451D01*
X171777651Y-88495234D01*
X171837908Y-88390865D01*
X171869100Y-88274457D01*
X171869100Y-88166222D01*
X177432100Y-88166222D01*
X177432100Y-88363777D01*
X177470641Y-88557537D01*
X177470642Y-88557538D01*
X177505092Y-88640708D01*
X177546241Y-88740051D01*
X177655996Y-88904312D01*
X177655997Y-88904313D01*
X177656000Y-88904317D01*
X177795682Y-89043999D01*
X177795685Y-89044001D01*
X177795688Y-89044004D01*
X177959949Y-89153759D01*
X178142461Y-89229357D01*
X178142462Y-89229358D01*
X178142463Y-89229358D01*
X178142465Y-89229359D01*
X178272218Y-89255168D01*
X178336222Y-89267900D01*
X178336223Y-89267900D01*
X178533778Y-89267900D01*
X178581889Y-89258329D01*
X178727535Y-89229359D01*
X178910051Y-89153759D01*
X179074312Y-89044004D01*
X179214004Y-88904312D01*
X179323759Y-88740051D01*
X179399359Y-88557535D01*
X179437900Y-88363777D01*
X179437900Y-88166223D01*
X179437900Y-88166222D01*
X179972100Y-88166222D01*
X179972100Y-88363777D01*
X180010641Y-88557537D01*
X180010642Y-88557538D01*
X180045092Y-88640708D01*
X180086241Y-88740051D01*
X180195996Y-88904312D01*
X180195997Y-88904313D01*
X180196000Y-88904317D01*
X180335682Y-89043999D01*
X180335685Y-89044001D01*
X180335688Y-89044004D01*
X180499949Y-89153759D01*
X180682461Y-89229357D01*
X180682462Y-89229358D01*
X180682463Y-89229358D01*
X180682465Y-89229359D01*
X180812218Y-89255168D01*
X180876222Y-89267900D01*
X180876223Y-89267900D01*
X181073778Y-89267900D01*
X181121889Y-89258329D01*
X181267535Y-89229359D01*
X181450051Y-89153759D01*
X181614312Y-89044004D01*
X181754004Y-88904312D01*
X181863759Y-88740051D01*
X181939359Y-88557535D01*
X181977900Y-88363777D01*
X181977900Y-88166223D01*
X181977899Y-88166220D01*
X181939358Y-87972462D01*
X181939357Y-87972461D01*
X181887783Y-87847949D01*
X181863759Y-87789949D01*
X181754004Y-87625688D01*
X181754001Y-87625685D01*
X181753999Y-87625682D01*
X181614317Y-87486000D01*
X181614313Y-87485997D01*
X181614312Y-87485996D01*
X181450051Y-87376241D01*
X181450049Y-87376240D01*
X181267538Y-87300642D01*
X181267537Y-87300641D01*
X181073778Y-87262100D01*
X181073777Y-87262100D01*
X180876223Y-87262100D01*
X180876222Y-87262100D01*
X180682462Y-87300641D01*
X180682461Y-87300642D01*
X180499950Y-87376240D01*
X180335682Y-87486000D01*
X180196000Y-87625682D01*
X180086240Y-87789950D01*
X180010642Y-87972461D01*
X180010641Y-87972462D01*
X179972100Y-88166222D01*
X179437900Y-88166222D01*
X179437899Y-88166220D01*
X179399358Y-87972462D01*
X179399357Y-87972461D01*
X179347783Y-87847949D01*
X179323759Y-87789949D01*
X179214004Y-87625688D01*
X179214001Y-87625685D01*
X179213999Y-87625682D01*
X179074317Y-87486000D01*
X179074313Y-87485997D01*
X179074312Y-87485996D01*
X178910051Y-87376241D01*
X178910049Y-87376240D01*
X178727538Y-87300642D01*
X178727537Y-87300641D01*
X178533778Y-87262100D01*
X178533777Y-87262100D01*
X178336223Y-87262100D01*
X178336222Y-87262100D01*
X178142462Y-87300641D01*
X178142461Y-87300642D01*
X177959950Y-87376240D01*
X177795682Y-87486000D01*
X177656000Y-87625682D01*
X177546240Y-87789950D01*
X177470642Y-87972461D01*
X177470641Y-87972462D01*
X177432100Y-88166222D01*
X171869100Y-88166222D01*
X171869100Y-88153943D01*
X171837908Y-88037535D01*
X171777651Y-87933166D01*
X171777649Y-87933164D01*
X171777647Y-87933161D01*
X171692438Y-87847952D01*
X171692432Y-87847948D01*
X171588066Y-87787692D01*
X171549262Y-87777294D01*
X171471657Y-87756500D01*
X171351143Y-87756500D01*
X171292939Y-87772096D01*
X171234733Y-87787692D01*
X171130367Y-87847948D01*
X171130361Y-87847952D01*
X171045152Y-87933161D01*
X171045148Y-87933167D01*
X170984892Y-88037533D01*
X170964097Y-88115140D01*
X170953700Y-88153943D01*
X170219100Y-88153943D01*
X170187908Y-88037535D01*
X170127651Y-87933166D01*
X170127649Y-87933164D01*
X170127647Y-87933161D01*
X170042438Y-87847952D01*
X170042432Y-87847948D01*
X169938066Y-87787692D01*
X169899262Y-87777294D01*
X169821657Y-87756500D01*
X169701143Y-87756500D01*
X169642939Y-87772096D01*
X169584733Y-87787692D01*
X169480367Y-87847948D01*
X169480361Y-87847952D01*
X169395152Y-87933161D01*
X169395148Y-87933167D01*
X169334892Y-88037533D01*
X169314097Y-88115140D01*
X169303700Y-88153943D01*
X144818100Y-88153943D01*
X144786908Y-88037535D01*
X144726651Y-87933166D01*
X144726649Y-87933164D01*
X144726647Y-87933161D01*
X144641438Y-87847952D01*
X144641432Y-87847948D01*
X144537066Y-87787692D01*
X144498262Y-87777294D01*
X144420657Y-87756500D01*
X144300143Y-87756500D01*
X144241939Y-87772096D01*
X144183733Y-87787692D01*
X144079367Y-87847948D01*
X144079361Y-87847952D01*
X143994152Y-87933161D01*
X143994148Y-87933167D01*
X143933892Y-88037533D01*
X143913097Y-88115140D01*
X143902700Y-88153943D01*
X143168100Y-88153943D01*
X143136908Y-88037535D01*
X143076651Y-87933166D01*
X143076649Y-87933164D01*
X143076647Y-87933161D01*
X142991438Y-87847952D01*
X142991432Y-87847948D01*
X142887066Y-87787692D01*
X142848262Y-87777294D01*
X142770657Y-87756500D01*
X142650143Y-87756500D01*
X142591939Y-87772096D01*
X142533733Y-87787692D01*
X142429367Y-87847948D01*
X142429361Y-87847952D01*
X142344152Y-87933161D01*
X142344148Y-87933167D01*
X142283892Y-88037533D01*
X142263097Y-88115140D01*
X142252700Y-88153943D01*
X141846300Y-88153943D01*
X141815108Y-88037535D01*
X141754851Y-87933166D01*
X141754849Y-87933164D01*
X141754847Y-87933161D01*
X141669638Y-87847952D01*
X141669632Y-87847948D01*
X141565266Y-87787692D01*
X141526462Y-87777294D01*
X141448857Y-87756500D01*
X141328343Y-87756500D01*
X141270139Y-87772096D01*
X141211933Y-87787692D01*
X141107567Y-87847948D01*
X141107561Y-87847952D01*
X141022352Y-87933161D01*
X141022348Y-87933167D01*
X140962092Y-88037533D01*
X140941297Y-88115140D01*
X140930900Y-88153943D01*
X140196300Y-88153943D01*
X140165108Y-88037535D01*
X140104851Y-87933166D01*
X140104849Y-87933164D01*
X140104847Y-87933161D01*
X140019638Y-87847952D01*
X140019632Y-87847948D01*
X139915266Y-87787692D01*
X139876462Y-87777294D01*
X139798857Y-87756500D01*
X139678343Y-87756500D01*
X139620139Y-87772096D01*
X139561933Y-87787692D01*
X139457567Y-87847948D01*
X139457561Y-87847952D01*
X139372352Y-87933161D01*
X139372348Y-87933167D01*
X139312092Y-88037533D01*
X139291297Y-88115140D01*
X139280900Y-88153943D01*
X133715457Y-88153943D01*
X133679359Y-87972465D01*
X133603759Y-87789949D01*
X133494004Y-87625688D01*
X133494001Y-87625685D01*
X133493999Y-87625682D01*
X133354317Y-87486000D01*
X133354313Y-87485997D01*
X133354312Y-87485996D01*
X133190051Y-87376241D01*
X133190049Y-87376240D01*
X133007538Y-87300642D01*
X133007537Y-87300641D01*
X132813778Y-87262100D01*
X132813777Y-87262100D01*
X132616223Y-87262100D01*
X132616222Y-87262100D01*
X132422462Y-87300641D01*
X132422461Y-87300642D01*
X132239950Y-87376240D01*
X132075682Y-87486000D01*
X131936000Y-87625682D01*
X131826240Y-87789950D01*
X131750642Y-87972461D01*
X131750641Y-87972462D01*
X131712100Y-88166222D01*
X131177900Y-88166222D01*
X131177899Y-88166220D01*
X131139358Y-87972462D01*
X131139357Y-87972461D01*
X131087783Y-87847949D01*
X131063759Y-87789949D01*
X130954004Y-87625688D01*
X130954001Y-87625685D01*
X130953999Y-87625682D01*
X130814317Y-87486000D01*
X130814313Y-87485997D01*
X130814312Y-87485996D01*
X130650051Y-87376241D01*
X130650049Y-87376240D01*
X130467538Y-87300642D01*
X130467537Y-87300641D01*
X130273778Y-87262100D01*
X130273777Y-87262100D01*
X130076223Y-87262100D01*
X130076222Y-87262100D01*
X129882462Y-87300641D01*
X129882461Y-87300642D01*
X129699950Y-87376240D01*
X129535682Y-87486000D01*
X129396000Y-87625682D01*
X129286240Y-87789950D01*
X129210642Y-87972461D01*
X129210641Y-87972462D01*
X129172100Y-88166222D01*
X126746500Y-88166222D01*
X126746500Y-87050343D01*
X156158700Y-87050343D01*
X156158700Y-87170857D01*
X156165506Y-87196257D01*
X156189892Y-87287266D01*
X156250148Y-87391632D01*
X156250152Y-87391638D01*
X156335361Y-87476847D01*
X156335364Y-87476849D01*
X156335366Y-87476851D01*
X156439735Y-87537108D01*
X156556143Y-87568300D01*
X156556145Y-87568300D01*
X156676655Y-87568300D01*
X156676657Y-87568300D01*
X156793065Y-87537108D01*
X156897434Y-87476851D01*
X156982651Y-87391634D01*
X157042908Y-87287265D01*
X157074100Y-87170857D01*
X157074100Y-87050343D01*
X157074100Y-87045414D01*
X157076236Y-87045414D01*
X157085619Y-87003077D01*
X157126428Y-86971760D01*
X157160651Y-86971015D01*
X157160857Y-86969457D01*
X157165740Y-86970100D01*
X157165743Y-86970100D01*
X157286257Y-86970100D01*
X157289671Y-86969185D01*
X157340915Y-86973667D01*
X157377289Y-87010039D01*
X157381774Y-87061283D01*
X157381774Y-87061284D01*
X157379209Y-87070857D01*
X157377900Y-87075743D01*
X157377900Y-87196257D01*
X157395543Y-87262100D01*
X157409092Y-87312666D01*
X157469348Y-87417032D01*
X157469352Y-87417038D01*
X157554561Y-87502247D01*
X157554564Y-87502249D01*
X157554566Y-87502251D01*
X157658935Y-87562508D01*
X157775343Y-87593700D01*
X157775345Y-87593700D01*
X157895855Y-87593700D01*
X157895857Y-87593700D01*
X158012265Y-87562508D01*
X158116634Y-87502251D01*
X158201851Y-87417034D01*
X158262108Y-87312665D01*
X158293300Y-87196257D01*
X158293300Y-87075743D01*
X158289426Y-87061284D01*
X158293908Y-87010043D01*
X158330280Y-86973669D01*
X158381524Y-86969184D01*
X158381525Y-86969184D01*
X158384943Y-86970100D01*
X158384945Y-86970100D01*
X158505457Y-86970100D01*
X158508871Y-86969185D01*
X158560115Y-86973667D01*
X158596489Y-87010039D01*
X158600974Y-87061283D01*
X158600974Y-87061284D01*
X158598409Y-87070857D01*
X158597100Y-87075743D01*
X158597100Y-87196257D01*
X158614743Y-87262100D01*
X158628292Y-87312666D01*
X158688548Y-87417032D01*
X158688552Y-87417038D01*
X158773761Y-87502247D01*
X158773764Y-87502249D01*
X158773766Y-87502251D01*
X158878135Y-87562508D01*
X158994543Y-87593700D01*
X158994545Y-87593700D01*
X159115055Y-87593700D01*
X159115057Y-87593700D01*
X159231465Y-87562508D01*
X159335834Y-87502251D01*
X159421051Y-87417034D01*
X159481308Y-87312665D01*
X159512500Y-87196257D01*
X159512500Y-87075743D01*
X160781500Y-87075743D01*
X160781500Y-87196257D01*
X160799143Y-87262100D01*
X160812692Y-87312666D01*
X160872948Y-87417032D01*
X160872952Y-87417038D01*
X160958161Y-87502247D01*
X160958164Y-87502249D01*
X160958166Y-87502251D01*
X161062535Y-87562508D01*
X161178943Y-87593700D01*
X161178945Y-87593700D01*
X161299455Y-87593700D01*
X161299457Y-87593700D01*
X161415865Y-87562508D01*
X161520234Y-87502251D01*
X161605451Y-87417034D01*
X161665708Y-87312665D01*
X161696900Y-87196257D01*
X161696900Y-87075743D01*
X161696900Y-87075740D01*
X161696257Y-87070857D01*
X161697565Y-87070684D01*
X161701550Y-87025125D01*
X161737924Y-86988751D01*
X161783484Y-86984764D01*
X161783657Y-86983457D01*
X161788540Y-86984100D01*
X161788543Y-86984100D01*
X161909055Y-86984100D01*
X161909057Y-86984100D01*
X162025465Y-86952908D01*
X162129834Y-86892651D01*
X162215051Y-86807434D01*
X162275308Y-86703065D01*
X162306500Y-86586657D01*
X162306500Y-86466143D01*
X162275308Y-86349735D01*
X162215051Y-86245366D01*
X162215049Y-86245364D01*
X162215047Y-86245361D01*
X162129838Y-86160152D01*
X162129832Y-86160148D01*
X162025466Y-86099892D01*
X161973217Y-86085892D01*
X161909057Y-86068700D01*
X161788543Y-86068700D01*
X161730339Y-86084296D01*
X161672133Y-86099892D01*
X161567767Y-86160148D01*
X161567761Y-86160152D01*
X161482552Y-86245361D01*
X161482548Y-86245367D01*
X161422292Y-86349733D01*
X161401497Y-86427340D01*
X161394852Y-86452143D01*
X161391100Y-86466144D01*
X161391100Y-86586659D01*
X161391743Y-86591543D01*
X161390437Y-86591714D01*
X161386443Y-86637286D01*
X161350064Y-86673653D01*
X161304514Y-86677638D01*
X161304343Y-86678943D01*
X161299460Y-86678300D01*
X161299457Y-86678300D01*
X161178943Y-86678300D01*
X161120739Y-86693896D01*
X161062533Y-86709492D01*
X160958167Y-86769748D01*
X160958161Y-86769752D01*
X160872952Y-86854961D01*
X160872948Y-86854967D01*
X160812692Y-86959333D01*
X160795063Y-87025125D01*
X160781500Y-87075743D01*
X159512500Y-87075743D01*
X159508203Y-87059708D01*
X159507851Y-87058121D01*
X159511000Y-87034141D01*
X159513108Y-87010043D01*
X159514324Y-87008825D01*
X159514549Y-87007120D01*
X159532379Y-86990770D01*
X159549480Y-86973669D01*
X159551193Y-86973519D01*
X159552463Y-86972355D01*
X159576643Y-86971291D01*
X159600724Y-86969184D01*
X159600725Y-86969184D01*
X159604143Y-86970100D01*
X159604145Y-86970100D01*
X159724655Y-86970100D01*
X159724657Y-86970100D01*
X159841065Y-86938908D01*
X159945434Y-86878651D01*
X160030651Y-86793434D01*
X160090908Y-86689065D01*
X160122100Y-86572657D01*
X160122100Y-86452143D01*
X160090908Y-86335735D01*
X160030651Y-86231366D01*
X160030649Y-86231364D01*
X160030647Y-86231361D01*
X159945438Y-86146152D01*
X159945432Y-86146148D01*
X159841066Y-86085892D01*
X159802262Y-86075494D01*
X159724657Y-86054700D01*
X159604143Y-86054700D01*
X159551895Y-86068700D01*
X159487733Y-86085892D01*
X159383367Y-86146148D01*
X159383361Y-86146152D01*
X159298152Y-86231361D01*
X159298148Y-86231367D01*
X159237892Y-86335733D01*
X159230233Y-86364317D01*
X159206700Y-86452143D01*
X159206700Y-86572657D01*
X159210452Y-86586659D01*
X159210574Y-86587114D01*
X159206090Y-86638358D01*
X159169716Y-86674732D01*
X159118479Y-86679216D01*
X159115059Y-86678300D01*
X159115057Y-86678300D01*
X158994543Y-86678300D01*
X158994542Y-86678300D01*
X158991118Y-86679217D01*
X158939874Y-86674728D01*
X158903505Y-86638350D01*
X158899026Y-86587113D01*
X158902900Y-86572657D01*
X158902900Y-86452143D01*
X158871708Y-86335735D01*
X158811451Y-86231366D01*
X158811449Y-86231364D01*
X158811447Y-86231361D01*
X158726238Y-86146152D01*
X158726232Y-86146148D01*
X158621866Y-86085892D01*
X158583062Y-86075494D01*
X158505457Y-86054700D01*
X158384943Y-86054700D01*
X158332695Y-86068700D01*
X158268533Y-86085892D01*
X158164167Y-86146148D01*
X158164161Y-86146152D01*
X158078952Y-86231361D01*
X158078948Y-86231367D01*
X158018692Y-86335733D01*
X158011033Y-86364317D01*
X157987500Y-86452143D01*
X157987500Y-86572657D01*
X157991252Y-86586659D01*
X157991374Y-86587114D01*
X157986890Y-86638358D01*
X157950516Y-86674732D01*
X157899279Y-86679216D01*
X157895859Y-86678300D01*
X157895857Y-86678300D01*
X157775343Y-86678300D01*
X157775342Y-86678300D01*
X157771918Y-86679217D01*
X157720674Y-86674728D01*
X157684305Y-86638350D01*
X157679826Y-86587113D01*
X157683700Y-86572657D01*
X157683700Y-86452143D01*
X157652508Y-86335735D01*
X157592251Y-86231366D01*
X157592249Y-86231364D01*
X157592247Y-86231361D01*
X157507038Y-86146152D01*
X157507032Y-86146148D01*
X157402666Y-86085892D01*
X157363862Y-86075494D01*
X157286257Y-86054700D01*
X157165743Y-86054700D01*
X157113495Y-86068700D01*
X157049333Y-86085892D01*
X156944967Y-86146148D01*
X156944961Y-86146152D01*
X156859752Y-86231361D01*
X156859748Y-86231367D01*
X156799492Y-86335733D01*
X156768300Y-86452144D01*
X156768300Y-86577586D01*
X156766170Y-86577586D01*
X156756762Y-86619950D01*
X156715940Y-86651249D01*
X156681747Y-86651990D01*
X156681543Y-86653543D01*
X156676660Y-86652900D01*
X156676657Y-86652900D01*
X156556143Y-86652900D01*
X156497939Y-86668496D01*
X156439733Y-86684092D01*
X156335367Y-86744348D01*
X156335361Y-86744352D01*
X156250152Y-86829561D01*
X156250148Y-86829567D01*
X156189892Y-86933933D01*
X156179245Y-86973669D01*
X156158700Y-87050343D01*
X126746500Y-87050343D01*
X126746500Y-85626222D01*
X131712100Y-85626222D01*
X131712100Y-85823777D01*
X131750641Y-86017537D01*
X131750642Y-86017538D01*
X131826241Y-86200051D01*
X131935996Y-86364312D01*
X131935997Y-86364313D01*
X131936000Y-86364317D01*
X132075682Y-86503999D01*
X132075685Y-86504001D01*
X132075688Y-86504004D01*
X132239949Y-86613759D01*
X132422461Y-86689357D01*
X132422462Y-86689358D01*
X132422463Y-86689358D01*
X132422465Y-86689359D01*
X132552218Y-86715168D01*
X132616222Y-86727900D01*
X132616223Y-86727900D01*
X132813778Y-86727900D01*
X132862185Y-86718271D01*
X133007535Y-86689359D01*
X133190051Y-86613759D01*
X133354312Y-86504004D01*
X133494004Y-86364312D01*
X133603759Y-86200051D01*
X133679359Y-86017535D01*
X133717900Y-85823777D01*
X133717900Y-85626223D01*
X133717900Y-85626222D01*
X177432100Y-85626222D01*
X177432100Y-85823777D01*
X177470641Y-86017537D01*
X177470642Y-86017538D01*
X177546241Y-86200051D01*
X177655996Y-86364312D01*
X177655997Y-86364313D01*
X177656000Y-86364317D01*
X177795682Y-86503999D01*
X177795685Y-86504001D01*
X177795688Y-86504004D01*
X177959949Y-86613759D01*
X178142461Y-86689357D01*
X178142462Y-86689358D01*
X178142463Y-86689358D01*
X178142465Y-86689359D01*
X178272218Y-86715168D01*
X178336222Y-86727900D01*
X178336223Y-86727900D01*
X178533778Y-86727900D01*
X178582185Y-86718271D01*
X178727535Y-86689359D01*
X178910051Y-86613759D01*
X179074312Y-86504004D01*
X179214004Y-86364312D01*
X179323759Y-86200051D01*
X179399359Y-86017535D01*
X179437900Y-85823777D01*
X179437900Y-85626223D01*
X179437900Y-85626222D01*
X179972100Y-85626222D01*
X179972100Y-85823777D01*
X180010641Y-86017537D01*
X180010642Y-86017538D01*
X180086241Y-86200051D01*
X180195996Y-86364312D01*
X180195997Y-86364313D01*
X180196000Y-86364317D01*
X180335682Y-86503999D01*
X180335685Y-86504001D01*
X180335688Y-86504004D01*
X180499949Y-86613759D01*
X180682461Y-86689357D01*
X180682462Y-86689358D01*
X180682463Y-86689358D01*
X180682465Y-86689359D01*
X180812218Y-86715168D01*
X180876222Y-86727900D01*
X180876223Y-86727900D01*
X181073778Y-86727900D01*
X181122185Y-86718271D01*
X181267535Y-86689359D01*
X181450051Y-86613759D01*
X181614312Y-86504004D01*
X181754004Y-86364312D01*
X181863759Y-86200051D01*
X181939359Y-86017535D01*
X181977900Y-85823777D01*
X181977900Y-85626223D01*
X181939359Y-85432465D01*
X181863759Y-85249949D01*
X181754004Y-85085688D01*
X181754001Y-85085685D01*
X181753999Y-85085682D01*
X181614317Y-84946000D01*
X181614313Y-84945997D01*
X181614312Y-84945996D01*
X181450051Y-84836241D01*
X181450049Y-84836240D01*
X181267538Y-84760642D01*
X181267537Y-84760641D01*
X181073778Y-84722100D01*
X181073777Y-84722100D01*
X180876223Y-84722100D01*
X180876222Y-84722100D01*
X180682462Y-84760641D01*
X180682461Y-84760642D01*
X180499950Y-84836240D01*
X180335682Y-84946000D01*
X180196000Y-85085682D01*
X180086240Y-85249950D01*
X180010642Y-85432461D01*
X180010641Y-85432462D01*
X179972100Y-85626222D01*
X179437900Y-85626222D01*
X179399359Y-85432465D01*
X179323759Y-85249949D01*
X179214004Y-85085688D01*
X179214001Y-85085685D01*
X179213999Y-85085682D01*
X179074317Y-84946000D01*
X179074313Y-84945997D01*
X179074312Y-84945996D01*
X178910051Y-84836241D01*
X178910049Y-84836240D01*
X178727538Y-84760642D01*
X178727537Y-84760641D01*
X178533778Y-84722100D01*
X178533777Y-84722100D01*
X178336223Y-84722100D01*
X178336222Y-84722100D01*
X178142462Y-84760641D01*
X178142461Y-84760642D01*
X177959950Y-84836240D01*
X177795682Y-84946000D01*
X177656000Y-85085682D01*
X177546240Y-85249950D01*
X177470642Y-85432461D01*
X177470641Y-85432462D01*
X177432100Y-85626222D01*
X133717900Y-85626222D01*
X133679359Y-85432465D01*
X133603759Y-85249949D01*
X133494004Y-85085688D01*
X133494001Y-85085685D01*
X133493999Y-85085682D01*
X133354317Y-84946000D01*
X133354313Y-84945997D01*
X133354312Y-84945996D01*
X133190051Y-84836241D01*
X133190049Y-84836240D01*
X133007538Y-84760642D01*
X133007537Y-84760641D01*
X132813778Y-84722100D01*
X132813777Y-84722100D01*
X132616223Y-84722100D01*
X132616222Y-84722100D01*
X132422462Y-84760641D01*
X132422461Y-84760642D01*
X132239950Y-84836240D01*
X132075682Y-84946000D01*
X131936000Y-85085682D01*
X131826240Y-85249950D01*
X131750642Y-85432461D01*
X131750641Y-85432462D01*
X131712100Y-85626222D01*
X126746500Y-85626222D01*
X126746500Y-83086222D01*
X131712100Y-83086222D01*
X131712100Y-83283777D01*
X131750641Y-83477537D01*
X131750642Y-83477538D01*
X131826241Y-83660051D01*
X131935996Y-83824312D01*
X131935997Y-83824313D01*
X131936000Y-83824317D01*
X132075682Y-83963999D01*
X132075685Y-83964001D01*
X132075688Y-83964004D01*
X132239949Y-84073759D01*
X132422461Y-84149357D01*
X132422462Y-84149358D01*
X132422463Y-84149358D01*
X132422465Y-84149359D01*
X132552218Y-84175168D01*
X132616222Y-84187900D01*
X132616223Y-84187900D01*
X132813778Y-84187900D01*
X132861889Y-84178329D01*
X133007535Y-84149359D01*
X133190051Y-84073759D01*
X133354312Y-83964004D01*
X133494004Y-83824312D01*
X133603759Y-83660051D01*
X133679359Y-83477535D01*
X133717900Y-83283777D01*
X133717900Y-83086223D01*
X133717426Y-83083842D01*
X133698861Y-82990507D01*
X133679359Y-82892465D01*
X133603759Y-82709949D01*
X133494004Y-82545688D01*
X133494001Y-82545685D01*
X133493999Y-82545682D01*
X133360381Y-82412064D01*
X138865500Y-82412064D01*
X138865500Y-82687936D01*
X138901508Y-82961449D01*
X138954081Y-83157655D01*
X138972910Y-83227923D01*
X138972910Y-83227924D01*
X139078481Y-83482795D01*
X139216418Y-83721709D01*
X139295149Y-83824312D01*
X139384358Y-83940571D01*
X139384363Y-83940576D01*
X139384370Y-83940584D01*
X139579415Y-84135629D01*
X139579423Y-84135636D01*
X139579429Y-84135642D01*
X139798293Y-84303583D01*
X140037206Y-84441519D01*
X140292079Y-84547091D01*
X140558551Y-84618492D01*
X140832064Y-84654500D01*
X140832066Y-84654500D01*
X141107934Y-84654500D01*
X141107936Y-84654500D01*
X141381449Y-84618492D01*
X141647921Y-84547091D01*
X141902794Y-84441519D01*
X142141707Y-84303583D01*
X142360571Y-84135642D01*
X142555642Y-83940571D01*
X142723583Y-83721707D01*
X142861519Y-83482794D01*
X142967091Y-83227921D01*
X143038492Y-82961449D01*
X143074500Y-82687936D01*
X143074500Y-82503743D01*
X159765500Y-82503743D01*
X159765500Y-82624257D01*
X159782563Y-82687934D01*
X159796692Y-82740666D01*
X159856948Y-82845032D01*
X159856952Y-82845038D01*
X159942161Y-82930247D01*
X159942164Y-82930249D01*
X159942166Y-82930251D01*
X160046535Y-82990508D01*
X160162943Y-83021700D01*
X160162945Y-83021700D01*
X160249100Y-83021700D01*
X160297438Y-83039293D01*
X160323158Y-83083842D01*
X160324300Y-83096900D01*
X160324300Y-83157657D01*
X160343128Y-83227921D01*
X160355492Y-83274066D01*
X160415748Y-83378432D01*
X160415752Y-83378438D01*
X160500961Y-83463647D01*
X160500964Y-83463649D01*
X160500966Y-83463651D01*
X160605335Y-83523908D01*
X160721743Y-83555100D01*
X160721745Y-83555100D01*
X160842255Y-83555100D01*
X160842257Y-83555100D01*
X160958665Y-83523908D01*
X161063034Y-83463651D01*
X161148251Y-83378434D01*
X161208508Y-83274065D01*
X161239700Y-83157657D01*
X161239700Y-83096900D01*
X161257293Y-83048562D01*
X161301842Y-83022842D01*
X161314900Y-83021700D01*
X161401055Y-83021700D01*
X161401057Y-83021700D01*
X161517465Y-82990508D01*
X161621834Y-82930251D01*
X161707051Y-82845034D01*
X161767308Y-82740665D01*
X161798500Y-82624257D01*
X161798500Y-82503743D01*
X161773934Y-82412064D01*
X168075500Y-82412064D01*
X168075500Y-82687936D01*
X168111508Y-82961449D01*
X168164081Y-83157655D01*
X168182910Y-83227923D01*
X168182910Y-83227924D01*
X168288481Y-83482795D01*
X168426418Y-83721709D01*
X168505149Y-83824312D01*
X168594358Y-83940571D01*
X168594363Y-83940576D01*
X168594370Y-83940584D01*
X168789415Y-84135629D01*
X168789423Y-84135636D01*
X168789429Y-84135642D01*
X169008293Y-84303583D01*
X169247206Y-84441519D01*
X169502079Y-84547091D01*
X169768551Y-84618492D01*
X170042064Y-84654500D01*
X170042066Y-84654500D01*
X170317934Y-84654500D01*
X170317936Y-84654500D01*
X170591449Y-84618492D01*
X170857921Y-84547091D01*
X171112794Y-84441519D01*
X171351707Y-84303583D01*
X171570571Y-84135642D01*
X171765642Y-83940571D01*
X171933583Y-83721707D01*
X172071519Y-83482794D01*
X172177091Y-83227921D01*
X172215059Y-83086222D01*
X177432100Y-83086222D01*
X177432100Y-83283777D01*
X177470641Y-83477537D01*
X177470642Y-83477538D01*
X177546241Y-83660051D01*
X177655996Y-83824312D01*
X177655997Y-83824313D01*
X177656000Y-83824317D01*
X177795682Y-83963999D01*
X177795685Y-83964001D01*
X177795688Y-83964004D01*
X177959949Y-84073759D01*
X178142461Y-84149357D01*
X178142462Y-84149358D01*
X178142463Y-84149358D01*
X178142465Y-84149359D01*
X178272218Y-84175168D01*
X178336222Y-84187900D01*
X178336223Y-84187900D01*
X178533778Y-84187900D01*
X178581889Y-84178329D01*
X178727535Y-84149359D01*
X178910051Y-84073759D01*
X179074312Y-83964004D01*
X179214004Y-83824312D01*
X179323759Y-83660051D01*
X179399359Y-83477535D01*
X179437900Y-83283777D01*
X179437900Y-83086223D01*
X179437900Y-83086222D01*
X179972100Y-83086222D01*
X179972100Y-83283777D01*
X180010641Y-83477537D01*
X180010642Y-83477538D01*
X180086241Y-83660051D01*
X180195996Y-83824312D01*
X180195997Y-83824313D01*
X180196000Y-83824317D01*
X180335682Y-83963999D01*
X180335685Y-83964001D01*
X180335688Y-83964004D01*
X180499949Y-84073759D01*
X180682461Y-84149357D01*
X180682462Y-84149358D01*
X180682463Y-84149358D01*
X180682465Y-84149359D01*
X180812218Y-84175168D01*
X180876222Y-84187900D01*
X180876223Y-84187900D01*
X181073778Y-84187900D01*
X181121889Y-84178329D01*
X181267535Y-84149359D01*
X181450051Y-84073759D01*
X181614312Y-83964004D01*
X181754004Y-83824312D01*
X181863759Y-83660051D01*
X181939359Y-83477535D01*
X181977900Y-83283777D01*
X181977900Y-83086223D01*
X181977426Y-83083842D01*
X181958861Y-82990507D01*
X181939359Y-82892465D01*
X181863759Y-82709949D01*
X181754004Y-82545688D01*
X181754001Y-82545685D01*
X181753999Y-82545682D01*
X181614317Y-82406000D01*
X181614313Y-82405997D01*
X181614312Y-82405996D01*
X181450051Y-82296241D01*
X181450049Y-82296240D01*
X181267538Y-82220642D01*
X181267537Y-82220641D01*
X181073778Y-82182100D01*
X181073777Y-82182100D01*
X180876223Y-82182100D01*
X180876222Y-82182100D01*
X180682462Y-82220641D01*
X180682461Y-82220642D01*
X180499950Y-82296240D01*
X180335682Y-82406000D01*
X180196000Y-82545682D01*
X180086240Y-82709950D01*
X180010642Y-82892461D01*
X180010641Y-82892462D01*
X179972100Y-83086222D01*
X179437900Y-83086222D01*
X179437426Y-83083842D01*
X179418861Y-82990507D01*
X179399359Y-82892465D01*
X179323759Y-82709949D01*
X179214004Y-82545688D01*
X179214001Y-82545685D01*
X179213999Y-82545682D01*
X179074317Y-82406000D01*
X179074313Y-82405997D01*
X179074312Y-82405996D01*
X178910051Y-82296241D01*
X178910049Y-82296240D01*
X178727538Y-82220642D01*
X178727537Y-82220641D01*
X178533778Y-82182100D01*
X178533777Y-82182100D01*
X178336223Y-82182100D01*
X178336222Y-82182100D01*
X178142462Y-82220641D01*
X178142461Y-82220642D01*
X177959950Y-82296240D01*
X177795682Y-82406000D01*
X177656000Y-82545682D01*
X177546240Y-82709950D01*
X177470642Y-82892461D01*
X177470641Y-82892462D01*
X177432100Y-83086222D01*
X172215059Y-83086222D01*
X172248492Y-82961449D01*
X172284500Y-82687936D01*
X172284500Y-82412064D01*
X172248492Y-82138551D01*
X172177091Y-81872079D01*
X172071519Y-81617206D01*
X172066987Y-81609357D01*
X171933581Y-81378290D01*
X171861472Y-81284317D01*
X171765642Y-81159429D01*
X171765636Y-81159423D01*
X171765629Y-81159415D01*
X171570584Y-80964370D01*
X171570576Y-80964363D01*
X171570571Y-80964358D01*
X171491570Y-80903738D01*
X171351709Y-80796418D01*
X171112795Y-80658481D01*
X171000591Y-80612005D01*
X170857924Y-80552910D01*
X170857922Y-80552909D01*
X170857921Y-80552909D01*
X170832965Y-80546222D01*
X179972100Y-80546222D01*
X179972100Y-80743777D01*
X180010641Y-80937537D01*
X180010642Y-80937538D01*
X180021751Y-80964358D01*
X180086241Y-81120051D01*
X180195996Y-81284312D01*
X180195997Y-81284313D01*
X180196000Y-81284317D01*
X180335682Y-81423999D01*
X180335685Y-81424001D01*
X180335688Y-81424004D01*
X180499949Y-81533759D01*
X180682461Y-81609357D01*
X180682462Y-81609358D01*
X180682463Y-81609358D01*
X180682465Y-81609359D01*
X180812218Y-81635168D01*
X180876222Y-81647900D01*
X180876223Y-81647900D01*
X181073778Y-81647900D01*
X181121889Y-81638329D01*
X181267535Y-81609359D01*
X181450051Y-81533759D01*
X181614312Y-81424004D01*
X181754004Y-81284312D01*
X181863759Y-81120051D01*
X181939359Y-80937535D01*
X181977900Y-80743777D01*
X181977900Y-80546223D01*
X181939359Y-80352465D01*
X181863759Y-80169949D01*
X181754004Y-80005688D01*
X181754001Y-80005685D01*
X181753999Y-80005682D01*
X181614317Y-79866000D01*
X181614313Y-79865997D01*
X181614312Y-79865996D01*
X181450051Y-79756241D01*
X181450049Y-79756240D01*
X181267538Y-79680642D01*
X181267537Y-79680641D01*
X181073778Y-79642100D01*
X181073777Y-79642100D01*
X180876223Y-79642100D01*
X180876222Y-79642100D01*
X180682462Y-79680641D01*
X180682461Y-79680642D01*
X180499950Y-79756240D01*
X180335682Y-79866000D01*
X180196000Y-80005682D01*
X180086240Y-80169950D01*
X180010642Y-80352461D01*
X180010641Y-80352462D01*
X179972100Y-80546222D01*
X170832965Y-80546222D01*
X170591453Y-80481509D01*
X170591450Y-80481508D01*
X170500278Y-80469505D01*
X170317936Y-80445500D01*
X170042064Y-80445500D01*
X169905307Y-80463504D01*
X169768549Y-80481508D01*
X169768546Y-80481509D01*
X169599610Y-80526775D01*
X169502079Y-80552909D01*
X169502077Y-80552909D01*
X169502076Y-80552910D01*
X169502075Y-80552910D01*
X169247204Y-80658481D01*
X169008290Y-80796418D01*
X168789431Y-80964356D01*
X168789415Y-80964370D01*
X168594370Y-81159415D01*
X168594356Y-81159431D01*
X168426418Y-81378290D01*
X168288481Y-81617204D01*
X168182910Y-81872075D01*
X168182910Y-81872076D01*
X168111509Y-82138546D01*
X168111508Y-82138549D01*
X168103714Y-82197752D01*
X168075500Y-82412064D01*
X161773934Y-82412064D01*
X161767308Y-82387335D01*
X161767307Y-82387333D01*
X161767307Y-82387332D01*
X161714715Y-82296241D01*
X161707051Y-82282966D01*
X161707049Y-82282964D01*
X161707047Y-82282961D01*
X161621838Y-82197752D01*
X161621832Y-82197748D01*
X161517466Y-82137492D01*
X161478662Y-82127094D01*
X161401057Y-82106300D01*
X161280543Y-82106300D01*
X161222339Y-82121896D01*
X161164133Y-82137492D01*
X161059767Y-82197748D01*
X161059761Y-82197752D01*
X160974552Y-82282961D01*
X160974548Y-82282967D01*
X160914292Y-82387333D01*
X160907665Y-82412065D01*
X160883101Y-82503742D01*
X160883100Y-82503744D01*
X160883100Y-82564500D01*
X160876417Y-82582859D01*
X160873025Y-82602100D01*
X160867828Y-82606460D01*
X160865507Y-82612838D01*
X160848584Y-82622607D01*
X160833620Y-82635165D01*
X160823851Y-82636887D01*
X160820958Y-82638558D01*
X160807900Y-82639700D01*
X160756100Y-82639700D01*
X160707762Y-82622107D01*
X160682042Y-82577558D01*
X160680900Y-82564500D01*
X160680900Y-82503744D01*
X160680900Y-82503743D01*
X160649708Y-82387335D01*
X160589451Y-82282966D01*
X160589449Y-82282964D01*
X160589447Y-82282961D01*
X160504238Y-82197752D01*
X160504232Y-82197748D01*
X160399866Y-82137492D01*
X160361062Y-82127094D01*
X160283457Y-82106300D01*
X160162943Y-82106300D01*
X160104739Y-82121896D01*
X160046533Y-82137492D01*
X159942167Y-82197748D01*
X159942161Y-82197752D01*
X159856952Y-82282961D01*
X159856948Y-82282967D01*
X159796692Y-82387333D01*
X159790065Y-82412065D01*
X159765500Y-82503743D01*
X143074500Y-82503743D01*
X143074500Y-82412064D01*
X143038492Y-82138551D01*
X142967091Y-81872079D01*
X142861519Y-81617206D01*
X142856987Y-81609357D01*
X142723581Y-81378290D01*
X142651472Y-81284317D01*
X142555642Y-81159429D01*
X142555636Y-81159423D01*
X142555629Y-81159415D01*
X142360584Y-80964370D01*
X142360576Y-80964363D01*
X142360571Y-80964358D01*
X142281570Y-80903738D01*
X142141709Y-80796418D01*
X141902795Y-80658481D01*
X141647924Y-80552910D01*
X141647922Y-80552909D01*
X141647921Y-80552909D01*
X141381453Y-80481509D01*
X141381450Y-80481508D01*
X141290278Y-80469505D01*
X141107936Y-80445500D01*
X140832064Y-80445500D01*
X140695307Y-80463504D01*
X140558549Y-80481508D01*
X140558546Y-80481509D01*
X140389610Y-80526775D01*
X140292079Y-80552909D01*
X140292077Y-80552909D01*
X140292076Y-80552910D01*
X140292075Y-80552910D01*
X140037204Y-80658481D01*
X139798290Y-80796418D01*
X139579431Y-80964356D01*
X139579415Y-80964370D01*
X139384370Y-81159415D01*
X139384356Y-81159431D01*
X139216418Y-81378290D01*
X139078481Y-81617204D01*
X138972910Y-81872075D01*
X138972910Y-81872076D01*
X138901509Y-82138546D01*
X138901508Y-82138549D01*
X138893714Y-82197752D01*
X138865500Y-82412064D01*
X133360381Y-82412064D01*
X133354317Y-82406000D01*
X133354313Y-82405997D01*
X133354312Y-82405996D01*
X133190051Y-82296241D01*
X133190049Y-82296240D01*
X133007538Y-82220642D01*
X133007537Y-82220641D01*
X132813778Y-82182100D01*
X132813777Y-82182100D01*
X132616223Y-82182100D01*
X132616222Y-82182100D01*
X132422462Y-82220641D01*
X132422461Y-82220642D01*
X132239950Y-82296240D01*
X132075682Y-82406000D01*
X131936000Y-82545682D01*
X131826240Y-82709950D01*
X131750642Y-82892461D01*
X131750641Y-82892462D01*
X131712100Y-83086222D01*
X126746500Y-83086222D01*
X126746500Y-79779942D01*
X129172100Y-79779942D01*
X129172100Y-81510055D01*
X129172101Y-81510057D01*
X129180972Y-81554659D01*
X129214764Y-81605232D01*
X129214765Y-81605232D01*
X129214766Y-81605234D01*
X129265342Y-81639028D01*
X129309943Y-81647900D01*
X131040056Y-81647899D01*
X131084658Y-81639028D01*
X131135234Y-81605234D01*
X131169028Y-81554658D01*
X131177900Y-81510057D01*
X131177899Y-80546222D01*
X131712100Y-80546222D01*
X131712100Y-80743777D01*
X131750641Y-80937537D01*
X131750642Y-80937538D01*
X131761751Y-80964358D01*
X131826241Y-81120051D01*
X131935996Y-81284312D01*
X131935997Y-81284313D01*
X131936000Y-81284317D01*
X132075682Y-81423999D01*
X132075685Y-81424001D01*
X132075688Y-81424004D01*
X132239949Y-81533759D01*
X132422461Y-81609357D01*
X132422462Y-81609358D01*
X132422463Y-81609358D01*
X132422465Y-81609359D01*
X132552218Y-81635168D01*
X132616222Y-81647900D01*
X132616223Y-81647900D01*
X132813778Y-81647900D01*
X132861889Y-81638329D01*
X133007535Y-81609359D01*
X133190051Y-81533759D01*
X133354312Y-81424004D01*
X133494004Y-81284312D01*
X133603759Y-81120051D01*
X133679359Y-80937535D01*
X133717900Y-80743777D01*
X133717900Y-80546223D01*
X133679359Y-80352465D01*
X133603759Y-80169949D01*
X133494004Y-80005688D01*
X133494001Y-80005685D01*
X133493999Y-80005682D01*
X133354317Y-79866000D01*
X133354313Y-79865997D01*
X133354312Y-79865996D01*
X133234503Y-79785943D01*
X159740100Y-79785943D01*
X159740100Y-79906457D01*
X159760894Y-79984062D01*
X159771292Y-80022866D01*
X159831548Y-80127232D01*
X159831552Y-80127238D01*
X159916761Y-80212447D01*
X159916764Y-80212449D01*
X159916766Y-80212451D01*
X160021135Y-80272708D01*
X160137543Y-80303900D01*
X160137545Y-80303900D01*
X160258055Y-80303900D01*
X160258057Y-80303900D01*
X160374465Y-80272708D01*
X160478834Y-80212451D01*
X160564051Y-80127234D01*
X160624308Y-80022865D01*
X160655500Y-79906457D01*
X160655500Y-79794900D01*
X160662182Y-79776540D01*
X160665575Y-79757300D01*
X160670771Y-79752939D01*
X160673093Y-79746562D01*
X160690015Y-79736792D01*
X160704980Y-79724235D01*
X160714748Y-79722512D01*
X160717642Y-79720842D01*
X160730700Y-79719700D01*
X160833300Y-79719700D01*
X160881638Y-79737293D01*
X160907358Y-79781842D01*
X160908500Y-79794900D01*
X160908500Y-79906457D01*
X160929294Y-79984062D01*
X160939692Y-80022866D01*
X160999948Y-80127232D01*
X160999952Y-80127238D01*
X161085161Y-80212447D01*
X161085164Y-80212449D01*
X161085166Y-80212451D01*
X161189535Y-80272708D01*
X161305943Y-80303900D01*
X161305945Y-80303900D01*
X161426455Y-80303900D01*
X161426457Y-80303900D01*
X161542865Y-80272708D01*
X161647234Y-80212451D01*
X161732451Y-80127234D01*
X161792708Y-80022865D01*
X161823900Y-79906457D01*
X161823900Y-79785943D01*
X161792708Y-79669535D01*
X161732451Y-79565166D01*
X161732449Y-79565164D01*
X161732447Y-79565161D01*
X161647238Y-79479952D01*
X161647232Y-79479948D01*
X161542866Y-79419692D01*
X161504062Y-79409294D01*
X161426457Y-79388500D01*
X161307900Y-79388500D01*
X161259562Y-79370907D01*
X161233842Y-79326358D01*
X161232700Y-79313300D01*
X161232700Y-79201744D01*
X161201507Y-79085333D01*
X161188773Y-79063278D01*
X161141251Y-78980966D01*
X161141249Y-78980964D01*
X161141247Y-78980961D01*
X161056038Y-78895752D01*
X161056032Y-78895748D01*
X160951666Y-78835492D01*
X160912862Y-78825094D01*
X160835257Y-78804300D01*
X160714743Y-78804300D01*
X160656539Y-78819896D01*
X160598333Y-78835492D01*
X160493967Y-78895748D01*
X160493961Y-78895752D01*
X160408752Y-78980961D01*
X160408748Y-78980967D01*
X160348492Y-79085333D01*
X160317300Y-79201744D01*
X160317300Y-79313300D01*
X160299707Y-79361638D01*
X160255158Y-79387358D01*
X160242100Y-79388500D01*
X160137543Y-79388500D01*
X160079339Y-79404096D01*
X160021133Y-79419692D01*
X159916767Y-79479948D01*
X159916761Y-79479952D01*
X159831552Y-79565161D01*
X159831548Y-79565167D01*
X159771292Y-79669533D01*
X159756635Y-79724235D01*
X159740100Y-79785943D01*
X133234503Y-79785943D01*
X133190051Y-79756241D01*
X133190049Y-79756240D01*
X133007538Y-79680642D01*
X133007537Y-79680641D01*
X132813778Y-79642100D01*
X132813777Y-79642100D01*
X132616223Y-79642100D01*
X132616222Y-79642100D01*
X132422462Y-79680641D01*
X132422461Y-79680642D01*
X132239950Y-79756240D01*
X132075682Y-79866000D01*
X131936000Y-80005682D01*
X131826240Y-80169950D01*
X131750642Y-80352461D01*
X131750641Y-80352462D01*
X131712100Y-80546222D01*
X131177899Y-80546222D01*
X131177899Y-79779944D01*
X131169028Y-79735342D01*
X131161606Y-79724235D01*
X131135235Y-79684767D01*
X131135231Y-79684764D01*
X131084658Y-79650972D01*
X131084656Y-79650971D01*
X131040057Y-79642100D01*
X129309944Y-79642100D01*
X129309942Y-79642101D01*
X129265340Y-79650972D01*
X129214767Y-79684764D01*
X129180972Y-79735342D01*
X129180971Y-79735343D01*
X129172100Y-79779942D01*
X126746500Y-79779942D01*
X126746500Y-78202681D01*
X126746692Y-78197316D01*
X126762590Y-77975028D01*
X126764117Y-77964408D01*
X126810918Y-77749271D01*
X126813935Y-77738990D01*
X126890883Y-77532686D01*
X126895337Y-77522933D01*
X127000860Y-77329682D01*
X127006644Y-77320682D01*
X127138606Y-77144401D01*
X127145621Y-77136307D01*
X127301307Y-76980621D01*
X127309401Y-76973606D01*
X127485682Y-76841644D01*
X127494682Y-76835860D01*
X127687933Y-76730337D01*
X127697687Y-76725883D01*
X127903990Y-76648935D01*
X127914271Y-76645918D01*
X128129413Y-76599116D01*
X128140023Y-76597590D01*
X128362316Y-76581691D01*
X128367681Y-76581500D01*
X128419853Y-76581500D01*
X182730147Y-76581500D01*
X182782319Y-76581500D01*
X182787683Y-76581691D01*
G37*
%TD.AperFunction*%
%TD*%
M02*
