%TF.GenerationSoftware,KiCad,Pcbnew,10.0.3*%
%TF.CreationDate,2026-05-19T14:30:45-04:00*%
%TF.ProjectId,EfficientInterface,45666669-6369-4656-9e74-496e74657266,v1.0*%
%TF.SameCoordinates,Original*%
%TF.FileFunction,Legend,Top*%
%TF.FilePolarity,Positive*%
%FSLAX46Y46*%
G04 Gerber Fmt 4.6, Leading zero omitted, Abs format (unit mm)*
G04 Created by KiCad (PCBNEW 10.0.3) date 2026-05-19 14:30:45*
%MOMM*%
%LPD*%
G01*
G04 APERTURE LIST*
G04 Aperture macros list*
%AMRoundRect*
0 Rectangle with rounded corners*
0 $1 Rounding radius*
0 $2 $3 $4 $5 $6 $7 $8 $9 X,Y pos of 4 corners*
0 Add a 4 corners polygon primitive as box body*
4,1,4,$2,$3,$4,$5,$6,$7,$8,$9,$2,$3,0*
0 Add four circle primitives for the rounded corners*
1,1,$1+$1,$2,$3*
1,1,$1+$1,$4,$5*
1,1,$1+$1,$6,$7*
1,1,$1+$1,$8,$9*
0 Add four rect primitives between the rounded corners*
20,1,$1+$1,$2,$3,$4,$5,0*
20,1,$1+$1,$4,$5,$6,$7,0*
20,1,$1+$1,$6,$7,$8,$9,0*
20,1,$1+$1,$8,$9,$2,$3,0*%
%AMFreePoly0*
4,1,108,-1.922481,2.957613,-1.594493,2.882752,-1.276950,2.771639,-0.973843,2.625670,-0.688986,2.446683,-0.425960,2.236926,-0.188074,1.999040,0.021683,1.736014,0.200670,1.451157,0.346639,1.148050,0.457752,0.830507,0.532613,0.502519,0.570280,0.168211,0.570280,-0.168211,0.532613,-0.502519,0.457752,-0.830507,0.346639,-1.148050,0.200670,-1.451157,0.021683,-1.736014,-0.188074,-1.999040,
-0.425960,-2.236926,-0.688986,-2.446683,-0.973843,-2.625670,-1.276950,-2.771639,-1.594493,-2.882752,-1.922481,-2.957613,-2.256789,-2.995280,-2.593211,-2.995280,-2.927519,-2.957613,-3.255507,-2.882752,-3.573050,-2.771639,-3.876157,-2.625670,-4.161014,-2.446683,-4.424040,-2.236926,-4.661926,-1.999040,-4.871683,-1.736014,-5.050670,-1.451157,-5.196639,-1.148050,-5.307752,-0.830507,-5.382613,-0.502519,
-5.420280,-0.168211,-5.420280,0.121255,-4.275000,0.121255,-4.275000,-0.121255,-4.243346,-0.361691,-4.180579,-0.595939,-4.087774,-0.819990,-3.966519,-1.030010,-3.818888,-1.222407,-3.647407,-1.393888,-3.455010,-1.541519,-3.244990,-1.662774,-3.020939,-1.755579,-2.786691,-1.818346,-2.546255,-1.850000,-2.303745,-1.850000,-2.063309,-1.818346,-1.829061,-1.755579,-1.605010,-1.662774,-1.394990,-1.541519,
-1.202593,-1.393888,-1.031112,-1.222407,-0.883481,-1.030010,-0.762226,-0.819990,-0.669421,-0.595939,-0.606654,-0.361691,-0.575000,-0.121255,-0.575000,0.121255,-0.606654,0.361691,-0.669421,0.595939,-0.762226,0.819990,-0.883481,1.030010,-1.031112,1.222407,-1.202593,1.393888,-1.394990,1.541519,-1.605010,1.662774,-1.829061,1.755579,-2.063309,1.818346,-2.303745,1.850000,-2.546255,1.850000,
-2.786691,1.818346,-3.020939,1.755579,-3.244990,1.662774,-3.455010,1.541519,-3.647407,1.393888,-3.818888,1.222407,-3.966519,1.030010,-4.087774,0.819990,-4.180579,0.595939,-4.243346,0.361691,-4.275000,0.121255,-5.420280,0.121255,-5.420280,0.168211,-5.382613,0.502519,-5.307752,0.830507,-5.196639,1.148050,-5.050670,1.451157,-4.871683,1.736014,-4.661926,1.999040,-4.424040,2.236926,
-4.161014,2.446683,-3.876157,2.625670,-3.573050,2.771639,-3.255507,2.882752,-2.927519,2.957613,-2.593211,2.995280,-2.256789,2.995280,-1.922481,2.957613,-1.922481,2.957613,$1*%
G04 Aperture macros list end*
%ADD10C,0.127000*%
%ADD11C,0.100000*%
%ADD12C,0.120000*%
%ADD13C,0.000000*%
%ADD14RoundRect,0.200000X-0.200000X-0.275000X0.200000X-0.275000X0.200000X0.275000X-0.200000X0.275000X0*%
%ADD15C,3.700000*%
%ADD16FreePoly0,0.000000*%
%ADD17RoundRect,0.200000X0.200000X0.275000X-0.200000X0.275000X-0.200000X-0.275000X0.200000X-0.275000X0*%
%ADD18RoundRect,0.050000X-0.050000X-0.300000X0.050000X-0.300000X0.050000X0.300000X-0.050000X0.300000X0*%
%ADD19RoundRect,0.050000X0.050000X0.300000X-0.050000X0.300000X-0.050000X-0.300000X0.050000X-0.300000X0*%
%ADD20R,1.700000X1.700000*%
%ADD21C,1.700000*%
G04 APERTURE END LIST*
D10*
X127317500Y-97155000D02*
X135572500Y-97155000D01*
X136525000Y-80103000D02*
G75*
G02*
X138525000Y-78103000I2000000J0D01*
G01*
X136525000Y-114203000D02*
X136525000Y-80103000D01*
X138525000Y-78103000D02*
X172625000Y-78103000D01*
X138525000Y-116203000D02*
G75*
G02*
X136525000Y-114203000I0J2000000D01*
G01*
X172625000Y-78103000D02*
G75*
G02*
X174625000Y-80103000I0J-2000000D01*
G01*
X172625000Y-116203000D02*
X138525000Y-116203000D01*
X174625000Y-114203000D02*
G75*
G02*
X172625000Y-116203000I-2000000J0D01*
G01*
X174625000Y-114203000D02*
X174625000Y-80103000D01*
X175577500Y-97155000D02*
X183832500Y-97155000D01*
X128430159Y-81325357D02*
X128430159Y-81688214D01*
X128430159Y-81506786D02*
X127795159Y-81506786D01*
X127795159Y-81506786D02*
X127885873Y-81567262D01*
X127885873Y-81567262D02*
X127946349Y-81627738D01*
X127946349Y-81627738D02*
X127976587Y-81688214D01*
X127795159Y-81143928D02*
X128430159Y-80932262D01*
X128430159Y-80932262D02*
X127795159Y-80720595D01*
X128067301Y-80418214D02*
X128037063Y-80478690D01*
X128037063Y-80478690D02*
X128006825Y-80508928D01*
X128006825Y-80508928D02*
X127946349Y-80539166D01*
X127946349Y-80539166D02*
X127916111Y-80539166D01*
X127916111Y-80539166D02*
X127855635Y-80508928D01*
X127855635Y-80508928D02*
X127825397Y-80478690D01*
X127825397Y-80478690D02*
X127795159Y-80418214D01*
X127795159Y-80418214D02*
X127795159Y-80297261D01*
X127795159Y-80297261D02*
X127825397Y-80236785D01*
X127825397Y-80236785D02*
X127855635Y-80206547D01*
X127855635Y-80206547D02*
X127916111Y-80176309D01*
X127916111Y-80176309D02*
X127946349Y-80176309D01*
X127946349Y-80176309D02*
X128006825Y-80206547D01*
X128006825Y-80206547D02*
X128037063Y-80236785D01*
X128037063Y-80236785D02*
X128067301Y-80297261D01*
X128067301Y-80297261D02*
X128067301Y-80418214D01*
X128067301Y-80418214D02*
X128097540Y-80478690D01*
X128097540Y-80478690D02*
X128127778Y-80508928D01*
X128127778Y-80508928D02*
X128188254Y-80539166D01*
X128188254Y-80539166D02*
X128309206Y-80539166D01*
X128309206Y-80539166D02*
X128369682Y-80508928D01*
X128369682Y-80508928D02*
X128399921Y-80478690D01*
X128399921Y-80478690D02*
X128430159Y-80418214D01*
X128430159Y-80418214D02*
X128430159Y-80297261D01*
X128430159Y-80297261D02*
X128399921Y-80236785D01*
X128399921Y-80236785D02*
X128369682Y-80206547D01*
X128369682Y-80206547D02*
X128309206Y-80176309D01*
X128309206Y-80176309D02*
X128188254Y-80176309D01*
X128188254Y-80176309D02*
X128127778Y-80206547D01*
X128127778Y-80206547D02*
X128097540Y-80236785D01*
X128097540Y-80236785D02*
X128067301Y-80297261D01*
X128097540Y-79904166D02*
X128097540Y-79692499D01*
X128430159Y-79601785D02*
X128430159Y-79904166D01*
X128430159Y-79904166D02*
X127795159Y-79904166D01*
X127795159Y-79904166D02*
X127795159Y-79601785D01*
X127825397Y-83668809D02*
X127795159Y-83729285D01*
X127795159Y-83729285D02*
X127795159Y-83819999D01*
X127795159Y-83819999D02*
X127825397Y-83910714D01*
X127825397Y-83910714D02*
X127885873Y-83971190D01*
X127885873Y-83971190D02*
X127946349Y-84001428D01*
X127946349Y-84001428D02*
X128067301Y-84031666D01*
X128067301Y-84031666D02*
X128158016Y-84031666D01*
X128158016Y-84031666D02*
X128278968Y-84001428D01*
X128278968Y-84001428D02*
X128339444Y-83971190D01*
X128339444Y-83971190D02*
X128399921Y-83910714D01*
X128399921Y-83910714D02*
X128430159Y-83819999D01*
X128430159Y-83819999D02*
X128430159Y-83759523D01*
X128430159Y-83759523D02*
X128399921Y-83668809D01*
X128399921Y-83668809D02*
X128369682Y-83638571D01*
X128369682Y-83638571D02*
X128158016Y-83638571D01*
X128158016Y-83638571D02*
X128158016Y-83759523D01*
X128430159Y-83366428D02*
X127795159Y-83366428D01*
X127795159Y-83366428D02*
X128430159Y-83003571D01*
X128430159Y-83003571D02*
X127795159Y-83003571D01*
X128430159Y-82701190D02*
X127795159Y-82701190D01*
X127795159Y-82701190D02*
X127795159Y-82550000D01*
X127795159Y-82550000D02*
X127825397Y-82459285D01*
X127825397Y-82459285D02*
X127885873Y-82398809D01*
X127885873Y-82398809D02*
X127946349Y-82368571D01*
X127946349Y-82368571D02*
X128067301Y-82338333D01*
X128067301Y-82338333D02*
X128158016Y-82338333D01*
X128158016Y-82338333D02*
X128278968Y-82368571D01*
X128278968Y-82368571D02*
X128339444Y-82398809D01*
X128339444Y-82398809D02*
X128399921Y-82459285D01*
X128399921Y-82459285D02*
X128430159Y-82550000D01*
X128430159Y-82550000D02*
X128430159Y-82701190D01*
X127825397Y-86208809D02*
X127795159Y-86269285D01*
X127795159Y-86269285D02*
X127795159Y-86359999D01*
X127795159Y-86359999D02*
X127825397Y-86450714D01*
X127825397Y-86450714D02*
X127885873Y-86511190D01*
X127885873Y-86511190D02*
X127946349Y-86541428D01*
X127946349Y-86541428D02*
X128067301Y-86571666D01*
X128067301Y-86571666D02*
X128158016Y-86571666D01*
X128158016Y-86571666D02*
X128278968Y-86541428D01*
X128278968Y-86541428D02*
X128339444Y-86511190D01*
X128339444Y-86511190D02*
X128399921Y-86450714D01*
X128399921Y-86450714D02*
X128430159Y-86359999D01*
X128430159Y-86359999D02*
X128430159Y-86299523D01*
X128430159Y-86299523D02*
X128399921Y-86208809D01*
X128399921Y-86208809D02*
X128369682Y-86178571D01*
X128369682Y-86178571D02*
X128158016Y-86178571D01*
X128158016Y-86178571D02*
X128158016Y-86299523D01*
X128430159Y-85906428D02*
X127795159Y-85906428D01*
X127795159Y-85906428D02*
X128430159Y-85543571D01*
X128430159Y-85543571D02*
X127795159Y-85543571D01*
X128430159Y-85241190D02*
X127795159Y-85241190D01*
X127795159Y-85241190D02*
X127795159Y-85090000D01*
X127795159Y-85090000D02*
X127825397Y-84999285D01*
X127825397Y-84999285D02*
X127885873Y-84938809D01*
X127885873Y-84938809D02*
X127946349Y-84908571D01*
X127946349Y-84908571D02*
X128067301Y-84878333D01*
X128067301Y-84878333D02*
X128158016Y-84878333D01*
X128158016Y-84878333D02*
X128278968Y-84908571D01*
X128278968Y-84908571D02*
X128339444Y-84938809D01*
X128339444Y-84938809D02*
X128399921Y-84999285D01*
X128399921Y-84999285D02*
X128430159Y-85090000D01*
X128430159Y-85090000D02*
X128430159Y-85241190D01*
X127795159Y-88990714D02*
X128248730Y-88990714D01*
X128248730Y-88990714D02*
X128339444Y-89020953D01*
X128339444Y-89020953D02*
X128399921Y-89081429D01*
X128399921Y-89081429D02*
X128430159Y-89172143D01*
X128430159Y-89172143D02*
X128430159Y-89232619D01*
X128369682Y-88325476D02*
X128399921Y-88355714D01*
X128399921Y-88355714D02*
X128430159Y-88446428D01*
X128430159Y-88446428D02*
X128430159Y-88506904D01*
X128430159Y-88506904D02*
X128399921Y-88597619D01*
X128399921Y-88597619D02*
X128339444Y-88658095D01*
X128339444Y-88658095D02*
X128278968Y-88688333D01*
X128278968Y-88688333D02*
X128158016Y-88718571D01*
X128158016Y-88718571D02*
X128067301Y-88718571D01*
X128067301Y-88718571D02*
X127946349Y-88688333D01*
X127946349Y-88688333D02*
X127885873Y-88658095D01*
X127885873Y-88658095D02*
X127825397Y-88597619D01*
X127825397Y-88597619D02*
X127795159Y-88506904D01*
X127795159Y-88506904D02*
X127795159Y-88446428D01*
X127795159Y-88446428D02*
X127825397Y-88355714D01*
X127825397Y-88355714D02*
X127855635Y-88325476D01*
X127795159Y-88144047D02*
X127795159Y-87781190D01*
X128430159Y-87962619D02*
X127795159Y-87962619D01*
X128430159Y-87267142D02*
X128430159Y-87569523D01*
X128430159Y-87569523D02*
X127795159Y-87569523D01*
X127795159Y-91576071D02*
X128248730Y-91576071D01*
X128248730Y-91576071D02*
X128339444Y-91606310D01*
X128339444Y-91606310D02*
X128399921Y-91666786D01*
X128399921Y-91666786D02*
X128430159Y-91757500D01*
X128430159Y-91757500D02*
X128430159Y-91817976D01*
X128430159Y-90910833D02*
X128127778Y-91122500D01*
X128430159Y-91273690D02*
X127795159Y-91273690D01*
X127795159Y-91273690D02*
X127795159Y-91031785D01*
X127795159Y-91031785D02*
X127825397Y-90971309D01*
X127825397Y-90971309D02*
X127855635Y-90941071D01*
X127855635Y-90941071D02*
X127916111Y-90910833D01*
X127916111Y-90910833D02*
X128006825Y-90910833D01*
X128006825Y-90910833D02*
X128067301Y-90941071D01*
X128067301Y-90941071D02*
X128097540Y-90971309D01*
X128097540Y-90971309D02*
X128127778Y-91031785D01*
X128127778Y-91031785D02*
X128127778Y-91273690D01*
X128399921Y-90668928D02*
X128430159Y-90578214D01*
X128430159Y-90578214D02*
X128430159Y-90427023D01*
X128430159Y-90427023D02*
X128399921Y-90366547D01*
X128399921Y-90366547D02*
X128369682Y-90336309D01*
X128369682Y-90336309D02*
X128309206Y-90306071D01*
X128309206Y-90306071D02*
X128248730Y-90306071D01*
X128248730Y-90306071D02*
X128188254Y-90336309D01*
X128188254Y-90336309D02*
X128158016Y-90366547D01*
X128158016Y-90366547D02*
X128127778Y-90427023D01*
X128127778Y-90427023D02*
X128097540Y-90547976D01*
X128097540Y-90547976D02*
X128067301Y-90608452D01*
X128067301Y-90608452D02*
X128037063Y-90638690D01*
X128037063Y-90638690D02*
X127976587Y-90668928D01*
X127976587Y-90668928D02*
X127916111Y-90668928D01*
X127916111Y-90668928D02*
X127855635Y-90638690D01*
X127855635Y-90638690D02*
X127825397Y-90608452D01*
X127825397Y-90608452D02*
X127795159Y-90547976D01*
X127795159Y-90547976D02*
X127795159Y-90396785D01*
X127795159Y-90396785D02*
X127825397Y-90306071D01*
X127795159Y-90124642D02*
X127795159Y-89761785D01*
X128430159Y-89943214D02*
X127795159Y-89943214D01*
X128430159Y-104608690D02*
X127795159Y-104608690D01*
X127795159Y-104608690D02*
X128248730Y-104397023D01*
X128248730Y-104397023D02*
X127795159Y-104185357D01*
X127795159Y-104185357D02*
X128430159Y-104185357D01*
X127795159Y-103973690D02*
X127795159Y-103610833D01*
X128430159Y-103792262D02*
X127795159Y-103792262D01*
X128430159Y-103399166D02*
X127795159Y-103399166D01*
X127795159Y-103399166D02*
X127795159Y-103247976D01*
X127795159Y-103247976D02*
X127825397Y-103157261D01*
X127825397Y-103157261D02*
X127885873Y-103096785D01*
X127885873Y-103096785D02*
X127946349Y-103066547D01*
X127946349Y-103066547D02*
X128067301Y-103036309D01*
X128067301Y-103036309D02*
X128158016Y-103036309D01*
X128158016Y-103036309D02*
X128278968Y-103066547D01*
X128278968Y-103066547D02*
X128339444Y-103096785D01*
X128339444Y-103096785D02*
X128399921Y-103157261D01*
X128399921Y-103157261D02*
X128430159Y-103247976D01*
X128430159Y-103247976D02*
X128430159Y-103399166D01*
X127795159Y-102643214D02*
X127795159Y-102522261D01*
X127795159Y-102522261D02*
X127825397Y-102461785D01*
X127825397Y-102461785D02*
X127885873Y-102401309D01*
X127885873Y-102401309D02*
X128006825Y-102371071D01*
X128006825Y-102371071D02*
X128218492Y-102371071D01*
X128218492Y-102371071D02*
X128339444Y-102401309D01*
X128339444Y-102401309D02*
X128399921Y-102461785D01*
X128399921Y-102461785D02*
X128430159Y-102522261D01*
X128430159Y-102522261D02*
X128430159Y-102643214D01*
X128430159Y-102643214D02*
X128399921Y-102703690D01*
X128399921Y-102703690D02*
X128339444Y-102764166D01*
X128339444Y-102764166D02*
X128218492Y-102794404D01*
X128218492Y-102794404D02*
X128006825Y-102794404D01*
X128006825Y-102794404D02*
X127885873Y-102764166D01*
X127885873Y-102764166D02*
X127825397Y-102703690D01*
X127825397Y-102703690D02*
X127795159Y-102643214D01*
X128430159Y-106967261D02*
X127795159Y-106967261D01*
X127795159Y-106967261D02*
X128248730Y-106755594D01*
X128248730Y-106755594D02*
X127795159Y-106543928D01*
X127795159Y-106543928D02*
X128430159Y-106543928D01*
X127795159Y-106332261D02*
X127795159Y-105969404D01*
X128430159Y-106150833D02*
X127795159Y-106150833D01*
X128430159Y-105757737D02*
X127795159Y-105757737D01*
X127795159Y-105757737D02*
X127795159Y-105606547D01*
X127795159Y-105606547D02*
X127825397Y-105515832D01*
X127825397Y-105515832D02*
X127885873Y-105455356D01*
X127885873Y-105455356D02*
X127946349Y-105425118D01*
X127946349Y-105425118D02*
X128067301Y-105394880D01*
X128067301Y-105394880D02*
X128158016Y-105394880D01*
X128158016Y-105394880D02*
X128278968Y-105425118D01*
X128278968Y-105425118D02*
X128339444Y-105455356D01*
X128339444Y-105455356D02*
X128399921Y-105515832D01*
X128399921Y-105515832D02*
X128430159Y-105606547D01*
X128430159Y-105606547D02*
X128430159Y-105757737D01*
X128430159Y-105122737D02*
X127795159Y-105122737D01*
X128430159Y-109703809D02*
X127795159Y-109703809D01*
X127795159Y-109703809D02*
X128248730Y-109492142D01*
X128248730Y-109492142D02*
X127795159Y-109280476D01*
X127795159Y-109280476D02*
X128430159Y-109280476D01*
X127795159Y-109068809D02*
X127795159Y-108705952D01*
X128430159Y-108887381D02*
X127795159Y-108887381D01*
X128430159Y-108494285D02*
X127795159Y-108494285D01*
X127795159Y-108494285D02*
X128248730Y-108282618D01*
X128248730Y-108282618D02*
X127795159Y-108070952D01*
X127795159Y-108070952D02*
X128430159Y-108070952D01*
X128399921Y-107798809D02*
X128430159Y-107708095D01*
X128430159Y-107708095D02*
X128430159Y-107556904D01*
X128430159Y-107556904D02*
X128399921Y-107496428D01*
X128399921Y-107496428D02*
X128369682Y-107466190D01*
X128369682Y-107466190D02*
X128309206Y-107435952D01*
X128309206Y-107435952D02*
X128248730Y-107435952D01*
X128248730Y-107435952D02*
X128188254Y-107466190D01*
X128188254Y-107466190D02*
X128158016Y-107496428D01*
X128158016Y-107496428D02*
X128127778Y-107556904D01*
X128127778Y-107556904D02*
X128097540Y-107677857D01*
X128097540Y-107677857D02*
X128067301Y-107738333D01*
X128067301Y-107738333D02*
X128037063Y-107768571D01*
X128037063Y-107768571D02*
X127976587Y-107798809D01*
X127976587Y-107798809D02*
X127916111Y-107798809D01*
X127916111Y-107798809D02*
X127855635Y-107768571D01*
X127855635Y-107768571D02*
X127825397Y-107738333D01*
X127825397Y-107738333D02*
X127795159Y-107677857D01*
X127795159Y-107677857D02*
X127795159Y-107526666D01*
X127795159Y-107526666D02*
X127825397Y-107435952D01*
X128430159Y-112213571D02*
X127795159Y-112213571D01*
X127795159Y-112213571D02*
X128248730Y-112001904D01*
X128248730Y-112001904D02*
X127795159Y-111790238D01*
X127795159Y-111790238D02*
X128430159Y-111790238D01*
X127795159Y-111578571D02*
X127795159Y-111215714D01*
X128430159Y-111397143D02*
X127795159Y-111397143D01*
X128369682Y-110641190D02*
X128399921Y-110671428D01*
X128399921Y-110671428D02*
X128430159Y-110762142D01*
X128430159Y-110762142D02*
X128430159Y-110822618D01*
X128430159Y-110822618D02*
X128399921Y-110913333D01*
X128399921Y-110913333D02*
X128339444Y-110973809D01*
X128339444Y-110973809D02*
X128278968Y-111004047D01*
X128278968Y-111004047D02*
X128158016Y-111034285D01*
X128158016Y-111034285D02*
X128067301Y-111034285D01*
X128067301Y-111034285D02*
X127946349Y-111004047D01*
X127946349Y-111004047D02*
X127885873Y-110973809D01*
X127885873Y-110973809D02*
X127825397Y-110913333D01*
X127825397Y-110913333D02*
X127795159Y-110822618D01*
X127795159Y-110822618D02*
X127795159Y-110762142D01*
X127795159Y-110762142D02*
X127825397Y-110671428D01*
X127825397Y-110671428D02*
X127855635Y-110641190D01*
X128430159Y-110369047D02*
X127795159Y-110369047D01*
X128430159Y-110006190D02*
X128067301Y-110278333D01*
X127795159Y-110006190D02*
X128158016Y-110369047D01*
X127825397Y-114148809D02*
X127795159Y-114209285D01*
X127795159Y-114209285D02*
X127795159Y-114299999D01*
X127795159Y-114299999D02*
X127825397Y-114390714D01*
X127825397Y-114390714D02*
X127885873Y-114451190D01*
X127885873Y-114451190D02*
X127946349Y-114481428D01*
X127946349Y-114481428D02*
X128067301Y-114511666D01*
X128067301Y-114511666D02*
X128158016Y-114511666D01*
X128158016Y-114511666D02*
X128278968Y-114481428D01*
X128278968Y-114481428D02*
X128339444Y-114451190D01*
X128339444Y-114451190D02*
X128399921Y-114390714D01*
X128399921Y-114390714D02*
X128430159Y-114299999D01*
X128430159Y-114299999D02*
X128430159Y-114239523D01*
X128430159Y-114239523D02*
X128399921Y-114148809D01*
X128399921Y-114148809D02*
X128369682Y-114118571D01*
X128369682Y-114118571D02*
X128158016Y-114118571D01*
X128158016Y-114118571D02*
X128158016Y-114239523D01*
X128430159Y-113846428D02*
X127795159Y-113846428D01*
X127795159Y-113846428D02*
X128430159Y-113483571D01*
X128430159Y-113483571D02*
X127795159Y-113483571D01*
X128430159Y-113181190D02*
X127795159Y-113181190D01*
X127795159Y-113181190D02*
X127795159Y-113030000D01*
X127795159Y-113030000D02*
X127825397Y-112939285D01*
X127825397Y-112939285D02*
X127885873Y-112878809D01*
X127885873Y-112878809D02*
X127946349Y-112848571D01*
X127946349Y-112848571D02*
X128067301Y-112818333D01*
X128067301Y-112818333D02*
X128158016Y-112818333D01*
X128158016Y-112818333D02*
X128278968Y-112848571D01*
X128278968Y-112848571D02*
X128339444Y-112878809D01*
X128339444Y-112878809D02*
X128399921Y-112939285D01*
X128399921Y-112939285D02*
X128430159Y-113030000D01*
X128430159Y-113030000D02*
X128430159Y-113181190D01*
X134399159Y-81461428D02*
X134852730Y-81461428D01*
X134852730Y-81461428D02*
X134943444Y-81491667D01*
X134943444Y-81491667D02*
X135003921Y-81552143D01*
X135003921Y-81552143D02*
X135034159Y-81642857D01*
X135034159Y-81642857D02*
X135034159Y-81703333D01*
X134399159Y-81249761D02*
X134399159Y-80886904D01*
X135034159Y-81068333D02*
X134399159Y-81068333D01*
X135034159Y-80675237D02*
X134399159Y-80675237D01*
X134399159Y-80675237D02*
X134852730Y-80463570D01*
X134852730Y-80463570D02*
X134399159Y-80251904D01*
X134399159Y-80251904D02*
X135034159Y-80251904D01*
X135003921Y-79979761D02*
X135034159Y-79889047D01*
X135034159Y-79889047D02*
X135034159Y-79737856D01*
X135034159Y-79737856D02*
X135003921Y-79677380D01*
X135003921Y-79677380D02*
X134973682Y-79647142D01*
X134973682Y-79647142D02*
X134913206Y-79616904D01*
X134913206Y-79616904D02*
X134852730Y-79616904D01*
X134852730Y-79616904D02*
X134792254Y-79647142D01*
X134792254Y-79647142D02*
X134762016Y-79677380D01*
X134762016Y-79677380D02*
X134731778Y-79737856D01*
X134731778Y-79737856D02*
X134701540Y-79858809D01*
X134701540Y-79858809D02*
X134671301Y-79919285D01*
X134671301Y-79919285D02*
X134641063Y-79949523D01*
X134641063Y-79949523D02*
X134580587Y-79979761D01*
X134580587Y-79979761D02*
X134520111Y-79979761D01*
X134520111Y-79979761D02*
X134459635Y-79949523D01*
X134459635Y-79949523D02*
X134429397Y-79919285D01*
X134429397Y-79919285D02*
X134399159Y-79858809D01*
X134399159Y-79858809D02*
X134399159Y-79707618D01*
X134399159Y-79707618D02*
X134429397Y-79616904D01*
X134399159Y-83971190D02*
X134852730Y-83971190D01*
X134852730Y-83971190D02*
X134943444Y-84001429D01*
X134943444Y-84001429D02*
X135003921Y-84061905D01*
X135003921Y-84061905D02*
X135034159Y-84152619D01*
X135034159Y-84152619D02*
X135034159Y-84213095D01*
X134399159Y-83759523D02*
X134399159Y-83396666D01*
X135034159Y-83578095D02*
X134399159Y-83578095D01*
X134973682Y-82822142D02*
X135003921Y-82852380D01*
X135003921Y-82852380D02*
X135034159Y-82943094D01*
X135034159Y-82943094D02*
X135034159Y-83003570D01*
X135034159Y-83003570D02*
X135003921Y-83094285D01*
X135003921Y-83094285D02*
X134943444Y-83154761D01*
X134943444Y-83154761D02*
X134882968Y-83184999D01*
X134882968Y-83184999D02*
X134762016Y-83215237D01*
X134762016Y-83215237D02*
X134671301Y-83215237D01*
X134671301Y-83215237D02*
X134550349Y-83184999D01*
X134550349Y-83184999D02*
X134489873Y-83154761D01*
X134489873Y-83154761D02*
X134429397Y-83094285D01*
X134429397Y-83094285D02*
X134399159Y-83003570D01*
X134399159Y-83003570D02*
X134399159Y-82943094D01*
X134399159Y-82943094D02*
X134429397Y-82852380D01*
X134429397Y-82852380D02*
X134459635Y-82822142D01*
X135034159Y-82549999D02*
X134399159Y-82549999D01*
X135034159Y-82187142D02*
X134671301Y-82459285D01*
X134399159Y-82187142D02*
X134762016Y-82549999D01*
X134399159Y-86526309D02*
X134852730Y-86526309D01*
X134852730Y-86526309D02*
X134943444Y-86556548D01*
X134943444Y-86556548D02*
X135003921Y-86617024D01*
X135003921Y-86617024D02*
X135034159Y-86707738D01*
X135034159Y-86707738D02*
X135034159Y-86768214D01*
X134399159Y-86314642D02*
X134399159Y-85951785D01*
X135034159Y-86133214D02*
X134399159Y-86133214D01*
X135034159Y-85740118D02*
X134399159Y-85740118D01*
X134399159Y-85740118D02*
X134399159Y-85588928D01*
X134399159Y-85588928D02*
X134429397Y-85498213D01*
X134429397Y-85498213D02*
X134489873Y-85437737D01*
X134489873Y-85437737D02*
X134550349Y-85407499D01*
X134550349Y-85407499D02*
X134671301Y-85377261D01*
X134671301Y-85377261D02*
X134762016Y-85377261D01*
X134762016Y-85377261D02*
X134882968Y-85407499D01*
X134882968Y-85407499D02*
X134943444Y-85437737D01*
X134943444Y-85437737D02*
X135003921Y-85498213D01*
X135003921Y-85498213D02*
X135034159Y-85588928D01*
X135034159Y-85588928D02*
X135034159Y-85740118D01*
X134399159Y-84984166D02*
X134399159Y-84863213D01*
X134399159Y-84863213D02*
X134429397Y-84802737D01*
X134429397Y-84802737D02*
X134489873Y-84742261D01*
X134489873Y-84742261D02*
X134610825Y-84712023D01*
X134610825Y-84712023D02*
X134822492Y-84712023D01*
X134822492Y-84712023D02*
X134943444Y-84742261D01*
X134943444Y-84742261D02*
X135003921Y-84802737D01*
X135003921Y-84802737D02*
X135034159Y-84863213D01*
X135034159Y-84863213D02*
X135034159Y-84984166D01*
X135034159Y-84984166D02*
X135003921Y-85044642D01*
X135003921Y-85044642D02*
X134943444Y-85105118D01*
X134943444Y-85105118D02*
X134822492Y-85135356D01*
X134822492Y-85135356D02*
X134610825Y-85135356D01*
X134610825Y-85135356D02*
X134489873Y-85105118D01*
X134489873Y-85105118D02*
X134429397Y-85044642D01*
X134429397Y-85044642D02*
X134399159Y-84984166D01*
X134399159Y-88884880D02*
X134852730Y-88884880D01*
X134852730Y-88884880D02*
X134943444Y-88915119D01*
X134943444Y-88915119D02*
X135003921Y-88975595D01*
X135003921Y-88975595D02*
X135034159Y-89066309D01*
X135034159Y-89066309D02*
X135034159Y-89126785D01*
X134399159Y-88673213D02*
X134399159Y-88310356D01*
X135034159Y-88491785D02*
X134399159Y-88491785D01*
X135034159Y-88098689D02*
X134399159Y-88098689D01*
X134399159Y-88098689D02*
X134399159Y-87947499D01*
X134399159Y-87947499D02*
X134429397Y-87856784D01*
X134429397Y-87856784D02*
X134489873Y-87796308D01*
X134489873Y-87796308D02*
X134550349Y-87766070D01*
X134550349Y-87766070D02*
X134671301Y-87735832D01*
X134671301Y-87735832D02*
X134762016Y-87735832D01*
X134762016Y-87735832D02*
X134882968Y-87766070D01*
X134882968Y-87766070D02*
X134943444Y-87796308D01*
X134943444Y-87796308D02*
X135003921Y-87856784D01*
X135003921Y-87856784D02*
X135034159Y-87947499D01*
X135034159Y-87947499D02*
X135034159Y-88098689D01*
X135034159Y-87463689D02*
X134399159Y-87463689D01*
X134701540Y-91802857D02*
X134701540Y-91591190D01*
X135034159Y-91500476D02*
X135034159Y-91802857D01*
X135034159Y-91802857D02*
X134399159Y-91802857D01*
X134399159Y-91802857D02*
X134399159Y-91500476D01*
X135034159Y-90865476D02*
X134731778Y-91077143D01*
X135034159Y-91228333D02*
X134399159Y-91228333D01*
X134399159Y-91228333D02*
X134399159Y-90986428D01*
X134399159Y-90986428D02*
X134429397Y-90925952D01*
X134429397Y-90925952D02*
X134459635Y-90895714D01*
X134459635Y-90895714D02*
X134520111Y-90865476D01*
X134520111Y-90865476D02*
X134610825Y-90865476D01*
X134610825Y-90865476D02*
X134671301Y-90895714D01*
X134671301Y-90895714D02*
X134701540Y-90925952D01*
X134701540Y-90925952D02*
X134731778Y-90986428D01*
X134731778Y-90986428D02*
X134731778Y-91228333D01*
X135003921Y-90623571D02*
X135034159Y-90532857D01*
X135034159Y-90532857D02*
X135034159Y-90381666D01*
X135034159Y-90381666D02*
X135003921Y-90321190D01*
X135003921Y-90321190D02*
X134973682Y-90290952D01*
X134973682Y-90290952D02*
X134913206Y-90260714D01*
X134913206Y-90260714D02*
X134852730Y-90260714D01*
X134852730Y-90260714D02*
X134792254Y-90290952D01*
X134792254Y-90290952D02*
X134762016Y-90321190D01*
X134762016Y-90321190D02*
X134731778Y-90381666D01*
X134731778Y-90381666D02*
X134701540Y-90502619D01*
X134701540Y-90502619D02*
X134671301Y-90563095D01*
X134671301Y-90563095D02*
X134641063Y-90593333D01*
X134641063Y-90593333D02*
X134580587Y-90623571D01*
X134580587Y-90623571D02*
X134520111Y-90623571D01*
X134520111Y-90623571D02*
X134459635Y-90593333D01*
X134459635Y-90593333D02*
X134429397Y-90563095D01*
X134429397Y-90563095D02*
X134399159Y-90502619D01*
X134399159Y-90502619D02*
X134399159Y-90351428D01*
X134399159Y-90351428D02*
X134429397Y-90260714D01*
X134399159Y-90079285D02*
X134399159Y-89716428D01*
X135034159Y-89897857D02*
X134399159Y-89897857D01*
X135034159Y-103671309D02*
X134610825Y-103338690D01*
X134610825Y-103671309D02*
X135034159Y-103338690D01*
X135034159Y-106800952D02*
X135034159Y-107163809D01*
X135034159Y-106982381D02*
X134399159Y-106982381D01*
X134399159Y-106982381D02*
X134489873Y-107042857D01*
X134489873Y-107042857D02*
X134550349Y-107103333D01*
X134550349Y-107103333D02*
X134580587Y-107163809D01*
X134399159Y-106619523D02*
X135034159Y-106407857D01*
X135034159Y-106407857D02*
X134399159Y-106196190D01*
X134671301Y-105893809D02*
X134641063Y-105954285D01*
X134641063Y-105954285D02*
X134610825Y-105984523D01*
X134610825Y-105984523D02*
X134550349Y-106014761D01*
X134550349Y-106014761D02*
X134520111Y-106014761D01*
X134520111Y-106014761D02*
X134459635Y-105984523D01*
X134459635Y-105984523D02*
X134429397Y-105954285D01*
X134429397Y-105954285D02*
X134399159Y-105893809D01*
X134399159Y-105893809D02*
X134399159Y-105772856D01*
X134399159Y-105772856D02*
X134429397Y-105712380D01*
X134429397Y-105712380D02*
X134459635Y-105682142D01*
X134459635Y-105682142D02*
X134520111Y-105651904D01*
X134520111Y-105651904D02*
X134550349Y-105651904D01*
X134550349Y-105651904D02*
X134610825Y-105682142D01*
X134610825Y-105682142D02*
X134641063Y-105712380D01*
X134641063Y-105712380D02*
X134671301Y-105772856D01*
X134671301Y-105772856D02*
X134671301Y-105893809D01*
X134671301Y-105893809D02*
X134701540Y-105954285D01*
X134701540Y-105954285D02*
X134731778Y-105984523D01*
X134731778Y-105984523D02*
X134792254Y-106014761D01*
X134792254Y-106014761D02*
X134913206Y-106014761D01*
X134913206Y-106014761D02*
X134973682Y-105984523D01*
X134973682Y-105984523D02*
X135003921Y-105954285D01*
X135003921Y-105954285D02*
X135034159Y-105893809D01*
X135034159Y-105893809D02*
X135034159Y-105772856D01*
X135034159Y-105772856D02*
X135003921Y-105712380D01*
X135003921Y-105712380D02*
X134973682Y-105682142D01*
X134973682Y-105682142D02*
X134913206Y-105651904D01*
X134913206Y-105651904D02*
X134792254Y-105651904D01*
X134792254Y-105651904D02*
X134731778Y-105682142D01*
X134731778Y-105682142D02*
X134701540Y-105712380D01*
X134701540Y-105712380D02*
X134671301Y-105772856D01*
X135034159Y-105379761D02*
X134399159Y-105379761D01*
X134399159Y-105379761D02*
X134852730Y-105168094D01*
X134852730Y-105168094D02*
X134399159Y-104956428D01*
X134399159Y-104956428D02*
X135034159Y-104956428D01*
X135034159Y-108751309D02*
X134610825Y-108418690D01*
X134610825Y-108751309D02*
X135034159Y-108418690D01*
X135034159Y-112122857D02*
X134399159Y-112122857D01*
X134399159Y-112122857D02*
X134852730Y-111911190D01*
X134852730Y-111911190D02*
X134399159Y-111699524D01*
X134399159Y-111699524D02*
X135034159Y-111699524D01*
X134399159Y-111487857D02*
X134399159Y-111125000D01*
X135034159Y-111306429D02*
X134399159Y-111306429D01*
X135003921Y-110943571D02*
X135034159Y-110852857D01*
X135034159Y-110852857D02*
X135034159Y-110701666D01*
X135034159Y-110701666D02*
X135003921Y-110641190D01*
X135003921Y-110641190D02*
X134973682Y-110610952D01*
X134973682Y-110610952D02*
X134913206Y-110580714D01*
X134913206Y-110580714D02*
X134852730Y-110580714D01*
X134852730Y-110580714D02*
X134792254Y-110610952D01*
X134792254Y-110610952D02*
X134762016Y-110641190D01*
X134762016Y-110641190D02*
X134731778Y-110701666D01*
X134731778Y-110701666D02*
X134701540Y-110822619D01*
X134701540Y-110822619D02*
X134671301Y-110883095D01*
X134671301Y-110883095D02*
X134641063Y-110913333D01*
X134641063Y-110913333D02*
X134580587Y-110943571D01*
X134580587Y-110943571D02*
X134520111Y-110943571D01*
X134520111Y-110943571D02*
X134459635Y-110913333D01*
X134459635Y-110913333D02*
X134429397Y-110883095D01*
X134429397Y-110883095D02*
X134399159Y-110822619D01*
X134399159Y-110822619D02*
X134399159Y-110671428D01*
X134399159Y-110671428D02*
X134429397Y-110580714D01*
X134399159Y-110399285D02*
X134399159Y-110036428D01*
X135034159Y-110217857D02*
X134399159Y-110217857D01*
X135034159Y-114738452D02*
X134399159Y-114738452D01*
X134399159Y-114738452D02*
X134852730Y-114526785D01*
X134852730Y-114526785D02*
X134399159Y-114315119D01*
X134399159Y-114315119D02*
X135034159Y-114315119D01*
X135034159Y-113649881D02*
X134731778Y-113861548D01*
X135034159Y-114012738D02*
X134399159Y-114012738D01*
X134399159Y-114012738D02*
X134399159Y-113770833D01*
X134399159Y-113770833D02*
X134429397Y-113710357D01*
X134429397Y-113710357D02*
X134459635Y-113680119D01*
X134459635Y-113680119D02*
X134520111Y-113649881D01*
X134520111Y-113649881D02*
X134610825Y-113649881D01*
X134610825Y-113649881D02*
X134671301Y-113680119D01*
X134671301Y-113680119D02*
X134701540Y-113710357D01*
X134701540Y-113710357D02*
X134731778Y-113770833D01*
X134731778Y-113770833D02*
X134731778Y-114012738D01*
X135003921Y-113407976D02*
X135034159Y-113317262D01*
X135034159Y-113317262D02*
X135034159Y-113166071D01*
X135034159Y-113166071D02*
X135003921Y-113105595D01*
X135003921Y-113105595D02*
X134973682Y-113075357D01*
X134973682Y-113075357D02*
X134913206Y-113045119D01*
X134913206Y-113045119D02*
X134852730Y-113045119D01*
X134852730Y-113045119D02*
X134792254Y-113075357D01*
X134792254Y-113075357D02*
X134762016Y-113105595D01*
X134762016Y-113105595D02*
X134731778Y-113166071D01*
X134731778Y-113166071D02*
X134701540Y-113287024D01*
X134701540Y-113287024D02*
X134671301Y-113347500D01*
X134671301Y-113347500D02*
X134641063Y-113377738D01*
X134641063Y-113377738D02*
X134580587Y-113407976D01*
X134580587Y-113407976D02*
X134520111Y-113407976D01*
X134520111Y-113407976D02*
X134459635Y-113377738D01*
X134459635Y-113377738D02*
X134429397Y-113347500D01*
X134429397Y-113347500D02*
X134399159Y-113287024D01*
X134399159Y-113287024D02*
X134399159Y-113135833D01*
X134399159Y-113135833D02*
X134429397Y-113045119D01*
X134399159Y-112863690D02*
X134399159Y-112500833D01*
X135034159Y-112682262D02*
X134399159Y-112682262D01*
X176085397Y-81128809D02*
X176055159Y-81189285D01*
X176055159Y-81189285D02*
X176055159Y-81279999D01*
X176055159Y-81279999D02*
X176085397Y-81370714D01*
X176085397Y-81370714D02*
X176145873Y-81431190D01*
X176145873Y-81431190D02*
X176206349Y-81461428D01*
X176206349Y-81461428D02*
X176327301Y-81491666D01*
X176327301Y-81491666D02*
X176418016Y-81491666D01*
X176418016Y-81491666D02*
X176538968Y-81461428D01*
X176538968Y-81461428D02*
X176599444Y-81431190D01*
X176599444Y-81431190D02*
X176659921Y-81370714D01*
X176659921Y-81370714D02*
X176690159Y-81279999D01*
X176690159Y-81279999D02*
X176690159Y-81219523D01*
X176690159Y-81219523D02*
X176659921Y-81128809D01*
X176659921Y-81128809D02*
X176629682Y-81098571D01*
X176629682Y-81098571D02*
X176418016Y-81098571D01*
X176418016Y-81098571D02*
X176418016Y-81219523D01*
X176690159Y-80826428D02*
X176055159Y-80826428D01*
X176055159Y-80826428D02*
X176690159Y-80463571D01*
X176690159Y-80463571D02*
X176055159Y-80463571D01*
X176690159Y-80161190D02*
X176055159Y-80161190D01*
X176055159Y-80161190D02*
X176055159Y-80010000D01*
X176055159Y-80010000D02*
X176085397Y-79919285D01*
X176085397Y-79919285D02*
X176145873Y-79858809D01*
X176145873Y-79858809D02*
X176206349Y-79828571D01*
X176206349Y-79828571D02*
X176327301Y-79798333D01*
X176327301Y-79798333D02*
X176418016Y-79798333D01*
X176418016Y-79798333D02*
X176538968Y-79828571D01*
X176538968Y-79828571D02*
X176599444Y-79858809D01*
X176599444Y-79858809D02*
X176659921Y-79919285D01*
X176659921Y-79919285D02*
X176690159Y-80010000D01*
X176690159Y-80010000D02*
X176690159Y-80161190D01*
X176357540Y-83804880D02*
X176387778Y-83714166D01*
X176387778Y-83714166D02*
X176418016Y-83683928D01*
X176418016Y-83683928D02*
X176478492Y-83653690D01*
X176478492Y-83653690D02*
X176569206Y-83653690D01*
X176569206Y-83653690D02*
X176629682Y-83683928D01*
X176629682Y-83683928D02*
X176659921Y-83714166D01*
X176659921Y-83714166D02*
X176690159Y-83774642D01*
X176690159Y-83774642D02*
X176690159Y-84016547D01*
X176690159Y-84016547D02*
X176055159Y-84016547D01*
X176055159Y-84016547D02*
X176055159Y-83804880D01*
X176055159Y-83804880D02*
X176085397Y-83744404D01*
X176085397Y-83744404D02*
X176115635Y-83714166D01*
X176115635Y-83714166D02*
X176176111Y-83683928D01*
X176176111Y-83683928D02*
X176236587Y-83683928D01*
X176236587Y-83683928D02*
X176297063Y-83714166D01*
X176297063Y-83714166D02*
X176327301Y-83744404D01*
X176327301Y-83744404D02*
X176357540Y-83804880D01*
X176357540Y-83804880D02*
X176357540Y-84016547D01*
X176690159Y-83381547D02*
X176055159Y-83381547D01*
X176055159Y-83381547D02*
X176508730Y-83169880D01*
X176508730Y-83169880D02*
X176055159Y-82958214D01*
X176055159Y-82958214D02*
X176690159Y-82958214D01*
X176690159Y-82323214D02*
X176690159Y-82686071D01*
X176690159Y-82504643D02*
X176055159Y-82504643D01*
X176055159Y-82504643D02*
X176145873Y-82565119D01*
X176145873Y-82565119D02*
X176206349Y-82625595D01*
X176206349Y-82625595D02*
X176236587Y-82686071D01*
X176629682Y-85830833D02*
X176659921Y-85861071D01*
X176659921Y-85861071D02*
X176690159Y-85951785D01*
X176690159Y-85951785D02*
X176690159Y-86012261D01*
X176690159Y-86012261D02*
X176659921Y-86102976D01*
X176659921Y-86102976D02*
X176599444Y-86163452D01*
X176599444Y-86163452D02*
X176538968Y-86193690D01*
X176538968Y-86193690D02*
X176418016Y-86223928D01*
X176418016Y-86223928D02*
X176327301Y-86223928D01*
X176327301Y-86223928D02*
X176206349Y-86193690D01*
X176206349Y-86193690D02*
X176145873Y-86163452D01*
X176145873Y-86163452D02*
X176085397Y-86102976D01*
X176085397Y-86102976D02*
X176055159Y-86012261D01*
X176055159Y-86012261D02*
X176055159Y-85951785D01*
X176055159Y-85951785D02*
X176085397Y-85861071D01*
X176085397Y-85861071D02*
X176115635Y-85830833D01*
X176659921Y-85588928D02*
X176690159Y-85498214D01*
X176690159Y-85498214D02*
X176690159Y-85347023D01*
X176690159Y-85347023D02*
X176659921Y-85286547D01*
X176659921Y-85286547D02*
X176629682Y-85256309D01*
X176629682Y-85256309D02*
X176569206Y-85226071D01*
X176569206Y-85226071D02*
X176508730Y-85226071D01*
X176508730Y-85226071D02*
X176448254Y-85256309D01*
X176448254Y-85256309D02*
X176418016Y-85286547D01*
X176418016Y-85286547D02*
X176387778Y-85347023D01*
X176387778Y-85347023D02*
X176357540Y-85467976D01*
X176357540Y-85467976D02*
X176327301Y-85528452D01*
X176327301Y-85528452D02*
X176297063Y-85558690D01*
X176297063Y-85558690D02*
X176236587Y-85588928D01*
X176236587Y-85588928D02*
X176176111Y-85588928D01*
X176176111Y-85588928D02*
X176115635Y-85558690D01*
X176115635Y-85558690D02*
X176085397Y-85528452D01*
X176085397Y-85528452D02*
X176055159Y-85467976D01*
X176055159Y-85467976D02*
X176055159Y-85316785D01*
X176055159Y-85316785D02*
X176085397Y-85226071D01*
X176690159Y-89262856D02*
X176055159Y-89262856D01*
X176055159Y-89262856D02*
X176508730Y-89051189D01*
X176508730Y-89051189D02*
X176055159Y-88839523D01*
X176055159Y-88839523D02*
X176690159Y-88839523D01*
X176055159Y-88416190D02*
X176055159Y-88295237D01*
X176055159Y-88295237D02*
X176085397Y-88234761D01*
X176085397Y-88234761D02*
X176145873Y-88174285D01*
X176145873Y-88174285D02*
X176266825Y-88144047D01*
X176266825Y-88144047D02*
X176478492Y-88144047D01*
X176478492Y-88144047D02*
X176599444Y-88174285D01*
X176599444Y-88174285D02*
X176659921Y-88234761D01*
X176659921Y-88234761D02*
X176690159Y-88295237D01*
X176690159Y-88295237D02*
X176690159Y-88416190D01*
X176690159Y-88416190D02*
X176659921Y-88476666D01*
X176659921Y-88476666D02*
X176599444Y-88537142D01*
X176599444Y-88537142D02*
X176478492Y-88567380D01*
X176478492Y-88567380D02*
X176266825Y-88567380D01*
X176266825Y-88567380D02*
X176145873Y-88537142D01*
X176145873Y-88537142D02*
X176085397Y-88476666D01*
X176085397Y-88476666D02*
X176055159Y-88416190D01*
X176659921Y-87902142D02*
X176690159Y-87811428D01*
X176690159Y-87811428D02*
X176690159Y-87660237D01*
X176690159Y-87660237D02*
X176659921Y-87599761D01*
X176659921Y-87599761D02*
X176629682Y-87569523D01*
X176629682Y-87569523D02*
X176569206Y-87539285D01*
X176569206Y-87539285D02*
X176508730Y-87539285D01*
X176508730Y-87539285D02*
X176448254Y-87569523D01*
X176448254Y-87569523D02*
X176418016Y-87599761D01*
X176418016Y-87599761D02*
X176387778Y-87660237D01*
X176387778Y-87660237D02*
X176357540Y-87781190D01*
X176357540Y-87781190D02*
X176327301Y-87841666D01*
X176327301Y-87841666D02*
X176297063Y-87871904D01*
X176297063Y-87871904D02*
X176236587Y-87902142D01*
X176236587Y-87902142D02*
X176176111Y-87902142D01*
X176176111Y-87902142D02*
X176115635Y-87871904D01*
X176115635Y-87871904D02*
X176085397Y-87841666D01*
X176085397Y-87841666D02*
X176055159Y-87781190D01*
X176055159Y-87781190D02*
X176055159Y-87629999D01*
X176055159Y-87629999D02*
X176085397Y-87539285D01*
X176690159Y-87267142D02*
X176055159Y-87267142D01*
X176690159Y-90971309D02*
X176266825Y-90638690D01*
X176266825Y-90971309D02*
X176690159Y-90638690D01*
X176085397Y-103988809D02*
X176055159Y-104049285D01*
X176055159Y-104049285D02*
X176055159Y-104139999D01*
X176055159Y-104139999D02*
X176085397Y-104230714D01*
X176085397Y-104230714D02*
X176145873Y-104291190D01*
X176145873Y-104291190D02*
X176206349Y-104321428D01*
X176206349Y-104321428D02*
X176327301Y-104351666D01*
X176327301Y-104351666D02*
X176418016Y-104351666D01*
X176418016Y-104351666D02*
X176538968Y-104321428D01*
X176538968Y-104321428D02*
X176599444Y-104291190D01*
X176599444Y-104291190D02*
X176659921Y-104230714D01*
X176659921Y-104230714D02*
X176690159Y-104139999D01*
X176690159Y-104139999D02*
X176690159Y-104079523D01*
X176690159Y-104079523D02*
X176659921Y-103988809D01*
X176659921Y-103988809D02*
X176629682Y-103958571D01*
X176629682Y-103958571D02*
X176418016Y-103958571D01*
X176418016Y-103958571D02*
X176418016Y-104079523D01*
X176690159Y-103686428D02*
X176055159Y-103686428D01*
X176055159Y-103686428D02*
X176690159Y-103323571D01*
X176690159Y-103323571D02*
X176055159Y-103323571D01*
X176690159Y-103021190D02*
X176055159Y-103021190D01*
X176055159Y-103021190D02*
X176055159Y-102870000D01*
X176055159Y-102870000D02*
X176085397Y-102779285D01*
X176085397Y-102779285D02*
X176145873Y-102718809D01*
X176145873Y-102718809D02*
X176206349Y-102688571D01*
X176206349Y-102688571D02*
X176327301Y-102658333D01*
X176327301Y-102658333D02*
X176418016Y-102658333D01*
X176418016Y-102658333D02*
X176538968Y-102688571D01*
X176538968Y-102688571D02*
X176599444Y-102718809D01*
X176599444Y-102718809D02*
X176659921Y-102779285D01*
X176659921Y-102779285D02*
X176690159Y-102870000D01*
X176690159Y-102870000D02*
X176690159Y-103021190D01*
X176508730Y-107163809D02*
X176508730Y-106861428D01*
X176690159Y-107224285D02*
X176055159Y-107012619D01*
X176055159Y-107012619D02*
X176690159Y-106800952D01*
X176055159Y-106468333D02*
X176055159Y-106347380D01*
X176055159Y-106347380D02*
X176085397Y-106286904D01*
X176085397Y-106286904D02*
X176145873Y-106226428D01*
X176145873Y-106226428D02*
X176266825Y-106196190D01*
X176266825Y-106196190D02*
X176478492Y-106196190D01*
X176478492Y-106196190D02*
X176599444Y-106226428D01*
X176599444Y-106226428D02*
X176659921Y-106286904D01*
X176659921Y-106286904D02*
X176690159Y-106347380D01*
X176690159Y-106347380D02*
X176690159Y-106468333D01*
X176690159Y-106468333D02*
X176659921Y-106528809D01*
X176659921Y-106528809D02*
X176599444Y-106589285D01*
X176599444Y-106589285D02*
X176478492Y-106619523D01*
X176478492Y-106619523D02*
X176266825Y-106619523D01*
X176266825Y-106619523D02*
X176145873Y-106589285D01*
X176145873Y-106589285D02*
X176085397Y-106528809D01*
X176085397Y-106528809D02*
X176055159Y-106468333D01*
X176690159Y-105924047D02*
X176055159Y-105924047D01*
X176055159Y-105924047D02*
X176690159Y-105561190D01*
X176690159Y-105561190D02*
X176055159Y-105561190D01*
X176266825Y-104986666D02*
X176690159Y-104986666D01*
X176024921Y-105137857D02*
X176478492Y-105289047D01*
X176478492Y-105289047D02*
X176478492Y-104895952D01*
X176085397Y-109068809D02*
X176055159Y-109129285D01*
X176055159Y-109129285D02*
X176055159Y-109219999D01*
X176055159Y-109219999D02*
X176085397Y-109310714D01*
X176085397Y-109310714D02*
X176145873Y-109371190D01*
X176145873Y-109371190D02*
X176206349Y-109401428D01*
X176206349Y-109401428D02*
X176327301Y-109431666D01*
X176327301Y-109431666D02*
X176418016Y-109431666D01*
X176418016Y-109431666D02*
X176538968Y-109401428D01*
X176538968Y-109401428D02*
X176599444Y-109371190D01*
X176599444Y-109371190D02*
X176659921Y-109310714D01*
X176659921Y-109310714D02*
X176690159Y-109219999D01*
X176690159Y-109219999D02*
X176690159Y-109159523D01*
X176690159Y-109159523D02*
X176659921Y-109068809D01*
X176659921Y-109068809D02*
X176629682Y-109038571D01*
X176629682Y-109038571D02*
X176418016Y-109038571D01*
X176418016Y-109038571D02*
X176418016Y-109159523D01*
X176690159Y-108766428D02*
X176055159Y-108766428D01*
X176055159Y-108766428D02*
X176690159Y-108403571D01*
X176690159Y-108403571D02*
X176055159Y-108403571D01*
X176690159Y-108101190D02*
X176055159Y-108101190D01*
X176055159Y-108101190D02*
X176055159Y-107950000D01*
X176055159Y-107950000D02*
X176085397Y-107859285D01*
X176085397Y-107859285D02*
X176145873Y-107798809D01*
X176145873Y-107798809D02*
X176206349Y-107768571D01*
X176206349Y-107768571D02*
X176327301Y-107738333D01*
X176327301Y-107738333D02*
X176418016Y-107738333D01*
X176418016Y-107738333D02*
X176538968Y-107768571D01*
X176538968Y-107768571D02*
X176599444Y-107798809D01*
X176599444Y-107798809D02*
X176659921Y-107859285D01*
X176659921Y-107859285D02*
X176690159Y-107950000D01*
X176690159Y-107950000D02*
X176690159Y-108101190D01*
X176690159Y-111291309D02*
X176266825Y-110958690D01*
X176266825Y-111291309D02*
X176690159Y-110958690D01*
X176055159Y-114148809D02*
X176055159Y-113785952D01*
X176690159Y-113967381D02*
X176055159Y-113967381D01*
X176055159Y-113634761D02*
X176690159Y-113211428D01*
X176055159Y-113211428D02*
X176690159Y-113634761D01*
X182961540Y-81264880D02*
X182991778Y-81174166D01*
X182991778Y-81174166D02*
X183022016Y-81143928D01*
X183022016Y-81143928D02*
X183082492Y-81113690D01*
X183082492Y-81113690D02*
X183173206Y-81113690D01*
X183173206Y-81113690D02*
X183233682Y-81143928D01*
X183233682Y-81143928D02*
X183263921Y-81174166D01*
X183263921Y-81174166D02*
X183294159Y-81234642D01*
X183294159Y-81234642D02*
X183294159Y-81476547D01*
X183294159Y-81476547D02*
X182659159Y-81476547D01*
X182659159Y-81476547D02*
X182659159Y-81264880D01*
X182659159Y-81264880D02*
X182689397Y-81204404D01*
X182689397Y-81204404D02*
X182719635Y-81174166D01*
X182719635Y-81174166D02*
X182780111Y-81143928D01*
X182780111Y-81143928D02*
X182840587Y-81143928D01*
X182840587Y-81143928D02*
X182901063Y-81174166D01*
X182901063Y-81174166D02*
X182931301Y-81204404D01*
X182931301Y-81204404D02*
X182961540Y-81264880D01*
X182961540Y-81264880D02*
X182961540Y-81476547D01*
X183294159Y-80841547D02*
X182659159Y-80841547D01*
X182659159Y-80841547D02*
X183112730Y-80629880D01*
X183112730Y-80629880D02*
X182659159Y-80418214D01*
X182659159Y-80418214D02*
X183294159Y-80418214D01*
X182719635Y-80146071D02*
X182689397Y-80115833D01*
X182689397Y-80115833D02*
X182659159Y-80055357D01*
X182659159Y-80055357D02*
X182659159Y-79904166D01*
X182659159Y-79904166D02*
X182689397Y-79843690D01*
X182689397Y-79843690D02*
X182719635Y-79813452D01*
X182719635Y-79813452D02*
X182780111Y-79783214D01*
X182780111Y-79783214D02*
X182840587Y-79783214D01*
X182840587Y-79783214D02*
X182931301Y-79813452D01*
X182931301Y-79813452D02*
X183294159Y-80176309D01*
X183294159Y-80176309D02*
X183294159Y-79783214D01*
X182961540Y-83804880D02*
X182991778Y-83714166D01*
X182991778Y-83714166D02*
X183022016Y-83683928D01*
X183022016Y-83683928D02*
X183082492Y-83653690D01*
X183082492Y-83653690D02*
X183173206Y-83653690D01*
X183173206Y-83653690D02*
X183233682Y-83683928D01*
X183233682Y-83683928D02*
X183263921Y-83714166D01*
X183263921Y-83714166D02*
X183294159Y-83774642D01*
X183294159Y-83774642D02*
X183294159Y-84016547D01*
X183294159Y-84016547D02*
X182659159Y-84016547D01*
X182659159Y-84016547D02*
X182659159Y-83804880D01*
X182659159Y-83804880D02*
X182689397Y-83744404D01*
X182689397Y-83744404D02*
X182719635Y-83714166D01*
X182719635Y-83714166D02*
X182780111Y-83683928D01*
X182780111Y-83683928D02*
X182840587Y-83683928D01*
X182840587Y-83683928D02*
X182901063Y-83714166D01*
X182901063Y-83714166D02*
X182931301Y-83744404D01*
X182931301Y-83744404D02*
X182961540Y-83804880D01*
X182961540Y-83804880D02*
X182961540Y-84016547D01*
X183294159Y-83381547D02*
X182659159Y-83381547D01*
X182659159Y-83381547D02*
X183112730Y-83169880D01*
X183112730Y-83169880D02*
X182659159Y-82958214D01*
X182659159Y-82958214D02*
X183294159Y-82958214D01*
X182659159Y-82534881D02*
X182659159Y-82474404D01*
X182659159Y-82474404D02*
X182689397Y-82413928D01*
X182689397Y-82413928D02*
X182719635Y-82383690D01*
X182719635Y-82383690D02*
X182780111Y-82353452D01*
X182780111Y-82353452D02*
X182901063Y-82323214D01*
X182901063Y-82323214D02*
X183052254Y-82323214D01*
X183052254Y-82323214D02*
X183173206Y-82353452D01*
X183173206Y-82353452D02*
X183233682Y-82383690D01*
X183233682Y-82383690D02*
X183263921Y-82413928D01*
X183263921Y-82413928D02*
X183294159Y-82474404D01*
X183294159Y-82474404D02*
X183294159Y-82534881D01*
X183294159Y-82534881D02*
X183263921Y-82595357D01*
X183263921Y-82595357D02*
X183233682Y-82625595D01*
X183233682Y-82625595D02*
X183173206Y-82655833D01*
X183173206Y-82655833D02*
X183052254Y-82686071D01*
X183052254Y-82686071D02*
X182901063Y-82686071D01*
X182901063Y-82686071D02*
X182780111Y-82655833D01*
X182780111Y-82655833D02*
X182719635Y-82625595D01*
X182719635Y-82625595D02*
X182689397Y-82595357D01*
X182689397Y-82595357D02*
X182659159Y-82534881D01*
X182961540Y-86722857D02*
X182961540Y-86511190D01*
X183294159Y-86420476D02*
X183294159Y-86722857D01*
X183294159Y-86722857D02*
X182659159Y-86722857D01*
X182659159Y-86722857D02*
X182659159Y-86420476D01*
X183294159Y-85785476D02*
X182991778Y-85997143D01*
X183294159Y-86148333D02*
X182659159Y-86148333D01*
X182659159Y-86148333D02*
X182659159Y-85906428D01*
X182659159Y-85906428D02*
X182689397Y-85845952D01*
X182689397Y-85845952D02*
X182719635Y-85815714D01*
X182719635Y-85815714D02*
X182780111Y-85785476D01*
X182780111Y-85785476D02*
X182870825Y-85785476D01*
X182870825Y-85785476D02*
X182931301Y-85815714D01*
X182931301Y-85815714D02*
X182961540Y-85845952D01*
X182961540Y-85845952D02*
X182991778Y-85906428D01*
X182991778Y-85906428D02*
X182991778Y-86148333D01*
X183263921Y-85543571D02*
X183294159Y-85452857D01*
X183294159Y-85452857D02*
X183294159Y-85301666D01*
X183294159Y-85301666D02*
X183263921Y-85241190D01*
X183263921Y-85241190D02*
X183233682Y-85210952D01*
X183233682Y-85210952D02*
X183173206Y-85180714D01*
X183173206Y-85180714D02*
X183112730Y-85180714D01*
X183112730Y-85180714D02*
X183052254Y-85210952D01*
X183052254Y-85210952D02*
X183022016Y-85241190D01*
X183022016Y-85241190D02*
X182991778Y-85301666D01*
X182991778Y-85301666D02*
X182961540Y-85422619D01*
X182961540Y-85422619D02*
X182931301Y-85483095D01*
X182931301Y-85483095D02*
X182901063Y-85513333D01*
X182901063Y-85513333D02*
X182840587Y-85543571D01*
X182840587Y-85543571D02*
X182780111Y-85543571D01*
X182780111Y-85543571D02*
X182719635Y-85513333D01*
X182719635Y-85513333D02*
X182689397Y-85483095D01*
X182689397Y-85483095D02*
X182659159Y-85422619D01*
X182659159Y-85422619D02*
X182659159Y-85271428D01*
X182659159Y-85271428D02*
X182689397Y-85180714D01*
X182659159Y-84999285D02*
X182659159Y-84636428D01*
X183294159Y-84817857D02*
X182659159Y-84817857D01*
X183263921Y-89081428D02*
X183294159Y-88990714D01*
X183294159Y-88990714D02*
X183294159Y-88839523D01*
X183294159Y-88839523D02*
X183263921Y-88779047D01*
X183263921Y-88779047D02*
X183233682Y-88748809D01*
X183233682Y-88748809D02*
X183173206Y-88718571D01*
X183173206Y-88718571D02*
X183112730Y-88718571D01*
X183112730Y-88718571D02*
X183052254Y-88748809D01*
X183052254Y-88748809D02*
X183022016Y-88779047D01*
X183022016Y-88779047D02*
X182991778Y-88839523D01*
X182991778Y-88839523D02*
X182961540Y-88960476D01*
X182961540Y-88960476D02*
X182931301Y-89020952D01*
X182931301Y-89020952D02*
X182901063Y-89051190D01*
X182901063Y-89051190D02*
X182840587Y-89081428D01*
X182840587Y-89081428D02*
X182780111Y-89081428D01*
X182780111Y-89081428D02*
X182719635Y-89051190D01*
X182719635Y-89051190D02*
X182689397Y-89020952D01*
X182689397Y-89020952D02*
X182659159Y-88960476D01*
X182659159Y-88960476D02*
X182659159Y-88809285D01*
X182659159Y-88809285D02*
X182689397Y-88718571D01*
X183233682Y-88083571D02*
X183263921Y-88113809D01*
X183263921Y-88113809D02*
X183294159Y-88204523D01*
X183294159Y-88204523D02*
X183294159Y-88264999D01*
X183294159Y-88264999D02*
X183263921Y-88355714D01*
X183263921Y-88355714D02*
X183203444Y-88416190D01*
X183203444Y-88416190D02*
X183142968Y-88446428D01*
X183142968Y-88446428D02*
X183022016Y-88476666D01*
X183022016Y-88476666D02*
X182931301Y-88476666D01*
X182931301Y-88476666D02*
X182810349Y-88446428D01*
X182810349Y-88446428D02*
X182749873Y-88416190D01*
X182749873Y-88416190D02*
X182689397Y-88355714D01*
X182689397Y-88355714D02*
X182659159Y-88264999D01*
X182659159Y-88264999D02*
X182659159Y-88204523D01*
X182659159Y-88204523D02*
X182689397Y-88113809D01*
X182689397Y-88113809D02*
X182719635Y-88083571D01*
X183294159Y-87811428D02*
X182659159Y-87811428D01*
X183294159Y-87448571D02*
X182931301Y-87720714D01*
X182659159Y-87448571D02*
X183022016Y-87811428D01*
X183294159Y-91802856D02*
X182659159Y-91802856D01*
X182659159Y-91802856D02*
X183112730Y-91591189D01*
X183112730Y-91591189D02*
X182659159Y-91379523D01*
X182659159Y-91379523D02*
X183294159Y-91379523D01*
X183294159Y-91077142D02*
X182659159Y-91077142D01*
X183263921Y-90804999D02*
X183294159Y-90714285D01*
X183294159Y-90714285D02*
X183294159Y-90563094D01*
X183294159Y-90563094D02*
X183263921Y-90502618D01*
X183263921Y-90502618D02*
X183233682Y-90472380D01*
X183233682Y-90472380D02*
X183173206Y-90442142D01*
X183173206Y-90442142D02*
X183112730Y-90442142D01*
X183112730Y-90442142D02*
X183052254Y-90472380D01*
X183052254Y-90472380D02*
X183022016Y-90502618D01*
X183022016Y-90502618D02*
X182991778Y-90563094D01*
X182991778Y-90563094D02*
X182961540Y-90684047D01*
X182961540Y-90684047D02*
X182931301Y-90744523D01*
X182931301Y-90744523D02*
X182901063Y-90774761D01*
X182901063Y-90774761D02*
X182840587Y-90804999D01*
X182840587Y-90804999D02*
X182780111Y-90804999D01*
X182780111Y-90804999D02*
X182719635Y-90774761D01*
X182719635Y-90774761D02*
X182689397Y-90744523D01*
X182689397Y-90744523D02*
X182659159Y-90684047D01*
X182659159Y-90684047D02*
X182659159Y-90532856D01*
X182659159Y-90532856D02*
X182689397Y-90442142D01*
X182659159Y-90049047D02*
X182659159Y-89928094D01*
X182659159Y-89928094D02*
X182689397Y-89867618D01*
X182689397Y-89867618D02*
X182749873Y-89807142D01*
X182749873Y-89807142D02*
X182870825Y-89776904D01*
X182870825Y-89776904D02*
X183082492Y-89776904D01*
X183082492Y-89776904D02*
X183203444Y-89807142D01*
X183203444Y-89807142D02*
X183263921Y-89867618D01*
X183263921Y-89867618D02*
X183294159Y-89928094D01*
X183294159Y-89928094D02*
X183294159Y-90049047D01*
X183294159Y-90049047D02*
X183263921Y-90109523D01*
X183263921Y-90109523D02*
X183203444Y-90169999D01*
X183203444Y-90169999D02*
X183082492Y-90200237D01*
X183082492Y-90200237D02*
X182870825Y-90200237D01*
X182870825Y-90200237D02*
X182749873Y-90169999D01*
X182749873Y-90169999D02*
X182689397Y-90109523D01*
X182689397Y-90109523D02*
X182659159Y-90049047D01*
X182689397Y-103988809D02*
X182659159Y-104049285D01*
X182659159Y-104049285D02*
X182659159Y-104139999D01*
X182659159Y-104139999D02*
X182689397Y-104230714D01*
X182689397Y-104230714D02*
X182749873Y-104291190D01*
X182749873Y-104291190D02*
X182810349Y-104321428D01*
X182810349Y-104321428D02*
X182931301Y-104351666D01*
X182931301Y-104351666D02*
X183022016Y-104351666D01*
X183022016Y-104351666D02*
X183142968Y-104321428D01*
X183142968Y-104321428D02*
X183203444Y-104291190D01*
X183203444Y-104291190D02*
X183263921Y-104230714D01*
X183263921Y-104230714D02*
X183294159Y-104139999D01*
X183294159Y-104139999D02*
X183294159Y-104079523D01*
X183294159Y-104079523D02*
X183263921Y-103988809D01*
X183263921Y-103988809D02*
X183233682Y-103958571D01*
X183233682Y-103958571D02*
X183022016Y-103958571D01*
X183022016Y-103958571D02*
X183022016Y-104079523D01*
X183294159Y-103686428D02*
X182659159Y-103686428D01*
X182659159Y-103686428D02*
X183294159Y-103323571D01*
X183294159Y-103323571D02*
X182659159Y-103323571D01*
X183294159Y-103021190D02*
X182659159Y-103021190D01*
X182659159Y-103021190D02*
X182659159Y-102870000D01*
X182659159Y-102870000D02*
X182689397Y-102779285D01*
X182689397Y-102779285D02*
X182749873Y-102718809D01*
X182749873Y-102718809D02*
X182810349Y-102688571D01*
X182810349Y-102688571D02*
X182931301Y-102658333D01*
X182931301Y-102658333D02*
X183022016Y-102658333D01*
X183022016Y-102658333D02*
X183142968Y-102688571D01*
X183142968Y-102688571D02*
X183203444Y-102718809D01*
X183203444Y-102718809D02*
X183263921Y-102779285D01*
X183263921Y-102779285D02*
X183294159Y-102870000D01*
X183294159Y-102870000D02*
X183294159Y-103021190D01*
X183112730Y-107163809D02*
X183112730Y-106861428D01*
X183294159Y-107224285D02*
X182659159Y-107012619D01*
X182659159Y-107012619D02*
X183294159Y-106800952D01*
X182659159Y-106468333D02*
X182659159Y-106347380D01*
X182659159Y-106347380D02*
X182689397Y-106286904D01*
X182689397Y-106286904D02*
X182749873Y-106226428D01*
X182749873Y-106226428D02*
X182870825Y-106196190D01*
X182870825Y-106196190D02*
X183082492Y-106196190D01*
X183082492Y-106196190D02*
X183203444Y-106226428D01*
X183203444Y-106226428D02*
X183263921Y-106286904D01*
X183263921Y-106286904D02*
X183294159Y-106347380D01*
X183294159Y-106347380D02*
X183294159Y-106468333D01*
X183294159Y-106468333D02*
X183263921Y-106528809D01*
X183263921Y-106528809D02*
X183203444Y-106589285D01*
X183203444Y-106589285D02*
X183082492Y-106619523D01*
X183082492Y-106619523D02*
X182870825Y-106619523D01*
X182870825Y-106619523D02*
X182749873Y-106589285D01*
X182749873Y-106589285D02*
X182689397Y-106528809D01*
X182689397Y-106528809D02*
X182659159Y-106468333D01*
X183294159Y-105924047D02*
X182659159Y-105924047D01*
X182659159Y-105924047D02*
X183294159Y-105561190D01*
X183294159Y-105561190D02*
X182659159Y-105561190D01*
X182659159Y-104956428D02*
X182659159Y-105258809D01*
X182659159Y-105258809D02*
X182961540Y-105289047D01*
X182961540Y-105289047D02*
X182931301Y-105258809D01*
X182931301Y-105258809D02*
X182901063Y-105198333D01*
X182901063Y-105198333D02*
X182901063Y-105047142D01*
X182901063Y-105047142D02*
X182931301Y-104986666D01*
X182931301Y-104986666D02*
X182961540Y-104956428D01*
X182961540Y-104956428D02*
X183022016Y-104926190D01*
X183022016Y-104926190D02*
X183173206Y-104926190D01*
X183173206Y-104926190D02*
X183233682Y-104956428D01*
X183233682Y-104956428D02*
X183263921Y-104986666D01*
X183263921Y-104986666D02*
X183294159Y-105047142D01*
X183294159Y-105047142D02*
X183294159Y-105198333D01*
X183294159Y-105198333D02*
X183263921Y-105258809D01*
X183263921Y-105258809D02*
X183233682Y-105289047D01*
X182689397Y-109068809D02*
X182659159Y-109129285D01*
X182659159Y-109129285D02*
X182659159Y-109219999D01*
X182659159Y-109219999D02*
X182689397Y-109310714D01*
X182689397Y-109310714D02*
X182749873Y-109371190D01*
X182749873Y-109371190D02*
X182810349Y-109401428D01*
X182810349Y-109401428D02*
X182931301Y-109431666D01*
X182931301Y-109431666D02*
X183022016Y-109431666D01*
X183022016Y-109431666D02*
X183142968Y-109401428D01*
X183142968Y-109401428D02*
X183203444Y-109371190D01*
X183203444Y-109371190D02*
X183263921Y-109310714D01*
X183263921Y-109310714D02*
X183294159Y-109219999D01*
X183294159Y-109219999D02*
X183294159Y-109159523D01*
X183294159Y-109159523D02*
X183263921Y-109068809D01*
X183263921Y-109068809D02*
X183233682Y-109038571D01*
X183233682Y-109038571D02*
X183022016Y-109038571D01*
X183022016Y-109038571D02*
X183022016Y-109159523D01*
X183294159Y-108766428D02*
X182659159Y-108766428D01*
X182659159Y-108766428D02*
X183294159Y-108403571D01*
X183294159Y-108403571D02*
X182659159Y-108403571D01*
X183294159Y-108101190D02*
X182659159Y-108101190D01*
X182659159Y-108101190D02*
X182659159Y-107950000D01*
X182659159Y-107950000D02*
X182689397Y-107859285D01*
X182689397Y-107859285D02*
X182749873Y-107798809D01*
X182749873Y-107798809D02*
X182810349Y-107768571D01*
X182810349Y-107768571D02*
X182931301Y-107738333D01*
X182931301Y-107738333D02*
X183022016Y-107738333D01*
X183022016Y-107738333D02*
X183142968Y-107768571D01*
X183142968Y-107768571D02*
X183203444Y-107798809D01*
X183203444Y-107798809D02*
X183263921Y-107859285D01*
X183263921Y-107859285D02*
X183294159Y-107950000D01*
X183294159Y-107950000D02*
X183294159Y-108101190D01*
X183294159Y-111291309D02*
X182870825Y-110958690D01*
X182870825Y-111291309D02*
X183294159Y-110958690D01*
X183294159Y-113770833D02*
X182991778Y-113982500D01*
X183294159Y-114133690D02*
X182659159Y-114133690D01*
X182659159Y-114133690D02*
X182659159Y-113891785D01*
X182659159Y-113891785D02*
X182689397Y-113831309D01*
X182689397Y-113831309D02*
X182719635Y-113801071D01*
X182719635Y-113801071D02*
X182780111Y-113770833D01*
X182780111Y-113770833D02*
X182870825Y-113770833D01*
X182870825Y-113770833D02*
X182931301Y-113801071D01*
X182931301Y-113801071D02*
X182961540Y-113831309D01*
X182961540Y-113831309D02*
X182991778Y-113891785D01*
X182991778Y-113891785D02*
X182991778Y-114133690D01*
X182659159Y-113559166D02*
X183294159Y-113135833D01*
X182659159Y-113135833D02*
X183294159Y-113559166D01*
D11*
G36*
X151127968Y-96880874D02*
G01*
X151189741Y-96899553D01*
X151244873Y-96930278D01*
X151290492Y-96971543D01*
X151326619Y-97022312D01*
X151354117Y-97084017D01*
X151370705Y-97152133D01*
X151376526Y-97230746D01*
X151376526Y-97296448D01*
X150889628Y-97296448D01*
X150901623Y-97333809D01*
X150919778Y-97364790D01*
X150944216Y-97390420D01*
X150973853Y-97409609D01*
X151007975Y-97421324D01*
X151047775Y-97425408D01*
X151096565Y-97419346D01*
X151135153Y-97402327D01*
X151168366Y-97376126D01*
X151197435Y-97342854D01*
X151344347Y-97450687D01*
X151307934Y-97490407D01*
X151265703Y-97523580D01*
X151217036Y-97550521D01*
X151164829Y-97570113D01*
X151111835Y-97581748D01*
X151057545Y-97585631D01*
X150980917Y-97579264D01*
X150909900Y-97560535D01*
X150844750Y-97529762D01*
X150789611Y-97488728D01*
X150744164Y-97437567D01*
X150709194Y-97376498D01*
X150693111Y-97331917D01*
X150683226Y-97283314D01*
X150679823Y-97230013D01*
X150683227Y-97176713D01*
X150688285Y-97151856D01*
X150889628Y-97151856D01*
X151166660Y-97151856D01*
X151163352Y-97118890D01*
X151151831Y-97089798D01*
X151131673Y-97063501D01*
X151105432Y-97043310D01*
X151074636Y-97031076D01*
X151037944Y-97026803D01*
X151004287Y-97029657D01*
X150976334Y-97037672D01*
X150951357Y-97050292D01*
X150930905Y-97065577D01*
X150914084Y-97083971D01*
X150901535Y-97104961D01*
X150893300Y-97127915D01*
X150889628Y-97151856D01*
X150688285Y-97151856D01*
X150693113Y-97128131D01*
X150709194Y-97083590D01*
X150744168Y-97022470D01*
X150789611Y-96971299D01*
X150844800Y-96930262D01*
X150909961Y-96899492D01*
X150980926Y-96880764D01*
X151057545Y-96874396D01*
X151127968Y-96880874D01*
G37*
G36*
X151576622Y-97058066D02*
G01*
X151438075Y-97058066D01*
X151438075Y-96890027D01*
X151576622Y-96890027D01*
X151576622Y-96769677D01*
X151579126Y-96714596D01*
X151586392Y-96663981D01*
X151600932Y-96616864D01*
X151624188Y-96576542D01*
X151657325Y-96543483D01*
X151704605Y-96517069D01*
X151761639Y-96501365D01*
X151842419Y-96495331D01*
X151905373Y-96498140D01*
X151965518Y-96507909D01*
X151955748Y-96685230D01*
X151922165Y-96674727D01*
X151887177Y-96671186D01*
X151841046Y-96677235D01*
X151811645Y-96692923D01*
X151799065Y-96709571D01*
X151790093Y-96737555D01*
X151786488Y-96782011D01*
X151786488Y-96890027D01*
X151941765Y-96890027D01*
X151941765Y-97058066D01*
X151786488Y-97058066D01*
X151786488Y-97570000D01*
X151576622Y-97570000D01*
X151576622Y-97058066D01*
G37*
G36*
X152542114Y-96890027D02*
G01*
X152751919Y-96890027D01*
X152751919Y-97570000D01*
X152542114Y-97570000D01*
X152542114Y-96890027D01*
G37*
G36*
X152525322Y-96675094D02*
G01*
X152529326Y-96643145D01*
X152541070Y-96614937D01*
X152560982Y-96589487D01*
X152586542Y-96569655D01*
X152614892Y-96557944D01*
X152647016Y-96553949D01*
X152679141Y-96557944D01*
X152707491Y-96569655D01*
X152733051Y-96589487D01*
X152752962Y-96614937D01*
X152764707Y-96643145D01*
X152768710Y-96675094D01*
X152764708Y-96707045D01*
X152752964Y-96735274D01*
X152733051Y-96760762D01*
X152707495Y-96780557D01*
X152679145Y-96792249D01*
X152647016Y-96796238D01*
X152614888Y-96792249D01*
X152586537Y-96780557D01*
X152560982Y-96760762D01*
X152541068Y-96735274D01*
X152529325Y-96707045D01*
X152525322Y-96675094D01*
G37*
G36*
X152094417Y-97058066D02*
G01*
X151955870Y-97058066D01*
X151955870Y-96890027D01*
X152094417Y-96890027D01*
X152094417Y-96769677D01*
X152096921Y-96714596D01*
X152104187Y-96663981D01*
X152118727Y-96616864D01*
X152141983Y-96576542D01*
X152175120Y-96543483D01*
X152222400Y-96517069D01*
X152279434Y-96501365D01*
X152360214Y-96495331D01*
X152423168Y-96498140D01*
X152483313Y-96507848D01*
X152473543Y-96684863D01*
X152439959Y-96674605D01*
X152404972Y-96671186D01*
X152358885Y-96677231D01*
X152329440Y-96692923D01*
X152316860Y-96709571D01*
X152307888Y-96737555D01*
X152304283Y-96782011D01*
X152304283Y-96890027D01*
X152459560Y-96890027D01*
X152459560Y-97058066D01*
X152304283Y-97058066D01*
X152304283Y-97570000D01*
X152094417Y-97570000D01*
X152094417Y-97058066D01*
G37*
G36*
X153363136Y-97109846D02*
G01*
X153345008Y-97089722D01*
X153319783Y-97072782D01*
X153290831Y-97061762D01*
X153259638Y-97058066D01*
X153208521Y-97063811D01*
X153168058Y-97079838D01*
X153135807Y-97105633D01*
X153111789Y-97139650D01*
X153096964Y-97180484D01*
X153091721Y-97230013D01*
X153096963Y-97279544D01*
X153111787Y-97320401D01*
X153135807Y-97354455D01*
X153168054Y-97380214D01*
X153208516Y-97396222D01*
X153259638Y-97401960D01*
X153292814Y-97397946D01*
X153319783Y-97386573D01*
X153343402Y-97369607D01*
X153363136Y-97350181D01*
X153501683Y-97495200D01*
X153466960Y-97525356D01*
X153428641Y-97548669D01*
X153386217Y-97565481D01*
X153320222Y-97580773D01*
X153259638Y-97585631D01*
X153183011Y-97579264D01*
X153111994Y-97560535D01*
X153046843Y-97529762D01*
X152991704Y-97488728D01*
X152946257Y-97437567D01*
X152911287Y-97376498D01*
X152895205Y-97331917D01*
X152885320Y-97283314D01*
X152881917Y-97230013D01*
X152885320Y-97176713D01*
X152895206Y-97128131D01*
X152911287Y-97083590D01*
X152946261Y-97022470D01*
X152991704Y-96971299D01*
X153046843Y-96930265D01*
X153111994Y-96899492D01*
X153183011Y-96880763D01*
X153259638Y-96874396D01*
X153320220Y-96879269D01*
X153386217Y-96894607D01*
X153428639Y-96911384D01*
X153466958Y-96934676D01*
X153501683Y-96964827D01*
X153363136Y-97109846D01*
G37*
G36*
X153579780Y-96890027D02*
G01*
X153789645Y-96890027D01*
X153789645Y-97570000D01*
X153579780Y-97570000D01*
X153579780Y-96890027D01*
G37*
G36*
X153562988Y-96675094D02*
G01*
X153566992Y-96643145D01*
X153578736Y-96614937D01*
X153598648Y-96589487D01*
X153624244Y-96569650D01*
X153652596Y-96557941D01*
X153684682Y-96553949D01*
X153716807Y-96557944D01*
X153745157Y-96569655D01*
X153770717Y-96589487D01*
X153790665Y-96614941D01*
X153802428Y-96643149D01*
X153806437Y-96675094D01*
X153802429Y-96707041D01*
X153790667Y-96735269D01*
X153770717Y-96760762D01*
X153745161Y-96780557D01*
X153716811Y-96792249D01*
X153684682Y-96796238D01*
X153652592Y-96792252D01*
X153624239Y-96780562D01*
X153598648Y-96760762D01*
X153578734Y-96735274D01*
X153566990Y-96707045D01*
X153562988Y-96675094D01*
G37*
G36*
X154367605Y-96880874D02*
G01*
X154429379Y-96899553D01*
X154484510Y-96930278D01*
X154530129Y-96971543D01*
X154566256Y-97022312D01*
X154593754Y-97084017D01*
X154610342Y-97152133D01*
X154616163Y-97230746D01*
X154616163Y-97296448D01*
X154129265Y-97296448D01*
X154141260Y-97333809D01*
X154159416Y-97364790D01*
X154183853Y-97390420D01*
X154213490Y-97409609D01*
X154247612Y-97421324D01*
X154287412Y-97425408D01*
X154336202Y-97419346D01*
X154374790Y-97402327D01*
X154408003Y-97376126D01*
X154437072Y-97342854D01*
X154583984Y-97450687D01*
X154547571Y-97490407D01*
X154505340Y-97523580D01*
X154456673Y-97550521D01*
X154404466Y-97570113D01*
X154351472Y-97581748D01*
X154297182Y-97585631D01*
X154220555Y-97579264D01*
X154149537Y-97560535D01*
X154084387Y-97529762D01*
X154029248Y-97488728D01*
X153983801Y-97437567D01*
X153948831Y-97376498D01*
X153932748Y-97331917D01*
X153922863Y-97283314D01*
X153919461Y-97230013D01*
X153922864Y-97176713D01*
X153927922Y-97151856D01*
X154129265Y-97151856D01*
X154406298Y-97151856D01*
X154402989Y-97118890D01*
X154391469Y-97089798D01*
X154371310Y-97063501D01*
X154345069Y-97043310D01*
X154314273Y-97031076D01*
X154277582Y-97026803D01*
X154243924Y-97029657D01*
X154215971Y-97037672D01*
X154190994Y-97050292D01*
X154170542Y-97065577D01*
X154153721Y-97083971D01*
X154141172Y-97104961D01*
X154132938Y-97127915D01*
X154129265Y-97151856D01*
X153927922Y-97151856D01*
X153932750Y-97128131D01*
X153948831Y-97083590D01*
X153983805Y-97022470D01*
X154029248Y-96971299D01*
X154084437Y-96930262D01*
X154149598Y-96899492D01*
X154220563Y-96880764D01*
X154297182Y-96874396D01*
X154367605Y-96880874D01*
G37*
G36*
X154743475Y-96890027D02*
G01*
X154944975Y-96890027D01*
X154944975Y-96982473D01*
X154947723Y-96982473D01*
X154975689Y-96943700D01*
X155019042Y-96909078D01*
X155045529Y-96895408D01*
X155076439Y-96884105D01*
X155109515Y-96876894D01*
X155146414Y-96874396D01*
X155199286Y-96877498D01*
X155241557Y-96885980D01*
X155275130Y-96898881D01*
X155318986Y-96928306D01*
X155351334Y-96966598D01*
X155373899Y-97012784D01*
X155388398Y-97068569D01*
X155395681Y-97128485D01*
X155398229Y-97195636D01*
X155398229Y-97570000D01*
X155188363Y-97570000D01*
X155188363Y-97237096D01*
X155186226Y-97176280D01*
X155181966Y-97145652D01*
X155173648Y-97118211D01*
X155160306Y-97093990D01*
X155141469Y-97074858D01*
X155116663Y-97062708D01*
X155079248Y-97058066D01*
X155041141Y-97062065D01*
X155013485Y-97072782D01*
X154991186Y-97090000D01*
X154975017Y-97111922D01*
X154964097Y-97137612D01*
X154957493Y-97167182D01*
X154953340Y-97231479D01*
X154953340Y-97570000D01*
X154743475Y-97570000D01*
X154743475Y-96890027D01*
G37*
G36*
X156009630Y-97058066D02*
G01*
X155824982Y-97058066D01*
X155824982Y-97284174D01*
X155827730Y-97335099D01*
X155832419Y-97357003D01*
X155840308Y-97374911D01*
X155852493Y-97389512D01*
X155870411Y-97400739D01*
X155892601Y-97407265D01*
X155924328Y-97409776D01*
X155968353Y-97406296D01*
X155993328Y-97400059D01*
X156009630Y-97390054D01*
X156009630Y-97564687D01*
X155974037Y-97575137D01*
X155936845Y-97581418D01*
X155862718Y-97585631D01*
X155810809Y-97582738D01*
X155764776Y-97574457D01*
X155722307Y-97559740D01*
X155686435Y-97538859D01*
X155656709Y-97510949D01*
X155633984Y-97475355D01*
X155620142Y-97433615D01*
X155615116Y-97380467D01*
X155615116Y-97058066D01*
X155480783Y-97058066D01*
X155480783Y-96890027D01*
X155615116Y-96890027D01*
X155615116Y-96688527D01*
X155824982Y-96688527D01*
X155824982Y-96890027D01*
X156009630Y-96890027D01*
X156009630Y-97058066D01*
G37*
G36*
X156915099Y-97091955D02*
G01*
X156880948Y-97060025D01*
X156841025Y-97041145D01*
X156793405Y-97034619D01*
X156767320Y-97037707D01*
X156741626Y-97047137D01*
X156722912Y-97063925D01*
X156716469Y-97090307D01*
X156722707Y-97111707D01*
X156742358Y-97127187D01*
X156808060Y-97148009D01*
X156893422Y-97167487D01*
X156937609Y-97180935D01*
X156978724Y-97200216D01*
X157015051Y-97226411D01*
X157044487Y-97260727D01*
X157058255Y-97287467D01*
X157067146Y-97321005D01*
X157070376Y-97363004D01*
X157066895Y-97405775D01*
X157057130Y-97441266D01*
X157041678Y-97470837D01*
X157009049Y-97509070D01*
X156968283Y-97539042D01*
X156921324Y-97560713D01*
X156867533Y-97575190D01*
X156811661Y-97583047D01*
X156757013Y-97585631D01*
X156685834Y-97580604D01*
X156612910Y-97565237D01*
X156566496Y-97547936D01*
X156525704Y-97523890D01*
X156489811Y-97492880D01*
X156617123Y-97351280D01*
X156648655Y-97383760D01*
X156682152Y-97406540D01*
X156719985Y-97420496D01*
X156765439Y-97425408D01*
X156800657Y-97422697D01*
X156831141Y-97414966D01*
X156847976Y-97405664D01*
X156857345Y-97393212D01*
X156860572Y-97376681D01*
X156854269Y-97353816D01*
X156834682Y-97337053D01*
X156806773Y-97325361D01*
X156768920Y-97314766D01*
X156683557Y-97295287D01*
X156639334Y-97282184D01*
X156598255Y-97264024D01*
X156561985Y-97238887D01*
X156532493Y-97204856D01*
X156518724Y-97178117D01*
X156509833Y-97144579D01*
X156506603Y-97102580D01*
X156513018Y-97045706D01*
X156531088Y-96999631D01*
X156559503Y-96960217D01*
X156595446Y-96928679D01*
X156637760Y-96904733D01*
X156687037Y-96887646D01*
X156739199Y-96877704D01*
X156792001Y-96874396D01*
X156859016Y-96879241D01*
X156927678Y-96894057D01*
X156971344Y-96910745D01*
X157009834Y-96934079D01*
X157043815Y-96964338D01*
X156915099Y-97091955D01*
G37*
G36*
X157641172Y-97058066D02*
G01*
X157456524Y-97058066D01*
X157456524Y-97284174D01*
X157459272Y-97335099D01*
X157463962Y-97357003D01*
X157471851Y-97374911D01*
X157484035Y-97389512D01*
X157501954Y-97400739D01*
X157524143Y-97407265D01*
X157555870Y-97409776D01*
X157599895Y-97406296D01*
X157624870Y-97400059D01*
X157641172Y-97390054D01*
X157641172Y-97564687D01*
X157605580Y-97575137D01*
X157568388Y-97581418D01*
X157494260Y-97585631D01*
X157442352Y-97582738D01*
X157396318Y-97574457D01*
X157353849Y-97559740D01*
X157317978Y-97538859D01*
X157288251Y-97510949D01*
X157265526Y-97475355D01*
X157251684Y-97433615D01*
X157246659Y-97380467D01*
X157246659Y-97058066D01*
X157112325Y-97058066D01*
X157112325Y-96890027D01*
X157246659Y-96890027D01*
X157246659Y-96688527D01*
X157456524Y-96688527D01*
X157456524Y-96890027D01*
X157641172Y-96890027D01*
X157641172Y-97058066D01*
G37*
G36*
X158144656Y-96880744D02*
G01*
X158208609Y-96897477D01*
X158246319Y-96915648D01*
X158277773Y-96938192D01*
X158303742Y-96965193D01*
X158333563Y-97013937D01*
X158353445Y-97074858D01*
X158363698Y-97142378D01*
X158367428Y-97225006D01*
X158367428Y-97570000D01*
X158174354Y-97570000D01*
X158174354Y-97482133D01*
X158171606Y-97482133D01*
X158145429Y-97515849D01*
X158114588Y-97542102D01*
X158078550Y-97561573D01*
X158019084Y-97579582D01*
X157956123Y-97585631D01*
X157909244Y-97582307D01*
X157864471Y-97572442D01*
X157822657Y-97555775D01*
X157786802Y-97532875D01*
X157756823Y-97503460D01*
X157733679Y-97467662D01*
X157719184Y-97426632D01*
X157714078Y-97377475D01*
X157715000Y-97368621D01*
X157915579Y-97368621D01*
X157919239Y-97391323D01*
X157929731Y-97409132D01*
X157947758Y-97423271D01*
X157980835Y-97436653D01*
X158014864Y-97441039D01*
X158045229Y-97438979D01*
X158074337Y-97432857D01*
X158101769Y-97422819D01*
X158125383Y-97409654D01*
X158145527Y-97392516D01*
X158161043Y-97371369D01*
X158170890Y-97346658D01*
X158174354Y-97316720D01*
X158174354Y-97273000D01*
X158122575Y-97273000D01*
X158063163Y-97275076D01*
X158028021Y-97279013D01*
X157994591Y-97286678D01*
X157963731Y-97298848D01*
X157938660Y-97315376D01*
X157921549Y-97337787D01*
X157915579Y-97368621D01*
X157715000Y-97368621D01*
X157719839Y-97322156D01*
X157735755Y-97278923D01*
X157761295Y-97242130D01*
X157794495Y-97212306D01*
X157833775Y-97189109D01*
X157879187Y-97171395D01*
X157927417Y-97158755D01*
X157977800Y-97149841D01*
X158079893Y-97141536D01*
X158174354Y-97140132D01*
X158169737Y-97104893D01*
X158156526Y-97075924D01*
X158134481Y-97051716D01*
X158106457Y-97033611D01*
X158075297Y-97022727D01*
X158040082Y-97018988D01*
X157990121Y-97024512D01*
X157945621Y-97040664D01*
X157905518Y-97066169D01*
X157869417Y-97100137D01*
X157757493Y-96984977D01*
X157798694Y-96951273D01*
X157844226Y-96923690D01*
X157894574Y-96902056D01*
X157974216Y-96881329D01*
X158056873Y-96874396D01*
X158144656Y-96880744D01*
G37*
G36*
X158498953Y-96890027D02*
G01*
X158700453Y-96890027D01*
X158700453Y-96982473D01*
X158703201Y-96982473D01*
X158731167Y-96943700D01*
X158774520Y-96909078D01*
X158801007Y-96895408D01*
X158831917Y-96884105D01*
X158864993Y-96876894D01*
X158901892Y-96874396D01*
X158948713Y-96877790D01*
X158990645Y-96887598D01*
X159028471Y-96903522D01*
X159061973Y-96926342D01*
X159089600Y-96956493D01*
X159111758Y-96995052D01*
X159138941Y-96954242D01*
X159168268Y-96923813D01*
X159199869Y-96902178D01*
X159235427Y-96887247D01*
X159277441Y-96877767D01*
X159327180Y-96874396D01*
X159392330Y-96880577D01*
X159442585Y-96897477D01*
X159484941Y-96925002D01*
X159516774Y-96960308D01*
X159539885Y-97002852D01*
X159555914Y-97053914D01*
X159564761Y-97108791D01*
X159567821Y-97169136D01*
X159567821Y-97570000D01*
X159357955Y-97570000D01*
X159357955Y-97174143D01*
X159352657Y-97128989D01*
X159337683Y-97092322D01*
X159321434Y-97073869D01*
X159298254Y-97062333D01*
X159265631Y-97058066D01*
X159231081Y-97061270D01*
X159204754Y-97069973D01*
X159182569Y-97084228D01*
X159165553Y-97102824D01*
X159153135Y-97125230D01*
X159144609Y-97151795D01*
X159138320Y-97210535D01*
X159138320Y-97570000D01*
X158928454Y-97570000D01*
X158928454Y-97210535D01*
X158927049Y-97165778D01*
X158917219Y-97115464D01*
X158906229Y-97093407D01*
X158889986Y-97074858D01*
X158868057Y-97062678D01*
X158834726Y-97058066D01*
X158796619Y-97062065D01*
X158768963Y-97072782D01*
X158746664Y-97090000D01*
X158730495Y-97111922D01*
X158719575Y-97137612D01*
X158712971Y-97167182D01*
X158708818Y-97231479D01*
X158708818Y-97570000D01*
X158498953Y-97570000D01*
X158498953Y-96890027D01*
G37*
G36*
X160213285Y-96881052D02*
G01*
X160277285Y-96900225D01*
X160334713Y-96931396D01*
X160382920Y-96972704D01*
X160421661Y-97023353D01*
X160450758Y-97083590D01*
X160468448Y-97149864D01*
X160474572Y-97224457D01*
X160469102Y-97294292D01*
X160452896Y-97360378D01*
X160426432Y-97422021D01*
X160391346Y-97475478D01*
X160347153Y-97520567D01*
X160294077Y-97555650D01*
X160254856Y-97572075D01*
X160211733Y-97582155D01*
X160163956Y-97585631D01*
X160099801Y-97580483D01*
X160041530Y-97565481D01*
X160005997Y-97548820D01*
X159975183Y-97526015D01*
X159948534Y-97496605D01*
X159945725Y-97496605D01*
X159945725Y-97890446D01*
X159735860Y-97890446D01*
X159735860Y-97230013D01*
X159928934Y-97230013D01*
X159934169Y-97279548D01*
X159948974Y-97320405D01*
X159972958Y-97354455D01*
X160005205Y-97380214D01*
X160045667Y-97396222D01*
X160096790Y-97401960D01*
X160147912Y-97396222D01*
X160188374Y-97380214D01*
X160220621Y-97354455D01*
X160244641Y-97320401D01*
X160259465Y-97279544D01*
X160264706Y-97230013D01*
X160259464Y-97180484D01*
X160244639Y-97139650D01*
X160220621Y-97105633D01*
X160188370Y-97079838D01*
X160147907Y-97063811D01*
X160096790Y-97058066D01*
X160045672Y-97063811D01*
X160005209Y-97079838D01*
X159972958Y-97105633D01*
X159948976Y-97139645D01*
X159934170Y-97180480D01*
X159928934Y-97230013D01*
X159735860Y-97230013D01*
X159735860Y-96890027D01*
X159928934Y-96890027D01*
X159928934Y-96979665D01*
X159931742Y-96979665D01*
X159964593Y-96942967D01*
X160012159Y-96909078D01*
X160071633Y-96884105D01*
X160104533Y-96876870D01*
X160140204Y-96874396D01*
X160213285Y-96881052D01*
G37*
G36*
X155315218Y-98237814D02*
G01*
X155834008Y-98237814D01*
X156473616Y-99534867D01*
X155969095Y-99534867D01*
X155574690Y-98689138D01*
X155176719Y-99534867D01*
X154675609Y-99534867D01*
X155315218Y-98237814D01*
G37*
D10*
X145783999Y-92920959D02*
X145572332Y-92618578D01*
X145421142Y-92920959D02*
X145421142Y-92285959D01*
X145421142Y-92285959D02*
X145663047Y-92285959D01*
X145663047Y-92285959D02*
X145723523Y-92316197D01*
X145723523Y-92316197D02*
X145753761Y-92346435D01*
X145753761Y-92346435D02*
X145783999Y-92406911D01*
X145783999Y-92406911D02*
X145783999Y-92497625D01*
X145783999Y-92497625D02*
X145753761Y-92558101D01*
X145753761Y-92558101D02*
X145723523Y-92588340D01*
X145723523Y-92588340D02*
X145663047Y-92618578D01*
X145663047Y-92618578D02*
X145421142Y-92618578D01*
X146388761Y-92920959D02*
X146025904Y-92920959D01*
X146207332Y-92920959D02*
X146207332Y-92285959D01*
X146207332Y-92285959D02*
X146146856Y-92376673D01*
X146146856Y-92376673D02*
X146086380Y-92437149D01*
X146086380Y-92437149D02*
X146025904Y-92467387D01*
X146691142Y-92920959D02*
X146812094Y-92920959D01*
X146812094Y-92920959D02*
X146872571Y-92890721D01*
X146872571Y-92890721D02*
X146902809Y-92860482D01*
X146902809Y-92860482D02*
X146963285Y-92769768D01*
X146963285Y-92769768D02*
X146993523Y-92648816D01*
X146993523Y-92648816D02*
X146993523Y-92406911D01*
X146993523Y-92406911D02*
X146963285Y-92346435D01*
X146963285Y-92346435D02*
X146933047Y-92316197D01*
X146933047Y-92316197D02*
X146872571Y-92285959D01*
X146872571Y-92285959D02*
X146751618Y-92285959D01*
X146751618Y-92285959D02*
X146691142Y-92316197D01*
X146691142Y-92316197D02*
X146660904Y-92346435D01*
X146660904Y-92346435D02*
X146630666Y-92406911D01*
X146630666Y-92406911D02*
X146630666Y-92558101D01*
X146630666Y-92558101D02*
X146660904Y-92618578D01*
X146660904Y-92618578D02*
X146691142Y-92648816D01*
X146691142Y-92648816D02*
X146751618Y-92679054D01*
X146751618Y-92679054D02*
X146872571Y-92679054D01*
X146872571Y-92679054D02*
X146933047Y-92648816D01*
X146933047Y-92648816D02*
X146963285Y-92618578D01*
X146963285Y-92618578D02*
X146993523Y-92558101D01*
X172834999Y-92920959D02*
X172623332Y-92618578D01*
X172472142Y-92920959D02*
X172472142Y-92285959D01*
X172472142Y-92285959D02*
X172714047Y-92285959D01*
X172714047Y-92285959D02*
X172774523Y-92316197D01*
X172774523Y-92316197D02*
X172804761Y-92346435D01*
X172804761Y-92346435D02*
X172834999Y-92406911D01*
X172834999Y-92406911D02*
X172834999Y-92497625D01*
X172834999Y-92497625D02*
X172804761Y-92558101D01*
X172804761Y-92558101D02*
X172774523Y-92588340D01*
X172774523Y-92588340D02*
X172714047Y-92618578D01*
X172714047Y-92618578D02*
X172472142Y-92618578D01*
X173076904Y-92346435D02*
X173107142Y-92316197D01*
X173107142Y-92316197D02*
X173167618Y-92285959D01*
X173167618Y-92285959D02*
X173318809Y-92285959D01*
X173318809Y-92285959D02*
X173379285Y-92316197D01*
X173379285Y-92316197D02*
X173409523Y-92346435D01*
X173409523Y-92346435D02*
X173439761Y-92406911D01*
X173439761Y-92406911D02*
X173439761Y-92467387D01*
X173439761Y-92467387D02*
X173409523Y-92558101D01*
X173409523Y-92558101D02*
X173046666Y-92920959D01*
X173046666Y-92920959D02*
X173439761Y-92920959D01*
X145783999Y-91447759D02*
X145572332Y-91145378D01*
X145421142Y-91447759D02*
X145421142Y-90812759D01*
X145421142Y-90812759D02*
X145663047Y-90812759D01*
X145663047Y-90812759D02*
X145723523Y-90842997D01*
X145723523Y-90842997D02*
X145753761Y-90873235D01*
X145753761Y-90873235D02*
X145783999Y-90933711D01*
X145783999Y-90933711D02*
X145783999Y-91024425D01*
X145783999Y-91024425D02*
X145753761Y-91084901D01*
X145753761Y-91084901D02*
X145723523Y-91115140D01*
X145723523Y-91115140D02*
X145663047Y-91145378D01*
X145663047Y-91145378D02*
X145421142Y-91145378D01*
X146388761Y-91447759D02*
X146025904Y-91447759D01*
X146207332Y-91447759D02*
X146207332Y-90812759D01*
X146207332Y-90812759D02*
X146146856Y-90903473D01*
X146146856Y-90903473D02*
X146086380Y-90963949D01*
X146086380Y-90963949D02*
X146025904Y-90994187D01*
X146751618Y-91084901D02*
X146691142Y-91054663D01*
X146691142Y-91054663D02*
X146660904Y-91024425D01*
X146660904Y-91024425D02*
X146630666Y-90963949D01*
X146630666Y-90963949D02*
X146630666Y-90933711D01*
X146630666Y-90933711D02*
X146660904Y-90873235D01*
X146660904Y-90873235D02*
X146691142Y-90842997D01*
X146691142Y-90842997D02*
X146751618Y-90812759D01*
X146751618Y-90812759D02*
X146872571Y-90812759D01*
X146872571Y-90812759D02*
X146933047Y-90842997D01*
X146933047Y-90842997D02*
X146963285Y-90873235D01*
X146963285Y-90873235D02*
X146993523Y-90933711D01*
X146993523Y-90933711D02*
X146993523Y-90963949D01*
X146993523Y-90963949D02*
X146963285Y-91024425D01*
X146963285Y-91024425D02*
X146933047Y-91054663D01*
X146933047Y-91054663D02*
X146872571Y-91084901D01*
X146872571Y-91084901D02*
X146751618Y-91084901D01*
X146751618Y-91084901D02*
X146691142Y-91115140D01*
X146691142Y-91115140D02*
X146660904Y-91145378D01*
X146660904Y-91145378D02*
X146630666Y-91205854D01*
X146630666Y-91205854D02*
X146630666Y-91326806D01*
X146630666Y-91326806D02*
X146660904Y-91387282D01*
X146660904Y-91387282D02*
X146691142Y-91417521D01*
X146691142Y-91417521D02*
X146751618Y-91447759D01*
X146751618Y-91447759D02*
X146872571Y-91447759D01*
X146872571Y-91447759D02*
X146933047Y-91417521D01*
X146933047Y-91417521D02*
X146963285Y-91387282D01*
X146963285Y-91387282D02*
X146993523Y-91326806D01*
X146993523Y-91326806D02*
X146993523Y-91205854D01*
X146993523Y-91205854D02*
X146963285Y-91145378D01*
X146963285Y-91145378D02*
X146933047Y-91115140D01*
X146933047Y-91115140D02*
X146872571Y-91084901D01*
X145783999Y-106382959D02*
X145572332Y-106080578D01*
X145421142Y-106382959D02*
X145421142Y-105747959D01*
X145421142Y-105747959D02*
X145663047Y-105747959D01*
X145663047Y-105747959D02*
X145723523Y-105778197D01*
X145723523Y-105778197D02*
X145753761Y-105808435D01*
X145753761Y-105808435D02*
X145783999Y-105868911D01*
X145783999Y-105868911D02*
X145783999Y-105959625D01*
X145783999Y-105959625D02*
X145753761Y-106020101D01*
X145753761Y-106020101D02*
X145723523Y-106050340D01*
X145723523Y-106050340D02*
X145663047Y-106080578D01*
X145663047Y-106080578D02*
X145421142Y-106080578D01*
X146025904Y-105808435D02*
X146056142Y-105778197D01*
X146056142Y-105778197D02*
X146116618Y-105747959D01*
X146116618Y-105747959D02*
X146267809Y-105747959D01*
X146267809Y-105747959D02*
X146328285Y-105778197D01*
X146328285Y-105778197D02*
X146358523Y-105808435D01*
X146358523Y-105808435D02*
X146388761Y-105868911D01*
X146388761Y-105868911D02*
X146388761Y-105929387D01*
X146388761Y-105929387D02*
X146358523Y-106020101D01*
X146358523Y-106020101D02*
X145995666Y-106382959D01*
X145995666Y-106382959D02*
X146388761Y-106382959D01*
X146600428Y-105747959D02*
X147023761Y-105747959D01*
X147023761Y-105747959D02*
X146751618Y-106382959D01*
X137498571Y-100490159D02*
X137286904Y-100187778D01*
X137135714Y-100490159D02*
X137135714Y-99855159D01*
X137135714Y-99855159D02*
X137377619Y-99855159D01*
X137377619Y-99855159D02*
X137438095Y-99885397D01*
X137438095Y-99885397D02*
X137468333Y-99915635D01*
X137468333Y-99915635D02*
X137498571Y-99976111D01*
X137498571Y-99976111D02*
X137498571Y-100066825D01*
X137498571Y-100066825D02*
X137468333Y-100127301D01*
X137468333Y-100127301D02*
X137438095Y-100157540D01*
X137438095Y-100157540D02*
X137377619Y-100187778D01*
X137377619Y-100187778D02*
X137135714Y-100187778D01*
X137740476Y-99915635D02*
X137770714Y-99885397D01*
X137770714Y-99885397D02*
X137831190Y-99855159D01*
X137831190Y-99855159D02*
X137982381Y-99855159D01*
X137982381Y-99855159D02*
X138042857Y-99885397D01*
X138042857Y-99885397D02*
X138073095Y-99915635D01*
X138073095Y-99915635D02*
X138103333Y-99976111D01*
X138103333Y-99976111D02*
X138103333Y-100036587D01*
X138103333Y-100036587D02*
X138073095Y-100127301D01*
X138073095Y-100127301D02*
X137710238Y-100490159D01*
X137710238Y-100490159D02*
X138103333Y-100490159D01*
X138708095Y-100490159D02*
X138345238Y-100490159D01*
X138526666Y-100490159D02*
X138526666Y-99855159D01*
X138526666Y-99855159D02*
X138466190Y-99945873D01*
X138466190Y-99945873D02*
X138405714Y-100006349D01*
X138405714Y-100006349D02*
X138345238Y-100036587D01*
X164549571Y-101963359D02*
X164337904Y-101660978D01*
X164186714Y-101963359D02*
X164186714Y-101328359D01*
X164186714Y-101328359D02*
X164428619Y-101328359D01*
X164428619Y-101328359D02*
X164489095Y-101358597D01*
X164489095Y-101358597D02*
X164519333Y-101388835D01*
X164519333Y-101388835D02*
X164549571Y-101449311D01*
X164549571Y-101449311D02*
X164549571Y-101540025D01*
X164549571Y-101540025D02*
X164519333Y-101600501D01*
X164519333Y-101600501D02*
X164489095Y-101630740D01*
X164489095Y-101630740D02*
X164428619Y-101660978D01*
X164428619Y-101660978D02*
X164186714Y-101660978D01*
X165154333Y-101963359D02*
X164791476Y-101963359D01*
X164972904Y-101963359D02*
X164972904Y-101328359D01*
X164972904Y-101328359D02*
X164912428Y-101419073D01*
X164912428Y-101419073D02*
X164851952Y-101479549D01*
X164851952Y-101479549D02*
X164791476Y-101509787D01*
X165759095Y-101963359D02*
X165396238Y-101963359D01*
X165577666Y-101963359D02*
X165577666Y-101328359D01*
X165577666Y-101328359D02*
X165517190Y-101419073D01*
X165517190Y-101419073D02*
X165456714Y-101479549D01*
X165456714Y-101479549D02*
X165396238Y-101509787D01*
X165154333Y-92920959D02*
X164942666Y-92618578D01*
X164791476Y-92920959D02*
X164791476Y-92285959D01*
X164791476Y-92285959D02*
X165033381Y-92285959D01*
X165033381Y-92285959D02*
X165093857Y-92316197D01*
X165093857Y-92316197D02*
X165124095Y-92346435D01*
X165124095Y-92346435D02*
X165154333Y-92406911D01*
X165154333Y-92406911D02*
X165154333Y-92497625D01*
X165154333Y-92497625D02*
X165124095Y-92558101D01*
X165124095Y-92558101D02*
X165093857Y-92588340D01*
X165093857Y-92588340D02*
X165033381Y-92618578D01*
X165033381Y-92618578D02*
X164791476Y-92618578D01*
X165366000Y-92285959D02*
X165759095Y-92285959D01*
X165759095Y-92285959D02*
X165547428Y-92527863D01*
X165547428Y-92527863D02*
X165638143Y-92527863D01*
X165638143Y-92527863D02*
X165698619Y-92558101D01*
X165698619Y-92558101D02*
X165728857Y-92588340D01*
X165728857Y-92588340D02*
X165759095Y-92648816D01*
X165759095Y-92648816D02*
X165759095Y-92800006D01*
X165759095Y-92800006D02*
X165728857Y-92860482D01*
X165728857Y-92860482D02*
X165698619Y-92890721D01*
X165698619Y-92890721D02*
X165638143Y-92920959D01*
X165638143Y-92920959D02*
X165456714Y-92920959D01*
X165456714Y-92920959D02*
X165396238Y-92890721D01*
X165396238Y-92890721D02*
X165366000Y-92860482D01*
X145783999Y-94394159D02*
X145572332Y-94091778D01*
X145421142Y-94394159D02*
X145421142Y-93759159D01*
X145421142Y-93759159D02*
X145663047Y-93759159D01*
X145663047Y-93759159D02*
X145723523Y-93789397D01*
X145723523Y-93789397D02*
X145753761Y-93819635D01*
X145753761Y-93819635D02*
X145783999Y-93880111D01*
X145783999Y-93880111D02*
X145783999Y-93970825D01*
X145783999Y-93970825D02*
X145753761Y-94031301D01*
X145753761Y-94031301D02*
X145723523Y-94061540D01*
X145723523Y-94061540D02*
X145663047Y-94091778D01*
X145663047Y-94091778D02*
X145421142Y-94091778D01*
X146025904Y-93819635D02*
X146056142Y-93789397D01*
X146056142Y-93789397D02*
X146116618Y-93759159D01*
X146116618Y-93759159D02*
X146267809Y-93759159D01*
X146267809Y-93759159D02*
X146328285Y-93789397D01*
X146328285Y-93789397D02*
X146358523Y-93819635D01*
X146358523Y-93819635D02*
X146388761Y-93880111D01*
X146388761Y-93880111D02*
X146388761Y-93940587D01*
X146388761Y-93940587D02*
X146358523Y-94031301D01*
X146358523Y-94031301D02*
X145995666Y-94394159D01*
X145995666Y-94394159D02*
X146388761Y-94394159D01*
X146781856Y-93759159D02*
X146842333Y-93759159D01*
X146842333Y-93759159D02*
X146902809Y-93789397D01*
X146902809Y-93789397D02*
X146933047Y-93819635D01*
X146933047Y-93819635D02*
X146963285Y-93880111D01*
X146963285Y-93880111D02*
X146993523Y-94001063D01*
X146993523Y-94001063D02*
X146993523Y-94152254D01*
X146993523Y-94152254D02*
X146963285Y-94273206D01*
X146963285Y-94273206D02*
X146933047Y-94333682D01*
X146933047Y-94333682D02*
X146902809Y-94363921D01*
X146902809Y-94363921D02*
X146842333Y-94394159D01*
X146842333Y-94394159D02*
X146781856Y-94394159D01*
X146781856Y-94394159D02*
X146721380Y-94363921D01*
X146721380Y-94363921D02*
X146691142Y-94333682D01*
X146691142Y-94333682D02*
X146660904Y-94273206D01*
X146660904Y-94273206D02*
X146630666Y-94152254D01*
X146630666Y-94152254D02*
X146630666Y-94001063D01*
X146630666Y-94001063D02*
X146660904Y-93880111D01*
X146660904Y-93880111D02*
X146691142Y-93819635D01*
X146691142Y-93819635D02*
X146721380Y-93789397D01*
X146721380Y-93789397D02*
X146781856Y-93759159D01*
X172834999Y-94394159D02*
X172623332Y-94091778D01*
X172472142Y-94394159D02*
X172472142Y-93759159D01*
X172472142Y-93759159D02*
X172714047Y-93759159D01*
X172714047Y-93759159D02*
X172774523Y-93789397D01*
X172774523Y-93789397D02*
X172804761Y-93819635D01*
X172804761Y-93819635D02*
X172834999Y-93880111D01*
X172834999Y-93880111D02*
X172834999Y-93970825D01*
X172834999Y-93970825D02*
X172804761Y-94031301D01*
X172804761Y-94031301D02*
X172774523Y-94061540D01*
X172774523Y-94061540D02*
X172714047Y-94091778D01*
X172714047Y-94091778D02*
X172472142Y-94091778D01*
X173439761Y-94394159D02*
X173076904Y-94394159D01*
X173258332Y-94394159D02*
X173258332Y-93759159D01*
X173258332Y-93759159D02*
X173197856Y-93849873D01*
X173197856Y-93849873D02*
X173137380Y-93910349D01*
X173137380Y-93910349D02*
X173076904Y-93940587D01*
X165154333Y-91447759D02*
X164942666Y-91145378D01*
X164791476Y-91447759D02*
X164791476Y-90812759D01*
X164791476Y-90812759D02*
X165033381Y-90812759D01*
X165033381Y-90812759D02*
X165093857Y-90842997D01*
X165093857Y-90842997D02*
X165124095Y-90873235D01*
X165124095Y-90873235D02*
X165154333Y-90933711D01*
X165154333Y-90933711D02*
X165154333Y-91024425D01*
X165154333Y-91024425D02*
X165124095Y-91084901D01*
X165124095Y-91084901D02*
X165093857Y-91115140D01*
X165093857Y-91115140D02*
X165033381Y-91145378D01*
X165033381Y-91145378D02*
X164791476Y-91145378D01*
X165517190Y-91084901D02*
X165456714Y-91054663D01*
X165456714Y-91054663D02*
X165426476Y-91024425D01*
X165426476Y-91024425D02*
X165396238Y-90963949D01*
X165396238Y-90963949D02*
X165396238Y-90933711D01*
X165396238Y-90933711D02*
X165426476Y-90873235D01*
X165426476Y-90873235D02*
X165456714Y-90842997D01*
X165456714Y-90842997D02*
X165517190Y-90812759D01*
X165517190Y-90812759D02*
X165638143Y-90812759D01*
X165638143Y-90812759D02*
X165698619Y-90842997D01*
X165698619Y-90842997D02*
X165728857Y-90873235D01*
X165728857Y-90873235D02*
X165759095Y-90933711D01*
X165759095Y-90933711D02*
X165759095Y-90963949D01*
X165759095Y-90963949D02*
X165728857Y-91024425D01*
X165728857Y-91024425D02*
X165698619Y-91054663D01*
X165698619Y-91054663D02*
X165638143Y-91084901D01*
X165638143Y-91084901D02*
X165517190Y-91084901D01*
X165517190Y-91084901D02*
X165456714Y-91115140D01*
X165456714Y-91115140D02*
X165426476Y-91145378D01*
X165426476Y-91145378D02*
X165396238Y-91205854D01*
X165396238Y-91205854D02*
X165396238Y-91326806D01*
X165396238Y-91326806D02*
X165426476Y-91387282D01*
X165426476Y-91387282D02*
X165456714Y-91417521D01*
X165456714Y-91417521D02*
X165517190Y-91447759D01*
X165517190Y-91447759D02*
X165638143Y-91447759D01*
X165638143Y-91447759D02*
X165698619Y-91417521D01*
X165698619Y-91417521D02*
X165728857Y-91387282D01*
X165728857Y-91387282D02*
X165759095Y-91326806D01*
X165759095Y-91326806D02*
X165759095Y-91205854D01*
X165759095Y-91205854D02*
X165728857Y-91145378D01*
X165728857Y-91145378D02*
X165698619Y-91115140D01*
X165698619Y-91115140D02*
X165638143Y-91084901D01*
X145783999Y-101963359D02*
X145572332Y-101660978D01*
X145421142Y-101963359D02*
X145421142Y-101328359D01*
X145421142Y-101328359D02*
X145663047Y-101328359D01*
X145663047Y-101328359D02*
X145723523Y-101358597D01*
X145723523Y-101358597D02*
X145753761Y-101388835D01*
X145753761Y-101388835D02*
X145783999Y-101449311D01*
X145783999Y-101449311D02*
X145783999Y-101540025D01*
X145783999Y-101540025D02*
X145753761Y-101600501D01*
X145753761Y-101600501D02*
X145723523Y-101630740D01*
X145723523Y-101630740D02*
X145663047Y-101660978D01*
X145663047Y-101660978D02*
X145421142Y-101660978D01*
X146025904Y-101388835D02*
X146056142Y-101358597D01*
X146056142Y-101358597D02*
X146116618Y-101328359D01*
X146116618Y-101328359D02*
X146267809Y-101328359D01*
X146267809Y-101328359D02*
X146328285Y-101358597D01*
X146328285Y-101358597D02*
X146358523Y-101388835D01*
X146358523Y-101388835D02*
X146388761Y-101449311D01*
X146388761Y-101449311D02*
X146388761Y-101509787D01*
X146388761Y-101509787D02*
X146358523Y-101600501D01*
X146358523Y-101600501D02*
X145995666Y-101963359D01*
X145995666Y-101963359D02*
X146388761Y-101963359D01*
X146963285Y-101328359D02*
X146660904Y-101328359D01*
X146660904Y-101328359D02*
X146630666Y-101630740D01*
X146630666Y-101630740D02*
X146660904Y-101600501D01*
X146660904Y-101600501D02*
X146721380Y-101570263D01*
X146721380Y-101570263D02*
X146872571Y-101570263D01*
X146872571Y-101570263D02*
X146933047Y-101600501D01*
X146933047Y-101600501D02*
X146963285Y-101630740D01*
X146963285Y-101630740D02*
X146993523Y-101691216D01*
X146993523Y-101691216D02*
X146993523Y-101842406D01*
X146993523Y-101842406D02*
X146963285Y-101902882D01*
X146963285Y-101902882D02*
X146933047Y-101933121D01*
X146933047Y-101933121D02*
X146872571Y-101963359D01*
X146872571Y-101963359D02*
X146721380Y-101963359D01*
X146721380Y-101963359D02*
X146660904Y-101933121D01*
X146660904Y-101933121D02*
X146630666Y-101902882D01*
X172834999Y-91447759D02*
X172623332Y-91145378D01*
X172472142Y-91447759D02*
X172472142Y-90812759D01*
X172472142Y-90812759D02*
X172714047Y-90812759D01*
X172714047Y-90812759D02*
X172774523Y-90842997D01*
X172774523Y-90842997D02*
X172804761Y-90873235D01*
X172804761Y-90873235D02*
X172834999Y-90933711D01*
X172834999Y-90933711D02*
X172834999Y-91024425D01*
X172834999Y-91024425D02*
X172804761Y-91084901D01*
X172804761Y-91084901D02*
X172774523Y-91115140D01*
X172774523Y-91115140D02*
X172714047Y-91145378D01*
X172714047Y-91145378D02*
X172472142Y-91145378D01*
X173379285Y-91024425D02*
X173379285Y-91447759D01*
X173228094Y-90782521D02*
X173076904Y-91236092D01*
X173076904Y-91236092D02*
X173469999Y-91236092D01*
X172834999Y-106382959D02*
X172623332Y-106080578D01*
X172472142Y-106382959D02*
X172472142Y-105747959D01*
X172472142Y-105747959D02*
X172714047Y-105747959D01*
X172714047Y-105747959D02*
X172774523Y-105778197D01*
X172774523Y-105778197D02*
X172804761Y-105808435D01*
X172804761Y-105808435D02*
X172834999Y-105868911D01*
X172834999Y-105868911D02*
X172834999Y-105959625D01*
X172834999Y-105959625D02*
X172804761Y-106020101D01*
X172804761Y-106020101D02*
X172774523Y-106050340D01*
X172774523Y-106050340D02*
X172714047Y-106080578D01*
X172714047Y-106080578D02*
X172472142Y-106080578D01*
X173137380Y-106382959D02*
X173258332Y-106382959D01*
X173258332Y-106382959D02*
X173318809Y-106352721D01*
X173318809Y-106352721D02*
X173349047Y-106322482D01*
X173349047Y-106322482D02*
X173409523Y-106231768D01*
X173409523Y-106231768D02*
X173439761Y-106110816D01*
X173439761Y-106110816D02*
X173439761Y-105868911D01*
X173439761Y-105868911D02*
X173409523Y-105808435D01*
X173409523Y-105808435D02*
X173379285Y-105778197D01*
X173379285Y-105778197D02*
X173318809Y-105747959D01*
X173318809Y-105747959D02*
X173197856Y-105747959D01*
X173197856Y-105747959D02*
X173137380Y-105778197D01*
X173137380Y-105778197D02*
X173107142Y-105808435D01*
X173107142Y-105808435D02*
X173076904Y-105868911D01*
X173076904Y-105868911D02*
X173076904Y-106020101D01*
X173076904Y-106020101D02*
X173107142Y-106080578D01*
X173107142Y-106080578D02*
X173137380Y-106110816D01*
X173137380Y-106110816D02*
X173197856Y-106141054D01*
X173197856Y-106141054D02*
X173318809Y-106141054D01*
X173318809Y-106141054D02*
X173379285Y-106110816D01*
X173379285Y-106110816D02*
X173409523Y-106080578D01*
X173409523Y-106080578D02*
X173439761Y-106020101D01*
X172834999Y-88501359D02*
X172623332Y-88198978D01*
X172472142Y-88501359D02*
X172472142Y-87866359D01*
X172472142Y-87866359D02*
X172714047Y-87866359D01*
X172714047Y-87866359D02*
X172774523Y-87896597D01*
X172774523Y-87896597D02*
X172804761Y-87926835D01*
X172804761Y-87926835D02*
X172834999Y-87987311D01*
X172834999Y-87987311D02*
X172834999Y-88078025D01*
X172834999Y-88078025D02*
X172804761Y-88138501D01*
X172804761Y-88138501D02*
X172774523Y-88168740D01*
X172774523Y-88168740D02*
X172714047Y-88198978D01*
X172714047Y-88198978D02*
X172472142Y-88198978D01*
X173409523Y-87866359D02*
X173107142Y-87866359D01*
X173107142Y-87866359D02*
X173076904Y-88168740D01*
X173076904Y-88168740D02*
X173107142Y-88138501D01*
X173107142Y-88138501D02*
X173167618Y-88108263D01*
X173167618Y-88108263D02*
X173318809Y-88108263D01*
X173318809Y-88108263D02*
X173379285Y-88138501D01*
X173379285Y-88138501D02*
X173409523Y-88168740D01*
X173409523Y-88168740D02*
X173439761Y-88229216D01*
X173439761Y-88229216D02*
X173439761Y-88380406D01*
X173439761Y-88380406D02*
X173409523Y-88440882D01*
X173409523Y-88440882D02*
X173379285Y-88471121D01*
X173379285Y-88471121D02*
X173318809Y-88501359D01*
X173318809Y-88501359D02*
X173167618Y-88501359D01*
X173167618Y-88501359D02*
X173107142Y-88471121D01*
X173107142Y-88471121D02*
X173076904Y-88440882D01*
X137498571Y-94394159D02*
X137286904Y-94091778D01*
X137135714Y-94394159D02*
X137135714Y-93759159D01*
X137135714Y-93759159D02*
X137377619Y-93759159D01*
X137377619Y-93759159D02*
X137438095Y-93789397D01*
X137438095Y-93789397D02*
X137468333Y-93819635D01*
X137468333Y-93819635D02*
X137498571Y-93880111D01*
X137498571Y-93880111D02*
X137498571Y-93970825D01*
X137498571Y-93970825D02*
X137468333Y-94031301D01*
X137468333Y-94031301D02*
X137438095Y-94061540D01*
X137438095Y-94061540D02*
X137377619Y-94091778D01*
X137377619Y-94091778D02*
X137135714Y-94091778D01*
X138103333Y-94394159D02*
X137740476Y-94394159D01*
X137921904Y-94394159D02*
X137921904Y-93759159D01*
X137921904Y-93759159D02*
X137861428Y-93849873D01*
X137861428Y-93849873D02*
X137800952Y-93910349D01*
X137800952Y-93910349D02*
X137740476Y-93940587D01*
X138677857Y-93759159D02*
X138375476Y-93759159D01*
X138375476Y-93759159D02*
X138345238Y-94061540D01*
X138345238Y-94061540D02*
X138375476Y-94031301D01*
X138375476Y-94031301D02*
X138435952Y-94001063D01*
X138435952Y-94001063D02*
X138587143Y-94001063D01*
X138587143Y-94001063D02*
X138647619Y-94031301D01*
X138647619Y-94031301D02*
X138677857Y-94061540D01*
X138677857Y-94061540D02*
X138708095Y-94122016D01*
X138708095Y-94122016D02*
X138708095Y-94273206D01*
X138708095Y-94273206D02*
X138677857Y-94333682D01*
X138677857Y-94333682D02*
X138647619Y-94363921D01*
X138647619Y-94363921D02*
X138587143Y-94394159D01*
X138587143Y-94394159D02*
X138435952Y-94394159D01*
X138435952Y-94394159D02*
X138375476Y-94363921D01*
X138375476Y-94363921D02*
X138345238Y-94333682D01*
X164549571Y-105987958D02*
X164337904Y-105685577D01*
X164186714Y-105987958D02*
X164186714Y-105352958D01*
X164186714Y-105352958D02*
X164428619Y-105352958D01*
X164428619Y-105352958D02*
X164489095Y-105383196D01*
X164489095Y-105383196D02*
X164519333Y-105413434D01*
X164519333Y-105413434D02*
X164549571Y-105473910D01*
X164549571Y-105473910D02*
X164549571Y-105564624D01*
X164549571Y-105564624D02*
X164519333Y-105625100D01*
X164519333Y-105625100D02*
X164489095Y-105655339D01*
X164489095Y-105655339D02*
X164428619Y-105685577D01*
X164428619Y-105685577D02*
X164186714Y-105685577D01*
X165154333Y-105987958D02*
X164791476Y-105987958D01*
X164972904Y-105987958D02*
X164972904Y-105352958D01*
X164972904Y-105352958D02*
X164912428Y-105443672D01*
X164912428Y-105443672D02*
X164851952Y-105504148D01*
X164851952Y-105504148D02*
X164791476Y-105534386D01*
X165547428Y-105352958D02*
X165607905Y-105352958D01*
X165607905Y-105352958D02*
X165668381Y-105383196D01*
X165668381Y-105383196D02*
X165698619Y-105413434D01*
X165698619Y-105413434D02*
X165728857Y-105473910D01*
X165728857Y-105473910D02*
X165759095Y-105594862D01*
X165759095Y-105594862D02*
X165759095Y-105746053D01*
X165759095Y-105746053D02*
X165728857Y-105867005D01*
X165728857Y-105867005D02*
X165698619Y-105927481D01*
X165698619Y-105927481D02*
X165668381Y-105957720D01*
X165668381Y-105957720D02*
X165607905Y-105987958D01*
X165607905Y-105987958D02*
X165547428Y-105987958D01*
X165547428Y-105987958D02*
X165486952Y-105957720D01*
X165486952Y-105957720D02*
X165456714Y-105927481D01*
X165456714Y-105927481D02*
X165426476Y-105867005D01*
X165426476Y-105867005D02*
X165396238Y-105746053D01*
X165396238Y-105746053D02*
X165396238Y-105594862D01*
X165396238Y-105594862D02*
X165426476Y-105473910D01*
X165426476Y-105473910D02*
X165456714Y-105413434D01*
X165456714Y-105413434D02*
X165486952Y-105383196D01*
X165486952Y-105383196D02*
X165547428Y-105352958D01*
X172834999Y-89974559D02*
X172623332Y-89672178D01*
X172472142Y-89974559D02*
X172472142Y-89339559D01*
X172472142Y-89339559D02*
X172714047Y-89339559D01*
X172714047Y-89339559D02*
X172774523Y-89369797D01*
X172774523Y-89369797D02*
X172804761Y-89400035D01*
X172804761Y-89400035D02*
X172834999Y-89460511D01*
X172834999Y-89460511D02*
X172834999Y-89551225D01*
X172834999Y-89551225D02*
X172804761Y-89611701D01*
X172804761Y-89611701D02*
X172774523Y-89641940D01*
X172774523Y-89641940D02*
X172714047Y-89672178D01*
X172714047Y-89672178D02*
X172472142Y-89672178D01*
X173046666Y-89339559D02*
X173469999Y-89339559D01*
X173469999Y-89339559D02*
X173197856Y-89974559D01*
X137498571Y-92920959D02*
X137286904Y-92618578D01*
X137135714Y-92920959D02*
X137135714Y-92285959D01*
X137135714Y-92285959D02*
X137377619Y-92285959D01*
X137377619Y-92285959D02*
X137438095Y-92316197D01*
X137438095Y-92316197D02*
X137468333Y-92346435D01*
X137468333Y-92346435D02*
X137498571Y-92406911D01*
X137498571Y-92406911D02*
X137498571Y-92497625D01*
X137498571Y-92497625D02*
X137468333Y-92558101D01*
X137468333Y-92558101D02*
X137438095Y-92588340D01*
X137438095Y-92588340D02*
X137377619Y-92618578D01*
X137377619Y-92618578D02*
X137135714Y-92618578D01*
X138103333Y-92920959D02*
X137740476Y-92920959D01*
X137921904Y-92920959D02*
X137921904Y-92285959D01*
X137921904Y-92285959D02*
X137861428Y-92376673D01*
X137861428Y-92376673D02*
X137800952Y-92437149D01*
X137800952Y-92437149D02*
X137740476Y-92467387D01*
X138647619Y-92497625D02*
X138647619Y-92920959D01*
X138496428Y-92255721D02*
X138345238Y-92709292D01*
X138345238Y-92709292D02*
X138738333Y-92709292D01*
X155363333Y-82202159D02*
X155363333Y-82655730D01*
X155363333Y-82655730D02*
X155333094Y-82746444D01*
X155333094Y-82746444D02*
X155272618Y-82806921D01*
X155272618Y-82806921D02*
X155181904Y-82837159D01*
X155181904Y-82837159D02*
X155121428Y-82837159D01*
X155998333Y-82837159D02*
X155635476Y-82837159D01*
X155816904Y-82837159D02*
X155816904Y-82202159D01*
X155816904Y-82202159D02*
X155756428Y-82292873D01*
X155756428Y-82292873D02*
X155695952Y-82353349D01*
X155695952Y-82353349D02*
X155635476Y-82383587D01*
X145783999Y-89974559D02*
X145572332Y-89672178D01*
X145421142Y-89974559D02*
X145421142Y-89339559D01*
X145421142Y-89339559D02*
X145663047Y-89339559D01*
X145663047Y-89339559D02*
X145723523Y-89369797D01*
X145723523Y-89369797D02*
X145753761Y-89400035D01*
X145753761Y-89400035D02*
X145783999Y-89460511D01*
X145783999Y-89460511D02*
X145783999Y-89551225D01*
X145783999Y-89551225D02*
X145753761Y-89611701D01*
X145753761Y-89611701D02*
X145723523Y-89641940D01*
X145723523Y-89641940D02*
X145663047Y-89672178D01*
X145663047Y-89672178D02*
X145421142Y-89672178D01*
X146388761Y-89974559D02*
X146025904Y-89974559D01*
X146207332Y-89974559D02*
X146207332Y-89339559D01*
X146207332Y-89339559D02*
X146146856Y-89430273D01*
X146146856Y-89430273D02*
X146086380Y-89490749D01*
X146086380Y-89490749D02*
X146025904Y-89520987D01*
X146600428Y-89339559D02*
X147023761Y-89339559D01*
X147023761Y-89339559D02*
X146751618Y-89974559D01*
X137498571Y-103436559D02*
X137286904Y-103134178D01*
X137135714Y-103436559D02*
X137135714Y-102801559D01*
X137135714Y-102801559D02*
X137377619Y-102801559D01*
X137377619Y-102801559D02*
X137438095Y-102831797D01*
X137438095Y-102831797D02*
X137468333Y-102862035D01*
X137468333Y-102862035D02*
X137498571Y-102922511D01*
X137498571Y-102922511D02*
X137498571Y-103013225D01*
X137498571Y-103013225D02*
X137468333Y-103073701D01*
X137468333Y-103073701D02*
X137438095Y-103103940D01*
X137438095Y-103103940D02*
X137377619Y-103134178D01*
X137377619Y-103134178D02*
X137135714Y-103134178D01*
X137740476Y-102862035D02*
X137770714Y-102831797D01*
X137770714Y-102831797D02*
X137831190Y-102801559D01*
X137831190Y-102801559D02*
X137982381Y-102801559D01*
X137982381Y-102801559D02*
X138042857Y-102831797D01*
X138042857Y-102831797D02*
X138073095Y-102862035D01*
X138073095Y-102862035D02*
X138103333Y-102922511D01*
X138103333Y-102922511D02*
X138103333Y-102982987D01*
X138103333Y-102982987D02*
X138073095Y-103073701D01*
X138073095Y-103073701D02*
X137710238Y-103436559D01*
X137710238Y-103436559D02*
X138103333Y-103436559D01*
X138315000Y-102801559D02*
X138708095Y-102801559D01*
X138708095Y-102801559D02*
X138496428Y-103043463D01*
X138496428Y-103043463D02*
X138587143Y-103043463D01*
X138587143Y-103043463D02*
X138647619Y-103073701D01*
X138647619Y-103073701D02*
X138677857Y-103103940D01*
X138677857Y-103103940D02*
X138708095Y-103164416D01*
X138708095Y-103164416D02*
X138708095Y-103315606D01*
X138708095Y-103315606D02*
X138677857Y-103376082D01*
X138677857Y-103376082D02*
X138647619Y-103406321D01*
X138647619Y-103406321D02*
X138587143Y-103436559D01*
X138587143Y-103436559D02*
X138405714Y-103436559D01*
X138405714Y-103436559D02*
X138345238Y-103406321D01*
X138345238Y-103406321D02*
X138315000Y-103376082D01*
X137498571Y-104909759D02*
X137286904Y-104607378D01*
X137135714Y-104909759D02*
X137135714Y-104274759D01*
X137135714Y-104274759D02*
X137377619Y-104274759D01*
X137377619Y-104274759D02*
X137438095Y-104304997D01*
X137438095Y-104304997D02*
X137468333Y-104335235D01*
X137468333Y-104335235D02*
X137498571Y-104395711D01*
X137498571Y-104395711D02*
X137498571Y-104486425D01*
X137498571Y-104486425D02*
X137468333Y-104546901D01*
X137468333Y-104546901D02*
X137438095Y-104577140D01*
X137438095Y-104577140D02*
X137377619Y-104607378D01*
X137377619Y-104607378D02*
X137135714Y-104607378D01*
X137740476Y-104335235D02*
X137770714Y-104304997D01*
X137770714Y-104304997D02*
X137831190Y-104274759D01*
X137831190Y-104274759D02*
X137982381Y-104274759D01*
X137982381Y-104274759D02*
X138042857Y-104304997D01*
X138042857Y-104304997D02*
X138073095Y-104335235D01*
X138073095Y-104335235D02*
X138103333Y-104395711D01*
X138103333Y-104395711D02*
X138103333Y-104456187D01*
X138103333Y-104456187D02*
X138073095Y-104546901D01*
X138073095Y-104546901D02*
X137710238Y-104909759D01*
X137710238Y-104909759D02*
X138103333Y-104909759D01*
X138647619Y-104486425D02*
X138647619Y-104909759D01*
X138496428Y-104244521D02*
X138345238Y-104698092D01*
X138345238Y-104698092D02*
X138738333Y-104698092D01*
X165154333Y-89974559D02*
X164942666Y-89672178D01*
X164791476Y-89974559D02*
X164791476Y-89339559D01*
X164791476Y-89339559D02*
X165033381Y-89339559D01*
X165033381Y-89339559D02*
X165093857Y-89369797D01*
X165093857Y-89369797D02*
X165124095Y-89400035D01*
X165124095Y-89400035D02*
X165154333Y-89460511D01*
X165154333Y-89460511D02*
X165154333Y-89551225D01*
X165154333Y-89551225D02*
X165124095Y-89611701D01*
X165124095Y-89611701D02*
X165093857Y-89641940D01*
X165093857Y-89641940D02*
X165033381Y-89672178D01*
X165033381Y-89672178D02*
X164791476Y-89672178D01*
X165698619Y-89339559D02*
X165577666Y-89339559D01*
X165577666Y-89339559D02*
X165517190Y-89369797D01*
X165517190Y-89369797D02*
X165486952Y-89400035D01*
X165486952Y-89400035D02*
X165426476Y-89490749D01*
X165426476Y-89490749D02*
X165396238Y-89611701D01*
X165396238Y-89611701D02*
X165396238Y-89853606D01*
X165396238Y-89853606D02*
X165426476Y-89914082D01*
X165426476Y-89914082D02*
X165456714Y-89944321D01*
X165456714Y-89944321D02*
X165517190Y-89974559D01*
X165517190Y-89974559D02*
X165638143Y-89974559D01*
X165638143Y-89974559D02*
X165698619Y-89944321D01*
X165698619Y-89944321D02*
X165728857Y-89914082D01*
X165728857Y-89914082D02*
X165759095Y-89853606D01*
X165759095Y-89853606D02*
X165759095Y-89702416D01*
X165759095Y-89702416D02*
X165728857Y-89641940D01*
X165728857Y-89641940D02*
X165698619Y-89611701D01*
X165698619Y-89611701D02*
X165638143Y-89581463D01*
X165638143Y-89581463D02*
X165517190Y-89581463D01*
X165517190Y-89581463D02*
X165456714Y-89611701D01*
X165456714Y-89611701D02*
X165426476Y-89641940D01*
X165426476Y-89641940D02*
X165396238Y-89702416D01*
X145783599Y-104909759D02*
X145571932Y-104607378D01*
X145420742Y-104909759D02*
X145420742Y-104274759D01*
X145420742Y-104274759D02*
X145662647Y-104274759D01*
X145662647Y-104274759D02*
X145723123Y-104304997D01*
X145723123Y-104304997D02*
X145753361Y-104335235D01*
X145753361Y-104335235D02*
X145783599Y-104395711D01*
X145783599Y-104395711D02*
X145783599Y-104486425D01*
X145783599Y-104486425D02*
X145753361Y-104546901D01*
X145753361Y-104546901D02*
X145723123Y-104577140D01*
X145723123Y-104577140D02*
X145662647Y-104607378D01*
X145662647Y-104607378D02*
X145420742Y-104607378D01*
X146025504Y-104335235D02*
X146055742Y-104304997D01*
X146055742Y-104304997D02*
X146116218Y-104274759D01*
X146116218Y-104274759D02*
X146267409Y-104274759D01*
X146267409Y-104274759D02*
X146327885Y-104304997D01*
X146327885Y-104304997D02*
X146358123Y-104335235D01*
X146358123Y-104335235D02*
X146388361Y-104395711D01*
X146388361Y-104395711D02*
X146388361Y-104456187D01*
X146388361Y-104456187D02*
X146358123Y-104546901D01*
X146358123Y-104546901D02*
X145995266Y-104909759D01*
X145995266Y-104909759D02*
X146388361Y-104909759D01*
X146932647Y-104274759D02*
X146811694Y-104274759D01*
X146811694Y-104274759D02*
X146751218Y-104304997D01*
X146751218Y-104304997D02*
X146720980Y-104335235D01*
X146720980Y-104335235D02*
X146660504Y-104425949D01*
X146660504Y-104425949D02*
X146630266Y-104546901D01*
X146630266Y-104546901D02*
X146630266Y-104788806D01*
X146630266Y-104788806D02*
X146660504Y-104849282D01*
X146660504Y-104849282D02*
X146690742Y-104879521D01*
X146690742Y-104879521D02*
X146751218Y-104909759D01*
X146751218Y-104909759D02*
X146872171Y-104909759D01*
X146872171Y-104909759D02*
X146932647Y-104879521D01*
X146932647Y-104879521D02*
X146962885Y-104849282D01*
X146962885Y-104849282D02*
X146993123Y-104788806D01*
X146993123Y-104788806D02*
X146993123Y-104637616D01*
X146993123Y-104637616D02*
X146962885Y-104577140D01*
X146962885Y-104577140D02*
X146932647Y-104546901D01*
X146932647Y-104546901D02*
X146872171Y-104516663D01*
X146872171Y-104516663D02*
X146751218Y-104516663D01*
X146751218Y-104516663D02*
X146690742Y-104546901D01*
X146690742Y-104546901D02*
X146660504Y-104577140D01*
X146660504Y-104577140D02*
X146630266Y-104637616D01*
X172834999Y-101963359D02*
X172623332Y-101660978D01*
X172472142Y-101963359D02*
X172472142Y-101328359D01*
X172472142Y-101328359D02*
X172714047Y-101328359D01*
X172714047Y-101328359D02*
X172774523Y-101358597D01*
X172774523Y-101358597D02*
X172804761Y-101388835D01*
X172804761Y-101388835D02*
X172834999Y-101449311D01*
X172834999Y-101449311D02*
X172834999Y-101540025D01*
X172834999Y-101540025D02*
X172804761Y-101600501D01*
X172804761Y-101600501D02*
X172774523Y-101630740D01*
X172774523Y-101630740D02*
X172714047Y-101660978D01*
X172714047Y-101660978D02*
X172472142Y-101660978D01*
X173439761Y-101963359D02*
X173076904Y-101963359D01*
X173258332Y-101963359D02*
X173258332Y-101328359D01*
X173258332Y-101328359D02*
X173197856Y-101419073D01*
X173197856Y-101419073D02*
X173137380Y-101479549D01*
X173137380Y-101479549D02*
X173076904Y-101509787D01*
X173681666Y-101388835D02*
X173711904Y-101358597D01*
X173711904Y-101358597D02*
X173772380Y-101328359D01*
X173772380Y-101328359D02*
X173923571Y-101328359D01*
X173923571Y-101328359D02*
X173984047Y-101358597D01*
X173984047Y-101358597D02*
X174014285Y-101388835D01*
X174014285Y-101388835D02*
X174044523Y-101449311D01*
X174044523Y-101449311D02*
X174044523Y-101509787D01*
X174044523Y-101509787D02*
X174014285Y-101600501D01*
X174014285Y-101600501D02*
X173651428Y-101963359D01*
X173651428Y-101963359D02*
X174044523Y-101963359D01*
X137498571Y-88501359D02*
X137286904Y-88198978D01*
X137135714Y-88501359D02*
X137135714Y-87866359D01*
X137135714Y-87866359D02*
X137377619Y-87866359D01*
X137377619Y-87866359D02*
X137438095Y-87896597D01*
X137438095Y-87896597D02*
X137468333Y-87926835D01*
X137468333Y-87926835D02*
X137498571Y-87987311D01*
X137498571Y-87987311D02*
X137498571Y-88078025D01*
X137498571Y-88078025D02*
X137468333Y-88138501D01*
X137468333Y-88138501D02*
X137438095Y-88168740D01*
X137438095Y-88168740D02*
X137377619Y-88198978D01*
X137377619Y-88198978D02*
X137135714Y-88198978D01*
X138103333Y-88501359D02*
X137740476Y-88501359D01*
X137921904Y-88501359D02*
X137921904Y-87866359D01*
X137921904Y-87866359D02*
X137861428Y-87957073D01*
X137861428Y-87957073D02*
X137800952Y-88017549D01*
X137800952Y-88017549D02*
X137740476Y-88047787D01*
X138315000Y-87866359D02*
X138708095Y-87866359D01*
X138708095Y-87866359D02*
X138496428Y-88108263D01*
X138496428Y-88108263D02*
X138587143Y-88108263D01*
X138587143Y-88108263D02*
X138647619Y-88138501D01*
X138647619Y-88138501D02*
X138677857Y-88168740D01*
X138677857Y-88168740D02*
X138708095Y-88229216D01*
X138708095Y-88229216D02*
X138708095Y-88380406D01*
X138708095Y-88380406D02*
X138677857Y-88440882D01*
X138677857Y-88440882D02*
X138647619Y-88471121D01*
X138647619Y-88471121D02*
X138587143Y-88501359D01*
X138587143Y-88501359D02*
X138405714Y-88501359D01*
X138405714Y-88501359D02*
X138345238Y-88471121D01*
X138345238Y-88471121D02*
X138315000Y-88440882D01*
X137498571Y-101963359D02*
X137286904Y-101660978D01*
X137135714Y-101963359D02*
X137135714Y-101328359D01*
X137135714Y-101328359D02*
X137377619Y-101328359D01*
X137377619Y-101328359D02*
X137438095Y-101358597D01*
X137438095Y-101358597D02*
X137468333Y-101388835D01*
X137468333Y-101388835D02*
X137498571Y-101449311D01*
X137498571Y-101449311D02*
X137498571Y-101540025D01*
X137498571Y-101540025D02*
X137468333Y-101600501D01*
X137468333Y-101600501D02*
X137438095Y-101630740D01*
X137438095Y-101630740D02*
X137377619Y-101660978D01*
X137377619Y-101660978D02*
X137135714Y-101660978D01*
X137740476Y-101388835D02*
X137770714Y-101358597D01*
X137770714Y-101358597D02*
X137831190Y-101328359D01*
X137831190Y-101328359D02*
X137982381Y-101328359D01*
X137982381Y-101328359D02*
X138042857Y-101358597D01*
X138042857Y-101358597D02*
X138073095Y-101388835D01*
X138073095Y-101388835D02*
X138103333Y-101449311D01*
X138103333Y-101449311D02*
X138103333Y-101509787D01*
X138103333Y-101509787D02*
X138073095Y-101600501D01*
X138073095Y-101600501D02*
X137710238Y-101963359D01*
X137710238Y-101963359D02*
X138103333Y-101963359D01*
X138345238Y-101388835D02*
X138375476Y-101358597D01*
X138375476Y-101358597D02*
X138435952Y-101328359D01*
X138435952Y-101328359D02*
X138587143Y-101328359D01*
X138587143Y-101328359D02*
X138647619Y-101358597D01*
X138647619Y-101358597D02*
X138677857Y-101388835D01*
X138677857Y-101388835D02*
X138708095Y-101449311D01*
X138708095Y-101449311D02*
X138708095Y-101509787D01*
X138708095Y-101509787D02*
X138677857Y-101600501D01*
X138677857Y-101600501D02*
X138315000Y-101963359D01*
X138315000Y-101963359D02*
X138708095Y-101963359D01*
X155363333Y-111412159D02*
X155363333Y-111865730D01*
X155363333Y-111865730D02*
X155333094Y-111956444D01*
X155333094Y-111956444D02*
X155272618Y-112016921D01*
X155272618Y-112016921D02*
X155181904Y-112047159D01*
X155181904Y-112047159D02*
X155121428Y-112047159D01*
X155635476Y-111472635D02*
X155665714Y-111442397D01*
X155665714Y-111442397D02*
X155726190Y-111412159D01*
X155726190Y-111412159D02*
X155877381Y-111412159D01*
X155877381Y-111412159D02*
X155937857Y-111442397D01*
X155937857Y-111442397D02*
X155968095Y-111472635D01*
X155968095Y-111472635D02*
X155998333Y-111533111D01*
X155998333Y-111533111D02*
X155998333Y-111593587D01*
X155998333Y-111593587D02*
X155968095Y-111684301D01*
X155968095Y-111684301D02*
X155605238Y-112047159D01*
X155605238Y-112047159D02*
X155998333Y-112047159D01*
X145783999Y-88501359D02*
X145572332Y-88198978D01*
X145421142Y-88501359D02*
X145421142Y-87866359D01*
X145421142Y-87866359D02*
X145663047Y-87866359D01*
X145663047Y-87866359D02*
X145723523Y-87896597D01*
X145723523Y-87896597D02*
X145753761Y-87926835D01*
X145753761Y-87926835D02*
X145783999Y-87987311D01*
X145783999Y-87987311D02*
X145783999Y-88078025D01*
X145783999Y-88078025D02*
X145753761Y-88138501D01*
X145753761Y-88138501D02*
X145723523Y-88168740D01*
X145723523Y-88168740D02*
X145663047Y-88198978D01*
X145663047Y-88198978D02*
X145421142Y-88198978D01*
X146388761Y-88501359D02*
X146025904Y-88501359D01*
X146207332Y-88501359D02*
X146207332Y-87866359D01*
X146207332Y-87866359D02*
X146146856Y-87957073D01*
X146146856Y-87957073D02*
X146086380Y-88017549D01*
X146086380Y-88017549D02*
X146025904Y-88047787D01*
X146933047Y-87866359D02*
X146812094Y-87866359D01*
X146812094Y-87866359D02*
X146751618Y-87896597D01*
X146751618Y-87896597D02*
X146721380Y-87926835D01*
X146721380Y-87926835D02*
X146660904Y-88017549D01*
X146660904Y-88017549D02*
X146630666Y-88138501D01*
X146630666Y-88138501D02*
X146630666Y-88380406D01*
X146630666Y-88380406D02*
X146660904Y-88440882D01*
X146660904Y-88440882D02*
X146691142Y-88471121D01*
X146691142Y-88471121D02*
X146751618Y-88501359D01*
X146751618Y-88501359D02*
X146872571Y-88501359D01*
X146872571Y-88501359D02*
X146933047Y-88471121D01*
X146933047Y-88471121D02*
X146963285Y-88440882D01*
X146963285Y-88440882D02*
X146993523Y-88380406D01*
X146993523Y-88380406D02*
X146993523Y-88229216D01*
X146993523Y-88229216D02*
X146963285Y-88168740D01*
X146963285Y-88168740D02*
X146933047Y-88138501D01*
X146933047Y-88138501D02*
X146872571Y-88108263D01*
X146872571Y-88108263D02*
X146751618Y-88108263D01*
X146751618Y-88108263D02*
X146691142Y-88138501D01*
X146691142Y-88138501D02*
X146660904Y-88168740D01*
X146660904Y-88168740D02*
X146630666Y-88229216D01*
%TO.C,R19*%
D12*
X143298142Y-92111300D02*
X143772658Y-92111300D01*
X143298142Y-93156300D02*
X143772658Y-93156300D01*
%TO.C,R2*%
X170349142Y-92111300D02*
X170823658Y-92111300D01*
X170349142Y-93156300D02*
X170823658Y-93156300D01*
%TO.C,R18*%
X143298142Y-90638100D02*
X143772658Y-90638100D01*
X143298142Y-91683100D02*
X143772658Y-91683100D01*
%TO.C,R27*%
X143298142Y-105573300D02*
X143772658Y-105573300D01*
X143298142Y-106618300D02*
X143772658Y-106618300D01*
%TO.C,R21*%
X140800858Y-99680500D02*
X140326342Y-99680500D01*
X140800858Y-100725500D02*
X140326342Y-100725500D01*
D13*
%TO.C,kibuzzard-6A03E4CB*%
G36*
X179783191Y-100024606D02*
G01*
X179820024Y-100107966D01*
X179807100Y-100165478D01*
X179774144Y-100200373D01*
X179728263Y-100217174D01*
X179675275Y-100221698D01*
X179635856Y-100220405D01*
X179599023Y-100216528D01*
X179599023Y-99999404D01*
X179684321Y-99999404D01*
X179783191Y-100024606D01*
G37*
G36*
X179714047Y-99682118D02*
G01*
X179750234Y-99695042D01*
X179774790Y-99722183D01*
X179783837Y-99768063D01*
X179752819Y-99841084D01*
X179661058Y-99867578D01*
X179599023Y-99867578D01*
X179599023Y-99684057D01*
X179633918Y-99680179D01*
X179671397Y-99678887D01*
X179714047Y-99682118D01*
G37*
G36*
X178439733Y-99701504D02*
G01*
X178492722Y-99761601D01*
X178519863Y-99848192D01*
X178527617Y-99949000D01*
X178525194Y-100006027D01*
X178517924Y-100058208D01*
X178485614Y-100144153D01*
X178426163Y-100201019D01*
X178335048Y-100221698D01*
X178320832Y-100221698D01*
X178306616Y-100220405D01*
X178306616Y-99682764D01*
X178329879Y-99679533D01*
X178353142Y-99678887D01*
X178439733Y-99701504D01*
G37*
G36*
X182222753Y-99949000D02*
G01*
X181671613Y-100775710D01*
X181262351Y-100775710D01*
X181024548Y-100775710D01*
X180336987Y-100775710D01*
X179662351Y-100775710D01*
X178805485Y-100775710D01*
X178318247Y-100775710D01*
X178147649Y-100775710D01*
X177738387Y-100775710D01*
X177187247Y-99949000D01*
X177446590Y-99559985D01*
X178147649Y-99559985D01*
X178147649Y-100340599D01*
X178234887Y-100355462D01*
X178318247Y-100359985D01*
X178396276Y-100354331D01*
X178415953Y-100349646D01*
X178805485Y-100349646D01*
X179318570Y-100349646D01*
X179318570Y-100217821D01*
X178964451Y-100217821D01*
X178964451Y-99992942D01*
X179247488Y-99992942D01*
X179247488Y-99861116D01*
X178964451Y-99861116D01*
X178964451Y-99681472D01*
X179290137Y-99681472D01*
X179290137Y-99559985D01*
X179440057Y-99559985D01*
X179440057Y-100336722D01*
X179495953Y-100346900D01*
X179552496Y-100354170D01*
X179608393Y-100358532D01*
X179662351Y-100359985D01*
X179726163Y-100356916D01*
X179785775Y-100347708D01*
X179839410Y-100331229D01*
X179885291Y-100306351D01*
X179951850Y-100228806D01*
X179970267Y-100174363D01*
X179976405Y-100107966D01*
X179970001Y-100060147D01*
X180066874Y-100060147D01*
X180070105Y-100126706D01*
X180079798Y-100186803D01*
X180097246Y-100239468D01*
X180123740Y-100283733D01*
X180207100Y-100345123D01*
X180265743Y-100361116D01*
X180336987Y-100366447D01*
X180409362Y-100361116D01*
X180468813Y-100345123D01*
X180516632Y-100319113D01*
X180554111Y-100283733D01*
X180581575Y-100239468D01*
X180599346Y-100186803D01*
X180609039Y-100126706D01*
X180612270Y-100060147D01*
X180612270Y-99949000D01*
X180697569Y-99949000D01*
X180703384Y-100046092D01*
X180720832Y-100130583D01*
X180748942Y-100202312D01*
X180786745Y-100261116D01*
X180833756Y-100306997D01*
X180889491Y-100339953D01*
X180953304Y-100359824D01*
X181024548Y-100366447D01*
X181103546Y-100363216D01*
X181169943Y-100353523D01*
X181258473Y-100330260D01*
X181258473Y-99930906D01*
X181099507Y-99930906D01*
X181099507Y-100222990D01*
X181068489Y-100226868D01*
X181037472Y-100228160D01*
X180960250Y-100211197D01*
X180904354Y-100160309D01*
X180879224Y-100106674D01*
X180864146Y-100036237D01*
X180859120Y-99949000D01*
X180861866Y-99889711D01*
X180870105Y-99835914D01*
X180906292Y-99748031D01*
X180970267Y-99690519D01*
X181065905Y-99669840D01*
X181151204Y-99684057D01*
X181220994Y-99716367D01*
X181262351Y-99589711D01*
X181235856Y-99574202D01*
X181191268Y-99554816D01*
X181127294Y-99538661D01*
X181043934Y-99531553D01*
X180973821Y-99538176D01*
X180908231Y-99558047D01*
X180849103Y-99591165D01*
X180798376Y-99637530D01*
X180756696Y-99696819D01*
X180724709Y-99768709D01*
X180704354Y-99852877D01*
X180697569Y-99949000D01*
X180612270Y-99949000D01*
X180612270Y-99549646D01*
X180453304Y-99549646D01*
X180453304Y-100048515D01*
X180448134Y-100133168D01*
X180430040Y-100188742D01*
X180395145Y-100219113D01*
X180339572Y-100228160D01*
X180283998Y-100219113D01*
X180249750Y-100189388D01*
X180232302Y-100134460D01*
X180227132Y-100049808D01*
X180227132Y-99549646D01*
X180066874Y-99549646D01*
X180066874Y-100060147D01*
X179970001Y-100060147D01*
X179969136Y-100053685D01*
X179947326Y-100001989D01*
X179905162Y-99956754D01*
X179836826Y-99921859D01*
X179911139Y-99852069D01*
X179931979Y-99804897D01*
X179938926Y-99751262D01*
X179927294Y-99676302D01*
X179883352Y-99608451D01*
X179794176Y-99559339D01*
X179728910Y-99545284D01*
X179646842Y-99540599D01*
X179539572Y-99546415D01*
X179440057Y-99559985D01*
X179290137Y-99559985D01*
X179290137Y-99549646D01*
X178805485Y-99549646D01*
X178805485Y-100349646D01*
X178415953Y-100349646D01*
X178467520Y-100337368D01*
X178530687Y-100308128D01*
X178584483Y-100265640D01*
X178628263Y-100209258D01*
X178661381Y-100138338D01*
X178682221Y-100051908D01*
X178689168Y-99949000D01*
X178682868Y-99848354D01*
X178663966Y-99763540D01*
X178633756Y-99693426D01*
X178593530Y-99636884D01*
X178543288Y-99593750D01*
X178483029Y-99563863D01*
X178414370Y-99546415D01*
X178338926Y-99540599D01*
X178249750Y-99544477D01*
X178147649Y-99559985D01*
X177446590Y-99559985D01*
X177738387Y-99122290D01*
X178147649Y-99122290D01*
X181262351Y-99122290D01*
X181671613Y-99122290D01*
X182222753Y-99949000D01*
G37*
%TO.C,R11*%
D12*
X167851858Y-101153700D02*
X167377342Y-101153700D01*
X167851858Y-102198700D02*
X167377342Y-102198700D01*
%TO.C,R3*%
X167377342Y-92111300D02*
X167851858Y-92111300D01*
X167377342Y-93156300D02*
X167851858Y-93156300D01*
%TO.C,R20*%
X143298142Y-93584500D02*
X143772658Y-93584500D01*
X143298142Y-94629500D02*
X143772658Y-94629500D01*
%TO.C,R1*%
X170349142Y-93584500D02*
X170823658Y-93584500D01*
X170349142Y-94629500D02*
X170823658Y-94629500D01*
%TO.C,R8*%
X167851858Y-90638100D02*
X167377342Y-90638100D01*
X167851858Y-91683100D02*
X167377342Y-91683100D01*
D13*
%TO.C,kibuzzard-6A03C779*%
G36*
X131821090Y-100030422D02*
G01*
X131640153Y-100030422D01*
X131678926Y-99956754D01*
X131724806Y-99882441D01*
X131773271Y-99812005D01*
X131821090Y-99748677D01*
X131821090Y-100030422D01*
G37*
G36*
X131171171Y-99686157D02*
G01*
X131215598Y-99707966D01*
X131244192Y-99747223D01*
X131253724Y-99806835D01*
X131244031Y-99869679D01*
X131214952Y-99910874D01*
X131166809Y-99933653D01*
X131099927Y-99941246D01*
X131035307Y-99941246D01*
X131035307Y-99682764D01*
X131074725Y-99679533D01*
X131114144Y-99678887D01*
X131171171Y-99686157D01*
G37*
G36*
X133126260Y-99685187D02*
G01*
X133168425Y-99738984D01*
X133187452Y-99794055D01*
X133198868Y-99863629D01*
X133202674Y-99947708D01*
X133198868Y-100032504D01*
X133187452Y-100102509D01*
X133168425Y-100157724D01*
X133126260Y-100211520D01*
X133069556Y-100229053D01*
X133068263Y-100229452D01*
X133011074Y-100211520D01*
X132968748Y-100157724D01*
X132949362Y-100102509D01*
X132937730Y-100032504D01*
X132933853Y-99947708D01*
X132934449Y-99934784D01*
X132997181Y-99934784D01*
X133016567Y-99994880D01*
X133069556Y-100020082D01*
X133120606Y-99994880D01*
X133140638Y-99934784D01*
X133120606Y-99874040D01*
X133069556Y-99848192D01*
X133016567Y-99874040D01*
X132997181Y-99934784D01*
X132934449Y-99934784D01*
X132937730Y-99863629D01*
X132949362Y-99794055D01*
X132968748Y-99738984D01*
X133011074Y-99685187D01*
X133068263Y-99667255D01*
X133126260Y-99685187D01*
G37*
G36*
X134306533Y-99949000D02*
G01*
X133755393Y-100775710D01*
X133346131Y-100775710D01*
X133068263Y-100775710D01*
X132374241Y-100775710D01*
X131980057Y-100775710D01*
X131035307Y-100775710D01*
X130460186Y-100775710D01*
X130130622Y-100775710D01*
X129543869Y-100775710D01*
X129134607Y-100775710D01*
X128850564Y-100349646D01*
X129543869Y-100349646D01*
X129689911Y-100349646D01*
X129683449Y-99727998D01*
X129777795Y-100066609D01*
X129894111Y-100066609D01*
X129992334Y-99727998D01*
X129984580Y-100349646D01*
X130130622Y-100349646D01*
X130129372Y-100305704D01*
X130212044Y-100305704D01*
X130301220Y-100345123D01*
X130370687Y-100361116D01*
X130460186Y-100366447D01*
X130550870Y-100359626D01*
X130624752Y-100339163D01*
X130681834Y-100305058D01*
X130736599Y-100230906D01*
X130754855Y-100131229D01*
X130749362Y-100070971D01*
X130732884Y-100022021D01*
X130676664Y-99949646D01*
X130601704Y-99903120D01*
X130523514Y-99871456D01*
X130473756Y-99852069D01*
X130428522Y-99828160D01*
X130395565Y-99797142D01*
X130382641Y-99756431D01*
X130396714Y-99705453D01*
X130438933Y-99674866D01*
X130509297Y-99664670D01*
X130600412Y-99677595D01*
X130672141Y-99708612D01*
X130718667Y-99585834D01*
X130654936Y-99559985D01*
X130876341Y-99559985D01*
X130876341Y-100349646D01*
X131035307Y-100349646D01*
X131035307Y-100079533D01*
X131092173Y-100079533D01*
X131187739Y-100072425D01*
X131267653Y-100051100D01*
X131279337Y-100044638D01*
X131487649Y-100044638D01*
X131487649Y-100160955D01*
X131821090Y-100160955D01*
X131821090Y-100349646D01*
X131980057Y-100349646D01*
X131980057Y-100322506D01*
X132151947Y-100322506D01*
X132192011Y-100336722D01*
X132248231Y-100350939D01*
X132311559Y-100361924D01*
X132374241Y-100366447D01*
X132448877Y-100361763D01*
X132512528Y-100347708D01*
X132565517Y-100325090D01*
X132608166Y-100294719D01*
X132663740Y-100213943D01*
X132681834Y-100111843D01*
X132673271Y-100046900D01*
X132647585Y-99991649D01*
X132606691Y-99947708D01*
X132790396Y-99947708D01*
X132794838Y-100046900D01*
X132808166Y-100132522D01*
X132830380Y-100204574D01*
X132861478Y-100263055D01*
X132916046Y-100320495D01*
X132984975Y-100354959D01*
X133068263Y-100366447D01*
X133151552Y-100354959D01*
X133220480Y-100320495D01*
X133275048Y-100263055D01*
X133306147Y-100204574D01*
X133328360Y-100132522D01*
X133341688Y-100046900D01*
X133346131Y-99947708D01*
X133341688Y-99849121D01*
X133328360Y-99764024D01*
X133306147Y-99692417D01*
X133275048Y-99634299D01*
X133220480Y-99577218D01*
X133151552Y-99542969D01*
X133068263Y-99531553D01*
X132986267Y-99543041D01*
X132917770Y-99577505D01*
X132862771Y-99634945D01*
X132831107Y-99693265D01*
X132808489Y-99764832D01*
X132794919Y-99849646D01*
X132790396Y-99947708D01*
X132606691Y-99947708D01*
X132606389Y-99947384D01*
X132551300Y-99915397D01*
X132623675Y-99848192D01*
X132650816Y-99756431D01*
X132635307Y-99667255D01*
X132587488Y-99595527D01*
X132505420Y-99548354D01*
X132451300Y-99535753D01*
X132388457Y-99531553D01*
X132319798Y-99537530D01*
X132258570Y-99555462D01*
X132166163Y-99602635D01*
X132223029Y-99718952D01*
X132299927Y-99682118D01*
X132389750Y-99667255D01*
X132462771Y-99692457D01*
X132489265Y-99761601D01*
X132476987Y-99810712D01*
X132445323Y-99841730D01*
X132401381Y-99858532D01*
X132352270Y-99863701D01*
X132292819Y-99863701D01*
X132292819Y-99995527D01*
X132341931Y-99995527D01*
X132412690Y-100001827D01*
X132469879Y-100020729D01*
X132507682Y-100055462D01*
X132520283Y-100109258D01*
X132487326Y-100195850D01*
X132442254Y-100222021D01*
X132372948Y-100230745D01*
X132311721Y-100227191D01*
X132259863Y-100216528D01*
X132182964Y-100189388D01*
X132151947Y-100322506D01*
X131980057Y-100322506D01*
X131980057Y-100160955D01*
X132066648Y-100160955D01*
X132066648Y-100030422D01*
X131980057Y-100030422D01*
X131980057Y-99549646D01*
X131837892Y-99549646D01*
X131786195Y-99604735D01*
X131734499Y-99666609D01*
X131684095Y-99732360D01*
X131636276Y-99799081D01*
X131591688Y-99865478D01*
X131550977Y-99930260D01*
X131515759Y-99990842D01*
X131487649Y-100044638D01*
X131279337Y-100044638D01*
X131331914Y-100015559D01*
X131378944Y-99964078D01*
X131407161Y-99894934D01*
X131416567Y-99808128D01*
X131407233Y-99722183D01*
X131379231Y-99653900D01*
X131332561Y-99603281D01*
X131268945Y-99568458D01*
X131190109Y-99547564D01*
X131096050Y-99540599D01*
X131045646Y-99541892D01*
X130987488Y-99545123D01*
X130928683Y-99550939D01*
X130876341Y-99559985D01*
X130654936Y-99559985D01*
X130626260Y-99548354D01*
X130566648Y-99535753D01*
X130497666Y-99531553D01*
X130418470Y-99538589D01*
X130351480Y-99559698D01*
X130296696Y-99594880D01*
X130241931Y-99670486D01*
X130223675Y-99770648D01*
X130244354Y-99865640D01*
X130296696Y-99929614D01*
X130367132Y-99972263D01*
X130442092Y-100001989D01*
X130496373Y-100024606D01*
X130545485Y-100051746D01*
X130581672Y-100085995D01*
X130595889Y-100129937D01*
X130590073Y-100168063D01*
X130568748Y-100201666D01*
X130526745Y-100224929D01*
X130460186Y-100233330D01*
X130395727Y-100228806D01*
X130341931Y-100215236D01*
X130258570Y-100176464D01*
X130212044Y-100305704D01*
X130129372Y-100305704D01*
X130127714Y-100247384D01*
X130124160Y-100147384D01*
X130119798Y-100048838D01*
X130114467Y-99950939D01*
X130108005Y-99852877D01*
X130100250Y-99753847D01*
X130091688Y-99653039D01*
X130082803Y-99549646D01*
X129950977Y-99549646D01*
X129927714Y-99618144D01*
X129899281Y-99706674D01*
X129866971Y-99804897D01*
X129834661Y-99903766D01*
X129804935Y-99810712D01*
X129773918Y-99711197D01*
X129744838Y-99619436D01*
X129722221Y-99549646D01*
X129590396Y-99549646D01*
X129581834Y-99637207D01*
X129574241Y-99731876D01*
X129567617Y-99831714D01*
X129561963Y-99934784D01*
X129556955Y-100039792D01*
X129552270Y-100145446D01*
X129547908Y-100249485D01*
X129543869Y-100349646D01*
X128850564Y-100349646D01*
X128583467Y-99949000D01*
X129134607Y-99122290D01*
X129543869Y-99122290D01*
X133346131Y-99122290D01*
X133755393Y-99122290D01*
X134306533Y-99949000D01*
G37*
%TO.C,R25*%
D12*
X143298142Y-101153700D02*
X143772658Y-101153700D01*
X143298142Y-102198700D02*
X143772658Y-102198700D01*
%TO.C,R4*%
X170349142Y-90638100D02*
X170823658Y-90638100D01*
X170349142Y-91683100D02*
X170823658Y-91683100D01*
%TO.C,R9*%
X170349142Y-105573300D02*
X170823658Y-105573300D01*
X170349142Y-106618300D02*
X170823658Y-106618300D01*
%TO.C,R5*%
X170823658Y-87691700D02*
X170349142Y-87691700D01*
X170823658Y-88736700D02*
X170349142Y-88736700D01*
%TO.C,R15*%
X140800858Y-93584500D02*
X140326342Y-93584500D01*
X140800858Y-94629500D02*
X140326342Y-94629500D01*
%TO.C,R10*%
X167377342Y-105573300D02*
X167851858Y-105573300D01*
X167377342Y-106618300D02*
X167851858Y-106618300D01*
%TO.C,R7*%
X170823658Y-89164900D02*
X170349142Y-89164900D01*
X170823658Y-90209900D02*
X170349142Y-90209900D01*
%TO.C,R14*%
X140800858Y-92111300D02*
X140326342Y-92111300D01*
X140800858Y-93156300D02*
X140326342Y-93156300D01*
%TO.C,J1*%
X147164999Y-81000000D02*
X148415000Y-81000000D01*
X147164999Y-84100000D02*
X147164999Y-81000000D01*
X148415000Y-84100000D02*
X147164999Y-84100000D01*
X148558494Y-85215001D02*
X148774999Y-84840000D01*
X148774999Y-84840000D02*
X148991506Y-85215000D01*
X148991506Y-85215000D02*
X148558494Y-85215001D01*
X162735000Y-81000000D02*
X163985001Y-81000000D01*
X163985001Y-81000000D02*
X163985001Y-84100000D01*
X163985001Y-84100000D02*
X162735000Y-84100000D01*
D13*
%TO.C,kibuzzard-6A0274B3*%
G36*
X133310087Y-94361000D02*
G01*
X132770579Y-95170262D01*
X132361317Y-95170262D01*
X131686680Y-95170262D01*
X130528683Y-95170262D01*
X130119421Y-95170262D01*
X129846580Y-94761000D01*
X130528683Y-94761000D01*
X131041769Y-94761000D01*
X131041769Y-94629174D01*
X130687649Y-94629174D01*
X130687649Y-94404296D01*
X130970687Y-94404296D01*
X130970687Y-94272470D01*
X130687649Y-94272470D01*
X130687649Y-94127721D01*
X131155501Y-94127721D01*
X131207197Y-94259546D01*
X131286034Y-94227882D01*
X131368748Y-94182002D01*
X131368748Y-94629174D01*
X131200735Y-94629174D01*
X131200735Y-94761000D01*
X131686680Y-94761000D01*
X131765517Y-94761000D01*
X131927068Y-94761000D01*
X131959055Y-94703165D01*
X131990396Y-94651145D01*
X132023352Y-94601388D01*
X132060186Y-94550338D01*
X132092173Y-94594279D01*
X132126099Y-94643391D01*
X132160994Y-94698641D01*
X132195889Y-94761000D01*
X132361317Y-94761000D01*
X132323837Y-94691210D01*
X132274725Y-94609788D01*
X132217859Y-94525136D01*
X132157116Y-94445653D01*
X132353562Y-94153569D01*
X132192011Y-94153569D01*
X132067940Y-94343553D01*
X131933530Y-94153569D01*
X131766809Y-94153569D01*
X131980057Y-94448237D01*
X131921252Y-94524489D01*
X131863094Y-94605265D01*
X131810105Y-94685394D01*
X131765517Y-94761000D01*
X131686680Y-94761000D01*
X131686680Y-94629174D01*
X131527714Y-94629174D01*
X131527714Y-93961000D01*
X131419152Y-93961000D01*
X131363578Y-94011404D01*
X131295081Y-94057931D01*
X131222706Y-94097995D01*
X131155501Y-94127721D01*
X130687649Y-94127721D01*
X130687649Y-94092826D01*
X131013336Y-94092826D01*
X131013336Y-93961000D01*
X130528683Y-93961000D01*
X130528683Y-94761000D01*
X129846580Y-94761000D01*
X129579913Y-94361000D01*
X130119421Y-93551738D01*
X130528683Y-93551738D01*
X132361317Y-93551738D01*
X132770579Y-93551738D01*
X133310087Y-94361000D01*
G37*
%TO.C,R17*%
D12*
X143298142Y-89164900D02*
X143772658Y-89164900D01*
X143298142Y-90209900D02*
X143772658Y-90209900D01*
%TO.C,R23*%
X140800858Y-102626900D02*
X140326342Y-102626900D01*
X140800858Y-103671900D02*
X140326342Y-103671900D01*
%TO.C,R24*%
X140800858Y-104100100D02*
X140326342Y-104100100D01*
X140800858Y-105145100D02*
X140326342Y-105145100D01*
%TO.C,R6*%
X167851858Y-89164900D02*
X167377342Y-89164900D01*
X167851858Y-90209900D02*
X167377342Y-90209900D01*
%TO.C,R26*%
X143297742Y-104100100D02*
X143772258Y-104100100D01*
X143297742Y-105145100D02*
X143772258Y-105145100D01*
%TO.C,R12*%
X170823658Y-101153700D02*
X170349142Y-101153700D01*
X170823658Y-102198700D02*
X170349142Y-102198700D01*
%TO.C,R13*%
X140800858Y-87691700D02*
X140326342Y-87691700D01*
X140800858Y-88736700D02*
X140326342Y-88736700D01*
%TO.C,R22*%
X140800858Y-101153700D02*
X140326342Y-101153700D01*
X140800858Y-102198700D02*
X140326342Y-102198700D01*
%TO.C,J2*%
X147164999Y-110210000D02*
X148415000Y-110210000D01*
X147164999Y-113310000D02*
X147164999Y-110210000D01*
X148415000Y-113310000D02*
X147164999Y-113310000D01*
X162158494Y-109095000D02*
X162591506Y-109094999D01*
X162375001Y-109470000D02*
X162158494Y-109095000D01*
X162591506Y-109094999D02*
X162375001Y-109470000D01*
X162735000Y-110210000D02*
X163985001Y-110210000D01*
X163985001Y-110210000D02*
X163985001Y-113310000D01*
X163985001Y-113310000D02*
X162735000Y-113310000D01*
D13*
%TO.C,kibuzzard-6A03EEF0*%
G36*
X180999992Y-94202680D02*
G01*
X181020670Y-94282809D01*
X181038118Y-94362292D01*
X181053627Y-94445006D01*
X180897246Y-94445006D01*
X180913401Y-94362292D01*
X180931494Y-94282809D01*
X180952173Y-94202680D01*
X180976082Y-94116735D01*
X180999992Y-94202680D01*
G37*
G36*
X178403223Y-94098318D02*
G01*
X178448134Y-94120612D01*
X178477213Y-94158738D01*
X178486906Y-94213666D01*
X178450719Y-94303488D01*
X178403223Y-94327236D01*
X178333110Y-94335152D01*
X178298215Y-94335152D01*
X178298215Y-94094764D01*
X178324063Y-94091533D01*
X178346034Y-94090887D01*
X178403223Y-94098318D01*
G37*
G36*
X180341834Y-94098318D02*
G01*
X180386745Y-94120612D01*
X180415824Y-94158738D01*
X180425517Y-94213666D01*
X180389330Y-94303488D01*
X180341834Y-94327236D01*
X180271721Y-94335152D01*
X180236826Y-94335152D01*
X180236826Y-94094764D01*
X180262674Y-94091533D01*
X180284645Y-94090887D01*
X180341834Y-94098318D01*
G37*
G36*
X177787876Y-94098157D02*
G01*
X177832302Y-94119966D01*
X177860897Y-94159223D01*
X177870428Y-94218835D01*
X177860735Y-94281679D01*
X177831656Y-94322874D01*
X177783514Y-94345653D01*
X177716632Y-94353246D01*
X177652011Y-94353246D01*
X177652011Y-94094764D01*
X177691430Y-94091533D01*
X177730848Y-94090887D01*
X177787876Y-94098157D01*
G37*
G36*
X179104677Y-94103811D02*
G01*
X179142803Y-94163262D01*
X179160897Y-94251792D01*
X179164289Y-94304619D01*
X179165420Y-94361000D01*
X179164289Y-94417220D01*
X179160897Y-94469562D01*
X179142803Y-94558092D01*
X179104031Y-94618189D01*
X179038764Y-94640160D01*
X178972851Y-94618189D01*
X178934725Y-94558738D01*
X178916632Y-94470208D01*
X178913239Y-94417381D01*
X178912108Y-94361000D01*
X178913239Y-94304780D01*
X178916632Y-94252438D01*
X178934725Y-94163908D01*
X178972851Y-94103811D01*
X179038764Y-94081840D01*
X179104677Y-94103811D01*
G37*
G36*
X182877357Y-94361000D02*
G01*
X182326217Y-95187710D01*
X181916955Y-95187710D01*
X181118247Y-95187710D01*
X180640057Y-95187710D01*
X179723740Y-95187710D01*
X179040057Y-95187710D01*
X178701446Y-95187710D01*
X177652011Y-95187710D01*
X177493045Y-95187710D01*
X177083783Y-95187710D01*
X176532643Y-94361000D01*
X176791986Y-93971985D01*
X177493045Y-93971985D01*
X177493045Y-94761646D01*
X177652011Y-94761646D01*
X177652011Y-94491533D01*
X177708877Y-94491533D01*
X177804444Y-94484425D01*
X177884357Y-94463100D01*
X177948619Y-94427559D01*
X177995648Y-94376078D01*
X178023866Y-94306934D01*
X178033271Y-94220128D01*
X178023937Y-94134183D01*
X177995935Y-94065900D01*
X177949265Y-94015281D01*
X177885650Y-93980458D01*
X177858559Y-93973278D01*
X178139249Y-93973278D01*
X178139249Y-94761646D01*
X178298215Y-94761646D01*
X178298215Y-94466977D01*
X178380929Y-94466977D01*
X178424709Y-94540160D01*
X178465582Y-94612373D01*
X178502577Y-94685556D01*
X178534725Y-94761646D01*
X178701446Y-94761646D01*
X178664612Y-94676994D01*
X178620024Y-94587817D01*
X178572205Y-94502519D01*
X178525679Y-94428205D01*
X178582221Y-94391695D01*
X178605391Y-94361000D01*
X178750557Y-94361000D01*
X178755202Y-94458052D01*
X178769136Y-94542422D01*
X178792359Y-94614110D01*
X178824871Y-94673116D01*
X178881808Y-94731634D01*
X178953537Y-94766744D01*
X179040057Y-94778447D01*
X179124494Y-94766744D01*
X179195145Y-94731634D01*
X179252011Y-94673116D01*
X179284806Y-94614110D01*
X179308231Y-94542422D01*
X179322286Y-94458052D01*
X179326971Y-94361000D01*
X179396761Y-94361000D01*
X179402577Y-94458092D01*
X179420024Y-94542583D01*
X179448134Y-94614312D01*
X179485937Y-94673116D01*
X179532948Y-94718997D01*
X179588683Y-94751953D01*
X179652496Y-94771824D01*
X179723740Y-94778447D01*
X179802738Y-94775216D01*
X179869136Y-94765523D01*
X179957666Y-94742260D01*
X179957666Y-94342906D01*
X179798700Y-94342906D01*
X179798700Y-94634990D01*
X179767682Y-94638868D01*
X179736664Y-94640160D01*
X179659443Y-94623197D01*
X179603546Y-94572309D01*
X179578416Y-94518674D01*
X179563338Y-94448237D01*
X179558312Y-94361000D01*
X179561058Y-94301711D01*
X179569297Y-94247914D01*
X179605485Y-94160031D01*
X179669459Y-94102519D01*
X179765097Y-94081840D01*
X179850396Y-94096057D01*
X179920186Y-94128367D01*
X179961543Y-94001711D01*
X179935048Y-93986202D01*
X179905323Y-93973278D01*
X180077859Y-93973278D01*
X180077859Y-94761646D01*
X180236826Y-94761646D01*
X180236826Y-94466977D01*
X180319540Y-94466977D01*
X180363320Y-94540160D01*
X180404192Y-94612373D01*
X180441187Y-94685556D01*
X180473336Y-94761646D01*
X180640057Y-94761646D01*
X180665905Y-94761646D01*
X180831333Y-94761646D01*
X180867520Y-94576832D01*
X181080767Y-94576832D01*
X181118247Y-94761646D01*
X181288845Y-94761646D01*
X181330202Y-94761646D01*
X181476244Y-94761646D01*
X181469782Y-94139998D01*
X181564128Y-94478609D01*
X181680444Y-94478609D01*
X181778667Y-94139998D01*
X181770913Y-94761646D01*
X181916955Y-94761646D01*
X181914047Y-94659384D01*
X181910493Y-94559384D01*
X181906131Y-94460838D01*
X181900800Y-94362939D01*
X181894338Y-94264877D01*
X181886583Y-94165847D01*
X181878021Y-94065039D01*
X181869136Y-93961646D01*
X181737310Y-93961646D01*
X181714047Y-94030144D01*
X181685614Y-94118674D01*
X181653304Y-94216897D01*
X181620994Y-94315766D01*
X181591268Y-94222712D01*
X181560250Y-94123197D01*
X181531171Y-94031436D01*
X181508554Y-93961646D01*
X181376729Y-93961646D01*
X181368166Y-94049207D01*
X181360574Y-94143876D01*
X181353950Y-94243714D01*
X181348296Y-94346784D01*
X181343288Y-94451792D01*
X181338603Y-94557446D01*
X181334241Y-94661485D01*
X181330202Y-94761646D01*
X181288845Y-94761646D01*
X181267520Y-94670945D01*
X181245937Y-94582880D01*
X181224095Y-94497452D01*
X181201995Y-94414661D01*
X181179637Y-94334506D01*
X181151486Y-94237292D01*
X181123255Y-94142745D01*
X181094943Y-94050863D01*
X181066551Y-93961646D01*
X180893368Y-93961646D01*
X180865985Y-94050136D01*
X180838118Y-94141129D01*
X180809766Y-94234627D01*
X180780929Y-94330628D01*
X180757717Y-94410111D01*
X180734609Y-94492955D01*
X180711604Y-94579158D01*
X180688703Y-94668722D01*
X180665905Y-94761646D01*
X180640057Y-94761646D01*
X180603223Y-94676994D01*
X180558635Y-94587817D01*
X180510816Y-94502519D01*
X180464289Y-94428205D01*
X180520832Y-94391695D01*
X180558635Y-94341614D01*
X180579960Y-94281517D01*
X180587068Y-94214958D01*
X180581737Y-94152115D01*
X180565743Y-94097995D01*
X180504354Y-94015927D01*
X180460412Y-93987817D01*
X180408716Y-93968108D01*
X180349911Y-93956477D01*
X180284645Y-93952599D01*
X180239410Y-93953892D01*
X180185129Y-93957123D01*
X180128910Y-93963585D01*
X180077859Y-93973278D01*
X179905323Y-93973278D01*
X179890460Y-93966816D01*
X179826486Y-93950661D01*
X179743126Y-93943553D01*
X179673013Y-93950176D01*
X179607423Y-93970047D01*
X179548296Y-94003165D01*
X179497569Y-94049530D01*
X179455889Y-94108819D01*
X179423901Y-94180709D01*
X179403546Y-94264877D01*
X179396761Y-94361000D01*
X179326971Y-94361000D01*
X179322367Y-94263948D01*
X179308554Y-94179578D01*
X179285533Y-94107890D01*
X179253304Y-94048884D01*
X179196725Y-93990366D01*
X179125212Y-93955256D01*
X179038764Y-93943553D01*
X178954901Y-93955256D01*
X178884250Y-93990366D01*
X178826809Y-94048884D01*
X178793449Y-94107890D01*
X178769620Y-94179578D01*
X178755323Y-94263948D01*
X178750557Y-94361000D01*
X178605391Y-94361000D01*
X178620024Y-94341614D01*
X178641349Y-94281517D01*
X178648457Y-94214958D01*
X178643126Y-94152115D01*
X178627132Y-94097995D01*
X178565743Y-94015927D01*
X178521801Y-93987817D01*
X178470105Y-93968108D01*
X178411300Y-93956477D01*
X178346034Y-93952599D01*
X178300800Y-93953892D01*
X178246519Y-93957123D01*
X178190299Y-93963585D01*
X178139249Y-93973278D01*
X177858559Y-93973278D01*
X177806813Y-93959564D01*
X177712754Y-93952599D01*
X177662351Y-93953892D01*
X177604192Y-93957123D01*
X177545388Y-93962939D01*
X177493045Y-93971985D01*
X176791986Y-93971985D01*
X177083783Y-93534290D01*
X177493045Y-93534290D01*
X181916955Y-93534290D01*
X182326217Y-93534290D01*
X182877357Y-94361000D01*
G37*
%TO.C,R16*%
D12*
X143298142Y-87691700D02*
X143772658Y-87691700D01*
X143298142Y-88736700D02*
X143772658Y-88736700D01*
%TD*%
%LPC*%
D14*
%TO.C,R19*%
X142710400Y-92633800D03*
X144360400Y-92633800D03*
%TD*%
%TO.C,R2*%
X169761400Y-92633800D03*
X171411400Y-92633800D03*
%TD*%
%TO.C,R18*%
X142710400Y-91160600D03*
X144360400Y-91160600D03*
%TD*%
D15*
%TO.C,H2*%
X170180000Y-82550000D03*
D16*
X172605000Y-82550000D03*
%TD*%
D14*
%TO.C,R27*%
X142710400Y-106095800D03*
X144360400Y-106095800D03*
%TD*%
D15*
%TO.C,H4*%
X140970000Y-111760000D03*
D16*
X143395000Y-111760000D03*
%TD*%
D17*
%TO.C,R21*%
X141388600Y-100203000D03*
X139738600Y-100203000D03*
%TD*%
%TO.C,R11*%
X168439600Y-101676200D03*
X166789600Y-101676200D03*
%TD*%
D14*
%TO.C,R3*%
X166789600Y-92633800D03*
X168439600Y-92633800D03*
%TD*%
%TO.C,R20*%
X142710400Y-94107000D03*
X144360400Y-94107000D03*
%TD*%
%TO.C,R1*%
X169761400Y-94107000D03*
X171411400Y-94107000D03*
%TD*%
D17*
%TO.C,R8*%
X168439600Y-91160600D03*
X166789600Y-91160600D03*
%TD*%
D14*
%TO.C,R25*%
X142710400Y-101676200D03*
X144360400Y-101676200D03*
%TD*%
%TO.C,R4*%
X169761400Y-91160600D03*
X171411400Y-91160600D03*
%TD*%
%TO.C,R9*%
X169761400Y-106095800D03*
X171411400Y-106095800D03*
%TD*%
D17*
%TO.C,R5*%
X171411400Y-88214200D03*
X169761400Y-88214200D03*
%TD*%
%TO.C,R15*%
X141388600Y-94107000D03*
X139738600Y-94107000D03*
%TD*%
D14*
%TO.C,R10*%
X166789600Y-106095800D03*
X168439600Y-106095800D03*
%TD*%
D17*
%TO.C,R7*%
X171411400Y-89687400D03*
X169761400Y-89687400D03*
%TD*%
%TO.C,R14*%
X141388600Y-92633800D03*
X139738600Y-92633800D03*
%TD*%
D18*
%TO.C,J1*%
X148774999Y-84090000D03*
X148774999Y-81010000D03*
X149175000Y-84090000D03*
X149175000Y-81010000D03*
X149575000Y-84090000D03*
X149575000Y-81010000D03*
X149975000Y-84089999D03*
X149975000Y-81010001D03*
X150375000Y-84090000D03*
X150375000Y-81010000D03*
X150775000Y-84090000D03*
X150775000Y-81010000D03*
X151175000Y-84090000D03*
X151175000Y-81010000D03*
X151574999Y-84090000D03*
X151574999Y-81010000D03*
X151975000Y-84090000D03*
X151975000Y-81010000D03*
X152375000Y-84090000D03*
X152375000Y-81010000D03*
X152775000Y-84089999D03*
X152775000Y-81010001D03*
X153175000Y-84090000D03*
X153175000Y-81010000D03*
X153575000Y-84090000D03*
X153575000Y-81010000D03*
X153975000Y-84090000D03*
X153975000Y-81010000D03*
X154374999Y-84090000D03*
X154374999Y-81010000D03*
X154775000Y-84090000D03*
X154775000Y-81010000D03*
X155175000Y-84090000D03*
X155175000Y-81010000D03*
X155575000Y-84089999D03*
X155575000Y-81010001D03*
X155975000Y-84090000D03*
X155975000Y-81010000D03*
X156375000Y-84090000D03*
X156375000Y-81010000D03*
X156775001Y-84090000D03*
X156775001Y-81010000D03*
X157175000Y-84090000D03*
X157175000Y-81010000D03*
X157575000Y-84090000D03*
X157575000Y-81010000D03*
X157975000Y-84090000D03*
X157975000Y-81010000D03*
X158375000Y-84089999D03*
X158375000Y-81010001D03*
X158775000Y-84090000D03*
X158775000Y-81010000D03*
X159175000Y-84090000D03*
X159175000Y-81010000D03*
X159575001Y-84090000D03*
X159575001Y-81010000D03*
X159975000Y-84090000D03*
X159975000Y-81010000D03*
X160375000Y-84090000D03*
X160375000Y-81010000D03*
X160775000Y-84090000D03*
X160775000Y-81010000D03*
X161175000Y-84089999D03*
X161175000Y-81010001D03*
X161575000Y-84090000D03*
X161575000Y-81010000D03*
X161975000Y-84090000D03*
X161975000Y-81010000D03*
X162375001Y-84090000D03*
X162375001Y-81010000D03*
%TD*%
D15*
%TO.C,H1*%
X140970000Y-82550000D03*
D16*
X143395000Y-82550000D03*
%TD*%
D14*
%TO.C,R17*%
X142710400Y-89687400D03*
X144360400Y-89687400D03*
%TD*%
D15*
%TO.C,H3*%
X170180000Y-111760000D03*
D16*
X172605000Y-111760000D03*
%TD*%
D17*
%TO.C,R23*%
X141388600Y-103149400D03*
X139738600Y-103149400D03*
%TD*%
%TO.C,R24*%
X141388600Y-104622600D03*
X139738600Y-104622600D03*
%TD*%
%TO.C,R6*%
X168439600Y-89687400D03*
X166789600Y-89687400D03*
%TD*%
D14*
%TO.C,R26*%
X142710000Y-104622600D03*
X144360000Y-104622600D03*
%TD*%
D17*
%TO.C,R12*%
X171411400Y-101676200D03*
X169761400Y-101676200D03*
%TD*%
%TO.C,R13*%
X141388600Y-88214200D03*
X139738600Y-88214200D03*
%TD*%
%TO.C,R22*%
X141388600Y-101676200D03*
X139738600Y-101676200D03*
%TD*%
D19*
%TO.C,J2*%
X162375001Y-110220000D03*
X162375001Y-113300000D03*
X161975000Y-110220000D03*
X161975000Y-113300000D03*
X161575000Y-110220000D03*
X161575000Y-113300000D03*
X161175000Y-110220001D03*
X161175000Y-113299999D03*
X160775000Y-110220000D03*
X160775000Y-113300000D03*
X160375000Y-110220000D03*
X160375000Y-113300000D03*
X159975000Y-110220000D03*
X159975000Y-113300000D03*
X159575001Y-110220000D03*
X159575001Y-113300000D03*
X159175000Y-110220000D03*
X159175000Y-113300000D03*
X158775000Y-110220000D03*
X158775000Y-113300000D03*
X158375000Y-110220001D03*
X158375000Y-113299999D03*
X157975000Y-110220000D03*
X157975000Y-113300000D03*
X157575000Y-110220000D03*
X157575000Y-113300000D03*
X157175000Y-110220000D03*
X157175000Y-113300000D03*
X156775001Y-110220000D03*
X156775001Y-113300000D03*
X156375000Y-110220000D03*
X156375000Y-113300000D03*
X155975000Y-110220000D03*
X155975000Y-113300000D03*
X155575000Y-110220001D03*
X155575000Y-113299999D03*
X155175000Y-110220000D03*
X155175000Y-113300000D03*
X154775000Y-110220000D03*
X154775000Y-113300000D03*
X154374999Y-110220000D03*
X154374999Y-113300000D03*
X153975000Y-110220000D03*
X153975000Y-113300000D03*
X153575000Y-110220000D03*
X153575000Y-113300000D03*
X153175000Y-110220000D03*
X153175000Y-113300000D03*
X152775000Y-110220001D03*
X152775000Y-113299999D03*
X152375000Y-110220000D03*
X152375000Y-113300000D03*
X151975000Y-110220000D03*
X151975000Y-113300000D03*
X151574999Y-110220000D03*
X151574999Y-113300000D03*
X151175000Y-110220000D03*
X151175000Y-113300000D03*
X150775000Y-110220000D03*
X150775000Y-113300000D03*
X150375000Y-110220000D03*
X150375000Y-113300000D03*
X149975000Y-110220001D03*
X149975000Y-113299999D03*
X149575000Y-110220000D03*
X149575000Y-113300000D03*
X149175000Y-110220000D03*
X149175000Y-113300000D03*
X148774999Y-110220000D03*
X148774999Y-113300000D03*
%TD*%
D14*
%TO.C,R16*%
X142710400Y-88214200D03*
X144360400Y-88214200D03*
%TD*%
D20*
%TO.C,J3*%
X180975000Y-90805000D03*
D21*
X178435000Y-90805000D03*
X180975000Y-88265000D03*
X178435000Y-88265000D03*
X180975000Y-85725000D03*
X178435000Y-85725000D03*
X180975000Y-83185000D03*
X178435000Y-83185000D03*
X180975000Y-80645000D03*
X178435000Y-80645000D03*
%TD*%
D20*
%TO.C,J5*%
X130175000Y-80645000D03*
D21*
X132715000Y-80645000D03*
X130175000Y-83185000D03*
X132715000Y-83185000D03*
X130175000Y-85725000D03*
X132715000Y-85725000D03*
X130175000Y-88265000D03*
X132715000Y-88265000D03*
X130175000Y-90805000D03*
X132715000Y-90805000D03*
%TD*%
D20*
%TO.C,J6*%
X130175000Y-103505000D03*
D21*
X132715000Y-103505000D03*
X130175000Y-106045000D03*
X132715000Y-106045000D03*
X130175000Y-108585000D03*
X132715000Y-108585000D03*
X130175000Y-111125000D03*
X132715000Y-111125000D03*
X130175000Y-113665000D03*
X132715000Y-113665000D03*
%TD*%
D20*
%TO.C,J4*%
X180975000Y-113665000D03*
D21*
X178435000Y-113665000D03*
X180975000Y-111125000D03*
X178435000Y-111125000D03*
X180975000Y-108585000D03*
X178435000Y-108585000D03*
X180975000Y-106045000D03*
X178435000Y-106045000D03*
X180975000Y-103505000D03*
X178435000Y-103505000D03*
%TD*%
%LPD*%
M02*
