M48
; DRILL file KiCad 10.0.3 date 2026-05-19T16:29:09
; FORMAT={-:-/ absolute / inch / decimal}
; #@! TF.CreationDate,2026-05-19T16:29:09-04:00
; #@! TF.GenerationSoftware,Kicad,Pcbnew,10.0.3
; #@! TF.FileFunction,Plated,1,4,PTH
FMAT,2
INCH
; #@! TA.AperFunction,Plated,PTH,ViaDrill
T1C0.0120
; #@! TA.AperFunction,Plated,PTH,ComponentDrill
T2C0.0394
%
G90
G05
T1
X5.5015Y-3.473
X5.5015Y-3.647
X5.5015Y-3.705
X5.5015Y-3.945
X5.5015Y-4.003
X5.5015Y-4.061
X5.5015Y-4.119
X5.5665Y-3.473
X5.5665Y-3.705
X5.5665Y-3.945
X5.5665Y-4.003
X5.5665Y-4.061
X5.5665Y-4.119
X5.6185Y-3.473
X5.6185Y-3.531
X5.6185Y-3.589
X5.6185Y-3.647
X5.6185Y-3.705
X5.6185Y-4.003
X5.6185Y-4.119
X5.6185Y-4.177
X5.6835Y-3.473
X5.6835Y-3.531
X5.6835Y-3.589
X5.6835Y-3.647
X5.6835Y-3.705
X5.6835Y-4.003
X5.6835Y-4.119
X5.6835Y-4.177
X5.73Y-3.676
X6.166Y-3.4296
X6.19Y-3.406
X6.19Y-4.2364
X6.214Y-3.4306
X6.214Y-4.2854
X6.238Y-3.406
X6.251Y-4.2364
X6.251Y-4.4004
X6.262Y-3.4306
X6.2825Y-4.4264
X6.286Y-3.406
X6.2982Y-4.4952
X6.307Y-3.1436
X6.308Y-3.2506
X6.314Y-4.4264
X6.3297Y-3.1206
X6.33Y-3.2716
X6.348Y-3.4306
X6.352Y-3.2506
X6.353Y-3.1436
X6.362Y-4.3004
X6.372Y-3.4066
X6.424Y-4.5124
X6.448Y-4.4004
X6.455Y-4.4904
X6.455Y-4.5344
X6.5665Y-3.531
X6.5665Y-3.589
X6.6315Y-3.531
X6.6315Y-3.589
X6.6315Y-3.647
X6.6315Y-4.003
X6.6315Y-4.177
X6.6835Y-3.473
X6.6835Y-3.531
X6.6835Y-3.589
X6.6835Y-3.705
X6.7485Y-3.473
X6.7485Y-3.531
X6.7485Y-3.589
X6.7485Y-3.705
X6.7485Y-4.003
X6.7485Y-4.177
X6.749Y-3.647
T2
X5.125Y-3.175
X5.125Y-3.275
X5.125Y-3.375
X5.125Y-3.475
X5.125Y-3.575
X5.125Y-4.075
X5.125Y-4.175
X5.125Y-4.275
X5.125Y-4.375
X5.125Y-4.475
X5.225Y-3.175
X5.225Y-3.275
X5.225Y-3.375
X5.225Y-3.475
X5.225Y-3.575
X5.225Y-4.075
X5.225Y-4.175
X5.225Y-4.275
X5.225Y-4.375
X5.225Y-4.475
X7.025Y-3.175
X7.025Y-3.275
X7.025Y-3.375
X7.025Y-3.475
X7.025Y-3.575
X7.025Y-4.075
X7.025Y-4.175
X7.025Y-4.275
X7.025Y-4.375
X7.025Y-4.475
X7.125Y-3.175
X7.125Y-3.275
X7.125Y-3.375
X7.125Y-3.475
X7.125Y-3.575
X7.125Y-4.075
X7.125Y-4.175
X7.125Y-4.275
X7.125Y-4.375
X7.125Y-4.475
M30
