%TF.GenerationSoftware,KiCad,Pcbnew,10.0.3*%
%TF.CreationDate,2026-05-19T16:29:09-04:00*%
%TF.ProjectId,EfficientInterface,45666669-6369-4656-9e74-496e74657266,v1.0*%
%TF.SameCoordinates,Original*%
%TF.FileFunction,Soldermask,Bot*%
%TF.FilePolarity,Negative*%
%FSLAX46Y46*%
G04 Gerber Fmt 4.6, Leading zero omitted, Abs format (unit mm)*
G04 Created by KiCad (PCBNEW 10.0.3) date 2026-05-19 16:29:09*
%MOMM*%
%LPD*%
G01*
G04 APERTURE LIST*
%ADD10C,3.700000*%
%ADD11R,1.700000X1.700000*%
%ADD12C,1.700000*%
G04 APERTURE END LIST*
D10*
%TO.C,H2*%
X170180000Y-82550000D03*
%TD*%
%TO.C,H4*%
X140970000Y-111760000D03*
%TD*%
%TO.C,H1*%
X140970000Y-82550000D03*
%TD*%
%TO.C,H3*%
X170180000Y-111760000D03*
%TD*%
D11*
%TO.C,J3*%
X180975000Y-90805000D03*
D12*
X178435000Y-90805000D03*
X180975000Y-88265000D03*
X178435000Y-88265000D03*
X180975000Y-85725000D03*
X178435000Y-85725000D03*
X180975000Y-83185000D03*
X178435000Y-83185000D03*
X180975000Y-80645000D03*
X178435000Y-80645000D03*
%TD*%
D11*
%TO.C,J5*%
X130175000Y-80645000D03*
D12*
X132715000Y-80645000D03*
X130175000Y-83185000D03*
X132715000Y-83185000D03*
X130175000Y-85725000D03*
X132715000Y-85725000D03*
X130175000Y-88265000D03*
X132715000Y-88265000D03*
X130175000Y-90805000D03*
X132715000Y-90805000D03*
%TD*%
D11*
%TO.C,J6*%
X130175000Y-103505000D03*
D12*
X132715000Y-103505000D03*
X130175000Y-106045000D03*
X132715000Y-106045000D03*
X130175000Y-108585000D03*
X132715000Y-108585000D03*
X130175000Y-111125000D03*
X132715000Y-111125000D03*
X130175000Y-113665000D03*
X132715000Y-113665000D03*
%TD*%
D11*
%TO.C,J4*%
X180975000Y-113665000D03*
D12*
X178435000Y-113665000D03*
X180975000Y-111125000D03*
X178435000Y-111125000D03*
X180975000Y-108585000D03*
X178435000Y-108585000D03*
X180975000Y-106045000D03*
X178435000Y-106045000D03*
X180975000Y-103505000D03*
X178435000Y-103505000D03*
%TD*%
M02*
