%TF.GenerationSoftware,KiCad,Pcbnew,10.0.3*%
%TF.CreationDate,2026-05-19T14:30:45-04:00*%
%TF.ProjectId,EfficientInterface,45666669-6369-4656-9e74-496e74657266,v1.0*%
%TF.SameCoordinates,Original*%
%TF.FileFunction,Copper,L3,Inr*%
%TF.FilePolarity,Positive*%
%FSLAX46Y46*%
G04 Gerber Fmt 4.6, Leading zero omitted, Abs format (unit mm)*
G04 Created by KiCad (PCBNEW 10.0.3) date 2026-05-19 14:30:45*
%MOMM*%
%LPD*%
G01*
G04 APERTURE LIST*
%TA.AperFunction,ComponentPad*%
%ADD10R,1.700000X1.700000*%
%TD*%
%TA.AperFunction,ComponentPad*%
%ADD11C,1.700000*%
%TD*%
%TA.AperFunction,ViaPad*%
%ADD12C,0.609600*%
%TD*%
%TA.AperFunction,Conductor*%
%ADD13C,0.203200*%
%TD*%
%TA.AperFunction,Conductor*%
%ADD14C,0.609600*%
%TD*%
G04 APERTURE END LIST*
D10*
%TO.N,Net-(J3-Pad1)*%
%TO.C,J3*%
X180975000Y-90805000D03*
D11*
%TO.N,unconnected-(J3-Pad2)*%
X178435000Y-90805000D03*
%TO.N,Net-(J3-Pad3)*%
X180975000Y-88265000D03*
%TO.N,Net-(J3-Pad4)*%
X178435000Y-88265000D03*
%TO.N,Net-(J3-Pad5)*%
X180975000Y-85725000D03*
%TO.N,Net-(J3-Pad6)*%
X178435000Y-85725000D03*
%TO.N,Net-(J3-Pad7)*%
X180975000Y-83185000D03*
%TO.N,Net-(J3-Pad8)*%
X178435000Y-83185000D03*
%TO.N,Net-(J3-Pad9)*%
X180975000Y-80645000D03*
%TO.N,GND*%
X178435000Y-80645000D03*
%TD*%
D10*
%TO.N,Net-(J5-Pin_1)*%
%TO.C,J5*%
X130175000Y-80645000D03*
D11*
%TO.N,Net-(J5-Pin_2)*%
X132715000Y-80645000D03*
%TO.N,GND*%
X130175000Y-83185000D03*
%TO.N,Net-(J5-Pin_4)*%
X132715000Y-83185000D03*
%TO.N,GND*%
X130175000Y-85725000D03*
%TO.N,Net-(J5-Pin_6)*%
X132715000Y-85725000D03*
%TO.N,Net-(J5-Pin_7)*%
X130175000Y-88265000D03*
%TO.N,Net-(J5-Pin_8)*%
X132715000Y-88265000D03*
%TO.N,Net-(J5-Pin_9)*%
X130175000Y-90805000D03*
%TO.N,Net-(J5-Pin_10)*%
X132715000Y-90805000D03*
%TD*%
D10*
%TO.N,Net-(J6-Pin_1)*%
%TO.C,J6*%
X130175000Y-103505000D03*
D11*
%TO.N,unconnected-(J6-Pin_2-Pad2)*%
X132715000Y-103505000D03*
%TO.N,Net-(J6-Pin_3)*%
X130175000Y-106045000D03*
%TO.N,Net-(J6-Pin_4)*%
X132715000Y-106045000D03*
%TO.N,Net-(J6-Pin_5)*%
X130175000Y-108585000D03*
%TO.N,unconnected-(J6-Pin_6-Pad6)*%
X132715000Y-108585000D03*
%TO.N,Net-(J6-Pin_7)*%
X130175000Y-111125000D03*
%TO.N,Net-(J6-Pin_8)*%
X132715000Y-111125000D03*
%TO.N,GND*%
X130175000Y-113665000D03*
%TO.N,Net-(J6-Pin_10)*%
X132715000Y-113665000D03*
%TD*%
D10*
%TO.N,Net-(J4-Pad1)*%
%TO.C,J4*%
X180975000Y-113665000D03*
D11*
%TO.N,Net-(J4-Pad2)*%
X178435000Y-113665000D03*
%TO.N,unconnected-(J4-Pad3)*%
X180975000Y-111125000D03*
%TO.N,unconnected-(J4-Pad4)*%
X178435000Y-111125000D03*
%TO.N,GND*%
X180975000Y-108585000D03*
X178435000Y-108585000D03*
%TO.N,Net-(J4-Pad7)*%
X180975000Y-106045000D03*
%TO.N,Net-(J4-Pad8)*%
X178435000Y-106045000D03*
%TO.N,GND*%
X180975000Y-103505000D03*
X178435000Y-103505000D03*
%TD*%
D12*
%TO.N,Net-(J5-Pin_8)*%
X142710400Y-92633800D03*
%TO.N,JTAG_TDI*%
X144360400Y-92633800D03*
X157835600Y-108850399D03*
%TO.N,Net-(J3-Pad3)*%
X171424600Y-92633800D03*
%TO.N,Net-(J5-Pin_6)*%
X142710400Y-91160600D03*
%TO.N,JTAG_TDO*%
X144360400Y-91160600D03*
X158775400Y-107605799D03*
%TO.N,Net-(J6-Pin_10)*%
X142710400Y-106095800D03*
%TO.N,M_RST*%
X144360400Y-106095800D03*
X159664400Y-86512400D03*
X160223200Y-82564000D03*
%TO.N,M_TDO*%
X161366200Y-79846200D03*
X141388600Y-100203000D03*
X156616400Y-87110600D03*
%TO.N,Net-(J6-Pin_1)*%
X139738600Y-100203000D03*
%TO.N,Net-(J4-Pad8)*%
X168439600Y-101676200D03*
%TO.N,Net-(J3-Pad4)*%
X168439600Y-92633800D03*
%TO.N,Net-(J5-Pin_10)*%
X142710400Y-94107000D03*
%TO.N,~{E1_RST}*%
X169761400Y-91160600D03*
X158775400Y-111771399D03*
X144360400Y-94107000D03*
X163779200Y-111771399D03*
%TO.N,PRG_SPI_MISO*%
X161848800Y-86526400D03*
X169761400Y-94107000D03*
%TO.N,Net-(J3-Pad1)*%
X171411400Y-94107000D03*
%TO.N,Net-(J3-Pad6)*%
X168439600Y-91160600D03*
%TO.N,PRG_SPI_CS*%
X161239200Y-87136000D03*
X166789600Y-91160600D03*
%TO.N,Net-(J6-Pin_4)*%
X142710400Y-101676200D03*
%TO.N,+1V8_DCDC*%
X141388600Y-88214200D03*
X161594800Y-109231399D03*
X144360400Y-101676200D03*
%TO.N,Net-(J3-Pad5)*%
X171411400Y-91160600D03*
%TO.N,Net-(J4-Pad1)*%
X171411400Y-106095800D03*
%TO.N,Net-(J3-Pad9)*%
X171411400Y-88214200D03*
%TO.N,BOOT_MODE2*%
X163957000Y-115174999D03*
X169761400Y-88214200D03*
%TO.N,JTAG_TRSTN*%
X141388600Y-94107000D03*
X159975000Y-114178599D03*
%TO.N,Net-(J5-Pin_9)*%
X139738600Y-94107000D03*
%TO.N,Net-(J4-Pad2)*%
X168439600Y-106095800D03*
%TO.N,Net-(J3-Pad7)*%
X171411400Y-89687400D03*
%TO.N,BOOT_MODE0*%
X169761400Y-89687400D03*
X163957000Y-114057399D03*
%TO.N,JTAG_CTRL*%
X157226000Y-107605799D03*
X145542000Y-93370400D03*
%TO.N,Net-(J5-Pin_7)*%
X139738600Y-92633800D03*
%TO.N,M_TMS*%
X160197800Y-79846200D03*
X157835600Y-87136000D03*
X141388600Y-103149400D03*
%TO.N,M_TEST*%
X160782000Y-83097400D03*
X159054800Y-87136000D03*
X144360400Y-104622600D03*
%TO.N,M_TDI*%
X141388600Y-101676200D03*
X160775000Y-79262000D03*
X157226000Y-86512400D03*
%TO.N,M_TCK*%
X141388600Y-104622600D03*
X158445200Y-86512400D03*
X161340800Y-82564000D03*
%TO.N,Net-(J5-Pin_4)*%
X142710400Y-89687400D03*
%TO.N,JTAG_TCK*%
X159575001Y-112431799D03*
X144360400Y-89687400D03*
%TO.N,Net-(J6-Pin_5)*%
X139738600Y-103149400D03*
%TO.N,Net-(J6-Pin_7)*%
X139738600Y-104622600D03*
%TO.N,Net-(J3-Pad8)*%
X168439600Y-89687400D03*
%TO.N,BOOT_MODE1*%
X163169600Y-114616199D03*
X166789600Y-89687400D03*
%TO.N,Net-(J6-Pin_8)*%
X142710400Y-104622600D03*
%TO.N,Net-(J4-Pad7)*%
X171411400Y-101676200D03*
%TO.N,Net-(J5-Pin_1)*%
X139738600Y-88214200D03*
%TO.N,Net-(J6-Pin_3)*%
X139738600Y-101676200D03*
%TO.N,JTAG_TMS*%
X160375600Y-112431799D03*
X144360400Y-88214200D03*
%TO.N,Net-(J5-Pin_2)*%
X142710400Y-88214200D03*
%TD*%
%TO.N,JTAG_TDI*%
D13*
X157335599Y-92633800D02*
X144360400Y-92633800D01*
X157835600Y-108850399D02*
X157835599Y-93133799D01*
X157335599Y-92633800D02*
G75*
G02*
X157835600Y-93133799I1J-500000D01*
G01*
%TO.N,JTAG_TDO*%
X158775399Y-91660599D02*
X158775400Y-107605799D01*
X158275399Y-91160600D02*
X144360400Y-91160600D01*
X158275399Y-91160600D02*
G75*
G02*
X158775400Y-91660599I1J-500000D01*
G01*
%TO.N,M_RST*%
X159664400Y-86512400D02*
X159664400Y-82843401D01*
X159943800Y-82564000D02*
X160223200Y-82564000D01*
X159664400Y-82843401D02*
G75*
G02*
X159943800Y-82564000I279400J1D01*
G01*
%TO.N,M_TDO*%
X160866200Y-78703200D02*
X157116400Y-78703200D01*
X161366200Y-79203199D02*
X161366200Y-79846200D01*
X156616400Y-87110600D02*
X156616400Y-79203200D01*
X161366200Y-79203199D02*
G75*
G03*
X160866200Y-78703200I-500000J-1D01*
G01*
X156616400Y-79203200D02*
G75*
G02*
X157116400Y-78703200I500000J0D01*
G01*
%TO.N,~{E1_RST}*%
X172550200Y-97637600D02*
X164279199Y-97637600D01*
X169761400Y-91160600D02*
X169761400Y-91528900D01*
X173050200Y-92397199D02*
X173050200Y-97137600D01*
X157116399Y-111771398D02*
X158775400Y-111771399D01*
X163779200Y-98137599D02*
X163779200Y-111771399D01*
X156116399Y-94107000D02*
X144360400Y-94107000D01*
X156616399Y-111271398D02*
X156616399Y-94606999D01*
X172550200Y-91897200D02*
X170129700Y-91897200D01*
X156616399Y-94606999D02*
G75*
G03*
X156116399Y-94107001I-499999J-1D01*
G01*
X163779200Y-98137599D02*
G75*
G02*
X164279199Y-97637600I500000J-1D01*
G01*
X156616399Y-111271398D02*
G75*
G03*
X157116399Y-111771401I500001J-2D01*
G01*
X172550200Y-91897200D02*
G75*
G02*
X173050200Y-92397199I0J-500000D01*
G01*
X170129700Y-91897200D02*
G75*
G02*
X169761400Y-91528900I0J368300D01*
G01*
X172550200Y-97637600D02*
G75*
G03*
X173050200Y-97137600I0J500000D01*
G01*
%TO.N,PRG_SPI_MISO*%
X168587800Y-86526400D02*
X161848800Y-86526400D01*
X169087800Y-93770198D02*
X169087800Y-87026399D01*
X169424600Y-94106999D02*
X169761400Y-94107000D01*
X169087800Y-87026399D02*
G75*
G03*
X168587800Y-86526400I-500000J-1D01*
G01*
X169087800Y-93770198D02*
G75*
G03*
X169424600Y-94107000I336800J-2D01*
G01*
%TO.N,PRG_SPI_CS*%
X167690799Y-87635999D02*
X167690799Y-90709998D01*
X161239200Y-87136000D02*
X167190799Y-87136000D01*
X166789600Y-91160600D02*
X167240200Y-91160599D01*
X167240200Y-91160599D02*
G75*
G03*
X167690799Y-90709998I0J450599D01*
G01*
X167690799Y-87635999D02*
G75*
G03*
X167190799Y-87136001I-499999J-1D01*
G01*
%TO.N,+1V8_DCDC*%
D14*
X152204799Y-101676200D02*
X144360400Y-101676200D01*
X144360400Y-101676200D02*
X144360400Y-97477199D01*
X138396599Y-90373200D02*
X140888600Y-90373200D01*
X138396599Y-96977200D02*
X143860400Y-96977200D01*
X137896600Y-90873199D02*
X137896600Y-96477200D01*
X161094800Y-115454398D02*
X153204799Y-115454398D01*
X152704799Y-114954398D02*
X152704799Y-102176199D01*
X161594800Y-109231399D02*
X161594800Y-114954398D01*
X141388600Y-88214200D02*
X141388600Y-89873200D01*
X153204799Y-115454398D02*
G75*
G02*
X152704802Y-114954398I1J499998D01*
G01*
X138396599Y-90373200D02*
G75*
G03*
X137896600Y-90873199I1J-500000D01*
G01*
X144360400Y-97477199D02*
G75*
G03*
X143860400Y-96977200I-500000J-1D01*
G01*
X161094800Y-115454398D02*
G75*
G03*
X161594798Y-114954398I0J499998D01*
G01*
X152204799Y-101676200D02*
G75*
G02*
X152704800Y-102176199I1J-500000D01*
G01*
X140888600Y-90373200D02*
G75*
G03*
X141388600Y-89873200I0J500000D01*
G01*
X137896600Y-96477200D02*
G75*
G03*
X138396599Y-96977200I500000J0D01*
G01*
%TO.N,BOOT_MODE2*%
D13*
X174345600Y-98382200D02*
X174345600Y-89450799D01*
X164998400Y-114674998D02*
X164998400Y-99382199D01*
X165498399Y-98882200D02*
X173845600Y-98882200D01*
X169761400Y-88582500D02*
X169761400Y-88214200D01*
X170129700Y-88950800D02*
X173845600Y-88950800D01*
X164498400Y-115174998D02*
X163957000Y-115174999D01*
X173845600Y-88950800D02*
G75*
G02*
X174345600Y-89450799I0J-500000D01*
G01*
X169761400Y-88582500D02*
G75*
G03*
X170129700Y-88950800I368300J0D01*
G01*
X165498399Y-98882200D02*
G75*
G03*
X164998400Y-99382199I1J-500000D01*
G01*
X174345600Y-98382200D02*
G75*
G02*
X173845600Y-98882200I-500000J0D01*
G01*
X164498400Y-115174998D02*
G75*
G03*
X164998398Y-114674998I0J499998D01*
G01*
%TO.N,JTAG_TRSTN*%
X155506799Y-95072200D02*
X141871201Y-95072200D01*
X141388600Y-94589600D02*
X141388600Y-94107000D01*
X156506799Y-114178598D02*
X159975000Y-114178599D01*
X156006799Y-95572199D02*
X156006799Y-113678598D01*
X141388600Y-94589600D02*
G75*
G03*
X141871201Y-95072200I482600J0D01*
G01*
X156506799Y-114178598D02*
G75*
G02*
X156006802Y-113678598I1J499998D01*
G01*
X156006799Y-95572199D02*
G75*
G03*
X155506799Y-95072201I-499999J-1D01*
G01*
%TO.N,BOOT_MODE0*%
X164172900Y-114057398D02*
X163957000Y-114057399D01*
X173210600Y-90424000D02*
X170129700Y-90424000D01*
X169761400Y-90055700D02*
X169761400Y-89687400D01*
X164388800Y-113841497D02*
X164388800Y-98797999D01*
X164888799Y-98298000D02*
X173210600Y-98298000D01*
X173710600Y-97798000D02*
X173710600Y-90923999D01*
X164388800Y-113841497D02*
G75*
G02*
X164172900Y-114057400I-215900J-3D01*
G01*
X169761400Y-90055700D02*
G75*
G03*
X170129700Y-90424000I368300J0D01*
G01*
X173210600Y-90424000D02*
G75*
G02*
X173710600Y-90923999I0J-500000D01*
G01*
X173710600Y-97798000D02*
G75*
G02*
X173210600Y-98298000I-500000J0D01*
G01*
X164888799Y-98298000D02*
G75*
G03*
X164388800Y-98797999I1J-500000D01*
G01*
%TO.N,JTAG_CTRL*%
X145542000Y-93370400D02*
X156725999Y-93370400D01*
X157225999Y-93870399D02*
X157226000Y-107605799D01*
X157225999Y-93870399D02*
G75*
G03*
X156725999Y-93370401I-499999J-1D01*
G01*
%TO.N,M_TMS*%
X158335600Y-79846201D02*
X160197800Y-79846200D01*
X157835600Y-87136000D02*
X157835600Y-80346200D01*
X157835600Y-80346200D02*
G75*
G02*
X158335600Y-79846200I500000J0D01*
G01*
%TO.N,M_TEST*%
X160781999Y-82428999D02*
X160782000Y-83097400D01*
X160281999Y-81929000D02*
X159554800Y-81929000D01*
X159054800Y-87136000D02*
X159054800Y-82429000D01*
X160281999Y-81929000D02*
G75*
G02*
X160782000Y-82428999I1J-500000D01*
G01*
X159054800Y-82429000D02*
G75*
G02*
X159554800Y-81929000I500000J0D01*
G01*
%TO.N,M_TDI*%
X157726000Y-79262000D02*
X160775000Y-79262000D01*
X157226000Y-86512400D02*
X157226000Y-79761999D01*
X157226000Y-79761999D02*
G75*
G02*
X157726000Y-79262000I500000J-1D01*
G01*
%TO.N,M_TCK*%
X161340799Y-81844799D02*
X161340800Y-82564000D01*
X158945200Y-81344800D02*
X160840799Y-81344800D01*
X158445200Y-86512400D02*
X158445200Y-81844800D01*
X158445200Y-81844800D02*
G75*
G02*
X158945200Y-81344800I500000J0D01*
G01*
X160840799Y-81344800D02*
G75*
G02*
X161340800Y-81844799I1J-500000D01*
G01*
%TO.N,JTAG_TCK*%
X159575001Y-112431799D02*
X159575000Y-112431798D01*
X159575000Y-112431798D02*
X159575000Y-90187399D01*
X144360400Y-89687400D02*
X159075000Y-89687400D01*
X159575000Y-90187399D02*
G75*
G03*
X159075000Y-89687400I-500000J-1D01*
G01*
%TO.N,BOOT_MODE1*%
X163169600Y-90187400D02*
X163169600Y-114616199D01*
X166789600Y-89687400D02*
X163669600Y-89687400D01*
X163169600Y-90187400D02*
G75*
G02*
X163669600Y-89687400I500000J0D01*
G01*
%TO.N,JTAG_TMS*%
X160375599Y-88714199D02*
X160375600Y-112431799D01*
X159875599Y-88214200D02*
X144360400Y-88214200D01*
X160375599Y-88714199D02*
G75*
G03*
X159875599Y-88214201I-499999J-1D01*
G01*
%TD*%
M02*
