%TF.GenerationSoftware,KiCad,Pcbnew,10.0.3*%
%TF.CreationDate,2026-05-19T16:29:09-04:00*%
%TF.ProjectId,EfficientInterface,45666669-6369-4656-9e74-496e74657266,v1.0*%
%TF.SameCoordinates,Original*%
%TF.FileFunction,Copper,L2,Inr*%
%TF.FilePolarity,Positive*%
%FSLAX46Y46*%
G04 Gerber Fmt 4.6, Leading zero omitted, Abs format (unit mm)*
G04 Created by KiCad (PCBNEW 10.0.3) date 2026-05-19 16:29:09*
%MOMM*%
%LPD*%
G01*
G04 APERTURE LIST*
%TA.AperFunction,ComponentPad*%
%ADD10R,1.700000X1.700000*%
%TD*%
%TA.AperFunction,ComponentPad*%
%ADD11C,1.700000*%
%TD*%
%TA.AperFunction,ViaPad*%
%ADD12C,0.609600*%
%TD*%
%TA.AperFunction,Conductor*%
%ADD13C,0.203200*%
%TD*%
G04 APERTURE END LIST*
D10*
%TO.N,Net-(J3-Pad1)*%
%TO.C,J3*%
X180975000Y-90805000D03*
D11*
%TO.N,unconnected-(J3-Pad2)*%
X178435000Y-90805000D03*
%TO.N,Net-(J3-Pad3)*%
X180975000Y-88265000D03*
%TO.N,Net-(J3-Pad4)*%
X178435000Y-88265000D03*
%TO.N,Net-(J3-Pad5)*%
X180975000Y-85725000D03*
%TO.N,Net-(J3-Pad6)*%
X178435000Y-85725000D03*
%TO.N,Net-(J3-Pad7)*%
X180975000Y-83185000D03*
%TO.N,Net-(J3-Pad8)*%
X178435000Y-83185000D03*
%TO.N,Net-(J3-Pad9)*%
X180975000Y-80645000D03*
%TO.N,GND*%
X178435000Y-80645000D03*
%TD*%
D10*
%TO.N,Net-(J5-Pin_1)*%
%TO.C,J5*%
X130175000Y-80645000D03*
D11*
%TO.N,Net-(J5-Pin_2)*%
X132715000Y-80645000D03*
%TO.N,GND*%
X130175000Y-83185000D03*
%TO.N,Net-(J5-Pin_4)*%
X132715000Y-83185000D03*
%TO.N,GND*%
X130175000Y-85725000D03*
%TO.N,Net-(J5-Pin_6)*%
X132715000Y-85725000D03*
%TO.N,Net-(J5-Pin_7)*%
X130175000Y-88265000D03*
%TO.N,Net-(J5-Pin_8)*%
X132715000Y-88265000D03*
%TO.N,Net-(J5-Pin_9)*%
X130175000Y-90805000D03*
%TO.N,Net-(J5-Pin_10)*%
X132715000Y-90805000D03*
%TD*%
D10*
%TO.N,Net-(J6-Pin_1)*%
%TO.C,J6*%
X130175000Y-103505000D03*
D11*
%TO.N,unconnected-(J6-Pin_2-Pad2)*%
X132715000Y-103505000D03*
%TO.N,Net-(J6-Pin_3)*%
X130175000Y-106045000D03*
%TO.N,Net-(J6-Pin_4)*%
X132715000Y-106045000D03*
%TO.N,Net-(J6-Pin_5)*%
X130175000Y-108585000D03*
%TO.N,unconnected-(J6-Pin_6-Pad6)*%
X132715000Y-108585000D03*
%TO.N,Net-(J6-Pin_7)*%
X130175000Y-111125000D03*
%TO.N,Net-(J6-Pin_8)*%
X132715000Y-111125000D03*
%TO.N,GND*%
X130175000Y-113665000D03*
%TO.N,Net-(J6-Pin_10)*%
X132715000Y-113665000D03*
%TD*%
D10*
%TO.N,Net-(J4-Pad1)*%
%TO.C,J4*%
X180975000Y-113665000D03*
D11*
%TO.N,Net-(J4-Pad2)*%
X178435000Y-113665000D03*
%TO.N,unconnected-(J4-Pad3)*%
X180975000Y-111125000D03*
%TO.N,unconnected-(J4-Pad4)*%
X178435000Y-111125000D03*
%TO.N,GND*%
X180975000Y-108585000D03*
X178435000Y-108585000D03*
%TO.N,Net-(J4-Pad7)*%
X180975000Y-106045000D03*
%TO.N,Net-(J4-Pad8)*%
X178435000Y-106045000D03*
%TO.N,GND*%
X180975000Y-103505000D03*
X178435000Y-103505000D03*
%TD*%
D12*
%TO.N,Net-(J5-Pin_8)*%
X142710400Y-92633800D03*
%TO.N,JTAG_TDI*%
X144360400Y-92633800D03*
X157835600Y-108850399D03*
%TO.N,Net-(J3-Pad3)*%
X171424600Y-92633800D03*
%TO.N,Net-(J5-Pin_6)*%
X142710400Y-91160600D03*
%TO.N,JTAG_TDO*%
X144360400Y-91160600D03*
X158775400Y-107605799D03*
%TO.N,Net-(J6-Pin_10)*%
X142710400Y-106095800D03*
%TO.N,M_RST*%
X144360400Y-106095800D03*
X159664400Y-86512400D03*
X160223200Y-82564000D03*
%TO.N,M_TDO*%
X161366200Y-79846200D03*
X141388600Y-100203000D03*
X156616400Y-87110600D03*
%TO.N,Net-(J6-Pin_1)*%
X139738600Y-100203000D03*
%TO.N,Net-(J4-Pad8)*%
X168439600Y-101676200D03*
%TO.N,Net-(J3-Pad4)*%
X168439600Y-92633800D03*
%TO.N,Net-(J5-Pin_10)*%
X142710400Y-94107000D03*
%TO.N,~{E1_RST}*%
X169761400Y-91160600D03*
X158775400Y-111771399D03*
X144360400Y-94107000D03*
X163779200Y-111771399D03*
%TO.N,PRG_SPI_MISO*%
X161848800Y-86526400D03*
X169761400Y-94107000D03*
%TO.N,Net-(J3-Pad1)*%
X171411400Y-94107000D03*
%TO.N,Net-(J3-Pad6)*%
X168439600Y-91160600D03*
%TO.N,PRG_SPI_CS*%
X161239200Y-87136000D03*
X166789600Y-91160600D03*
%TO.N,Net-(J6-Pin_4)*%
X142710400Y-101676200D03*
%TO.N,+1V8_DCDC*%
X141388600Y-88214200D03*
X161594800Y-109231399D03*
X144360400Y-101676200D03*
%TO.N,Net-(J3-Pad5)*%
X171411400Y-91160600D03*
%TO.N,Net-(J4-Pad1)*%
X171411400Y-106095800D03*
%TO.N,Net-(J3-Pad9)*%
X171411400Y-88214200D03*
%TO.N,BOOT_MODE2*%
X163957000Y-115174999D03*
X169761400Y-88214200D03*
%TO.N,JTAG_TRSTN*%
X141388600Y-94107000D03*
X159975000Y-114178599D03*
%TO.N,Net-(J5-Pin_9)*%
X139738600Y-94107000D03*
%TO.N,Net-(J4-Pad2)*%
X168439600Y-106095800D03*
%TO.N,Net-(J3-Pad7)*%
X171411400Y-89687400D03*
%TO.N,BOOT_MODE0*%
X169761400Y-89687400D03*
X163957000Y-114057399D03*
%TO.N,JTAG_CTRL*%
X157226000Y-107605799D03*
X145542000Y-93370400D03*
%TO.N,Net-(J5-Pin_7)*%
X139738600Y-92633800D03*
%TO.N,M_TMS*%
X160197800Y-79846200D03*
X157835600Y-87136000D03*
X141388600Y-103149400D03*
%TO.N,M_TEST*%
X160782000Y-83097400D03*
X159054800Y-87136000D03*
X144360400Y-104622600D03*
%TO.N,M_TDI*%
X141388600Y-101676200D03*
X160775000Y-79262000D03*
X157226000Y-86512400D03*
%TO.N,M_TCK*%
X141388600Y-104622600D03*
X158445200Y-86512400D03*
X161340800Y-82564000D03*
%TO.N,Net-(J5-Pin_4)*%
X142710400Y-89687400D03*
%TO.N,JTAG_TCK*%
X159575001Y-112431799D03*
X144360400Y-89687400D03*
%TO.N,Net-(J6-Pin_5)*%
X139738600Y-103149400D03*
%TO.N,Net-(J6-Pin_7)*%
X139738600Y-104622600D03*
%TO.N,Net-(J3-Pad8)*%
X168439600Y-89687400D03*
%TO.N,BOOT_MODE1*%
X163169600Y-114616199D03*
X166789600Y-89687400D03*
%TO.N,Net-(J6-Pin_8)*%
X142710400Y-104622600D03*
%TO.N,Net-(J4-Pad7)*%
X171411400Y-101676200D03*
%TO.N,Net-(J5-Pin_1)*%
X139738600Y-88214200D03*
%TO.N,Net-(J6-Pin_3)*%
X139738600Y-101676200D03*
%TO.N,JTAG_TMS*%
X160375600Y-112431799D03*
X144360400Y-88214200D03*
%TO.N,Net-(J5-Pin_2)*%
X142710400Y-88214200D03*
%TD*%
%TO.N,Net-(J5-Pin_8)*%
D13*
X133942199Y-88265000D02*
X132715000Y-88265000D01*
X134942199Y-91897199D02*
X142342098Y-91897199D01*
X142710400Y-92633800D02*
X142710399Y-92265500D01*
X134442199Y-88764999D02*
X134442199Y-91397199D01*
X142342098Y-91897199D02*
G75*
G02*
X142710401Y-92265500I2J-368301D01*
G01*
X134942199Y-91897199D02*
G75*
G02*
X134442201Y-91397199I1J499999D01*
G01*
X134442199Y-88764999D02*
G75*
G03*
X133942199Y-88265001I-499999J-1D01*
G01*
%TO.N,Net-(J3-Pad3)*%
X180205000Y-88265000D02*
X180975000Y-88265000D01*
X179205000Y-92633799D02*
X171424600Y-92633800D01*
X179705000Y-88765000D02*
X179705000Y-92133799D01*
X179205000Y-92633799D02*
G75*
G03*
X179704999Y-92133799I0J499999D01*
G01*
X180205000Y-88265000D02*
G75*
G03*
X179705000Y-88765000I0J-500000D01*
G01*
%TO.N,Net-(J5-Pin_6)*%
X134924799Y-86224999D02*
X134924799Y-90660599D01*
X134424799Y-85725000D02*
X132715000Y-85725000D01*
X142710400Y-91160600D02*
X135424799Y-91160599D01*
X135424799Y-91160599D02*
G75*
G02*
X134924801Y-90660599I1J499999D01*
G01*
X134924799Y-86224999D02*
G75*
G03*
X134424799Y-85725001I-499999J-1D01*
G01*
%TO.N,Net-(J6-Pin_10)*%
X135923400Y-113664999D02*
X132715000Y-113665000D01*
X136423400Y-106595800D02*
X136423400Y-113164999D01*
X136923400Y-106095800D02*
X142710400Y-106095800D01*
X135923400Y-113664999D02*
G75*
G03*
X136423399Y-113164999I0J499999D01*
G01*
X136923400Y-106095800D02*
G75*
G03*
X136423400Y-106595800I0J-500000D01*
G01*
%TO.N,M_RST*%
X159164400Y-106095799D02*
X144360400Y-106095800D01*
X159664400Y-86512400D02*
X159664400Y-105595799D01*
X159664400Y-105595799D02*
G75*
G02*
X159164400Y-106095800I-500000J-1D01*
G01*
%TO.N,M_TDO*%
X156116400Y-100202999D02*
X141388600Y-100203000D01*
X156616400Y-87110600D02*
X156616400Y-99702999D01*
X156116400Y-100202999D02*
G75*
G03*
X156616399Y-99702999I0J499999D01*
G01*
%TO.N,Net-(J6-Pin_1)*%
X130175000Y-100703000D02*
X130175000Y-103505000D01*
X139738600Y-100203000D02*
X130675000Y-100203000D01*
X130675000Y-100203000D02*
G75*
G03*
X130175000Y-100703000I0J-500000D01*
G01*
%TO.N,Net-(J4-Pad8)*%
X176123599Y-104131999D02*
X176123599Y-105544999D01*
X175623599Y-103631999D02*
X171086399Y-103631999D01*
X168939600Y-100558600D02*
X170086399Y-100558600D01*
X170586399Y-101058599D02*
X170586399Y-103131999D01*
X168439600Y-101058600D02*
X168439600Y-101676200D01*
X176623599Y-106044999D02*
X178435000Y-106045000D01*
X170586399Y-101058599D02*
G75*
G03*
X170086399Y-100558601I-499999J-1D01*
G01*
X168439600Y-101058600D02*
G75*
G02*
X168939600Y-100558600I500000J0D01*
G01*
X176623599Y-106044999D02*
G75*
G02*
X176123601Y-105544999I1J499999D01*
G01*
X170586399Y-103131999D02*
G75*
G03*
X171086399Y-103632001I500001J-1D01*
G01*
X175623599Y-103631999D02*
G75*
G02*
X176123601Y-104131999I1J-500001D01*
G01*
%TO.N,Net-(J3-Pad4)*%
X168439600Y-92633800D02*
X168439600Y-92265500D01*
X177215800Y-88765000D02*
X177215800Y-91397200D01*
X176715800Y-91897200D02*
X168807900Y-91897200D01*
X168807900Y-91897200D02*
G75*
G03*
X168439600Y-92265500I0J-368300D01*
G01*
X176715800Y-91897200D02*
G75*
G03*
X177215800Y-91397200I0J500000D01*
G01*
X177215800Y-88765000D02*
G75*
G02*
X177715800Y-88265000I500000J0D01*
G01*
%TO.N,Net-(J5-Pin_10)*%
X132715000Y-92870399D02*
X132715000Y-90805000D01*
X142710400Y-94589599D02*
X142710400Y-94107000D01*
X140063599Y-93370399D02*
X133214999Y-93370399D01*
X140563599Y-94572199D02*
X140563599Y-93870399D01*
X141063599Y-95072199D02*
X142227800Y-95072199D01*
X140063599Y-93370399D02*
G75*
G02*
X140563601Y-93870399I1J-500001D01*
G01*
X132715000Y-92870399D02*
G75*
G03*
X133214999Y-93370400I500000J-1D01*
G01*
X141063599Y-95072199D02*
G75*
G02*
X140563601Y-94572199I1J499999D01*
G01*
X142710400Y-94589599D02*
G75*
G02*
X142227800Y-95072200I-482600J-1D01*
G01*
%TO.N,Net-(J3-Pad1)*%
X180475000Y-94106999D02*
X171411400Y-94107000D01*
X180975000Y-93606999D02*
X180975000Y-90805000D01*
X180975000Y-93606999D02*
G75*
G02*
X180475000Y-94107000I-500000J-1D01*
G01*
%TO.N,Net-(J3-Pad6)*%
X168807899Y-90424000D02*
X175699800Y-90423999D01*
X176699800Y-85725000D02*
X178485800Y-85725000D01*
X176199800Y-89923999D02*
X176199800Y-86225000D01*
X168439600Y-91160600D02*
X168439600Y-90792300D01*
X175699800Y-90423999D02*
G75*
G03*
X176199799Y-89923999I0J499999D01*
G01*
X176699800Y-85725000D02*
G75*
G03*
X176199800Y-86225000I0J-500000D01*
G01*
X168807899Y-90424000D02*
G75*
G03*
X168439600Y-90792300I1J-368300D01*
G01*
%TO.N,Net-(J6-Pin_4)*%
X142710400Y-102048299D02*
X142710400Y-101676200D01*
X134391400Y-102920400D02*
X134391400Y-105544999D01*
X133891400Y-106044999D02*
X132715000Y-106045000D01*
X134891400Y-102420400D02*
X142338300Y-102420399D01*
X133891400Y-106044999D02*
G75*
G03*
X134391399Y-105544999I0J499999D01*
G01*
X134891400Y-102420400D02*
G75*
G03*
X134391400Y-102920400I0J-500000D01*
G01*
X142710400Y-102048299D02*
G75*
G02*
X142338300Y-102420400I-372100J-1D01*
G01*
%TO.N,Net-(J3-Pad5)*%
X176207800Y-91160599D02*
X171411400Y-91160600D01*
X176707800Y-87469600D02*
X176707800Y-90660599D01*
X180475000Y-86969599D02*
X177207800Y-86969600D01*
X176707800Y-87469600D02*
G75*
G02*
X177207800Y-86969600I500000J0D01*
G01*
X176707800Y-90660599D02*
G75*
G02*
X176207800Y-91160600I-500000J-1D01*
G01*
X180475000Y-86969599D02*
G75*
G03*
X180974999Y-86469599I0J499999D01*
G01*
%TO.N,Net-(J4-Pad1)*%
X175607599Y-115417599D02*
X180475000Y-115417599D01*
X180975000Y-114917599D02*
X180975000Y-113665000D01*
X171411400Y-106095800D02*
X174607599Y-106095800D01*
X175107599Y-114917599D02*
X175107599Y-106595799D01*
X174607599Y-106095800D02*
G75*
G02*
X175107600Y-106595799I1J-500000D01*
G01*
X175107599Y-114917599D02*
G75*
G03*
X175607599Y-115417601I500001J-1D01*
G01*
X180975000Y-114917599D02*
G75*
G02*
X180475000Y-115417600I-500000J-1D01*
G01*
%TO.N,Net-(J3-Pad9)*%
X175175800Y-81940400D02*
X180475000Y-81940399D01*
X174675800Y-82440400D02*
X174675800Y-87714199D01*
X171411400Y-88214200D02*
X174175800Y-88214199D01*
X180975000Y-81440399D02*
X180975000Y-80645000D01*
X180975000Y-81440399D02*
G75*
G02*
X180475000Y-81940400I-500000J-1D01*
G01*
X174675800Y-87714199D02*
G75*
G02*
X174175800Y-88214200I-500000J-1D01*
G01*
X175175800Y-81940400D02*
G75*
G03*
X174675800Y-82440400I0J-500000D01*
G01*
%TO.N,Net-(J5-Pin_9)*%
X130175000Y-93606999D02*
X130175000Y-90805000D01*
X139738600Y-94107000D02*
X130674999Y-94106999D01*
X130674999Y-94106999D02*
G75*
G02*
X130175001Y-93606999I1J499999D01*
G01*
%TO.N,Net-(J4-Pad2)*%
X176115599Y-113664999D02*
X178435000Y-113665000D01*
X168439600Y-105325800D02*
X168439600Y-106095800D01*
X168939600Y-104825800D02*
X175115599Y-104825800D01*
X175615599Y-105325799D02*
X175615599Y-113164999D01*
X175615599Y-105325799D02*
G75*
G03*
X175115599Y-104825801I-499999J-1D01*
G01*
X168939600Y-104825800D02*
G75*
G03*
X168439600Y-105325800I0J-500000D01*
G01*
X176115599Y-113664999D02*
G75*
G02*
X175615601Y-113164999I1J499999D01*
G01*
%TO.N,Net-(J3-Pad7)*%
X175691800Y-84929600D02*
X175691800Y-89187399D01*
X171411400Y-89687400D02*
X175191800Y-89687399D01*
X180475000Y-84429599D02*
X176191800Y-84429600D01*
X180475000Y-84429599D02*
G75*
G03*
X180974999Y-83929599I0J499999D01*
G01*
X175191800Y-89687399D02*
G75*
G03*
X175691799Y-89187399I0J499999D01*
G01*
X175691800Y-84929600D02*
G75*
G02*
X176191800Y-84429600I500000J0D01*
G01*
%TO.N,Net-(J5-Pin_7)*%
X133934199Y-92133799D02*
X133934199Y-90034999D01*
X139738600Y-92633800D02*
X134434199Y-92633799D01*
X130175000Y-89034999D02*
X130175000Y-88265000D01*
X130674999Y-89534999D02*
X133434199Y-89534999D01*
X133434199Y-89534999D02*
G75*
G02*
X133934201Y-90034999I1J-500001D01*
G01*
X134434199Y-92633799D02*
G75*
G02*
X133934201Y-92133799I1J499999D01*
G01*
X130674999Y-89534999D02*
G75*
G02*
X130175001Y-89034999I1J499999D01*
G01*
%TO.N,M_TMS*%
X157335600Y-103149399D02*
X141388600Y-103149400D01*
X157835600Y-87136000D02*
X157835600Y-102649399D01*
X157335600Y-103149399D02*
G75*
G03*
X157835599Y-102649399I0J499999D01*
G01*
%TO.N,M_TEST*%
X158554800Y-104622599D02*
X144360400Y-104622600D01*
X159054800Y-87136000D02*
X159054800Y-104122599D01*
X158554800Y-104622599D02*
G75*
G03*
X159054799Y-104122599I0J499999D01*
G01*
%TO.N,M_TDI*%
X156726000Y-100939599D02*
X141756899Y-100939600D01*
X141388600Y-101307900D02*
X141388600Y-101676200D01*
X157226000Y-86512400D02*
X157226000Y-100439599D01*
X157226000Y-100439599D02*
G75*
G02*
X156726000Y-100939600I-500000J-1D01*
G01*
X141756899Y-100939600D02*
G75*
G03*
X141388600Y-101307900I1J-368300D01*
G01*
%TO.N,M_TCK*%
X141388600Y-104254300D02*
X141388600Y-104622600D01*
X158445200Y-86512400D02*
X158445200Y-103385999D01*
X157945200Y-103885999D02*
X141756899Y-103886000D01*
X158445200Y-103385999D02*
G75*
G02*
X157945200Y-103886000I-500000J-1D01*
G01*
X141756899Y-103886000D02*
G75*
G03*
X141388600Y-104254300I1J-368300D01*
G01*
%TO.N,Net-(J5-Pin_4)*%
X142710400Y-89687400D02*
X135907399Y-89687399D01*
X134907399Y-83185000D02*
X132715000Y-83185000D01*
X135407399Y-89187399D02*
X135407399Y-83684999D01*
X135407399Y-89187399D02*
G75*
G03*
X135907399Y-89687401I500001J-1D01*
G01*
X135407399Y-83684999D02*
G75*
G03*
X134907399Y-83185001I-499999J-1D01*
G01*
%TO.N,Net-(J6-Pin_5)*%
X134899400Y-103649400D02*
X134899400Y-106814999D01*
X134399400Y-107314999D02*
X130675000Y-107315000D01*
X130175000Y-107815000D02*
X130175000Y-108585000D01*
X139738600Y-103149400D02*
X135399400Y-103149400D01*
X134899400Y-103649400D02*
G75*
G02*
X135399400Y-103149400I500000J0D01*
G01*
X130175000Y-107815000D02*
G75*
G02*
X130675000Y-107315000I500000J0D01*
G01*
X134899400Y-106814999D02*
G75*
G02*
X134399400Y-107315000I-500000J-1D01*
G01*
%TO.N,Net-(J6-Pin_7)*%
X130175000Y-110355000D02*
X130175000Y-111125000D01*
X135407400Y-105122600D02*
X135407400Y-109354999D01*
X134907400Y-109854999D02*
X130675000Y-109855000D01*
X139738600Y-104622600D02*
X135907400Y-104622600D01*
X135407400Y-105122600D02*
G75*
G02*
X135907400Y-104622600I500000J0D01*
G01*
X130175000Y-110355000D02*
G75*
G02*
X130675000Y-109855000I500000J0D01*
G01*
X134907400Y-109854999D02*
G75*
G03*
X135407399Y-109354999I0J499999D01*
G01*
%TO.N,Net-(J3-Pad8)*%
X175683800Y-83185000D02*
X178485800Y-83185000D01*
X168807899Y-88950800D02*
X174683800Y-88950799D01*
X168439600Y-89687400D02*
X168439600Y-89319100D01*
X175183800Y-88450799D02*
X175183800Y-83685000D01*
X175683800Y-83185000D02*
G75*
G03*
X175183800Y-83685000I0J-500000D01*
G01*
X168807899Y-88950800D02*
G75*
G03*
X168439600Y-89319100I1J-368300D01*
G01*
X175183800Y-88450799D02*
G75*
G02*
X174683800Y-88950800I-500000J-1D01*
G01*
%TO.N,Net-(J6-Pin_8)*%
X135415400Y-111124999D02*
X132715000Y-111125000D01*
X135915400Y-105859200D02*
X135915400Y-110624999D01*
X136415400Y-105359200D02*
X142342100Y-105359199D01*
X142710400Y-104622600D02*
X142710400Y-104990899D01*
X135915400Y-105859200D02*
G75*
G02*
X136415400Y-105359200I500000J0D01*
G01*
X135415400Y-111124999D02*
G75*
G03*
X135915399Y-110624999I0J499999D01*
G01*
X142342100Y-105359199D02*
G75*
G03*
X142710399Y-104990899I0J368299D01*
G01*
%TO.N,Net-(J4-Pad7)*%
X176631599Y-104325799D02*
X176631599Y-103496999D01*
X171911399Y-102996999D02*
X176131599Y-102996999D01*
X171411400Y-101676200D02*
X171411400Y-102496999D01*
X180474999Y-104825799D02*
X177131599Y-104825799D01*
X171911399Y-102996999D02*
G75*
G02*
X171411401Y-102496999I1J499999D01*
G01*
X176631599Y-103496999D02*
G75*
G03*
X176131599Y-102997001I-499999J-1D01*
G01*
X180474999Y-104825799D02*
G75*
G02*
X180975001Y-105325799I1J-500001D01*
G01*
X176631599Y-104325799D02*
G75*
G03*
X177131599Y-104825801I500001J-1D01*
G01*
%TO.N,Net-(J5-Pin_1)*%
X135915399Y-82414999D02*
X135915399Y-87714199D01*
X130175000Y-81414999D02*
X130175000Y-80645000D01*
X135415399Y-81914999D02*
X130674999Y-81914999D01*
X139738600Y-88214200D02*
X136415399Y-88214199D01*
X135915399Y-87714199D02*
G75*
G03*
X136415399Y-88214201I500001J-1D01*
G01*
X130175000Y-81414999D02*
G75*
G03*
X130674999Y-81915000I500000J-1D01*
G01*
X135915399Y-82414999D02*
G75*
G03*
X135415399Y-81915001I-499999J-1D01*
G01*
%TO.N,Net-(J6-Pin_3)*%
X131945000Y-101777800D02*
X139637000Y-101777800D01*
X131445000Y-102277800D02*
X131445000Y-105544999D01*
X130945000Y-106044999D02*
X130175000Y-106045000D01*
X131945000Y-101777800D02*
G75*
G03*
X131445000Y-102277800I0J-500000D01*
G01*
X130945000Y-106044999D02*
G75*
G03*
X131444999Y-105544999I0J499999D01*
G01*
%TO.N,Net-(J5-Pin_2)*%
X136423399Y-86850599D02*
X136423399Y-81144999D01*
X135923399Y-80645000D02*
X132715000Y-80645000D01*
X136923399Y-87350599D02*
X142278598Y-87350599D01*
X142710400Y-88214200D02*
X142710399Y-87782400D01*
X136923399Y-87350599D02*
G75*
G02*
X136423401Y-86850599I1J499999D01*
G01*
X142278598Y-87350599D02*
G75*
G02*
X142710401Y-87782400I2J-431801D01*
G01*
X135923399Y-80645000D02*
G75*
G02*
X136423400Y-81144999I1J-500000D01*
G01*
%TD*%
M02*
