%TF.GenerationSoftware,KiCad,Pcbnew,10.0.3*%
%TF.CreationDate,2026-05-19T14:30:45-04:00*%
%TF.ProjectId,EfficientInterface,45666669-6369-4656-9e74-496e74657266,v1.0*%
%TF.SameCoordinates,Original*%
%TF.FileFunction,Legend,Bot*%
%TF.FilePolarity,Positive*%
%FSLAX46Y46*%
G04 Gerber Fmt 4.6, Leading zero omitted, Abs format (unit mm)*
G04 Created by KiCad (PCBNEW 10.0.3) date 2026-05-19 14:30:45*
%MOMM*%
%LPD*%
G01*
G04 APERTURE LIST*
%ADD10C,0.127000*%
%ADD11C,0.120000*%
%ADD12C,3.700000*%
%ADD13R,1.700000X1.700000*%
%ADD14C,1.700000*%
G04 APERTURE END LIST*
D10*
X163893501Y-111220444D02*
X163639501Y-111220444D01*
X163580537Y-111619587D02*
X163943394Y-111619587D01*
X163943394Y-111619587D02*
X163848144Y-110857587D01*
X163848144Y-110857587D02*
X163485287Y-110857587D01*
X163299322Y-111111587D02*
X163009036Y-111111587D01*
X163253965Y-111619587D02*
X163172322Y-110966444D01*
X163172322Y-110966444D02*
X163126965Y-110893873D01*
X163126965Y-110893873D02*
X163049858Y-110857587D01*
X163049858Y-110857587D02*
X162977286Y-110857587D01*
X162863893Y-111111587D02*
X162573607Y-111111587D01*
X162818536Y-111619587D02*
X162736893Y-110966444D01*
X162736893Y-110966444D02*
X162691536Y-110893873D01*
X162691536Y-110893873D02*
X162614429Y-110857587D01*
X162614429Y-110857587D02*
X162541857Y-110857587D01*
X162383107Y-111619587D02*
X162319607Y-111111587D01*
X162287857Y-110857587D02*
X162328678Y-110893873D01*
X162328678Y-110893873D02*
X162296928Y-110930159D01*
X162296928Y-110930159D02*
X162256107Y-110893873D01*
X162256107Y-110893873D02*
X162287857Y-110857587D01*
X162287857Y-110857587D02*
X162296928Y-110930159D01*
X161689143Y-111583302D02*
X161766250Y-111619587D01*
X161766250Y-111619587D02*
X161911393Y-111619587D01*
X161911393Y-111619587D02*
X161979428Y-111583302D01*
X161979428Y-111583302D02*
X162011178Y-111547016D01*
X162011178Y-111547016D02*
X162038393Y-111474444D01*
X162038393Y-111474444D02*
X162011178Y-111256730D01*
X162011178Y-111256730D02*
X161965821Y-111184159D01*
X161965821Y-111184159D02*
X161925000Y-111147873D01*
X161925000Y-111147873D02*
X161847893Y-111111587D01*
X161847893Y-111111587D02*
X161702750Y-111111587D01*
X161702750Y-111111587D02*
X161634714Y-111147873D01*
X161367107Y-111619587D02*
X161303607Y-111111587D01*
X161271857Y-110857587D02*
X161312678Y-110893873D01*
X161312678Y-110893873D02*
X161280928Y-110930159D01*
X161280928Y-110930159D02*
X161240107Y-110893873D01*
X161240107Y-110893873D02*
X161271857Y-110857587D01*
X161271857Y-110857587D02*
X161280928Y-110930159D01*
X160709428Y-111583302D02*
X160786535Y-111619587D01*
X160786535Y-111619587D02*
X160931678Y-111619587D01*
X160931678Y-111619587D02*
X160999714Y-111583302D01*
X160999714Y-111583302D02*
X161026928Y-111510730D01*
X161026928Y-111510730D02*
X160990643Y-111220444D01*
X160990643Y-111220444D02*
X160945285Y-111147873D01*
X160945285Y-111147873D02*
X160868178Y-111111587D01*
X160868178Y-111111587D02*
X160723035Y-111111587D01*
X160723035Y-111111587D02*
X160655000Y-111147873D01*
X160655000Y-111147873D02*
X160627785Y-111220444D01*
X160627785Y-111220444D02*
X160636857Y-111293016D01*
X160636857Y-111293016D02*
X161008785Y-111365587D01*
X160287607Y-111111587D02*
X160351107Y-111619587D01*
X160296678Y-111184159D02*
X160255857Y-111147873D01*
X160255857Y-111147873D02*
X160178750Y-111111587D01*
X160178750Y-111111587D02*
X160069892Y-111111587D01*
X160069892Y-111111587D02*
X160001857Y-111147873D01*
X160001857Y-111147873D02*
X159974642Y-111220444D01*
X159974642Y-111220444D02*
X160024535Y-111619587D01*
X159707035Y-111111587D02*
X159416749Y-111111587D01*
X159566428Y-110857587D02*
X159648071Y-111510730D01*
X159648071Y-111510730D02*
X159620856Y-111583302D01*
X159620856Y-111583302D02*
X159552821Y-111619587D01*
X159552821Y-111619587D02*
X159480249Y-111619587D01*
X158595785Y-111220444D02*
X158341785Y-111220444D01*
X158282821Y-111619587D02*
X158645678Y-111619587D01*
X158645678Y-111619587D02*
X158550428Y-110857587D01*
X158550428Y-110857587D02*
X158187571Y-110857587D01*
X157557106Y-111619587D02*
X157992534Y-111619587D01*
X157774820Y-111619587D02*
X157679570Y-110857587D01*
X157679570Y-110857587D02*
X157765749Y-110966444D01*
X157765749Y-110966444D02*
X157847392Y-111039016D01*
X157847392Y-111039016D02*
X157924499Y-111075302D01*
X157303106Y-111619587D02*
X156840463Y-111111587D01*
X157239606Y-111111587D02*
X156903963Y-111619587D01*
X156064857Y-111583302D02*
X155960535Y-111619587D01*
X155960535Y-111619587D02*
X155779107Y-111619587D01*
X155779107Y-111619587D02*
X155702000Y-111583302D01*
X155702000Y-111583302D02*
X155661178Y-111547016D01*
X155661178Y-111547016D02*
X155615821Y-111474444D01*
X155615821Y-111474444D02*
X155606750Y-111401873D01*
X155606750Y-111401873D02*
X155633964Y-111329302D01*
X155633964Y-111329302D02*
X155665714Y-111293016D01*
X155665714Y-111293016D02*
X155733750Y-111256730D01*
X155733750Y-111256730D02*
X155874357Y-111220444D01*
X155874357Y-111220444D02*
X155942392Y-111184159D01*
X155942392Y-111184159D02*
X155974142Y-111147873D01*
X155974142Y-111147873D02*
X156001357Y-111075302D01*
X156001357Y-111075302D02*
X155992285Y-111002730D01*
X155992285Y-111002730D02*
X155946928Y-110930159D01*
X155946928Y-110930159D02*
X155906107Y-110893873D01*
X155906107Y-110893873D02*
X155829000Y-110857587D01*
X155829000Y-110857587D02*
X155647571Y-110857587D01*
X155647571Y-110857587D02*
X155543250Y-110893873D01*
X155352750Y-111111587D02*
X155062464Y-111111587D01*
X155212143Y-110857587D02*
X155293786Y-111510730D01*
X155293786Y-111510730D02*
X155266571Y-111583302D01*
X155266571Y-111583302D02*
X155198536Y-111619587D01*
X155198536Y-111619587D02*
X155125964Y-111619587D01*
X154545392Y-111619587D02*
X154495499Y-111220444D01*
X154495499Y-111220444D02*
X154522714Y-111147873D01*
X154522714Y-111147873D02*
X154590749Y-111111587D01*
X154590749Y-111111587D02*
X154735892Y-111111587D01*
X154735892Y-111111587D02*
X154812999Y-111147873D01*
X154540857Y-111583302D02*
X154617964Y-111619587D01*
X154617964Y-111619587D02*
X154799392Y-111619587D01*
X154799392Y-111619587D02*
X154867428Y-111583302D01*
X154867428Y-111583302D02*
X154894642Y-111510730D01*
X154894642Y-111510730D02*
X154885571Y-111438159D01*
X154885571Y-111438159D02*
X154840214Y-111365587D01*
X154840214Y-111365587D02*
X154763107Y-111329302D01*
X154763107Y-111329302D02*
X154581678Y-111329302D01*
X154581678Y-111329302D02*
X154504571Y-111293016D01*
X154182535Y-111619587D02*
X154119035Y-111111587D01*
X154128106Y-111184159D02*
X154087285Y-111147873D01*
X154087285Y-111147873D02*
X154010178Y-111111587D01*
X154010178Y-111111587D02*
X153901320Y-111111587D01*
X153901320Y-111111587D02*
X153833285Y-111147873D01*
X153833285Y-111147873D02*
X153806070Y-111220444D01*
X153806070Y-111220444D02*
X153855963Y-111619587D01*
X153806070Y-111220444D02*
X153760713Y-111147873D01*
X153760713Y-111147873D02*
X153683606Y-111111587D01*
X153683606Y-111111587D02*
X153574749Y-111111587D01*
X153574749Y-111111587D02*
X153506713Y-111147873D01*
X153506713Y-111147873D02*
X153479499Y-111220444D01*
X153479499Y-111220444D02*
X153529392Y-111619587D01*
X153103035Y-111111587D02*
X153198285Y-111873587D01*
X153107570Y-111147873D02*
X153030463Y-111111587D01*
X153030463Y-111111587D02*
X152885320Y-111111587D01*
X152885320Y-111111587D02*
X152817285Y-111147873D01*
X152817285Y-111147873D02*
X152785535Y-111184159D01*
X152785535Y-111184159D02*
X152758320Y-111256730D01*
X152758320Y-111256730D02*
X152785535Y-111474444D01*
X152785535Y-111474444D02*
X152830892Y-111547016D01*
X152830892Y-111547016D02*
X152871713Y-111583302D01*
X152871713Y-111583302D02*
X152948820Y-111619587D01*
X152948820Y-111619587D02*
X153093963Y-111619587D01*
X153093963Y-111619587D02*
X153161999Y-111583302D01*
X151896535Y-111619587D02*
X151801285Y-110857587D01*
X151470178Y-111111587D02*
X151533678Y-111619587D01*
X151479249Y-111184159D02*
X151438428Y-111147873D01*
X151438428Y-111147873D02*
X151361321Y-111111587D01*
X151361321Y-111111587D02*
X151252463Y-111111587D01*
X151252463Y-111111587D02*
X151184428Y-111147873D01*
X151184428Y-111147873D02*
X151157213Y-111220444D01*
X151157213Y-111220444D02*
X151207106Y-111619587D01*
X150889606Y-111111587D02*
X150599320Y-111111587D01*
X150748999Y-110857587D02*
X150830642Y-111510730D01*
X150830642Y-111510730D02*
X150803427Y-111583302D01*
X150803427Y-111583302D02*
X150735392Y-111619587D01*
X150735392Y-111619587D02*
X150662820Y-111619587D01*
X150113998Y-111583302D02*
X150191105Y-111619587D01*
X150191105Y-111619587D02*
X150336248Y-111619587D01*
X150336248Y-111619587D02*
X150404284Y-111583302D01*
X150404284Y-111583302D02*
X150431498Y-111510730D01*
X150431498Y-111510730D02*
X150395213Y-111220444D01*
X150395213Y-111220444D02*
X150349855Y-111147873D01*
X150349855Y-111147873D02*
X150272748Y-111111587D01*
X150272748Y-111111587D02*
X150127605Y-111111587D01*
X150127605Y-111111587D02*
X150059570Y-111147873D01*
X150059570Y-111147873D02*
X150032355Y-111220444D01*
X150032355Y-111220444D02*
X150041427Y-111293016D01*
X150041427Y-111293016D02*
X150413355Y-111365587D01*
X149755677Y-111619587D02*
X149692177Y-111111587D01*
X149710320Y-111256730D02*
X149664962Y-111184159D01*
X149664962Y-111184159D02*
X149624141Y-111147873D01*
X149624141Y-111147873D02*
X149547034Y-111111587D01*
X149547034Y-111111587D02*
X149474462Y-111111587D01*
X149329320Y-111111587D02*
X149039034Y-111111587D01*
X149283963Y-111619587D02*
X149202320Y-110966444D01*
X149202320Y-110966444D02*
X149156963Y-110893873D01*
X149156963Y-110893873D02*
X149079856Y-110857587D01*
X149079856Y-110857587D02*
X149007284Y-110857587D01*
X148521962Y-111619587D02*
X148472069Y-111220444D01*
X148472069Y-111220444D02*
X148499284Y-111147873D01*
X148499284Y-111147873D02*
X148567319Y-111111587D01*
X148567319Y-111111587D02*
X148712462Y-111111587D01*
X148712462Y-111111587D02*
X148789569Y-111147873D01*
X148517427Y-111583302D02*
X148594534Y-111619587D01*
X148594534Y-111619587D02*
X148775962Y-111619587D01*
X148775962Y-111619587D02*
X148843998Y-111583302D01*
X148843998Y-111583302D02*
X148871212Y-111510730D01*
X148871212Y-111510730D02*
X148862141Y-111438159D01*
X148862141Y-111438159D02*
X148816784Y-111365587D01*
X148816784Y-111365587D02*
X148739677Y-111329302D01*
X148739677Y-111329302D02*
X148558248Y-111329302D01*
X148558248Y-111329302D02*
X148481141Y-111293016D01*
X147827998Y-111583302D02*
X147905105Y-111619587D01*
X147905105Y-111619587D02*
X148050248Y-111619587D01*
X148050248Y-111619587D02*
X148118283Y-111583302D01*
X148118283Y-111583302D02*
X148150033Y-111547016D01*
X148150033Y-111547016D02*
X148177248Y-111474444D01*
X148177248Y-111474444D02*
X148150033Y-111256730D01*
X148150033Y-111256730D02*
X148104676Y-111184159D01*
X148104676Y-111184159D02*
X148063855Y-111147873D01*
X148063855Y-111147873D02*
X147986748Y-111111587D01*
X147986748Y-111111587D02*
X147841605Y-111111587D01*
X147841605Y-111111587D02*
X147773569Y-111147873D01*
X147211140Y-111583302D02*
X147288247Y-111619587D01*
X147288247Y-111619587D02*
X147433390Y-111619587D01*
X147433390Y-111619587D02*
X147501426Y-111583302D01*
X147501426Y-111583302D02*
X147528640Y-111510730D01*
X147528640Y-111510730D02*
X147492355Y-111220444D01*
X147492355Y-111220444D02*
X147446997Y-111147873D01*
X147446997Y-111147873D02*
X147369890Y-111111587D01*
X147369890Y-111111587D02*
X147224747Y-111111587D01*
X147224747Y-111111587D02*
X147156712Y-111147873D01*
X147156712Y-111147873D02*
X147129497Y-111220444D01*
X147129497Y-111220444D02*
X147138569Y-111293016D01*
X147138569Y-111293016D02*
X147510497Y-111365587D01*
X162646179Y-112773793D02*
X162687000Y-112810079D01*
X162687000Y-112810079D02*
X162800393Y-112846364D01*
X162800393Y-112846364D02*
X162872964Y-112846364D01*
X162872964Y-112846364D02*
X162977286Y-112810079D01*
X162977286Y-112810079D02*
X163040786Y-112737507D01*
X163040786Y-112737507D02*
X163068000Y-112664936D01*
X163068000Y-112664936D02*
X163086143Y-112519793D01*
X163086143Y-112519793D02*
X163072536Y-112410936D01*
X163072536Y-112410936D02*
X163018107Y-112265793D01*
X163018107Y-112265793D02*
X162972750Y-112193221D01*
X162972750Y-112193221D02*
X162891107Y-112120650D01*
X162891107Y-112120650D02*
X162777714Y-112084364D01*
X162777714Y-112084364D02*
X162705143Y-112084364D01*
X162705143Y-112084364D02*
X162600822Y-112120650D01*
X162600822Y-112120650D02*
X162569072Y-112156936D01*
X162002107Y-112846364D02*
X161952214Y-112447221D01*
X161952214Y-112447221D02*
X161979429Y-112374650D01*
X161979429Y-112374650D02*
X162047464Y-112338364D01*
X162047464Y-112338364D02*
X162192607Y-112338364D01*
X162192607Y-112338364D02*
X162269714Y-112374650D01*
X161997572Y-112810079D02*
X162074679Y-112846364D01*
X162074679Y-112846364D02*
X162256107Y-112846364D01*
X162256107Y-112846364D02*
X162324143Y-112810079D01*
X162324143Y-112810079D02*
X162351357Y-112737507D01*
X162351357Y-112737507D02*
X162342286Y-112664936D01*
X162342286Y-112664936D02*
X162296929Y-112592364D01*
X162296929Y-112592364D02*
X162219822Y-112556079D01*
X162219822Y-112556079D02*
X162038393Y-112556079D01*
X162038393Y-112556079D02*
X161961286Y-112519793D01*
X161639250Y-112846364D02*
X161575750Y-112338364D01*
X161593893Y-112483507D02*
X161548535Y-112410936D01*
X161548535Y-112410936D02*
X161507714Y-112374650D01*
X161507714Y-112374650D02*
X161430607Y-112338364D01*
X161430607Y-112338364D02*
X161358035Y-112338364D01*
X161104036Y-112338364D02*
X161167536Y-112846364D01*
X161113107Y-112410936D02*
X161072286Y-112374650D01*
X161072286Y-112374650D02*
X160995179Y-112338364D01*
X160995179Y-112338364D02*
X160886321Y-112338364D01*
X160886321Y-112338364D02*
X160818286Y-112374650D01*
X160818286Y-112374650D02*
X160791071Y-112447221D01*
X160791071Y-112447221D02*
X160840964Y-112846364D01*
X160183285Y-112810079D02*
X160260392Y-112846364D01*
X160260392Y-112846364D02*
X160405535Y-112846364D01*
X160405535Y-112846364D02*
X160473571Y-112810079D01*
X160473571Y-112810079D02*
X160500785Y-112737507D01*
X160500785Y-112737507D02*
X160464500Y-112447221D01*
X160464500Y-112447221D02*
X160419142Y-112374650D01*
X160419142Y-112374650D02*
X160342035Y-112338364D01*
X160342035Y-112338364D02*
X160196892Y-112338364D01*
X160196892Y-112338364D02*
X160128857Y-112374650D01*
X160128857Y-112374650D02*
X160101642Y-112447221D01*
X160101642Y-112447221D02*
X160110714Y-112519793D01*
X160110714Y-112519793D02*
X160482642Y-112592364D01*
X159434892Y-112338364D02*
X159511999Y-112955221D01*
X159511999Y-112955221D02*
X159557357Y-113027793D01*
X159557357Y-113027793D02*
X159598178Y-113064079D01*
X159598178Y-113064079D02*
X159675285Y-113100364D01*
X159675285Y-113100364D02*
X159784142Y-113100364D01*
X159784142Y-113100364D02*
X159852178Y-113064079D01*
X159493857Y-112810079D02*
X159570964Y-112846364D01*
X159570964Y-112846364D02*
X159716107Y-112846364D01*
X159716107Y-112846364D02*
X159784142Y-112810079D01*
X159784142Y-112810079D02*
X159815892Y-112773793D01*
X159815892Y-112773793D02*
X159843107Y-112701221D01*
X159843107Y-112701221D02*
X159815892Y-112483507D01*
X159815892Y-112483507D02*
X159770535Y-112410936D01*
X159770535Y-112410936D02*
X159729714Y-112374650D01*
X159729714Y-112374650D02*
X159652607Y-112338364D01*
X159652607Y-112338364D02*
X159507464Y-112338364D01*
X159507464Y-112338364D02*
X159439428Y-112374650D01*
X159135535Y-112846364D02*
X159072035Y-112338364D01*
X159040285Y-112084364D02*
X159081106Y-112120650D01*
X159081106Y-112120650D02*
X159049356Y-112156936D01*
X159049356Y-112156936D02*
X159008535Y-112120650D01*
X159008535Y-112120650D02*
X159040285Y-112084364D01*
X159040285Y-112084364D02*
X159049356Y-112156936D01*
X158477856Y-112810079D02*
X158554963Y-112846364D01*
X158554963Y-112846364D02*
X158700106Y-112846364D01*
X158700106Y-112846364D02*
X158768142Y-112810079D01*
X158768142Y-112810079D02*
X158795356Y-112737507D01*
X158795356Y-112737507D02*
X158759071Y-112447221D01*
X158759071Y-112447221D02*
X158713713Y-112374650D01*
X158713713Y-112374650D02*
X158636606Y-112338364D01*
X158636606Y-112338364D02*
X158491463Y-112338364D01*
X158491463Y-112338364D02*
X158423428Y-112374650D01*
X158423428Y-112374650D02*
X158396213Y-112447221D01*
X158396213Y-112447221D02*
X158405285Y-112519793D01*
X158405285Y-112519793D02*
X158777213Y-112592364D01*
X157538964Y-112846364D02*
X157443714Y-112084364D01*
X157443714Y-112084364D02*
X157257749Y-112628650D01*
X157257749Y-112628650D02*
X156935714Y-112084364D01*
X156935714Y-112084364D02*
X157030964Y-112846364D01*
X156373285Y-112810079D02*
X156450392Y-112846364D01*
X156450392Y-112846364D02*
X156595535Y-112846364D01*
X156595535Y-112846364D02*
X156663571Y-112810079D01*
X156663571Y-112810079D02*
X156690785Y-112737507D01*
X156690785Y-112737507D02*
X156654500Y-112447221D01*
X156654500Y-112447221D02*
X156609142Y-112374650D01*
X156609142Y-112374650D02*
X156532035Y-112338364D01*
X156532035Y-112338364D02*
X156386892Y-112338364D01*
X156386892Y-112338364D02*
X156318857Y-112374650D01*
X156318857Y-112374650D02*
X156291642Y-112447221D01*
X156291642Y-112447221D02*
X156300714Y-112519793D01*
X156300714Y-112519793D02*
X156672642Y-112592364D01*
X155906107Y-112846364D02*
X155974142Y-112810079D01*
X155974142Y-112810079D02*
X156001357Y-112737507D01*
X156001357Y-112737507D02*
X155919714Y-112084364D01*
X155506964Y-112846364D02*
X155574999Y-112810079D01*
X155574999Y-112810079D02*
X155602214Y-112737507D01*
X155602214Y-112737507D02*
X155520571Y-112084364D01*
X155107821Y-112846364D02*
X155175856Y-112810079D01*
X155175856Y-112810079D02*
X155207606Y-112773793D01*
X155207606Y-112773793D02*
X155234821Y-112701221D01*
X155234821Y-112701221D02*
X155207606Y-112483507D01*
X155207606Y-112483507D02*
X155162249Y-112410936D01*
X155162249Y-112410936D02*
X155121428Y-112374650D01*
X155121428Y-112374650D02*
X155044321Y-112338364D01*
X155044321Y-112338364D02*
X154935463Y-112338364D01*
X154935463Y-112338364D02*
X154867428Y-112374650D01*
X154867428Y-112374650D02*
X154835678Y-112410936D01*
X154835678Y-112410936D02*
X154808463Y-112483507D01*
X154808463Y-112483507D02*
X154835678Y-112701221D01*
X154835678Y-112701221D02*
X154881035Y-112773793D01*
X154881035Y-112773793D02*
X154921856Y-112810079D01*
X154921856Y-112810079D02*
X154998963Y-112846364D01*
X154998963Y-112846364D02*
X155107821Y-112846364D01*
X154463749Y-112338364D02*
X154527249Y-112846364D01*
X154472820Y-112410936D02*
X154431999Y-112374650D01*
X154431999Y-112374650D02*
X154354892Y-112338364D01*
X154354892Y-112338364D02*
X154246034Y-112338364D01*
X154246034Y-112338364D02*
X154177999Y-112374650D01*
X154177999Y-112374650D02*
X154150784Y-112447221D01*
X154150784Y-112447221D02*
X154200677Y-112846364D01*
X153161999Y-112084364D02*
X153239106Y-112701221D01*
X153239106Y-112701221D02*
X153211892Y-112773793D01*
X153211892Y-112773793D02*
X153180142Y-112810079D01*
X153180142Y-112810079D02*
X153112106Y-112846364D01*
X153112106Y-112846364D02*
X152966963Y-112846364D01*
X152966963Y-112846364D02*
X152889856Y-112810079D01*
X152889856Y-112810079D02*
X152849034Y-112773793D01*
X152849034Y-112773793D02*
X152803677Y-112701221D01*
X152803677Y-112701221D02*
X152726570Y-112084364D01*
X152395463Y-112338364D02*
X152458963Y-112846364D01*
X152404534Y-112410936D02*
X152363713Y-112374650D01*
X152363713Y-112374650D02*
X152286606Y-112338364D01*
X152286606Y-112338364D02*
X152177748Y-112338364D01*
X152177748Y-112338364D02*
X152109713Y-112374650D01*
X152109713Y-112374650D02*
X152082498Y-112447221D01*
X152082498Y-112447221D02*
X152132391Y-112846364D01*
X151769534Y-112846364D02*
X151706034Y-112338364D01*
X151674284Y-112084364D02*
X151715105Y-112120650D01*
X151715105Y-112120650D02*
X151683355Y-112156936D01*
X151683355Y-112156936D02*
X151642534Y-112120650D01*
X151642534Y-112120650D02*
X151674284Y-112084364D01*
X151674284Y-112084364D02*
X151683355Y-112156936D01*
X151415748Y-112338364D02*
X151297820Y-112846364D01*
X151297820Y-112846364D02*
X151052891Y-112338364D01*
X150531284Y-112810079D02*
X150608391Y-112846364D01*
X150608391Y-112846364D02*
X150753534Y-112846364D01*
X150753534Y-112846364D02*
X150821570Y-112810079D01*
X150821570Y-112810079D02*
X150848784Y-112737507D01*
X150848784Y-112737507D02*
X150812499Y-112447221D01*
X150812499Y-112447221D02*
X150767141Y-112374650D01*
X150767141Y-112374650D02*
X150690034Y-112338364D01*
X150690034Y-112338364D02*
X150544891Y-112338364D01*
X150544891Y-112338364D02*
X150476856Y-112374650D01*
X150476856Y-112374650D02*
X150449641Y-112447221D01*
X150449641Y-112447221D02*
X150458713Y-112519793D01*
X150458713Y-112519793D02*
X150830641Y-112592364D01*
X150172963Y-112846364D02*
X150109463Y-112338364D01*
X150127606Y-112483507D02*
X150082248Y-112410936D01*
X150082248Y-112410936D02*
X150041427Y-112374650D01*
X150041427Y-112374650D02*
X149964320Y-112338364D01*
X149964320Y-112338364D02*
X149891748Y-112338364D01*
X149732999Y-112810079D02*
X149664963Y-112846364D01*
X149664963Y-112846364D02*
X149519820Y-112846364D01*
X149519820Y-112846364D02*
X149442713Y-112810079D01*
X149442713Y-112810079D02*
X149397356Y-112737507D01*
X149397356Y-112737507D02*
X149392820Y-112701221D01*
X149392820Y-112701221D02*
X149420034Y-112628650D01*
X149420034Y-112628650D02*
X149488070Y-112592364D01*
X149488070Y-112592364D02*
X149596927Y-112592364D01*
X149596927Y-112592364D02*
X149664963Y-112556079D01*
X149664963Y-112556079D02*
X149692177Y-112483507D01*
X149692177Y-112483507D02*
X149687642Y-112447221D01*
X149687642Y-112447221D02*
X149642284Y-112374650D01*
X149642284Y-112374650D02*
X149565177Y-112338364D01*
X149565177Y-112338364D02*
X149456320Y-112338364D01*
X149456320Y-112338364D02*
X149388284Y-112374650D01*
X149084392Y-112846364D02*
X149020892Y-112338364D01*
X148989142Y-112084364D02*
X149029963Y-112120650D01*
X149029963Y-112120650D02*
X148998213Y-112156936D01*
X148998213Y-112156936D02*
X148957392Y-112120650D01*
X148957392Y-112120650D02*
X148989142Y-112084364D01*
X148989142Y-112084364D02*
X148998213Y-112156936D01*
X148766892Y-112338364D02*
X148476606Y-112338364D01*
X148626285Y-112084364D02*
X148707928Y-112737507D01*
X148707928Y-112737507D02*
X148680713Y-112810079D01*
X148680713Y-112810079D02*
X148612678Y-112846364D01*
X148612678Y-112846364D02*
X148540106Y-112846364D01*
X148295177Y-112338364D02*
X148177249Y-112846364D01*
X147932320Y-112338364D02*
X148177249Y-112846364D01*
X148177249Y-112846364D02*
X148272499Y-113027793D01*
X148272499Y-113027793D02*
X148313320Y-113064079D01*
X148313320Y-113064079D02*
X148390427Y-113100364D01*
X156604606Y-113565141D02*
X156486678Y-114073141D01*
X156486678Y-114073141D02*
X156241749Y-113565141D01*
X155615821Y-114073141D02*
X156051249Y-114073141D01*
X155833535Y-114073141D02*
X155738285Y-113311141D01*
X155738285Y-113311141D02*
X155824464Y-113419998D01*
X155824464Y-113419998D02*
X155906107Y-113492570D01*
X155906107Y-113492570D02*
X155983214Y-113528856D01*
X155280178Y-114000570D02*
X155248428Y-114036856D01*
X155248428Y-114036856D02*
X155289250Y-114073141D01*
X155289250Y-114073141D02*
X155321000Y-114036856D01*
X155321000Y-114036856D02*
X155280178Y-114000570D01*
X155280178Y-114000570D02*
X155289250Y-114073141D01*
X154686000Y-113311141D02*
X154613428Y-113311141D01*
X154613428Y-113311141D02*
X154545393Y-113347427D01*
X154545393Y-113347427D02*
X154513643Y-113383713D01*
X154513643Y-113383713D02*
X154486428Y-113456284D01*
X154486428Y-113456284D02*
X154468286Y-113601427D01*
X154468286Y-113601427D02*
X154490964Y-113782856D01*
X154490964Y-113782856D02*
X154545393Y-113927998D01*
X154545393Y-113927998D02*
X154590750Y-114000570D01*
X154590750Y-114000570D02*
X154631571Y-114036856D01*
X154631571Y-114036856D02*
X154708678Y-114073141D01*
X154708678Y-114073141D02*
X154781250Y-114073141D01*
X154781250Y-114073141D02*
X154849286Y-114036856D01*
X154849286Y-114036856D02*
X154881036Y-114000570D01*
X154881036Y-114000570D02*
X154908250Y-113927998D01*
X154908250Y-113927998D02*
X154926393Y-113782856D01*
X154926393Y-113782856D02*
X154903714Y-113601427D01*
X154903714Y-113601427D02*
X154849286Y-113456284D01*
X154849286Y-113456284D02*
X154803928Y-113383713D01*
X154803928Y-113383713D02*
X154763107Y-113347427D01*
X154763107Y-113347427D02*
X154686000Y-113311141D01*
%TO.C,J3*%
D11*
X177105000Y-79315000D02*
X182305000Y-79315000D01*
X177105000Y-92135000D02*
X177105000Y-79315000D01*
X177105000Y-92135000D02*
X179705000Y-92135000D01*
X179705000Y-89535000D02*
X182305000Y-89535000D01*
X179705000Y-92135000D02*
X179705000Y-89535000D01*
X180975000Y-92135000D02*
X182305000Y-92135000D01*
X182305000Y-89535000D02*
X182305000Y-79315000D01*
X182305000Y-92135000D02*
X182305000Y-90805000D01*
%TO.C,J5*%
X128845000Y-79315000D02*
X128845000Y-80645000D01*
X128845000Y-81915000D02*
X128845000Y-92135000D01*
X130175000Y-79315000D02*
X128845000Y-79315000D01*
X131445000Y-79315000D02*
X131445000Y-81915000D01*
X131445000Y-81915000D02*
X128845000Y-81915000D01*
X134045000Y-79315000D02*
X131445000Y-79315000D01*
X134045000Y-79315000D02*
X134045000Y-92135000D01*
X134045000Y-92135000D02*
X128845000Y-92135000D01*
%TO.C,J6*%
X128845000Y-102175000D02*
X128845000Y-103505000D01*
X128845000Y-104775000D02*
X128845000Y-114995000D01*
X130175000Y-102175000D02*
X128845000Y-102175000D01*
X131445000Y-102175000D02*
X131445000Y-104775000D01*
X131445000Y-104775000D02*
X128845000Y-104775000D01*
X134045000Y-102175000D02*
X131445000Y-102175000D01*
X134045000Y-102175000D02*
X134045000Y-114995000D01*
X134045000Y-114995000D02*
X128845000Y-114995000D01*
%TO.C,J4*%
X177105000Y-102175000D02*
X182305000Y-102175000D01*
X177105000Y-114995000D02*
X177105000Y-102175000D01*
X177105000Y-114995000D02*
X179705000Y-114995000D01*
X179705000Y-112395000D02*
X182305000Y-112395000D01*
X179705000Y-114995000D02*
X179705000Y-112395000D01*
X180975000Y-114995000D02*
X182305000Y-114995000D01*
X182305000Y-112395000D02*
X182305000Y-102175000D01*
X182305000Y-114995000D02*
X182305000Y-113665000D01*
%TD*%
%LPC*%
D12*
%TO.C,H2*%
X170180000Y-82550000D03*
%TD*%
%TO.C,H4*%
X140970000Y-111760000D03*
%TD*%
%TO.C,H1*%
X140970000Y-82550000D03*
%TD*%
%TO.C,H3*%
X170180000Y-111760000D03*
%TD*%
D13*
%TO.C,J3*%
X180975000Y-90805000D03*
D14*
X178435000Y-90805000D03*
X180975000Y-88265000D03*
X178435000Y-88265000D03*
X180975000Y-85725000D03*
X178435000Y-85725000D03*
X180975000Y-83185000D03*
X178435000Y-83185000D03*
X180975000Y-80645000D03*
X178435000Y-80645000D03*
%TD*%
D13*
%TO.C,J5*%
X130175000Y-80645000D03*
D14*
X132715000Y-80645000D03*
X130175000Y-83185000D03*
X132715000Y-83185000D03*
X130175000Y-85725000D03*
X132715000Y-85725000D03*
X130175000Y-88265000D03*
X132715000Y-88265000D03*
X130175000Y-90805000D03*
X132715000Y-90805000D03*
%TD*%
D13*
%TO.C,J6*%
X130175000Y-103505000D03*
D14*
X132715000Y-103505000D03*
X130175000Y-106045000D03*
X132715000Y-106045000D03*
X130175000Y-108585000D03*
X132715000Y-108585000D03*
X130175000Y-111125000D03*
X132715000Y-111125000D03*
X130175000Y-113665000D03*
X132715000Y-113665000D03*
%TD*%
D13*
%TO.C,J4*%
X180975000Y-113665000D03*
D14*
X178435000Y-113665000D03*
X180975000Y-111125000D03*
X178435000Y-111125000D03*
X180975000Y-108585000D03*
X178435000Y-108585000D03*
X180975000Y-106045000D03*
X178435000Y-106045000D03*
X180975000Y-103505000D03*
X178435000Y-103505000D03*
%TD*%
%LPD*%
M02*
